<svg width="458" height="103" viewBox="0 0 458 103" fill="none" xmlns="http://www.w3.org/2000/svg">
<path d="M20.896 13.968L20.848 23.568C20.848 24.976 21.056 26.032 21.472 26.736C21.92 27.408 22.832 27.744 24.208 27.744H36.352C37.824 27.776 38.56 28.896 38.56 31.104C38.56 32.8 38.352 34.032 37.936 34.8C37.52 35.568 36.672 35.968 35.392 36C30.88 36.128 26.416 36.192 22 36.192C17.584 36.192 11.952 36.16 5.104 36.096C3.952 36.096 3.008 35.824 2.272 35.28C1.568 34.704 1.168 33.92 1.072 32.928C0.816 30.144 0.688 25.76 0.688 19.776C0.688 13.76 0.752 9.712 0.88 7.632C1.04 5.52 1.344 4.128 1.792 3.456C2.24 2.752 3.12 2.4 4.432 2.4H17.296C18.64 2.4 19.52 2.752 19.936 3.456C20.384 4.16 20.656 5.296 20.752 6.864C20.848 8.432 20.896 10.8 20.896 13.968ZM58.9791 10.8C69.4111 10.8 74.6751 14.192 74.7711 20.976C74.8351 23.856 74.8671 26.496 74.8671 28.896C74.8671 31.296 74.8511 32.912 74.8191 33.744C74.7871 34.576 74.5631 35.184 74.1471 35.568C73.7631 35.92 72.9951 36.096 71.8431 36.096H61.6671C60.6431 36.096 59.9391 35.92 59.5551 35.568C59.1711 35.184 58.9631 34.624 58.9311 33.888C58.9311 33.856 58.9151 33.808 58.8831 33.744C58.8831 33.648 58.8831 33.568 58.8831 33.504C56.7711 35.68 53.8911 36.768 50.2431 36.768C47.7151 36.768 45.5551 36.144 43.7631 34.896C42.0031 33.616 41.1231 31.872 41.1231 29.664C41.1231 27.424 41.7471 25.648 42.9951 24.336C44.2751 22.992 45.7791 22.08 47.5071 21.6C49.2671 21.12 51.1391 20.88 53.1231 20.88C55.1391 20.88 57.1071 21.072 59.0271 21.456V21.264C59.0271 19.664 58.7071 18.512 58.0671 17.808C57.4591 17.104 56.4511 16.752 55.0431 16.752C53.6671 16.752 52.5151 16.88 51.5871 17.136C50.6591 17.36 49.9551 17.6 49.4751 17.856C48.1631 18.624 47.2511 19.008 46.7391 19.008C46.2271 19.008 45.7631 18.768 45.3471 18.288C44.9631 17.808 44.7711 17.072 44.7711 16.08C44.7711 15.056 44.9471 14.352 45.2991 13.968C45.6831 13.584 46.2751 13.2 47.0751 12.816C49.8591 11.472 53.8271 10.8 58.9791 10.8ZM56.7231 30.432C58.1311 30.432 58.8511 30.16 58.8831 29.616C58.9471 28.56 58.9791 27.168 58.9791 25.44C58.9791 24.768 58.4671 24.432 57.4431 24.432C56.4191 24.432 55.5871 24.688 54.9471 25.2C54.3071 25.68 53.9871 26.4 53.9871 27.36C53.9871 28.32 54.2431 29.072 54.7551 29.616C55.2991 30.16 55.9551 30.432 56.7231 30.432ZM95.1104 13.68L95.0624 25.392C95.0624 26.32 95.2704 27.024 95.6864 27.504C96.1024 27.984 96.6304 28.224 97.2704 28.224C97.9424 28.224 98.5664 27.984 99.1424 27.504C99.7504 26.992 100.182 26.304 100.438 25.44V22.512C100.438 18.288 100.534 15.408 100.726 13.872C100.822 13.328 101.094 12.848 101.542 12.432C101.99 12.016 102.774 11.776 103.894 11.712C105.046 11.616 106.182 11.568 107.302 11.568C108.422 11.568 110.326 11.632 113.014 11.76C113.782 11.792 114.39 12.016 114.838 12.432C115.286 12.848 115.542 13.328 115.606 13.872C115.83 15.952 115.942 19.152 115.942 23.472C115.942 27.76 115.878 30.688 115.75 32.256C115.622 33.824 115.382 34.848 115.03 35.328C114.678 35.808 113.958 36.048 112.87 36.048H103.51C102.422 36.048 101.686 35.808 101.302 35.328C100.95 34.848 100.726 34.032 100.63 32.88V32.832C97.3344 35.36 93.9904 36.624 90.5984 36.624C87.2064 36.624 84.6304 35.792 82.8704 34.128C81.1424 32.432 80.2464 30.048 80.1824 26.976C80.1504 23.904 80.1344 21.168 80.1344 18.768C80.1344 16.368 80.1504 14.752 80.1824 13.92C80.2144 13.088 80.4224 12.496 80.8064 12.144C81.2224 11.76 82.0064 11.568 83.1584 11.568L92.3744 11.472C93.3984 11.472 94.1024 11.664 94.4864 12.048C94.9024 12.4 95.1104 12.944 95.1104 13.68ZM142.556 33.936L142.604 22.224C142.604 21.264 142.364 20.544 141.884 20.064C141.404 19.584 140.796 19.344 140.06 19.344C139.356 19.344 138.7 19.6 138.092 20.112C137.516 20.592 137.228 21.28 137.228 22.176V25.104C137.228 29.328 137.132 32.208 136.94 33.744C136.844 34.288 136.572 34.768 136.124 35.184C135.676 35.6 134.876 35.856 133.724 35.952C132.604 36.016 131.484 36.048 130.364 36.048C129.244 36.048 127.34 35.984 124.652 35.856C123.884 35.824 123.276 35.6 122.828 35.184C122.38 34.768 122.124 34.288 122.06 33.744C121.836 31.664 121.724 28.48 121.724 24.192C121.724 19.904 121.788 16.976 121.916 15.408C122.044 13.808 122.284 12.768 122.636 12.288C122.988 11.808 123.708 11.568 124.796 11.568H134.156C135.244 11.568 135.964 11.808 136.316 12.288C136.7 12.768 136.94 13.584 137.036 14.736V14.784C139.5 12.224 142.492 10.944 146.012 10.944C149.564 10.944 152.348 11.808 154.364 13.536C156.38 15.264 157.404 17.648 157.436 20.688C157.5 23.728 157.532 26.448 157.532 28.848C157.532 31.248 157.516 32.864 157.484 33.696C157.452 34.528 157.228 35.136 156.812 35.52C156.428 35.872 155.66 36.048 154.508 36.048L145.292 36.144C144.268 36.144 143.548 35.968 143.132 35.616C142.748 35.232 142.556 34.672 142.556 33.936ZM182.993 18.48C181.489 18.48 180.369 18.976 179.633 19.968C178.897 20.96 178.529 22.192 178.529 23.664C178.529 25.136 178.961 26.4 179.825 27.456C180.689 28.512 182.081 29.04 184.001 29.04C184.609 29.04 185.505 28.88 186.689 28.56C187.873 28.24 188.705 28.08 189.185 28.08C190.305 28.08 190.897 29.152 190.961 31.296C190.961 32.224 190.897 33.088 190.769 33.888C190.673 34.688 190.081 35.264 188.993 35.616C185.793 36.608 182.961 37.104 180.497 37.104C178.065 37.104 176.065 37.008 174.497 36.816C172.961 36.656 171.393 36.304 169.793 35.76C168.225 35.216 166.913 34.496 165.857 33.6C164.833 32.704 163.985 31.504 163.313 30C162.673 28.464 162.353 26.544 162.353 24.24C162.353 21.904 162.849 19.824 163.841 18C164.865 16.176 166.257 14.784 168.017 13.824C171.345 12.032 175.505 11.136 180.497 11.136C183.185 11.136 185.921 11.568 188.705 12.432C189.889 12.816 190.481 14.112 190.481 16.32C190.481 18.496 189.921 19.584 188.801 19.584C188.321 19.584 187.441 19.408 186.161 19.056C184.913 18.672 183.857 18.48 182.993 18.48ZM195.607 33.744L195.511 18.048C195.511 13.248 195.559 8.576 195.655 4.032C195.687 2.976 195.879 2.192 196.231 1.68C196.615 1.168 197.335 0.912 198.391 0.912H207.607C208.663 0.912 209.367 1.168 209.719 1.68C210.103 2.16 210.327 3.056 210.391 4.368C210.487 5.648 210.567 9.104 210.631 14.736C213.127 12.208 216.119 10.944 219.607 10.944C223.127 10.944 225.895 11.808 227.911 13.536C229.927 15.264 230.951 17.648 230.983 20.688C231.047 23.728 231.079 26.448 231.079 28.848C231.079 31.248 231.063 32.864 231.031 33.696C230.999 34.528 230.775 35.136 230.359 35.52C229.975 35.872 229.207 36.048 228.055 36.048L218.839 36.144C217.815 36.144 217.095 35.968 216.679 35.616C216.295 35.232 216.103 34.672 216.103 33.936L216.151 22.224C216.151 21.264 215.911 20.544 215.431 20.064C214.951 19.584 214.343 19.344 213.607 19.344C212.903 19.344 212.263 19.6 211.687 20.112C211.111 20.592 210.807 21.28 210.775 22.176L210.487 33.744C210.455 34.352 210.167 34.864 209.623 35.28C209.079 35.696 208.407 35.936 207.607 36C206.839 36.064 205.975 36.096 205.015 36.096L198.295 36C197.687 36 197.079 35.792 196.471 35.376C195.895 34.928 195.607 34.384 195.607 33.744ZM266.159 29.712C266.159 28.816 265.775 28.112 265.007 27.6C264.271 27.088 263.359 26.704 262.271 26.448C261.215 26.16 260.143 25.84 259.055 25.488C257.967 25.104 257.039 24.464 256.271 23.568C255.535 22.64 255.167 21.424 255.167 19.92C255.167 13.968 259.791 10.992 269.039 10.992C273.007 10.992 276.191 11.664 278.591 13.008C279.359 13.424 279.903 13.824 280.223 14.208C280.543 14.56 280.703 15.2 280.703 16.128C280.703 17.056 280.511 17.76 280.127 18.24C279.775 18.688 279.407 18.912 279.023 18.912C278.671 18.912 277.871 18.56 276.623 17.856C275.407 17.12 274.143 16.736 272.831 16.704C271.775 16.704 271.247 17.232 271.247 18.288C271.247 18.992 271.615 19.552 272.351 19.968C273.087 20.384 273.983 20.752 275.039 21.072C276.095 21.36 277.151 21.728 278.207 22.176C279.263 22.592 280.159 23.312 280.895 24.336C281.631 25.328 281.999 26.592 281.999 28.128C281.999 34.08 277.375 37.056 268.127 37.056C263.615 37.056 259.935 36.4 257.087 35.088C256.223 34.736 255.599 34.384 255.215 34.032C254.831 33.648 254.639 32.976 254.639 32.016C254.639 31.024 254.831 30.32 255.215 29.904C255.631 29.488 255.967 29.28 256.223 29.28C256.511 29.28 257.439 29.632 259.007 30.336C260.575 31.04 262.159 31.392 263.759 31.392C265.359 31.392 266.159 30.832 266.159 29.712ZM306.978 18.48C305.474 18.48 304.354 18.976 303.618 19.968C302.882 20.96 302.514 22.192 302.514 23.664C302.514 25.136 302.946 26.4 303.81 27.456C304.674 28.512 306.066 29.04 307.986 29.04C308.594 29.04 309.49 28.88 310.674 28.56C311.858 28.24 312.69 28.08 313.17 28.08C314.29 28.08 314.882 29.152 314.946 31.296C314.946 32.224 314.882 33.088 314.754 33.888C314.658 34.688 314.066 35.264 312.978 35.616C309.778 36.608 306.946 37.104 304.482 37.104C302.05 37.104 300.05 37.008 298.482 36.816C296.946 36.656 295.378 36.304 293.778 35.76C292.21 35.216 290.898 34.496 289.842 33.6C288.818 32.704 287.97 31.504 287.298 30C286.658 28.464 286.338 26.544 286.338 24.24C286.338 21.904 286.834 19.824 287.826 18C288.85 16.176 290.242 14.784 292.002 13.824C295.33 12.032 299.49 11.136 304.482 11.136C307.17 11.136 309.906 11.568 312.69 12.432C313.874 12.816 314.466 14.112 314.466 16.32C314.466 18.496 313.906 19.584 312.786 19.584C312.306 19.584 311.426 19.408 310.146 19.056C308.898 18.672 307.842 18.48 306.978 18.48ZM322.327 11.568H331.687C332.775 11.568 333.527 11.808 333.943 12.288C334.359 12.736 334.567 13.424 334.567 14.352V16.08C336.359 12.688 339.271 10.992 343.303 10.992C344.647 10.992 345.751 11.424 346.615 12.288C347.479 13.152 347.911 14.304 347.911 15.744C347.911 17.184 347.527 18.624 346.759 20.064C345.991 21.472 344.919 22.176 343.543 22.176C342.903 22.176 342.007 21.856 340.855 21.216C339.703 20.544 338.775 20.208 338.071 20.208C337.367 20.208 336.631 20.464 335.863 20.976C335.127 21.488 334.759 22.336 334.759 23.52C334.759 28.672 334.663 32.08 334.471 33.744C334.375 34.288 334.103 34.768 333.655 35.184C333.207 35.6 332.407 35.856 331.255 35.952C330.135 36.016 329.015 36.048 327.895 36.048C326.775 36.048 324.871 35.984 322.183 35.856C321.415 35.824 320.807 35.6 320.359 35.184C319.911 34.768 319.655 34.288 319.591 33.744C319.367 31.664 319.255 28.48 319.255 24.192C319.255 19.904 319.319 16.976 319.447 15.408C319.575 13.808 319.815 12.768 320.167 12.288C320.519 11.808 321.239 11.568 322.327 11.568ZM357.426 13.056C358.898 12.32 360.402 11.792 361.938 11.472C363.506 11.152 365.426 10.992 367.698 10.992C370.002 10.992 372.194 11.28 374.274 11.856C376.354 12.4 377.906 13.152 378.93 14.112C380.722 15.872 381.618 17.936 381.618 20.304C381.618 24.016 378.482 25.872 372.21 25.872C370.002 25.872 367.714 25.664 365.346 25.248C365.442 27.36 365.826 28.848 366.498 29.712C367.202 30.576 368.434 31.008 370.194 31.008C371.954 31.008 373.41 30.816 374.562 30.432C375.714 30.048 376.642 29.664 377.346 29.28C378.05 28.864 378.642 28.656 379.122 28.656C379.634 28.656 380.066 28.88 380.418 29.328C380.962 29.904 381.234 30.704 381.234 31.728C381.234 32.72 381.026 33.408 380.61 33.792C380.226 34.144 379.602 34.496 378.738 34.848C375.698 36.128 371.378 36.768 365.778 36.768C361.138 36.768 357.314 35.664 354.306 33.456C351.33 31.216 349.842 28.208 349.842 24.432C349.842 22.608 350.178 20.944 350.85 19.44C351.522 17.904 352.418 16.64 353.538 15.648C354.658 14.624 355.954 13.76 357.426 13.056ZM368.562 16.464C366.61 16.464 365.554 18.048 365.394 21.216C366.93 21.344 367.73 21.408 367.794 21.408C369.906 21.408 370.962 20.704 370.962 19.296C370.962 17.408 370.162 16.464 368.562 16.464ZM393.051 13.056C394.523 12.32 396.027 11.792 397.563 11.472C399.131 11.152 401.051 10.992 403.323 10.992C405.627 10.992 407.819 11.28 409.899 11.856C411.979 12.4 413.531 13.152 414.555 14.112C416.347 15.872 417.243 17.936 417.243 20.304C417.243 24.016 414.107 25.872 407.835 25.872C405.627 25.872 403.339 25.664 400.971 25.248C401.067 27.36 401.451 28.848 402.123 29.712C402.827 30.576 404.059 31.008 405.819 31.008C407.579 31.008 409.035 30.816 410.187 30.432C411.339 30.048 412.267 29.664 412.971 29.28C413.675 28.864 414.267 28.656 414.747 28.656C415.259 28.656 415.691 28.88 416.043 29.328C416.587 29.904 416.859 30.704 416.859 31.728C416.859 32.72 416.651 33.408 416.235 33.792C415.851 34.144 415.227 34.496 414.363 34.848C411.323 36.128 407.003 36.768 401.403 36.768C396.763 36.768 392.939 35.664 389.931 33.456C386.955 31.216 385.467 28.208 385.467 24.432C385.467 22.608 385.803 20.944 386.475 19.44C387.147 17.904 388.043 16.64 389.163 15.648C390.283 14.624 391.579 13.76 393.051 13.056ZM404.187 16.464C402.235 16.464 401.179 18.048 401.019 21.216C402.555 21.344 403.355 21.408 403.419 21.408C405.531 21.408 406.587 20.704 406.587 19.296C406.587 17.408 405.787 16.464 404.187 16.464ZM442.884 33.936L442.932 22.224C442.932 21.264 442.692 20.544 442.212 20.064C441.732 19.584 441.124 19.344 440.388 19.344C439.684 19.344 439.028 19.6 438.42 20.112C437.844 20.592 437.556 21.28 437.556 22.176V25.104C437.556 29.328 437.46 32.208 437.268 33.744C437.172 34.288 436.9 34.768 436.452 35.184C436.004 35.6 435.204 35.856 434.052 35.952C432.932 36.016 431.812 36.048 430.692 36.048C429.572 36.048 427.668 35.984 424.98 35.856C424.212 35.824 423.604 35.6 423.156 35.184C422.708 34.768 422.452 34.288 422.388 33.744C422.164 31.664 422.052 28.48 422.052 24.192C422.052 19.904 422.116 16.976 422.244 15.408C422.372 13.808 422.612 12.768 422.964 12.288C423.316 11.808 424.036 11.568 425.124 11.568H434.484C435.572 11.568 436.292 11.808 436.644 12.288C437.028 12.768 437.268 13.584 437.364 14.736V14.784C439.828 12.224 442.82 10.944 446.34 10.944C449.892 10.944 452.676 11.808 454.692 13.536C456.708 15.264 457.732 17.648 457.764 20.688C457.828 23.728 457.86 26.448 457.86 28.848C457.86 31.248 457.844 32.864 457.812 33.696C457.78 34.528 457.556 35.136 457.14 35.52C456.756 35.872 455.988 36.048 454.836 36.048L445.62 36.144C444.596 36.144 443.876 35.968 443.46 35.616C443.076 35.232 442.884 34.672 442.884 33.936ZM1.84 77.248V76.912C1.84 75.44 2.128 74.48 2.704 74.032C3.312 73.552 4.192 73.312 5.344 73.312H13.12V65.296C13.12 64.176 13.344 63.344 13.792 62.8C14.24 62.224 15.2 61.92 16.672 61.888H17.728C19.2 61.888 20.16 62.192 20.608 62.8C21.088 63.376 21.328 64.24 21.328 65.392V73.312H29.2C30.32 73.312 31.152 73.536 31.696 73.984C32.272 74.432 32.576 75.408 32.608 76.912V77.2C32.608 78.736 32.256 79.728 31.552 80.176C31.008 80.528 30.192 80.704 29.104 80.704H21.328V88.768C21.328 89.888 21.104 90.736 20.656 91.312C20.208 91.856 19.232 92.144 17.728 92.176H16.72C15.248 92.176 14.272 91.888 13.792 91.312C13.344 90.704 13.12 89.824 13.12 88.672V80.704H5.248C3.52 80.704 2.48 80.192 2.128 79.168C1.968 78.688 1.872 78.048 1.84 77.248ZM76.7283 86.704C78.6163 86.704 79.5603 85.152 79.5603 82.048C79.5603 78.912 78.6163 77.344 76.7283 77.344C75.9923 77.344 75.3203 77.6 74.7123 78.112C74.1363 78.592 73.8483 79.28 73.8483 80.176V83.872C73.8483 84.768 74.1363 85.472 74.7123 85.984C75.3203 86.464 75.9923 86.704 76.7283 86.704ZM61.3683 69.568L70.2003 69.616C70.9683 69.616 71.6403 69.856 72.2163 70.336C72.7923 70.784 73.0963 71.44 73.1283 72.304C74.3763 71.184 75.8803 70.336 77.6403 69.76C79.4323 69.184 81.1923 68.896 82.9203 68.896C85.9283 68.896 88.3923 69.968 90.3123 72.112C92.2323 74.224 93.1923 77.44 93.1923 81.76C93.1923 84.224 92.8563 86.336 92.1843 88.096C91.5123 89.824 90.6003 91.152 89.4483 92.08C87.2403 93.776 84.6003 94.624 81.5283 94.624C78.4883 94.624 76.1043 93.632 74.3763 91.648C74.1523 91.424 73.9763 91.36 73.8483 91.456C73.7523 91.552 73.7043 91.696 73.7043 91.888C73.7043 94.16 73.6083 96.64 73.4163 99.328C73.3523 100.384 73.1443 101.136 72.7923 101.584C72.4403 102.064 71.7203 102.304 70.6323 102.304H61.4163C60.3603 102.304 59.6403 102.048 59.2563 101.536C58.9043 101.024 58.7123 100.24 58.6803 99.184C58.6163 96.144 58.5843 92.256 58.5843 87.52L58.6803 71.824C58.6803 71.184 58.9683 70.656 59.5443 70.24C60.1523 69.792 60.7603 69.568 61.3683 69.568ZM114.385 68.8C124.817 68.8 130.081 72.192 130.177 78.976C130.241 81.856 130.273 84.496 130.273 86.896C130.273 89.296 130.257 90.912 130.225 91.744C130.193 92.576 129.969 93.184 129.553 93.568C129.169 93.92 128.401 94.096 127.249 94.096H117.073C116.049 94.096 115.345 93.92 114.961 93.568C114.577 93.184 114.369 92.624 114.337 91.888C114.337 91.856 114.321 91.808 114.289 91.744C114.289 91.648 114.289 91.568 114.289 91.504C112.177 93.68 109.297 94.768 105.649 94.768C103.121 94.768 100.961 94.144 99.1694 92.896C97.4094 91.616 96.5294 89.872 96.5294 87.664C96.5294 85.424 97.1534 83.648 98.4014 82.336C99.6814 80.992 101.185 80.08 102.913 79.6C104.673 79.12 106.545 78.88 108.529 78.88C110.545 78.88 112.513 79.072 114.433 79.456V79.264C114.433 77.664 114.113 76.512 113.473 75.808C112.865 75.104 111.857 74.752 110.449 74.752C109.073 74.752 107.921 74.88 106.993 75.136C106.065 75.36 105.361 75.6 104.881 75.856C103.569 76.624 102.657 77.008 102.145 77.008C101.633 77.008 101.169 76.768 100.753 76.288C100.369 75.808 100.177 75.072 100.177 74.08C100.177 73.056 100.353 72.352 100.705 71.968C101.089 71.584 101.681 71.2 102.481 70.816C105.265 69.472 109.233 68.8 114.385 68.8ZM112.129 88.432C113.537 88.432 114.257 88.16 114.289 87.616C114.353 86.56 114.385 85.168 114.385 83.44C114.385 82.768 113.873 82.432 112.849 82.432C111.825 82.432 110.993 82.688 110.353 83.2C109.713 83.68 109.393 84.4 109.393 85.36C109.393 86.32 109.649 87.072 110.161 87.616C110.705 88.16 111.361 88.432 112.129 88.432ZM146.581 87.712C146.581 86.816 146.197 86.112 145.429 85.6C144.693 85.088 143.781 84.704 142.693 84.448C141.637 84.16 140.565 83.84 139.477 83.488C138.389 83.104 137.461 82.464 136.693 81.568C135.957 80.64 135.589 79.424 135.589 77.92C135.589 71.968 140.213 68.992 149.461 68.992C153.429 68.992 156.613 69.664 159.013 71.008C159.781 71.424 160.325 71.824 160.645 72.208C160.965 72.56 161.125 73.2 161.125 74.128C161.125 75.056 160.933 75.76 160.549 76.24C160.197 76.688 159.829 76.912 159.445 76.912C159.093 76.912 158.293 76.56 157.045 75.856C155.829 75.12 154.565 74.736 153.253 74.704C152.197 74.704 151.669 75.232 151.669 76.288C151.669 76.992 152.037 77.552 152.773 77.968C153.509 78.384 154.405 78.752 155.461 79.072C156.517 79.36 157.573 79.728 158.629 80.176C159.685 80.592 160.581 81.312 161.317 82.336C162.053 83.328 162.421 84.592 162.421 86.128C162.421 92.08 157.797 95.056 148.549 95.056C144.037 95.056 140.357 94.4 137.509 93.088C136.645 92.736 136.021 92.384 135.637 92.032C135.253 91.648 135.061 90.976 135.061 90.016C135.061 89.024 135.253 88.32 135.637 87.904C136.053 87.488 136.389 87.28 136.645 87.28C136.933 87.28 137.861 87.632 139.429 88.336C140.997 89.04 142.581 89.392 144.181 89.392C145.781 89.392 146.581 88.832 146.581 87.712ZM177.799 87.712C177.799 86.816 177.415 86.112 176.647 85.6C175.911 85.088 174.999 84.704 173.911 84.448C172.855 84.16 171.783 83.84 170.695 83.488C169.607 83.104 168.679 82.464 167.911 81.568C167.175 80.64 166.807 79.424 166.807 77.92C166.807 71.968 171.431 68.992 180.679 68.992C184.647 68.992 187.831 69.664 190.231 71.008C190.999 71.424 191.543 71.824 191.863 72.208C192.183 72.56 192.343 73.2 192.343 74.128C192.343 75.056 192.151 75.76 191.767 76.24C191.415 76.688 191.047 76.912 190.663 76.912C190.311 76.912 189.511 76.56 188.263 75.856C187.047 75.12 185.783 74.736 184.471 74.704C183.415 74.704 182.887 75.232 182.887 76.288C182.887 76.992 183.255 77.552 183.991 77.968C184.727 78.384 185.623 78.752 186.679 79.072C187.735 79.36 188.791 79.728 189.847 80.176C190.903 80.592 191.799 81.312 192.535 82.336C193.271 83.328 193.639 84.592 193.639 86.128C193.639 92.08 189.015 95.056 179.767 95.056C175.255 95.056 171.575 94.4 168.727 93.088C167.863 92.736 167.239 92.384 166.855 92.032C166.471 91.648 166.279 90.976 166.279 90.016C166.279 89.024 166.471 88.32 166.855 87.904C167.271 87.488 167.607 87.28 167.863 87.28C168.151 87.28 169.079 87.632 170.647 88.336C172.215 89.04 173.799 89.392 175.399 89.392C176.999 89.392 177.799 88.832 177.799 87.712ZM248.33 69.616C248.97 69.616 249.29 70.016 249.29 70.816C249.29 71.072 249.146 71.584 248.858 72.352C248.602 73.12 248.01 74.832 247.082 77.488C246.186 80.112 245.514 82.032 245.066 83.248C243.818 86.64 242.49 89.712 241.082 92.464C240.634 93.296 239.818 93.936 238.634 94.384C237.45 94.832 236.074 95.056 234.506 95.056C232.938 95.056 231.386 94.816 229.85 94.336C228.346 93.888 227.338 93.184 226.826 92.224C226.314 91.232 225.658 89.744 224.858 87.76C224.058 85.776 223.578 84.624 223.418 84.304C221.786 88.72 220.714 91.392 220.202 92.32C219.722 93.248 218.89 93.936 217.706 94.384C216.522 94.832 215.146 95.056 213.578 95.056C212.01 95.056 210.458 94.816 208.922 94.336C207.418 93.888 206.442 93.232 205.994 92.368C203.274 87.12 200.522 80.752 197.738 73.264C197.45 72.464 197.306 71.792 197.306 71.248C197.306 70.128 197.93 69.568 199.178 69.568H209.258C210.41 69.568 211.29 69.728 211.898 70.048C212.506 70.336 212.906 70.944 213.098 71.872L215.258 80.224C215.354 80.608 215.61 80.8 216.026 80.8C216.474 80.8 216.762 80.608 216.89 80.224L220.922 71.728C221.498 70.256 222.474 69.52 223.85 69.52H229.034C230.122 69.52 230.938 69.68 231.482 70C232.058 70.288 232.522 70.896 232.874 71.824L236.186 80.224C236.314 80.608 236.586 80.8 237.002 80.8C237.418 80.8 237.69 80.608 237.818 80.224L241.562 70.72C241.754 70.24 241.962 69.936 242.186 69.808C242.442 69.648 242.778 69.584 243.194 69.616H248.33ZM267.273 82C267.273 85.584 268.217 87.376 270.105 87.376C271.993 87.376 272.937 85.584 272.937 82C272.937 80.368 272.745 79.12 272.361 78.256C271.977 77.36 271.225 76.912 270.105 76.912C268.985 76.912 268.233 77.36 267.849 78.256C267.465 79.12 267.273 80.368 267.273 82ZM288.009 82C288.009 90.704 282.041 95.056 270.105 95.056C258.169 95.056 252.201 90.704 252.201 82C252.201 77.872 253.721 74.672 256.761 72.4C259.801 70.128 264.249 68.992 270.105 68.992C275.961 68.992 280.409 70.128 283.449 72.4C286.489 74.672 288.009 77.872 288.009 82ZM295.89 69.568H305.25C306.338 69.568 307.09 69.808 307.506 70.288C307.922 70.736 308.13 71.424 308.13 72.352V74.08C309.922 70.688 312.834 68.992 316.866 68.992C318.21 68.992 319.314 69.424 320.178 70.288C321.042 71.152 321.474 72.304 321.474 73.744C321.474 75.184 321.09 76.624 320.322 78.064C319.554 79.472 318.482 80.176 317.106 80.176C316.466 80.176 315.57 79.856 314.418 79.216C313.266 78.544 312.338 78.208 311.634 78.208C310.93 78.208 310.194 78.464 309.426 78.976C308.69 79.488 308.322 80.336 308.322 81.52C308.322 86.672 308.226 90.08 308.034 91.744C307.938 92.288 307.666 92.768 307.218 93.184C306.77 93.6 305.97 93.856 304.818 93.952C303.698 94.016 302.578 94.048 301.458 94.048C300.338 94.048 298.434 93.984 295.746 93.856C294.978 93.824 294.37 93.6 293.922 93.184C293.474 92.768 293.218 92.288 293.154 91.744C292.93 89.664 292.818 86.48 292.818 82.192C292.818 77.904 292.882 74.976 293.01 73.408C293.138 71.808 293.378 70.768 293.73 70.288C294.082 69.808 294.802 69.568 295.89 69.568ZM340.108 76.912C338.22 76.912 337.276 78.48 337.276 81.616C337.276 84.72 338.22 86.272 340.108 86.272C340.844 86.272 341.5 86.032 342.076 85.552C342.684 85.04 342.988 84.336 342.988 83.44V79.744C342.988 78.848 342.684 78.16 342.076 77.68C341.5 77.168 340.844 76.912 340.108 76.912ZM355.948 93.904L350.86 94C349.004 94 347.756 93.968 347.116 93.904C345.132 93.776 344.14 92.656 344.14 90.544C342.956 91.888 341.42 92.976 339.532 93.808C337.676 94.64 335.964 95.056 334.396 95.056C331.196 95.056 328.556 94 326.476 91.888C324.428 89.776 323.404 86.512 323.404 82.096C323.404 76.592 325.276 72.752 329.02 70.576C331.004 69.392 333.324 68.8 335.98 68.8C338.636 68.8 340.892 69.392 342.748 70.576C343.356 70.992 343.692 70.864 343.756 70.192C343.82 69.488 343.852 68.464 343.852 67.12V63.136C343.852 62.496 343.868 61.856 343.9 61.216C343.932 60.544 344.124 60 344.476 59.584C344.828 59.136 345.548 58.912 346.636 58.912H355.852C356.908 58.912 357.612 59.168 357.964 59.68C358.348 60.192 358.556 60.976 358.588 62.032C358.684 66.576 358.732 71.216 358.732 75.952C358.732 75.952 358.7 81.184 358.636 91.648C358.636 92.288 358.332 92.832 357.724 93.28C357.148 93.696 356.556 93.904 355.948 93.904Z" fill="url(#paint0_linear_1278_16025)" fill-opacity="0.4"/>
<defs>
<linearGradient id="paint0_linear_1278_16025" x1="229.5" y1="4.26829" x2="249.573" y2="99.7814" gradientUnits="userSpaceOnUse">
<stop stop-color="#6B73FF"/>
<stop offset="1" stop-color="#1B4AC3"/>
</linearGradient>
</defs>
</svg>
