<svg width="241" height="101" viewBox="0 0 241 101" fill="none" xmlns="http://www.w3.org/2000/svg">
<path d="M47.152 30.976C47.088 31.712 46.768 32.368 46.192 32.944C45.648 33.52 44.896 33.84 43.936 33.904C41.312 34.064 39.152 34.144 37.456 34.144C35.76 34.144 33.76 34.064 31.456 33.904C29.696 33.744 28.768 32.976 28.672 31.6C28.64 31.056 28.608 30.352 28.576 29.488C28.544 28.592 28.496 27.808 28.432 27.136C28.4 26.464 28.224 25.936 27.904 25.552C27.616 25.168 27.088 24.976 26.32 24.976H22.72C21.952 24.976 21.408 25.168 21.088 25.552C20.8 25.936 20.624 26.464 20.56 27.136C20.528 27.808 20.496 28.592 20.464 29.488C20.432 30.352 20.4 31.056 20.368 31.6C20.272 32.976 19.344 33.744 17.584 33.904C15.28 34.064 13.168 34.144 11.248 34.144C9.36 34.144 7.104 34.064 4.48 33.904C3.52 33.84 2.752 33.52 2.176 32.944C1.632 32.368 1.328 31.712 1.264 30.976C1.008 28.16 0.88 23.632 0.88 17.392C0.88 11.152 0.944 7.104 1.072 5.248C1.2 3.36 1.488 2.08 1.936 1.408C2.384 0.703999 3.28 0.351998 4.624 0.351998H16.336C17.456 0.351998 18.4 0.735998 19.168 1.504C19.968 2.272 20.368 3.264 20.368 4.48V14.56C20.368 15.712 20.864 16.288 21.856 16.288H27.184C28.176 16.288 28.672 15.712 28.672 14.56V4.48C28.672 3.264 29.056 2.272 29.824 1.504C30.624 0.735998 31.584 0.351998 32.704 0.351998H43.792C45.136 0.351998 46.032 0.703999 46.48 1.408C46.928 2.08 47.216 3.36 47.344 5.248C47.472 7.104 47.536 11.152 47.536 17.392C47.536 23.632 47.408 28.16 47.152 30.976ZM67.3983 22C67.3983 25.584 68.3423 27.376 70.2303 27.376C72.1183 27.376 73.0623 25.584 73.0623 22C73.0623 20.368 72.8703 19.12 72.4863 18.256C72.1023 17.36 71.3503 16.912 70.2303 16.912C69.1103 16.912 68.3583 17.36 67.9743 18.256C67.5903 19.12 67.3983 20.368 67.3983 22ZM88.1343 22C88.1343 30.704 82.1663 35.056 70.2303 35.056C58.2943 35.056 52.3263 30.704 52.3263 22C52.3263 17.872 53.8463 14.672 56.8863 12.4C59.9263 10.128 64.3743 8.992 70.2303 8.992C76.0863 8.992 80.5343 10.128 83.5743 12.4C86.6143 14.672 88.1343 17.872 88.1343 22ZM134.031 31.936L134.079 20.224C134.079 19.264 133.839 18.544 133.359 18.064C132.879 17.584 132.271 17.344 131.535 17.344C130.831 17.344 130.175 17.6 129.567 18.112C128.991 18.592 128.703 19.28 128.703 20.176L128.751 27.136C128.751 29.344 128.735 30.864 128.703 31.696C128.671 32.528 128.447 33.136 128.031 33.52C127.647 33.872 126.879 34.048 125.727 34.048L116.51 34.144C115.487 34.144 114.767 33.968 114.351 33.616C113.967 33.232 113.775 32.672 113.775 31.936L113.823 20.224C113.823 19.264 113.583 18.544 113.103 18.064C112.623 17.584 112.015 17.344 111.279 17.344C110.575 17.344 109.919 17.6 109.311 18.112C108.735 18.592 108.447 19.28 108.447 20.176V23.104C108.447 27.328 108.351 30.208 108.159 31.744C108.063 32.288 107.791 32.768 107.343 33.184C106.895 33.6 106.095 33.856 104.943 33.952C103.823 34.016 102.703 34.048 101.583 34.048C100.463 34.048 98.5585 33.984 95.8705 33.856C95.1025 33.824 94.4945 33.6 94.0465 33.184C93.5985 32.768 93.3425 32.288 93.2785 31.744C93.0545 29.664 92.9425 26.48 92.9425 22.192C92.9425 17.904 93.0065 14.976 93.1345 13.408C93.2625 11.808 93.5025 10.768 93.8545 10.288C94.2065 9.808 94.9265 9.568 96.0145 9.568H105.375C106.463 9.568 107.183 9.808 107.535 10.288C107.919 10.768 108.159 11.584 108.255 12.736V12.784C110.719 10.224 113.855 8.944 117.663 8.944C119.999 8.944 122.031 9.392 123.759 10.288C125.487 11.184 126.767 12.496 127.599 14.224C128.655 12.496 130.095 11.184 131.919 10.288C133.775 9.392 135.775 8.944 137.919 8.944C141.183 8.944 143.823 9.808 145.839 11.536C147.855 13.264 148.879 15.648 148.911 18.688C148.975 21.728 149.007 24.448 149.007 26.848C149.007 29.248 148.991 30.864 148.959 31.696C148.927 32.528 148.703 33.136 148.287 33.52C147.903 33.872 147.135 34.048 145.983 34.048L136.767 34.144C135.743 34.144 135.023 33.968 134.607 33.616C134.223 33.232 134.031 32.672 134.031 31.936ZM160.926 11.056C162.398 10.32 163.902 9.792 165.438 9.472C167.006 9.152 168.926 8.992 171.198 8.992C173.502 8.992 175.694 9.28 177.774 9.856C179.854 10.4 181.406 11.152 182.43 12.112C184.222 13.872 185.118 15.936 185.118 18.304C185.118 22.016 181.982 23.872 175.71 23.872C173.502 23.872 171.214 23.664 168.846 23.248C168.942 25.36 169.326 26.848 169.998 27.712C170.702 28.576 171.934 29.008 173.694 29.008C175.454 29.008 176.91 28.816 178.062 28.432C179.214 28.048 180.142 27.664 180.846 27.28C181.55 26.864 182.142 26.656 182.622 26.656C183.134 26.656 183.566 26.88 183.918 27.328C184.462 27.904 184.734 28.704 184.734 29.728C184.734 30.72 184.526 31.408 184.11 31.792C183.726 32.144 183.102 32.496 182.238 32.848C179.198 34.128 174.878 34.768 169.278 34.768C164.638 34.768 160.814 33.664 157.806 31.456C154.83 29.216 153.342 26.208 153.342 22.432C153.342 20.608 153.678 18.944 154.35 17.44C155.022 15.904 155.918 14.64 157.038 13.648C158.158 12.624 159.454 11.76 160.926 11.056ZM172.062 14.464C170.11 14.464 169.054 16.048 168.894 19.216C170.43 19.344 171.23 19.408 171.294 19.408C173.406 19.408 174.462 18.704 174.462 17.296C174.462 15.408 173.662 14.464 172.062 14.464ZM210.106 17.248V16.912C210.106 15.44 210.394 14.48 210.97 14.032C211.578 13.552 212.458 13.312 213.61 13.312H221.386V5.296C221.386 4.176 221.61 3.344 222.058 2.8C222.506 2.224 223.466 1.92 224.938 1.888H225.994C227.466 1.888 228.426 2.192 228.874 2.8C229.354 3.376 229.594 4.24 229.594 5.392V13.312H237.466C238.586 13.312 239.418 13.536 239.962 13.984C240.538 14.432 240.842 15.408 240.874 16.912V17.2C240.874 18.736 240.522 19.728 239.818 20.176C239.274 20.528 238.458 20.704 237.37 20.704H229.594V28.768C229.594 29.888 229.37 30.736 228.922 31.312C228.474 31.856 227.498 32.144 225.994 32.176H224.986C223.514 32.176 222.538 31.888 222.058 31.312C221.61 30.704 221.386 29.824 221.386 28.672V20.704H213.514C211.786 20.704 210.746 20.192 210.394 19.168C210.234 18.688 210.138 18.048 210.106 17.248ZM19.072 84.704C20.96 84.704 21.904 83.152 21.904 80.048C21.904 76.912 20.96 75.344 19.072 75.344C18.336 75.344 17.664 75.6 17.056 76.112C16.48 76.592 16.192 77.28 16.192 78.176V81.872C16.192 82.768 16.48 83.472 17.056 83.984C17.664 84.464 18.336 84.704 19.072 84.704ZM3.712 67.568L12.544 67.616C13.312 67.616 13.984 67.856 14.56 68.336C15.136 68.784 15.44 69.44 15.472 70.304C16.72 69.184 18.224 68.336 19.984 67.76C21.776 67.184 23.536 66.896 25.264 66.896C28.272 66.896 30.736 67.968 32.656 70.112C34.576 72.224 35.536 75.44 35.536 79.76C35.536 82.224 35.2 84.336 34.528 86.096C33.856 87.824 32.944 89.152 31.792 90.08C29.584 91.776 26.944 92.624 23.872 92.624C20.832 92.624 18.448 91.632 16.72 89.648C16.496 89.424 16.32 89.36 16.192 89.456C16.096 89.552 16.048 89.696 16.048 89.888C16.048 92.16 15.952 94.64 15.76 97.328C15.696 98.384 15.488 99.136 15.136 99.584C14.784 100.064 14.064 100.304 12.976 100.304H3.76C2.704 100.304 1.984 100.048 1.6 99.536C1.248 99.024 1.056 98.24 1.024 97.184C0.96 94.144 0.928 90.256 0.928 85.52L1.024 69.824C1.024 69.184 1.312 68.656 1.888 68.24C2.496 67.792 3.104 67.568 3.712 67.568ZM42.9051 67.568H52.2651C53.3531 67.568 54.1051 67.808 54.5211 68.288C54.9371 68.736 55.1451 69.424 55.1451 70.352V72.08C56.9371 68.688 59.8491 66.992 63.8811 66.992C65.2251 66.992 66.3291 67.424 67.1931 68.288C68.0571 69.152 68.4891 70.304 68.4891 71.744C68.4891 73.184 68.1051 74.624 67.3371 76.064C66.5691 77.472 65.4971 78.176 64.1211 78.176C63.4811 78.176 62.5851 77.856 61.4331 77.216C60.2811 76.544 59.3531 76.208 58.6491 76.208C57.9451 76.208 57.2091 76.464 56.4411 76.976C55.7051 77.488 55.3371 78.336 55.3371 79.52C55.3371 84.672 55.2411 88.08 55.0491 89.744C54.9531 90.288 54.6811 90.768 54.2331 91.184C53.7851 91.6 52.9851 91.856 51.8331 91.952C50.7131 92.016 49.5931 92.048 48.4731 92.048C47.3531 92.048 45.4491 91.984 42.7611 91.856C41.9931 91.824 41.3851 91.6 40.9371 91.184C40.4891 90.768 40.2331 90.288 40.1691 89.744C39.9451 87.664 39.8331 84.48 39.8331 80.192C39.8331 75.904 39.8971 72.976 40.0251 71.408C40.1531 69.808 40.3931 68.768 40.7451 68.288C41.0971 67.808 41.8171 67.568 42.9051 67.568ZM85.492 80C85.492 83.584 86.436 85.376 88.324 85.376C90.212 85.376 91.156 83.584 91.156 80C91.156 78.368 90.964 77.12 90.58 76.256C90.196 75.36 89.444 74.912 88.324 74.912C87.204 74.912 86.452 75.36 86.068 76.256C85.684 77.12 85.492 78.368 85.492 80ZM106.228 80C106.228 88.704 100.26 93.056 88.324 93.056C76.388 93.056 70.42 88.704 70.42 80C70.42 75.872 71.94 72.672 74.98 70.4C78.02 68.128 82.468 66.992 88.324 66.992C94.18 66.992 98.628 68.128 101.668 70.4C104.708 72.672 106.228 75.872 106.228 80ZM132.252 75.248H127.788C127.212 75.248 126.924 75.584 126.924 76.256V88.832C126.924 89.92 126.732 90.72 126.348 91.232C125.964 91.744 125.212 92 124.092 92H114.732C113.612 92 112.86 91.76 112.476 91.28C112.124 90.768 111.916 89.952 111.852 88.832C111.724 86.112 111.66 82.112 111.66 76.832C111.66 76.096 111.596 75.648 111.468 75.488C111.34 75.296 111.1 75.2 110.748 75.2C109.66 75.2 109.116 74.224 109.116 72.272C109.116 71.12 109.276 70.352 109.596 69.968C109.916 69.584 110.412 69.376 111.084 69.344C111.276 69.344 111.452 69.264 111.612 69.104C111.772 68.944 111.852 68.768 111.852 68.576V67.568C111.852 61.232 115.692 57.632 123.372 56.768C124.908 56.576 126.828 56.48 129.132 56.48C131.468 56.48 133.932 56.912 136.524 57.776C137.644 58.16 138.204 59.456 138.204 61.664C138.204 63.84 137.692 64.928 136.668 64.928C136.22 64.928 135.42 64.752 134.268 64.4C133.116 64.016 132.14 63.824 131.34 63.824C129.868 63.824 128.764 64.24 128.028 65.072C127.292 65.872 126.924 66.864 126.924 68.048C126.924 68.912 127.276 69.344 127.98 69.344H132.3C133.068 69.344 133.644 69.52 134.028 69.872C134.412 70.224 134.604 71.04 134.604 72.32C134.604 73.568 134.412 74.368 134.028 74.72C133.676 75.072 133.084 75.248 132.252 75.248ZM143.218 67.712H152.578C153.666 67.712 154.386 67.952 154.738 68.432C155.122 68.912 155.362 69.984 155.458 71.648C155.586 73.28 155.65 76.288 155.65 80.672C155.65 85.024 155.554 88.096 155.362 89.888C155.266 90.432 154.994 90.912 154.546 91.328C154.098 91.744 153.298 91.984 152.146 92.048C151.026 92.144 149.682 92.192 148.114 92.192C146.546 92.192 145.122 92.144 143.842 92.048C142.562 91.984 141.698 91.744 141.25 91.328C140.802 90.912 140.546 90.432 140.482 89.888C140.258 87.808 140.146 84.624 140.146 80.336C140.146 76.016 140.21 73.072 140.338 71.504C140.466 69.936 140.706 68.912 141.058 68.432C141.41 67.952 142.13 67.712 143.218 67.712ZM148.402 56.384C150.514 56.384 152.098 56.816 153.154 57.68C154.242 58.512 154.786 59.664 154.786 61.136C154.786 64.592 152.482 66.32 147.874 66.32C146.018 66.32 144.434 65.92 143.122 65.12C141.81 64.32 141.154 63.12 141.154 61.52C141.154 58.096 143.57 56.384 148.402 56.384ZM164.547 56.912H173.763C174.819 56.912 175.523 57.168 175.875 57.68C176.227 58.16 176.451 58.944 176.547 60.032C176.739 63.872 176.835 69.184 176.835 75.968C176.835 82.72 176.707 87.376 176.451 89.936C176.387 90.448 176.131 90.912 175.683 91.328C175.235 91.744 174.435 91.984 173.283 92.048C172.163 92.144 170.835 92.192 169.299 92.192C167.763 92.192 166.387 92.16 165.171 92.096C163.091 91.936 162.003 91.216 161.907 89.936C161.587 87.152 161.427 82.224 161.427 75.152C161.427 68.048 161.555 63.008 161.811 60.032C161.907 58.944 162.115 58.16 162.435 57.68C162.787 57.168 163.491 56.912 164.547 56.912ZM189.238 69.056C190.71 68.32 192.214 67.792 193.75 67.472C195.318 67.152 197.238 66.992 199.51 66.992C201.814 66.992 204.006 67.28 206.086 67.856C208.166 68.4 209.718 69.152 210.742 70.112C212.534 71.872 213.43 73.936 213.43 76.304C213.43 80.016 210.294 81.872 204.022 81.872C201.814 81.872 199.526 81.664 197.158 81.248C197.254 83.36 197.638 84.848 198.31 85.712C199.014 86.576 200.246 87.008 202.006 87.008C203.766 87.008 205.222 86.816 206.374 86.432C207.526 86.048 208.454 85.664 209.158 85.28C209.862 84.864 210.454 84.656 210.934 84.656C211.446 84.656 211.878 84.88 212.23 85.328C212.774 85.904 213.046 86.704 213.046 87.728C213.046 88.72 212.838 89.408 212.422 89.792C212.038 90.144 211.414 90.496 210.55 90.848C207.51 92.128 203.19 92.768 197.59 92.768C192.95 92.768 189.126 91.664 186.118 89.456C183.142 87.216 181.654 84.208 181.654 80.432C181.654 78.608 181.99 76.944 182.662 75.44C183.334 73.904 184.23 72.64 185.35 71.648C186.47 70.624 187.766 69.76 189.238 69.056ZM200.374 72.464C198.422 72.464 197.366 74.048 197.206 77.216C198.742 77.344 199.542 77.408 199.606 77.408C201.718 77.408 202.774 76.704 202.774 75.296C202.774 73.408 201.974 72.464 200.374 72.464Z" fill="url(#paint0_linear_1282_16974)" fill-opacity="0.4"/>
<defs>
<linearGradient id="paint0_linear_1282_16974" x1="121.5" y1="2.26829" x2="155.511" y2="88.6016" gradientUnits="userSpaceOnUse">
<stop stop-color="#6B73FF"/>
<stop offset="1" stop-color="#1B4AC3"/>
</linearGradient>
</defs>
</svg>
