<svg width="685" height="103" viewBox="0 0 685 103" fill="none" xmlns="http://www.w3.org/2000/svg">
<path d="M32.696 4.656L48.392 31.2C49.032 32.256 49.352 33.152 49.352 33.888C49.352 34.592 49.064 35.12 48.488 35.472C47.912 35.824 47.24 36 46.472 36H31.016C29.448 36 28.44 35.712 27.992 35.136C27.864 34.944 27.688 34.608 27.464 34.128L26.072 31.152C25.656 30.224 24.68 29.696 23.144 29.568H14.072C13.4 29.568 12.888 29.632 12.536 29.76C12.184 29.888 11.896 30.176 11.672 30.624L9.8 34.512C9.48 35.088 9.128 35.488 8.744 35.712C8.36 35.904 7.8 36 7.064 36H2.744C1.496 36 0.824 35.552 0.728 34.656C0.696 34.528 0.68 34.4 0.68 34.272C0.68 33.536 0.92 32.832 1.4 32.16L16.424 5.664C17.864 3.168 20.2 1.92 23.432 1.92H27.272C29.832 1.92 31.64 2.832 32.696 4.656ZM17.144 16.944L14.936 21.312C14.808 21.6 14.744 21.856 14.744 22.08C14.744 22.912 15.144 23.328 15.944 23.328H20.312C20.984 23.328 21.448 23.168 21.704 22.848C21.96 22.496 22.088 22.192 22.088 21.936C22.088 21.68 22.04 21.424 21.944 21.168L20.12 17.04C19.736 16.208 19.24 15.792 18.632 15.792C18.024 15.792 17.528 16.176 17.144 16.944ZM68.4073 13.68L68.3593 25.392C68.3593 26.32 68.5673 27.024 68.9833 27.504C69.3993 27.984 69.9273 28.224 70.5673 28.224C71.2393 28.224 71.8633 27.984 72.4393 27.504C73.0473 26.992 73.4793 26.304 73.7353 25.44V22.512C73.7353 18.288 73.8313 15.408 74.0233 13.872C74.1193 13.328 74.3913 12.848 74.8393 12.432C75.2873 12.016 76.0713 11.776 77.1913 11.712C78.3433 11.616 79.4793 11.568 80.5993 11.568C81.7193 11.568 83.6233 11.632 86.3113 11.76C87.0793 11.792 87.6873 12.016 88.1353 12.432C88.5833 12.848 88.8393 13.328 88.9033 13.872C89.1273 15.952 89.2393 19.152 89.2393 23.472C89.2393 27.76 89.1753 30.688 89.0473 32.256C88.9193 33.824 88.6793 34.848 88.3273 35.328C87.9753 35.808 87.2553 36.048 86.1673 36.048H76.8073C75.7193 36.048 74.9833 35.808 74.5993 35.328C74.2473 34.848 74.0233 34.032 73.9273 32.88V32.832C70.6313 35.36 67.2873 36.624 63.8953 36.624C60.5033 36.624 57.9273 35.792 56.1673 34.128C54.4393 32.432 53.5433 30.048 53.4793 26.976C53.4473 23.904 53.4313 21.168 53.4313 18.768C53.4313 16.368 53.4473 14.752 53.4793 13.92C53.5113 13.088 53.7193 12.496 54.1033 12.144C54.5193 11.76 55.3033 11.568 56.4553 11.568L65.6713 11.472C66.6953 11.472 67.3993 11.664 67.7833 12.048C68.1993 12.4 68.4073 12.944 68.4073 13.68ZM97.0366 18.528C97.0366 18.016 96.6846 17.76 95.9806 17.76C94.7326 17.76 93.9966 17.344 93.7726 16.512C93.6446 16.096 93.5806 15.456 93.5806 14.592C93.5806 13.728 93.6926 13.12 93.9166 12.768C94.1726 12.384 94.6366 12.112 95.3086 11.952C96.0126 11.76 96.6366 11.456 97.1806 11.04C97.7566 10.592 98.9086 9.632 100.637 8.16C102.397 6.688 103.613 5.728 104.285 5.28C104.989 4.832 105.853 4.608 106.877 4.608H109.277C110.397 4.608 111.149 4.752 111.533 5.04C111.917 5.296 112.109 5.712 112.109 6.288V10.848C112.109 11.52 112.397 11.856 112.973 11.856H118.109C118.941 11.856 119.533 12.032 119.885 12.384C120.269 12.736 120.461 13.552 120.461 14.832C120.461 16.08 120.269 16.88 119.885 17.232C119.501 17.584 118.925 17.76 118.157 17.76H113.165C112.717 17.76 112.429 17.872 112.301 18.096C112.173 18.32 112.109 18.64 112.109 19.056V24.816C112.173 25.904 112.573 26.816 113.309 27.552C114.077 28.288 115.149 28.656 116.525 28.656C117.197 28.656 118.029 28.48 119.021 28.128C120.013 27.744 120.685 27.552 121.037 27.552C121.901 27.552 122.333 28.832 122.333 31.392C122.333 33.248 121.837 34.368 120.845 34.752C119.821 35.104 118.381 35.392 116.525 35.616C114.669 35.84 112.813 35.952 110.957 35.952C109.101 35.952 107.325 35.808 105.629 35.52C103.965 35.2 102.445 34.656 101.069 33.888C98.3806 32.32 97.0366 29.328 97.0366 24.912V18.528ZM127.091 33.744L126.995 18.048C126.995 13.248 127.043 8.576 127.139 4.032C127.171 2.976 127.363 2.192 127.715 1.68C128.099 1.168 128.819 0.912 129.875 0.912H139.091C140.147 0.912 140.851 1.168 141.203 1.68C141.587 2.16 141.811 3.056 141.875 4.368C141.971 5.648 142.051 9.104 142.115 14.736C144.611 12.208 147.603 10.944 151.091 10.944C154.611 10.944 157.379 11.808 159.395 13.536C161.411 15.264 162.435 17.648 162.467 20.688C162.531 23.728 162.563 26.448 162.563 28.848C162.563 31.248 162.547 32.864 162.515 33.696C162.483 34.528 162.259 35.136 161.843 35.52C161.459 35.872 160.691 36.048 159.539 36.048L150.323 36.144C149.299 36.144 148.579 35.968 148.163 35.616C147.779 35.232 147.587 34.672 147.587 33.936L147.635 22.224C147.635 21.264 147.395 20.544 146.915 20.064C146.435 19.584 145.827 19.344 145.091 19.344C144.387 19.344 143.747 19.6 143.171 20.112C142.595 20.592 142.291 21.28 142.259 22.176L141.971 33.744C141.939 34.352 141.651 34.864 141.107 35.28C140.563 35.696 139.891 35.936 139.091 36C138.323 36.064 137.459 36.096 136.499 36.096L129.779 36C129.171 36 128.563 35.792 127.955 35.376C127.379 34.928 127.091 34.384 127.091 33.744ZM181.976 24C181.976 27.584 182.92 29.376 184.808 29.376C186.696 29.376 187.64 27.584 187.64 24C187.64 22.368 187.448 21.12 187.064 20.256C186.68 19.36 185.928 18.912 184.808 18.912C183.688 18.912 182.936 19.36 182.552 20.256C182.168 21.12 181.976 22.368 181.976 24ZM202.712 24C202.712 32.704 196.744 37.056 184.808 37.056C172.872 37.056 166.904 32.704 166.904 24C166.904 19.872 168.424 16.672 171.464 14.4C174.504 12.128 178.952 10.992 184.808 10.992C190.664 10.992 195.112 12.128 198.152 14.4C201.192 16.672 202.712 19.872 202.712 24ZM210.593 11.568H219.953C221.041 11.568 221.793 11.808 222.209 12.288C222.625 12.736 222.833 13.424 222.833 14.352V16.08C224.625 12.688 227.537 10.992 231.569 10.992C232.913 10.992 234.017 11.424 234.881 12.288C235.745 13.152 236.177 14.304 236.177 15.744C236.177 17.184 235.793 18.624 235.025 20.064C234.257 21.472 233.185 22.176 231.809 22.176C231.169 22.176 230.273 21.856 229.121 21.216C227.969 20.544 227.041 20.208 226.337 20.208C225.633 20.208 224.897 20.464 224.129 20.976C223.393 21.488 223.025 22.336 223.025 23.52C223.025 28.672 222.929 32.08 222.737 33.744C222.641 34.288 222.369 34.768 221.921 35.184C221.473 35.6 220.673 35.856 219.521 35.952C218.401 36.016 217.281 36.048 216.161 36.048C215.041 36.048 213.137 35.984 210.449 35.856C209.681 35.824 209.073 35.6 208.625 35.184C208.177 34.768 207.921 34.288 207.857 33.744C207.633 31.664 207.521 28.48 207.521 24.192C207.521 19.904 207.585 16.976 207.713 15.408C207.841 13.808 208.081 12.768 208.433 12.288C208.785 11.808 209.505 11.568 210.593 11.568ZM242.14 11.712H251.5C252.588 11.712 253.308 11.952 253.66 12.432C254.044 12.912 254.284 13.984 254.38 15.648C254.508 17.28 254.572 20.288 254.572 24.672C254.572 29.024 254.476 32.096 254.284 33.888C254.188 34.432 253.916 34.912 253.468 35.328C253.02 35.744 252.22 35.984 251.068 36.048C249.948 36.144 248.604 36.192 247.036 36.192C245.468 36.192 244.044 36.144 242.764 36.048C241.484 35.984 240.62 35.744 240.172 35.328C239.724 34.912 239.468 34.432 239.404 33.888C239.18 31.808 239.068 28.624 239.068 24.336C239.068 20.016 239.132 17.072 239.26 15.504C239.388 13.936 239.628 12.912 239.98 12.432C240.332 11.952 241.052 11.712 242.14 11.712ZM247.324 0.383998C249.436 0.383998 251.02 0.815998 252.076 1.68C253.164 2.512 253.708 3.664 253.708 5.136C253.708 8.592 251.404 10.32 246.796 10.32C244.94 10.32 243.356 9.92 242.044 9.12C240.732 8.32 240.076 7.12 240.076 5.52C240.076 2.096 242.492 0.383998 247.324 0.383998ZM272.637 36.192L261.645 36.048C261.101 36.048 260.589 35.904 260.109 35.616C259.629 35.328 259.389 34.944 259.389 34.464V31.632C259.389 30.832 259.629 30.176 260.109 29.664C260.621 29.12 261.533 28.16 262.845 26.784C265.725 23.776 267.917 21.344 269.421 19.488C269.709 19.136 269.805 18.816 269.709 18.528C269.645 18.24 269.437 18.096 269.085 18.096H261.981C261.501 18.096 261.117 17.936 260.829 17.616C260.573 17.264 260.445 16.88 260.445 16.464V13.44C260.445 12.192 260.957 11.568 261.981 11.568C273.789 11.568 281.629 11.584 285.501 11.616C286.045 11.616 286.557 11.76 287.037 12.048C287.517 12.336 287.757 12.72 287.757 13.2V16.032C287.757 16.768 287.405 17.536 286.701 18.336C286.029 19.136 284.685 20.592 282.669 22.704C280.685 24.784 279.037 26.608 277.725 28.176C277.437 28.528 277.325 28.848 277.389 29.136C277.485 29.424 277.709 29.568 278.061 29.568H287.085C287.565 29.568 287.933 29.744 288.189 30.096C288.477 30.416 288.621 30.784 288.621 31.2V34.224C288.621 35.472 288.109 36.096 287.085 36.096L272.637 36.192ZM299.551 13.056C301.023 12.32 302.527 11.792 304.063 11.472C305.631 11.152 307.551 10.992 309.823 10.992C312.127 10.992 314.319 11.28 316.399 11.856C318.479 12.4 320.031 13.152 321.055 14.112C322.847 15.872 323.743 17.936 323.743 20.304C323.743 24.016 320.607 25.872 314.335 25.872C312.127 25.872 309.839 25.664 307.471 25.248C307.567 27.36 307.951 28.848 308.623 29.712C309.327 30.576 310.559 31.008 312.319 31.008C314.079 31.008 315.535 30.816 316.687 30.432C317.839 30.048 318.767 29.664 319.471 29.28C320.175 28.864 320.767 28.656 321.247 28.656C321.759 28.656 322.191 28.88 322.543 29.328C323.087 29.904 323.359 30.704 323.359 31.728C323.359 32.72 323.151 33.408 322.735 33.792C322.351 34.144 321.727 34.496 320.863 34.848C317.823 36.128 313.503 36.768 307.903 36.768C303.263 36.768 299.439 35.664 296.431 33.456C293.455 31.216 291.967 28.208 291.967 24.432C291.967 22.608 292.303 20.944 292.975 19.44C293.647 17.904 294.543 16.64 295.663 15.648C296.783 14.624 298.079 13.76 299.551 13.056ZM310.687 16.464C308.735 16.464 307.679 18.048 307.519 21.216C309.055 21.344 309.855 21.408 309.919 21.408C312.031 21.408 313.087 20.704 313.087 19.296C313.087 17.408 312.287 16.464 310.687 16.464ZM344.296 18.912C342.408 18.912 341.464 20.48 341.464 23.616C341.464 26.72 342.408 28.272 344.296 28.272C345.032 28.272 345.688 28.032 346.264 27.552C346.872 27.04 347.176 26.336 347.176 25.44V21.744C347.176 20.848 346.872 20.16 346.264 19.68C345.688 19.168 345.032 18.912 344.296 18.912ZM360.136 35.904L355.048 36C353.192 36 351.944 35.968 351.304 35.904C349.32 35.776 348.328 34.656 348.328 32.544C347.144 33.888 345.608 34.976 343.72 35.808C341.864 36.64 340.152 37.056 338.584 37.056C335.384 37.056 332.744 36 330.664 33.888C328.616 31.776 327.592 28.512 327.592 24.096C327.592 18.592 329.464 14.752 333.208 12.576C335.192 11.392 337.512 10.8 340.168 10.8C342.824 10.8 345.08 11.392 346.936 12.576C347.544 12.992 347.88 12.864 347.944 12.192C348.008 11.488 348.04 10.464 348.04 9.12V5.136C348.04 4.496 348.056 3.856 348.088 3.216C348.12 2.544 348.312 2 348.664 1.584C349.016 1.136 349.736 0.912 350.824 0.912H360.04C361.096 0.912 361.8 1.168 362.152 1.68C362.536 2.192 362.744 2.976 362.776 4.032C362.872 8.576 362.92 13.216 362.92 17.952C362.92 17.952 362.888 23.184 362.824 33.648C362.824 34.288 362.52 34.832 361.912 35.28C361.336 35.696 360.744 35.904 360.136 35.904ZM404.323 10.8C414.755 10.8 420.019 14.192 420.115 20.976C420.179 23.856 420.211 26.496 420.211 28.896C420.211 31.296 420.195 32.912 420.163 33.744C420.131 34.576 419.907 35.184 419.491 35.568C419.107 35.92 418.339 36.096 417.187 36.096H407.011C405.987 36.096 405.283 35.92 404.899 35.568C404.515 35.184 404.307 34.624 404.275 33.888C404.275 33.856 404.259 33.808 404.227 33.744C404.227 33.648 404.227 33.568 404.227 33.504C402.115 35.68 399.235 36.768 395.587 36.768C393.059 36.768 390.899 36.144 389.107 34.896C387.347 33.616 386.467 31.872 386.467 29.664C386.467 27.424 387.091 25.648 388.339 24.336C389.619 22.992 391.123 22.08 392.851 21.6C394.611 21.12 396.483 20.88 398.467 20.88C400.483 20.88 402.451 21.072 404.371 21.456V21.264C404.371 19.664 404.051 18.512 403.411 17.808C402.803 17.104 401.795 16.752 400.387 16.752C399.011 16.752 397.859 16.88 396.931 17.136C396.003 17.36 395.299 17.6 394.819 17.856C393.507 18.624 392.595 19.008 392.083 19.008C391.571 19.008 391.107 18.768 390.691 18.288C390.307 17.808 390.115 17.072 390.115 16.08C390.115 15.056 390.291 14.352 390.643 13.968C391.027 13.584 391.619 13.2 392.419 12.816C395.203 11.472 399.171 10.8 404.323 10.8ZM402.067 30.432C403.475 30.432 404.195 30.16 404.227 29.616C404.291 28.56 404.323 27.168 404.323 25.44C404.323 24.768 403.811 24.432 402.787 24.432C401.763 24.432 400.931 24.688 400.291 25.2C399.651 25.68 399.331 26.4 399.331 27.36C399.331 28.32 399.587 29.072 400.099 29.616C400.643 30.16 401.299 30.432 402.067 30.432ZM446.118 18.48C444.614 18.48 443.494 18.976 442.758 19.968C442.022 20.96 441.654 22.192 441.654 23.664C441.654 25.136 442.086 26.4 442.95 27.456C443.814 28.512 445.206 29.04 447.126 29.04C447.734 29.04 448.63 28.88 449.814 28.56C450.998 28.24 451.83 28.08 452.31 28.08C453.43 28.08 454.022 29.152 454.086 31.296C454.086 32.224 454.022 33.088 453.894 33.888C453.798 34.688 453.206 35.264 452.118 35.616C448.918 36.608 446.086 37.104 443.622 37.104C441.19 37.104 439.19 37.008 437.622 36.816C436.086 36.656 434.518 36.304 432.918 35.76C431.35 35.216 430.038 34.496 428.982 33.6C427.958 32.704 427.11 31.504 426.438 30C425.798 28.464 425.478 26.544 425.478 24.24C425.478 21.904 425.974 19.824 426.966 18C427.99 16.176 429.382 14.784 431.142 13.824C434.47 12.032 438.63 11.136 443.622 11.136C446.31 11.136 449.046 11.568 451.83 12.432C453.014 12.816 453.606 14.112 453.606 16.32C453.606 18.496 453.046 19.584 451.926 19.584C451.446 19.584 450.566 19.408 449.286 19.056C448.038 18.672 446.982 18.48 446.118 18.48ZM460.412 18.528C460.412 18.016 460.06 17.76 459.356 17.76C458.108 17.76 457.372 17.344 457.148 16.512C457.02 16.096 456.956 15.456 456.956 14.592C456.956 13.728 457.068 13.12 457.292 12.768C457.548 12.384 458.012 12.112 458.684 11.952C459.388 11.76 460.012 11.456 460.556 11.04C461.132 10.592 462.284 9.632 464.012 8.16C465.772 6.688 466.988 5.728 467.66 5.28C468.364 4.832 469.228 4.608 470.252 4.608H472.652C473.772 4.608 474.524 4.752 474.908 5.04C475.292 5.296 475.484 5.712 475.484 6.288V10.848C475.484 11.52 475.772 11.856 476.348 11.856H481.484C482.316 11.856 482.908 12.032 483.26 12.384C483.644 12.736 483.836 13.552 483.836 14.832C483.836 16.08 483.644 16.88 483.26 17.232C482.876 17.584 482.3 17.76 481.532 17.76H476.54C476.092 17.76 475.804 17.872 475.676 18.096C475.548 18.32 475.484 18.64 475.484 19.056V24.816C475.548 25.904 475.948 26.816 476.684 27.552C477.452 28.288 478.524 28.656 479.9 28.656C480.572 28.656 481.404 28.48 482.396 28.128C483.388 27.744 484.06 27.552 484.412 27.552C485.276 27.552 485.708 28.832 485.708 31.392C485.708 33.248 485.212 34.368 484.22 34.752C483.196 35.104 481.756 35.392 479.9 35.616C478.044 35.84 476.188 35.952 474.332 35.952C472.476 35.952 470.7 35.808 469.004 35.52C467.34 35.2 465.82 34.656 464.444 33.888C461.756 32.32 460.412 29.328 460.412 24.912V18.528ZM493.202 11.712H502.562C503.65 11.712 504.37 11.952 504.722 12.432C505.106 12.912 505.346 13.984 505.442 15.648C505.57 17.28 505.634 20.288 505.634 24.672C505.634 29.024 505.538 32.096 505.346 33.888C505.25 34.432 504.978 34.912 504.53 35.328C504.082 35.744 503.282 35.984 502.13 36.048C501.01 36.144 499.666 36.192 498.098 36.192C496.53 36.192 495.106 36.144 493.826 36.048C492.546 35.984 491.682 35.744 491.234 35.328C490.786 34.912 490.53 34.432 490.466 33.888C490.242 31.808 490.13 28.624 490.13 24.336C490.13 20.016 490.194 17.072 490.322 15.504C490.45 13.936 490.69 12.912 491.042 12.432C491.394 11.952 492.114 11.712 493.202 11.712ZM498.386 0.383998C500.498 0.383998 502.082 0.815998 503.138 1.68C504.226 2.512 504.77 3.664 504.77 5.136C504.77 8.592 502.466 10.32 497.858 10.32C496.002 10.32 494.418 9.92 493.106 9.12C491.794 8.32 491.138 7.12 491.138 5.52C491.138 2.096 493.554 0.383998 498.386 0.383998ZM509.491 13.344C509.491 12.192 510.147 11.616 511.459 11.616L522.019 11.568C523.075 11.568 523.875 11.728 524.419 12.048C524.963 12.336 525.443 12.944 525.859 13.872L530.323 22.224C530.451 22.608 530.707 22.8 531.091 22.8C531.475 22.8 531.763 22.608 531.955 22.224L536.563 12.672C536.819 12.096 537.171 11.76 537.619 11.664C537.747 11.632 537.971 11.616 538.291 11.616L543.331 11.568C543.779 11.568 544.083 11.776 544.243 12.192C544.339 12.384 544.387 12.608 544.387 12.864C544.387 13.088 544.307 13.344 544.147 13.632C539.795 22.592 536.227 29.536 533.443 34.464C532.899 35.296 532.035 35.936 530.851 36.384C529.667 36.832 528.371 37.056 526.963 37.056C523.827 37.056 521.731 36.256 520.675 34.656C519.651 33.024 518.563 31.168 517.411 29.088C516.259 27.008 514.947 24.56 513.475 21.744C512.003 18.928 510.851 16.768 510.019 15.264C509.667 14.528 509.491 13.888 509.491 13.344ZM551.28 11.712H560.64C561.728 11.712 562.448 11.952 562.8 12.432C563.184 12.912 563.424 13.984 563.52 15.648C563.648 17.28 563.712 20.288 563.712 24.672C563.712 29.024 563.616 32.096 563.424 33.888C563.328 34.432 563.056 34.912 562.608 35.328C562.16 35.744 561.36 35.984 560.208 36.048C559.088 36.144 557.744 36.192 556.176 36.192C554.608 36.192 553.184 36.144 551.904 36.048C550.624 35.984 549.76 35.744 549.312 35.328C548.864 34.912 548.608 34.432 548.544 33.888C548.32 31.808 548.208 28.624 548.208 24.336C548.208 20.016 548.272 17.072 548.4 15.504C548.528 13.936 548.768 12.912 549.12 12.432C549.472 11.952 550.192 11.712 551.28 11.712ZM556.464 0.383998C558.576 0.383998 560.16 0.815998 561.216 1.68C562.304 2.512 562.848 3.664 562.848 5.136C562.848 8.592 560.544 10.32 555.936 10.32C554.08 10.32 552.496 9.92 551.184 9.12C549.872 8.32 549.216 7.12 549.216 5.52C549.216 2.096 551.632 0.383998 556.464 0.383998ZM571.505 18.528C571.505 18.016 571.153 17.76 570.449 17.76C569.201 17.76 568.465 17.344 568.241 16.512C568.113 16.096 568.049 15.456 568.049 14.592C568.049 13.728 568.161 13.12 568.385 12.768C568.641 12.384 569.105 12.112 569.777 11.952C570.481 11.76 571.105 11.456 571.649 11.04C572.225 10.592 573.377 9.632 575.105 8.16C576.865 6.688 578.081 5.728 578.753 5.28C579.457 4.832 580.321 4.608 581.345 4.608H583.745C584.865 4.608 585.617 4.752 586.001 5.04C586.385 5.296 586.577 5.712 586.577 6.288V10.848C586.577 11.52 586.865 11.856 587.441 11.856H592.577C593.409 11.856 594.001 12.032 594.353 12.384C594.737 12.736 594.929 13.552 594.929 14.832C594.929 16.08 594.737 16.88 594.353 17.232C593.969 17.584 593.393 17.76 592.625 17.76H587.633C587.185 17.76 586.897 17.872 586.769 18.096C586.641 18.32 586.577 18.64 586.577 19.056V24.816C586.641 25.904 587.041 26.816 587.777 27.552C588.545 28.288 589.617 28.656 590.993 28.656C591.665 28.656 592.497 28.48 593.489 28.128C594.481 27.744 595.153 27.552 595.505 27.552C596.369 27.552 596.801 28.832 596.801 31.392C596.801 33.248 596.305 34.368 595.313 34.752C594.289 35.104 592.849 35.392 590.993 35.616C589.137 35.84 587.281 35.952 585.425 35.952C583.569 35.952 581.793 35.808 580.097 35.52C578.433 35.2 576.913 34.656 575.537 33.888C572.849 32.32 571.505 29.328 571.505 24.912V18.528ZM604.296 11.712H613.656C614.744 11.712 615.464 11.952 615.816 12.432C616.2 12.912 616.44 13.984 616.536 15.648C616.664 17.28 616.728 20.288 616.728 24.672C616.728 29.024 616.632 32.096 616.44 33.888C616.344 34.432 616.072 34.912 615.624 35.328C615.176 35.744 614.376 35.984 613.224 36.048C612.104 36.144 610.76 36.192 609.192 36.192C607.624 36.192 606.2 36.144 604.92 36.048C603.64 35.984 602.776 35.744 602.328 35.328C601.88 34.912 601.624 34.432 601.56 33.888C601.336 31.808 601.224 28.624 601.224 24.336C601.224 20.016 601.288 17.072 601.416 15.504C601.544 13.936 601.784 12.912 602.136 12.432C602.488 11.952 603.208 11.712 604.296 11.712ZM609.48 0.383998C611.592 0.383998 613.176 0.815998 614.232 1.68C615.32 2.512 615.864 3.664 615.864 5.136C615.864 8.592 613.56 10.32 608.952 10.32C607.096 10.32 605.512 9.92 604.2 9.12C602.888 8.32 602.232 7.12 602.232 5.52C602.232 2.096 604.648 0.383998 609.48 0.383998ZM629.129 13.056C630.601 12.32 632.105 11.792 633.641 11.472C635.209 11.152 637.129 10.992 639.401 10.992C641.705 10.992 643.897 11.28 645.977 11.856C648.057 12.4 649.609 13.152 650.633 14.112C652.425 15.872 653.321 17.936 653.321 20.304C653.321 24.016 650.185 25.872 643.913 25.872C641.705 25.872 639.417 25.664 637.049 25.248C637.145 27.36 637.529 28.848 638.201 29.712C638.905 30.576 640.137 31.008 641.897 31.008C643.657 31.008 645.113 30.816 646.265 30.432C647.417 30.048 648.345 29.664 649.049 29.28C649.753 28.864 650.345 28.656 650.825 28.656C651.337 28.656 651.769 28.88 652.121 29.328C652.665 29.904 652.937 30.704 652.937 31.728C652.937 32.72 652.729 33.408 652.313 33.792C651.929 34.144 651.305 34.496 650.441 34.848C647.401 36.128 643.081 36.768 637.481 36.768C632.841 36.768 629.017 35.664 626.009 33.456C623.033 31.216 621.545 28.208 621.545 24.432C621.545 22.608 621.881 20.944 622.553 19.44C623.225 17.904 624.121 16.64 625.241 15.648C626.361 14.624 627.657 13.76 629.129 13.056ZM640.265 16.464C638.313 16.464 637.257 18.048 637.097 21.216C638.633 21.344 639.433 21.408 639.497 21.408C641.609 21.408 642.665 20.704 642.665 19.296C642.665 17.408 641.865 16.464 640.265 16.464ZM668.69 29.712C668.69 28.816 668.306 28.112 667.538 27.6C666.802 27.088 665.89 26.704 664.802 26.448C663.746 26.16 662.674 25.84 661.586 25.488C660.498 25.104 659.57 24.464 658.802 23.568C658.066 22.64 657.698 21.424 657.698 19.92C657.698 13.968 662.322 10.992 671.57 10.992C675.538 10.992 678.722 11.664 681.122 13.008C681.89 13.424 682.434 13.824 682.754 14.208C683.074 14.56 683.234 15.2 683.234 16.128C683.234 17.056 683.042 17.76 682.658 18.24C682.306 18.688 681.938 18.912 681.554 18.912C681.202 18.912 680.402 18.56 679.154 17.856C677.938 17.12 676.674 16.736 675.362 16.704C674.306 16.704 673.778 17.232 673.778 18.288C673.778 18.992 674.146 19.552 674.882 19.968C675.618 20.384 676.514 20.752 677.57 21.072C678.626 21.36 679.682 21.728 680.738 22.176C681.794 22.592 682.69 23.312 683.426 24.336C684.162 25.328 684.53 26.592 684.53 28.128C684.53 34.08 679.906 37.056 670.658 37.056C666.146 37.056 662.466 36.4 659.618 35.088C658.754 34.736 658.13 34.384 657.746 34.032C657.362 33.648 657.17 32.976 657.17 32.016C657.17 31.024 657.362 30.32 657.746 29.904C658.162 29.488 658.498 29.28 658.754 29.28C659.042 29.28 659.97 29.632 661.538 30.336C663.106 31.04 664.69 31.392 666.29 31.392C667.89 31.392 668.69 30.832 668.69 29.712ZM2.84 77.248V76.912C2.84 75.44 3.128 74.48 3.704 74.032C4.312 73.552 5.192 73.312 6.344 73.312H14.12V65.296C14.12 64.176 14.344 63.344 14.792 62.8C15.24 62.224 16.2 61.92 17.672 61.888H18.728C20.2 61.888 21.16 62.192 21.608 62.8C22.088 63.376 22.328 64.24 22.328 65.392V73.312H30.2C31.32 73.312 32.152 73.536 32.696 73.984C33.272 74.432 33.576 75.408 33.608 76.912V77.2C33.608 78.736 33.256 79.728 32.552 80.176C32.008 80.528 31.192 80.704 30.104 80.704H22.328V88.768C22.328 89.888 22.104 90.736 21.656 91.312C21.208 91.856 20.232 92.144 18.728 92.176H17.72C16.248 92.176 15.272 91.888 14.792 91.312C14.344 90.704 14.12 89.824 14.12 88.672V80.704H6.248C4.52 80.704 3.48 80.192 3.128 79.168C2.968 78.688 2.872 78.048 2.84 77.248ZM77.7283 86.704C79.6163 86.704 80.5603 85.152 80.5603 82.048C80.5603 78.912 79.6163 77.344 77.7283 77.344C76.9923 77.344 76.3203 77.6 75.7123 78.112C75.1363 78.592 74.8483 79.28 74.8483 80.176V83.872C74.8483 84.768 75.1363 85.472 75.7123 85.984C76.3203 86.464 76.9923 86.704 77.7283 86.704ZM62.3683 69.568L71.2003 69.616C71.9683 69.616 72.6403 69.856 73.2163 70.336C73.7923 70.784 74.0963 71.44 74.1283 72.304C75.3763 71.184 76.8803 70.336 78.6403 69.76C80.4323 69.184 82.1923 68.896 83.9203 68.896C86.9283 68.896 89.3923 69.968 91.3123 72.112C93.2323 74.224 94.1923 77.44 94.1923 81.76C94.1923 84.224 93.8563 86.336 93.1843 88.096C92.5123 89.824 91.6003 91.152 90.4483 92.08C88.2403 93.776 85.6003 94.624 82.5283 94.624C79.4883 94.624 77.1043 93.632 75.3763 91.648C75.1523 91.424 74.9763 91.36 74.8483 91.456C74.7523 91.552 74.7043 91.696 74.7043 91.888C74.7043 94.16 74.6083 96.64 74.4163 99.328C74.3523 100.384 74.1443 101.136 73.7923 101.584C73.4403 102.064 72.7203 102.304 71.6323 102.304H62.4163C61.3603 102.304 60.6403 102.048 60.2563 101.536C59.9043 101.024 59.7123 100.24 59.6803 99.184C59.6163 96.144 59.5843 92.256 59.5843 87.52L59.6803 71.824C59.6803 71.184 59.9683 70.656 60.5443 70.24C61.1523 69.792 61.7603 69.568 62.3683 69.568ZM115.385 68.8C125.817 68.8 131.081 72.192 131.177 78.976C131.241 81.856 131.273 84.496 131.273 86.896C131.273 89.296 131.257 90.912 131.225 91.744C131.193 92.576 130.969 93.184 130.553 93.568C130.169 93.92 129.401 94.096 128.249 94.096H118.073C117.049 94.096 116.345 93.92 115.961 93.568C115.577 93.184 115.369 92.624 115.337 91.888C115.337 91.856 115.321 91.808 115.289 91.744C115.289 91.648 115.289 91.568 115.289 91.504C113.177 93.68 110.297 94.768 106.649 94.768C104.121 94.768 101.961 94.144 100.169 92.896C98.4094 91.616 97.5294 89.872 97.5294 87.664C97.5294 85.424 98.1534 83.648 99.4014 82.336C100.681 80.992 102.185 80.08 103.913 79.6C105.673 79.12 107.545 78.88 109.529 78.88C111.545 78.88 113.513 79.072 115.433 79.456V79.264C115.433 77.664 115.113 76.512 114.473 75.808C113.865 75.104 112.857 74.752 111.449 74.752C110.073 74.752 108.921 74.88 107.993 75.136C107.065 75.36 106.361 75.6 105.881 75.856C104.569 76.624 103.657 77.008 103.145 77.008C102.633 77.008 102.169 76.768 101.753 76.288C101.369 75.808 101.177 75.072 101.177 74.08C101.177 73.056 101.353 72.352 101.705 71.968C102.089 71.584 102.681 71.2 103.481 70.816C106.265 69.472 110.233 68.8 115.385 68.8ZM113.129 88.432C114.537 88.432 115.257 88.16 115.289 87.616C115.353 86.56 115.385 85.168 115.385 83.44C115.385 82.768 114.873 82.432 113.849 82.432C112.825 82.432 111.993 82.688 111.353 83.2C110.713 83.68 110.393 84.4 110.393 85.36C110.393 86.32 110.649 87.072 111.161 87.616C111.705 88.16 112.361 88.432 113.129 88.432ZM140.477 95.872C144.701 95.872 146.813 95.248 146.813 94C146.813 93.584 146.557 92.96 146.045 92.128C143.709 88.48 140.253 82.192 135.677 73.264C135.325 72.528 135.149 71.952 135.149 71.536C135.149 70.224 135.805 69.568 137.117 69.568H147.677C148.701 69.568 149.469 69.728 149.981 70.048C150.525 70.368 151.037 70.976 151.517 71.872L155.981 80.224C156.173 80.608 156.445 80.8 156.797 80.8C157.149 80.8 157.421 80.608 157.613 80.224L162.221 70.672C162.509 70.032 162.845 69.68 163.229 69.616C163.357 69.616 163.597 69.6 163.949 69.568H168.989C169.437 69.568 169.757 69.776 169.949 70.192C170.013 70.384 170.045 70.608 170.045 70.864C170.045 71.088 169.917 71.44 169.661 71.92C169.437 72.368 168.237 74.912 166.061 79.552C163.885 84.192 162.221 87.6 161.069 89.776C159.949 91.952 159.149 93.44 158.669 94.24C158.221 95.04 157.613 95.984 156.845 97.072C156.077 98.192 155.341 99.024 154.637 99.568C153.933 100.144 153.053 100.72 151.997 101.296C150.141 102.288 147.757 102.784 144.845 102.784C141.965 102.784 140.061 102.528 139.133 102.016C138.205 101.536 137.741 100.464 137.741 98.8C137.741 98 137.885 97.312 138.173 96.736C138.493 96.16 138.909 95.872 139.421 95.872H140.477ZM214.952 91.936L215 80.224C215 79.264 214.76 78.544 214.28 78.064C213.8 77.584 213.192 77.344 212.456 77.344C211.752 77.344 211.096 77.6 210.488 78.112C209.912 78.592 209.624 79.28 209.624 80.176L209.672 87.136C209.672 89.344 209.656 90.864 209.624 91.696C209.592 92.528 209.368 93.136 208.952 93.52C208.568 93.872 207.8 94.048 206.648 94.048L197.432 94.144C196.408 94.144 195.688 93.968 195.272 93.616C194.888 93.232 194.696 92.672 194.696 91.936L194.744 80.224C194.744 79.264 194.504 78.544 194.024 78.064C193.544 77.584 192.936 77.344 192.2 77.344C191.496 77.344 190.84 77.6 190.232 78.112C189.656 78.592 189.368 79.28 189.368 80.176V83.104C189.368 87.328 189.272 90.208 189.08 91.744C188.984 92.288 188.712 92.768 188.264 93.184C187.816 93.6 187.016 93.856 185.864 93.952C184.744 94.016 183.624 94.048 182.504 94.048C181.384 94.048 179.48 93.984 176.792 93.856C176.024 93.824 175.416 93.6 174.968 93.184C174.52 92.768 174.264 92.288 174.2 91.744C173.976 89.664 173.864 86.48 173.864 82.192C173.864 77.904 173.928 74.976 174.056 73.408C174.184 71.808 174.424 70.768 174.776 70.288C175.128 69.808 175.848 69.568 176.936 69.568H186.296C187.384 69.568 188.104 69.808 188.456 70.288C188.84 70.768 189.08 71.584 189.176 72.736V72.784C191.64 70.224 194.776 68.944 198.584 68.944C200.92 68.944 202.952 69.392 204.68 70.288C206.408 71.184 207.688 72.496 208.52 74.224C209.576 72.496 211.016 71.184 212.84 70.288C214.696 69.392 216.696 68.944 218.84 68.944C222.104 68.944 224.744 69.808 226.76 71.536C228.776 73.264 229.8 75.648 229.832 78.688C229.896 81.728 229.928 84.448 229.928 86.848C229.928 89.248 229.912 90.864 229.88 91.696C229.848 92.528 229.624 93.136 229.208 93.52C228.824 93.872 228.056 94.048 226.904 94.048L217.688 94.144C216.664 94.144 215.944 93.968 215.528 93.616C215.144 93.232 214.952 92.672 214.952 91.936ZM241.848 71.056C243.32 70.32 244.824 69.792 246.36 69.472C247.928 69.152 249.848 68.992 252.12 68.992C254.424 68.992 256.616 69.28 258.696 69.856C260.776 70.4 262.328 71.152 263.352 72.112C265.144 73.872 266.04 75.936 266.04 78.304C266.04 82.016 262.904 83.872 256.632 83.872C254.424 83.872 252.136 83.664 249.768 83.248C249.864 85.36 250.248 86.848 250.92 87.712C251.624 88.576 252.856 89.008 254.616 89.008C256.376 89.008 257.832 88.816 258.984 88.432C260.136 88.048 261.064 87.664 261.768 87.28C262.472 86.864 263.064 86.656 263.544 86.656C264.056 86.656 264.488 86.88 264.84 87.328C265.384 87.904 265.656 88.704 265.656 89.728C265.656 90.72 265.448 91.408 265.032 91.792C264.648 92.144 264.024 92.496 263.16 92.848C260.12 94.128 255.8 94.768 250.2 94.768C245.56 94.768 241.736 93.664 238.728 91.456C235.752 89.216 234.264 86.208 234.264 82.432C234.264 80.608 234.6 78.944 235.272 77.44C235.944 75.904 236.84 74.64 237.96 73.648C239.08 72.624 240.376 71.76 241.848 71.056ZM252.984 74.464C251.032 74.464 249.976 76.048 249.816 79.216C251.352 79.344 252.152 79.408 252.216 79.408C254.328 79.408 255.384 78.704 255.384 77.296C255.384 75.408 254.584 74.464 252.984 74.464ZM291.681 91.936L291.729 80.224C291.729 79.264 291.489 78.544 291.009 78.064C290.529 77.584 289.921 77.344 289.185 77.344C288.481 77.344 287.825 77.6 287.217 78.112C286.641 78.592 286.353 79.28 286.353 80.176V83.104C286.353 87.328 286.257 90.208 286.065 91.744C285.969 92.288 285.697 92.768 285.249 93.184C284.801 93.6 284.001 93.856 282.849 93.952C281.729 94.016 280.609 94.048 279.489 94.048C278.369 94.048 276.465 93.984 273.777 93.856C273.009 93.824 272.401 93.6 271.953 93.184C271.505 92.768 271.249 92.288 271.185 91.744C270.961 89.664 270.849 86.48 270.849 82.192C270.849 77.904 270.913 74.976 271.041 73.408C271.169 71.808 271.409 70.768 271.761 70.288C272.113 69.808 272.833 69.568 273.921 69.568H283.281C284.369 69.568 285.089 69.808 285.441 70.288C285.825 70.768 286.065 71.584 286.161 72.736V72.784C288.625 70.224 291.617 68.944 295.137 68.944C298.689 68.944 301.473 69.808 303.489 71.536C305.505 73.264 306.529 75.648 306.561 78.688C306.625 81.728 306.657 84.448 306.657 86.848C306.657 89.248 306.641 90.864 306.609 91.696C306.577 92.528 306.353 93.136 305.937 93.52C305.553 93.872 304.785 94.048 303.633 94.048L294.417 94.144C293.393 94.144 292.673 93.968 292.257 93.616C291.873 93.232 291.681 92.672 291.681 91.936ZM313.974 76.528C313.974 76.016 313.622 75.76 312.918 75.76C311.67 75.76 310.934 75.344 310.71 74.512C310.582 74.096 310.518 73.456 310.518 72.592C310.518 71.728 310.63 71.12 310.854 70.768C311.11 70.384 311.574 70.112 312.246 69.952C312.95 69.76 313.574 69.456 314.118 69.04C314.694 68.592 315.846 67.632 317.574 66.16C319.334 64.688 320.55 63.728 321.222 63.28C321.926 62.832 322.79 62.608 323.814 62.608H326.214C327.334 62.608 328.086 62.752 328.47 63.04C328.854 63.296 329.046 63.712 329.046 64.288V68.848C329.046 69.52 329.334 69.856 329.91 69.856H335.046C335.878 69.856 336.47 70.032 336.822 70.384C337.206 70.736 337.398 71.552 337.398 72.832C337.398 74.08 337.206 74.88 336.822 75.232C336.438 75.584 335.862 75.76 335.094 75.76H330.102C329.654 75.76 329.366 75.872 329.238 76.096C329.11 76.32 329.046 76.64 329.046 77.056V82.816C329.11 83.904 329.51 84.816 330.246 85.552C331.014 86.288 332.086 86.656 333.462 86.656C334.134 86.656 334.966 86.48 335.958 86.128C336.95 85.744 337.622 85.552 337.974 85.552C338.838 85.552 339.27 86.832 339.27 89.392C339.27 91.248 338.774 92.368 337.782 92.752C336.758 93.104 335.318 93.392 333.462 93.616C331.606 93.84 329.75 93.952 327.894 93.952C326.038 93.952 324.262 93.808 322.566 93.52C320.902 93.2 319.382 92.656 318.006 91.888C315.318 90.32 313.974 87.328 313.974 82.912V76.528Z" fill="url(#paint0_linear_1282_18602)" fill-opacity="0.4"/>
<defs>
<linearGradient id="paint0_linear_1282_18602" x1="343" y1="4.26829" x2="356.829" y2="102.044" gradientUnits="userSpaceOnUse">
<stop stop-color="#6B73FF"/>
<stop offset="1" stop-color="#1B4AC3"/>
</linearGradient>
</defs>
</svg>
