<svg width="690" height="103" viewBox="0 0 690 103" fill="none" xmlns="http://www.w3.org/2000/svg">
<path d="M18.824 36.96C13.064 36.96 8.504 35.504 5.144 32.592C1.816 29.648 0.152 25.504 0.152 20.16C0.152 16.896 0.68 14.032 1.736 11.568C2.824 9.104 4.344 7.136 6.296 5.664C10.168 2.752 15.272 1.296 21.608 1.296C25.704 1.296 29.8 1.856 33.896 2.976C35.464 3.488 36.248 4.752 36.248 6.768C36.248 9.52 35.384 10.896 33.656 10.896C33.368 10.896 32.424 10.768 30.824 10.512C29.224 10.256 28.104 10.128 27.464 10.128C25.192 10.128 23.432 10.928 22.184 12.528C20.968 14.096 20.36 15.984 20.36 18.192C20.36 20.368 20.936 22.288 22.088 23.952C23.24 25.616 24.808 26.48 26.792 26.544C28.136 26.608 30.52 26.64 33.944 26.64C35.608 26.64 36.52 27.424 36.68 28.992C36.776 29.568 36.824 30.16 36.824 30.768C36.824 31.344 36.776 31.936 36.68 32.544C36.488 33.696 35.592 34.544 33.992 35.088C32.392 35.6 30.088 36.032 27.08 36.384C24.072 36.768 21.32 36.96 18.824 36.96ZM47.9728 13.056C49.4448 12.32 50.9488 11.792 52.4848 11.472C54.0528 11.152 55.9728 10.992 58.2448 10.992C60.5488 10.992 62.7408 11.28 64.8208 11.856C66.9008 12.4 68.4528 13.152 69.4768 14.112C71.2688 15.872 72.1648 17.936 72.1648 20.304C72.1648 24.016 69.0288 25.872 62.7568 25.872C60.5488 25.872 58.2608 25.664 55.8928 25.248C55.9888 27.36 56.3728 28.848 57.0448 29.712C57.7488 30.576 58.9808 31.008 60.7408 31.008C62.5008 31.008 63.9568 30.816 65.1088 30.432C66.2608 30.048 67.1888 29.664 67.8928 29.28C68.5968 28.864 69.1888 28.656 69.6688 28.656C70.1808 28.656 70.6128 28.88 70.9648 29.328C71.5088 29.904 71.7808 30.704 71.7808 31.728C71.7808 32.72 71.5728 33.408 71.1568 33.792C70.7728 34.144 70.1488 34.496 69.2848 34.848C66.2448 36.128 61.9248 36.768 56.3248 36.768C51.6848 36.768 47.8608 35.664 44.8528 33.456C41.8768 31.216 40.3888 28.208 40.3888 24.432C40.3888 22.608 40.7248 20.944 41.3968 19.44C42.0688 17.904 42.9648 16.64 44.0848 15.648C45.2048 14.624 46.5008 13.76 47.9728 13.056ZM59.1088 16.464C57.1568 16.464 56.1008 18.048 55.9408 21.216C57.4768 21.344 58.2768 21.408 58.3408 21.408C60.4528 21.408 61.5088 20.704 61.5088 19.296C61.5088 17.408 60.7088 16.464 59.1088 16.464ZM98.1898 19.248H93.7258C93.1498 19.248 92.8618 19.584 92.8618 20.256V32.832C92.8618 33.92 92.6698 34.72 92.2858 35.232C91.9018 35.744 91.1498 36 90.0298 36H80.6698C79.5498 36 78.7978 35.76 78.4138 35.28C78.0618 34.768 77.8538 33.952 77.7898 32.832C77.6618 30.112 77.5978 26.112 77.5978 20.832C77.5978 20.096 77.5338 19.648 77.4058 19.488C77.2778 19.296 77.0378 19.2 76.6858 19.2C75.5978 19.2 75.0538 18.224 75.0538 16.272C75.0538 15.12 75.2138 14.352 75.5338 13.968C75.8538 13.584 76.3498 13.376 77.0218 13.344C77.2138 13.344 77.3898 13.264 77.5498 13.104C77.7098 12.944 77.7898 12.768 77.7898 12.576V11.568C77.7898 5.232 81.6298 1.632 89.3098 0.767999C90.8458 0.575999 92.7658 0.48 95.0698 0.48C97.4058 0.48 99.8698 0.911999 102.462 1.776C103.582 2.16 104.142 3.456 104.142 5.664C104.142 7.84 103.63 8.928 102.606 8.928C102.158 8.928 101.358 8.752 100.206 8.4C99.0538 8.016 98.0778 7.824 97.2778 7.824C95.8058 7.824 94.7018 8.24 93.9658 9.072C93.2298 9.872 92.8618 10.864 92.8618 12.048C92.8618 12.912 93.2138 13.344 93.9178 13.344H98.2378C99.0058 13.344 99.5818 13.52 99.9658 13.872C100.35 14.224 100.542 15.04 100.542 16.32C100.542 17.568 100.35 18.368 99.9658 18.72C99.6138 19.072 99.0218 19.248 98.1898 19.248ZM112.707 13.056C114.179 12.32 115.683 11.792 117.219 11.472C118.787 11.152 120.707 10.992 122.979 10.992C125.283 10.992 127.475 11.28 129.555 11.856C131.635 12.4 133.187 13.152 134.211 14.112C136.003 15.872 136.899 17.936 136.899 20.304C136.899 24.016 133.763 25.872 127.491 25.872C125.283 25.872 122.995 25.664 120.627 25.248C120.723 27.36 121.107 28.848 121.779 29.712C122.483 30.576 123.715 31.008 125.475 31.008C127.235 31.008 128.691 30.816 129.843 30.432C130.995 30.048 131.923 29.664 132.627 29.28C133.331 28.864 133.923 28.656 134.403 28.656C134.915 28.656 135.347 28.88 135.699 29.328C136.243 29.904 136.515 30.704 136.515 31.728C136.515 32.72 136.307 33.408 135.891 33.792C135.507 34.144 134.883 34.496 134.019 34.848C130.979 36.128 126.659 36.768 121.059 36.768C116.419 36.768 112.595 35.664 109.587 33.456C106.611 31.216 105.123 28.208 105.123 24.432C105.123 22.608 105.459 20.944 106.131 19.44C106.803 17.904 107.699 16.64 108.819 15.648C109.939 14.624 111.235 13.76 112.707 13.056ZM123.843 16.464C121.891 16.464 120.835 18.048 120.675 21.216C122.211 21.344 123.011 21.408 123.075 21.408C125.187 21.408 126.243 20.704 126.243 19.296C126.243 17.408 125.443 16.464 123.843 16.464ZM143.724 18.528C143.724 18.016 143.372 17.76 142.668 17.76C141.42 17.76 140.684 17.344 140.46 16.512C140.332 16.096 140.268 15.456 140.268 14.592C140.268 13.728 140.38 13.12 140.604 12.768C140.86 12.384 141.324 12.112 141.996 11.952C142.7 11.76 143.324 11.456 143.868 11.04C144.444 10.592 145.596 9.632 147.324 8.16C149.084 6.688 150.3 5.728 150.972 5.28C151.676 4.832 152.54 4.608 153.564 4.608H155.964C157.084 4.608 157.836 4.752 158.22 5.04C158.604 5.296 158.796 5.712 158.796 6.288V10.848C158.796 11.52 159.084 11.856 159.66 11.856H164.796C165.628 11.856 166.22 12.032 166.572 12.384C166.956 12.736 167.148 13.552 167.148 14.832C167.148 16.08 166.956 16.88 166.572 17.232C166.188 17.584 165.612 17.76 164.844 17.76H159.852C159.404 17.76 159.116 17.872 158.988 18.096C158.86 18.32 158.796 18.64 158.796 19.056V24.816C158.86 25.904 159.26 26.816 159.996 27.552C160.764 28.288 161.836 28.656 163.212 28.656C163.884 28.656 164.716 28.48 165.708 28.128C166.7 27.744 167.372 27.552 167.724 27.552C168.588 27.552 169.02 28.832 169.02 31.392C169.02 33.248 168.524 34.368 167.532 34.752C166.508 35.104 165.068 35.392 163.212 35.616C161.356 35.84 159.5 35.952 157.644 35.952C155.788 35.952 154.012 35.808 152.316 35.52C150.652 35.2 149.132 34.656 147.756 33.888C145.068 32.32 143.724 29.328 143.724 24.912V18.528ZM180.067 13.056C181.539 12.32 183.043 11.792 184.579 11.472C186.147 11.152 188.067 10.992 190.339 10.992C192.643 10.992 194.835 11.28 196.915 11.856C198.995 12.4 200.547 13.152 201.571 14.112C203.363 15.872 204.259 17.936 204.259 20.304C204.259 24.016 201.123 25.872 194.851 25.872C192.643 25.872 190.355 25.664 187.987 25.248C188.083 27.36 188.467 28.848 189.139 29.712C189.843 30.576 191.075 31.008 192.835 31.008C194.595 31.008 196.051 30.816 197.203 30.432C198.355 30.048 199.283 29.664 199.987 29.28C200.691 28.864 201.283 28.656 201.763 28.656C202.275 28.656 202.707 28.88 203.059 29.328C203.603 29.904 203.875 30.704 203.875 31.728C203.875 32.72 203.667 33.408 203.251 33.792C202.867 34.144 202.243 34.496 201.379 34.848C198.339 36.128 194.019 36.768 188.419 36.768C183.779 36.768 179.955 35.664 176.947 33.456C173.971 31.216 172.483 28.208 172.483 24.432C172.483 22.608 172.819 20.944 173.491 19.44C174.163 17.904 175.059 16.64 176.179 15.648C177.299 14.624 178.595 13.76 180.067 13.056ZM191.203 16.464C189.251 16.464 188.195 18.048 188.035 21.216C189.571 21.344 190.371 21.408 190.435 21.408C192.547 21.408 193.603 20.704 193.603 19.296C193.603 17.408 192.803 16.464 191.203 16.464ZM212.14 11.568H221.5C222.588 11.568 223.34 11.808 223.756 12.288C224.172 12.736 224.38 13.424 224.38 14.352V16.08C226.172 12.688 229.084 10.992 233.116 10.992C234.46 10.992 235.564 11.424 236.428 12.288C237.292 13.152 237.724 14.304 237.724 15.744C237.724 17.184 237.34 18.624 236.572 20.064C235.804 21.472 234.732 22.176 233.356 22.176C232.716 22.176 231.82 21.856 230.668 21.216C229.516 20.544 228.588 20.208 227.884 20.208C227.18 20.208 226.444 20.464 225.676 20.976C224.94 21.488 224.572 22.336 224.572 23.52C224.572 28.672 224.476 32.08 224.284 33.744C224.188 34.288 223.916 34.768 223.468 35.184C223.02 35.6 222.22 35.856 221.068 35.952C219.948 36.016 218.828 36.048 217.708 36.048C216.588 36.048 214.684 35.984 211.996 35.856C211.228 35.824 210.62 35.6 210.172 35.184C209.724 34.768 209.468 34.288 209.404 33.744C209.18 31.664 209.068 28.48 209.068 24.192C209.068 19.904 209.132 16.976 209.26 15.408C209.388 13.808 209.628 12.768 209.98 12.288C210.332 11.808 211.052 11.568 212.14 11.568ZM243.686 11.712H253.046C254.134 11.712 254.854 11.952 255.206 12.432C255.59 12.912 255.83 13.984 255.926 15.648C256.054 17.28 256.118 20.288 256.118 24.672C256.118 29.024 256.022 32.096 255.83 33.888C255.734 34.432 255.462 34.912 255.014 35.328C254.566 35.744 253.766 35.984 252.614 36.048C251.494 36.144 250.15 36.192 248.582 36.192C247.014 36.192 245.59 36.144 244.31 36.048C243.03 35.984 242.166 35.744 241.718 35.328C241.27 34.912 241.014 34.432 240.95 33.888C240.726 31.808 240.614 28.624 240.614 24.336C240.614 20.016 240.678 17.072 240.806 15.504C240.934 13.936 241.174 12.912 241.526 12.432C241.878 11.952 242.598 11.712 243.686 11.712ZM248.87 0.383998C250.982 0.383998 252.566 0.815998 253.622 1.68C254.71 2.512 255.254 3.664 255.254 5.136C255.254 8.592 252.95 10.32 248.342 10.32C246.486 10.32 244.902 9.92 243.59 9.12C242.278 8.32 241.622 7.12 241.622 5.52C241.622 2.096 244.038 0.383998 248.87 0.383998ZM278.792 10.8C289.224 10.8 294.488 14.192 294.584 20.976C294.648 23.856 294.68 26.496 294.68 28.896C294.68 31.296 294.664 32.912 294.632 33.744C294.6 34.576 294.376 35.184 293.96 35.568C293.576 35.92 292.808 36.096 291.656 36.096H281.48C280.456 36.096 279.752 35.92 279.368 35.568C278.984 35.184 278.776 34.624 278.744 33.888C278.744 33.856 278.728 33.808 278.696 33.744C278.696 33.648 278.696 33.568 278.696 33.504C276.584 35.68 273.704 36.768 270.056 36.768C267.528 36.768 265.368 36.144 263.576 34.896C261.816 33.616 260.936 31.872 260.936 29.664C260.936 27.424 261.56 25.648 262.808 24.336C264.088 22.992 265.592 22.08 267.32 21.6C269.08 21.12 270.952 20.88 272.936 20.88C274.952 20.88 276.92 21.072 278.84 21.456V21.264C278.84 19.664 278.52 18.512 277.88 17.808C277.272 17.104 276.264 16.752 274.856 16.752C273.48 16.752 272.328 16.88 271.4 17.136C270.472 17.36 269.768 17.6 269.288 17.856C267.976 18.624 267.064 19.008 266.552 19.008C266.04 19.008 265.576 18.768 265.16 18.288C264.776 17.808 264.584 17.072 264.584 16.08C264.584 15.056 264.76 14.352 265.112 13.968C265.496 13.584 266.088 13.2 266.888 12.816C269.672 11.472 273.64 10.8 278.792 10.8ZM276.536 30.432C277.944 30.432 278.664 30.16 278.696 29.616C278.76 28.56 278.792 27.168 278.792 25.44C278.792 24.768 278.28 24.432 277.256 24.432C276.232 24.432 275.4 24.688 274.76 25.2C274.12 25.68 273.8 26.4 273.8 27.36C273.8 28.32 274.056 29.072 274.568 29.616C275.112 30.16 275.768 30.432 276.536 30.432ZM322.718 11.568H332.078C333.166 11.568 333.918 11.808 334.334 12.288C334.75 12.736 334.958 13.424 334.958 14.352V16.08C336.75 12.688 339.662 10.992 343.694 10.992C345.038 10.992 346.142 11.424 347.006 12.288C347.87 13.152 348.302 14.304 348.302 15.744C348.302 17.184 347.918 18.624 347.15 20.064C346.382 21.472 345.31 22.176 343.934 22.176C343.294 22.176 342.398 21.856 341.246 21.216C340.094 20.544 339.166 20.208 338.462 20.208C337.758 20.208 337.022 20.464 336.254 20.976C335.518 21.488 335.15 22.336 335.15 23.52C335.15 28.672 335.054 32.08 334.862 33.744C334.766 34.288 334.494 34.768 334.046 35.184C333.598 35.6 332.798 35.856 331.646 35.952C330.526 36.016 329.406 36.048 328.286 36.048C327.166 36.048 325.262 35.984 322.574 35.856C321.806 35.824 321.198 35.6 320.75 35.184C320.302 34.768 320.046 34.288 319.982 33.744C319.758 31.664 319.646 28.48 319.646 24.192C319.646 19.904 319.71 16.976 319.838 15.408C319.966 13.808 320.206 12.768 320.558 12.288C320.91 11.808 321.63 11.568 322.718 11.568ZM357.817 13.056C359.289 12.32 360.793 11.792 362.329 11.472C363.897 11.152 365.817 10.992 368.089 10.992C370.393 10.992 372.585 11.28 374.665 11.856C376.745 12.4 378.297 13.152 379.321 14.112C381.113 15.872 382.009 17.936 382.009 20.304C382.009 24.016 378.873 25.872 372.601 25.872C370.393 25.872 368.105 25.664 365.737 25.248C365.833 27.36 366.217 28.848 366.889 29.712C367.593 30.576 368.825 31.008 370.585 31.008C372.345 31.008 373.801 30.816 374.953 30.432C376.105 30.048 377.033 29.664 377.737 29.28C378.441 28.864 379.033 28.656 379.513 28.656C380.025 28.656 380.457 28.88 380.809 29.328C381.353 29.904 381.625 30.704 381.625 31.728C381.625 32.72 381.417 33.408 381.001 33.792C380.617 34.144 379.993 34.496 379.129 34.848C376.089 36.128 371.769 36.768 366.169 36.768C361.529 36.768 357.705 35.664 354.697 33.456C351.721 31.216 350.233 28.208 350.233 24.432C350.233 22.608 350.569 20.944 351.241 19.44C351.913 17.904 352.809 16.64 353.929 15.648C355.049 14.624 356.345 13.76 357.817 13.056ZM368.953 16.464C367.001 16.464 365.945 18.048 365.785 21.216C367.321 21.344 368.121 21.408 368.185 21.408C370.297 21.408 371.353 20.704 371.353 19.296C371.353 17.408 370.553 16.464 368.953 16.464ZM397.378 29.712C397.378 28.816 396.994 28.112 396.226 27.6C395.49 27.088 394.578 26.704 393.49 26.448C392.434 26.16 391.362 25.84 390.273 25.488C389.186 25.104 388.258 24.464 387.49 23.568C386.754 22.64 386.386 21.424 386.386 19.92C386.386 13.968 391.01 10.992 400.258 10.992C404.226 10.992 407.41 11.664 409.81 13.008C410.578 13.424 411.122 13.824 411.442 14.208C411.762 14.56 411.922 15.2 411.922 16.128C411.922 17.056 411.73 17.76 411.346 18.24C410.994 18.688 410.626 18.912 410.242 18.912C409.89 18.912 409.09 18.56 407.842 17.856C406.626 17.12 405.362 16.736 404.05 16.704C402.994 16.704 402.466 17.232 402.466 18.288C402.466 18.992 402.834 19.552 403.57 19.968C404.306 20.384 405.202 20.752 406.258 21.072C407.314 21.36 408.37 21.728 409.426 22.176C410.482 22.592 411.378 23.312 412.114 24.336C412.85 25.328 413.218 26.592 413.218 28.128C413.218 34.08 408.594 37.056 399.346 37.056C394.834 37.056 391.154 36.4 388.306 35.088C387.442 34.736 386.818 34.384 386.434 34.032C386.05 33.648 385.858 32.976 385.858 32.016C385.858 31.024 386.05 30.32 386.434 29.904C386.85 29.488 387.186 29.28 387.442 29.28C387.73 29.28 388.658 29.632 390.226 30.336C391.794 31.04 393.378 31.392 394.978 31.392C396.578 31.392 397.378 30.832 397.378 29.712ZM424.66 13.056C426.132 12.32 427.636 11.792 429.172 11.472C430.74 11.152 432.66 10.992 434.932 10.992C437.236 10.992 439.428 11.28 441.508 11.856C443.588 12.4 445.14 13.152 446.164 14.112C447.956 15.872 448.852 17.936 448.852 20.304C448.852 24.016 445.716 25.872 439.444 25.872C437.236 25.872 434.948 25.664 432.58 25.248C432.676 27.36 433.06 28.848 433.732 29.712C434.436 30.576 435.668 31.008 437.428 31.008C439.188 31.008 440.644 30.816 441.796 30.432C442.948 30.048 443.876 29.664 444.58 29.28C445.284 28.864 445.876 28.656 446.356 28.656C446.868 28.656 447.3 28.88 447.652 29.328C448.196 29.904 448.468 30.704 448.468 31.728C448.468 32.72 448.26 33.408 447.844 33.792C447.46 34.144 446.836 34.496 445.972 34.848C442.932 36.128 438.612 36.768 433.012 36.768C428.372 36.768 424.548 35.664 421.54 33.456C418.564 31.216 417.076 28.208 417.076 24.432C417.076 22.608 417.412 20.944 418.084 19.44C418.756 17.904 419.652 16.64 420.772 15.648C421.892 14.624 423.188 13.76 424.66 13.056ZM435.796 16.464C433.844 16.464 432.788 18.048 432.628 21.216C434.164 21.344 434.964 21.408 435.028 21.408C437.14 21.408 438.196 20.704 438.196 19.296C438.196 17.408 437.396 16.464 435.796 16.464ZM456.733 11.568H466.093C467.181 11.568 467.933 11.808 468.349 12.288C468.765 12.736 468.973 13.424 468.973 14.352V16.08C470.765 12.688 473.677 10.992 477.709 10.992C479.053 10.992 480.157 11.424 481.021 12.288C481.885 13.152 482.317 14.304 482.317 15.744C482.317 17.184 481.933 18.624 481.165 20.064C480.397 21.472 479.325 22.176 477.949 22.176C477.309 22.176 476.413 21.856 475.261 21.216C474.109 20.544 473.181 20.208 472.477 20.208C471.773 20.208 471.037 20.464 470.269 20.976C469.533 21.488 469.165 22.336 469.165 23.52C469.165 28.672 469.069 32.08 468.877 33.744C468.781 34.288 468.509 34.768 468.061 35.184C467.613 35.6 466.813 35.856 465.661 35.952C464.541 36.016 463.421 36.048 462.301 36.048C461.181 36.048 459.277 35.984 456.589 35.856C455.821 35.824 455.213 35.6 454.765 35.184C454.317 34.768 454.061 34.288 453.997 33.744C453.773 31.664 453.661 28.48 453.661 24.192C453.661 19.904 453.725 16.976 453.853 15.408C453.981 13.808 454.221 12.768 454.573 12.288C454.925 11.808 455.645 11.568 456.733 11.568ZM483.288 13.344C483.288 12.192 483.944 11.616 485.256 11.616L495.816 11.568C496.872 11.568 497.672 11.728 498.216 12.048C498.76 12.336 499.24 12.944 499.656 13.872L504.12 22.224C504.248 22.608 504.504 22.8 504.888 22.8C505.272 22.8 505.56 22.608 505.752 22.224L510.36 12.672C510.616 12.096 510.968 11.76 511.416 11.664C511.544 11.632 511.768 11.616 512.088 11.616L517.128 11.568C517.576 11.568 517.88 11.776 518.04 12.192C518.136 12.384 518.184 12.608 518.184 12.864C518.184 13.088 518.104 13.344 517.944 13.632C513.592 22.592 510.024 29.536 507.24 34.464C506.696 35.296 505.832 35.936 504.648 36.384C503.464 36.832 502.168 37.056 500.76 37.056C497.624 37.056 495.528 36.256 494.472 34.656C493.448 33.024 492.36 31.168 491.208 29.088C490.056 27.008 488.744 24.56 487.272 21.744C485.8 18.928 484.648 16.768 483.816 15.264C483.464 14.528 483.288 13.888 483.288 13.344ZM538.901 10.8C549.333 10.8 554.597 14.192 554.693 20.976C554.757 23.856 554.789 26.496 554.789 28.896C554.789 31.296 554.773 32.912 554.741 33.744C554.709 34.576 554.485 35.184 554.069 35.568C553.685 35.92 552.917 36.096 551.765 36.096H541.589C540.565 36.096 539.861 35.92 539.477 35.568C539.093 35.184 538.885 34.624 538.853 33.888C538.853 33.856 538.837 33.808 538.805 33.744C538.805 33.648 538.805 33.568 538.805 33.504C536.693 35.68 533.813 36.768 530.165 36.768C527.637 36.768 525.477 36.144 523.685 34.896C521.925 33.616 521.045 31.872 521.045 29.664C521.045 27.424 521.669 25.648 522.917 24.336C524.197 22.992 525.701 22.08 527.429 21.6C529.189 21.12 531.061 20.88 533.045 20.88C535.061 20.88 537.029 21.072 538.949 21.456V21.264C538.949 19.664 538.629 18.512 537.989 17.808C537.381 17.104 536.373 16.752 534.965 16.752C533.589 16.752 532.437 16.88 531.509 17.136C530.581 17.36 529.877 17.6 529.397 17.856C528.085 18.624 527.173 19.008 526.661 19.008C526.149 19.008 525.685 18.768 525.269 18.288C524.885 17.808 524.693 17.072 524.693 16.08C524.693 15.056 524.869 14.352 525.221 13.968C525.605 13.584 526.197 13.2 526.997 12.816C529.781 11.472 533.749 10.8 538.901 10.8ZM536.645 30.432C538.053 30.432 538.773 30.16 538.805 29.616C538.869 28.56 538.901 27.168 538.901 25.44C538.901 24.768 538.389 24.432 537.365 24.432C536.341 24.432 535.509 24.688 534.869 25.2C534.229 25.68 533.909 26.4 533.909 27.36C533.909 28.32 534.165 29.072 534.677 29.616C535.221 30.16 535.877 30.432 536.645 30.432ZM562.552 18.528C562.552 18.016 562.2 17.76 561.496 17.76C560.248 17.76 559.512 17.344 559.288 16.512C559.16 16.096 559.096 15.456 559.096 14.592C559.096 13.728 559.208 13.12 559.432 12.768C559.688 12.384 560.152 12.112 560.824 11.952C561.528 11.76 562.152 11.456 562.696 11.04C563.272 10.592 564.424 9.632 566.152 8.16C567.912 6.688 569.128 5.728 569.8 5.28C570.504 4.832 571.368 4.608 572.392 4.608H574.792C575.912 4.608 576.664 4.752 577.048 5.04C577.432 5.296 577.624 5.712 577.624 6.288V10.848C577.624 11.52 577.912 11.856 578.488 11.856H583.624C584.456 11.856 585.048 12.032 585.4 12.384C585.784 12.736 585.976 13.552 585.976 14.832C585.976 16.08 585.784 16.88 585.4 17.232C585.016 17.584 584.44 17.76 583.672 17.76H578.68C578.232 17.76 577.944 17.872 577.816 18.096C577.688 18.32 577.624 18.64 577.624 19.056V24.816C577.688 25.904 578.088 26.816 578.824 27.552C579.592 28.288 580.664 28.656 582.04 28.656C582.712 28.656 583.544 28.48 584.536 28.128C585.528 27.744 586.2 27.552 586.552 27.552C587.416 27.552 587.848 28.832 587.848 31.392C587.848 33.248 587.352 34.368 586.36 34.752C585.336 35.104 583.896 35.392 582.04 35.616C580.184 35.84 578.328 35.952 576.472 35.952C574.616 35.952 572.84 35.808 571.144 35.52C569.48 35.2 567.96 34.656 566.584 33.888C563.896 32.32 562.552 29.328 562.552 24.912V18.528ZM595.343 11.712H604.703C605.791 11.712 606.511 11.952 606.863 12.432C607.247 12.912 607.487 13.984 607.583 15.648C607.711 17.28 607.775 20.288 607.775 24.672C607.775 29.024 607.679 32.096 607.487 33.888C607.391 34.432 607.119 34.912 606.671 35.328C606.223 35.744 605.423 35.984 604.271 36.048C603.151 36.144 601.807 36.192 600.239 36.192C598.671 36.192 597.247 36.144 595.967 36.048C594.687 35.984 593.823 35.744 593.375 35.328C592.927 34.912 592.671 34.432 592.607 33.888C592.383 31.808 592.271 28.624 592.271 24.336C592.271 20.016 592.335 17.072 592.463 15.504C592.591 13.936 592.831 12.912 593.183 12.432C593.535 11.952 594.255 11.712 595.343 11.712ZM600.527 0.383998C602.639 0.383998 604.223 0.815998 605.279 1.68C606.367 2.512 606.911 3.664 606.911 5.136C606.911 8.592 604.607 10.32 599.999 10.32C598.143 10.32 596.559 9.92 595.247 9.12C593.935 8.32 593.279 7.12 593.279 5.52C593.279 2.096 595.695 0.383998 600.527 0.383998ZM627.664 24C627.664 27.584 628.608 29.376 630.496 29.376C632.384 29.376 633.328 27.584 633.328 24C633.328 22.368 633.136 21.12 632.752 20.256C632.368 19.36 631.616 18.912 630.496 18.912C629.376 18.912 628.624 19.36 628.24 20.256C627.856 21.12 627.664 22.368 627.664 24ZM648.4 24C648.4 32.704 642.432 37.056 630.496 37.056C618.56 37.056 612.592 32.704 612.592 24C612.592 19.872 614.112 16.672 617.152 14.4C620.192 12.128 624.64 10.992 630.496 10.992C636.352 10.992 640.8 12.128 643.84 14.4C646.88 16.672 648.4 19.872 648.4 24ZM674.04 33.936L674.088 22.224C674.088 21.264 673.848 20.544 673.368 20.064C672.888 19.584 672.28 19.344 671.544 19.344C670.84 19.344 670.184 19.6 669.576 20.112C669 20.592 668.712 21.28 668.712 22.176V25.104C668.712 29.328 668.616 32.208 668.424 33.744C668.328 34.288 668.056 34.768 667.608 35.184C667.16 35.6 666.36 35.856 665.208 35.952C664.088 36.016 662.968 36.048 661.848 36.048C660.728 36.048 658.824 35.984 656.136 35.856C655.368 35.824 654.76 35.6 654.312 35.184C653.864 34.768 653.608 34.288 653.544 33.744C653.32 31.664 653.208 28.48 653.208 24.192C653.208 19.904 653.272 16.976 653.4 15.408C653.528 13.808 653.768 12.768 654.12 12.288C654.472 11.808 655.192 11.568 656.28 11.568H665.64C666.728 11.568 667.448 11.808 667.8 12.288C668.184 12.768 668.424 13.584 668.52 14.736V14.784C670.984 12.224 673.976 10.944 677.496 10.944C681.048 10.944 683.832 11.808 685.848 13.536C687.864 15.264 688.888 17.648 688.92 20.688C688.984 23.728 689.016 26.448 689.016 28.848C689.016 31.248 689 32.864 688.968 33.696C688.936 34.528 688.712 35.136 688.296 35.52C687.912 35.872 687.144 36.048 685.992 36.048L676.776 36.144C675.752 36.144 675.032 35.968 674.616 35.616C674.232 35.232 674.04 34.672 674.04 33.936ZM2.84 77.248V76.912C2.84 75.44 3.128 74.48 3.704 74.032C4.312 73.552 5.192 73.312 6.344 73.312H14.12V65.296C14.12 64.176 14.344 63.344 14.792 62.8C15.24 62.224 16.2 61.92 17.672 61.888H18.728C20.2 61.888 21.16 62.192 21.608 62.8C22.088 63.376 22.328 64.24 22.328 65.392V73.312H30.2C31.32 73.312 32.152 73.536 32.696 73.984C33.272 74.432 33.576 75.408 33.608 76.912V77.2C33.608 78.736 33.256 79.728 32.552 80.176C32.008 80.528 31.192 80.704 30.104 80.704H22.328V88.768C22.328 89.888 22.104 90.736 21.656 91.312C21.208 91.856 20.232 92.144 18.728 92.176H17.72C16.248 92.176 15.272 91.888 14.792 91.312C14.344 90.704 14.12 89.824 14.12 88.672V80.704H6.248C4.52 80.704 3.48 80.192 3.128 79.168C2.968 78.688 2.872 78.048 2.84 77.248ZM77.7283 86.704C79.6163 86.704 80.5603 85.152 80.5603 82.048C80.5603 78.912 79.6163 77.344 77.7283 77.344C76.9923 77.344 76.3203 77.6 75.7123 78.112C75.1363 78.592 74.8483 79.28 74.8483 80.176V83.872C74.8483 84.768 75.1363 85.472 75.7123 85.984C76.3203 86.464 76.9923 86.704 77.7283 86.704ZM62.3683 69.568L71.2003 69.616C71.9683 69.616 72.6403 69.856 73.2163 70.336C73.7923 70.784 74.0963 71.44 74.1283 72.304C75.3763 71.184 76.8803 70.336 78.6403 69.76C80.4323 69.184 82.1923 68.896 83.9203 68.896C86.9283 68.896 89.3923 69.968 91.3123 72.112C93.2323 74.224 94.1923 77.44 94.1923 81.76C94.1923 84.224 93.8563 86.336 93.1843 88.096C92.5123 89.824 91.6003 91.152 90.4483 92.08C88.2403 93.776 85.6003 94.624 82.5283 94.624C79.4883 94.624 77.1043 93.632 75.3763 91.648C75.1523 91.424 74.9763 91.36 74.8483 91.456C74.7523 91.552 74.7043 91.696 74.7043 91.888C74.7043 94.16 74.6083 96.64 74.4163 99.328C74.3523 100.384 74.1443 101.136 73.7923 101.584C73.4403 102.064 72.7203 102.304 71.6323 102.304H62.4163C61.3603 102.304 60.6403 102.048 60.2563 101.536C59.9043 101.024 59.7123 100.24 59.6803 99.184C59.6163 96.144 59.5843 92.256 59.5843 87.52L59.6803 71.824C59.6803 71.184 59.9683 70.656 60.5443 70.24C61.1523 69.792 61.7603 69.568 62.3683 69.568ZM115.385 68.8C125.817 68.8 131.081 72.192 131.177 78.976C131.241 81.856 131.273 84.496 131.273 86.896C131.273 89.296 131.257 90.912 131.225 91.744C131.193 92.576 130.969 93.184 130.553 93.568C130.169 93.92 129.401 94.096 128.249 94.096H118.073C117.049 94.096 116.345 93.92 115.961 93.568C115.577 93.184 115.369 92.624 115.337 91.888C115.337 91.856 115.321 91.808 115.289 91.744C115.289 91.648 115.289 91.568 115.289 91.504C113.177 93.68 110.297 94.768 106.649 94.768C104.121 94.768 101.961 94.144 100.169 92.896C98.4094 91.616 97.5294 89.872 97.5294 87.664C97.5294 85.424 98.1534 83.648 99.4014 82.336C100.681 80.992 102.185 80.08 103.913 79.6C105.673 79.12 107.545 78.88 109.529 78.88C111.545 78.88 113.513 79.072 115.433 79.456V79.264C115.433 77.664 115.113 76.512 114.473 75.808C113.865 75.104 112.857 74.752 111.449 74.752C110.073 74.752 108.921 74.88 107.993 75.136C107.065 75.36 106.361 75.6 105.881 75.856C104.569 76.624 103.657 77.008 103.145 77.008C102.633 77.008 102.169 76.768 101.753 76.288C101.369 75.808 101.177 75.072 101.177 74.08C101.177 73.056 101.353 72.352 101.705 71.968C102.089 71.584 102.681 71.2 103.481 70.816C106.265 69.472 110.233 68.8 115.385 68.8ZM113.129 88.432C114.537 88.432 115.257 88.16 115.289 87.616C115.353 86.56 115.385 85.168 115.385 83.44C115.385 82.768 114.873 82.432 113.849 82.432C112.825 82.432 111.993 82.688 111.353 83.2C110.713 83.68 110.393 84.4 110.393 85.36C110.393 86.32 110.649 87.072 111.161 87.616C111.705 88.16 112.361 88.432 113.129 88.432ZM140.477 95.872C144.701 95.872 146.813 95.248 146.813 94C146.813 93.584 146.557 92.96 146.045 92.128C143.709 88.48 140.253 82.192 135.677 73.264C135.325 72.528 135.149 71.952 135.149 71.536C135.149 70.224 135.805 69.568 137.117 69.568H147.677C148.701 69.568 149.469 69.728 149.981 70.048C150.525 70.368 151.037 70.976 151.517 71.872L155.981 80.224C156.173 80.608 156.445 80.8 156.797 80.8C157.149 80.8 157.421 80.608 157.613 80.224L162.221 70.672C162.509 70.032 162.845 69.68 163.229 69.616C163.357 69.616 163.597 69.6 163.949 69.568H168.989C169.437 69.568 169.757 69.776 169.949 70.192C170.013 70.384 170.045 70.608 170.045 70.864C170.045 71.088 169.917 71.44 169.661 71.92C169.437 72.368 168.237 74.912 166.061 79.552C163.885 84.192 162.221 87.6 161.069 89.776C159.949 91.952 159.149 93.44 158.669 94.24C158.221 95.04 157.613 95.984 156.845 97.072C156.077 98.192 155.341 99.024 154.637 99.568C153.933 100.144 153.053 100.72 151.997 101.296C150.141 102.288 147.757 102.784 144.845 102.784C141.965 102.784 140.061 102.528 139.133 102.016C138.205 101.536 137.741 100.464 137.741 98.8C137.741 98 137.885 97.312 138.173 96.736C138.493 96.16 138.909 95.872 139.421 95.872H140.477ZM214.952 91.936L215 80.224C215 79.264 214.76 78.544 214.28 78.064C213.8 77.584 213.192 77.344 212.456 77.344C211.752 77.344 211.096 77.6 210.488 78.112C209.912 78.592 209.624 79.28 209.624 80.176L209.672 87.136C209.672 89.344 209.656 90.864 209.624 91.696C209.592 92.528 209.368 93.136 208.952 93.52C208.568 93.872 207.8 94.048 206.648 94.048L197.432 94.144C196.408 94.144 195.688 93.968 195.272 93.616C194.888 93.232 194.696 92.672 194.696 91.936L194.744 80.224C194.744 79.264 194.504 78.544 194.024 78.064C193.544 77.584 192.936 77.344 192.2 77.344C191.496 77.344 190.84 77.6 190.232 78.112C189.656 78.592 189.368 79.28 189.368 80.176V83.104C189.368 87.328 189.272 90.208 189.08 91.744C188.984 92.288 188.712 92.768 188.264 93.184C187.816 93.6 187.016 93.856 185.864 93.952C184.744 94.016 183.624 94.048 182.504 94.048C181.384 94.048 179.48 93.984 176.792 93.856C176.024 93.824 175.416 93.6 174.968 93.184C174.52 92.768 174.264 92.288 174.2 91.744C173.976 89.664 173.864 86.48 173.864 82.192C173.864 77.904 173.928 74.976 174.056 73.408C174.184 71.808 174.424 70.768 174.776 70.288C175.128 69.808 175.848 69.568 176.936 69.568H186.296C187.384 69.568 188.104 69.808 188.456 70.288C188.84 70.768 189.08 71.584 189.176 72.736V72.784C191.64 70.224 194.776 68.944 198.584 68.944C200.92 68.944 202.952 69.392 204.68 70.288C206.408 71.184 207.688 72.496 208.52 74.224C209.576 72.496 211.016 71.184 212.84 70.288C214.696 69.392 216.696 68.944 218.84 68.944C222.104 68.944 224.744 69.808 226.76 71.536C228.776 73.264 229.8 75.648 229.832 78.688C229.896 81.728 229.928 84.448 229.928 86.848C229.928 89.248 229.912 90.864 229.88 91.696C229.848 92.528 229.624 93.136 229.208 93.52C228.824 93.872 228.056 94.048 226.904 94.048L217.688 94.144C216.664 94.144 215.944 93.968 215.528 93.616C215.144 93.232 214.952 92.672 214.952 91.936ZM241.848 71.056C243.32 70.32 244.824 69.792 246.36 69.472C247.928 69.152 249.848 68.992 252.12 68.992C254.424 68.992 256.616 69.28 258.696 69.856C260.776 70.4 262.328 71.152 263.352 72.112C265.144 73.872 266.04 75.936 266.04 78.304C266.04 82.016 262.904 83.872 256.632 83.872C254.424 83.872 252.136 83.664 249.768 83.248C249.864 85.36 250.248 86.848 250.92 87.712C251.624 88.576 252.856 89.008 254.616 89.008C256.376 89.008 257.832 88.816 258.984 88.432C260.136 88.048 261.064 87.664 261.768 87.28C262.472 86.864 263.064 86.656 263.544 86.656C264.056 86.656 264.488 86.88 264.84 87.328C265.384 87.904 265.656 88.704 265.656 89.728C265.656 90.72 265.448 91.408 265.032 91.792C264.648 92.144 264.024 92.496 263.16 92.848C260.12 94.128 255.8 94.768 250.2 94.768C245.56 94.768 241.736 93.664 238.728 91.456C235.752 89.216 234.264 86.208 234.264 82.432C234.264 80.608 234.6 78.944 235.272 77.44C235.944 75.904 236.84 74.64 237.96 73.648C239.08 72.624 240.376 71.76 241.848 71.056ZM252.984 74.464C251.032 74.464 249.976 76.048 249.816 79.216C251.352 79.344 252.152 79.408 252.216 79.408C254.328 79.408 255.384 78.704 255.384 77.296C255.384 75.408 254.584 74.464 252.984 74.464ZM291.681 91.936L291.729 80.224C291.729 79.264 291.489 78.544 291.009 78.064C290.529 77.584 289.921 77.344 289.185 77.344C288.481 77.344 287.825 77.6 287.217 78.112C286.641 78.592 286.353 79.28 286.353 80.176V83.104C286.353 87.328 286.257 90.208 286.065 91.744C285.969 92.288 285.697 92.768 285.249 93.184C284.801 93.6 284.001 93.856 282.849 93.952C281.729 94.016 280.609 94.048 279.489 94.048C278.369 94.048 276.465 93.984 273.777 93.856C273.009 93.824 272.401 93.6 271.953 93.184C271.505 92.768 271.249 92.288 271.185 91.744C270.961 89.664 270.849 86.48 270.849 82.192C270.849 77.904 270.913 74.976 271.041 73.408C271.169 71.808 271.409 70.768 271.761 70.288C272.113 69.808 272.833 69.568 273.921 69.568H283.281C284.369 69.568 285.089 69.808 285.441 70.288C285.825 70.768 286.065 71.584 286.161 72.736V72.784C288.625 70.224 291.617 68.944 295.137 68.944C298.689 68.944 301.473 69.808 303.489 71.536C305.505 73.264 306.529 75.648 306.561 78.688C306.625 81.728 306.657 84.448 306.657 86.848C306.657 89.248 306.641 90.864 306.609 91.696C306.577 92.528 306.353 93.136 305.937 93.52C305.553 93.872 304.785 94.048 303.633 94.048L294.417 94.144C293.393 94.144 292.673 93.968 292.257 93.616C291.873 93.232 291.681 92.672 291.681 91.936ZM313.974 76.528C313.974 76.016 313.622 75.76 312.918 75.76C311.67 75.76 310.934 75.344 310.71 74.512C310.582 74.096 310.518 73.456 310.518 72.592C310.518 71.728 310.63 71.12 310.854 70.768C311.11 70.384 311.574 70.112 312.246 69.952C312.95 69.76 313.574 69.456 314.118 69.04C314.694 68.592 315.846 67.632 317.574 66.16C319.334 64.688 320.55 63.728 321.222 63.28C321.926 62.832 322.79 62.608 323.814 62.608H326.214C327.334 62.608 328.086 62.752 328.47 63.04C328.854 63.296 329.046 63.712 329.046 64.288V68.848C329.046 69.52 329.334 69.856 329.91 69.856H335.046C335.878 69.856 336.47 70.032 336.822 70.384C337.206 70.736 337.398 71.552 337.398 72.832C337.398 74.08 337.206 74.88 336.822 75.232C336.438 75.584 335.862 75.76 335.094 75.76H330.102C329.654 75.76 329.366 75.872 329.238 76.096C329.11 76.32 329.046 76.64 329.046 77.056V82.816C329.11 83.904 329.51 84.816 330.246 85.552C331.014 86.288 332.086 86.656 333.462 86.656C334.134 86.656 334.966 86.48 335.958 86.128C336.95 85.744 337.622 85.552 337.974 85.552C338.838 85.552 339.27 86.832 339.27 89.392C339.27 91.248 338.774 92.368 337.782 92.752C336.758 93.104 335.318 93.392 333.462 93.616C331.606 93.84 329.75 93.952 327.894 93.952C326.038 93.952 324.262 93.808 322.566 93.52C320.902 93.2 319.382 92.656 318.006 91.888C315.318 90.32 313.974 87.328 313.974 82.912V76.528Z" fill="url(#paint0_linear_1282_18604)" fill-opacity="0.4"/>
<defs>
<linearGradient id="paint0_linear_1282_18604" x1="376" y1="4.26829" x2="388.66" y2="102.366" gradientUnits="userSpaceOnUse">
<stop stop-color="#6B73FF"/>
<stop offset="1" stop-color="#1B4AC3"/>
</linearGradient>
</defs>
</svg>
