<svg width="663" height="45" viewBox="0 0 663 45" fill="none" xmlns="http://www.w3.org/2000/svg">
<path d="M18.824 36.96C13.064 36.96 8.504 35.504 5.144 32.592C1.816 29.648 0.152 25.504 0.152 20.16C0.152 16.896 0.68 14.032 1.736 11.568C2.824 9.104 4.344 7.136 6.296 5.664C10.168 2.752 15.272 1.296 21.608 1.296C25.704 1.296 29.8 1.856 33.896 2.976C35.464 3.488 36.248 4.752 36.248 6.768C36.248 9.52 35.384 10.896 33.656 10.896C33.368 10.896 32.424 10.768 30.824 10.512C29.224 10.256 28.104 10.128 27.464 10.128C25.192 10.128 23.432 10.928 22.184 12.528C20.968 14.096 20.36 15.984 20.36 18.192C20.36 20.368 20.936 22.288 22.088 23.952C23.24 25.616 24.808 26.48 26.792 26.544C28.136 26.608 30.52 26.64 33.944 26.64C35.608 26.64 36.52 27.424 36.68 28.992C36.776 29.568 36.824 30.16 36.824 30.768C36.824 31.344 36.776 31.936 36.68 32.544C36.488 33.696 35.592 34.544 33.992 35.088C32.392 35.6 30.088 36.032 27.08 36.384C24.072 36.768 21.32 36.96 18.824 36.96ZM41.6848 33.744L41.5888 18.048C41.5888 13.248 41.6368 8.576 41.7328 4.032C41.7648 2.976 41.9568 2.192 42.3088 1.68C42.6928 1.168 43.4128 0.912 44.4688 0.912H53.6848C54.7408 0.912 55.4448 1.168 55.7968 1.68C56.1808 2.16 56.4048 3.056 56.4688 4.368C56.5648 5.648 56.6448 9.104 56.7088 14.736C59.2048 12.208 62.1968 10.944 65.6848 10.944C69.2048 10.944 71.9728 11.808 73.9888 13.536C76.0048 15.264 77.0288 17.648 77.0608 20.688C77.1248 23.728 77.1568 26.448 77.1568 28.848C77.1568 31.248 77.1408 32.864 77.1088 33.696C77.0768 34.528 76.8528 35.136 76.4368 35.52C76.0528 35.872 75.2848 36.048 74.1328 36.048L64.9167 36.144C63.8928 36.144 63.1728 35.968 62.7568 35.616C62.3728 35.232 62.1808 34.672 62.1808 33.936L62.2288 22.224C62.2288 21.264 61.9888 20.544 61.5088 20.064C61.0288 19.584 60.4208 19.344 59.6848 19.344C58.9808 19.344 58.3408 19.6 57.7648 20.112C57.1888 20.592 56.8848 21.28 56.8528 22.176L56.5648 33.744C56.5328 34.352 56.2448 34.864 55.7008 35.28C55.1568 35.696 54.4848 35.936 53.6848 36C52.9168 36.064 52.0528 36.096 51.0928 36.096L44.3728 36C43.7648 36 43.1568 35.792 42.5488 35.376C41.9728 34.928 41.6848 34.384 41.6848 33.744ZM89.0821 13.056C90.5541 12.32 92.0581 11.792 93.5941 11.472C95.1621 11.152 97.0821 10.992 99.3541 10.992C101.658 10.992 103.85 11.28 105.93 11.856C108.01 12.4 109.562 13.152 110.586 14.112C112.378 15.872 113.274 17.936 113.274 20.304C113.274 24.016 110.138 25.872 103.866 25.872C101.658 25.872 99.3701 25.664 97.0021 25.248C97.0981 27.36 97.4821 28.848 98.1541 29.712C98.8581 30.576 100.09 31.008 101.85 31.008C103.61 31.008 105.066 30.816 106.218 30.432C107.37 30.048 108.298 29.664 109.002 29.28C109.706 28.864 110.298 28.656 110.778 28.656C111.29 28.656 111.722 28.88 112.074 29.328C112.618 29.904 112.89 30.704 112.89 31.728C112.89 32.72 112.682 33.408 112.266 33.792C111.882 34.144 111.258 34.496 110.394 34.848C107.354 36.128 103.034 36.768 97.4341 36.768C92.7941 36.768 88.9701 35.664 85.9621 33.456C82.9861 31.216 81.4981 28.208 81.4981 24.432C81.4981 22.608 81.8341 20.944 82.5061 19.44C83.1781 17.904 84.0741 16.64 85.1941 15.648C86.3141 14.624 87.6101 13.76 89.0821 13.056ZM100.218 16.464C98.2661 16.464 97.2101 18.048 97.0501 21.216C98.5861 21.344 99.3861 21.408 99.4501 21.408C101.562 21.408 102.618 20.704 102.618 19.296C102.618 17.408 101.818 16.464 100.218 16.464ZM138.243 18.48C136.739 18.48 135.619 18.976 134.883 19.968C134.147 20.96 133.779 22.192 133.779 23.664C133.779 25.136 134.211 26.4 135.075 27.456C135.939 28.512 137.331 29.04 139.251 29.04C139.859 29.04 140.755 28.88 141.939 28.56C143.123 28.24 143.955 28.08 144.435 28.08C145.555 28.08 146.147 29.152 146.211 31.296C146.211 32.224 146.147 33.088 146.019 33.888C145.923 34.688 145.331 35.264 144.243 35.616C141.043 36.608 138.211 37.104 135.747 37.104C133.315 37.104 131.315 37.008 129.747 36.816C128.211 36.656 126.643 36.304 125.043 35.76C123.475 35.216 122.163 34.496 121.107 33.6C120.083 32.704 119.235 31.504 118.563 30C117.923 28.464 117.603 26.544 117.603 24.24C117.603 21.904 118.099 19.824 119.091 18C120.115 16.176 121.507 14.784 123.267 13.824C126.595 12.032 130.755 11.136 135.747 11.136C138.435 11.136 141.171 11.568 143.955 12.432C145.139 12.816 145.731 14.112 145.731 16.32C145.731 18.496 145.171 19.584 144.051 19.584C143.571 19.584 142.691 19.408 141.411 19.056C140.163 18.672 139.107 18.48 138.243 18.48ZM178.649 36.048L173.369 36C172.153 36 171.305 35.632 170.825 34.896L166.361 27.792C166.105 27.6 165.945 27.536 165.881 27.6C165.849 27.632 165.817 28.176 165.785 29.232C165.785 30.256 165.705 31.824 165.545 33.936C165.481 34.448 165.225 34.912 164.777 35.328C164.329 35.744 163.561 35.984 162.473 36.048C161.417 36.112 160.121 36.144 158.585 36.144C157.081 36.144 155.401 36.096 153.545 36C152.777 35.968 152.169 35.76 151.721 35.376C151.305 34.96 151.065 34.48 151.001 33.936C150.681 30.032 150.521 24.816 150.521 18.288C150.521 11.76 150.649 7.008 150.905 4.032C151.001 2.944 151.209 2.16 151.529 1.68C151.881 1.168 152.585 0.912 153.641 0.912H162.857C163.913 0.912 164.617 1.168 164.969 1.68C165.321 2.16 165.545 2.944 165.641 4.032C165.833 6.816 165.929 11.488 165.929 18.048C165.929 18.784 166.057 19.152 166.313 19.152C166.473 19.152 166.649 19.056 166.841 18.864L173.129 13.104C173.673 12.624 174.121 12.32 174.473 12.192C174.825 12.032 175.321 11.952 175.961 11.952H182.969C183.385 11.952 183.689 12.224 183.881 12.768C183.945 12.896 183.977 13.088 183.977 13.344C183.977 13.6 183.817 13.888 183.497 14.208L176.825 20.064C176.569 20.32 176.569 20.592 176.825 20.88C179.865 24.464 183.097 28.656 186.521 33.456C186.873 33.936 187.049 34.368 187.049 34.752C187.049 35.552 186.457 35.952 185.273 35.952L178.649 36.048ZM214.023 37.872C218.247 37.872 220.359 37.248 220.359 36C220.359 35.584 220.104 34.96 219.592 34.128C217.256 30.48 213.8 24.192 209.224 15.264C208.872 14.528 208.696 13.952 208.696 13.536C208.696 12.224 209.352 11.568 210.664 11.568H221.224C222.248 11.568 223.016 11.728 223.528 12.048C224.072 12.368 224.584 12.976 225.064 13.872L229.528 22.224C229.72 22.608 229.992 22.8 230.344 22.8C230.696 22.8 230.968 22.608 231.16 22.224L235.768 12.672C236.056 12.032 236.392 11.68 236.776 11.616C236.904 11.616 237.144 11.6 237.496 11.568H242.536C242.984 11.568 243.304 11.776 243.496 12.192C243.56 12.384 243.592 12.608 243.592 12.864C243.592 13.088 243.464 13.44 243.208 13.92C242.984 14.368 241.784 16.912 239.608 21.552C237.432 26.192 235.768 29.6 234.616 31.776C233.496 33.952 232.696 35.44 232.216 36.24C231.768 37.04 231.16 37.984 230.392 39.072C229.624 40.192 228.888 41.024 228.184 41.568C227.48 42.144 226.6 42.72 225.544 43.296C223.688 44.288 221.304 44.784 218.392 44.784C215.512 44.784 213.608 44.528 212.68 44.016C211.752 43.536 211.288 42.464 211.288 40.8C211.288 40 211.432 39.312 211.72 38.736C212.04 38.16 212.456 37.872 212.968 37.872H214.023ZM261.523 24C261.523 27.584 262.467 29.376 264.355 29.376C266.243 29.376 267.187 27.584 267.187 24C267.187 22.368 266.995 21.12 266.611 20.256C266.227 19.36 265.475 18.912 264.355 18.912C263.235 18.912 262.483 19.36 262.099 20.256C261.715 21.12 261.523 22.368 261.523 24ZM282.259 24C282.259 32.704 276.291 37.056 264.355 37.056C252.419 37.056 246.451 32.704 246.451 24C246.451 19.872 247.971 16.672 251.011 14.4C254.051 12.128 258.499 10.992 264.355 10.992C270.211 10.992 274.659 12.128 277.699 14.4C280.739 16.672 282.259 19.872 282.259 24ZM301.564 13.68L301.516 25.392C301.516 26.32 301.724 27.024 302.14 27.504C302.556 27.984 303.084 28.224 303.724 28.224C304.396 28.224 305.02 27.984 305.596 27.504C306.204 26.992 306.636 26.304 306.892 25.44V22.512C306.892 18.288 306.988 15.408 307.18 13.872C307.276 13.328 307.548 12.848 307.996 12.432C308.444 12.016 309.228 11.776 310.348 11.712C311.5 11.616 312.636 11.568 313.756 11.568C314.876 11.568 316.78 11.632 319.468 11.76C320.236 11.792 320.844 12.016 321.292 12.432C321.74 12.848 321.996 13.328 322.06 13.872C322.284 15.952 322.396 19.152 322.396 23.472C322.396 27.76 322.332 30.688 322.204 32.256C322.076 33.824 321.836 34.848 321.484 35.328C321.132 35.808 320.412 36.048 319.324 36.048H309.964C308.876 36.048 308.14 35.808 307.756 35.328C307.404 34.848 307.18 34.032 307.084 32.88V32.832C303.788 35.36 300.444 36.624 297.052 36.624C293.66 36.624 291.084 35.792 289.324 34.128C287.596 32.432 286.7 30.048 286.636 26.976C286.604 23.904 286.588 21.168 286.588 18.768C286.588 16.368 286.604 14.752 286.636 13.92C286.668 13.088 286.876 12.496 287.26 12.144C287.676 11.76 288.46 11.568 289.612 11.568L298.828 11.472C299.852 11.472 300.556 11.664 300.94 12.048C301.356 12.4 301.564 12.944 301.564 13.68ZM331.249 11.568H340.609C341.697 11.568 342.449 11.808 342.865 12.288C343.281 12.736 343.489 13.424 343.489 14.352V16.08C345.281 12.688 348.193 10.992 352.225 10.992C353.569 10.992 354.673 11.424 355.537 12.288C356.401 13.152 356.833 14.304 356.833 15.744C356.833 17.184 356.449 18.624 355.681 20.064C354.913 21.472 353.841 22.176 352.465 22.176C351.825 22.176 350.929 21.856 349.777 21.216C348.625 20.544 347.697 20.208 346.993 20.208C346.289 20.208 345.553 20.464 344.785 20.976C344.049 21.488 343.681 22.336 343.681 23.52C343.681 28.672 343.585 32.08 343.393 33.744C343.297 34.288 343.025 34.768 342.577 35.184C342.129 35.6 341.329 35.856 340.177 35.952C339.057 36.016 337.937 36.048 336.817 36.048C335.697 36.048 333.793 35.984 331.105 35.856C330.337 35.824 329.729 35.6 329.281 35.184C328.833 34.768 328.577 34.288 328.513 33.744C328.289 31.664 328.177 28.48 328.177 24.192C328.177 19.904 328.241 16.976 328.369 15.408C328.497 13.808 328.737 12.768 329.089 12.288C329.441 11.808 330.161 11.568 331.249 11.568ZM385.567 13.056C387.039 12.32 388.543 11.792 390.079 11.472C391.647 11.152 393.567 10.992 395.839 10.992C398.143 10.992 400.335 11.28 402.415 11.856C404.495 12.4 406.047 13.152 407.071 14.112C408.863 15.872 409.759 17.936 409.759 20.304C409.759 24.016 406.623 25.872 400.351 25.872C398.143 25.872 395.855 25.664 393.487 25.248C393.583 27.36 393.967 28.848 394.639 29.712C395.343 30.576 396.575 31.008 398.335 31.008C400.095 31.008 401.551 30.816 402.703 30.432C403.855 30.048 404.783 29.664 405.487 29.28C406.191 28.864 406.783 28.656 407.263 28.656C407.775 28.656 408.207 28.88 408.559 29.328C409.103 29.904 409.375 30.704 409.375 31.728C409.375 32.72 409.167 33.408 408.751 33.792C408.367 34.144 407.743 34.496 406.879 34.848C403.839 36.128 399.519 36.768 393.919 36.768C389.279 36.768 385.455 35.664 382.447 33.456C379.471 31.216 377.983 28.208 377.983 24.432C377.983 22.608 378.319 20.944 378.991 19.44C379.663 17.904 380.559 16.64 381.679 15.648C382.799 14.624 384.095 13.76 385.567 13.056ZM396.703 16.464C394.751 16.464 393.695 18.048 393.535 21.216C395.071 21.344 395.871 21.408 395.935 21.408C398.047 21.408 399.103 20.704 399.103 19.296C399.103 17.408 398.303 16.464 396.703 16.464ZM428.152 11.568L428.872 11.616C428.968 11.616 429.064 11.648 429.16 11.712C429.288 11.744 429.384 11.776 429.448 11.808C429.512 11.808 429.592 11.856 429.688 11.952C429.784 12.048 429.848 12.112 429.88 12.144C429.944 12.144 430.024 12.208 430.12 12.336C430.248 12.464 430.328 12.544 430.36 12.576C430.648 12.864 430.824 13.072 430.888 13.2C432.936 15.536 434.008 16.752 434.104 16.848C437.336 13.488 438.984 11.808 439.048 11.808C439.208 11.712 439.304 11.664 439.336 11.664L439.768 11.616H448.072C448.456 11.616 448.712 11.76 448.84 12.048C449 12.336 448.936 12.624 448.648 12.912L438.712 21.84C442.552 26 445.832 29.616 448.552 32.688C449.128 33.36 449.416 33.984 449.416 34.56C449.416 35.456 448.904 35.92 447.88 35.952C446.888 35.984 445.432 36 443.512 36L434.728 35.952C433.64 35.952 432.712 35.568 431.944 34.8L427.768 30.336C424.28 33.984 422.504 35.808 422.44 35.808C422.28 35.904 422.184 35.952 422.152 35.952L421.72 36H413.464C413.08 36 412.84 35.904 412.744 35.712C412.648 35.52 412.6 35.36 412.6 35.232C412.6 35.072 412.696 34.896 412.888 34.704L423.256 25.44L413.608 15.024C413.096 14.416 412.84 13.92 412.84 13.536C412.84 13.152 412.904 12.848 413.032 12.624C413.384 11.92 414.008 11.568 414.904 11.568H428.152ZM471.431 28.704C473.319 28.704 474.263 27.152 474.263 24.048C474.263 20.912 473.319 19.344 471.431 19.344C470.695 19.344 470.023 19.6 469.415 20.112C468.839 20.592 468.551 21.28 468.551 22.176V25.872C468.551 26.768 468.839 27.472 469.415 27.984C470.023 28.464 470.695 28.704 471.431 28.704ZM456.071 11.568L464.903 11.616C465.671 11.616 466.343 11.856 466.919 12.336C467.495 12.784 467.799 13.44 467.831 14.304C469.079 13.184 470.583 12.336 472.343 11.76C474.135 11.184 475.895 10.896 477.623 10.896C480.631 10.896 483.095 11.968 485.015 14.112C486.935 16.224 487.895 19.44 487.895 23.76C487.895 26.224 487.559 28.336 486.887 30.096C486.215 31.824 485.303 33.152 484.151 34.08C481.943 35.776 479.303 36.624 476.231 36.624C473.191 36.624 470.807 35.632 469.079 33.648C468.855 33.424 468.679 33.36 468.551 33.456C468.455 33.552 468.407 33.696 468.407 33.888C468.407 36.16 468.311 38.64 468.119 41.328C468.055 42.384 467.847 43.136 467.495 43.584C467.143 44.064 466.423 44.304 465.335 44.304H456.119C455.063 44.304 454.343 44.048 453.959 43.536C453.607 43.024 453.415 42.24 453.383 41.184C453.319 38.144 453.287 34.256 453.287 29.52L453.383 13.824C453.383 13.184 453.671 12.656 454.247 12.24C454.855 11.792 455.463 11.568 456.071 11.568ZM498.817 13.056C500.289 12.32 501.793 11.792 503.329 11.472C504.897 11.152 506.817 10.992 509.089 10.992C511.393 10.992 513.585 11.28 515.665 11.856C517.745 12.4 519.297 13.152 520.321 14.112C522.113 15.872 523.009 17.936 523.009 20.304C523.009 24.016 519.873 25.872 513.601 25.872C511.393 25.872 509.105 25.664 506.737 25.248C506.833 27.36 507.217 28.848 507.889 29.712C508.593 30.576 509.825 31.008 511.585 31.008C513.345 31.008 514.801 30.816 515.953 30.432C517.105 30.048 518.033 29.664 518.737 29.28C519.441 28.864 520.033 28.656 520.513 28.656C521.025 28.656 521.457 28.88 521.809 29.328C522.353 29.904 522.625 30.704 522.625 31.728C522.625 32.72 522.417 33.408 522.001 33.792C521.617 34.144 520.993 34.496 520.129 34.848C517.089 36.128 512.769 36.768 507.169 36.768C502.529 36.768 498.705 35.664 495.697 33.456C492.721 31.216 491.233 28.208 491.233 24.432C491.233 22.608 491.569 20.944 492.241 19.44C492.913 17.904 493.809 16.64 494.929 15.648C496.049 14.624 497.345 13.76 498.817 13.056ZM509.953 16.464C508.001 16.464 506.945 18.048 506.785 21.216C508.321 21.344 509.121 21.408 509.185 21.408C511.297 21.408 512.353 20.704 512.353 19.296C512.353 17.408 511.553 16.464 509.953 16.464ZM548.65 33.936L548.698 22.224C548.698 21.264 548.458 20.544 547.978 20.064C547.498 19.584 546.89 19.344 546.154 19.344C545.45 19.344 544.794 19.6 544.186 20.112C543.61 20.592 543.322 21.28 543.322 22.176V25.104C543.322 29.328 543.226 32.208 543.034 33.744C542.938 34.288 542.666 34.768 542.218 35.184C541.77 35.6 540.97 35.856 539.818 35.952C538.698 36.016 537.578 36.048 536.458 36.048C535.338 36.048 533.434 35.984 530.746 35.856C529.978 35.824 529.37 35.6 528.922 35.184C528.474 34.768 528.218 34.288 528.154 33.744C527.93 31.664 527.818 28.48 527.818 24.192C527.818 19.904 527.882 16.976 528.01 15.408C528.138 13.808 528.378 12.768 528.73 12.288C529.082 11.808 529.802 11.568 530.89 11.568H540.25C541.338 11.568 542.058 11.808 542.41 12.288C542.794 12.768 543.034 13.584 543.13 14.736V14.784C545.594 12.224 548.586 10.944 552.106 10.944C555.658 10.944 558.442 11.808 560.458 13.536C562.474 15.264 563.498 17.648 563.53 20.688C563.594 23.728 563.626 26.448 563.626 28.848C563.626 31.248 563.61 32.864 563.578 33.696C563.546 34.528 563.322 35.136 562.906 35.52C562.522 35.872 561.754 36.048 560.602 36.048L551.385 36.144C550.362 36.144 549.642 35.968 549.226 35.616C548.842 35.232 548.65 34.672 548.65 33.936ZM579.487 29.712C579.487 28.816 579.103 28.112 578.335 27.6C577.599 27.088 576.687 26.704 575.599 26.448C574.543 26.16 573.471 25.84 572.383 25.488C571.295 25.104 570.367 24.464 569.599 23.568C568.863 22.64 568.495 21.424 568.495 19.92C568.495 13.968 573.119 10.992 582.367 10.992C586.335 10.992 589.519 11.664 591.919 13.008C592.687 13.424 593.231 13.824 593.551 14.208C593.871 14.56 594.031 15.2 594.031 16.128C594.031 17.056 593.839 17.76 593.455 18.24C593.103 18.688 592.735 18.912 592.351 18.912C591.999 18.912 591.199 18.56 589.951 17.856C588.735 17.12 587.471 16.736 586.159 16.704C585.103 16.704 584.575 17.232 584.575 18.288C584.575 18.992 584.943 19.552 585.679 19.968C586.415 20.384 587.311 20.752 588.367 21.072C589.423 21.36 590.479 21.728 591.535 22.176C592.591 22.592 593.487 23.312 594.223 24.336C594.959 25.328 595.327 26.592 595.327 28.128C595.327 34.08 590.703 37.056 581.455 37.056C576.943 37.056 573.263 36.4 570.415 35.088C569.551 34.736 568.927 34.384 568.543 34.032C568.159 33.648 567.967 32.976 567.967 32.016C567.967 31.024 568.159 30.32 568.543 29.904C568.959 29.488 569.295 29.28 569.551 29.28C569.839 29.28 570.767 29.632 572.335 30.336C573.903 31.04 575.487 31.392 577.087 31.392C578.687 31.392 579.487 30.832 579.487 29.712ZM606.77 13.056C608.242 12.32 609.746 11.792 611.282 11.472C612.85 11.152 614.77 10.992 617.042 10.992C619.346 10.992 621.538 11.28 623.618 11.856C625.698 12.4 627.25 13.152 628.274 14.112C630.066 15.872 630.962 17.936 630.962 20.304C630.962 24.016 627.826 25.872 621.554 25.872C619.346 25.872 617.058 25.664 614.69 25.248C614.786 27.36 615.17 28.848 615.842 29.712C616.546 30.576 617.778 31.008 619.538 31.008C621.298 31.008 622.754 30.816 623.906 30.432C625.058 30.048 625.986 29.664 626.69 29.28C627.394 28.864 627.986 28.656 628.466 28.656C628.978 28.656 629.41 28.88 629.762 29.328C630.306 29.904 630.578 30.704 630.578 31.728C630.578 32.72 630.37 33.408 629.954 33.792C629.57 34.144 628.946 34.496 628.082 34.848C625.042 36.128 620.722 36.768 615.122 36.768C610.482 36.768 606.658 35.664 603.65 33.456C600.674 31.216 599.186 28.208 599.186 24.432C599.186 22.608 599.522 20.944 600.194 19.44C600.866 17.904 601.762 16.64 602.882 15.648C604.002 14.624 605.298 13.76 606.77 13.056ZM617.906 16.464C615.954 16.464 614.898 18.048 614.738 21.216C616.274 21.344 617.074 21.408 617.138 21.408C619.25 21.408 620.306 20.704 620.306 19.296C620.306 17.408 619.506 16.464 617.906 16.464ZM646.331 29.712C646.331 28.816 645.947 28.112 645.179 27.6C644.443 27.088 643.531 26.704 642.443 26.448C641.387 26.16 640.315 25.84 639.227 25.488C638.139 25.104 637.211 24.464 636.443 23.568C635.707 22.64 635.339 21.424 635.339 19.92C635.339 13.968 639.963 10.992 649.211 10.992C653.179 10.992 656.363 11.664 658.763 13.008C659.531 13.424 660.075 13.824 660.395 14.208C660.715 14.56 660.875 15.2 660.875 16.128C660.875 17.056 660.683 17.76 660.299 18.24C659.947 18.688 659.579 18.912 659.195 18.912C658.843 18.912 658.043 18.56 656.795 17.856C655.579 17.12 654.315 16.736 653.003 16.704C651.947 16.704 651.419 17.232 651.419 18.288C651.419 18.992 651.787 19.552 652.523 19.968C653.259 20.384 654.155 20.752 655.211 21.072C656.267 21.36 657.323 21.728 658.379 22.176C659.435 22.592 660.331 23.312 661.067 24.336C661.803 25.328 662.171 26.592 662.171 28.128C662.171 34.08 657.547 37.056 648.299 37.056C643.787 37.056 640.107 36.4 637.259 35.088C636.395 34.736 635.771 34.384 635.387 34.032C635.003 33.648 634.811 32.976 634.811 32.016C634.811 31.024 635.003 30.32 635.387 29.904C635.803 29.488 636.139 29.28 636.395 29.28C636.683 29.28 637.611 29.632 639.179 30.336C640.747 31.04 642.331 31.392 643.931 31.392C645.531 31.392 646.331 30.832 646.331 29.712Z" fill="url(#paint0_linear_1282_18607)" fill-opacity="0.4"/>
<defs>
<linearGradient id="paint0_linear_1282_18607" x1="332" y1="-3.86586" x2="335.624" y2="45.7353" gradientUnits="userSpaceOnUse">
<stop stop-color="#6B73FF"/>
<stop offset="1" stop-color="#1B4AC3"/>
</linearGradient>
</defs>
</svg>
