<svg width="509" height="286" viewBox="0 0 509 286" fill="none" xmlns="http://www.w3.org/2000/svg">
<path opacity="0.08" d="M177.1 0.399999H194.5L255.1 142H232.7L218.5 107H151.1L137.1 142H114.7L177.1 0.399999ZM211.5 90.2L185.1 25.2H184.7L157.9 90.2H211.5ZM363.92 141.2C363.92 148.4 362.654 154.933 360.12 160.8C357.72 166.8 354.254 171.933 349.72 176.2C345.187 180.6 339.72 184 333.32 186.4C326.92 188.8 319.854 190 312.12 190C303.054 190 294.72 188.733 287.12 186.2C279.654 183.667 272.52 179.267 265.72 173L277.92 157.8C282.587 162.867 287.654 166.667 293.12 169.2C298.587 171.867 304.787 173.2 311.72 173.2C318.387 173.2 323.92 172.2 328.32 170.2C332.72 168.333 336.187 165.867 338.72 162.8C341.387 159.733 343.254 156.2 344.32 152.2C345.387 148.333 345.92 144.4 345.92 140.4V126.4H345.32C341.854 132.133 337.12 136.4 331.12 139.2C325.254 141.867 319.054 143.2 312.52 143.2C305.587 143.2 299.12 142 293.12 139.6C287.254 137.067 282.187 133.667 277.92 129.4C273.654 125 270.32 119.867 267.92 114C265.52 108 264.32 101.533 264.32 94.6C264.32 87.6667 265.454 81.2 267.72 75.2C269.987 69.0667 273.187 63.7333 277.32 59.2C281.587 54.6667 286.654 51.1333 292.52 48.6C298.52 46.0667 305.187 44.8 312.52 44.8C318.92 44.8 325.12 46.2 331.12 49C337.254 51.8 342.054 55.7333 345.52 60.8H345.92V47.2H363.92V141.2ZM314.72 61.6C309.92 61.6 305.587 62.4667 301.72 64.2C297.854 65.8 294.587 68.0667 291.92 71C289.254 73.8 287.187 77.2667 285.72 81.4C284.254 85.4 283.52 89.8 283.52 94.6C283.52 104.2 286.32 111.933 291.92 117.8C297.52 123.533 305.12 126.4 314.72 126.4C324.32 126.4 331.92 123.533 337.52 117.8C343.12 111.933 345.92 104.2 345.92 94.6C345.92 89.8 345.187 85.4 343.72 81.4C342.254 77.2667 340.187 73.8 337.52 71C334.854 68.0667 331.587 65.8 327.72 64.2C323.854 62.4667 319.52 61.6 314.72 61.6Z" fill="#121F39"/>
<path d="M186.54 112.36H193.5L217.74 169H208.78L203.1 155H176.14L170.54 169H161.58L186.54 112.36ZM200.3 148.28L189.74 122.28H189.58L178.86 148.28H200.3ZM217.302 131.08H225.622L236.982 160.12L247.862 131.08H255.542L240.662 169H232.742L217.302 131.08ZM267.302 152.68C267.302 154.333 267.649 155.853 268.342 157.24C269.089 158.573 270.049 159.72 271.222 160.68C272.395 161.64 273.755 162.387 275.302 162.92C276.849 163.453 278.449 163.72 280.102 163.72C282.342 163.72 284.289 163.213 285.942 162.2C287.595 161.133 289.115 159.747 290.502 158.04L295.942 162.2C291.942 167.373 286.342 169.96 279.142 169.96C276.155 169.96 273.435 169.453 270.982 168.44C268.582 167.427 266.529 166.04 264.822 164.28C263.169 162.467 261.889 160.36 260.982 157.96C260.075 155.507 259.622 152.867 259.622 150.04C259.622 147.213 260.102 144.6 261.062 142.2C262.075 139.747 263.435 137.64 265.142 135.88C266.902 134.067 268.982 132.653 271.382 131.64C273.782 130.627 276.395 130.12 279.222 130.12C282.582 130.12 285.409 130.707 287.702 131.88C290.049 133.053 291.969 134.6 293.462 136.52C294.955 138.387 296.022 140.52 296.662 142.92C297.355 145.267 297.702 147.667 297.702 150.12V152.68H267.302ZM290.022 146.92C289.969 145.32 289.702 143.853 289.222 142.52C288.795 141.187 288.129 140.04 287.222 139.08C286.315 138.067 285.169 137.293 283.782 136.76C282.449 136.173 280.875 135.88 279.062 135.88C277.302 135.88 275.675 136.227 274.182 136.92C272.742 137.56 271.515 138.413 270.502 139.48C269.489 140.547 268.689 141.747 268.102 143.08C267.569 144.36 267.302 145.64 267.302 146.92H290.022ZM306.315 131.08H313.515V136.92H313.675C314.582 134.893 316.155 133.267 318.395 132.04C320.635 130.76 323.222 130.12 326.155 130.12C327.968 130.12 329.702 130.413 331.355 131C333.062 131.533 334.528 132.387 335.755 133.56C337.035 134.733 338.048 136.253 338.795 138.12C339.542 139.933 339.915 142.093 339.915 144.6V169H332.715V146.6C332.715 144.84 332.475 143.347 331.995 142.12C331.515 140.84 330.875 139.827 330.075 139.08C329.275 138.28 328.342 137.72 327.275 137.4C326.262 137.027 325.195 136.84 324.075 136.84C322.582 136.84 321.195 137.08 319.915 137.56C318.635 138.04 317.515 138.813 316.555 139.88C315.595 140.893 314.848 142.2 314.315 143.8C313.782 145.4 313.515 147.293 313.515 149.48V169H306.315V131.08ZM351.328 131.08H358.528V169H351.328V131.08ZM349.648 117.48C349.648 116.04 350.155 114.813 351.168 113.8C352.235 112.733 353.488 112.2 354.928 112.2C356.368 112.2 357.595 112.733 358.608 113.8C359.675 114.813 360.208 116.04 360.208 117.48C360.208 118.92 359.675 120.173 358.608 121.24C357.595 122.253 356.368 122.76 354.928 122.76C353.488 122.76 352.235 122.253 351.168 121.24C350.155 120.173 349.648 118.92 349.648 117.48ZM369.987 131.08H377.187V136.92H377.347C377.827 135.907 378.467 135 379.267 134.2C380.067 133.347 380.947 132.627 381.907 132.04C382.92 131.453 384.014 131 385.187 130.68C386.36 130.307 387.534 130.12 388.707 130.12C389.88 130.12 390.947 130.28 391.907 130.6L391.587 138.36C391 138.2 390.414 138.067 389.827 137.96C389.24 137.853 388.654 137.8 388.067 137.8C384.547 137.8 381.854 138.787 379.987 140.76C378.12 142.733 377.187 145.8 377.187 149.96V169H369.987V131.08Z" fill="#121F39"/>
<path d="M30.676 216.944C31.444 216.155 32.3507 215.579 33.396 215.216C34.4627 214.832 35.54 214.64 36.628 214.64C38.8467 214.64 40.4467 215.163 41.428 216.208C42.4093 217.253 42.9 218.843 42.9 220.976V227.408C42.9 227.835 42.9213 228.283 42.964 228.752C43.0067 229.2 43.06 229.616 43.124 230H40.724C40.6387 229.659 40.5853 229.285 40.564 228.88C40.564 228.453 40.564 228.08 40.564 227.76H40.5C40.0093 228.528 39.348 229.157 38.516 229.648C37.7053 230.139 36.724 230.384 35.572 230.384C34.804 230.384 34.0787 230.288 33.396 230.096C32.7347 229.904 32.148 229.627 31.636 229.264C31.1453 228.88 30.7507 228.411 30.452 227.856C30.1533 227.301 30.004 226.661 30.004 225.936C30.004 224.699 30.324 223.728 30.964 223.024C31.604 222.32 32.3933 221.797 33.332 221.456C34.292 221.115 35.316 220.901 36.404 220.816C37.5133 220.731 38.5267 220.688 39.444 220.688H40.404V220.24C40.404 219.152 40.0733 218.331 39.412 217.776C38.772 217.221 37.8653 216.944 36.692 216.944C35.8813 216.944 35.0813 217.083 34.292 217.36C33.524 217.616 32.8413 218.021 32.244 218.576L30.676 216.944ZM37.908 222.8C36.308 222.8 35.0387 223.024 34.1 223.472C33.1613 223.92 32.692 224.656 32.692 225.68C32.692 226.619 33.0013 227.291 33.62 227.696C34.26 228.08 35.0493 228.272 35.988 228.272C36.7133 228.272 37.3427 228.155 37.876 227.92C38.4307 227.664 38.8893 227.333 39.252 226.928C39.6147 226.523 39.892 226.053 40.084 225.52C40.276 224.965 40.3827 224.379 40.404 223.76V222.8H37.908ZM47.3338 205.808H49.8298V217.2H49.8938C50.5764 216.389 51.3658 215.76 52.2618 215.312C53.1791 214.864 54.1818 214.64 55.2698 214.64C56.4431 214.64 57.5098 214.843 58.4698 215.248C59.4511 215.632 60.2831 216.176 60.9658 216.88C61.6484 217.584 62.1817 218.416 62.5658 219.376C62.9498 220.336 63.1418 221.381 63.1418 222.512C63.1418 223.643 62.9498 224.688 62.5658 225.648C62.1817 226.608 61.6484 227.44 60.9658 228.144C60.3044 228.848 59.5151 229.403 58.5978 229.808C57.6804 230.192 56.6991 230.384 55.6538 230.384C54.3098 230.384 53.1258 230.096 52.1018 229.52C51.0991 228.923 50.3631 228.197 49.8938 227.344H49.8298V230H47.3338V205.808ZM49.8298 222.512C49.8298 223.301 49.9471 224.037 50.1818 224.72C50.4378 225.381 50.8004 225.968 51.2698 226.48C51.7391 226.971 52.2938 227.365 52.9338 227.664C53.5951 227.941 54.3311 228.08 55.1418 228.08C55.9524 228.08 56.6778 227.941 57.3178 227.664C57.9791 227.365 58.5444 226.971 59.0138 226.48C59.4831 225.968 59.8351 225.381 60.0698 224.72C60.3258 224.037 60.4538 223.301 60.4538 222.512C60.4538 221.723 60.3258 220.997 60.0698 220.336C59.8351 219.653 59.4831 219.067 59.0138 218.576C58.5444 218.064 57.9791 217.669 57.3178 217.392C56.6778 217.093 55.9524 216.944 55.1418 216.944C54.3311 216.944 53.5951 217.093 52.9338 217.392C52.2938 217.669 51.7391 218.064 51.2698 218.576C50.8004 219.067 50.4378 219.653 50.1818 220.336C49.9471 220.997 49.8298 221.723 49.8298 222.512ZM77.6803 218.768C77.1469 218.128 76.5709 217.669 75.9523 217.392C75.3336 217.093 74.6509 216.944 73.9043 216.944C73.0723 216.944 72.3363 217.093 71.6963 217.392C71.0563 217.669 70.5229 218.064 70.0963 218.576C69.6909 219.088 69.3816 219.685 69.1683 220.368C68.9549 221.029 68.8483 221.744 68.8483 222.512C68.8483 223.28 68.9656 224.005 69.2003 224.688C69.4563 225.349 69.7976 225.936 70.2243 226.448C70.6723 226.96 71.2056 227.365 71.8243 227.664C72.4429 227.941 73.1363 228.08 73.9043 228.08C75.5469 228.08 76.8163 227.461 77.7123 226.224L79.5683 227.984C78.8429 228.816 77.9896 229.424 77.0083 229.808C76.0269 230.192 74.9923 230.384 73.9043 230.384C72.7523 230.384 71.6963 230.192 70.7363 229.808C69.7763 229.424 68.9549 228.88 68.2723 228.176C67.6109 227.472 67.0883 226.64 66.7043 225.68C66.3416 224.72 66.1603 223.664 66.1603 222.512C66.1603 221.381 66.3416 220.336 66.7043 219.376C67.0883 218.416 67.6216 217.584 68.3043 216.88C68.9869 216.176 69.7976 215.632 70.7363 215.248C71.6963 214.843 72.7523 214.64 73.9043 214.64C75.0136 214.64 76.0589 214.832 77.0403 215.216C78.0429 215.6 78.9176 216.197 79.6643 217.008L77.6803 218.768ZM94.9098 227.344H94.8458C94.3764 228.197 93.6298 228.923 92.6058 229.52C91.6031 230.096 90.4298 230.384 89.0858 230.384C88.0404 230.384 87.0591 230.192 86.1418 229.808C85.2244 229.403 84.4244 228.848 83.7418 228.144C83.0804 227.44 82.5578 226.608 82.1738 225.648C81.7898 224.688 81.5978 223.643 81.5978 222.512C81.5978 221.381 81.7898 220.336 82.1738 219.376C82.5578 218.416 83.0911 217.584 83.7738 216.88C84.4564 216.176 85.2778 215.632 86.2378 215.248C87.2191 214.843 88.2964 214.64 89.4698 214.64C90.5578 214.64 91.5498 214.864 92.4458 215.312C93.3631 215.76 94.1631 216.389 94.8458 217.2H94.9098V205.808H97.4058V230H94.9098V227.344ZM94.9098 222.512C94.9098 221.723 94.7818 220.997 94.5258 220.336C94.2911 219.653 93.9391 219.067 93.4698 218.576C93.0004 218.064 92.4351 217.669 91.7738 217.392C91.1338 217.093 90.4084 216.944 89.5978 216.944C88.7871 216.944 88.0511 217.093 87.3898 217.392C86.7498 217.669 86.1951 218.064 85.7258 218.576C85.2564 219.067 84.8938 219.653 84.6378 220.336C84.4031 220.997 84.2858 221.723 84.2858 222.512C84.2858 223.301 84.4031 224.037 84.6378 224.72C84.8938 225.381 85.2564 225.968 85.7258 226.48C86.1951 226.971 86.7498 227.365 87.3898 227.664C88.0511 227.941 88.7871 228.08 89.5978 228.08C90.4084 228.08 91.1338 227.941 91.7738 227.664C92.4351 227.365 93.0004 226.971 93.4698 226.48C93.9391 225.968 94.2911 225.381 94.5258 224.72C94.7818 224.037 94.9098 223.301 94.9098 222.512ZM115.4 227.28C114.504 228.432 113.523 229.243 112.456 229.712C111.39 230.16 110.152 230.384 108.744 230.384C107.571 230.384 106.515 230.181 105.576 229.776C104.638 229.349 103.838 228.784 103.176 228.08C102.536 227.376 102.035 226.544 101.672 225.584C101.331 224.624 101.16 223.6 101.16 222.512C101.16 221.36 101.352 220.304 101.736 219.344C102.12 218.363 102.654 217.531 103.336 216.848C104.019 216.144 104.83 215.6 105.768 215.216C106.707 214.832 107.731 214.64 108.84 214.64C109.886 214.64 110.846 214.821 111.72 215.184C112.595 215.525 113.342 216.037 113.96 216.72C114.6 217.381 115.091 218.203 115.432 219.184C115.774 220.144 115.944 221.243 115.944 222.48V223.28H103.848C103.891 223.92 104.04 224.539 104.296 225.136C104.574 225.712 104.926 226.224 105.352 226.672C105.779 227.099 106.28 227.44 106.856 227.696C107.432 227.952 108.062 228.08 108.744 228.08C109.832 228.08 110.75 227.888 111.496 227.504C112.243 227.12 112.915 226.555 113.512 225.808L115.4 227.28ZM113.256 221.168C113.214 219.888 112.798 218.864 112.008 218.096C111.219 217.328 110.131 216.944 108.744 216.944C107.358 216.944 106.238 217.328 105.384 218.096C104.531 218.864 104.019 219.888 103.848 221.168H113.256ZM121.086 217.136H117.822V215.024H121.086V211.664C121.086 210.747 121.171 209.915 121.342 209.168C121.512 208.4 121.8 207.739 122.206 207.184C122.632 206.629 123.187 206.203 123.87 205.904C124.552 205.584 125.395 205.424 126.398 205.424C126.718 205.424 127.059 205.456 127.422 205.52C127.784 205.584 128.083 205.68 128.318 205.808L127.966 208.048C127.368 207.835 126.803 207.728 126.27 207.728C125.63 207.728 125.128 207.845 124.766 208.08C124.403 208.293 124.126 208.603 123.934 209.008C123.763 209.392 123.656 209.861 123.614 210.416C123.592 210.971 123.582 211.568 123.582 212.208V215.024H127.23V217.136H123.582V230H121.086V217.136ZM144.843 229.328C144.843 232.059 144.139 234.128 142.731 235.536C141.345 236.965 139.329 237.68 136.683 237.68C135.211 237.68 133.878 237.467 132.683 237.04C131.51 236.613 130.39 235.877 129.323 234.832L131.115 232.784C131.905 233.637 132.737 234.277 133.611 234.704C134.507 235.152 135.531 235.376 136.683 235.376C137.793 235.376 138.71 235.205 139.435 234.864C140.182 234.544 140.769 234.096 141.195 233.52C141.622 232.965 141.921 232.325 142.091 231.6C142.262 230.875 142.347 230.117 142.347 229.328V227.408H142.283C141.686 228.368 140.907 229.072 139.947 229.52C138.987 229.968 138.006 230.192 137.003 230.192C135.83 230.192 134.753 230 133.771 229.616C132.79 229.232 131.947 228.699 131.243 228.016C130.539 227.333 129.995 226.523 129.611 225.584C129.227 224.645 129.035 223.621 129.035 222.512C129.035 221.296 129.227 220.197 129.611 219.216C129.995 218.235 130.529 217.413 131.211 216.752C131.915 216.069 132.758 215.547 133.739 215.184C134.721 214.821 135.809 214.64 137.003 214.64C137.515 214.64 138.027 214.704 138.539 214.832C139.051 214.939 139.542 215.12 140.011 215.376C140.502 215.611 140.939 215.92 141.323 216.304C141.707 216.667 142.027 217.093 142.283 217.584H142.347V215.024H144.843V229.328ZM131.723 222.512C131.723 223.28 131.862 223.995 132.139 224.656C132.417 225.296 132.79 225.861 133.259 226.352C133.75 226.821 134.315 227.195 134.955 227.472C135.595 227.749 136.278 227.888 137.003 227.888C137.857 227.888 138.614 227.739 139.275 227.44C139.937 227.141 140.491 226.747 140.939 226.256C141.409 225.744 141.761 225.168 141.995 224.528C142.23 223.867 142.347 223.173 142.347 222.448C142.347 221.637 142.219 220.901 141.963 220.24C141.707 219.557 141.345 218.971 140.875 218.48C140.406 217.989 139.841 217.616 139.179 217.36C138.518 217.083 137.793 216.944 137.003 216.944C136.214 216.944 135.489 217.093 134.827 217.392C134.187 217.669 133.633 218.064 133.163 218.576C132.715 219.067 132.363 219.653 132.107 220.336C131.851 220.997 131.723 221.723 131.723 222.512ZM149.462 205.808H151.958V217.104H152.022C152.192 216.805 152.427 216.517 152.726 216.24C153.024 215.941 153.376 215.675 153.782 215.44C154.208 215.205 154.678 215.013 155.19 214.864C155.702 214.715 156.246 214.64 156.822 214.64C157.803 214.64 158.646 214.789 159.35 215.088C160.075 215.387 160.672 215.803 161.142 216.336C161.611 216.869 161.952 217.52 162.166 218.288C162.4 219.035 162.518 219.856 162.518 220.752V230H160.022V221.008C160.022 219.749 159.744 218.757 159.19 218.032C158.635 217.307 157.771 216.944 156.598 216.944C155.787 216.944 155.083 217.083 154.486 217.36C153.91 217.637 153.43 218.032 153.046 218.544C152.683 219.056 152.406 219.664 152.214 220.368C152.043 221.072 151.958 221.851 151.958 222.704V230H149.462V205.808ZM167.467 215.024H169.963V230H167.467V215.024ZM166.891 209.168C166.891 208.677 167.062 208.251 167.403 207.888C167.766 207.525 168.203 207.344 168.715 207.344C169.227 207.344 169.654 207.525 169.995 207.888C170.358 208.251 170.539 208.677 170.539 209.168C170.539 209.701 170.368 210.139 170.027 210.48C169.686 210.821 169.248 210.992 168.715 210.992C168.182 210.992 167.744 210.821 167.403 210.48C167.062 210.139 166.891 209.701 166.891 209.168ZM177.651 233.36C177.651 233.744 177.587 234.181 177.459 234.672C177.352 235.184 177.139 235.653 176.819 236.08C176.499 236.528 176.04 236.901 175.443 237.2C174.867 237.52 174.12 237.68 173.203 237.68C172.904 237.68 172.616 237.659 172.338 237.616C172.04 237.573 171.752 237.488 171.474 237.36L171.762 235.184C172.168 235.312 172.573 235.376 172.979 235.376C173.448 235.376 173.821 235.291 174.099 235.12C174.397 234.949 174.621 234.715 174.771 234.416C174.92 234.139 175.016 233.808 175.059 233.424C175.123 233.04 175.155 232.635 175.155 232.208V215.024H177.651V233.36ZM174.579 209.168C174.579 208.677 174.749 208.251 175.091 207.888C175.453 207.525 175.891 207.344 176.403 207.344C176.915 207.344 177.341 207.525 177.683 207.888C178.045 208.251 178.227 208.677 178.227 209.168C178.227 209.701 178.056 210.139 177.715 210.48C177.373 210.821 176.936 210.992 176.403 210.992C175.869 210.992 175.432 210.821 175.091 210.48C174.749 210.139 174.579 209.701 174.579 209.168ZM182.618 205.808H185.114V221.616L191.93 215.024H195.482L188.25 221.84L196.218 230H192.538L185.114 222.128V230H182.618V205.808ZM198.842 205.808H201.338V230H198.842V205.808ZM206.306 218.576C206.306 217.893 206.284 217.253 206.242 216.656C206.199 216.059 206.178 215.515 206.178 215.024H208.546C208.546 215.429 208.556 215.835 208.578 216.24C208.599 216.645 208.61 217.061 208.61 217.488H208.674C208.844 217.125 209.079 216.773 209.378 216.432C209.698 216.091 210.071 215.792 210.498 215.536C210.924 215.259 211.404 215.045 211.938 214.896C212.471 214.725 213.047 214.64 213.666 214.64C214.476 214.64 215.148 214.747 215.682 214.96C216.236 215.152 216.695 215.397 217.058 215.696C217.42 215.973 217.698 216.283 217.89 216.624C218.103 216.944 218.274 217.232 218.402 217.488C218.956 216.592 219.596 215.899 220.322 215.408C221.047 214.896 221.986 214.64 223.138 214.64C224.204 214.64 225.1 214.789 225.826 215.088C226.551 215.365 227.138 215.781 227.586 216.336C228.034 216.869 228.354 217.531 228.546 218.32C228.738 219.088 228.834 219.952 228.834 220.912V230H226.338V221.04C226.338 220.528 226.284 220.027 226.178 219.536C226.071 219.045 225.879 218.608 225.602 218.224C225.324 217.84 224.951 217.531 224.482 217.296C224.012 217.061 223.415 216.944 222.69 216.944C222.156 216.944 221.655 217.051 221.186 217.264C220.716 217.477 220.3 217.776 219.938 218.16C219.596 218.544 219.319 219.013 219.106 219.568C218.914 220.101 218.818 220.699 218.818 221.36V230H216.322V221.52C216.322 219.856 216.098 218.683 215.65 218C215.202 217.296 214.466 216.944 213.442 216.944C212.631 216.944 211.927 217.083 211.33 217.36C210.754 217.637 210.274 218.032 209.89 218.544C209.527 219.056 209.25 219.664 209.058 220.368C208.887 221.072 208.802 221.851 208.802 222.704V230H206.306V218.576ZM233.556 218.576C233.556 217.893 233.534 217.253 233.492 216.656C233.449 216.059 233.428 215.515 233.428 215.024H235.796C235.796 215.429 235.806 215.835 235.828 216.24C235.849 216.645 235.86 217.061 235.86 217.488H235.924C236.094 217.125 236.329 216.773 236.628 216.432C236.948 216.091 237.321 215.792 237.748 215.536C238.174 215.259 238.654 215.045 239.188 214.896C239.721 214.725 240.297 214.64 240.916 214.64C241.897 214.64 242.74 214.789 243.444 215.088C244.169 215.387 244.766 215.803 245.236 216.336C245.705 216.869 246.046 217.52 246.26 218.288C246.494 219.035 246.612 219.856 246.612 220.752V230H244.116V221.008C244.116 219.749 243.838 218.757 243.284 218.032C242.729 217.307 241.865 216.944 240.692 216.944C239.881 216.944 239.177 217.083 238.58 217.36C238.004 217.637 237.524 218.032 237.14 218.544C236.777 219.056 236.5 219.664 236.308 220.368C236.137 221.072 236.052 221.851 236.052 222.704V230H233.556V218.576ZM251.337 218.576C251.337 217.893 251.315 217.253 251.273 216.656C251.23 216.059 251.209 215.515 251.209 215.024H253.577C253.577 215.429 253.587 215.835 253.609 216.24C253.63 216.645 253.641 217.061 253.641 217.488H253.705C253.875 217.125 254.11 216.773 254.409 216.432C254.729 216.091 255.102 215.792 255.529 215.536C255.955 215.259 256.435 215.045 256.969 214.896C257.502 214.725 258.078 214.64 258.697 214.64C259.678 214.64 260.521 214.789 261.225 215.088C261.95 215.387 262.547 215.803 263.017 216.336C263.486 216.869 263.827 217.52 264.041 218.288C264.275 219.035 264.393 219.856 264.393 220.752V230H261.897V221.008C261.897 219.749 261.619 218.757 261.065 218.032C260.51 217.307 259.646 216.944 258.473 216.944C257.662 216.944 256.958 217.083 256.361 217.36C255.785 217.637 255.305 218.032 254.921 218.544C254.558 219.056 254.281 219.664 254.089 220.368C253.918 221.072 253.833 221.851 253.833 222.704V230H251.337V218.576ZM252.521 211.056C252.585 210.651 252.691 210.245 252.841 209.84C253.011 209.435 253.225 209.083 253.481 208.784C253.758 208.464 254.078 208.208 254.441 208.016C254.825 207.824 255.251 207.728 255.721 207.728C256.211 207.728 256.67 207.813 257.097 207.984C257.545 208.133 257.982 208.293 258.409 208.464C258.729 208.592 259.006 208.72 259.241 208.848C259.497 208.955 259.795 209.008 260.137 209.008C260.563 209.008 260.894 208.869 261.129 208.592C261.385 208.315 261.566 207.984 261.673 207.6H263.209C263.145 208.005 263.038 208.411 262.889 208.816C262.761 209.2 262.569 209.552 262.313 209.872C262.078 210.192 261.79 210.448 261.449 210.64C261.107 210.832 260.702 210.928 260.233 210.928C259.785 210.928 259.337 210.864 258.889 210.736C258.462 210.587 258.046 210.427 257.641 210.256C257.321 210.128 256.979 210 256.617 209.872C256.254 209.723 255.891 209.648 255.529 209.648C255.123 209.648 254.803 209.797 254.569 210.096C254.334 210.373 254.163 210.693 254.057 211.056H252.521ZM268.254 222.512C268.254 221.339 268.457 220.272 268.862 219.312C269.267 218.352 269.822 217.531 270.526 216.848C271.23 216.144 272.073 215.6 273.054 215.216C274.035 214.832 275.102 214.64 276.254 214.64C277.406 214.64 278.473 214.832 279.454 215.216C280.435 215.6 281.278 216.144 281.982 216.848C282.686 217.531 283.241 218.352 283.646 219.312C284.051 220.272 284.254 221.339 284.254 222.512C284.254 223.685 284.051 224.752 283.646 225.712C283.241 226.672 282.686 227.504 281.982 228.208C281.278 228.891 280.435 229.424 279.454 229.808C278.473 230.192 277.406 230.384 276.254 230.384C275.102 230.384 274.035 230.192 273.054 229.808C272.073 229.424 271.23 228.891 270.526 228.208C269.822 227.504 269.267 226.672 268.862 225.712C268.457 224.752 268.254 223.685 268.254 222.512ZM270.942 222.512C270.942 223.301 271.059 224.037 271.294 224.72C271.55 225.381 271.913 225.968 272.382 226.48C272.851 226.971 273.406 227.365 274.046 227.664C274.707 227.941 275.443 228.08 276.254 228.08C277.065 228.08 277.79 227.941 278.43 227.664C279.091 227.365 279.657 226.971 280.126 226.48C280.595 225.968 280.947 225.381 281.182 224.72C281.438 224.037 281.566 223.301 281.566 222.512C281.566 221.723 281.438 220.997 281.182 220.336C280.947 219.653 280.595 219.067 280.126 218.576C279.657 218.064 279.091 217.669 278.43 217.392C277.79 217.093 277.065 216.944 276.254 216.944C275.443 216.944 274.707 217.093 274.046 217.392C273.406 217.669 272.851 218.064 272.382 218.576C271.913 219.067 271.55 219.653 271.294 220.336C271.059 220.997 270.942 221.723 270.942 222.512ZM287.99 215.024H290.486V217.2H290.55C291.233 216.389 292.022 215.76 292.918 215.312C293.835 214.864 294.838 214.64 295.926 214.64C297.099 214.64 298.166 214.843 299.126 215.248C300.107 215.632 300.939 216.176 301.622 216.88C302.305 217.584 302.838 218.416 303.222 219.376C303.606 220.336 303.798 221.381 303.798 222.512C303.798 223.643 303.606 224.688 303.222 225.648C302.838 226.608 302.305 227.44 301.622 228.144C300.961 228.848 300.171 229.403 299.254 229.808C298.337 230.192 297.355 230.384 296.31 230.384C294.966 230.384 293.782 230.096 292.758 229.52C291.755 228.923 291.019 228.197 290.55 227.344H290.486V237.296H287.99V215.024ZM290.486 222.512C290.486 223.301 290.603 224.037 290.838 224.72C291.094 225.381 291.457 225.968 291.926 226.48C292.395 226.971 292.95 227.365 293.59 227.664C294.251 227.941 294.987 228.08 295.798 228.08C296.609 228.08 297.334 227.941 297.974 227.664C298.635 227.365 299.201 226.971 299.67 226.48C300.139 225.968 300.491 225.381 300.726 224.72C300.982 224.037 301.11 223.301 301.11 222.512C301.11 221.723 300.982 220.997 300.726 220.336C300.491 219.653 300.139 219.067 299.67 218.576C299.201 218.064 298.635 217.669 297.974 217.392C297.334 217.093 296.609 216.944 295.798 216.944C294.987 216.944 294.251 217.093 293.59 217.392C292.95 217.669 292.395 218.064 291.926 218.576C291.457 219.067 291.094 219.653 290.838 220.336C290.603 220.997 290.486 221.723 290.486 222.512ZM322.625 237.296H320.129V227.824H320.065C319.382 228.635 318.582 229.264 317.665 229.712C316.769 230.16 315.777 230.384 314.689 230.384C313.515 230.384 312.438 230.192 311.457 229.808C310.497 229.403 309.675 228.848 308.993 228.144C308.31 227.44 307.777 226.608 307.393 225.648C307.009 224.688 306.817 223.643 306.817 222.512C306.817 221.403 307.009 220.368 307.393 219.408C307.777 218.448 308.299 217.616 308.961 216.912C309.643 216.208 310.443 215.653 311.361 215.248C312.278 214.843 313.259 214.64 314.305 214.64C315.649 214.64 316.822 214.939 317.825 215.536C318.849 216.112 319.595 216.827 320.065 217.68H320.129V215.024H322.625V237.296ZM320.129 222.512C320.129 221.723 320.001 220.997 319.745 220.336C319.51 219.653 319.158 219.067 318.689 218.576C318.219 218.064 317.654 217.669 316.993 217.392C316.353 217.093 315.627 216.944 314.817 216.944C314.006 216.944 313.27 217.093 312.609 217.392C311.969 217.669 311.414 218.064 310.945 218.576C310.475 219.067 310.113 219.653 309.857 220.336C309.622 220.997 309.505 221.723 309.505 222.512C309.505 223.301 309.622 224.037 309.857 224.72C310.113 225.381 310.475 225.968 310.945 226.48C311.414 226.971 311.969 227.365 312.609 227.664C313.27 227.941 314.006 228.08 314.817 228.08C315.627 228.08 316.353 227.941 316.993 227.664C317.654 227.365 318.219 226.971 318.689 226.48C319.158 225.968 319.51 225.381 319.745 224.72C320.001 224.037 320.129 223.301 320.129 222.512ZM327.243 218.576C327.243 217.893 327.222 217.253 327.179 216.656C327.136 216.059 327.115 215.515 327.115 215.024H329.483C329.483 215.429 329.494 215.835 329.515 216.24C329.536 216.645 329.547 217.061 329.547 217.488H329.611C329.782 217.125 330.016 216.773 330.315 216.432C330.635 216.091 331.008 215.792 331.435 215.536C331.862 215.259 332.342 215.045 332.875 214.896C333.408 214.725 333.984 214.64 334.603 214.64C334.774 214.64 334.944 214.651 335.115 214.672C335.286 214.693 335.456 214.736 335.627 214.8L335.467 217.328C335.04 217.2 334.592 217.136 334.123 217.136C332.587 217.136 331.467 217.637 330.763 218.64C330.08 219.621 329.739 220.976 329.739 222.704V230H327.243V218.576ZM338.813 226.064C339.304 226.683 339.837 227.173 340.413 227.536C341.01 227.899 341.757 228.08 342.653 228.08C343.037 228.08 343.421 228.037 343.805 227.952C344.21 227.867 344.573 227.728 344.893 227.536C345.213 227.344 345.469 227.109 345.661 226.832C345.853 226.533 345.949 226.181 345.949 225.776C345.949 225.371 345.853 225.04 345.661 224.784C345.49 224.528 345.256 224.315 344.957 224.144C344.658 223.952 344.317 223.803 343.933 223.696C343.549 223.589 343.154 223.493 342.749 223.408C342.045 223.259 341.373 223.088 340.733 222.896C340.093 222.704 339.528 222.459 339.037 222.16C338.568 221.84 338.184 221.435 337.885 220.944C337.608 220.453 337.469 219.824 337.469 219.056C337.469 218.331 337.629 217.691 337.949 217.136C338.269 216.581 338.696 216.123 339.229 215.76C339.762 215.397 340.36 215.12 341.021 214.928C341.682 214.736 342.365 214.64 343.069 214.64C344.136 214.64 345.117 214.853 346.013 215.28C346.93 215.707 347.645 216.4 348.157 217.36L346.077 218.736C345.757 218.203 345.33 217.776 344.797 217.456C344.285 217.115 343.656 216.944 342.909 216.944C342.568 216.944 342.216 216.987 341.853 217.072C341.512 217.157 341.202 217.285 340.925 217.456C340.648 217.627 340.413 217.851 340.221 218.128C340.05 218.384 339.965 218.683 339.965 219.024C339.965 219.344 340.061 219.621 340.253 219.856C340.466 220.069 340.744 220.261 341.085 220.432C341.448 220.603 341.853 220.752 342.301 220.88C342.77 221.008 343.25 221.115 343.741 221.2C344.402 221.328 345.032 221.499 345.629 221.712C346.226 221.904 346.749 222.171 347.197 222.512C347.645 222.853 347.997 223.28 348.253 223.792C348.509 224.304 348.637 224.933 348.637 225.68C348.637 226.533 348.466 227.259 348.125 227.856C347.784 228.453 347.325 228.944 346.749 229.328C346.194 229.691 345.554 229.957 344.829 230.128C344.125 230.299 343.4 230.384 342.653 230.384C341.373 230.384 340.264 230.192 339.325 229.808C338.408 229.403 337.576 228.667 336.829 227.6L338.813 226.064ZM360.31 217.136H355.894V224.624C355.894 225.115 355.905 225.573 355.926 226C355.947 226.405 356.033 226.768 356.182 227.088C356.331 227.387 356.555 227.632 356.854 227.824C357.153 227.995 357.579 228.08 358.134 228.08C358.497 228.08 358.87 228.037 359.254 227.952C359.638 227.867 360.001 227.739 360.342 227.568L360.438 229.84C360.011 230.032 359.531 230.171 358.998 230.256C358.486 230.341 357.995 230.384 357.526 230.384C356.63 230.384 355.915 230.267 355.382 230.032C354.849 229.797 354.433 229.467 354.134 229.04C353.835 228.613 353.633 228.091 353.526 227.472C353.441 226.832 353.398 226.128 353.398 225.36V217.136H350.134V215.024H353.398V210.768H355.894V215.024H360.31V217.136ZM376.424 226.448C376.424 227.131 376.445 227.771 376.488 228.368C376.531 228.965 376.552 229.509 376.552 230H374.184C374.184 229.595 374.173 229.189 374.152 228.784C374.131 228.379 374.12 227.963 374.12 227.536H374.056C373.885 227.899 373.64 228.251 373.32 228.592C373.021 228.933 372.659 229.243 372.232 229.52C371.805 229.776 371.325 229.979 370.792 230.128C370.259 230.299 369.683 230.384 369.064 230.384C368.083 230.384 367.229 230.235 366.504 229.936C365.8 229.637 365.213 229.221 364.744 228.688C364.275 228.155 363.923 227.515 363.688 226.768C363.475 226 363.368 225.168 363.368 224.272V215.024H365.864V224.016C365.864 225.275 366.141 226.267 366.696 226.992C367.251 227.717 368.115 228.08 369.288 228.08C370.099 228.08 370.792 227.941 371.368 227.664C371.965 227.387 372.445 226.992 372.808 226.48C373.192 225.968 373.469 225.36 373.64 224.656C373.832 223.952 373.928 223.173 373.928 222.32V215.024H376.424V226.448ZM387.965 230H385.213L379.101 215.024H382.013L386.685 226.768H386.749L391.197 215.024H393.885L387.965 230ZM412.651 230H410.187L405.931 218.48H405.867L402.091 230H399.531L394.667 215.024H397.419L400.843 226.544H400.907L404.779 215.024H407.403L411.339 226.544H411.403L414.795 215.024H417.483L412.651 230ZM424.178 221.936L418.802 215.024H422.066L426.034 220.4L429.778 215.024H432.818L427.666 221.936L433.842 230H430.546L425.81 223.536L421.138 230H418.034L424.178 221.936ZM440.178 221.936L434.802 215.024H438.066L442.034 220.4L445.778 215.024H448.818L443.666 221.936L449.842 230H446.546L441.81 223.536L437.138 230H434.034L440.178 221.936ZM457.81 233.424C457.554 234.064 457.287 234.64 457.01 235.152C456.754 235.685 456.434 236.133 456.05 236.496C455.687 236.88 455.239 237.168 454.706 237.36C454.194 237.573 453.564 237.68 452.818 237.68C452.455 237.68 452.071 237.659 451.666 237.616C451.282 237.573 450.919 237.467 450.578 237.296L450.898 235.12C451.154 235.227 451.42 235.291 451.698 235.312C451.975 235.355 452.295 235.376 452.658 235.376C453.468 235.376 454.066 235.152 454.45 234.704C454.834 234.256 455.164 233.659 455.442 232.912L456.466 230.096L450.258 215.024H453.17L457.81 226.768H457.874L462.322 215.024H465.042L457.81 233.424ZM466.335 228.048L475.135 217.136H466.719V215.024H478.399V216.944L469.599 227.888H478.623V230H466.335V228.048ZM40.02 274H37.332V254.8H37.268L33.204 258.224L31.604 256.272L37.684 251.344H40.02V274ZM47.8813 270.928L56.4253 262.608C56.9586 262.096 57.4279 261.627 57.8333 261.2C58.2386 260.752 58.5693 260.325 58.8253 259.92C59.1026 259.493 59.3053 259.056 59.4333 258.608C59.5613 258.16 59.6253 257.659 59.6253 257.104C59.6253 256.507 59.5186 255.973 59.3053 255.504C59.0919 255.035 58.7933 254.64 58.4093 254.32C58.0466 253.979 57.6093 253.723 57.0973 253.552C56.6066 253.36 56.0733 253.264 55.4973 253.264C54.3453 253.264 53.3959 253.595 52.6493 254.256C51.9026 254.917 51.4226 255.792 51.2093 256.88L48.2973 256.624C48.4466 255.707 48.7239 254.896 49.1293 254.192C49.5559 253.467 50.0786 252.869 50.6973 252.4C51.3373 251.931 52.0519 251.579 52.8413 251.344C53.6306 251.088 54.4839 250.96 55.4013 250.96C56.3399 250.96 57.2253 251.099 58.0573 251.376C58.8893 251.632 59.6146 252.016 60.2333 252.528C60.8733 253.04 61.3746 253.68 61.7373 254.448C62.1213 255.216 62.3133 256.101 62.3133 257.104C62.3133 258 62.1853 258.811 61.9293 259.536C61.6946 260.261 61.3639 260.933 60.9373 261.552C60.5319 262.149 60.0626 262.725 59.5293 263.28C59.0173 263.813 58.4733 264.347 57.8973 264.88L50.9213 271.44V271.504H62.4733V274H47.8813V270.928ZM70.5905 260.944H71.4225C71.9772 260.944 72.5532 260.901 73.1505 260.816C73.7692 260.731 74.3238 260.549 74.8145 260.272C75.3265 259.995 75.7425 259.6 76.0625 259.088C76.4038 258.555 76.5745 257.861 76.5745 257.008C76.5745 255.856 76.2118 254.949 75.4865 254.288C74.7825 253.605 73.8545 253.264 72.7025 253.264C71.7425 253.264 70.9105 253.477 70.2065 253.904C69.5025 254.331 68.9478 254.96 68.5425 255.792L65.9505 254.8C66.5052 253.52 67.3692 252.56 68.5425 251.92C69.7372 251.28 71.0598 250.96 72.5105 250.96C73.4065 250.96 74.2598 251.088 75.0705 251.344C75.9025 251.6 76.6278 251.973 77.2465 252.464C77.8652 252.955 78.3558 253.573 78.7185 254.32C79.0812 255.045 79.2625 255.899 79.2625 256.88C79.2625 258.075 78.8998 259.152 78.1745 260.112C77.4705 261.051 76.5425 261.701 75.3905 262.064V262.128C76.1158 262.256 76.7558 262.491 77.3105 262.832C77.8865 263.173 78.3772 263.6 78.7825 264.112C79.1878 264.603 79.4972 265.168 79.7105 265.808C79.9238 266.448 80.0305 267.12 80.0305 267.824C80.0305 268.912 79.8278 269.861 79.4225 270.672C79.0172 271.483 78.4732 272.165 77.7905 272.72C77.1078 273.275 76.3078 273.691 75.3905 273.968C74.4945 274.245 73.5452 274.384 72.5425 274.384C70.8145 274.384 69.3105 274.011 68.0305 273.264C66.7505 272.517 65.8225 271.301 65.2465 269.616L67.9665 268.72C68.3505 269.936 68.8945 270.8 69.5985 271.312C70.3025 271.824 71.2838 272.08 72.5425 272.08C73.1825 272.08 73.7798 271.973 74.3345 271.76C74.8892 271.547 75.3692 271.248 75.7745 270.864C76.2012 270.459 76.5318 269.989 76.7665 269.456C77.0225 268.901 77.1505 268.293 77.1505 267.632C77.1505 266.8 76.9798 266.107 76.6385 265.552C76.3185 264.976 75.8812 264.528 75.3265 264.208C74.7932 263.867 74.1852 263.621 73.5025 263.472C72.8198 263.323 72.1265 263.248 71.4225 263.248H70.5905V260.944ZM95.2518 266.32H98.5158V268.816H95.2518V274H92.5638V268.816H82.9638V265.84L91.9558 251.344H95.2518V266.32ZM92.5638 254.48H92.4998L85.2678 266.32H92.5638V254.48ZM114.793 253.84H105.545L105.449 259.952C105.876 259.739 106.345 259.6 106.857 259.536C107.39 259.451 107.892 259.408 108.361 259.408C109.449 259.408 110.43 259.6 111.305 259.984C112.201 260.347 112.969 260.869 113.609 261.552C114.249 262.213 114.74 263.003 115.081 263.92C115.422 264.816 115.593 265.797 115.593 266.864C115.593 267.995 115.39 269.029 114.985 269.968C114.601 270.885 114.057 271.675 113.353 272.336C112.67 272.976 111.849 273.477 110.889 273.84C109.95 274.203 108.926 274.384 107.817 274.384C106.089 274.384 104.692 274.011 103.625 273.264C102.58 272.517 101.748 271.515 101.129 270.256L103.817 269.232C104.201 270.085 104.756 270.779 105.481 271.312C106.228 271.824 107.081 272.08 108.041 272.08C108.724 272.08 109.353 271.963 109.929 271.728C110.526 271.472 111.038 271.12 111.465 270.672C111.913 270.203 112.265 269.648 112.521 269.008C112.777 268.368 112.905 267.653 112.905 266.864C112.905 266.032 112.756 265.296 112.457 264.656C112.18 264.016 111.785 263.483 111.273 263.056C110.782 262.608 110.196 262.277 109.513 262.064C108.83 261.829 108.094 261.712 107.305 261.712C106.537 261.712 105.748 261.851 104.937 262.128C104.126 262.384 103.38 262.715 102.697 263.12L102.921 251.344H114.793V253.84ZM123.934 260.784L123.998 260.848C124.425 260.613 124.916 260.443 125.47 260.336C126.046 260.229 126.569 260.176 127.038 260.176C128.02 260.176 128.926 260.347 129.758 260.688C130.612 261.029 131.337 261.52 131.934 262.16C132.553 262.779 133.033 263.525 133.374 264.4C133.716 265.275 133.886 266.235 133.886 267.28C133.886 268.389 133.694 269.381 133.31 270.256C132.926 271.131 132.393 271.877 131.71 272.496C131.028 273.093 130.217 273.563 129.278 273.904C128.361 274.224 127.369 274.384 126.302 274.384C125.236 274.384 124.233 274.224 123.294 273.904C122.377 273.563 121.577 273.093 120.894 272.496C120.212 271.877 119.678 271.131 119.294 270.256C118.91 269.381 118.718 268.389 118.718 267.28C118.718 265.979 118.921 264.837 119.326 263.856C119.732 262.875 120.244 261.893 120.862 260.912L126.878 251.344H130.014L123.934 260.784ZM126.302 262.48C125.62 262.48 124.98 262.597 124.382 262.832C123.785 263.045 123.262 263.365 122.814 263.792C122.388 264.197 122.046 264.699 121.79 265.296C121.534 265.893 121.406 266.555 121.406 267.28C121.406 268.027 121.534 268.699 121.79 269.296C122.046 269.872 122.388 270.373 122.814 270.8C123.262 271.205 123.785 271.525 124.382 271.76C124.98 271.973 125.62 272.08 126.302 272.08C126.985 272.08 127.625 271.973 128.222 271.76C128.82 271.525 129.332 271.205 129.758 270.8C130.206 270.373 130.558 269.872 130.814 269.296C131.07 268.699 131.198 268.027 131.198 267.28C131.198 266.555 131.07 265.893 130.814 265.296C130.558 264.699 130.206 264.197 129.758 263.792C129.332 263.365 128.82 263.045 128.222 262.832C127.625 262.597 126.985 262.48 126.302 262.48ZM150.548 253.84L141.492 274H138.452L147.668 253.84H136.724V251.344H150.548V253.84ZM155.401 256.88C155.401 255.984 155.561 255.173 155.881 254.448C156.222 253.723 156.681 253.104 157.257 252.592C157.833 252.08 158.515 251.685 159.305 251.408C160.094 251.109 160.947 250.96 161.865 250.96C162.782 250.96 163.635 251.109 164.425 251.408C165.214 251.685 165.897 252.08 166.473 252.592C167.049 253.104 167.497 253.723 167.817 254.448C168.158 255.173 168.329 255.984 168.329 256.88C168.329 257.413 168.243 257.947 168.073 258.48C167.902 259.013 167.657 259.504 167.337 259.952C167.017 260.4 166.622 260.795 166.153 261.136C165.705 261.477 165.193 261.723 164.617 261.872V261.936C165.299 262.085 165.918 262.341 166.473 262.704C167.027 263.045 167.497 263.472 167.881 263.984C168.265 264.496 168.563 265.083 168.777 265.744C168.99 266.384 169.097 267.056 169.097 267.76C169.097 268.784 168.905 269.712 168.521 270.544C168.158 271.355 167.646 272.048 166.985 272.624C166.345 273.2 165.577 273.637 164.681 273.936C163.806 274.235 162.867 274.384 161.865 274.384C160.862 274.384 159.913 274.235 159.017 273.936C158.142 273.637 157.374 273.2 156.713 272.624C156.073 272.048 155.561 271.355 155.177 270.544C154.814 269.712 154.633 268.784 154.633 267.76C154.633 267.056 154.739 266.384 154.953 265.744C155.166 265.083 155.465 264.496 155.849 263.984C156.233 263.472 156.702 263.045 157.257 262.704C157.811 262.341 158.43 262.085 159.113 261.936V261.872C158.537 261.723 158.014 261.477 157.545 261.136C157.097 260.795 156.713 260.4 156.393 259.952C156.073 259.504 155.827 259.013 155.657 258.48C155.486 257.947 155.401 257.413 155.401 256.88ZM158.089 257.008C158.089 258.096 158.43 258.992 159.113 259.696C159.817 260.4 160.734 260.752 161.865 260.752C162.995 260.752 163.902 260.4 164.585 259.696C165.289 258.992 165.641 258.096 165.641 257.008C165.641 255.92 165.289 255.024 164.585 254.32C163.902 253.616 162.995 253.264 161.865 253.264C160.734 253.264 159.817 253.616 159.113 254.32C158.43 255.024 158.089 255.92 158.089 257.008ZM157.321 267.568C157.321 268.229 157.438 268.837 157.673 269.392C157.907 269.947 158.227 270.427 158.633 270.832C159.059 271.216 159.539 271.525 160.073 271.76C160.627 271.973 161.225 272.08 161.865 272.08C162.505 272.08 163.091 271.973 163.625 271.76C164.179 271.525 164.659 271.216 165.065 270.832C165.491 270.427 165.822 269.947 166.057 269.392C166.291 268.837 166.409 268.229 166.409 267.568C166.409 266.907 166.291 266.299 166.057 265.744C165.822 265.189 165.491 264.72 165.065 264.336C164.659 263.931 164.179 263.621 163.625 263.408C163.091 263.173 162.505 263.056 161.865 263.056C161.225 263.056 160.627 263.173 160.073 263.408C159.539 263.621 159.059 263.931 158.633 264.336C158.227 264.72 157.907 265.189 157.673 265.744C157.438 266.299 157.321 266.907 157.321 267.568ZM182.014 264.56L181.95 264.496C181.523 264.731 181.022 264.901 180.446 265.008C179.891 265.115 179.379 265.168 178.91 265.168C177.929 265.168 177.011 264.997 176.158 264.656C175.326 264.315 174.601 263.835 173.982 263.216C173.385 262.576 172.915 261.829 172.574 260.976C172.233 260.101 172.062 259.131 172.062 258.064C172.062 256.955 172.254 255.963 172.638 255.088C173.022 254.213 173.555 253.477 174.238 252.88C174.921 252.261 175.721 251.792 176.638 251.472C177.577 251.131 178.579 250.96 179.646 250.96C180.713 250.96 181.705 251.131 182.622 251.472C183.561 251.792 184.371 252.261 185.054 252.88C185.737 253.477 186.27 254.213 186.654 255.088C187.038 255.963 187.23 256.955 187.23 258.064C187.23 258.725 187.177 259.333 187.07 259.888C186.963 260.443 186.814 260.976 186.622 261.488C186.43 262 186.195 262.501 185.918 262.992C185.662 263.461 185.385 263.941 185.086 264.432L179.07 274H175.934L182.014 264.56ZM179.646 262.864C180.329 262.864 180.969 262.757 181.566 262.544C182.163 262.309 182.675 261.989 183.102 261.584C183.55 261.157 183.902 260.656 184.158 260.08C184.414 259.483 184.542 258.811 184.542 258.064C184.542 257.339 184.414 256.677 184.158 256.08C183.902 255.483 183.55 254.981 183.102 254.576C182.675 254.149 182.163 253.829 181.566 253.616C180.969 253.381 180.329 253.264 179.646 253.264C178.963 253.264 178.323 253.381 177.726 253.616C177.129 253.829 176.606 254.149 176.158 254.576C175.731 254.981 175.39 255.483 175.134 256.08C174.878 256.677 174.75 257.339 174.75 258.064C174.75 258.811 174.878 259.483 175.134 260.08C175.39 260.656 175.731 261.157 176.158 261.584C176.606 261.989 177.129 262.309 177.726 262.544C178.323 262.757 178.963 262.864 179.646 262.864ZM189.747 262.672C189.747 261.392 189.854 260.059 190.067 258.672C190.281 257.285 190.675 256.027 191.251 254.896C191.827 253.744 192.606 252.805 193.587 252.08C194.59 251.333 195.87 250.96 197.427 250.96C198.985 250.96 200.254 251.333 201.235 252.08C202.238 252.805 203.027 253.744 203.603 254.896C204.179 256.027 204.574 257.285 204.787 258.672C205.001 260.059 205.107 261.392 205.107 262.672C205.107 263.952 205.001 265.285 204.787 266.672C204.574 268.059 204.179 269.328 203.603 270.48C203.027 271.611 202.238 272.549 201.235 273.296C200.254 274.021 198.985 274.384 197.427 274.384C195.87 274.384 194.59 274.021 193.587 273.296C192.606 272.549 191.827 271.611 191.251 270.48C190.675 269.328 190.281 268.059 190.067 266.672C189.854 265.285 189.747 263.952 189.747 262.672ZM192.435 262.672C192.435 263.227 192.457 263.845 192.499 264.528C192.542 265.211 192.617 265.904 192.723 266.608C192.851 267.291 193.022 267.963 193.235 268.624C193.47 269.285 193.769 269.872 194.131 270.384C194.515 270.896 194.974 271.312 195.507 271.632C196.041 271.931 196.681 272.08 197.427 272.08C198.174 272.08 198.814 271.931 199.347 271.632C199.881 271.312 200.329 270.896 200.691 270.384C201.075 269.872 201.374 269.285 201.587 268.624C201.822 267.963 201.993 267.291 202.099 266.608C202.227 265.904 202.313 265.211 202.355 264.528C202.398 263.845 202.419 263.227 202.419 262.672C202.419 262.117 202.398 261.499 202.355 260.816C202.313 260.133 202.227 259.451 202.099 258.768C201.993 258.064 201.822 257.381 201.587 256.72C201.374 256.059 201.075 255.472 200.691 254.96C200.329 254.448 199.881 254.043 199.347 253.744C198.814 253.424 198.174 253.264 197.427 253.264C196.681 253.264 196.041 253.424 195.507 253.744C194.974 254.043 194.515 254.448 194.131 254.96C193.769 255.472 193.47 256.059 193.235 256.72C193.022 257.381 192.851 258.064 192.723 258.768C192.617 259.451 192.542 260.133 192.499 260.816C192.457 261.499 192.435 262.117 192.435 262.672Z" fill="#121F39"/>
</svg>
