<svg width="330" height="66" viewBox="0 0 330 66" fill="none" xmlns="http://www.w3.org/2000/svg">
<g clip-path="url(#clip0_232_1818)">
<path d="M63.9049 33.6362C62.2815 23.852 53.0238 17.2707 43.2834 18.938L46.1353 2.5505L35.671 0.685791C34.7935 2.66019 30.8447 11.6547 28.9362 21.746C32.8191 24.3785 35.671 28.5467 36.5266 33.5924C37.4041 38.9232 35.8685 44.1225 32.6656 47.9835C33.4553 48.9488 34.3548 49.8263 35.3639 50.616C39.4224 53.8189 44.3584 55.0694 49.1847 54.2577C58.9908 52.6343 65.5722 43.3766 63.8829 33.6362H63.9049Z" fill="#054752"/>
<path d="M28.7606 22.8868L28.98 21.7899C25.2506 19.2451 20.6437 18.1043 15.8613 18.8941L18.7132 2.52856L8.27081 0.685791C7.34942 2.726 3.13738 12.3128 1.33849 22.8429C-0.109403 31.3547 -0.0435894 40.4808 4.40977 46.9086C5.39697 48.2906 6.55967 49.5411 7.96368 50.638C12.0441 53.8409 17.002 55.0913 21.8283 54.2796C26.2597 53.5557 30.0111 51.2084 32.6656 48.0274L31.8319 46.9305C27.3566 40.5247 27.2908 31.3986 28.7606 22.9087V22.8868Z" fill="#2DBEFF"/>
<path d="M36.5485 33.6362C35.671 28.5905 32.8191 24.4223 28.9581 21.7898L28.7387 22.8867C27.3128 31.3985 27.3786 40.5246 31.8539 46.9524L32.6656 48.0492C35.8685 44.1005 37.448 38.9232 36.5266 33.5703L36.5485 33.6362Z" fill="#9EF769"/>
<path d="M274.507 50.7038H268.277C268.057 50.7038 267.904 50.8135 267.838 50.989C266.96 53.3144 265.732 55.2449 263.977 56.605C262.222 57.9213 259.962 58.711 257.023 58.711C253.008 58.711 249.783 56.956 247.589 54.0164C245.396 51.0548 244.167 46.9524 244.167 42.2577C244.167 37.5192 245.374 33.4168 247.589 30.4991C249.783 27.5814 253.03 25.8264 257.023 25.8264C259.94 25.8264 262.178 26.5942 263.933 27.9324C265.688 29.2926 266.895 31.2231 267.794 33.4827C267.86 33.6582 268.014 33.7898 268.233 33.7898H274.485C274.573 33.7898 274.704 33.7459 274.77 33.6582C274.858 33.5924 274.902 33.4827 274.902 33.351V33.2413C273.915 29.0293 271.875 25.5631 268.847 23.15C265.82 20.7368 261.871 19.3328 256.957 19.3328C251.253 19.3328 246.207 21.6802 242.588 25.6948C238.968 29.7313 236.774 35.4571 236.774 42.3236C236.774 49.1901 238.968 54.9378 242.588 58.9524C246.207 63.0108 251.253 65.3143 256.979 65.3143C261.893 65.3143 265.886 63.9542 268.935 61.5191C271.962 59.1059 274.024 55.5959 274.968 51.318V51.2083C274.968 51.0767 274.924 50.989 274.836 50.8793C274.792 50.8135 274.661 50.7696 274.529 50.7696L274.507 50.7038ZM329.198 32.2322C328.759 32.1445 328.145 32.0567 327.289 32.0567C326.543 32.0567 325.622 32.1225 324.569 32.32C323.691 32.4955 322.748 32.8465 321.871 33.3291C320.993 33.8117 320.116 34.4699 319.326 35.2596C318.887 35.6984 318.448 36.2468 318.053 36.8611L317.768 37.2998V33.0439C317.768 32.7807 317.549 32.5613 317.329 32.5613H311.362C311.143 32.5613 310.924 32.7807 310.924 33.0439V64.1955C310.924 64.4148 311.143 64.6342 311.362 64.6342H317.373C317.637 64.6342 317.856 64.4148 317.856 64.1955V49.0584C317.856 47.3034 318.075 45.8117 318.448 44.5831C318.843 43.3546 319.436 42.3894 320.203 41.6435C321.015 40.8976 321.915 40.3272 322.968 39.9543C324.196 39.5155 325.534 39.3839 326.697 39.3839C327.574 39.3839 328.452 39.4717 328.956 39.5594H329.022C329.286 39.5594 329.461 39.3839 329.461 39.1207V32.7148C329.527 32.4955 329.373 32.2761 329.132 32.2322H329.198ZM199.919 19.289H199.809L193.776 20.342C193.557 20.3858 193.337 20.5613 193.337 20.7807V64.1735C193.337 64.4368 193.557 64.6562 193.842 64.6562H199.919C200.138 64.6562 200.358 64.4368 200.358 64.1735V19.7716C200.358 19.5083 200.138 19.289 199.853 19.289H199.919ZM187.48 45.0438C186.603 43.2449 185.374 41.7093 183.86 40.4369L183.422 40.1079C182.763 39.6033 182.04 39.1426 181.272 38.7916L181.052 38.6819L181.206 38.5283C181.908 37.7166 182.522 36.7733 182.961 35.7642C183.619 34.2944 183.948 32.7807 183.948 31.2011C183.948 29.49 183.597 27.9105 182.939 26.3748C182.281 24.8392 181.338 23.5668 180.153 22.4699C179.056 21.4608 177.74 20.671 176.248 20.1007C174.756 19.5303 172.892 19.2231 170.698 19.2231H157.403C157.14 19.2231 156.921 19.4425 156.921 19.7277V64.1516C156.921 64.4148 157.14 64.6342 157.403 64.6342H173.813C176.16 64.6342 178.113 64.371 179.692 63.8445C181.228 63.318 182.654 62.5282 183.86 61.541C185.352 60.2906 186.581 58.733 187.48 56.9341C187.699 56.4953 187.853 56.1224 188.007 55.7275L188.072 55.552L188.182 55.2449C188.621 53.8847 188.884 52.4588 188.884 50.967C188.84 48.8171 188.38 46.7989 187.458 45L187.48 45.0438ZM164.007 25.958H169.579C171.334 25.958 172.65 26.1116 173.528 26.3968C174.361 26.7258 175.019 27.1646 175.502 27.713C176.445 28.7661 176.928 29.9946 176.928 31.4425C176.928 32.8465 176.489 34.075 175.502 35.128C175.019 35.6764 174.405 36.1152 173.528 36.4443C172.913 36.6636 171.992 36.7953 170.895 36.883H163.941V25.958H164.007ZM181.118 53.5118C180.767 54.3893 180.285 55.1352 179.67 55.7933C178.968 56.4515 178.135 57.0218 177.104 57.4167C176.072 57.7897 174.559 58.009 172.541 58.009H163.985V43.596H172.541C174.559 43.596 176.051 43.8153 177.082 44.1883C178.069 44.5831 178.924 45.1316 179.604 45.8117C180.219 46.4698 180.701 47.2157 181.074 48.0493C181.447 48.861 181.623 49.8043 181.623 50.7476C181.623 51.7348 181.447 52.6562 181.074 53.5118H181.118ZM228.942 35.1719C226.617 33.0439 223.414 31.9909 219.421 31.9909C215.824 31.9909 212.884 32.8684 210.646 34.6234C208.672 36.0933 207.246 37.9799 206.478 40.2175C206.39 40.4369 206.544 40.7221 206.807 40.766L212.467 41.7532C212.687 41.7971 212.84 41.6874 212.906 41.5338C214.069 38.9671 216.24 37.7166 219.443 37.7166C221.637 37.7166 223.304 38.309 224.489 39.5155C225.674 40.7221 226.244 42.3236 226.244 44.3418V45.4826C223.282 44.6051 220.452 44.1663 217.82 44.1663C214.091 44.1663 210.975 45.0877 208.496 46.9744C206.039 48.861 204.767 51.5155 204.767 54.9158C204.767 58.1626 205.93 60.7074 208.189 62.5501C210.449 64.3929 213.169 65.3143 216.372 65.3143C220.453 65.3143 223.831 64.1297 226.288 61.6726V64.1297C226.288 64.4368 226.551 64.6781 226.836 64.6781H232.058C232.343 64.6781 232.584 64.4587 232.584 64.1516V43.9031C232.518 40.1737 231.334 37.2779 228.964 35.1719H228.942ZM223.633 57.1096C221.878 58.5794 219.751 59.3034 217.206 59.3034C215.341 59.3034 213.915 58.8646 212.906 58.031C211.941 57.1973 211.436 56.0566 211.436 54.6087C211.436 53.0292 212.094 51.8445 213.323 51.0548C214.551 50.265 216.175 49.8482 218.149 49.8482C220.628 49.8482 223.348 50.287 226.266 51.1645C226.266 53.7312 225.388 55.6836 223.633 57.0877V57.1096ZM118.53 19.289H118.442L112.387 20.342C112.168 20.3858 111.949 20.5613 111.949 20.7807V64.1735C111.949 64.4368 112.168 64.6562 112.453 64.6562H118.53C118.749 64.6562 118.969 64.4368 118.969 64.1735V19.7716C118.969 19.5083 118.749 19.289 118.486 19.289H118.53ZM106.025 45.0438C105.148 43.2449 103.963 41.7093 102.449 40.4369L102.011 40.1079C101.353 39.6033 100.629 39.1426 99.8608 38.7916L99.6415 38.6819L99.795 38.5283C100.497 37.7166 101.111 36.7733 101.55 35.7642C102.208 34.2944 102.537 32.7807 102.537 31.2011C102.537 29.49 102.208 27.9105 101.55 26.3748C100.892 24.8392 99.9486 23.5668 98.764 22.4699C97.6671 21.4608 96.3508 20.671 94.9029 20.1007C93.4111 19.5303 91.5464 19.2231 89.3527 19.2231H76.0803C75.8171 19.2231 75.5977 19.4425 75.5977 19.7277V64.1516C75.5977 64.4148 75.8171 64.6342 76.0803 64.6342H92.424C94.7713 64.6342 96.7237 64.371 98.3033 63.8445C99.8389 63.318 101.265 62.5282 102.471 61.541C103.963 60.2906 105.192 58.733 106.091 56.9341C106.311 56.4953 106.464 56.1224 106.618 55.7275L106.683 55.552C106.683 55.4643 106.727 55.3326 106.771 55.2449C107.21 53.8847 107.473 52.4588 107.473 50.967C107.429 48.8171 106.969 46.7989 106.047 45L106.025 45.0438ZM82.552 25.958H88.168C89.9231 25.958 91.2393 26.1116 92.1168 26.3968C92.9505 26.7258 93.6086 27.1646 94.0912 27.713C95.0345 28.7661 95.5172 29.9946 95.5172 31.4425C95.5172 32.8465 95.0784 34.075 94.0912 35.128C93.6086 35.6764 92.9943 36.1152 92.1168 36.4443C91.5026 36.6636 90.5812 36.7953 89.4843 36.883H82.552V25.958ZM99.7292 53.5118C99.3563 54.3893 98.8517 55.1352 98.2594 55.7933C97.5574 56.4515 96.7237 57.0218 95.6927 57.4167C94.6616 57.7897 93.1479 58.009 91.1296 58.009H82.5739V43.596H91.1296C93.1698 43.596 94.6835 43.8153 95.6927 44.1883C96.7237 44.5831 97.5793 45.1316 98.2594 45.8117C98.8736 46.4698 99.3563 47.2157 99.7292 48.0493C100.102 48.861 100.278 49.8043 100.278 50.7476C100.278 51.7348 100.058 52.6562 99.7073 53.5118H99.7292ZM147.553 35.1719C145.206 33.0439 142.003 31.9909 138.011 31.9909C134.435 31.9909 131.495 32.8684 129.235 34.6234C127.261 36.0933 125.857 37.9799 125.067 40.2175C125.001 40.4369 125.155 40.7221 125.418 40.766L131.056 41.7532C131.276 41.7971 131.495 41.6874 131.561 41.5338C132.702 38.9671 134.852 37.7166 138.076 37.7166C140.204 37.7166 141.894 38.309 143.078 39.5155C144.263 40.7221 144.877 42.3236 144.877 44.3418V45.4826C141.872 44.6051 139.042 44.1663 136.409 44.1663C132.68 44.1663 129.565 45.0877 127.086 46.9744C124.563 48.861 123.356 51.5155 123.356 54.9158C123.356 58.1626 124.453 60.7074 126.713 62.5501C128.972 64.3929 131.692 65.3143 134.895 65.3143C138.998 65.3143 142.354 64.1297 144.833 61.6726V64.1297C144.833 64.4368 145.053 64.6781 145.338 64.6781H150.559C150.866 64.6781 151.107 64.4587 151.107 64.1516V43.9031C151.042 40.1737 149.879 37.2779 147.51 35.1719H147.553ZM142.201 57.1096C140.446 58.5794 138.252 59.3034 135.729 59.3034C133.864 59.3034 132.438 58.8646 131.429 58.031C130.42 57.1973 129.894 56.0566 129.894 54.6087C129.894 53.0292 130.552 51.8445 131.802 51.0548C133.053 50.265 134.654 49.8482 136.628 49.8482C139.129 49.8482 141.85 50.287 144.745 51.1645C144.789 53.7312 143.912 55.6836 142.157 57.0877L142.201 57.1096ZM302.478 35.1719C300.13 33.0439 296.927 31.9909 292.935 31.9909C289.381 31.9909 286.441 32.8684 284.16 34.6234C282.185 36.0933 280.803 37.9799 279.991 40.2175C279.948 40.4369 280.101 40.7221 280.364 40.766L286.024 41.7532C286.244 41.7971 286.397 41.6874 286.463 41.5338C287.626 38.9671 289.798 37.7166 293.001 37.7166C295.15 37.7166 296.84 38.309 298.046 39.5155C299.209 40.7221 299.801 42.3236 299.801 44.3418V45.4826C296.818 44.6051 293.988 44.1663 291.355 44.1663C287.626 44.1663 284.511 45.0877 282.032 46.9744C279.553 48.861 278.302 51.5155 278.302 54.9158C278.302 58.1626 279.443 60.7074 281.703 62.5501C283.962 64.3929 286.682 65.3143 289.885 65.3143C294.01 65.3143 297.344 64.1297 299.845 61.6726V64.1297C299.845 64.4368 300.065 64.6781 300.372 64.6781H305.593C305.878 64.6781 306.119 64.4587 306.119 64.1516V43.9031C306.032 40.1737 304.847 37.2779 302.5 35.1719H302.478ZM297.103 57.1096C295.348 58.5794 293.242 59.3034 290.697 59.3034C288.832 59.3034 287.406 58.8646 286.397 58.031C285.432 57.1973 284.927 56.0566 284.927 54.6087C284.927 53.0292 285.586 51.8445 286.814 51.0548C288.065 50.265 289.666 49.8482 291.64 49.8482C294.141 49.8482 296.905 50.287 299.757 51.1645C299.757 53.7312 298.88 55.6836 297.125 57.0877L297.103 57.1096Z" fill="#054752"/>
</g>
<defs>
<clipPath id="clip0_232_1818">
<rect width="329" height="64.6285" fill="white" transform="translate(0.504883 0.685791)"/>
</clipPath>
</defs>
</svg>
