<svg width="330" height="66" viewBox="0 0 330 66" fill="none" xmlns="http://www.w3.org/2000/svg">
<g clip-path="url(#clip0_572_1450)">
<path d="M63.9 33.6362C62.2766 23.852 53.0189 17.2707 43.2785 18.938L46.1304 2.5505L35.6662 0.685791C34.7886 2.66019 30.8399 11.6547 28.9313 21.746C32.8143 24.3785 35.6662 28.5467 36.5217 33.5924C37.3992 38.9232 35.8636 44.1225 32.6607 47.9835C33.4504 48.9488 34.3499 49.8263 35.359 50.616C39.4175 53.8189 44.3535 55.0694 49.1798 54.2577C58.986 52.6343 65.5673 43.3766 63.8781 33.6362H63.9Z" fill="#054752"/>
<path d="M28.7558 22.8868L28.9751 21.7899C25.2457 19.2451 20.6388 18.1043 15.8564 18.8941L18.7083 2.52856L8.26593 0.685791C7.34454 2.726 3.1325 12.3128 1.3336 22.8429C-0.114286 31.3547 -0.0484722 40.4808 4.40489 46.9086C5.39208 48.2906 6.55478 49.5411 7.9588 50.638C12.0392 53.8409 16.9971 55.0913 21.8234 54.2796C26.2549 53.5557 30.0062 51.2084 32.6607 48.0274L31.827 46.9305C27.3517 40.5247 27.2859 31.3986 28.7558 22.9087V22.8868Z" fill="#2DBEFF"/>
<path d="M36.5437 33.6362C35.6662 28.5905 32.8143 24.4223 28.9532 21.7898L28.7338 22.8867C27.3079 31.3985 27.3737 40.5246 31.849 46.9524L32.6607 48.0492C35.8636 44.1005 37.4431 38.9232 36.5217 33.5703L36.5437 33.6362Z" fill="#9EF769"/>
<path d="M274.502 50.7038H268.272C268.052 50.7038 267.899 50.8135 267.833 50.989C266.956 53.3144 265.727 55.2449 263.972 56.605C262.217 57.9213 259.957 58.711 257.018 58.711C253.003 58.711 249.778 56.956 247.585 54.0164C245.391 51.0548 244.162 46.9524 244.162 42.2577C244.162 37.5192 245.369 33.4168 247.585 30.4991C249.778 27.5814 253.025 25.8264 257.018 25.8264C259.936 25.8264 262.173 26.5942 263.928 27.9324C265.683 29.2926 266.89 31.2231 267.789 33.4827C267.855 33.6582 268.009 33.7898 268.228 33.7898H274.48C274.568 33.7898 274.7 33.7459 274.765 33.6582C274.853 33.5924 274.897 33.4827 274.897 33.351V33.2413C273.91 29.0293 271.87 25.5631 268.842 23.15C265.815 20.7368 261.866 19.3328 256.952 19.3328C251.248 19.3328 246.203 21.6802 242.583 25.6948C238.963 29.7313 236.769 35.4571 236.769 42.3236C236.769 49.1901 238.963 54.9378 242.583 58.9524C246.203 63.0108 251.248 65.3143 256.974 65.3143C261.888 65.3143 265.881 63.9542 268.93 61.5191C271.957 59.1059 274.02 55.5959 274.963 51.318V51.2083C274.963 51.0767 274.919 50.989 274.831 50.8793C274.787 50.8135 274.656 50.7696 274.524 50.7696L274.502 50.7038ZM329.193 32.2322C328.754 32.1445 328.14 32.0567 327.284 32.0567C326.538 32.0567 325.617 32.1225 324.564 32.32C323.687 32.4955 322.743 32.8465 321.866 33.3291C320.988 33.8117 320.111 34.4699 319.321 35.2596C318.882 35.6984 318.443 36.2468 318.049 36.8611L317.763 37.2998V33.0439C317.763 32.7807 317.544 32.5613 317.325 32.5613H311.358C311.138 32.5613 310.919 32.7807 310.919 33.0439V64.1955C310.919 64.4148 311.138 64.6342 311.358 64.6342H317.368C317.632 64.6342 317.851 64.4148 317.851 64.1955V49.0584C317.851 47.3034 318.07 45.8117 318.443 44.5831C318.838 43.3546 319.431 42.3894 320.198 41.6435C321.01 40.8976 321.91 40.3272 322.963 39.9543C324.191 39.5155 325.529 39.3839 326.692 39.3839C327.57 39.3839 328.447 39.4717 328.952 39.5594H329.017C329.281 39.5594 329.456 39.3839 329.456 39.1207V32.7148C329.522 32.4955 329.368 32.2761 329.127 32.2322H329.193ZM199.914 19.289H199.804L193.771 20.342C193.552 20.3858 193.333 20.5613 193.333 20.7807V64.1735C193.333 64.4368 193.552 64.6562 193.837 64.6562H199.914C200.133 64.6562 200.353 64.4368 200.353 64.1735V19.7716C200.353 19.5083 200.133 19.289 199.848 19.289H199.914ZM187.475 45.0438C186.598 43.2449 185.369 41.7093 183.855 40.4369L183.417 40.1079C182.759 39.6033 182.035 39.1426 181.267 38.7916L181.047 38.6819L181.201 38.5283C181.903 37.7166 182.517 36.7733 182.956 35.7642C183.614 34.2944 183.943 32.7807 183.943 31.2011C183.943 29.49 183.592 27.9105 182.934 26.3748C182.276 24.8392 181.333 23.5668 180.148 22.4699C179.051 21.4608 177.735 20.671 176.243 20.1007C174.751 19.5303 172.887 19.2231 170.693 19.2231H157.399C157.135 19.2231 156.916 19.4425 156.916 19.7277V64.1516C156.916 64.4148 157.135 64.6342 157.399 64.6342H173.808C176.155 64.6342 178.108 64.371 179.687 63.8445C181.223 63.318 182.649 62.5282 183.855 61.541C185.347 60.2906 186.576 58.733 187.475 56.9341C187.695 56.4953 187.848 56.1224 188.002 55.7275L188.068 55.552L188.177 55.2449C188.616 53.8847 188.879 52.4588 188.879 50.967C188.835 48.8171 188.375 46.7989 187.453 45L187.475 45.0438ZM164.002 25.958H169.574C171.329 25.958 172.645 26.1116 173.523 26.3968C174.356 26.7258 175.015 27.1646 175.497 27.713C176.441 28.7661 176.923 29.9946 176.923 31.4425C176.923 32.8465 176.484 34.075 175.497 35.128C175.015 35.6764 174.4 36.1152 173.523 36.4443C172.909 36.6636 171.987 36.7953 170.89 36.883H163.936V25.958H164.002ZM181.113 53.5118C180.762 54.3893 180.28 55.1352 179.665 55.7933C178.963 56.4515 178.13 57.0218 177.099 57.4167C176.068 57.7897 174.554 58.009 172.536 58.009H163.98V43.596H172.536C174.554 43.596 176.046 43.8153 177.077 44.1883C178.064 44.5831 178.92 45.1316 179.6 45.8117C180.214 46.4698 180.696 47.2157 181.069 48.0493C181.442 48.861 181.618 49.8043 181.618 50.7476C181.618 51.7348 181.442 52.6562 181.069 53.5118H181.113ZM228.938 35.1719C226.612 33.0439 223.409 31.9909 219.417 31.9909C215.819 31.9909 212.879 32.8684 210.641 34.6234C208.667 36.0933 207.241 37.9799 206.473 40.2175C206.386 40.4369 206.539 40.7221 206.802 40.766L212.462 41.7532C212.682 41.7971 212.835 41.6874 212.901 41.5338C214.064 38.9671 216.236 37.7166 219.438 37.7166C221.632 37.7166 223.3 38.309 224.484 39.5155C225.669 40.7221 226.239 42.3236 226.239 44.3418V45.4826C223.278 44.6051 220.448 44.1663 217.815 44.1663C214.086 44.1663 210.971 45.0877 208.492 46.9744C206.035 48.861 204.762 51.5155 204.762 54.9158C204.762 58.1626 205.925 60.7074 208.184 62.5501C210.444 64.3929 213.164 65.3143 216.367 65.3143C220.448 65.3143 223.826 64.1297 226.283 61.6726V64.1297C226.283 64.4368 226.546 64.6781 226.831 64.6781H232.053C232.338 64.6781 232.579 64.4587 232.579 64.1516V43.9031C232.513 40.1737 231.329 37.2779 228.959 35.1719H228.938ZM223.629 57.1096C221.874 58.5794 219.746 59.3034 217.201 59.3034C215.336 59.3034 213.91 58.8646 212.901 58.031C211.936 57.1973 211.431 56.0566 211.431 54.6087C211.431 53.0292 212.089 51.8445 213.318 51.0548C214.546 50.265 216.17 49.8482 218.144 49.8482C220.623 49.8482 223.343 50.287 226.261 51.1645C226.261 53.7312 225.384 55.6836 223.629 57.0877V57.1096ZM118.525 19.289H118.437L112.382 20.342C112.163 20.3858 111.944 20.5613 111.944 20.7807V64.1735C111.944 64.4368 112.163 64.6562 112.448 64.6562H118.525C118.744 64.6562 118.964 64.4368 118.964 64.1735V19.7716C118.964 19.5083 118.744 19.289 118.481 19.289H118.525ZM106.02 45.0438C105.143 43.2449 103.958 41.7093 102.445 40.4369L102.006 40.1079C101.348 39.6033 100.624 39.1426 99.856 38.7916L99.6366 38.6819L99.7901 38.5283C100.492 37.7166 101.106 36.7733 101.545 35.7642C102.203 34.2944 102.532 32.7807 102.532 31.2011C102.532 29.49 102.203 27.9105 101.545 26.3748C100.887 24.8392 99.9437 23.5668 98.7591 22.4699C97.6622 21.4608 96.3459 20.671 94.898 20.1007C93.4063 19.5303 91.5416 19.2231 89.3478 19.2231H76.0755C75.8122 19.2231 75.5928 19.4425 75.5928 19.7277V64.1516C75.5928 64.4148 75.8122 64.6342 76.0755 64.6342H92.4191C94.7664 64.6342 96.7189 64.371 98.2984 63.8445C99.834 63.318 101.26 62.5282 102.467 61.541C103.958 60.2906 105.187 58.733 106.086 56.9341C106.306 56.4953 106.459 56.1224 106.613 55.7275L106.679 55.552C106.679 55.4643 106.722 55.3326 106.766 55.2449C107.205 53.8847 107.468 52.4588 107.468 50.967C107.424 48.8171 106.964 46.7989 106.042 45L106.02 45.0438ZM82.5471 25.958H88.1632C89.9182 25.958 91.2344 26.1116 92.1119 26.3968C92.9456 26.7258 93.6037 27.1646 94.0863 27.713C95.0297 28.7661 95.5123 29.9946 95.5123 31.4425C95.5123 32.8465 95.0735 34.075 94.0863 35.128C93.6037 35.6764 92.9895 36.1152 92.1119 36.4443C91.4977 36.6636 90.5763 36.7953 89.4794 36.883H82.5471V25.958ZM99.7243 53.5118C99.3514 54.3893 98.8468 55.1352 98.2545 55.7933C97.5525 56.4515 96.7189 57.0218 95.6878 57.4167C94.6567 57.7897 93.143 58.009 91.1247 58.009H82.569V43.596H91.1247C93.165 43.596 94.6787 43.8153 95.6878 44.1883C96.7189 44.5831 97.5744 45.1316 98.2545 45.8117C98.8688 46.4698 99.3514 47.2157 99.7243 48.0493C100.097 48.861 100.273 49.8043 100.273 50.7476C100.273 51.7348 100.053 52.6562 99.7024 53.5118H99.7243ZM147.549 35.1719C145.201 33.0439 141.998 31.9909 138.006 31.9909C134.43 31.9909 131.49 32.8684 129.231 34.6234C127.256 36.0933 125.852 37.9799 125.062 40.2175C124.997 40.4369 125.15 40.7221 125.413 40.766L131.051 41.7532C131.271 41.7971 131.49 41.6874 131.556 41.5338C132.697 38.9671 134.847 37.7166 138.071 37.7166C140.199 37.7166 141.889 38.309 143.073 39.5155C144.258 40.7221 144.872 42.3236 144.872 44.3418V45.4826C141.867 44.6051 139.037 44.1663 136.404 44.1663C132.675 44.1663 129.56 45.0877 127.081 46.9744C124.558 48.861 123.351 51.5155 123.351 54.9158C123.351 58.1626 124.448 60.7074 126.708 62.5501C128.967 64.3929 131.688 65.3143 134.89 65.3143C138.993 65.3143 142.349 64.1297 144.828 61.6726V64.1297C144.828 64.4368 145.048 64.6781 145.333 64.6781H150.554C150.861 64.6781 151.102 64.4587 151.102 64.1516V43.9031C151.037 40.1737 149.874 37.2779 147.505 35.1719H147.549ZM142.196 57.1096C140.441 58.5794 138.247 59.3034 135.724 59.3034C133.859 59.3034 132.433 58.8646 131.424 58.031C130.415 57.1973 129.889 56.0566 129.889 54.6087C129.889 53.0292 130.547 51.8445 131.797 51.0548C133.048 50.265 134.649 49.8482 136.624 49.8482C139.124 49.8482 141.845 50.287 144.741 51.1645C144.784 53.7312 143.907 55.6836 142.152 57.0877L142.196 57.1096ZM302.473 35.1719C300.125 33.0439 296.923 31.9909 292.93 31.9909C289.376 31.9909 286.436 32.8684 284.155 34.6234C282.18 36.0933 280.798 37.9799 279.987 40.2175C279.943 40.4369 280.096 40.7221 280.36 40.766L286.019 41.7532C286.239 41.7971 286.392 41.6874 286.458 41.5338C287.621 38.9671 289.793 37.7166 292.996 37.7166C295.146 37.7166 296.835 38.309 298.041 39.5155C299.204 40.7221 299.796 42.3236 299.796 44.3418V45.4826C296.813 44.6051 293.983 44.1663 291.35 44.1663C287.621 44.1663 284.506 45.0877 282.027 46.9744C279.548 48.861 278.297 51.5155 278.297 54.9158C278.297 58.1626 279.438 60.7074 281.698 62.5501C283.957 64.3929 286.678 65.3143 289.881 65.3143C294.005 65.3143 297.339 64.1297 299.84 61.6726V64.1297C299.84 64.4368 300.06 64.6781 300.367 64.6781H305.588C305.873 64.6781 306.114 64.4587 306.114 64.1516V43.9031C306.027 40.1737 304.842 37.2779 302.495 35.1719H302.473ZM297.098 57.1096C295.343 58.5794 293.237 59.3034 290.692 59.3034C288.828 59.3034 287.402 58.8646 286.392 58.031C285.427 57.1973 284.923 56.0566 284.923 54.6087C284.923 53.0292 285.581 51.8445 286.809 51.0548C288.06 50.265 289.661 49.8482 291.636 49.8482C294.136 49.8482 296.901 50.287 299.752 51.1645C299.752 53.7312 298.875 55.6836 297.12 57.0877L297.098 57.1096Z" fill="#054752"/>
</g>
<defs>
<clipPath id="clip0_572_1450">
<rect width="329" height="64.6285" fill="white" transform="translate(0.5 0.685791)"/>
</clipPath>
</defs>
</svg>
