<svg width="331" height="101" viewBox="0 0 331 101" fill="none" xmlns="http://www.w3.org/2000/svg">
<rect y="0.841797" width="100" height="100" rx="16" fill="#FFFEFD"/>
<path d="M122.912 24.6858H130.784C131.765 24.6858 132.672 24.8031 133.504 25.0378C134.357 25.2725 135.083 25.6245 135.68 26.0938C136.299 26.5418 136.779 27.1285 137.12 27.8538C137.483 28.5578 137.664 29.3898 137.664 30.3498C137.664 31.6511 137.301 32.7178 136.576 33.5498C135.851 34.3605 134.912 34.9578 133.76 35.3418V35.4058C134.443 35.4485 135.083 35.6298 135.68 35.9498C136.277 36.2485 136.789 36.6538 137.216 37.1658C137.664 37.6565 138.016 38.2325 138.272 38.8938C138.528 39.5551 138.656 40.2698 138.656 41.0378C138.656 42.0618 138.443 42.9685 138.016 43.7578C137.611 44.5258 137.045 45.1765 136.32 45.7098C135.595 46.2431 134.752 46.6485 133.792 46.9258C132.832 47.2031 131.797 47.3418 130.688 47.3418H122.912V24.6858ZM125.984 34.0938H130.176C130.752 34.0938 131.296 34.0405 131.808 33.9338C132.32 33.8058 132.768 33.6031 133.152 33.3258C133.536 33.0485 133.835 32.6965 134.048 32.2698C134.283 31.8431 134.4 31.3205 134.4 30.7018C134.4 29.8058 134.112 29.0271 133.536 28.3658C132.96 27.7045 132.053 27.3738 130.816 27.3738H125.984V34.0938ZM125.984 44.6538H130.496C130.965 44.6538 131.477 44.6111 132.032 44.5258C132.608 44.4191 133.141 44.2271 133.632 43.9498C134.123 43.6511 134.539 43.2565 134.88 42.7658C135.221 42.2751 135.392 41.6245 135.392 40.8138C135.392 39.4698 134.955 38.4671 134.08 37.8058C133.205 37.1231 132.021 36.7818 130.528 36.7818H125.984V44.6538ZM144.668 39.7578C144.668 40.5258 144.786 41.2405 145.02 41.9018C145.255 42.5418 145.586 43.0965 146.012 43.5658C146.439 44.0138 146.962 44.3765 147.58 44.6538C148.199 44.9098 148.892 45.0378 149.66 45.0378C150.428 45.0378 151.122 44.9098 151.74 44.6538C152.359 44.3765 152.882 44.0138 153.308 43.5658C153.735 43.0965 154.066 42.5418 154.3 41.9018C154.535 41.2405 154.652 40.5258 154.652 39.7578C154.652 38.9898 154.535 38.2858 154.3 37.6458C154.066 36.9845 153.735 36.4298 153.308 35.9818C152.882 35.5125 152.359 35.1498 151.74 34.8938C151.122 34.6165 150.428 34.4778 149.66 34.4778C148.892 34.4778 148.199 34.6165 147.58 34.8938C146.962 35.1498 146.439 35.5125 146.012 35.9818C145.586 36.4298 145.255 36.9845 145.02 37.6458C144.786 38.2858 144.668 38.9898 144.668 39.7578ZM141.596 39.7578C141.596 38.6485 141.799 37.6138 142.204 36.6538C142.631 35.6938 143.207 34.8511 143.932 34.1258C144.658 33.4005 145.511 32.8351 146.492 32.4298C147.474 32.0031 148.53 31.7898 149.66 31.7898C150.791 31.7898 151.847 32.0031 152.828 32.4298C153.81 32.8351 154.663 33.4005 155.388 34.1258C156.114 34.8511 156.679 35.6938 157.084 36.6538C157.511 37.6138 157.724 38.6485 157.724 39.7578C157.724 40.8671 157.511 41.9125 157.084 42.8938C156.679 43.8538 156.114 44.6965 155.388 45.4218C154.663 46.1258 153.81 46.6911 152.828 47.1178C151.847 47.5231 150.791 47.7258 149.66 47.7258C148.53 47.7258 147.474 47.5231 146.492 47.1178C145.511 46.6911 144.658 46.1258 143.932 45.4218C143.207 44.6965 142.631 43.8538 142.204 42.8938C141.799 41.9125 141.596 40.8671 141.596 39.7578ZM161.332 32.1738H164.212V34.5098H164.276C164.468 34.1045 164.724 33.7418 165.044 33.4218C165.364 33.0805 165.716 32.7925 166.1 32.5578C166.506 32.3231 166.943 32.1418 167.412 32.0138C167.882 31.8645 168.351 31.7898 168.82 31.7898C169.29 31.7898 169.716 31.8538 170.1 31.9818L169.972 35.0858C169.738 35.0218 169.503 34.9685 169.268 34.9258C169.034 34.8831 168.799 34.8618 168.564 34.8618C167.156 34.8618 166.079 35.2565 165.332 36.0458C164.586 36.8351 164.212 38.0618 164.212 39.7258V47.3418H161.332V32.1738ZM187.814 47.3418H184.934V45.1658H184.87C184.315 45.9765 183.547 46.6058 182.566 47.0538C181.606 47.5018 180.614 47.7258 179.59 47.7258C178.416 47.7258 177.35 47.5231 176.39 47.1178C175.451 46.7125 174.64 46.1471 173.958 45.4218C173.296 44.6965 172.784 43.8538 172.422 42.8938C172.059 41.9338 171.878 40.8885 171.878 39.7578C171.878 38.6271 172.059 37.5818 172.422 36.6218C172.784 35.6405 173.296 34.7978 173.958 34.0938C174.64 33.3685 175.451 32.8031 176.39 32.3978C177.35 31.9925 178.416 31.7898 179.59 31.7898C180.678 31.7898 181.702 32.0245 182.662 32.4938C183.622 32.9418 184.358 33.5605 184.87 34.3498H184.934V23.1498H187.814V47.3418ZM179.942 45.0378C180.71 45.0378 181.403 44.9098 182.022 44.6538C182.64 44.3765 183.163 44.0138 183.59 43.5658C184.016 43.0965 184.347 42.5418 184.582 41.9018C184.816 41.2405 184.934 40.5258 184.934 39.7578C184.934 38.9898 184.816 38.2858 184.582 37.6458C184.347 36.9845 184.016 36.4298 183.59 35.9818C183.163 35.5125 182.64 35.1498 182.022 34.8938C181.403 34.6165 180.71 34.4778 179.942 34.4778C179.174 34.4778 178.48 34.6165 177.862 34.8938C177.243 35.1498 176.72 35.5125 176.294 35.9818C175.867 36.4298 175.536 36.9845 175.302 37.6458C175.067 38.2858 174.95 38.9898 174.95 39.7578C174.95 40.5258 175.067 41.2405 175.302 41.9018C175.536 42.5418 175.867 43.0965 176.294 43.5658C176.72 44.0138 177.243 44.3765 177.862 44.6538C178.48 44.9098 179.174 45.0378 179.942 45.0378ZM194.352 40.8138C194.352 41.4751 194.491 42.0831 194.768 42.6378C195.067 43.1711 195.451 43.6298 195.92 44.0138C196.389 44.3978 196.933 44.6965 197.552 44.9098C198.171 45.1231 198.811 45.2298 199.472 45.2298C200.368 45.2298 201.147 45.0271 201.808 44.6218C202.469 44.1951 203.077 43.6405 203.632 42.9578L205.808 44.6218C204.208 46.6911 201.968 47.7258 199.088 47.7258C197.893 47.7258 196.805 47.5231 195.824 47.1178C194.864 46.7125 194.043 46.1578 193.36 45.4538C192.699 44.7285 192.187 43.8858 191.824 42.9258C191.461 41.9445 191.28 40.8885 191.28 39.7578C191.28 38.6271 191.472 37.5818 191.856 36.6218C192.261 35.6405 192.805 34.7978 193.488 34.0938C194.192 33.3685 195.024 32.8031 195.984 32.3978C196.944 31.9925 197.989 31.7898 199.12 31.7898C200.464 31.7898 201.595 32.0245 202.512 32.4938C203.451 32.9631 204.219 33.5818 204.816 34.3498C205.413 35.0965 205.84 35.9498 206.096 36.9098C206.373 37.8485 206.512 38.8085 206.512 39.7898V40.8138H194.352ZM203.44 38.5098C203.419 37.8698 203.312 37.2831 203.12 36.7498C202.949 36.2165 202.683 35.7578 202.32 35.3738C201.957 34.9685 201.499 34.6591 200.944 34.4458C200.411 34.2111 199.781 34.0938 199.056 34.0938C198.352 34.0938 197.701 34.2325 197.104 34.5098C196.528 34.7658 196.037 35.1071 195.632 35.5338C195.227 35.9605 194.907 36.4405 194.672 36.9738C194.459 37.4858 194.352 37.9978 194.352 38.5098H203.44ZM209.957 32.1738H212.837V34.5098H212.901C213.093 34.1045 213.349 33.7418 213.669 33.4218C213.989 33.0805 214.341 32.7925 214.725 32.5578C215.131 32.3231 215.568 32.1418 216.037 32.0138C216.507 31.8645 216.976 31.7898 217.445 31.7898C217.915 31.7898 218.341 31.8538 218.725 31.9818L218.597 35.0858C218.363 35.0218 218.128 34.9685 217.893 34.9258C217.659 34.8831 217.424 34.8618 217.189 34.8618C215.781 34.8618 214.704 35.2565 213.957 36.0458C213.211 36.8351 212.837 38.0618 212.837 39.7258V47.3418H209.957V32.1738ZM231.443 24.6858H239.411C240.862 24.6858 242.057 24.8885 242.995 25.2938C243.934 25.6778 244.67 26.1791 245.203 26.7978C245.758 27.3951 246.142 28.0778 246.355 28.8458C246.569 29.5925 246.675 30.3178 246.675 31.0218C246.675 31.7471 246.547 32.4511 246.291 33.1338C246.035 33.7951 245.662 34.4031 245.171 34.9578C244.702 35.4911 244.115 35.9498 243.411 36.3338C242.729 36.6965 241.961 36.9205 241.107 37.0058L247.539 47.3418H243.699L237.939 37.3578H234.515V47.3418H231.443V24.6858ZM234.515 34.6698H238.547C239.145 34.6698 239.731 34.6271 240.307 34.5418C240.905 34.4351 241.427 34.2538 241.875 33.9978C242.345 33.7418 242.718 33.3791 242.995 32.9098C243.273 32.4191 243.411 31.7898 243.411 31.0218C243.411 30.2538 243.273 29.6351 242.995 29.1658C242.718 28.6751 242.345 28.3018 241.875 28.0458C241.427 27.7898 240.905 27.6191 240.307 27.5338C239.731 27.4271 239.145 27.3738 238.547 27.3738H234.515V34.6698ZM250.334 34.0298C251.144 33.2831 252.083 32.7285 253.15 32.3658C254.216 31.9818 255.283 31.7898 256.35 31.7898C257.459 31.7898 258.408 31.9285 259.198 32.2058C260.008 32.4831 260.67 32.8565 261.182 33.3258C261.694 33.7951 262.067 34.3391 262.302 34.9578C262.558 35.5551 262.686 36.1845 262.686 36.8458V44.5898C262.686 45.1231 262.696 45.6138 262.718 46.0618C262.739 46.5098 262.771 46.9365 262.814 47.3418H260.254C260.19 46.5738 260.158 45.8058 260.158 45.0378H260.094C259.454 46.0191 258.696 46.7125 257.822 47.1178C256.947 47.5231 255.934 47.7258 254.782 47.7258C254.078 47.7258 253.406 47.6298 252.766 47.4378C252.126 47.2458 251.56 46.9578 251.07 46.5738C250.6 46.1898 250.227 45.7205 249.95 45.1658C249.672 44.5898 249.534 43.9285 249.534 43.1818C249.534 42.2005 249.747 41.3791 250.174 40.7178C250.622 40.0565 251.219 39.5231 251.966 39.1178C252.734 38.6911 253.619 38.3925 254.622 38.2218C255.646 38.0298 256.734 37.9338 257.886 37.9338H259.998V37.2938C259.998 36.9098 259.923 36.5258 259.774 36.1418C259.624 35.7578 259.4 35.4165 259.102 35.1178C258.803 34.7978 258.43 34.5525 257.982 34.3818C257.534 34.1898 257 34.0938 256.382 34.0938C255.827 34.0938 255.336 34.1471 254.91 34.2538C254.504 34.3605 254.131 34.4991 253.79 34.6698C253.448 34.8191 253.139 35.0005 252.862 35.2138C252.584 35.4271 252.318 35.6298 252.062 35.8218L250.334 34.0298ZM258.462 40.0458C257.779 40.0458 257.075 40.0885 256.35 40.1738C255.646 40.2378 254.995 40.3765 254.398 40.5898C253.822 40.8031 253.342 41.1018 252.958 41.4858C252.595 41.8698 252.414 42.3605 252.414 42.9578C252.414 43.8325 252.702 44.4618 253.278 44.8458C253.875 45.2298 254.675 45.4218 255.678 45.4218C256.467 45.4218 257.139 45.2938 257.694 45.0378C258.248 44.7605 258.696 44.4085 259.038 43.9818C259.379 43.5551 259.624 43.0858 259.774 42.5738C259.923 42.0405 259.998 41.5178 259.998 41.0058V40.0458H258.462ZM282.064 47.3418H279.184V45.1658H279.12C278.565 45.9765 277.797 46.6058 276.816 47.0538C275.856 47.5018 274.864 47.7258 273.84 47.7258C272.666 47.7258 271.6 47.5231 270.64 47.1178C269.701 46.7125 268.89 46.1471 268.208 45.4218C267.546 44.6965 267.034 43.8538 266.672 42.8938C266.309 41.9338 266.128 40.8885 266.128 39.7578C266.128 38.6271 266.309 37.5818 266.672 36.6218C267.034 35.6405 267.546 34.7978 268.208 34.0938C268.89 33.3685 269.701 32.8031 270.64 32.3978C271.6 31.9925 272.666 31.7898 273.84 31.7898C274.928 31.7898 275.952 32.0245 276.912 32.4938C277.872 32.9418 278.608 33.5605 279.12 34.3498H279.184V23.1498H282.064V47.3418ZM274.192 45.0378C274.96 45.0378 275.653 44.9098 276.272 44.6538C276.89 44.3765 277.413 44.0138 277.84 43.5658C278.266 43.0965 278.597 42.5418 278.832 41.9018C279.066 41.2405 279.184 40.5258 279.184 39.7578C279.184 38.9898 279.066 38.2858 278.832 37.6458C278.597 36.9845 278.266 36.4298 277.84 35.9818C277.413 35.5125 276.89 35.1498 276.272 34.8938C275.653 34.6165 274.96 34.4778 274.192 34.4778C273.424 34.4778 272.73 34.6165 272.112 34.8938C271.493 35.1498 270.97 35.5125 270.544 35.9818C270.117 36.4298 269.786 36.9845 269.552 37.6458C269.317 38.2858 269.2 38.9898 269.2 39.7578C269.2 40.5258 269.317 41.2405 269.552 41.9018C269.786 42.5418 270.117 43.0965 270.544 43.5658C270.97 44.0138 271.493 44.3765 272.112 44.6538C272.73 44.9098 273.424 45.0378 274.192 45.0378ZM286.65 32.1738H289.53V47.3418H286.65V32.1738ZM285.978 26.7338C285.978 26.1578 286.181 25.6671 286.586 25.2618C287.013 24.8351 287.514 24.6218 288.09 24.6218C288.666 24.6218 289.157 24.8351 289.562 25.2618C289.989 25.6671 290.202 26.1578 290.202 26.7338C290.202 27.3098 289.989 27.8111 289.562 28.2378C289.157 28.6431 288.666 28.8458 288.09 28.8458C287.514 28.8458 287.013 28.6431 286.586 28.2378C286.181 27.8111 285.978 27.3098 285.978 26.7338ZM307.554 47.3418H304.674V45.0058H304.61C304.247 45.8165 303.618 46.4778 302.722 46.9898C301.826 47.4805 300.791 47.7258 299.618 47.7258C298.871 47.7258 298.167 47.6085 297.506 47.3738C296.844 47.1605 296.258 46.8191 295.746 46.3498C295.255 45.8805 294.86 45.2831 294.562 44.5578C294.263 43.8111 294.114 42.9365 294.114 41.9338V32.1738H296.994V41.1338C296.994 41.8378 297.09 42.4458 297.282 42.9578C297.474 43.4485 297.73 43.8538 298.05 44.1738C298.37 44.4725 298.732 44.6965 299.138 44.8458C299.564 44.9738 300.002 45.0378 300.45 45.0378C301.047 45.0378 301.602 44.9418 302.114 44.7498C302.626 44.5578 303.074 44.2591 303.458 43.8538C303.842 43.4271 304.14 42.8938 304.354 42.2538C304.567 41.6138 304.674 40.8565 304.674 39.9818V32.1738H307.554V47.3418ZM319.959 35.9818C319.617 35.5551 319.191 35.2031 318.679 34.9258C318.188 34.6271 317.58 34.4778 316.855 34.4778C316.172 34.4778 315.575 34.6271 315.063 34.9258C314.572 35.2031 314.327 35.6191 314.327 36.1738C314.327 36.6218 314.465 36.9845 314.743 37.2618C315.041 37.5391 315.383 37.7631 315.767 37.9338C316.172 38.1045 316.599 38.2325 317.047 38.3178C317.495 38.4031 317.879 38.4778 318.199 38.5418C318.817 38.6911 319.393 38.8725 319.927 39.0858C320.481 39.2991 320.951 39.5765 321.335 39.9178C321.74 40.2591 322.049 40.6751 322.263 41.1658C322.497 41.6565 322.615 42.2538 322.615 42.9578C322.615 43.8111 322.433 44.5471 322.071 45.1658C321.708 45.7631 321.239 46.2538 320.663 46.6378C320.087 47.0218 319.425 47.2991 318.679 47.4698C317.953 47.6405 317.217 47.7258 316.471 47.7258C315.212 47.7258 314.103 47.5338 313.143 47.1498C312.204 46.7658 311.361 46.0618 310.615 45.0378L312.791 43.2458C313.26 43.7151 313.783 44.1311 314.359 44.4938C314.935 44.8565 315.639 45.0378 316.471 45.0378C316.833 45.0378 317.196 45.0058 317.559 44.9418C317.943 44.8565 318.273 44.7391 318.551 44.5898C318.849 44.4191 319.084 44.2165 319.255 43.9818C319.447 43.7258 319.543 43.4378 319.543 43.1178C319.543 42.6911 319.404 42.3391 319.127 42.0618C318.871 41.7845 318.551 41.5711 318.167 41.4218C317.804 41.2511 317.409 41.1231 316.983 41.0378C316.577 40.9311 316.215 40.8458 315.895 40.7818C315.276 40.6325 314.689 40.4618 314.135 40.2698C313.58 40.0778 313.089 39.8218 312.663 39.5018C312.236 39.1818 311.895 38.7765 311.639 38.2858C311.383 37.7951 311.255 37.1871 311.255 36.4618C311.255 35.6725 311.415 34.9898 311.735 34.4138C312.076 33.8165 312.513 33.3258 313.047 32.9418C313.601 32.5578 314.22 32.2698 314.903 32.0778C315.607 31.8858 316.311 31.7898 317.015 31.7898C318.039 31.7898 319.02 31.9818 319.959 32.3658C320.897 32.7498 321.644 33.3898 322.199 34.2858L319.959 35.9818Z" fill="black"/>
<path d="M131.3 68.5018C130.78 67.9418 130.273 67.5685 129.78 67.3818C129.3 67.1951 128.813 67.1018 128.32 67.1018C127.587 67.1018 126.92 67.2351 126.32 67.5018C125.733 67.7551 125.227 68.1151 124.8 68.5818C124.373 69.0351 124.04 69.5685 123.8 70.1818C123.573 70.7951 123.46 71.4551 123.46 72.1618C123.46 72.9218 123.573 73.6218 123.8 74.2618C124.04 74.9018 124.373 75.4551 124.8 75.9218C125.227 76.3885 125.733 76.7551 126.32 77.0218C126.92 77.2885 127.587 77.4218 128.32 77.4218C128.893 77.4218 129.447 77.2885 129.98 77.0218C130.527 76.7418 131.033 76.3018 131.5 75.7018L133.58 77.1818C132.94 78.0618 132.16 78.7018 131.24 79.1018C130.32 79.5018 129.34 79.7018 128.3 79.7018C127.207 79.7018 126.2 79.5285 125.28 79.1818C124.373 78.8218 123.587 78.3218 122.92 77.6818C122.267 77.0285 121.753 76.2485 121.38 75.3418C121.007 74.4351 120.82 73.4285 120.82 72.3218C120.82 71.1885 121.007 70.1618 121.38 69.2418C121.753 68.3085 122.267 67.5151 122.92 66.8618C123.587 66.2085 124.373 65.7085 125.28 65.3618C126.2 65.0018 127.207 64.8218 128.3 64.8218C129.26 64.8218 130.147 64.9951 130.96 65.3418C131.787 65.6751 132.553 66.2485 133.26 67.0618L131.3 68.5018ZM141.051 78.0218H140.991C140.645 78.5685 140.205 78.9685 139.671 79.2218C139.138 79.4618 138.551 79.5818 137.911 79.5818C137.471 79.5818 137.038 79.5218 136.611 79.4018C136.198 79.2818 135.825 79.1018 135.491 78.8618C135.171 78.6218 134.911 78.3218 134.711 77.9618C134.511 77.6018 134.411 77.1818 134.411 76.7018C134.411 76.1818 134.505 75.7418 134.691 75.3818C134.878 75.0085 135.125 74.7018 135.431 74.4618C135.751 74.2085 136.118 74.0085 136.531 73.8618C136.945 73.7151 137.371 73.6085 137.811 73.5418C138.265 73.4618 138.718 73.4151 139.171 73.4018C139.625 73.3751 140.051 73.3618 140.451 73.3618H141.051V73.1018C141.051 72.5018 140.845 72.0551 140.431 71.7618C140.018 71.4551 139.491 71.3018 138.851 71.3018C138.345 71.3018 137.871 71.3951 137.431 71.5818C136.991 71.7551 136.611 71.9951 136.291 72.3018L135.031 71.0418C135.565 70.4951 136.185 70.1018 136.891 69.8618C137.611 69.6218 138.351 69.5018 139.111 69.5018C139.791 69.5018 140.365 69.5818 140.831 69.7418C141.298 69.8885 141.685 70.0818 141.991 70.3218C142.298 70.5618 142.531 70.8418 142.691 71.1618C142.865 71.4685 142.985 71.7818 143.051 72.1018C143.131 72.4218 143.178 72.7351 143.191 73.0418C143.205 73.3351 143.211 73.5951 143.211 73.8218V79.3418H141.051V78.0218ZM140.911 75.0418H140.411C140.078 75.0418 139.705 75.0551 139.291 75.0818C138.878 75.1085 138.485 75.1751 138.111 75.2818C137.751 75.3751 137.445 75.5218 137.191 75.7218C136.938 75.9085 136.811 76.1751 136.811 76.5218C136.811 76.7485 136.858 76.9418 136.951 77.1018C137.058 77.2485 137.191 77.3751 137.351 77.4818C137.511 77.5885 137.691 77.6685 137.891 77.7218C138.091 77.7618 138.291 77.7818 138.491 77.7818C139.318 77.7818 139.925 77.5885 140.311 77.2018C140.711 76.8018 140.911 76.2618 140.911 75.5818V75.0418ZM145.794 69.7418H148.194V71.2618H148.234C148.5 70.7018 148.88 70.2685 149.374 69.9618C149.867 69.6551 150.434 69.5018 151.074 69.5018C151.22 69.5018 151.36 69.5151 151.494 69.5418C151.64 69.5685 151.787 69.6018 151.934 69.6418V71.9618C151.734 71.9085 151.534 71.8685 151.334 71.8418C151.147 71.8018 150.96 71.7818 150.774 71.7818C150.214 71.7818 149.76 71.8885 149.414 72.1018C149.08 72.3018 148.82 72.5351 148.634 72.8018C148.46 73.0685 148.34 73.3351 148.274 73.6018C148.22 73.8685 148.194 74.0685 148.194 74.2018V79.3418H145.794V69.7418ZM160.815 77.9018H160.775C160.429 78.4885 159.962 78.9151 159.375 79.1818C158.789 79.4485 158.155 79.5818 157.475 79.5818C156.729 79.5818 156.062 79.4551 155.475 79.2018C154.902 78.9351 154.409 78.5751 153.995 78.1218C153.582 77.6685 153.269 77.1351 153.055 76.5218C152.842 75.9085 152.735 75.2485 152.735 74.5418C152.735 73.8351 152.849 73.1751 153.075 72.5618C153.302 71.9485 153.615 71.4151 154.015 70.9618C154.429 70.5085 154.922 70.1551 155.495 69.9018C156.069 69.6351 156.695 69.5018 157.375 69.5018C157.829 69.5018 158.229 69.5485 158.575 69.6418C158.922 69.7351 159.229 69.8551 159.495 70.0018C159.762 70.1485 159.989 70.3085 160.175 70.4818C160.362 70.6418 160.515 70.8018 160.635 70.9618H160.695V64.2218H163.095V79.3418H160.815V77.9018ZM155.135 74.5418C155.135 74.9151 155.195 75.2751 155.315 75.6218C155.449 75.9685 155.635 76.2751 155.875 76.5418C156.129 76.8085 156.429 77.0218 156.775 77.1818C157.122 77.3418 157.515 77.4218 157.955 77.4218C158.395 77.4218 158.789 77.3418 159.135 77.1818C159.482 77.0218 159.775 76.8085 160.015 76.5418C160.269 76.2751 160.455 75.9685 160.575 75.6218C160.709 75.2751 160.775 74.9151 160.775 74.5418C160.775 74.1685 160.709 73.8085 160.575 73.4618C160.455 73.1151 160.269 72.8085 160.015 72.5418C159.775 72.2751 159.482 72.0618 159.135 71.9018C158.789 71.7418 158.395 71.6618 157.955 71.6618C157.515 71.6618 157.122 71.7418 156.775 71.9018C156.429 72.0618 156.129 72.2751 155.875 72.5418C155.635 72.8085 155.449 73.1151 155.315 73.4618C155.195 73.8085 155.135 74.1685 155.135 74.5418ZM170.933 72.4018C170.466 71.7485 169.84 71.4218 169.053 71.4218C168.733 71.4218 168.42 71.5018 168.113 71.6618C167.806 71.8218 167.653 72.0818 167.653 72.4418C167.653 72.7351 167.78 72.9485 168.033 73.0818C168.286 73.2151 168.606 73.3285 168.993 73.4218C169.38 73.5151 169.793 73.6151 170.233 73.7218C170.686 73.8151 171.106 73.9685 171.493 74.1818C171.88 74.3818 172.2 74.6618 172.453 75.0218C172.706 75.3818 172.833 75.8751 172.833 76.5018C172.833 77.0751 172.706 77.5618 172.453 77.9618C172.213 78.3485 171.893 78.6618 171.493 78.9018C171.106 79.1418 170.666 79.3151 170.173 79.4218C169.68 79.5285 169.186 79.5818 168.693 79.5818C167.946 79.5818 167.26 79.4751 166.633 79.2618C166.006 79.0485 165.446 78.6618 164.953 78.1018L166.553 76.6018C166.86 76.9485 167.186 77.2351 167.533 77.4618C167.893 77.6751 168.326 77.7818 168.833 77.7818C169.006 77.7818 169.186 77.7618 169.373 77.7218C169.56 77.6818 169.733 77.6151 169.893 77.5218C170.053 77.4285 170.18 77.3151 170.273 77.1818C170.38 77.0351 170.433 76.8685 170.433 76.6818C170.433 76.3485 170.306 76.1018 170.053 75.9418C169.8 75.7818 169.48 75.6551 169.093 75.5618C168.706 75.4551 168.286 75.3618 167.833 75.2818C167.393 75.1885 166.98 75.0485 166.593 74.8618C166.206 74.6618 165.886 74.3885 165.633 74.0418C165.38 73.6951 165.253 73.2151 165.253 72.6018C165.253 72.0685 165.36 71.6085 165.573 71.2218C165.8 70.8218 166.093 70.4951 166.453 70.2418C166.813 69.9885 167.226 69.8018 167.693 69.6818C168.16 69.5618 168.633 69.5018 169.113 69.5018C169.753 69.5018 170.386 69.6151 171.013 69.8418C171.64 70.0551 172.146 70.4285 172.533 70.9618L170.933 72.4018ZM184.878 75.4418H179.938V73.4018H184.878V75.4418ZM196.844 67.9418L194.184 70.4018L192.784 68.7418L197.064 65.1818H199.244V79.3418H196.844V67.9418ZM212.06 65.1818L208.66 70.4218L208.7 70.4618C208.847 70.3818 209.04 70.3218 209.28 70.2818C209.534 70.2418 209.78 70.2218 210.02 70.2218C210.647 70.2218 211.22 70.3418 211.74 70.5818C212.26 70.8218 212.707 71.1485 213.08 71.5618C213.467 71.9751 213.76 72.4551 213.96 73.0018C214.174 73.5485 214.28 74.1285 214.28 74.7418C214.28 75.4751 214.154 76.1418 213.9 76.7418C213.647 77.3418 213.294 77.8551 212.84 78.2818C212.4 78.6951 211.867 79.0151 211.24 79.2418C210.627 79.4685 209.96 79.5818 209.24 79.5818C208.494 79.5818 207.814 79.4751 207.2 79.2618C206.587 79.0351 206.054 78.7151 205.6 78.3018C205.16 77.8885 204.814 77.3818 204.56 76.7818C204.32 76.1818 204.2 75.5085 204.2 74.7618C204.2 74.0151 204.32 73.3418 204.56 72.7418C204.814 72.1285 205.134 71.5085 205.52 70.8818L209.14 65.1818H212.06ZM206.72 74.7218C206.72 75.0818 206.787 75.4218 206.92 75.7418C207.054 76.0485 207.234 76.3218 207.46 76.5618C207.7 76.7885 207.974 76.9685 208.28 77.1018C208.6 77.2351 208.94 77.3018 209.3 77.3018C209.66 77.3018 209.994 77.2351 210.3 77.1018C210.62 76.9685 210.894 76.7885 211.12 76.5618C211.36 76.3218 211.547 76.0485 211.68 75.7418C211.814 75.4218 211.88 75.0818 211.88 74.7218C211.88 74.3618 211.814 74.0285 211.68 73.7218C211.547 73.4018 211.36 73.1285 211.12 72.9018C210.894 72.6618 210.62 72.4751 210.3 72.3418C209.994 72.2085 209.66 72.1418 209.3 72.1418C208.94 72.1418 208.6 72.2085 208.28 72.3418C207.974 72.4751 207.7 72.6618 207.46 72.9018C207.234 73.1285 207.054 73.4018 206.92 73.7218C206.787 74.0285 206.72 74.3618 206.72 74.7218ZM216.516 69.7418H218.796V71.1818H218.836C219.183 70.5951 219.65 70.1685 220.236 69.9018C220.823 69.6351 221.456 69.5018 222.136 69.5018C222.87 69.5018 223.53 69.6351 224.116 69.9018C224.703 70.1551 225.203 70.5085 225.616 70.9618C226.03 71.4151 226.343 71.9485 226.556 72.5618C226.77 73.1751 226.876 73.8351 226.876 74.5418C226.876 75.2485 226.763 75.9085 226.536 76.5218C226.31 77.1351 225.99 77.6685 225.576 78.1218C225.176 78.5751 224.69 78.9351 224.116 79.2018C223.543 79.4551 222.916 79.5818 222.236 79.5818C221.783 79.5818 221.383 79.5351 221.036 79.4418C220.69 79.3485 220.383 79.2285 220.116 79.0818C219.85 78.9351 219.623 78.7818 219.436 78.6218C219.25 78.4485 219.096 78.2818 218.976 78.1218H218.916V83.9018H216.516V69.7418ZM224.476 74.5418C224.476 74.1685 224.41 73.8085 224.276 73.4618C224.156 73.1151 223.97 72.8085 223.716 72.5418C223.476 72.2751 223.183 72.0618 222.836 71.9018C222.49 71.7418 222.096 71.6618 221.656 71.6618C221.216 71.6618 220.823 71.7418 220.476 71.9018C220.13 72.0618 219.83 72.2751 219.576 72.5418C219.336 72.8085 219.15 73.1151 219.016 73.4618C218.896 73.8085 218.836 74.1685 218.836 74.5418C218.836 74.9151 218.896 75.2751 219.016 75.6218C219.15 75.9685 219.336 76.2751 219.576 76.5418C219.83 76.8085 220.13 77.0218 220.476 77.1818C220.823 77.3418 221.216 77.4218 221.656 77.4218C222.096 77.4218 222.49 77.3418 222.836 77.1818C223.183 77.0218 223.476 76.8085 223.716 76.5418C223.97 76.2751 224.156 75.9685 224.276 75.6218C224.41 75.2751 224.476 74.9151 224.476 74.5418ZM231.594 74.1818L228.274 69.7418H231.194L233.114 72.6218L235.194 69.7418H237.934L234.654 74.1818L238.514 79.3418H235.594L233.094 75.9018L230.574 79.3418H227.734L231.594 74.1818Z" fill="black"/>
</svg>
