<svg width="331" height="101" viewBox="0 0 331 101" fill="none" xmlns="http://www.w3.org/2000/svg">
<rect y="0.841797" width="100" height="100" rx="24" fill="#FFFEFD"/>
<path d="M122.912 24.6858H130.784C131.765 24.6858 132.672 24.8031 133.504 25.0378C134.357 25.2725 135.083 25.6245 135.68 26.0938C136.299 26.5418 136.779 27.1285 137.12 27.8538C137.483 28.5578 137.664 29.3898 137.664 30.3498C137.664 31.6511 137.301 32.7178 136.576 33.5498C135.851 34.3605 134.912 34.9578 133.76 35.3418V35.4058C134.443 35.4485 135.083 35.6298 135.68 35.9498C136.277 36.2485 136.789 36.6538 137.216 37.1658C137.664 37.6565 138.016 38.2325 138.272 38.8938C138.528 39.5551 138.656 40.2698 138.656 41.0378C138.656 42.0618 138.443 42.9685 138.016 43.7578C137.611 44.5258 137.045 45.1765 136.32 45.7098C135.595 46.2431 134.752 46.6485 133.792 46.9258C132.832 47.2031 131.797 47.3418 130.688 47.3418H122.912V24.6858ZM125.984 34.0938H130.176C130.752 34.0938 131.296 34.0405 131.808 33.9338C132.32 33.8058 132.768 33.6031 133.152 33.3258C133.536 33.0485 133.835 32.6965 134.048 32.2698C134.283 31.8431 134.4 31.3205 134.4 30.7018C134.4 29.8058 134.112 29.0271 133.536 28.3658C132.96 27.7045 132.053 27.3738 130.816 27.3738H125.984V34.0938ZM125.984 44.6538H130.496C130.965 44.6538 131.477 44.6111 132.032 44.5258C132.608 44.4191 133.141 44.2271 133.632 43.9498C134.123 43.6511 134.539 43.2565 134.88 42.7658C135.221 42.2751 135.392 41.6245 135.392 40.8138C135.392 39.4698 134.955 38.4671 134.08 37.8058C133.205 37.1231 132.021 36.7818 130.528 36.7818H125.984V44.6538ZM144.668 39.7578C144.668 40.5258 144.786 41.2405 145.02 41.9018C145.255 42.5418 145.586 43.0965 146.012 43.5658C146.439 44.0138 146.962 44.3765 147.58 44.6538C148.199 44.9098 148.892 45.0378 149.66 45.0378C150.428 45.0378 151.122 44.9098 151.74 44.6538C152.359 44.3765 152.882 44.0138 153.308 43.5658C153.735 43.0965 154.066 42.5418 154.3 41.9018C154.535 41.2405 154.652 40.5258 154.652 39.7578C154.652 38.9898 154.535 38.2858 154.3 37.6458C154.066 36.9845 153.735 36.4298 153.308 35.9818C152.882 35.5125 152.359 35.1498 151.74 34.8938C151.122 34.6165 150.428 34.4778 149.66 34.4778C148.892 34.4778 148.199 34.6165 147.58 34.8938C146.962 35.1498 146.439 35.5125 146.012 35.9818C145.586 36.4298 145.255 36.9845 145.02 37.6458C144.786 38.2858 144.668 38.9898 144.668 39.7578ZM141.596 39.7578C141.596 38.6485 141.799 37.6138 142.204 36.6538C142.631 35.6938 143.207 34.8511 143.932 34.1258C144.658 33.4005 145.511 32.8351 146.492 32.4298C147.474 32.0031 148.53 31.7898 149.66 31.7898C150.791 31.7898 151.847 32.0031 152.828 32.4298C153.81 32.8351 154.663 33.4005 155.388 34.1258C156.114 34.8511 156.679 35.6938 157.084 36.6538C157.511 37.6138 157.724 38.6485 157.724 39.7578C157.724 40.8671 157.511 41.9125 157.084 42.8938C156.679 43.8538 156.114 44.6965 155.388 45.4218C154.663 46.1258 153.81 46.6911 152.828 47.1178C151.847 47.5231 150.791 47.7258 149.66 47.7258C148.53 47.7258 147.474 47.5231 146.492 47.1178C145.511 46.6911 144.658 46.1258 143.932 45.4218C143.207 44.6965 142.631 43.8538 142.204 42.8938C141.799 41.9125 141.596 40.8671 141.596 39.7578ZM161.332 32.1738H164.212V34.5098H164.276C164.468 34.1045 164.724 33.7418 165.044 33.4218C165.364 33.0805 165.716 32.7925 166.1 32.5578C166.506 32.3231 166.943 32.1418 167.412 32.0138C167.882 31.8645 168.351 31.7898 168.82 31.7898C169.29 31.7898 169.716 31.8538 170.1 31.9818L169.972 35.0858C169.738 35.0218 169.503 34.9685 169.268 34.9258C169.034 34.8831 168.799 34.8618 168.564 34.8618C167.156 34.8618 166.079 35.2565 165.332 36.0458C164.586 36.8351 164.212 38.0618 164.212 39.7258V47.3418H161.332V32.1738ZM187.814 47.3418H184.934V45.1658H184.87C184.315 45.9765 183.547 46.6058 182.566 47.0538C181.606 47.5018 180.614 47.7258 179.59 47.7258C178.416 47.7258 177.35 47.5231 176.39 47.1178C175.451 46.7125 174.64 46.1471 173.958 45.4218C173.296 44.6965 172.784 43.8538 172.422 42.8938C172.059 41.9338 171.878 40.8885 171.878 39.7578C171.878 38.6271 172.059 37.5818 172.422 36.6218C172.784 35.6405 173.296 34.7978 173.958 34.0938C174.64 33.3685 175.451 32.8031 176.39 32.3978C177.35 31.9925 178.416 31.7898 179.59 31.7898C180.678 31.7898 181.702 32.0245 182.662 32.4938C183.622 32.9418 184.358 33.5605 184.87 34.3498H184.934V23.1498H187.814V47.3418ZM179.942 45.0378C180.71 45.0378 181.403 44.9098 182.022 44.6538C182.64 44.3765 183.163 44.0138 183.59 43.5658C184.016 43.0965 184.347 42.5418 184.582 41.9018C184.816 41.2405 184.934 40.5258 184.934 39.7578C184.934 38.9898 184.816 38.2858 184.582 37.6458C184.347 36.9845 184.016 36.4298 183.59 35.9818C183.163 35.5125 182.64 35.1498 182.022 34.8938C181.403 34.6165 180.71 34.4778 179.942 34.4778C179.174 34.4778 178.48 34.6165 177.862 34.8938C177.243 35.1498 176.72 35.5125 176.294 35.9818C175.867 36.4298 175.536 36.9845 175.302 37.6458C175.067 38.2858 174.95 38.9898 174.95 39.7578C174.95 40.5258 175.067 41.2405 175.302 41.9018C175.536 42.5418 175.867 43.0965 176.294 43.5658C176.72 44.0138 177.243 44.3765 177.862 44.6538C178.48 44.9098 179.174 45.0378 179.942 45.0378ZM194.352 40.8138C194.352 41.4751 194.491 42.0831 194.768 42.6378C195.067 43.1711 195.451 43.6298 195.92 44.0138C196.389 44.3978 196.933 44.6965 197.552 44.9098C198.171 45.1231 198.811 45.2298 199.472 45.2298C200.368 45.2298 201.147 45.0271 201.808 44.6218C202.469 44.1951 203.077 43.6405 203.632 42.9578L205.808 44.6218C204.208 46.6911 201.968 47.7258 199.088 47.7258C197.893 47.7258 196.805 47.5231 195.824 47.1178C194.864 46.7125 194.043 46.1578 193.36 45.4538C192.699 44.7285 192.187 43.8858 191.824 42.9258C191.461 41.9445 191.28 40.8885 191.28 39.7578C191.28 38.6271 191.472 37.5818 191.856 36.6218C192.261 35.6405 192.805 34.7978 193.488 34.0938C194.192 33.3685 195.024 32.8031 195.984 32.3978C196.944 31.9925 197.989 31.7898 199.12 31.7898C200.464 31.7898 201.595 32.0245 202.512 32.4938C203.451 32.9631 204.219 33.5818 204.816 34.3498C205.413 35.0965 205.84 35.9498 206.096 36.9098C206.373 37.8485 206.512 38.8085 206.512 39.7898V40.8138H194.352ZM203.44 38.5098C203.419 37.8698 203.312 37.2831 203.12 36.7498C202.949 36.2165 202.683 35.7578 202.32 35.3738C201.957 34.9685 201.499 34.6591 200.944 34.4458C200.411 34.2111 199.781 34.0938 199.056 34.0938C198.352 34.0938 197.701 34.2325 197.104 34.5098C196.528 34.7658 196.037 35.1071 195.632 35.5338C195.227 35.9605 194.907 36.4405 194.672 36.9738C194.459 37.4858 194.352 37.9978 194.352 38.5098H203.44ZM209.957 32.1738H212.837V34.5098H212.901C213.093 34.1045 213.349 33.7418 213.669 33.4218C213.989 33.0805 214.341 32.7925 214.725 32.5578C215.131 32.3231 215.568 32.1418 216.037 32.0138C216.507 31.8645 216.976 31.7898 217.445 31.7898C217.915 31.7898 218.341 31.8538 218.725 31.9818L218.597 35.0858C218.363 35.0218 218.128 34.9685 217.893 34.9258C217.659 34.8831 217.424 34.8618 217.189 34.8618C215.781 34.8618 214.704 35.2565 213.957 36.0458C213.211 36.8351 212.837 38.0618 212.837 39.7258V47.3418H209.957V32.1738ZM231.443 24.6858H239.411C240.862 24.6858 242.057 24.8885 242.995 25.2938C243.934 25.6778 244.67 26.1791 245.203 26.7978C245.758 27.3951 246.142 28.0778 246.355 28.8458C246.569 29.5925 246.675 30.3178 246.675 31.0218C246.675 31.7471 246.547 32.4511 246.291 33.1338C246.035 33.7951 245.662 34.4031 245.171 34.9578C244.702 35.4911 244.115 35.9498 243.411 36.3338C242.729 36.6965 241.961 36.9205 241.107 37.0058L247.539 47.3418H243.699L237.939 37.3578H234.515V47.3418H231.443V24.6858ZM234.515 34.6698H238.547C239.145 34.6698 239.731 34.6271 240.307 34.5418C240.905 34.4351 241.427 34.2538 241.875 33.9978C242.345 33.7418 242.718 33.3791 242.995 32.9098C243.273 32.4191 243.411 31.7898 243.411 31.0218C243.411 30.2538 243.273 29.6351 242.995 29.1658C242.718 28.6751 242.345 28.3018 241.875 28.0458C241.427 27.7898 240.905 27.6191 240.307 27.5338C239.731 27.4271 239.145 27.3738 238.547 27.3738H234.515V34.6698ZM250.334 34.0298C251.144 33.2831 252.083 32.7285 253.15 32.3658C254.216 31.9818 255.283 31.7898 256.35 31.7898C257.459 31.7898 258.408 31.9285 259.198 32.2058C260.008 32.4831 260.67 32.8565 261.182 33.3258C261.694 33.7951 262.067 34.3391 262.302 34.9578C262.558 35.5551 262.686 36.1845 262.686 36.8458V44.5898C262.686 45.1231 262.696 45.6138 262.718 46.0618C262.739 46.5098 262.771 46.9365 262.814 47.3418H260.254C260.19 46.5738 260.158 45.8058 260.158 45.0378H260.094C259.454 46.0191 258.696 46.7125 257.822 47.1178C256.947 47.5231 255.934 47.7258 254.782 47.7258C254.078 47.7258 253.406 47.6298 252.766 47.4378C252.126 47.2458 251.56 46.9578 251.07 46.5738C250.6 46.1898 250.227 45.7205 249.95 45.1658C249.672 44.5898 249.534 43.9285 249.534 43.1818C249.534 42.2005 249.747 41.3791 250.174 40.7178C250.622 40.0565 251.219 39.5231 251.966 39.1178C252.734 38.6911 253.619 38.3925 254.622 38.2218C255.646 38.0298 256.734 37.9338 257.886 37.9338H259.998V37.2938C259.998 36.9098 259.923 36.5258 259.774 36.1418C259.624 35.7578 259.4 35.4165 259.102 35.1178C258.803 34.7978 258.43 34.5525 257.982 34.3818C257.534 34.1898 257 34.0938 256.382 34.0938C255.827 34.0938 255.336 34.1471 254.91 34.2538C254.504 34.3605 254.131 34.4991 253.79 34.6698C253.448 34.8191 253.139 35.0005 252.862 35.2138C252.584 35.4271 252.318 35.6298 252.062 35.8218L250.334 34.0298ZM258.462 40.0458C257.779 40.0458 257.075 40.0885 256.35 40.1738C255.646 40.2378 254.995 40.3765 254.398 40.5898C253.822 40.8031 253.342 41.1018 252.958 41.4858C252.595 41.8698 252.414 42.3605 252.414 42.9578C252.414 43.8325 252.702 44.4618 253.278 44.8458C253.875 45.2298 254.675 45.4218 255.678 45.4218C256.467 45.4218 257.139 45.2938 257.694 45.0378C258.248 44.7605 258.696 44.4085 259.038 43.9818C259.379 43.5551 259.624 43.0858 259.774 42.5738C259.923 42.0405 259.998 41.5178 259.998 41.0058V40.0458H258.462ZM282.064 47.3418H279.184V45.1658H279.12C278.565 45.9765 277.797 46.6058 276.816 47.0538C275.856 47.5018 274.864 47.7258 273.84 47.7258C272.666 47.7258 271.6 47.5231 270.64 47.1178C269.701 46.7125 268.89 46.1471 268.208 45.4218C267.546 44.6965 267.034 43.8538 266.672 42.8938C266.309 41.9338 266.128 40.8885 266.128 39.7578C266.128 38.6271 266.309 37.5818 266.672 36.6218C267.034 35.6405 267.546 34.7978 268.208 34.0938C268.89 33.3685 269.701 32.8031 270.64 32.3978C271.6 31.9925 272.666 31.7898 273.84 31.7898C274.928 31.7898 275.952 32.0245 276.912 32.4938C277.872 32.9418 278.608 33.5605 279.12 34.3498H279.184V23.1498H282.064V47.3418ZM274.192 45.0378C274.96 45.0378 275.653 44.9098 276.272 44.6538C276.89 44.3765 277.413 44.0138 277.84 43.5658C278.266 43.0965 278.597 42.5418 278.832 41.9018C279.066 41.2405 279.184 40.5258 279.184 39.7578C279.184 38.9898 279.066 38.2858 278.832 37.6458C278.597 36.9845 278.266 36.4298 277.84 35.9818C277.413 35.5125 276.89 35.1498 276.272 34.8938C275.653 34.6165 274.96 34.4778 274.192 34.4778C273.424 34.4778 272.73 34.6165 272.112 34.8938C271.493 35.1498 270.97 35.5125 270.544 35.9818C270.117 36.4298 269.786 36.9845 269.552 37.6458C269.317 38.2858 269.2 38.9898 269.2 39.7578C269.2 40.5258 269.317 41.2405 269.552 41.9018C269.786 42.5418 270.117 43.0965 270.544 43.5658C270.97 44.0138 271.493 44.3765 272.112 44.6538C272.73 44.9098 273.424 45.0378 274.192 45.0378ZM286.65 32.1738H289.53V47.3418H286.65V32.1738ZM285.978 26.7338C285.978 26.1578 286.181 25.6671 286.586 25.2618C287.013 24.8351 287.514 24.6218 288.09 24.6218C288.666 24.6218 289.157 24.8351 289.562 25.2618C289.989 25.6671 290.202 26.1578 290.202 26.7338C290.202 27.3098 289.989 27.8111 289.562 28.2378C289.157 28.6431 288.666 28.8458 288.09 28.8458C287.514 28.8458 287.013 28.6431 286.586 28.2378C286.181 27.8111 285.978 27.3098 285.978 26.7338ZM307.554 47.3418H304.674V45.0058H304.61C304.247 45.8165 303.618 46.4778 302.722 46.9898C301.826 47.4805 300.791 47.7258 299.618 47.7258C298.871 47.7258 298.167 47.6085 297.506 47.3738C296.844 47.1605 296.258 46.8191 295.746 46.3498C295.255 45.8805 294.86 45.2831 294.562 44.5578C294.263 43.8111 294.114 42.9365 294.114 41.9338V32.1738H296.994V41.1338C296.994 41.8378 297.09 42.4458 297.282 42.9578C297.474 43.4485 297.73 43.8538 298.05 44.1738C298.37 44.4725 298.732 44.6965 299.138 44.8458C299.564 44.9738 300.002 45.0378 300.45 45.0378C301.047 45.0378 301.602 44.9418 302.114 44.7498C302.626 44.5578 303.074 44.2591 303.458 43.8538C303.842 43.4271 304.14 42.8938 304.354 42.2538C304.567 41.6138 304.674 40.8565 304.674 39.9818V32.1738H307.554V47.3418ZM319.959 35.9818C319.617 35.5551 319.191 35.2031 318.679 34.9258C318.188 34.6271 317.58 34.4778 316.855 34.4778C316.172 34.4778 315.575 34.6271 315.063 34.9258C314.572 35.2031 314.327 35.6191 314.327 36.1738C314.327 36.6218 314.465 36.9845 314.743 37.2618C315.041 37.5391 315.383 37.7631 315.767 37.9338C316.172 38.1045 316.599 38.2325 317.047 38.3178C317.495 38.4031 317.879 38.4778 318.199 38.5418C318.817 38.6911 319.393 38.8725 319.927 39.0858C320.481 39.2991 320.951 39.5765 321.335 39.9178C321.74 40.2591 322.049 40.6751 322.263 41.1658C322.497 41.6565 322.615 42.2538 322.615 42.9578C322.615 43.8111 322.433 44.5471 322.071 45.1658C321.708 45.7631 321.239 46.2538 320.663 46.6378C320.087 47.0218 319.425 47.2991 318.679 47.4698C317.953 47.6405 317.217 47.7258 316.471 47.7258C315.212 47.7258 314.103 47.5338 313.143 47.1498C312.204 46.7658 311.361 46.0618 310.615 45.0378L312.791 43.2458C313.26 43.7151 313.783 44.1311 314.359 44.4938C314.935 44.8565 315.639 45.0378 316.471 45.0378C316.833 45.0378 317.196 45.0058 317.559 44.9418C317.943 44.8565 318.273 44.7391 318.551 44.5898C318.849 44.4191 319.084 44.2165 319.255 43.9818C319.447 43.7258 319.543 43.4378 319.543 43.1178C319.543 42.6911 319.404 42.3391 319.127 42.0618C318.871 41.7845 318.551 41.5711 318.167 41.4218C317.804 41.2511 317.409 41.1231 316.983 41.0378C316.577 40.9311 316.215 40.8458 315.895 40.7818C315.276 40.6325 314.689 40.4618 314.135 40.2698C313.58 40.0778 313.089 39.8218 312.663 39.5018C312.236 39.1818 311.895 38.7765 311.639 38.2858C311.383 37.7951 311.255 37.1871 311.255 36.4618C311.255 35.6725 311.415 34.9898 311.735 34.4138C312.076 33.8165 312.513 33.3258 313.047 32.9418C313.601 32.5578 314.22 32.2698 314.903 32.0778C315.607 31.8858 316.311 31.7898 317.015 31.7898C318.039 31.7898 319.02 31.9818 319.959 32.3658C320.897 32.7498 321.644 33.3898 322.199 34.2858L319.959 35.9818Z" fill="black"/>
<path d="M121.58 65.1818H127.1C127.633 65.1818 128.16 65.2485 128.68 65.3818C129.2 65.5018 129.66 65.7085 130.06 66.0018C130.473 66.2818 130.807 66.6485 131.06 67.1018C131.313 67.5551 131.44 68.1018 131.44 68.7418C131.44 69.5418 131.213 70.2018 130.76 70.7218C130.307 71.2418 129.713 71.6151 128.98 71.8418V71.8818C129.42 71.9351 129.827 72.0618 130.2 72.2618C130.587 72.4485 130.913 72.6951 131.18 73.0018C131.447 73.2951 131.653 73.6418 131.8 74.0418C131.96 74.4285 132.04 74.8485 132.04 75.3018C132.04 76.0751 131.887 76.7218 131.58 77.2418C131.273 77.7485 130.867 78.1618 130.36 78.4818C129.867 78.7885 129.293 79.0085 128.64 79.1418C128 79.2751 127.347 79.3418 126.68 79.3418H121.58V65.1818ZM124.1 70.9418H126.4C127.24 70.9418 127.867 70.7818 128.28 70.4618C128.707 70.1285 128.92 69.6951 128.92 69.1618C128.92 68.5485 128.7 68.0951 128.26 67.8018C127.833 67.4951 127.14 67.3418 126.18 67.3418H124.1V70.9418ZM124.1 77.1818H126.42C126.74 77.1818 127.08 77.1618 127.44 77.1218C127.813 77.0818 128.153 76.9885 128.46 76.8418C128.767 76.6951 129.02 76.4885 129.22 76.2218C129.42 75.9418 129.52 75.5685 129.52 75.1018C129.52 74.3551 129.273 73.8351 128.78 73.5418C128.3 73.2485 127.547 73.1018 126.52 73.1018H124.1V77.1818ZM143.089 79.3418H140.809V77.8018H140.769C140.542 78.2818 140.195 78.7018 139.729 79.0618C139.262 79.4085 138.629 79.5818 137.829 79.5818C137.189 79.5818 136.642 79.4818 136.189 79.2818C135.749 79.0685 135.389 78.7885 135.109 78.4418C134.829 78.0818 134.629 77.6751 134.509 77.2218C134.389 76.7685 134.329 76.2951 134.329 75.8018V69.7418H136.729V74.6018C136.729 74.8685 136.742 75.1685 136.769 75.5018C136.795 75.8218 136.862 76.1285 136.969 76.4218C137.089 76.7018 137.262 76.9418 137.489 77.1418C137.729 77.3285 138.062 77.4218 138.489 77.4218C138.889 77.4218 139.222 77.3551 139.489 77.2218C139.769 77.0885 139.995 76.9085 140.169 76.6818C140.355 76.4551 140.489 76.1951 140.569 75.9018C140.649 75.6085 140.689 75.3018 140.689 74.9818V69.7418H143.089V79.3418ZM144.693 71.7818V69.7418H146.673V66.9618H149.073V69.7418H151.713V71.7818H149.073V75.9818C149.073 76.4618 149.16 76.8418 149.333 77.1218C149.52 77.4018 149.88 77.5418 150.413 77.5418C150.626 77.5418 150.86 77.5218 151.113 77.4818C151.366 77.4285 151.566 77.3485 151.713 77.2418V79.2618C151.46 79.3818 151.146 79.4618 150.773 79.5018C150.413 79.5551 150.093 79.5818 149.813 79.5818C149.173 79.5818 148.646 79.5085 148.233 79.3618C147.833 79.2285 147.513 79.0218 147.273 78.7418C147.046 78.4485 146.886 78.0885 146.793 77.6618C146.713 77.2351 146.673 76.7418 146.673 76.1818V71.7818H144.693ZM152.486 71.7818V69.7418H154.466V66.9618H156.866V69.7418H159.506V71.7818H156.866V75.9818C156.866 76.4618 156.953 76.8418 157.126 77.1218C157.313 77.4018 157.673 77.5418 158.206 77.5418C158.419 77.5418 158.653 77.5218 158.906 77.4818C159.159 77.4285 159.359 77.3485 159.506 77.2418V79.2618C159.253 79.3818 158.939 79.4618 158.566 79.5018C158.206 79.5551 157.886 79.5818 157.606 79.5818C156.966 79.5818 156.439 79.5085 156.026 79.3618C155.626 79.2285 155.306 79.0218 155.066 78.7418C154.839 78.4485 154.679 78.0885 154.586 77.6618C154.506 77.2351 154.466 76.7418 154.466 76.1818V71.7818H152.486ZM160.9 74.5418C160.9 73.7818 161.033 73.0951 161.3 72.4818C161.58 71.8551 161.953 71.3218 162.42 70.8818C162.886 70.4418 163.44 70.1018 164.08 69.8618C164.72 69.6218 165.4 69.5018 166.12 69.5018C166.84 69.5018 167.52 69.6218 168.16 69.8618C168.8 70.1018 169.353 70.4418 169.82 70.8818C170.286 71.3218 170.653 71.8551 170.92 72.4818C171.2 73.0951 171.34 73.7818 171.34 74.5418C171.34 75.3018 171.2 75.9951 170.92 76.6218C170.653 77.2351 170.286 77.7618 169.82 78.2018C169.353 78.6418 168.8 78.9818 168.16 79.2218C167.52 79.4618 166.84 79.5818 166.12 79.5818C165.4 79.5818 164.72 79.4618 164.08 79.2218C163.44 78.9818 162.886 78.6418 162.42 78.2018C161.953 77.7618 161.58 77.2351 161.3 76.6218C161.033 75.9951 160.9 75.3018 160.9 74.5418ZM163.3 74.5418C163.3 74.9151 163.36 75.2751 163.48 75.6218C163.613 75.9685 163.8 76.2751 164.04 76.5418C164.293 76.8085 164.593 77.0218 164.94 77.1818C165.286 77.3418 165.68 77.4218 166.12 77.4218C166.56 77.4218 166.953 77.3418 167.3 77.1818C167.646 77.0218 167.94 76.8085 168.18 76.5418C168.433 76.2751 168.62 75.9685 168.74 75.6218C168.873 75.2751 168.94 74.9151 168.94 74.5418C168.94 74.1685 168.873 73.8085 168.74 73.4618C168.62 73.1151 168.433 72.8085 168.18 72.5418C167.94 72.2751 167.646 72.0618 167.3 71.9018C166.953 71.7418 166.56 71.6618 166.12 71.6618C165.68 71.6618 165.286 71.7418 164.94 71.9018C164.593 72.0618 164.293 72.2751 164.04 72.5418C163.8 72.8085 163.613 73.1151 163.48 73.4618C163.36 73.8085 163.3 74.1685 163.3 74.5418ZM173.587 69.7418H175.867V71.2818H175.907C176.133 70.8018 176.48 70.3885 176.947 70.0418C177.413 69.6818 178.047 69.5018 178.847 69.5018C179.487 69.5018 180.027 69.6085 180.467 69.8218C180.92 70.0351 181.287 70.3151 181.567 70.6618C181.847 71.0085 182.047 71.4085 182.167 71.8618C182.287 72.3151 182.347 72.7885 182.347 73.2818V79.3418H179.947V74.4818C179.947 74.2151 179.933 73.9218 179.907 73.6018C179.88 73.2685 179.807 72.9618 179.687 72.6818C179.58 72.3885 179.407 72.1485 179.167 71.9618C178.927 71.7618 178.6 71.6618 178.187 71.6618C177.787 71.6618 177.447 71.7285 177.167 71.8618C176.9 71.9951 176.673 72.1751 176.487 72.4018C176.313 72.6285 176.187 72.8885 176.107 73.1818C176.027 73.4751 175.987 73.7818 175.987 74.1018V79.3418H173.587V69.7418ZM190.191 72.4018C189.724 71.7485 189.098 71.4218 188.311 71.4218C187.991 71.4218 187.678 71.5018 187.371 71.6618C187.064 71.8218 186.911 72.0818 186.911 72.4418C186.911 72.7351 187.038 72.9485 187.291 73.0818C187.544 73.2151 187.864 73.3285 188.251 73.4218C188.638 73.5151 189.051 73.6151 189.491 73.7218C189.944 73.8151 190.364 73.9685 190.751 74.1818C191.138 74.3818 191.458 74.6618 191.711 75.0218C191.964 75.3818 192.091 75.8751 192.091 76.5018C192.091 77.0751 191.964 77.5618 191.711 77.9618C191.471 78.3485 191.151 78.6618 190.751 78.9018C190.364 79.1418 189.924 79.3151 189.431 79.4218C188.938 79.5285 188.444 79.5818 187.951 79.5818C187.204 79.5818 186.518 79.4751 185.891 79.2618C185.264 79.0485 184.704 78.6618 184.211 78.1018L185.811 76.6018C186.118 76.9485 186.444 77.2351 186.791 77.4618C187.151 77.6751 187.584 77.7818 188.091 77.7818C188.264 77.7818 188.444 77.7618 188.631 77.7218C188.818 77.6818 188.991 77.6151 189.151 77.5218C189.311 77.4285 189.438 77.3151 189.531 77.1818C189.638 77.0351 189.691 76.8685 189.691 76.6818C189.691 76.3485 189.564 76.1018 189.311 75.9418C189.058 75.7818 188.738 75.6551 188.351 75.5618C187.964 75.4551 187.544 75.3618 187.091 75.2818C186.651 75.1885 186.238 75.0485 185.851 74.8618C185.464 74.6618 185.144 74.3885 184.891 74.0418C184.638 73.6951 184.511 73.2151 184.511 72.6018C184.511 72.0685 184.618 71.6085 184.831 71.2218C185.058 70.8218 185.351 70.4951 185.711 70.2418C186.071 69.9885 186.484 69.8018 186.951 69.6818C187.418 69.5618 187.891 69.5018 188.371 69.5018C189.011 69.5018 189.644 69.6151 190.271 69.8418C190.898 70.0551 191.404 70.4285 191.791 70.9618L190.191 72.4018ZM204.136 75.4418H199.196V73.4018H204.136V75.4418ZM211.922 76.8018L217.422 71.4818C217.582 71.3218 217.749 71.1551 217.922 70.9818C218.096 70.7951 218.249 70.6018 218.382 70.4018C218.529 70.2018 218.649 69.9951 218.742 69.7818C218.836 69.5551 218.882 69.3218 218.882 69.0818C218.882 68.7885 218.822 68.5285 218.702 68.3018C218.596 68.0751 218.449 67.8818 218.262 67.7218C218.076 67.5618 217.856 67.4418 217.602 67.3618C217.362 67.2685 217.102 67.2218 216.822 67.2218C216.222 67.2218 215.729 67.3951 215.342 67.7418C214.956 68.0885 214.722 68.5551 214.642 69.1418L212.122 68.9418C212.176 68.2885 212.329 67.7151 212.582 67.2218C212.849 66.7151 213.189 66.2951 213.602 65.9618C214.016 65.6285 214.496 65.3751 215.042 65.2018C215.589 65.0285 216.182 64.9418 216.822 64.9418C217.462 64.9418 218.056 65.0285 218.602 65.2018C219.162 65.3618 219.649 65.6085 220.062 65.9418C220.476 66.2618 220.802 66.6751 221.042 67.1818C221.282 67.6885 221.402 68.2818 221.402 68.9618C221.402 69.8551 221.196 70.6285 220.782 71.2818C220.382 71.9218 219.862 72.5351 219.222 73.1218L214.842 77.1818H221.402V79.3418H211.922V76.8018ZM229.278 76.4618H223.258V74.0818L228.958 65.1818H231.678V74.3018H233.738V76.4618H231.678V79.3418H229.278V76.4618ZM229.278 68.5818H229.238L225.698 74.3018H229.278V68.5818ZM235.774 69.7418H238.054V71.1818H238.094C238.441 70.5951 238.907 70.1685 239.494 69.9018C240.081 69.6351 240.714 69.5018 241.394 69.5018C242.127 69.5018 242.787 69.6351 243.374 69.9018C243.961 70.1551 244.461 70.5085 244.874 70.9618C245.287 71.4151 245.601 71.9485 245.814 72.5618C246.027 73.1751 246.134 73.8351 246.134 74.5418C246.134 75.2485 246.021 75.9085 245.794 76.5218C245.567 77.1351 245.247 77.6685 244.834 78.1218C244.434 78.5751 243.947 78.9351 243.374 79.2018C242.801 79.4551 242.174 79.5818 241.494 79.5818C241.041 79.5818 240.641 79.5351 240.294 79.4418C239.947 79.3485 239.641 79.2285 239.374 79.0818C239.107 78.9351 238.881 78.7818 238.694 78.6218C238.507 78.4485 238.354 78.2818 238.234 78.1218H238.174V83.9018H235.774V69.7418ZM243.734 74.5418C243.734 74.1685 243.667 73.8085 243.534 73.4618C243.414 73.1151 243.227 72.8085 242.974 72.5418C242.734 72.2751 242.441 72.0618 242.094 71.9018C241.747 71.7418 241.354 71.6618 240.914 71.6618C240.474 71.6618 240.081 71.7418 239.734 71.9018C239.387 72.0618 239.087 72.2751 238.834 72.5418C238.594 72.8085 238.407 73.1151 238.274 73.4618C238.154 73.8085 238.094 74.1685 238.094 74.5418C238.094 74.9151 238.154 75.2751 238.274 75.6218C238.407 75.9685 238.594 76.2751 238.834 76.5418C239.087 76.8085 239.387 77.0218 239.734 77.1818C240.081 77.3418 240.474 77.4218 240.914 77.4218C241.354 77.4218 241.747 77.3418 242.094 77.1818C242.441 77.0218 242.734 76.8085 242.974 76.5418C243.227 76.2751 243.414 75.9685 243.534 75.6218C243.667 75.2751 243.734 74.9151 243.734 74.5418ZM250.852 74.1818L247.532 69.7418H250.452L252.372 72.6218L254.452 69.7418H257.192L253.912 74.1818L257.772 79.3418H254.852L252.352 75.9018L249.832 79.3418H246.992L250.852 74.1818Z" fill="black"/>
</svg>
