<svg width="171" height="167" viewBox="0 0 171 167" fill="none" xmlns="http://www.w3.org/2000/svg">
<path d="M86.038 0H80.8186C36.4599 0 0.5 36.0004 0.5 80.4091V80.427C0.5 124.836 36.4599 160.836 80.8186 160.836H86.038C130.397 160.836 166.357 124.836 166.357 80.427V80.4091C166.357 36.0004 130.397 0 86.038 0Z" fill="#BD9AB0"/>
<path d="M107.831 62.8836C107.4 61.9499 106.773 61.088 106.342 60.1902C105.3 57.3121 104.772 54.2731 104.782 51.2119L101.069 58.5022C100.772 58.4932 100.477 58.5497 100.204 58.6676C99.931 58.7855 99.6875 58.962 99.4904 59.1846C98.02 60.5992 96.96 62.3864 96.4233 64.3561C95.9529 65.7551 95.854 67.2526 96.1363 68.7015C96.2859 69.43 96.604 70.1131 97.065 70.6963C97.526 71.2794 98.1171 71.7463 98.7909 72.0594C99.7948 72.4537 100.892 72.5473 101.948 72.3287C103.389 72.1096 104.739 71.4878 105.843 70.5349C106.947 69.582 107.761 68.3366 108.19 66.9418C108.511 65.5858 108.385 64.162 107.831 62.8836Z" fill="#F78B00"/>
<path d="M66.4159 71.916C66.7944 72.3314 67.2579 72.6603 67.7747 72.8803C68.2916 73.1003 68.8498 73.2063 69.4112 73.1909C70.5429 73.1463 71.6536 72.8713 72.6756 72.3829C73.2925 72.1573 73.8504 71.7952 74.3078 71.3234C76.4243 68.9352 75.1508 61.6629 71.0076 62.4889C67.6714 63.1353 63.9945 69.0071 66.4159 71.916Z" fill="#F78B00"/>
<path d="M99.8131 73.532L72.8728 69.7432L72.2988 135.625L100.62 132.393L99.8131 73.532Z" fill="#FACFC4"/>
<path d="M73.4468 73.891C74.0745 74.0886 76.0116 97.4499 100.028 99.2276L99.5979 71.6465L73.4468 73.891Z" fill="#EFB1A5"/>
<path d="M104.118 57.6043C101.84 72.3825 96.172 86.209 86.1815 86.3347C77.0699 86.5143 70.5949 71.9695 69.1062 57.1195C67.1691 37.9061 75.8502 31.9805 86.8452 31.9805C97.8401 31.9805 106.844 39.9531 104.118 57.6043Z" fill="#FACFC4"/>
<path d="M69.1422 55.0009C69.1422 55.0009 67.3486 53.4207 66.3442 55.4857C66.0751 56.0244 66.0392 56.9222 66.2365 60.3519C66.4159 63.4045 69.214 64.1407 70.4695 62.9197C70.5233 62.8838 69.1422 55.0009 69.1422 55.0009Z" fill="#FACFC4"/>
<path d="M102.97 55.8985C102.97 55.8985 104.979 54.2106 105.983 56.2935C106.248 57.9859 106.314 59.7034 106.181 61.4111C106.181 63.4581 104.226 64.7331 102.809 63.4043C102.773 63.3684 102.97 55.8985 102.97 55.8985Z" fill="#FACFC4"/>
<path d="M73.2852 54.4975C74.0564 52.1272 80.3341 51.6424 81.8228 53.7613L73.2852 54.4975Z" fill="#EFB1A5"/>
<path d="M90.8989 53.995C93.1589 51.8582 99.0958 52.1994 100.28 53.995H90.8989Z" fill="#EFB1A5"/>
<path d="M77.9489 59.4006C78.7513 59.4006 79.4018 58.7655 79.4018 57.982C79.4018 57.1986 78.7513 56.5635 77.9489 56.5635C77.1465 56.5635 76.4961 57.1986 76.4961 57.982C76.4961 58.7655 77.1465 59.4006 77.9489 59.4006Z" fill="#004753"/>
<path d="M95.2932 59.4006C96.0955 59.4006 96.746 58.7655 96.746 57.982C96.746 57.1986 96.0955 56.5635 95.2932 56.5635C94.4908 56.5635 93.8403 57.1986 93.8403 57.982C93.8403 58.7655 94.4908 59.4006 95.2932 59.4006Z" fill="#004753"/>
<path d="M93.4636 62.3455C93.6968 70.426 85.3564 67.517 85.3564 67.517L89.1769 65.9189C89.1769 65.6136 88.6926 55.989 88.6567 56.0787C88.6208 56.1685 93.2843 56.1685 93.4636 62.3455Z" fill="#EFB1A5"/>
<path d="M79.7602 33.8482C79.7602 33.8482 79.2222 56.3117 69.142 55.0009C63.3665 54.2647 63.1513 46.5434 68.6398 46.0227C69.142 46.0227 59.582 30.7597 69.4648 27.2582C76.2986 24.7622 79.7602 33.8482 79.7602 33.8482Z" fill="#F78B00"/>
<path d="M80.5135 42.8616C82.1278 45.0523 91.078 47.8715 91.921 36.918C91.6878 44.1006 92.7819 44.3161 94.7549 44.4418C97.1583 44.6034 97.2301 39.2524 97.248 38.157C97.3915 44.8907 99.2569 52.6658 105.032 56.4008C107.149 50.5649 106.485 37.6722 101.176 31.6568C95.8669 25.6413 87.9929 26.0543 84.1725 26.6828C77.5719 27.7063 76.5496 37.5645 80.5135 42.8616Z" fill="#F78B00"/>
<path d="M78.2359 35.5542C78.2359 34.4409 74.846 11.726 84.2984 11.1873C94.7194 10.5768 98.6474 30.9394 89.5358 34.9975C82.5765 38.1579 78.2359 35.5542 78.2359 35.5542Z" fill="#F78B00"/>
<path d="M84.1191 76.5488L90.7376 76.6566C90.7376 76.6566 90.343 78.2906 87.3835 78.4522C84.424 78.6138 84.1191 76.5488 84.1191 76.5488Z" fill="white"/>
<path d="M91.1859 75.2017C93.2893 75.4961 95.4286 75.4049 97.4994 74.9324C94.8807 74.7888 93.9122 68.7015 86.8453 68.5579C80.7111 68.4322 79.6708 73.7473 76.6934 74.5374C77.7714 75.0594 78.9578 75.3178 80.155 75.2915C81.5533 75.2832 82.9237 74.8988 84.1228 74.1785C85.3218 73.4583 86.3055 72.4287 86.9708 71.1975C87.0964 71.1436 88.621 74.681 91.1859 75.2017Z" fill="#F78B00"/>
<path d="M69.9494 56.9047C69.7837 56.8653 69.6102 56.873 69.4486 56.9269C69.287 56.9808 69.1436 57.0788 69.0346 57.21C68.8303 57.4669 68.689 57.7683 68.6221 58.0898C68.5104 58.3063 68.4521 58.5465 68.4521 58.7901C68.4521 59.0338 68.5104 59.2739 68.6221 59.4904C69.0346 60.0291 69.8776 59.9393 70.5592 59.7957" fill="#EFB1A5"/>
<path d="M103.454 61.3211C103.874 61.3296 104.283 61.1905 104.611 60.928C104.938 60.6655 105.164 60.2963 105.248 59.8846C105.267 59.6857 105.24 59.4852 105.169 59.2982C105.099 59.1113 104.987 58.943 104.841 58.8061C104.696 58.6693 104.521 58.5675 104.33 58.5085C104.14 58.4496 103.938 58.4351 103.741 58.4661" fill="#EFB1A5"/>
<path d="M72.4604 97.001C72.4604 97.001 80.4958 130.203 89.1411 130.203C96.1542 130.203 100.549 97.8809 100.549 97.8809C100.549 97.8809 150.573 114.904 152.331 120.003C154.088 125.103 153.03 125.624 153.03 125.624C153.03 125.624 129.121 161.285 84.6749 161.106C40.2289 160.926 21.2344 134.961 21.2344 134.961C21.2344 134.961 22.9204 124.187 25.0727 122.553C28.4986 119.824 72.4604 97.001 72.4604 97.001Z" fill="#009299"/>
</svg>
