<svg width="509" height="286" viewBox="0 0 509 286" fill="none" xmlns="http://www.w3.org/2000/svg">
<path opacity="0.08" d="M197.813 16.9L263.213 127.5C265.88 131.9 267.213 135.633 267.213 138.7C267.213 141.633 266.013 143.833 263.613 145.3C261.213 146.767 258.413 147.5 255.213 147.5H190.813C184.28 147.5 180.08 146.3 178.213 143.9C177.68 143.1 176.946 141.7 176.013 139.7L170.213 127.3C168.48 123.433 164.413 121.233 158.013 120.7H120.213C117.413 120.7 115.28 120.967 113.813 121.5C112.346 122.033 111.146 123.233 110.213 125.1L102.413 141.3C101.08 143.7 99.6131 145.367 98.0131 146.3C96.4131 147.1 94.0798 147.5 91.0131 147.5H73.0131C67.8131 147.5 65.0131 145.633 64.6131 141.9C64.4798 141.367 64.4131 140.833 64.4131 140.3C64.4131 137.233 65.4131 134.3 67.4131 131.5L130.013 21.1C136.013 10.7 145.746 5.49999 159.213 5.49999H175.213C185.88 5.49999 193.413 9.29999 197.813 16.9ZM133.013 68.1L123.813 86.3C123.28 87.5 123.013 88.5667 123.013 89.5C123.013 92.9667 124.68 94.7 128.013 94.7H146.213C149.013 94.7 150.946 94.0333 152.013 92.7C153.08 91.2333 153.613 89.9667 153.613 88.9C153.613 87.8333 153.413 86.7667 153.013 85.7L145.413 68.5C143.813 65.0333 141.746 63.3 139.213 63.3C136.68 63.3 134.613 64.9 133.013 68.1ZM351.81 76.3C343.943 76.3 340.01 82.1 340.01 93.7C340.01 105.167 343.81 110.9 351.41 110.9C354.743 110.9 357.61 110.033 360.01 108.3C362.543 106.433 363.81 103.833 363.81 100.5V86.7C363.81 83.5 362.543 80.9667 360.01 79.1C357.61 77.2333 354.877 76.3 351.81 76.3ZM427.01 55.3L427.41 116.7C427.41 130.033 427.343 140.167 427.21 147.1C427.077 154.033 425.077 160.3 421.21 165.9C417.343 171.5 412.077 175.9 405.41 179.1C392.343 185.1 374.943 188.1 353.21 188.1C331.477 188.1 313.677 185.167 299.81 179.3C296.477 177.833 294.01 176.233 292.41 174.5C290.943 172.9 290.21 169.967 290.21 165.7C290.21 161.567 291.01 158.5 292.61 156.5C294.343 154.5 296.343 153.5 298.61 153.5C300.877 153.5 303.677 154.3 307.01 155.9C317.277 160.967 327.543 163.5 337.81 163.5C342.477 163.5 346.677 162.967 350.41 161.9C354.143 160.967 357.41 158.967 360.21 155.9C363.143 152.833 364.61 148.9 364.61 144.1L364.41 133.5C364.41 132.167 364.01 131.5 363.21 131.5C362.81 131.5 362.41 131.7 362.01 132.1C351.343 142.367 339.61 147.5 326.81 147.5C314.01 147.5 303.277 143.433 294.61 135.3C286.077 127.167 281.81 114.3 281.81 96.7C281.81 79.1 286.877 65.8333 297.01 56.9C307.143 47.8333 319.543 43.3 334.21 43.3C348.877 43.3 359.743 47.9 366.81 57.1C366.943 53.6333 368.21 50.9667 370.61 49.1C373.01 47.2333 375.677 46.1667 378.61 45.9C381.543 45.6333 386.877 45.5 394.61 45.5L415.81 45.9C418.343 45.9 420.81 46.8333 423.21 48.7C425.743 50.4333 427.01 52.6333 427.01 55.3Z" fill="#121F39"/>
<path d="M158.019 166.78C150.339 166.78 144.259 164.839 139.779 160.956C135.342 157.031 133.123 151.505 133.123 144.38C133.123 140.028 133.827 136.209 135.235 132.924C136.686 129.639 138.712 127.015 141.315 125.052C146.478 121.169 153.283 119.228 161.731 119.228C167.192 119.228 172.654 119.975 178.115 121.468C180.206 122.151 181.251 123.836 181.251 126.524C181.251 130.193 180.099 132.028 177.795 132.028C177.411 132.028 176.152 131.857 174.019 131.516C171.886 131.175 170.392 131.004 169.539 131.004C166.51 131.004 164.163 132.071 162.499 134.204C160.878 136.295 160.067 138.812 160.067 141.756C160.067 144.657 160.835 147.217 162.371 149.436C163.907 151.655 165.998 152.807 168.643 152.892C170.435 152.977 173.614 153.02 178.179 153.02C180.398 153.02 181.614 154.065 181.827 156.156C181.955 156.924 182.019 157.713 182.019 158.524C182.019 159.292 181.955 160.081 181.827 160.892C181.571 162.428 180.376 163.559 178.243 164.284C176.11 164.967 173.038 165.543 169.027 166.012C165.016 166.524 161.347 166.78 158.019 166.78ZM188.5 162.492L188.372 141.564C188.372 135.164 188.436 128.935 188.564 122.876C188.607 121.468 188.863 120.423 189.332 119.74C189.844 119.057 190.804 118.716 192.212 118.716H204.5C205.908 118.716 206.847 119.057 207.316 119.74C207.828 120.38 208.127 121.575 208.212 123.324C208.34 125.031 208.447 129.639 208.532 137.148C211.86 133.777 215.849 132.092 220.5 132.092C225.193 132.092 228.884 133.244 231.572 135.548C234.26 137.852 235.625 141.031 235.668 145.084C235.753 149.137 235.796 152.764 235.796 155.964C235.796 159.164 235.775 161.319 235.732 162.428C235.689 163.537 235.391 164.348 234.836 164.86C234.324 165.329 233.3 165.564 231.764 165.564L219.476 165.692C218.111 165.692 217.151 165.457 216.596 164.988C216.084 164.476 215.828 163.729 215.828 162.748L215.892 147.132C215.892 145.852 215.572 144.892 214.932 144.252C214.292 143.612 213.481 143.292 212.5 143.292C211.561 143.292 210.708 143.633 209.94 144.316C209.172 144.956 208.767 145.873 208.724 147.068L208.34 162.492C208.297 163.303 207.913 163.985 207.188 164.54C206.463 165.095 205.567 165.415 204.5 165.5C203.476 165.585 202.324 165.628 201.044 165.628L192.084 165.5C191.273 165.5 190.463 165.223 189.652 164.668C188.884 164.071 188.5 163.345 188.5 162.492ZM265.392 131.9C279.302 131.9 286.32 136.423 286.448 145.468C286.534 149.308 286.576 152.828 286.576 156.028C286.576 159.228 286.555 161.383 286.512 162.492C286.47 163.601 286.171 164.412 285.616 164.924C285.104 165.393 284.08 165.628 282.544 165.628H268.976C267.611 165.628 266.672 165.393 266.16 164.924C265.648 164.412 265.371 163.665 265.328 162.684C265.328 162.641 265.307 162.577 265.264 162.492C265.264 162.364 265.264 162.257 265.264 162.172C262.448 165.073 258.608 166.524 253.744 166.524C250.374 166.524 247.494 165.692 245.104 164.028C242.758 162.321 241.584 159.996 241.584 157.052C241.584 154.065 242.416 151.697 244.08 149.948C245.787 148.156 247.792 146.94 250.096 146.3C252.443 145.66 254.939 145.34 257.584 145.34C260.272 145.34 262.896 145.596 265.456 146.108V145.852C265.456 143.719 265.03 142.183 264.176 141.244C263.366 140.305 262.022 139.836 260.144 139.836C258.31 139.836 256.774 140.007 255.536 140.348C254.299 140.647 253.36 140.967 252.72 141.308C250.971 142.332 249.755 142.844 249.072 142.844C248.39 142.844 247.771 142.524 247.216 141.884C246.704 141.244 246.448 140.263 246.448 138.94C246.448 137.575 246.683 136.636 247.152 136.124C247.664 135.612 248.454 135.1 249.52 134.588C253.232 132.796 258.523 131.9 265.392 131.9ZM262.384 158.076C264.262 158.076 265.222 157.713 265.264 156.988C265.35 155.58 265.392 153.724 265.392 151.42C265.392 150.524 264.71 150.076 263.344 150.076C261.979 150.076 260.87 150.417 260.016 151.1C259.163 151.74 258.736 152.7 258.736 153.98C258.736 155.26 259.078 156.263 259.76 156.988C260.486 157.713 261.36 158.076 262.384 158.076ZM322.015 162.748L322.079 147.132C322.079 145.852 321.759 144.892 321.119 144.252C320.479 143.612 319.669 143.292 318.687 143.292C317.749 143.292 316.874 143.633 316.063 144.316C315.295 144.956 314.911 145.873 314.911 147.068V150.972C314.911 156.604 314.783 160.444 314.527 162.492C314.399 163.217 314.037 163.857 313.439 164.412C312.842 164.967 311.775 165.308 310.239 165.436C308.746 165.521 307.253 165.564 305.759 165.564C304.266 165.564 301.727 165.479 298.143 165.308C297.119 165.265 296.309 164.967 295.711 164.412C295.114 163.857 294.773 163.217 294.687 162.492C294.389 159.719 294.239 155.473 294.239 149.756C294.239 144.039 294.325 140.135 294.495 138.044C294.666 135.911 294.986 134.524 295.455 133.884C295.925 133.244 296.885 132.924 298.335 132.924H310.815C312.266 132.924 313.226 133.244 313.695 133.884C314.207 134.524 314.527 135.612 314.655 137.148V137.212C317.941 133.799 321.93 132.092 326.623 132.092C331.359 132.092 335.071 133.244 337.759 135.548C340.447 137.852 341.813 141.031 341.855 145.084C341.941 149.137 341.983 152.764 341.983 155.964C341.983 159.164 341.962 161.319 341.919 162.428C341.877 163.537 341.578 164.348 341.023 164.86C340.511 165.329 339.487 165.564 337.951 165.564L325.663 165.692C324.298 165.692 323.338 165.457 322.783 164.988C322.271 164.476 322.015 163.729 322.015 162.748ZM370.044 142.716C367.527 142.716 366.268 144.572 366.268 148.284C366.268 151.953 367.484 153.788 369.916 153.788C370.983 153.788 371.9 153.511 372.668 152.956C373.479 152.359 373.884 151.527 373.884 150.46V146.044C373.884 145.02 373.479 144.209 372.668 143.612C371.9 143.015 371.025 142.716 370.044 142.716ZM394.108 135.996L394.236 155.644C394.236 159.911 394.215 163.153 394.172 165.372C394.129 167.591 393.489 169.596 392.252 171.388C391.015 173.18 389.329 174.588 387.196 175.612C383.015 177.532 377.447 178.492 370.492 178.492C363.537 178.492 357.841 177.553 353.404 175.676C352.337 175.207 351.548 174.695 351.036 174.14C350.567 173.628 350.332 172.689 350.332 171.324C350.332 170.001 350.588 169.02 351.1 168.38C351.655 167.74 352.295 167.42 353.02 167.42C353.745 167.42 354.641 167.676 355.708 168.188C358.993 169.809 362.279 170.62 365.564 170.62C367.057 170.62 368.401 170.449 369.596 170.108C370.791 169.809 371.836 169.169 372.732 168.188C373.671 167.207 374.14 165.948 374.14 164.412L374.076 161.02C374.076 160.593 373.948 160.38 373.692 160.38C373.564 160.38 373.436 160.444 373.308 160.572C369.895 163.857 366.14 165.5 362.044 165.5C357.948 165.5 354.513 164.199 351.74 161.596C349.009 158.993 347.644 154.876 347.644 149.244C347.644 143.612 349.265 139.367 352.508 136.508C355.751 133.607 359.719 132.156 364.412 132.156C369.105 132.156 372.583 133.628 374.844 136.572C374.887 135.463 375.292 134.609 376.06 134.012C376.828 133.415 377.681 133.073 378.62 132.988C379.559 132.903 381.265 132.86 383.74 132.86L390.524 132.988C391.335 132.988 392.124 133.287 392.892 133.884C393.703 134.439 394.108 135.143 394.108 135.996ZM420.743 149.5C420.743 154.279 422.002 156.668 424.519 156.668C427.036 156.668 428.295 154.279 428.295 149.5C428.295 147.324 428.039 145.66 427.527 144.508C427.015 143.313 426.012 142.716 424.519 142.716C423.026 142.716 422.023 143.313 421.511 144.508C420.999 145.66 420.743 147.324 420.743 149.5ZM448.391 149.5C448.391 161.105 440.434 166.908 424.519 166.908C408.604 166.908 400.647 161.105 400.647 149.5C400.647 143.996 402.674 139.729 406.727 136.7C410.78 133.671 416.711 132.156 424.519 132.156C432.327 132.156 438.258 133.671 442.311 136.7C446.364 139.729 448.391 143.996 448.391 149.5Z" fill="#121F39"/>
<path d="M13.184 215.7C20.1387 215.7 23.648 217.961 23.712 222.484C23.7547 224.404 23.776 226.164 23.776 227.764C23.776 229.364 23.7653 230.441 23.744 230.996C23.7227 231.551 23.5733 231.956 23.296 232.212C23.04 232.447 22.528 232.564 21.76 232.564H14.976C14.2933 232.564 13.824 232.447 13.568 232.212C13.312 231.956 13.1733 231.583 13.152 231.092C13.152 231.071 13.1413 231.039 13.12 230.996C13.12 230.932 13.12 230.879 13.12 230.836C11.712 232.287 9.792 233.012 7.36 233.012C5.67467 233.012 4.23467 232.596 3.04 231.764C1.86667 230.911 1.28 229.748 1.28 228.276C1.28 226.783 1.696 225.599 2.528 224.724C3.38133 223.828 4.384 223.22 5.536 222.9C6.70933 222.58 7.95733 222.42 9.28 222.42C10.624 222.42 11.936 222.548 13.216 222.804V222.676C13.216 221.609 13.0027 220.841 12.576 220.372C12.1707 219.903 11.4987 219.668 10.56 219.668C9.64267 219.668 8.87467 219.753 8.256 219.924C7.63733 220.073 7.168 220.233 6.848 220.404C5.97333 220.916 5.36533 221.172 5.024 221.172C4.68267 221.172 4.37333 221.012 4.096 220.692C3.84 220.372 3.712 219.881 3.712 219.22C3.712 218.537 3.82933 218.068 4.064 217.812C4.32 217.556 4.71467 217.3 5.248 217.044C7.104 216.148 9.74933 215.7 13.184 215.7ZM11.68 228.788C12.6187 228.788 13.0987 228.607 13.12 228.244C13.1627 227.54 13.184 226.612 13.184 225.46C13.184 225.012 12.8427 224.788 12.16 224.788C11.4773 224.788 10.9227 224.959 10.496 225.3C10.0693 225.62 9.856 226.1 9.856 226.74C9.856 227.38 10.0267 227.881 10.368 228.244C10.7307 228.607 11.168 228.788 11.68 228.788ZM39.7035 227.636C40.9622 227.636 41.5915 226.601 41.5915 224.532C41.5915 222.441 40.9622 221.396 39.7035 221.396C39.2128 221.396 38.7648 221.567 38.3595 221.908C37.9755 222.228 37.7835 222.687 37.7835 223.284V225.748C37.7835 226.345 37.9755 226.815 38.3595 227.156C38.7648 227.476 39.2128 227.636 39.7035 227.636ZM27.6715 230.996L27.6075 220.532C27.6075 217.332 27.6395 214.217 27.7035 211.188C27.7248 210.484 27.8528 209.961 28.0875 209.62C28.3435 209.279 28.8235 209.108 29.5275 209.108H35.6715C36.3755 209.108 36.8448 209.279 37.0795 209.62C37.3355 209.94 37.4955 210.655 37.5595 211.764C37.6448 212.873 37.6875 214.836 37.6875 217.652C37.6875 217.78 37.7195 217.887 37.7835 217.972C37.8475 218.036 37.9435 218.015 38.0715 217.908C39.5648 216.5 41.3675 215.796 43.4795 215.796C45.6128 215.796 47.3408 216.479 48.6635 217.844C50.0075 219.188 50.6795 221.385 50.6795 224.436C50.6795 227.465 50.0075 229.641 48.6635 230.964C47.3195 232.265 45.5595 232.916 43.3835 232.916C40.1835 232.916 38.1568 232.18 37.3035 230.708C37.2822 231.263 37.0795 231.689 36.6955 231.988C36.3115 232.287 35.8848 232.457 35.4155 232.5C34.9462 232.543 34.0928 232.564 32.8555 232.564L29.4635 232.5C29.0582 232.5 28.6528 232.361 28.2475 232.084C27.8635 231.785 27.6715 231.423 27.6715 230.996ZM67.0163 220.82C66.0136 220.82 65.2669 221.151 64.7763 221.812C64.2856 222.473 64.0403 223.295 64.0403 224.276C64.0403 225.257 64.3283 226.1 64.9043 226.804C65.4803 227.508 66.4083 227.86 67.6883 227.86C68.0936 227.86 68.6909 227.753 69.4803 227.54C70.2696 227.327 70.8243 227.22 71.1443 227.22C71.8909 227.22 72.2856 227.935 72.3283 229.364C72.3283 229.983 72.2856 230.559 72.2003 231.092C72.1363 231.625 71.7416 232.009 71.0163 232.244C68.8829 232.905 66.9949 233.236 65.3523 233.236C63.7309 233.236 62.3976 233.172 61.3523 233.044C60.3283 232.937 59.2829 232.703 58.2163 232.34C57.1709 231.977 56.2963 231.497 55.5923 230.9C54.9096 230.303 54.3443 229.503 53.8963 228.5C53.4696 227.476 53.2563 226.196 53.2563 224.66C53.2563 223.103 53.5869 221.716 54.2483 220.5C54.9309 219.284 55.8589 218.356 57.0323 217.716C59.2509 216.521 62.0243 215.924 65.3523 215.924C67.1443 215.924 68.9683 216.212 70.8243 216.788C71.6136 217.044 72.0083 217.908 72.0083 219.38C72.0083 220.831 71.6349 221.556 70.8883 221.556C70.5683 221.556 69.9816 221.439 69.1283 221.204C68.2963 220.948 67.5923 220.82 67.0163 220.82ZM85.6973 221.108C84.4386 221.108 83.8093 222.153 83.8093 224.244C83.8093 226.313 84.4386 227.348 85.6973 227.348C86.1879 227.348 86.6253 227.188 87.0093 226.868C87.4146 226.527 87.6173 226.057 87.6173 225.46V222.996C87.6173 222.399 87.4146 221.94 87.0093 221.62C86.6253 221.279 86.1879 221.108 85.6973 221.108ZM96.2573 232.436L92.8653 232.5C91.6279 232.5 90.7959 232.479 90.3693 232.436C89.0466 232.351 88.3853 231.604 88.3853 230.196C87.5959 231.092 86.5719 231.817 85.3133 232.372C84.0759 232.927 82.9346 233.204 81.8893 233.204C79.7559 233.204 77.9959 232.5 76.6093 231.092C75.2439 229.684 74.5613 227.508 74.5613 224.564C74.5613 220.895 75.8093 218.335 78.3053 216.884C79.6279 216.095 81.1746 215.7 82.9453 215.7C84.7159 215.7 86.2199 216.095 87.4573 216.884C87.8626 217.161 88.0866 217.076 88.1293 216.628C88.1719 216.159 88.1933 215.476 88.1933 214.58V211.924C88.1933 211.497 88.2039 211.071 88.2253 210.644C88.2466 210.196 88.3746 209.833 88.6093 209.556C88.8439 209.257 89.3239 209.108 90.0493 209.108H96.1933C96.8973 209.108 97.3666 209.279 97.6013 209.62C97.8573 209.961 97.9959 210.484 98.0173 211.188C98.0813 214.217 98.1133 217.311 98.1133 220.468C98.1133 220.468 98.0919 223.956 98.0493 230.932C98.0493 231.359 97.8466 231.721 97.4413 232.02C97.0573 232.297 96.6626 232.436 96.2573 232.436ZM106.055 217.204C107.036 216.713 108.039 216.361 109.063 216.148C110.108 215.935 111.388 215.828 112.903 215.828C114.439 215.828 115.9 216.02 117.287 216.404C118.673 216.767 119.708 217.268 120.391 217.908C121.585 219.081 122.183 220.457 122.183 222.036C122.183 224.511 120.092 225.748 115.911 225.748C114.439 225.748 112.913 225.609 111.335 225.332C111.399 226.74 111.655 227.732 112.103 228.308C112.572 228.884 113.393 229.172 114.567 229.172C115.74 229.172 116.711 229.044 117.479 228.788C118.247 228.532 118.865 228.276 119.335 228.02C119.804 227.743 120.199 227.604 120.519 227.604C120.86 227.604 121.148 227.753 121.383 228.052C121.745 228.436 121.927 228.969 121.927 229.652C121.927 230.313 121.788 230.772 121.511 231.028C121.255 231.263 120.839 231.497 120.263 231.732C118.236 232.585 115.356 233.012 111.623 233.012C108.529 233.012 105.98 232.276 103.975 230.804C101.991 229.311 100.999 227.305 100.999 224.788C100.999 223.572 101.223 222.463 101.671 221.46C102.119 220.436 102.716 219.593 103.463 218.932C104.209 218.249 105.073 217.673 106.055 217.204ZM113.479 219.476C112.177 219.476 111.473 220.532 111.367 222.644C112.391 222.729 112.924 222.772 112.967 222.772C114.375 222.772 115.079 222.303 115.079 221.364C115.079 220.105 114.545 219.476 113.479 219.476ZM139.533 221.332H136.557C136.173 221.332 135.981 221.556 135.981 222.004V230.388C135.981 231.113 135.853 231.647 135.597 231.988C135.341 232.329 134.839 232.5 134.093 232.5H127.853C127.106 232.5 126.605 232.34 126.349 232.02C126.114 231.679 125.975 231.135 125.933 230.388C125.847 228.575 125.805 225.908 125.805 222.388C125.805 221.897 125.762 221.599 125.677 221.492C125.591 221.364 125.431 221.3 125.197 221.3C124.471 221.3 124.109 220.649 124.109 219.348C124.109 218.58 124.215 218.068 124.429 217.812C124.642 217.556 124.973 217.417 125.421 217.396C125.549 217.396 125.666 217.343 125.773 217.236C125.879 217.129 125.933 217.012 125.933 216.884V216.212C125.933 211.988 128.493 209.588 133.613 209.012C134.637 208.884 135.917 208.82 137.453 208.82C139.01 208.82 140.653 209.108 142.381 209.684C143.127 209.94 143.501 210.804 143.501 212.276C143.501 213.727 143.159 214.452 142.477 214.452C142.178 214.452 141.645 214.335 140.877 214.1C140.109 213.844 139.458 213.716 138.925 213.716C137.943 213.716 137.207 213.993 136.717 214.548C136.226 215.081 135.981 215.743 135.981 216.532C135.981 217.108 136.215 217.396 136.685 217.396H139.565C140.077 217.396 140.461 217.513 140.717 217.748C140.973 217.983 141.101 218.527 141.101 219.38C141.101 220.212 140.973 220.745 140.717 220.98C140.482 221.215 140.087 221.332 139.533 221.332ZM155.291 221.108C154.032 221.108 153.403 222.036 153.403 223.892C153.403 225.727 154.011 226.644 155.227 226.644C155.76 226.644 156.219 226.505 156.603 226.228C157.008 225.929 157.211 225.513 157.211 224.98V222.772C157.211 222.26 157.008 221.855 156.603 221.556C156.219 221.257 155.782 221.108 155.291 221.108ZM167.323 217.748L167.387 227.572C167.387 229.705 167.376 231.327 167.355 232.436C167.334 233.545 167.014 234.548 166.395 235.444C165.776 236.34 164.934 237.044 163.867 237.556C161.776 238.516 158.992 238.996 155.515 238.996C152.038 238.996 149.19 238.527 146.971 237.588C146.438 237.353 146.043 237.097 145.787 236.82C145.552 236.564 145.435 236.095 145.435 235.412C145.435 234.751 145.563 234.26 145.819 233.94C146.096 233.62 146.416 233.46 146.779 233.46C147.142 233.46 147.59 233.588 148.123 233.844C149.766 234.655 151.408 235.06 153.051 235.06C153.798 235.06 154.47 234.975 155.067 234.804C155.664 234.655 156.187 234.335 156.635 233.844C157.104 233.353 157.339 232.724 157.339 231.956L157.307 230.26C157.307 230.047 157.243 229.94 157.115 229.94C157.051 229.94 156.987 229.972 156.923 230.036C155.216 231.679 153.339 232.5 151.291 232.5C149.243 232.5 147.526 231.849 146.139 230.548C144.774 229.247 144.091 227.188 144.091 224.372C144.091 221.556 144.902 219.433 146.523 218.004C148.144 216.553 150.128 215.828 152.475 215.828C154.822 215.828 156.56 216.564 157.691 218.036C157.712 217.481 157.915 217.055 158.299 216.756C158.683 216.457 159.11 216.287 159.579 216.244C160.048 216.201 160.902 216.18 162.139 216.18L165.531 216.244C165.936 216.244 166.331 216.393 166.715 216.692C167.12 216.969 167.323 217.321 167.323 217.748ZM171.457 230.996L171.393 220.532C171.393 217.332 171.425 214.217 171.489 211.188C171.51 210.484 171.638 209.961 171.873 209.62C172.129 209.279 172.609 209.108 173.312 209.108H179.457C180.161 209.108 180.63 209.279 180.865 209.62C181.121 209.94 181.27 210.537 181.313 211.412C181.377 212.265 181.43 214.569 181.473 218.324C183.137 216.639 185.131 215.796 187.457 215.796C189.803 215.796 191.649 216.372 192.993 217.524C194.337 218.676 195.019 220.265 195.041 222.292C195.083 224.319 195.105 226.132 195.105 227.732C195.105 229.332 195.094 230.409 195.073 230.964C195.051 231.519 194.902 231.924 194.625 232.18C194.369 232.415 193.857 232.532 193.089 232.532L186.944 232.596C186.262 232.596 185.782 232.479 185.505 232.244C185.249 231.988 185.121 231.615 185.121 231.124L185.153 223.316C185.153 222.676 184.993 222.196 184.673 221.876C184.353 221.556 183.947 221.396 183.457 221.396C182.987 221.396 182.561 221.567 182.177 221.908C181.793 222.228 181.59 222.687 181.569 223.284L181.377 230.996C181.355 231.401 181.163 231.743 180.801 232.02C180.438 232.297 179.99 232.457 179.457 232.5C178.945 232.543 178.369 232.564 177.729 232.564L173.249 232.5C172.843 232.5 172.438 232.361 172.033 232.084C171.649 231.785 171.457 231.423 171.457 230.996ZM200.687 216.308H206.927C207.652 216.308 208.132 216.468 208.367 216.788C208.623 217.108 208.783 217.823 208.847 218.932C208.932 220.02 208.975 222.025 208.975 224.948C208.975 227.849 208.911 229.897 208.783 231.092C208.719 231.455 208.537 231.775 208.239 232.052C207.94 232.329 207.407 232.489 206.639 232.532C205.892 232.596 204.996 232.628 203.951 232.628C202.905 232.628 201.956 232.596 201.103 232.532C200.249 232.489 199.673 232.329 199.375 232.052C199.076 231.775 198.905 231.455 198.863 231.092C198.713 229.705 198.639 227.583 198.639 224.724C198.639 221.844 198.681 219.881 198.767 218.836C198.852 217.791 199.012 217.108 199.247 216.788C199.481 216.468 199.961 216.308 200.687 216.308ZM204.143 208.756C205.551 208.756 206.607 209.044 207.311 209.62C208.036 210.175 208.399 210.943 208.399 211.924C208.399 214.228 206.863 215.38 203.791 215.38C202.553 215.38 201.497 215.113 200.623 214.58C199.748 214.047 199.311 213.247 199.311 212.18C199.311 209.897 200.921 208.756 204.143 208.756ZM223.578 224.436L223.45 230.612C223.45 233.556 222.266 235.561 219.898 236.628C217.786 237.588 214.821 238.068 211.002 238.068C210.32 238.068 209.872 237.855 209.658 237.428C209.424 237.023 209.306 236.308 209.306 235.284C209.306 234.281 209.701 233.737 210.49 233.652C212.453 233.417 213.434 232.372 213.434 230.516L213.402 218.42C213.402 217.695 213.53 217.161 213.786 216.82C214.042 216.479 214.544 216.308 215.29 216.308H221.53C222.277 216.308 222.768 216.479 223.002 216.82C223.258 217.14 223.408 217.673 223.45 218.42C223.536 220.233 223.578 222.239 223.578 224.436ZM218.746 208.756C220.154 208.756 221.21 209.044 221.914 209.62C222.64 210.175 223.002 210.943 223.002 211.924C223.002 214.228 221.466 215.38 218.394 215.38C217.157 215.38 216.101 215.113 215.226 214.58C214.352 214.047 213.914 213.247 213.914 212.18C213.914 209.897 215.525 208.756 218.746 208.756ZM246.172 232.532L242.652 232.5C241.841 232.5 241.276 232.255 240.956 231.764L237.98 227.028C237.809 226.9 237.703 226.857 237.66 226.9C237.639 226.921 237.617 227.284 237.596 227.988C237.596 228.671 237.543 229.716 237.436 231.124C237.393 231.465 237.223 231.775 236.924 232.052C236.625 232.329 236.113 232.489 235.388 232.532C234.684 232.575 233.82 232.596 232.796 232.596C231.793 232.596 230.673 232.564 229.436 232.5C228.924 232.479 228.519 232.34 228.22 232.084C227.943 231.807 227.783 231.487 227.74 231.124C227.527 228.521 227.42 225.044 227.42 220.692C227.42 216.34 227.505 213.172 227.676 211.188C227.74 210.463 227.879 209.94 228.092 209.62C228.327 209.279 228.796 209.108 229.5 209.108H235.644C236.348 209.108 236.817 209.279 237.052 209.62C237.287 209.94 237.436 210.463 237.5 211.188C237.628 213.044 237.692 216.159 237.692 220.532C237.692 221.023 237.777 221.268 237.948 221.268C238.055 221.268 238.172 221.204 238.3 221.076L242.492 217.236C242.855 216.916 243.153 216.713 243.388 216.628C243.623 216.521 243.953 216.468 244.38 216.468H249.052C249.329 216.468 249.532 216.649 249.66 217.012C249.703 217.097 249.724 217.225 249.724 217.396C249.724 217.567 249.617 217.759 249.404 217.972L244.956 221.876C244.785 222.047 244.785 222.228 244.956 222.42C246.983 224.809 249.137 227.604 251.42 230.804C251.655 231.124 251.772 231.412 251.772 231.668C251.772 232.201 251.377 232.468 250.588 232.468L246.172 232.532ZM256.719 209.108H262.863C263.567 209.108 264.036 209.279 264.271 209.62C264.505 209.94 264.655 210.463 264.719 211.188C264.847 213.748 264.911 217.289 264.911 221.812C264.911 226.313 264.825 229.417 264.655 231.124C264.612 231.465 264.441 231.775 264.143 232.052C263.844 232.329 263.311 232.489 262.543 232.532C261.796 232.596 260.911 232.628 259.887 232.628C258.863 232.628 257.945 232.607 257.135 232.564C255.748 232.457 255.023 231.977 254.959 231.124C254.745 229.268 254.639 225.983 254.639 221.268C254.639 216.532 254.724 213.172 254.895 211.188C254.959 210.463 255.097 209.94 255.311 209.62C255.545 209.279 256.015 209.108 256.719 209.108ZM296.156 231.124L296.188 223.316C296.188 222.676 296.028 222.196 295.708 221.876C295.388 221.556 294.982 221.396 294.492 221.396C294.022 221.396 293.585 221.567 293.18 221.908C292.796 222.228 292.604 222.687 292.604 223.284L292.636 227.924C292.636 229.396 292.625 230.409 292.604 230.964C292.582 231.519 292.433 231.924 292.156 232.18C291.9 232.415 291.388 232.532 290.62 232.532L284.476 232.596C283.793 232.596 283.313 232.479 283.036 232.244C282.78 231.988 282.652 231.615 282.652 231.124L282.684 223.316C282.684 222.676 282.524 222.196 282.204 221.876C281.884 221.556 281.478 221.396 280.988 221.396C280.518 221.396 280.081 221.567 279.676 221.908C279.292 222.228 279.1 222.687 279.1 223.284V225.236C279.1 228.052 279.036 229.972 278.908 230.996C278.844 231.359 278.662 231.679 278.364 231.956C278.065 232.233 277.532 232.404 276.764 232.468C276.017 232.511 275.27 232.532 274.524 232.532C273.777 232.532 272.508 232.489 270.716 232.404C270.204 232.383 269.798 232.233 269.5 231.956C269.201 231.679 269.03 231.359 268.988 230.996C268.838 229.609 268.764 227.487 268.764 224.628C268.764 221.769 268.806 219.817 268.892 218.772C268.977 217.705 269.137 217.012 269.372 216.692C269.606 216.372 270.086 216.212 270.812 216.212H277.052C277.777 216.212 278.257 216.372 278.492 216.692C278.748 217.012 278.908 217.556 278.972 218.324V218.356C280.614 216.649 282.705 215.796 285.244 215.796C286.801 215.796 288.156 216.095 289.308 216.692C290.46 217.289 291.313 218.164 291.868 219.316C292.572 218.164 293.532 217.289 294.748 216.692C295.985 216.095 297.318 215.796 298.748 215.796C300.924 215.796 302.684 216.372 304.028 217.524C305.372 218.676 306.054 220.265 306.076 222.292C306.118 224.319 306.14 226.132 306.14 227.732C306.14 229.332 306.129 230.409 306.108 230.964C306.086 231.519 305.937 231.924 305.66 232.18C305.404 232.415 304.892 232.532 304.124 232.532L297.98 232.596C297.297 232.596 296.817 232.479 296.54 232.244C296.284 231.988 296.156 231.615 296.156 231.124ZM323.558 231.124L323.59 223.316C323.59 222.676 323.43 222.196 323.11 221.876C322.79 221.556 322.385 221.396 321.894 221.396C321.425 221.396 320.987 221.567 320.582 221.908C320.198 222.228 320.006 222.687 320.006 223.284V225.236C320.006 228.052 319.942 229.972 319.814 230.996C319.75 231.359 319.569 231.679 319.27 231.956C318.971 232.233 318.438 232.404 317.67 232.468C316.923 232.511 316.177 232.532 315.43 232.532C314.683 232.532 313.414 232.489 311.622 232.404C311.11 232.383 310.705 232.233 310.406 231.956C310.107 231.679 309.937 231.359 309.894 230.996C309.745 229.609 309.67 227.487 309.67 224.628C309.67 221.769 309.713 219.817 309.798 218.772C309.883 217.705 310.043 217.012 310.278 216.692C310.513 216.372 310.993 216.212 311.718 216.212H317.958C318.683 216.212 319.163 216.372 319.398 216.692C319.654 217.012 319.814 217.556 319.878 218.324V218.356C321.521 216.649 323.515 215.796 325.862 215.796C328.23 215.796 330.086 216.372 331.43 217.524C332.774 218.676 333.457 220.265 333.478 222.292C333.521 224.319 333.542 226.132 333.542 227.732C333.542 229.332 333.531 230.409 333.51 230.964C333.489 231.519 333.339 231.924 333.062 232.18C332.806 232.415 332.294 232.532 331.526 232.532L325.382 232.596C324.699 232.596 324.219 232.479 323.942 232.244C323.686 231.988 323.558 231.615 323.558 231.124ZM352.084 214.772C351.359 214.772 350.527 214.463 349.588 213.844C348.671 213.204 347.999 212.884 347.572 212.884C347.167 212.884 346.847 212.991 346.612 213.204C346.378 213.396 346.143 213.737 345.908 214.228C345.716 214.42 345.514 214.516 345.3 214.516H343.252C342.975 214.516 342.836 214.271 342.836 213.78C342.836 212.223 343.295 211.007 344.212 210.132C345.151 209.257 346.388 208.82 347.924 208.82C348.65 208.82 349.471 209.14 350.388 209.78C351.327 210.399 351.999 210.708 352.404 210.708C352.831 210.708 353.162 210.612 353.396 210.42C353.631 210.207 353.866 209.855 354.1 209.364C354.292 209.172 354.495 209.076 354.708 209.076H356.756C357.034 209.076 357.172 209.321 357.172 209.812C357.172 211.369 356.703 212.585 355.764 213.46C354.847 214.335 353.62 214.772 352.084 214.772ZM350.964 231.124L350.996 223.316C350.996 222.676 350.836 222.196 350.516 221.876C350.196 221.556 349.791 221.396 349.3 221.396C348.831 221.396 348.394 221.567 347.988 221.908C347.604 222.228 347.412 222.687 347.412 223.284V225.236C347.412 228.052 347.348 229.972 347.22 230.996C347.156 231.359 346.975 231.679 346.676 231.956C346.378 232.233 345.844 232.404 345.076 232.468C344.33 232.511 343.583 232.532 342.836 232.532C342.09 232.532 340.82 232.489 339.028 232.404C338.516 232.383 338.111 232.233 337.812 231.956C337.514 231.679 337.343 231.359 337.3 230.996C337.151 229.609 337.076 227.487 337.076 224.628C337.076 221.769 337.119 219.817 337.204 218.772C337.29 217.705 337.45 217.012 337.684 216.692C337.919 216.372 338.399 216.212 339.124 216.212H345.364C346.09 216.212 346.57 216.372 346.804 216.692C347.06 217.012 347.22 217.556 347.284 218.324V218.356C348.927 216.649 350.922 215.796 353.268 215.796C355.636 215.796 357.492 216.372 358.836 217.524C360.18 218.676 360.863 220.265 360.884 222.292C360.927 224.319 360.948 226.132 360.948 227.732C360.948 229.332 360.938 230.409 360.916 230.964C360.895 231.519 360.746 231.924 360.468 232.18C360.212 232.415 359.7 232.532 358.932 232.532L352.788 232.596C352.106 232.596 351.626 232.479 351.348 232.244C351.092 231.988 350.964 231.615 350.964 231.124ZM374.203 224.5C374.203 226.889 374.832 228.084 376.091 228.084C377.35 228.084 377.979 226.889 377.979 224.5C377.979 223.412 377.851 222.58 377.595 222.004C377.339 221.407 376.838 221.108 376.091 221.108C375.344 221.108 374.843 221.407 374.587 222.004C374.331 222.58 374.203 223.412 374.203 224.5ZM388.027 224.5C388.027 230.303 384.048 233.204 376.091 233.204C368.134 233.204 364.155 230.303 364.155 224.5C364.155 221.748 365.168 219.615 367.195 218.1C369.222 216.585 372.187 215.828 376.091 215.828C379.995 215.828 382.96 216.585 384.987 218.1C387.014 219.615 388.027 221.748 388.027 224.5ZM403.361 227.636C404.619 227.636 405.249 226.601 405.249 224.532C405.249 222.441 404.619 221.396 403.361 221.396C402.87 221.396 402.422 221.567 402.017 221.908C401.633 222.228 401.441 222.687 401.441 223.284V225.748C401.441 226.345 401.633 226.815 402.017 227.156C402.422 227.476 402.87 227.636 403.361 227.636ZM393.121 216.212L399.009 216.244C399.521 216.244 399.969 216.404 400.353 216.724C400.737 217.023 400.939 217.46 400.961 218.036C401.793 217.289 402.795 216.724 403.969 216.34C405.163 215.956 406.337 215.764 407.489 215.764C409.494 215.764 411.137 216.479 412.417 217.908C413.697 219.316 414.337 221.46 414.337 224.34C414.337 225.983 414.113 227.391 413.665 228.564C413.217 229.716 412.609 230.601 411.841 231.22C410.369 232.351 408.609 232.916 406.561 232.916C404.534 232.916 402.945 232.255 401.793 230.932C401.643 230.783 401.526 230.74 401.441 230.804C401.377 230.868 401.345 230.964 401.345 231.092C401.345 232.607 401.281 234.26 401.153 236.052C401.11 236.756 400.971 237.257 400.737 237.556C400.502 237.876 400.022 238.036 399.297 238.036H393.153C392.449 238.036 391.969 237.865 391.713 237.524C391.478 237.183 391.35 236.66 391.329 235.956C391.286 233.929 391.265 231.337 391.265 228.18L391.329 217.716C391.329 217.289 391.521 216.937 391.905 216.66C392.31 216.361 392.715 216.212 393.121 216.212ZM427.697 221.108C426.439 221.108 425.809 222.153 425.809 224.244C425.809 226.313 426.439 227.348 427.697 227.348C428.188 227.348 428.625 227.188 429.009 226.868C429.415 226.527 429.617 226.057 429.617 225.46V222.996C429.617 222.399 429.415 221.94 429.009 221.62C428.625 221.279 428.188 221.108 427.697 221.108ZM439.729 217.748L439.793 228.212C439.793 230.345 439.761 232.927 439.697 235.956C439.676 236.66 439.537 237.183 439.281 237.524C439.047 237.865 438.577 238.036 437.873 238.036H431.729C431.004 238.036 430.524 237.897 430.289 237.62C429.905 237.129 429.713 234.953 429.713 231.092C429.713 230.964 429.681 230.868 429.617 230.804C429.553 230.719 429.457 230.729 429.329 230.836C427.644 232.415 425.777 233.204 423.729 233.204C421.703 233.204 419.996 232.521 418.609 231.156C417.244 229.791 416.561 227.636 416.561 224.692C416.561 223.071 416.807 221.663 417.297 220.468C417.788 219.252 418.46 218.324 419.313 217.684C420.935 216.447 422.855 215.828 425.073 215.828C427.292 215.828 428.967 216.564 430.097 218.036C430.119 217.481 430.321 217.055 430.705 216.756C431.089 216.457 431.516 216.287 431.985 216.244C432.455 216.201 433.308 216.18 434.545 216.18L437.937 216.244C438.343 216.244 438.737 216.393 439.121 216.692C439.527 216.969 439.729 217.321 439.729 217.748ZM445.687 216.212H451.927C452.652 216.212 453.153 216.372 453.431 216.692C453.708 216.991 453.847 217.449 453.847 218.068V219.22C455.041 216.959 456.983 215.828 459.671 215.828C460.567 215.828 461.303 216.116 461.879 216.692C462.455 217.268 462.743 218.036 462.743 218.996C462.743 219.956 462.487 220.916 461.975 221.876C461.463 222.815 460.748 223.284 459.831 223.284C459.404 223.284 458.807 223.071 458.039 222.644C457.271 222.196 456.652 221.972 456.183 221.972C455.713 221.972 455.223 222.143 454.711 222.484C454.22 222.825 453.975 223.391 453.975 224.18C453.975 227.615 453.911 229.887 453.783 230.996C453.719 231.359 453.537 231.679 453.239 231.956C452.94 232.233 452.407 232.404 451.639 232.468C450.892 232.511 450.145 232.532 449.399 232.532C448.652 232.532 447.383 232.489 445.591 232.404C445.079 232.383 444.673 232.233 444.375 231.956C444.076 231.679 443.905 231.359 443.863 230.996C443.713 229.609 443.639 227.487 443.639 224.628C443.639 221.769 443.681 219.817 443.767 218.772C443.852 217.705 444.012 217.012 444.247 216.692C444.481 216.372 444.961 216.212 445.687 216.212ZM471.71 228.308C471.71 227.711 471.454 227.241 470.942 226.9C470.451 226.559 469.843 226.303 469.118 226.132C468.414 225.94 467.699 225.727 466.974 225.492C466.249 225.236 465.63 224.809 465.118 224.212C464.627 223.593 464.382 222.783 464.382 221.78C464.382 217.812 467.465 215.828 473.63 215.828C476.275 215.828 478.398 216.276 479.998 217.172C480.51 217.449 480.873 217.716 481.086 217.972C481.299 218.207 481.406 218.633 481.406 219.252C481.406 219.871 481.278 220.34 481.022 220.66C480.787 220.959 480.542 221.108 480.286 221.108C480.051 221.108 479.518 220.873 478.686 220.404C477.875 219.913 477.033 219.657 476.158 219.636C475.454 219.636 475.102 219.988 475.102 220.692C475.102 221.161 475.347 221.535 475.838 221.812C476.329 222.089 476.926 222.335 477.63 222.548C478.334 222.74 479.038 222.985 479.742 223.284C480.446 223.561 481.043 224.041 481.534 224.724C482.025 225.385 482.27 226.228 482.27 227.252C482.27 231.22 479.187 233.204 473.022 233.204C470.014 233.204 467.561 232.767 465.662 231.892C465.086 231.657 464.67 231.423 464.414 231.188C464.158 230.932 464.03 230.484 464.03 229.844C464.03 229.183 464.158 228.713 464.414 228.436C464.691 228.159 464.915 228.02 465.086 228.02C465.278 228.02 465.897 228.255 466.942 228.724C467.987 229.193 469.043 229.428 470.11 229.428C471.177 229.428 471.71 229.055 471.71 228.308ZM486.827 220.852C486.827 220.511 486.592 220.34 486.123 220.34C485.291 220.34 484.8 220.063 484.651 219.508C484.565 219.231 484.523 218.804 484.523 218.228C484.523 217.652 484.597 217.247 484.747 217.012C484.917 216.756 485.227 216.575 485.674 216.468C486.144 216.34 486.56 216.137 486.923 215.86C487.307 215.561 488.075 214.921 489.227 213.94C490.4 212.959 491.211 212.319 491.659 212.02C492.128 211.721 492.704 211.572 493.387 211.572H494.987C495.733 211.572 496.235 211.668 496.491 211.86C496.747 212.031 496.875 212.308 496.875 212.692V215.732C496.875 216.18 497.067 216.404 497.451 216.404H500.875C501.429 216.404 501.824 216.521 502.059 216.756C502.315 216.991 502.443 217.535 502.443 218.388C502.443 219.22 502.315 219.753 502.059 219.988C501.803 220.223 501.419 220.34 500.907 220.34H497.579C497.28 220.34 497.088 220.415 497.003 220.564C496.917 220.713 496.875 220.927 496.875 221.204V225.044C496.917 225.769 497.184 226.377 497.675 226.868C498.187 227.359 498.901 227.604 499.819 227.604C500.267 227.604 500.821 227.487 501.483 227.252C502.144 226.996 502.592 226.868 502.827 226.868C503.403 226.868 503.691 227.721 503.691 229.428C503.691 230.665 503.36 231.412 502.699 231.668C502.016 231.903 501.056 232.095 499.819 232.244C498.581 232.393 497.344 232.468 496.107 232.468C494.869 232.468 493.685 232.372 492.555 232.18C491.445 231.967 490.432 231.604 489.515 231.092C487.723 230.047 486.827 228.052 486.827 225.108V220.852ZM11.584 256.62L11.552 264.428C11.552 265.047 11.6907 265.516 11.968 265.836C12.2453 266.156 12.5973 266.316 13.024 266.316C13.472 266.316 13.888 266.156 14.272 265.836C14.6773 265.495 14.9653 265.036 15.136 264.46V262.508C15.136 259.692 15.2 257.772 15.328 256.748C15.392 256.385 15.5733 256.065 15.872 255.788C16.1707 255.511 16.6933 255.351 17.44 255.308C18.208 255.244 18.9653 255.212 19.712 255.212C20.4587 255.212 21.728 255.255 23.52 255.34C24.032 255.361 24.4373 255.511 24.736 255.788C25.0347 256.065 25.2053 256.385 25.248 256.748C25.3973 258.135 25.472 260.268 25.472 263.148C25.472 266.007 25.4293 267.959 25.344 269.004C25.2587 270.049 25.0987 270.732 24.864 271.052C24.6293 271.372 24.1493 271.532 23.424 271.532H17.184C16.4587 271.532 15.968 271.372 15.712 271.052C15.4773 270.732 15.328 270.188 15.264 269.42V269.388C13.0667 271.073 10.8373 271.916 8.576 271.916C6.31467 271.916 4.59733 271.361 3.424 270.252C2.272 269.121 1.67467 267.532 1.632 265.484C1.61067 263.436 1.6 261.612 1.6 260.012C1.6 258.412 1.61067 257.335 1.632 256.78C1.65333 256.225 1.792 255.831 2.048 255.596C2.32533 255.34 2.848 255.212 3.616 255.212L9.76 255.148C10.4427 255.148 10.912 255.276 11.168 255.532C11.4453 255.767 11.584 256.129 11.584 256.62ZM28.0463 256.396C28.0463 255.628 28.4836 255.244 29.3583 255.244L36.3983 255.212C37.1023 255.212 37.6356 255.319 37.9983 255.532C38.3609 255.724 38.6809 256.129 38.9583 256.748L41.9343 262.316C42.0196 262.572 42.1903 262.7 42.4463 262.7C42.7023 262.7 42.8943 262.572 43.0223 262.316L46.0943 255.948C46.2649 255.564 46.4996 255.34 46.7983 255.276C46.8836 255.255 47.0329 255.244 47.2463 255.244L50.6063 255.212C50.9049 255.212 51.1076 255.351 51.2143 255.628C51.2783 255.756 51.3103 255.905 51.3103 256.076C51.3103 256.225 51.2569 256.396 51.1503 256.588C48.2489 262.561 45.8703 267.191 44.0143 270.476C43.6516 271.031 43.0756 271.457 42.2863 271.756C41.4969 272.055 40.6329 272.204 39.6943 272.204C37.6036 272.204 36.2063 271.671 35.5023 270.604C34.8196 269.516 34.0943 268.279 33.3263 266.892C32.5583 265.505 31.6836 263.873 30.7023 261.996C29.7209 260.119 28.9529 258.679 28.3983 257.676C28.1636 257.185 28.0463 256.759 28.0463 256.396ZM87.1055 255.244C87.5322 255.244 87.7455 255.511 87.7455 256.044C87.7455 256.215 87.6495 256.556 87.4575 257.068C87.2868 257.58 86.8922 258.721 86.2735 260.492C85.6762 262.241 85.2282 263.521 84.9295 264.332C84.0975 266.593 83.2122 268.641 82.2735 270.476C81.9748 271.031 81.4308 271.457 80.6415 271.756C79.8522 272.055 78.9348 272.204 77.8895 272.204C76.8442 272.204 75.8095 272.044 74.7855 271.724C73.7828 271.425 73.1108 270.956 72.7695 270.316C72.4282 269.655 71.9908 268.663 71.4575 267.34C70.9242 266.017 70.6042 265.249 70.4975 265.036C69.4095 267.98 68.6948 269.761 68.3535 270.38C68.0335 270.999 67.4788 271.457 66.6895 271.756C65.9002 272.055 64.9828 272.204 63.9375 272.204C62.8922 272.204 61.8575 272.044 60.8335 271.724C59.8308 271.425 59.1802 270.988 58.8815 270.412C57.0682 266.913 55.2335 262.668 53.3775 257.676C53.1855 257.143 53.0895 256.695 53.0895 256.332C53.0895 255.585 53.5055 255.212 54.3375 255.212H61.0575C61.8255 255.212 62.4122 255.319 62.8175 255.532C63.2228 255.724 63.4895 256.129 63.6175 256.748L65.0575 262.316C65.1215 262.572 65.2922 262.7 65.5695 262.7C65.8682 262.7 66.0602 262.572 66.1455 262.316L68.8335 256.652C69.2175 255.671 69.8682 255.18 70.7855 255.18H74.2415C74.9668 255.18 75.5108 255.287 75.8735 255.5C76.2575 255.692 76.5668 256.097 76.8015 256.716L79.0095 262.316C79.0948 262.572 79.2762 262.7 79.5535 262.7C79.8308 262.7 80.0122 262.572 80.0975 262.316L82.5935 255.98C82.7215 255.66 82.8602 255.457 83.0095 255.372C83.1802 255.265 83.4042 255.223 83.6815 255.244H87.1055ZM99.3823 255.212L99.8623 255.244C99.9263 255.244 99.9903 255.265 100.054 255.308C100.14 255.329 100.204 255.351 100.246 255.372C100.289 255.372 100.342 255.404 100.406 255.468C100.47 255.532 100.513 255.575 100.534 255.596C100.577 255.596 100.63 255.639 100.694 255.724C100.78 255.809 100.833 255.863 100.854 255.884C101.046 256.076 101.164 256.215 101.206 256.3C102.572 257.857 103.286 258.668 103.35 258.732C105.505 256.492 106.604 255.372 106.646 255.372C106.753 255.308 106.817 255.276 106.838 255.276L107.126 255.244H112.662C112.918 255.244 113.089 255.34 113.174 255.532C113.281 255.724 113.238 255.916 113.046 256.108L106.422 262.06C108.982 264.833 111.169 267.244 112.982 269.292C113.366 269.74 113.558 270.156 113.558 270.54C113.558 271.137 113.217 271.447 112.534 271.468C111.873 271.489 110.902 271.5 109.622 271.5L103.766 271.468C103.041 271.468 102.422 271.212 101.91 270.7L99.1263 267.724C96.8009 270.156 95.6169 271.372 95.5743 271.372C95.4676 271.436 95.4036 271.468 95.3823 271.468L95.0943 271.5H89.5903C89.3343 271.5 89.1743 271.436 89.1103 271.308C89.0463 271.18 89.0143 271.073 89.0143 270.988C89.0143 270.881 89.0783 270.764 89.2063 270.636L96.1183 264.46L89.6863 257.516C89.3449 257.111 89.1743 256.78 89.1743 256.524C89.1743 256.268 89.2169 256.065 89.3023 255.916C89.5369 255.447 89.9529 255.212 90.5503 255.212H99.3823ZM125.164 255.212L125.644 255.244C125.708 255.244 125.772 255.265 125.836 255.308C125.921 255.329 125.985 255.351 126.028 255.372C126.07 255.372 126.124 255.404 126.188 255.468C126.252 255.532 126.294 255.575 126.316 255.596C126.358 255.596 126.412 255.639 126.476 255.724C126.561 255.809 126.614 255.863 126.636 255.884C126.828 256.076 126.945 256.215 126.988 256.3C128.353 257.857 129.068 258.668 129.132 258.732C131.286 256.492 132.385 255.372 132.428 255.372C132.534 255.308 132.598 255.276 132.62 255.276L132.908 255.244H138.444C138.7 255.244 138.87 255.34 138.956 255.532C139.062 255.724 139.02 255.916 138.828 256.108L132.204 262.06C134.764 264.833 136.95 267.244 138.764 269.292C139.148 269.74 139.34 270.156 139.34 270.54C139.34 271.137 138.998 271.447 138.316 271.468C137.654 271.489 136.684 271.5 135.404 271.5L129.548 271.468C128.822 271.468 128.204 271.212 127.692 270.7L124.908 267.724C122.582 270.156 121.398 271.372 121.356 271.372C121.249 271.436 121.185 271.468 121.164 271.468L120.876 271.5H115.372C115.116 271.5 114.956 271.436 114.892 271.308C114.828 271.18 114.796 271.073 114.796 270.988C114.796 270.881 114.86 270.764 114.988 270.636L121.9 264.46L115.468 257.516C115.126 257.111 114.956 256.78 114.956 256.524C114.956 256.268 114.998 256.065 115.084 255.916C115.318 255.447 115.734 255.212 116.332 255.212H125.164ZM144.193 272.748C147.009 272.748 148.417 272.332 148.417 271.5C148.417 271.223 148.246 270.807 147.905 270.252C146.347 267.82 144.043 263.628 140.993 257.676C140.758 257.185 140.641 256.801 140.641 256.524C140.641 255.649 141.078 255.212 141.953 255.212H148.993C149.675 255.212 150.187 255.319 150.529 255.532C150.891 255.745 151.233 256.151 151.553 256.748L154.529 262.316C154.657 262.572 154.838 262.7 155.073 262.7C155.307 262.7 155.489 262.572 155.617 262.316L158.689 255.948C158.881 255.521 159.105 255.287 159.361 255.244C159.446 255.244 159.606 255.233 159.841 255.212H163.201C163.499 255.212 163.713 255.351 163.841 255.628C163.883 255.756 163.905 255.905 163.905 256.076C163.905 256.225 163.819 256.46 163.649 256.78C163.499 257.079 162.699 258.775 161.249 261.868C159.798 264.961 158.689 267.233 157.921 268.684C157.174 270.135 156.641 271.127 156.321 271.66C156.022 272.193 155.617 272.823 155.105 273.548C154.593 274.295 154.102 274.849 153.633 275.212C153.163 275.596 152.577 275.98 151.873 276.364C150.635 277.025 149.046 277.356 147.105 277.356C145.185 277.356 143.915 277.185 143.297 276.844C142.678 276.524 142.369 275.809 142.369 274.7C142.369 274.167 142.465 273.708 142.657 273.324C142.87 272.94 143.147 272.748 143.489 272.748H144.193ZM174.643 271.628L167.315 271.532C166.953 271.532 166.611 271.436 166.291 271.244C165.971 271.052 165.811 270.796 165.811 270.476V268.588C165.811 268.055 165.971 267.617 166.291 267.276C166.633 266.913 167.241 266.273 168.115 265.356C170.035 263.351 171.497 261.729 172.499 260.492C172.691 260.257 172.755 260.044 172.691 259.852C172.649 259.66 172.51 259.564 172.275 259.564H167.539C167.219 259.564 166.963 259.457 166.771 259.244C166.601 259.009 166.515 258.753 166.515 258.476V256.46C166.515 255.628 166.857 255.212 167.539 255.212C175.411 255.212 180.638 255.223 183.219 255.244C183.582 255.244 183.923 255.34 184.243 255.532C184.563 255.724 184.723 255.98 184.723 256.3V258.188C184.723 258.679 184.489 259.191 184.019 259.724C183.571 260.257 182.675 261.228 181.331 262.636C180.009 264.023 178.91 265.239 178.035 266.284C177.843 266.519 177.769 266.732 177.811 266.924C177.875 267.116 178.025 267.212 178.259 267.212H184.275C184.595 267.212 184.841 267.329 185.011 267.564C185.203 267.777 185.299 268.023 185.299 268.3V270.316C185.299 271.148 184.958 271.564 184.275 271.564L174.643 271.628ZM214.231 249.068C215.127 249.068 215.713 249.292 215.991 249.74C216.289 250.188 216.471 250.935 216.535 251.98C216.705 254.433 216.791 257.409 216.791 260.908C216.791 264.385 216.684 267.265 216.471 269.548C216.407 270.039 216.183 270.476 215.799 270.86C215.436 271.244 214.945 271.457 214.327 271.5C213.111 271.585 211.703 271.628 210.103 271.628C208.503 271.628 206.988 271.585 205.559 271.5C204.919 271.457 204.407 271.244 204.023 270.86C203.639 270.455 203.436 270.017 203.415 269.548C203.244 266.625 203.159 263.841 203.159 261.196C203.159 258.529 203.169 256.759 203.191 255.884L201.751 255.788C200.812 255.724 200.343 255.127 200.343 253.996C200.343 252.844 200.439 252.087 200.631 251.724C200.823 251.34 201.303 251.073 202.071 250.924C206.316 250.049 210.369 249.431 214.231 249.068ZM220.967 270.348L220.679 268.588C220.636 268.396 220.615 268.204 220.615 268.012C220.615 267.308 220.892 266.753 221.447 266.348C223.644 264.769 225.596 263.084 227.303 261.292C229.031 259.5 229.895 258.007 229.895 256.812C229.895 255.98 229.628 255.308 229.095 254.796C228.562 254.263 227.954 253.996 227.271 253.996C225.714 253.996 224.242 254.615 222.855 255.852C222.642 256.065 222.386 256.14 222.087 256.076C221.148 255.884 220.679 254.849 220.679 252.972C220.679 252.332 220.818 251.831 221.095 251.468C221.394 251.105 221.884 250.753 222.567 250.412C225.276 249.089 228.37 248.428 231.847 248.428C235.346 248.428 237.948 249.036 239.655 250.252C241.362 251.447 242.215 252.993 242.215 254.892C242.215 256.791 241.714 258.444 240.711 259.852C239.73 261.26 238.204 262.796 236.135 264.46C235.687 264.801 235.463 265.121 235.463 265.42C235.463 265.783 235.762 265.964 236.359 265.964C236.402 265.964 236.444 265.964 236.487 265.964L243.431 265.676C243.452 265.676 243.474 265.676 243.495 265.676C243.858 265.676 244.146 265.911 244.359 266.38C244.572 266.828 244.679 267.5 244.679 268.396C244.679 269.271 244.53 270.007 244.231 270.604C243.932 271.18 243.335 271.479 242.439 271.5C239.282 271.564 236.167 271.596 233.095 271.596C230.044 271.596 227.602 271.575 225.767 271.532C223.932 271.489 222.908 271.468 222.695 271.468C222.503 271.447 222.247 271.404 221.927 271.34C221.628 271.276 221.404 271.169 221.255 271.02C221.127 270.849 221.031 270.625 220.967 270.348ZM249.113 265.612L253.145 265.772C254.34 265.772 255.268 265.505 255.929 264.972C256.334 264.652 256.537 264.225 256.537 263.692C256.537 262.327 255.716 261.644 254.073 261.644C253.476 261.644 252.793 261.719 252.025 261.868C251.257 262.017 250.798 262.092 250.649 262.092C249.732 262.092 249.273 261.313 249.273 259.756C249.273 259.095 249.39 258.668 249.625 258.476C249.86 258.284 250.158 258.167 250.521 258.124C250.884 258.081 251.364 258.06 251.961 258.06C252.558 258.039 253.081 258.017 253.529 257.996C254.788 257.889 255.662 257.644 256.153 257.26C256.644 256.876 256.889 256.385 256.889 255.788C256.889 255.191 256.665 254.732 256.217 254.412C255.79 254.092 255.236 253.932 254.553 253.932C253.209 253.932 251.844 254.529 250.457 255.724C250.244 255.895 249.988 255.98 249.689 255.98C249.412 255.98 249.145 255.799 248.889 255.436C248.505 254.945 248.313 254.241 248.313 253.324C248.313 252.407 248.452 251.767 248.729 251.404C249.028 251.041 249.593 250.657 250.425 250.252C251.257 249.825 252.505 249.42 254.169 249.036C255.833 248.631 257.401 248.428 258.873 248.428C260.366 248.428 261.604 248.524 262.585 248.716C263.566 248.887 264.537 249.185 265.497 249.612C266.457 250.039 267.225 250.657 267.801 251.468C268.398 252.279 268.697 253.239 268.697 254.348C268.697 255.436 268.409 256.407 267.833 257.26C267.257 258.113 266.436 258.689 265.369 258.988C266.798 259.5 267.876 260.268 268.601 261.292C269.326 262.316 269.689 263.457 269.689 264.716C269.689 267.148 268.729 269.004 266.809 270.284C264.91 271.543 262.532 272.172 259.673 272.172C254.51 272.172 250.926 271.841 248.921 271.18C247.961 270.86 247.417 270.316 247.289 269.548C247.246 269.292 247.225 268.897 247.225 268.364C247.225 267.831 247.246 267.436 247.289 267.18C247.396 266.135 248.004 265.612 249.113 265.612ZM297.139 266.86L296.403 266.892C296.381 267.617 296.328 268.492 296.243 269.516C296.179 270.007 295.955 270.444 295.571 270.828C295.208 271.212 294.717 271.425 294.099 271.468C292.883 271.553 291.475 271.596 289.875 271.596C288.275 271.596 286.76 271.553 285.331 271.468C284.712 271.425 284.211 271.212 283.827 270.828C283.464 270.444 283.24 269.932 283.155 269.292C283.091 268.652 283.037 267.852 282.995 266.892H275.987C274.899 266.849 274.099 266.711 273.587 266.476C273.096 266.22 272.851 265.74 272.851 265.036L272.819 263.532C272.819 262.679 273.032 261.975 273.459 261.42C276.061 257.943 279.539 253.975 283.891 249.516C284.253 249.239 284.765 249.1 285.427 249.1H294.003C294.899 249.1 295.485 249.324 295.763 249.772C296.061 250.22 296.253 251.073 296.339 252.332C296.424 253.569 296.467 256.3 296.467 260.524V261.804H297.139C297.587 261.804 297.928 261.964 298.163 262.284C298.419 262.583 298.547 262.913 298.547 263.276V265.132C298.547 266.241 298.077 266.817 297.139 266.86ZM279.123 261.228C279.123 261.612 279.325 261.804 279.731 261.804H282.931V256.428C282.504 256.897 282.077 257.377 281.651 257.868C281.245 258.359 280.819 258.86 280.371 259.372C279.944 259.884 279.624 260.268 279.411 260.524C279.219 260.78 279.123 261.015 279.123 261.228ZM321.18 251.468C321.18 253.431 320.69 254.412 319.708 254.412L312.764 254.316C312.231 254.316 311.932 254.476 311.868 254.796C311.74 255.308 311.676 255.692 311.676 255.948C311.676 256.46 311.89 256.716 312.316 256.716C312.594 256.695 312.999 256.684 313.532 256.684C316.519 256.684 318.812 257.399 320.412 258.828C322.012 260.236 322.812 261.985 322.812 264.076C322.812 266.167 321.927 268.044 320.156 269.708C318.386 271.351 315.996 272.172 312.988 272.172C308.487 272.172 305.362 271.841 303.612 271.18C302.78 270.881 302.3 270.348 302.172 269.58C302.13 269.324 302.108 268.983 302.108 268.556C302.108 268.108 302.172 267.5 302.3 266.732C302.386 265.623 302.748 265.068 303.388 265.068C303.687 265.068 304.242 265.164 305.052 265.356C305.884 265.527 306.535 265.612 307.004 265.612C309.159 265.612 310.236 264.791 310.236 263.148C310.236 262.551 309.991 262.039 309.5 261.612C309.01 261.185 308.316 260.972 307.42 260.972C307.399 260.972 306.62 261.036 305.084 261.164C304.423 261.164 303.954 261.036 303.676 260.78C303.399 260.503 303.26 259.916 303.26 259.02C303.26 258.124 303.474 255.447 303.9 250.988C303.964 250.327 304.167 249.836 304.508 249.516C304.85 249.196 305.394 249.036 306.14 249.036L314.652 248.972C316.594 248.972 318.002 248.993 318.876 249.036C319.751 249.057 320.327 249.175 320.604 249.388C320.988 249.687 321.18 250.38 321.18 251.468ZM350.479 264.044C350.479 266.625 349.401 268.631 347.247 270.06C345.092 271.468 342.5 272.172 339.471 272.172C335.055 272.172 331.673 271.116 329.327 269.004C328.516 268.279 327.865 267.34 327.375 266.188C326.884 265.036 326.639 263.777 326.639 262.412C326.639 261.047 326.841 259.745 327.247 258.508C327.652 257.271 328.292 256.076 329.167 254.924C330.063 253.772 331.14 252.759 332.399 251.884C333.679 250.988 335.257 250.284 337.135 249.772C339.012 249.239 341.081 248.972 343.343 248.972C344.111 248.972 345.007 249.025 346.031 249.132C346.735 249.217 347.289 249.591 347.695 250.252C348.1 250.892 348.303 251.596 348.303 252.364C348.303 253.132 348.121 253.815 347.759 254.412C347.417 254.988 346.895 255.276 346.191 255.276C345.529 255.212 344.889 255.18 344.271 255.18C342.863 255.18 341.753 255.415 340.943 255.884C340.132 256.332 339.513 257.121 339.087 258.252C340.239 257.804 341.423 257.58 342.639 257.58C344.879 257.58 346.745 258.156 348.239 259.308C349.732 260.439 350.479 262.017 350.479 264.044ZM340.591 264.716C340.591 263.884 340.441 263.212 340.143 262.7C339.865 262.167 339.449 261.9 338.895 261.9C338.361 261.9 337.945 262.188 337.647 262.764C337.348 263.319 337.199 264.012 337.199 264.844C337.199 265.676 337.359 266.327 337.679 266.796C337.999 267.265 338.383 267.5 338.831 267.5C339.3 267.5 339.705 267.244 340.047 266.732C340.409 266.199 340.591 265.527 340.591 264.716ZM362.078 248.972L373.374 249.036C374.163 249.036 374.707 249.132 375.006 249.324C375.475 249.623 375.71 250.529 375.71 252.044C375.71 252.812 375.571 253.473 375.294 254.028C375.038 254.561 374.366 255.916 373.278 258.092C372.211 260.268 371.464 261.772 371.038 262.604C369.715 265.271 368.307 267.863 366.814 270.38C366.515 270.871 366.227 271.201 365.95 271.372C365.694 271.543 365.267 271.628 364.67 271.628C360.168 271.628 357.139 271.564 355.582 271.436C354.536 271.351 354.014 270.945 354.014 270.22C354.014 269.815 354.184 269.303 354.526 268.684C356.382 265.377 357.992 262.593 359.358 260.332C360.744 258.049 361.598 256.631 361.918 256.076C362.238 255.521 362.398 255.159 362.398 254.988C362.398 254.54 362.152 254.316 361.662 254.316C361.662 254.316 359.603 254.359 355.486 254.444C355.038 254.444 354.707 254.252 354.494 253.868C354.28 253.463 354.174 252.983 354.174 252.428C354.174 251.852 354.206 251.265 354.27 250.668C354.334 250.049 354.504 249.633 354.782 249.42C355.059 249.207 355.816 249.079 357.054 249.036C358.312 248.993 359.987 248.972 362.078 248.972ZM378.593 264.78C378.593 262.071 379.926 260.129 382.593 258.956C380.737 257.761 379.809 256.439 379.809 254.988C379.809 253.516 380.342 252.279 381.409 251.276C383.393 249.356 386.39 248.396 390.401 248.396C394.198 248.396 397.057 249.228 398.977 250.892C399.958 251.745 400.449 252.748 400.449 253.9C400.449 255.756 399.553 257.228 397.761 258.316C400.534 259.745 401.921 261.836 401.921 264.588C401.921 266.145 401.302 267.521 400.065 268.716C398.849 269.889 397.313 270.764 395.457 271.34C393.622 271.895 391.702 272.172 389.697 272.172C387.691 272.172 385.878 271.916 384.257 271.404C382.635 270.892 381.281 270.071 380.193 268.94C379.126 267.788 378.593 266.401 378.593 264.78ZM392.065 264.94C392.065 264.023 391.147 263.105 389.313 262.188C388.63 262.807 388.289 263.511 388.289 264.3C388.289 265.068 388.513 265.612 388.961 265.932C389.409 266.252 389.889 266.412 390.401 266.412C390.934 266.412 391.339 266.263 391.617 265.964C391.915 265.665 392.065 265.324 392.065 264.94ZM388.417 253.772C388.417 254.625 389.206 255.34 390.785 255.916C391.382 255.383 391.681 254.732 391.681 253.964C391.681 253.516 391.542 253.143 391.265 252.844C390.987 252.545 390.593 252.396 390.081 252.396C389.59 252.396 389.185 252.535 388.865 252.812C388.566 253.089 388.417 253.409 388.417 253.772ZM408.98 266.764L410.452 266.796C411.86 266.796 413.054 266.508 414.036 265.932C415.017 265.335 415.785 264.3 416.34 262.828C415.017 263.425 413.566 263.724 411.988 263.724C409.876 263.724 408.148 263.18 406.804 262.092C405.46 260.983 404.788 259.457 404.788 257.516C404.788 255.575 405.321 253.964 406.388 252.684C408.414 250.252 411.625 249.036 416.02 249.036C420.286 249.036 423.518 250.103 425.716 252.236C426.484 252.983 427.092 253.932 427.54 255.084C428.009 256.236 428.244 257.601 428.244 259.18C428.244 260.759 427.934 262.295 427.316 263.788C426.718 265.26 425.78 266.636 424.5 267.916C423.22 269.175 421.449 270.199 419.188 270.988C416.926 271.777 414.27 272.225 411.22 272.332H410.772C410.217 272.332 409.556 272.3 408.788 272.236C408.041 272.193 407.454 271.831 407.028 271.148C406.622 270.465 406.42 269.708 406.42 268.876C406.42 268.023 406.644 267.457 407.092 267.18C407.561 266.903 408.19 266.764 408.98 266.764ZM414.196 256.396C414.196 257.207 414.356 257.889 414.676 258.444C414.996 258.999 415.422 259.276 415.956 259.276C416.489 259.255 416.894 258.988 417.172 258.476C417.449 257.943 417.588 257.26 417.588 256.428C417.588 255.596 417.417 254.935 417.076 254.444C416.756 253.932 416.361 253.676 415.892 253.676C415.444 253.676 415.049 253.932 414.708 254.444C414.366 254.935 414.196 255.585 414.196 256.396ZM441.612 260.268C441.612 261.761 441.836 263.073 442.284 264.204C442.754 265.335 443.383 265.9 444.172 265.9C444.983 265.9 445.612 265.335 446.06 264.204C446.53 263.073 446.764 261.761 446.764 260.268C446.764 258.775 446.53 257.495 446.06 256.428C445.612 255.361 444.983 254.828 444.172 254.828C443.383 254.828 442.754 255.361 442.284 256.428C441.836 257.473 441.612 258.753 441.612 260.268ZM449.804 271.18C448.14 271.841 446.284 272.172 444.236 272.172C442.188 272.172 440.332 271.841 438.668 271.18C437.004 270.497 435.65 269.591 434.604 268.46C433.58 267.329 432.791 266.071 432.236 264.684C431.703 263.276 431.436 261.815 431.436 260.3C431.436 258.785 431.703 257.324 432.236 255.916C432.791 254.508 433.58 253.239 434.604 252.108C435.65 250.977 437.004 250.071 438.668 249.388C440.332 248.705 442.188 248.364 444.236 248.364C446.284 248.364 448.14 248.705 449.804 249.388C451.468 250.071 452.812 250.977 453.836 252.108C454.882 253.239 455.671 254.508 456.204 255.916C456.759 257.324 457.036 258.785 457.036 260.3C457.036 261.815 456.759 263.276 456.204 264.684C455.671 266.071 454.882 267.329 453.836 268.46C452.812 269.591 451.468 270.497 449.804 271.18Z" fill="#121F39"/>
</svg>
