<svg width="347" height="260" viewBox="0 0 347 260" fill="none" xmlns="http://www.w3.org/2000/svg">
<g opacity="0.95">
<path d="M16 68.9141C16 67.8095 16.8954 66.9141 18 66.9141H34C35.1046 66.9141 36 67.8095 36 68.9141V153.914H16V68.9141Z" fill="#3366CB"/>
<rect x="16" y="153.914" width="20" height="70" fill="#224282"/>
</g>
<rect x="25.791" y="229.914" width="0.417787" height="2" fill="#121F39"/>
<path d="M18.1543 236.826H18.1383L16.1863 240.042H18.1543V236.826ZM18.7303 240.042H19.5463V240.57H18.7303V241.914H18.1543V240.57H15.7063V239.914L17.9943 236.25H18.7303V240.042ZM22.1997 237.346C22.1997 237.234 22.1783 237.13 22.1357 237.034C22.0983 236.938 22.0423 236.853 21.9677 236.778C21.8983 236.703 21.813 236.645 21.7117 236.602C21.6103 236.559 21.501 236.538 21.3837 236.538C21.1437 236.538 20.949 236.618 20.7997 236.778C20.6503 236.933 20.5757 237.122 20.5757 237.346C20.5757 237.565 20.6503 237.751 20.7997 237.906C20.949 238.061 21.1437 238.138 21.3837 238.138C21.501 238.138 21.6103 238.117 21.7117 238.074C21.813 238.031 21.8983 237.975 21.9677 237.906C22.0423 237.831 22.0983 237.746 22.1357 237.65C22.1783 237.554 22.1997 237.453 22.1997 237.346ZM22.6797 237.346C22.6797 237.517 22.6477 237.674 22.5837 237.818C22.5197 237.957 22.429 238.079 22.3117 238.186C22.1997 238.293 22.0637 238.375 21.9037 238.434C21.749 238.493 21.5757 238.522 21.3837 238.522C21.197 238.522 21.0237 238.493 20.8637 238.434C20.709 238.375 20.573 238.293 20.4557 238.186C20.3437 238.079 20.2557 237.957 20.1917 237.818C20.1277 237.674 20.0957 237.517 20.0957 237.346C20.0957 237.175 20.1277 237.018 20.1917 236.874C20.2557 236.725 20.3437 236.597 20.4557 236.49C20.573 236.383 20.709 236.301 20.8637 236.242C21.0237 236.183 21.197 236.154 21.3837 236.154C21.5757 236.154 21.749 236.183 21.9037 236.242C22.0637 236.301 22.1997 236.383 22.3117 236.49C22.429 236.597 22.5197 236.725 22.5837 236.874C22.6477 237.018 22.6797 237.175 22.6797 237.346ZM26.4963 238.754H27.4243C27.6803 238.754 27.8963 238.727 28.0723 238.674C28.2537 238.621 28.3977 238.551 28.5043 238.466C28.611 238.375 28.6883 238.271 28.7363 238.154C28.7843 238.031 28.8083 237.901 28.8083 237.762C28.8083 237.629 28.7843 237.503 28.7363 237.386C28.6883 237.263 28.611 237.157 28.5043 237.066C28.3977 236.975 28.2537 236.906 28.0723 236.858C27.8963 236.805 27.6803 236.778 27.4243 236.778H26.4963V238.754ZM25.9203 236.25H27.5683C28.1443 236.25 28.5977 236.375 28.9283 236.626C29.2643 236.877 29.4323 237.255 29.4323 237.762C29.4323 238.269 29.2643 238.65 28.9283 238.906C28.5977 239.157 28.1443 239.282 27.5683 239.282H26.4963V241.914H25.9203V236.25ZM31.0901 238.754H32.1141C32.3701 238.754 32.5861 238.727 32.7621 238.674C32.9434 238.621 33.0874 238.551 33.1941 238.466C33.3008 238.375 33.3781 238.271 33.4261 238.154C33.4741 238.031 33.4981 237.901 33.4981 237.762C33.4981 237.629 33.4741 237.503 33.4261 237.386C33.3781 237.263 33.3008 237.157 33.1941 237.066C33.0874 236.975 32.9434 236.906 32.7621 236.858C32.5861 236.805 32.3701 236.778 32.1141 236.778H31.0901V238.754ZM31.0901 241.914H30.5141V236.25H32.2581C32.8341 236.25 33.2874 236.375 33.6181 236.626C33.9541 236.877 34.1221 237.255 34.1221 237.762C34.1221 238.157 33.9968 238.49 33.7461 238.762C33.5008 239.029 33.1434 239.183 32.6741 239.226L34.3061 241.914H33.6021L32.0501 239.282H31.0901V241.914ZM35.8323 241.914H35.2563V236.25H35.8323V241.914Z" fill="#121F39"/>
<g opacity="0.95">
<path d="M88.75 18.9141C88.75 17.8095 89.6454 16.9141 90.75 16.9141H106.75C107.855 16.9141 108.75 17.8095 108.75 18.9141V36.9141H88.75V18.9141Z" fill="#029FE4"/>
<rect x="88.75" y="36.9141" width="20" height="86" fill="#4080FF"/>
<rect x="88.75" y="122.914" width="20" height="41" fill="#3366CB"/>
<rect x="88.75" y="163.914" width="20" height="60" fill="#224282"/>
</g>
<rect x="98.541" y="229.914" width="0.417787" height="2" fill="#121F39"/>
<path d="M91.8723 236.778H89.5523L89.5203 238.482C89.643 238.434 89.7683 238.399 89.8963 238.378C90.0243 238.357 90.1523 238.346 90.2803 238.346C90.547 238.346 90.7897 238.391 91.0083 238.482C91.227 238.573 91.4137 238.701 91.5683 238.866C91.7283 239.026 91.851 239.218 91.9363 239.442C92.027 239.661 92.0723 239.901 92.0723 240.162C92.0723 240.434 92.0243 240.685 91.9283 240.914C91.8323 241.138 91.699 241.333 91.5283 241.498C91.3577 241.658 91.155 241.783 90.9203 241.874C90.691 241.965 90.4403 242.01 90.1683 242.01C89.811 242.01 89.4883 241.925 89.2003 241.754C88.9123 241.583 88.691 241.333 88.5363 241.002L89.1043 240.754C89.211 240.978 89.3603 241.157 89.5523 241.29C89.7443 241.418 89.9657 241.482 90.2163 241.482C90.3977 241.482 90.5657 241.45 90.7203 241.386C90.875 241.317 91.0083 241.226 91.1203 241.114C91.2377 241.002 91.3283 240.869 91.3923 240.714C91.4617 240.559 91.4963 240.394 91.4963 240.218C91.4963 240.021 91.4617 239.839 91.3923 239.674C91.323 239.509 91.227 239.367 91.1043 239.25C90.9817 239.127 90.835 239.034 90.6643 238.97C90.4937 238.906 90.307 238.874 90.1043 238.874C89.9017 238.874 89.699 238.903 89.4963 238.962C89.299 239.015 89.1097 239.09 88.9283 239.186L88.9843 236.25H91.8723V236.778ZM94.9497 237.346C94.9497 237.234 94.9283 237.13 94.8857 237.034C94.8483 236.938 94.7923 236.853 94.7177 236.778C94.6483 236.703 94.563 236.645 94.4617 236.602C94.3603 236.559 94.251 236.538 94.1337 236.538C93.8937 236.538 93.699 236.618 93.5497 236.778C93.4003 236.933 93.3257 237.122 93.3257 237.346C93.3257 237.565 93.4003 237.751 93.5497 237.906C93.699 238.061 93.8937 238.138 94.1337 238.138C94.251 238.138 94.3603 238.117 94.4617 238.074C94.563 238.031 94.6483 237.975 94.7177 237.906C94.7923 237.831 94.8483 237.746 94.8857 237.65C94.9283 237.554 94.9497 237.453 94.9497 237.346ZM95.4297 237.346C95.4297 237.517 95.3977 237.674 95.3337 237.818C95.2697 237.957 95.179 238.079 95.0617 238.186C94.9497 238.293 94.8137 238.375 94.6537 238.434C94.499 238.493 94.3257 238.522 94.1337 238.522C93.947 238.522 93.7737 238.493 93.6137 238.434C93.459 238.375 93.323 238.293 93.2057 238.186C93.0937 238.079 93.0057 237.957 92.9417 237.818C92.8777 237.674 92.8457 237.517 92.8457 237.346C92.8457 237.175 92.8777 237.018 92.9417 236.874C93.0057 236.725 93.0937 236.597 93.2057 236.49C93.323 236.383 93.459 236.301 93.6137 236.242C93.7737 236.183 93.947 236.154 94.1337 236.154C94.3257 236.154 94.499 236.183 94.6537 236.242C94.8137 236.301 94.9497 236.383 95.0617 236.49C95.179 236.597 95.2697 236.725 95.3337 236.874C95.3977 237.018 95.4297 237.175 95.4297 237.346ZM99.2463 238.754H100.174C100.43 238.754 100.646 238.727 100.822 238.674C101.004 238.621 101.148 238.551 101.254 238.466C101.361 238.375 101.438 238.271 101.486 238.154C101.534 238.031 101.558 237.901 101.558 237.762C101.558 237.629 101.534 237.503 101.486 237.386C101.438 237.263 101.361 237.157 101.254 237.066C101.148 236.975 101.004 236.906 100.822 236.858C100.646 236.805 100.43 236.778 100.174 236.778H99.2463V238.754ZM98.6703 236.25H100.318C100.894 236.25 101.348 236.375 101.678 236.626C102.014 236.877 102.182 237.255 102.182 237.762C102.182 238.269 102.014 238.65 101.678 238.906C101.348 239.157 100.894 239.282 100.318 239.282H99.2463V241.914H98.6703V236.25ZM103.84 238.754H104.864C105.12 238.754 105.336 238.727 105.512 238.674C105.693 238.621 105.837 238.551 105.944 238.466C106.051 238.375 106.128 238.271 106.176 238.154C106.224 238.031 106.248 237.901 106.248 237.762C106.248 237.629 106.224 237.503 106.176 237.386C106.128 237.263 106.051 237.157 105.944 237.066C105.837 236.975 105.693 236.906 105.512 236.858C105.336 236.805 105.12 236.778 104.864 236.778H103.84V238.754ZM103.84 241.914H103.264V236.25H105.008C105.584 236.25 106.037 236.375 106.368 236.626C106.704 236.877 106.872 237.255 106.872 237.762C106.872 238.157 106.747 238.49 106.496 238.762C106.251 239.029 105.893 239.183 105.424 239.226L107.056 241.914H106.352L104.8 239.282H103.84V241.914ZM108.582 241.914H108.006V236.25H108.582V241.914Z" fill="#121F39"/>
<g opacity="0.95">
<path d="M161.5 38.9141C161.5 37.8095 162.395 36.9141 163.5 36.9141H179.5C180.605 36.9141 181.5 37.8095 181.5 38.9141V122.914H161.5V38.9141Z" fill="#4080FF"/>
<rect x="161.5" y="122.914" width="20" height="87" fill="#3366CB"/>
<rect x="161.5" y="209.914" width="20" height="14" fill="#224282"/>
</g>
<rect x="171.291" y="229.914" width="0.417787" height="2" fill="#121F39"/>
<path d="M161.862 240.258C161.862 240.439 161.892 240.605 161.95 240.754C162.014 240.903 162.102 241.034 162.214 241.146C162.326 241.253 162.46 241.335 162.614 241.394C162.769 241.453 162.94 241.482 163.126 241.482C163.313 241.482 163.484 241.453 163.638 241.394C163.793 241.335 163.926 241.253 164.038 241.146C164.15 241.034 164.236 240.903 164.294 240.754C164.358 240.605 164.39 240.439 164.39 240.258C164.39 240.077 164.358 239.911 164.294 239.762C164.236 239.613 164.15 239.485 164.038 239.378C163.926 239.271 163.793 239.189 163.638 239.13C163.484 239.066 163.313 239.034 163.126 239.034C162.94 239.034 162.769 239.066 162.614 239.13C162.46 239.189 162.326 239.271 162.214 239.378C162.102 239.485 162.014 239.613 161.95 239.762C161.892 239.911 161.862 240.077 161.862 240.258ZM162.438 238.682L162.454 238.698C162.545 238.634 162.665 238.586 162.814 238.554C162.969 238.522 163.11 238.506 163.238 238.506C163.484 238.506 163.71 238.551 163.918 238.642C164.132 238.727 164.316 238.847 164.47 239.002C164.625 239.157 164.745 239.341 164.83 239.554C164.921 239.767 164.966 240.002 164.966 240.258C164.966 240.519 164.921 240.757 164.83 240.97C164.74 241.183 164.612 241.367 164.446 241.522C164.281 241.677 164.086 241.797 163.862 241.882C163.638 241.967 163.393 242.01 163.126 242.01C162.86 242.01 162.614 241.967 162.39 241.882C162.166 241.797 161.972 241.677 161.806 241.522C161.641 241.367 161.513 241.183 161.422 240.97C161.332 240.757 161.286 240.519 161.286 240.258C161.286 239.943 161.332 239.669 161.422 239.434C161.518 239.199 161.636 238.967 161.774 238.738L163.302 236.25H163.982L162.438 238.682ZM167.7 237.346C167.7 237.234 167.678 237.13 167.636 237.034C167.598 236.938 167.542 236.853 167.468 236.778C167.398 236.703 167.313 236.645 167.212 236.602C167.11 236.559 167.001 236.538 166.884 236.538C166.644 236.538 166.449 236.618 166.3 236.778C166.15 236.933 166.076 237.122 166.076 237.346C166.076 237.565 166.15 237.751 166.3 237.906C166.449 238.061 166.644 238.138 166.884 238.138C167.001 238.138 167.11 238.117 167.212 238.074C167.313 238.031 167.398 237.975 167.468 237.906C167.542 237.831 167.598 237.746 167.636 237.65C167.678 237.554 167.7 237.453 167.7 237.346ZM168.18 237.346C168.18 237.517 168.148 237.674 168.084 237.818C168.02 237.957 167.929 238.079 167.812 238.186C167.7 238.293 167.564 238.375 167.404 238.434C167.249 238.493 167.076 238.522 166.884 238.522C166.697 238.522 166.524 238.493 166.364 238.434C166.209 238.375 166.073 238.293 165.956 238.186C165.844 238.079 165.756 237.957 165.692 237.818C165.628 237.674 165.596 237.517 165.596 237.346C165.596 237.175 165.628 237.018 165.692 236.874C165.756 236.725 165.844 236.597 165.956 236.49C166.073 236.383 166.209 236.301 166.364 236.242C166.524 236.183 166.697 236.154 166.884 236.154C167.076 236.154 167.249 236.183 167.404 236.242C167.564 236.301 167.7 236.383 167.812 236.49C167.929 236.597 168.02 236.725 168.084 236.874C168.148 237.018 168.18 237.175 168.18 237.346ZM171.996 238.754H172.924C173.18 238.754 173.396 238.727 173.572 238.674C173.754 238.621 173.898 238.551 174.004 238.466C174.111 238.375 174.188 238.271 174.236 238.154C174.284 238.031 174.308 237.901 174.308 237.762C174.308 237.629 174.284 237.503 174.236 237.386C174.188 237.263 174.111 237.157 174.004 237.066C173.898 236.975 173.754 236.906 173.572 236.858C173.396 236.805 173.18 236.778 172.924 236.778H171.996V238.754ZM171.42 236.25H173.068C173.644 236.25 174.098 236.375 174.428 236.626C174.764 236.877 174.932 237.255 174.932 237.762C174.932 238.269 174.764 238.65 174.428 238.906C174.098 239.157 173.644 239.282 173.068 239.282H171.996V241.914H171.42V236.25ZM176.59 238.754H177.614C177.87 238.754 178.086 238.727 178.262 238.674C178.443 238.621 178.587 238.551 178.694 238.466C178.801 238.375 178.878 238.271 178.926 238.154C178.974 238.031 178.998 237.901 178.998 237.762C178.998 237.629 178.974 237.503 178.926 237.386C178.878 237.263 178.801 237.157 178.694 237.066C178.587 236.975 178.443 236.906 178.262 236.858C178.086 236.805 177.87 236.778 177.614 236.778H176.59V238.754ZM176.59 241.914H176.014V236.25H177.758C178.334 236.25 178.787 236.375 179.118 236.626C179.454 236.877 179.622 237.255 179.622 237.762C179.622 238.157 179.497 238.49 179.246 238.762C179.001 239.029 178.643 239.183 178.174 239.226L179.806 241.914H179.102L177.55 239.282H176.59V241.914ZM181.332 241.914H180.756V236.25H181.332V241.914Z" fill="#121F39"/>
<g opacity="0.95">
<path d="M234.25 38.9141C234.25 37.8095 235.145 36.9141 236.25 36.9141H252.25C253.355 36.9141 254.25 37.8095 254.25 38.9141V122.914H234.25V38.9141Z" fill="#4080FF"/>
<rect x="234.25" y="122.914" width="20" height="43" fill="#3366CB"/>
<rect x="234.25" y="165.914" width="20" height="58" fill="#224282"/>
</g>
<rect x="244.041" y="229.914" width="0.417787" height="2" fill="#121F39"/>
<path d="M234.229 241.914H233.653V236.97L232.637 237.866L232.277 237.434L233.717 236.25H234.229V241.914ZM238.243 237.346C238.243 237.234 238.221 237.13 238.179 237.034C238.141 236.938 238.085 236.853 238.011 236.778C237.941 236.703 237.856 236.645 237.755 236.602C237.653 236.559 237.544 236.538 237.427 236.538C237.187 236.538 236.992 236.618 236.843 236.778C236.693 236.933 236.619 237.122 236.619 237.346C236.619 237.565 236.693 237.751 236.843 237.906C236.992 238.061 237.187 238.138 237.427 238.138C237.544 238.138 237.653 238.117 237.755 238.074C237.856 238.031 237.941 237.975 238.011 237.906C238.085 237.831 238.141 237.746 238.179 237.65C238.221 237.554 238.243 237.453 238.243 237.346ZM238.723 237.346C238.723 237.517 238.691 237.674 238.627 237.818C238.563 237.957 238.472 238.079 238.355 238.186C238.243 238.293 238.107 238.375 237.947 238.434C237.792 238.493 237.619 238.522 237.427 238.522C237.24 238.522 237.067 238.493 236.907 238.434C236.752 238.375 236.616 238.293 236.499 238.186C236.387 238.079 236.299 237.957 236.235 237.818C236.171 237.674 236.139 237.517 236.139 237.346C236.139 237.175 236.171 237.018 236.235 236.874C236.299 236.725 236.387 236.597 236.499 236.49C236.616 236.383 236.752 236.301 236.907 236.242C237.067 236.183 237.24 236.154 237.427 236.154C237.619 236.154 237.792 236.183 237.947 236.242C238.107 236.301 238.243 236.383 238.355 236.49C238.472 236.597 238.563 236.725 238.627 236.874C238.691 237.018 238.723 237.175 238.723 237.346ZM242.539 241.386H245.571V241.914H241.963V236.25H245.475V236.778H242.539V238.706H245.283V239.234H242.539V241.386ZM249.386 237.186C249.135 236.818 248.77 236.634 248.289 236.634C248.14 236.634 247.994 236.655 247.85 236.698C247.706 236.735 247.575 236.797 247.458 236.882C247.346 236.962 247.255 237.069 247.186 237.202C247.116 237.33 247.082 237.482 247.082 237.658C247.082 237.914 247.154 238.114 247.298 238.258C247.442 238.397 247.62 238.511 247.834 238.602C248.047 238.693 248.279 238.775 248.53 238.85C248.786 238.919 249.02 239.015 249.234 239.138C249.447 239.255 249.626 239.413 249.77 239.61C249.914 239.807 249.986 240.077 249.986 240.418C249.986 240.674 249.93 240.906 249.818 241.114C249.711 241.317 249.567 241.487 249.386 241.626C249.21 241.765 249.01 241.871 248.786 241.946C248.567 242.021 248.346 242.058 248.122 242.058C247.775 242.058 247.444 241.994 247.13 241.866C246.82 241.733 246.556 241.517 246.338 241.218L246.858 240.842C246.98 241.05 247.151 241.218 247.37 241.346C247.588 241.469 247.847 241.53 248.146 241.53C248.29 241.53 248.434 241.509 248.578 241.466C248.722 241.418 248.85 241.351 248.962 241.266C249.079 241.175 249.175 241.066 249.25 240.938C249.324 240.81 249.362 240.663 249.362 240.498C249.362 240.301 249.319 240.138 249.234 240.01C249.154 239.877 249.044 239.767 248.906 239.682C248.772 239.591 248.618 239.517 248.442 239.458C248.271 239.399 248.092 239.341 247.906 239.282C247.724 239.223 247.546 239.157 247.37 239.082C247.199 239.007 247.044 238.914 246.906 238.802C246.772 238.685 246.663 238.541 246.578 238.37C246.498 238.194 246.458 237.975 246.458 237.714C246.458 237.442 246.508 237.205 246.61 237.002C246.716 236.799 246.855 236.631 247.026 236.498C247.202 236.365 247.399 236.266 247.618 236.202C247.836 236.138 248.06 236.106 248.289 236.106C248.61 236.106 248.9 236.157 249.162 236.258C249.423 236.359 249.666 236.538 249.89 236.794L249.386 237.186ZM256.047 239.082C256.047 238.757 255.993 238.447 255.887 238.154C255.78 237.855 255.625 237.594 255.423 237.37C255.225 237.146 254.983 236.967 254.695 236.834C254.407 236.701 254.081 236.634 253.719 236.634C253.356 236.634 253.031 236.701 252.743 236.834C252.455 236.967 252.209 237.146 252.007 237.37C251.809 237.594 251.657 237.855 251.551 238.154C251.444 238.447 251.391 238.757 251.391 239.082C251.391 239.407 251.444 239.719 251.551 240.018C251.657 240.311 251.809 240.57 252.007 240.794C252.209 241.018 252.455 241.197 252.743 241.33C253.031 241.463 253.356 241.53 253.719 241.53C254.081 241.53 254.407 241.463 254.695 241.33C254.983 241.197 255.225 241.018 255.423 240.794C255.625 240.57 255.78 240.311 255.887 240.018C255.993 239.719 256.047 239.407 256.047 239.082ZM256.671 239.082C256.671 239.514 256.596 239.911 256.447 240.274C256.297 240.637 256.089 240.951 255.823 241.218C255.561 241.479 255.249 241.685 254.887 241.834C254.529 241.983 254.14 242.058 253.719 242.058C253.297 242.058 252.905 241.983 252.543 241.834C252.185 241.685 251.873 241.479 251.607 241.218C251.345 240.951 251.14 240.637 250.991 240.274C250.841 239.911 250.767 239.514 250.767 239.082C250.767 238.65 250.841 238.253 250.991 237.89C251.14 237.527 251.345 237.215 251.607 236.954C251.873 236.687 252.185 236.479 252.543 236.33C252.905 236.181 253.297 236.106 253.719 236.106C254.14 236.106 254.529 236.181 254.887 236.33C255.249 236.479 255.561 236.687 255.823 236.954C256.089 237.215 256.297 237.527 256.447 237.89C256.596 238.253 256.671 238.65 256.671 239.082Z" fill="#121F39"/>
<g filter="url(#filter0_ddi_1260_13344)">
<rect x="291" y="8.91406" width="52" height="243" rx="8" fill="#F7F8FF"/>
<g opacity="0.95">
<path d="M307 138.914C307 137.809 307.895 136.914 309 136.914H325C326.105 136.914 327 137.809 327 138.914V153.914H307V138.914Z" fill="#3366CB"/>
<rect x="307" y="153.914" width="20" height="70" fill="#224282"/>
</g>
<rect x="316.791" y="229.914" width="0.417787" height="2" fill="#121F39"/>
<path d="M304.257 240.898L306.457 238.77C306.521 238.706 306.588 238.639 306.657 238.57C306.726 238.495 306.788 238.418 306.841 238.338C306.9 238.258 306.948 238.175 306.985 238.09C307.022 237.999 307.041 237.906 307.041 237.81C307.041 237.693 307.017 237.589 306.969 237.498C306.926 237.407 306.868 237.33 306.793 237.266C306.718 237.202 306.63 237.154 306.529 237.122C306.433 237.085 306.329 237.066 306.217 237.066C305.977 237.066 305.78 237.135 305.625 237.274C305.47 237.413 305.377 237.599 305.345 237.834L304.337 237.754C304.358 237.493 304.42 237.263 304.521 237.066C304.628 236.863 304.764 236.695 304.929 236.562C305.094 236.429 305.286 236.327 305.505 236.258C305.724 236.189 305.961 236.154 306.217 236.154C306.473 236.154 306.71 236.189 306.929 236.258C307.153 236.322 307.348 236.421 307.513 236.554C307.678 236.682 307.809 236.847 307.905 237.05C308.001 237.253 308.049 237.49 308.049 237.762C308.049 238.119 307.966 238.429 307.801 238.69C307.641 238.946 307.433 239.191 307.177 239.426L305.425 241.05H308.049V241.914H304.257V240.898ZM310.096 238.514C309.909 238.514 309.733 238.487 309.568 238.434C309.408 238.375 309.266 238.295 309.144 238.194C309.026 238.087 308.933 237.962 308.864 237.818C308.794 237.674 308.762 237.514 308.768 237.338C308.768 237.162 308.802 237.002 308.872 236.858C308.941 236.714 309.034 236.591 309.152 236.49C309.274 236.383 309.416 236.301 309.576 236.242C309.736 236.183 309.909 236.154 310.096 236.154C310.282 236.154 310.458 236.183 310.624 236.242C310.789 236.301 310.933 236.383 311.056 236.49C311.178 236.591 311.274 236.714 311.344 236.858C311.413 237.002 311.448 237.162 311.448 237.338C311.448 237.514 311.413 237.674 311.344 237.818C311.274 237.962 311.178 238.087 311.056 238.194C310.933 238.295 310.789 238.375 310.624 238.434C310.458 238.487 310.282 238.514 310.096 238.514ZM310.096 237.938C310.208 237.938 310.306 237.919 310.392 237.882C310.477 237.845 310.546 237.797 310.6 237.738C310.658 237.679 310.701 237.615 310.728 237.546C310.76 237.477 310.776 237.407 310.776 237.338C310.776 237.269 310.76 237.199 310.728 237.13C310.701 237.055 310.658 236.989 310.6 236.93C310.546 236.871 310.477 236.823 310.392 236.786C310.306 236.749 310.208 236.73 310.096 236.73C309.984 236.73 309.885 236.749 309.8 236.786C309.714 236.823 309.642 236.871 309.584 236.93C309.53 236.989 309.49 237.055 309.464 237.13C309.437 237.199 309.424 237.269 309.424 237.338C309.424 237.407 309.437 237.477 309.464 237.546C309.49 237.615 309.53 237.679 309.584 237.738C309.642 237.797 309.714 237.845 309.8 237.882C309.885 237.919 309.984 237.938 310.096 237.938ZM314.698 236.25H318.45V237.162H315.706V238.554H318.306V239.466H315.706V241.002H318.594V241.914H314.698V236.25ZM322.365 237.466C322.258 237.311 322.114 237.199 321.933 237.13C321.757 237.055 321.57 237.018 321.373 237.018C321.256 237.018 321.141 237.031 321.029 237.058C320.922 237.085 320.824 237.127 320.733 237.186C320.648 237.245 320.578 237.322 320.525 237.418C320.472 237.509 320.445 237.618 320.445 237.746C320.445 237.938 320.512 238.085 320.645 238.186C320.778 238.287 320.944 238.375 321.141 238.45C321.338 238.525 321.554 238.597 321.789 238.666C322.024 238.735 322.24 238.831 322.437 238.954C322.634 239.077 322.8 239.239 322.933 239.442C323.066 239.645 323.133 239.914 323.133 240.25C323.133 240.554 323.077 240.821 322.965 241.05C322.853 241.274 322.701 241.461 322.509 241.61C322.322 241.759 322.104 241.871 321.853 241.946C321.602 242.021 321.338 242.058 321.061 242.058C320.709 242.058 320.37 241.999 320.045 241.882C319.72 241.765 319.44 241.567 319.205 241.29L319.965 240.554C320.088 240.741 320.248 240.887 320.445 240.994C320.648 241.095 320.861 241.146 321.085 241.146C321.202 241.146 321.32 241.13 321.437 241.098C321.554 241.066 321.661 241.018 321.757 240.954C321.853 240.89 321.93 240.81 321.989 240.714C322.048 240.613 322.077 240.498 322.077 240.37C322.077 240.162 322.01 240.002 321.877 239.89C321.744 239.778 321.578 239.685 321.381 239.61C321.184 239.53 320.968 239.455 320.733 239.386C320.498 239.317 320.282 239.223 320.085 239.106C319.888 238.983 319.722 238.823 319.589 238.626C319.456 238.423 319.389 238.154 319.389 237.818C319.389 237.525 319.448 237.271 319.565 237.058C319.688 236.845 319.845 236.669 320.037 236.53C320.234 236.386 320.458 236.279 320.709 236.21C320.96 236.141 321.216 236.106 321.477 236.106C321.776 236.106 322.064 236.151 322.341 236.242C322.624 236.333 322.877 236.482 323.101 236.69L322.365 237.466ZM323.879 239.106C323.879 238.653 323.953 238.242 324.103 237.874C324.252 237.501 324.457 237.183 324.719 236.922C324.985 236.661 325.3 236.461 325.663 236.322C326.031 236.178 326.433 236.106 326.871 236.106C327.313 236.101 327.719 236.167 328.087 236.306C328.455 236.439 328.772 236.637 329.039 236.898C329.305 237.159 329.513 237.474 329.663 237.842C329.812 238.21 329.887 238.621 329.887 239.074C329.887 239.517 329.812 239.919 329.663 240.282C329.513 240.645 329.305 240.957 329.039 241.218C328.772 241.479 328.455 241.685 328.087 241.834C327.719 241.978 327.313 242.053 326.871 242.058C326.433 242.058 326.031 241.989 325.663 241.85C325.3 241.706 324.985 241.506 324.719 241.25C324.457 240.989 324.252 240.677 324.103 240.314C323.953 239.951 323.879 239.549 323.879 239.106ZM324.935 239.042C324.935 239.346 324.98 239.626 325.071 239.882C325.167 240.138 325.3 240.359 325.471 240.546C325.641 240.733 325.844 240.879 326.079 240.986C326.319 241.093 326.585 241.146 326.879 241.146C327.172 241.146 327.439 241.093 327.679 240.986C327.919 240.879 328.124 240.733 328.295 240.546C328.465 240.359 328.596 240.138 328.687 239.882C328.783 239.626 328.831 239.346 328.831 239.042C328.831 238.759 328.783 238.495 328.687 238.25C328.596 238.005 328.465 237.791 328.295 237.61C328.124 237.423 327.919 237.279 327.679 237.178C327.439 237.071 327.172 237.018 326.879 237.018C326.585 237.018 326.319 237.071 326.079 237.178C325.844 237.279 325.641 237.423 325.471 237.61C325.3 237.791 325.167 238.005 325.071 238.25C324.98 238.495 324.935 238.759 324.935 239.042Z" fill="#121F39"/>
<rect x="292.5" y="10.4141" width="49" height="240" rx="6.5" stroke="url(#paint0_linear_1260_13344)" stroke-opacity="0.6" stroke-width="3"/>
</g>
<defs>
<filter id="filter0_ddi_1260_13344" x="287" y="6.91406" width="60" height="251" filterUnits="userSpaceOnUse" color-interpolation-filters="sRGB">
<feFlood flood-opacity="0" result="BackgroundImageFix"/>
<feColorMatrix in="SourceAlpha" type="matrix" values="0 0 0 0 0 0 0 0 0 0 0 0 0 0 0 0 0 0 127 0" result="hardAlpha"/>
<feMorphology radius="2" operator="erode" in="SourceAlpha" result="effect1_dropShadow_1260_13344"/>
<feOffset dy="3"/>
<feColorMatrix type="matrix" values="0 0 0 0 0.627451 0 0 0 0 0.698039 0 0 0 0 0.905882 0 0 0 0.14 0"/>
<feBlend mode="normal" in2="BackgroundImageFix" result="effect1_dropShadow_1260_13344"/>
<feColorMatrix in="SourceAlpha" type="matrix" values="0 0 0 0 0 0 0 0 0 0 0 0 0 0 0 0 0 0 127 0" result="hardAlpha"/>
<feOffset dy="2"/>
<feGaussianBlur stdDeviation="2"/>
<feColorMatrix type="matrix" values="0 0 0 0 0.627451 0 0 0 0 0.698039 0 0 0 0 0.905882 0 0 0 0.02 0"/>
<feBlend mode="normal" in2="effect1_dropShadow_1260_13344" result="effect2_dropShadow_1260_13344"/>
<feBlend mode="normal" in="SourceGraphic" in2="effect2_dropShadow_1260_13344" result="shape"/>
<feColorMatrix in="SourceAlpha" type="matrix" values="0 0 0 0 0 0 0 0 0 0 0 0 0 0 0 0 0 0 127 0" result="hardAlpha"/>
<feMorphology radius="2" operator="dilate" in="SourceAlpha" result="effect3_innerShadow_1260_13344"/>
<feOffset dy="1"/>
<feComposite in2="hardAlpha" operator="arithmetic" k2="-1" k3="1"/>
<feColorMatrix type="matrix" values="0 0 0 0 0.627451 0 0 0 0 0.698039 0 0 0 0 0.905882 0 0 0 0.02 0"/>
<feBlend mode="normal" in2="shape" result="effect3_innerShadow_1260_13344"/>
</filter>
<linearGradient id="paint0_linear_1260_13344" x1="343.289" y1="286.213" x2="265.285" y2="274.884" gradientUnits="userSpaceOnUse">
<stop stop-color="#FDFEFF"/>
<stop offset="1" stop-color="#F4F7FC"/>
</linearGradient>
</defs>
</svg>
