<svg width="257" height="101" viewBox="0 0 257 101" fill="none" xmlns="http://www.w3.org/2000/svg">
<circle cx="50" cy="50.8418" r="50" fill="#121F39"/>
<path d="M123.84 54.3138H120.8V51.8178H124.192L124.832 47.2098H121.792V44.7138H125.184L126.08 38.1858H128.608L127.712 44.7138H131.424L132.32 38.1858H134.848L133.952 44.7138H136.992V47.2098H133.6L132.96 51.8178H136V54.3138H132.608L131.712 60.8418H129.184L130.08 54.3138H126.368L125.472 60.8418H122.944L123.84 54.3138ZM127.36 47.2098L126.72 51.8178H130.432L131.072 47.2098H127.36ZM146.421 41.7058L142.261 45.5458L140.469 43.4018L146.773 38.1858H149.493V60.8418H146.421V41.7058ZM157.035 57.5778L166.123 48.5538C166.443 48.2551 166.752 47.9351 167.051 47.5938C167.349 47.2311 167.616 46.8578 167.851 46.4738C168.085 46.0898 168.267 45.6845 168.395 45.2578C168.544 44.8311 168.619 44.3831 168.619 43.9138C168.619 43.3591 168.512 42.8578 168.299 42.4098C168.107 41.9618 167.829 41.5885 167.467 41.2898C167.125 40.9698 166.709 40.7245 166.219 40.5538C165.749 40.3831 165.248 40.2978 164.715 40.2978C163.605 40.2978 162.688 40.6071 161.963 41.2258C161.237 41.8445 160.779 42.6978 160.587 43.7858L157.259 43.4978C157.408 42.4951 157.696 41.6311 158.123 40.9058C158.571 40.1591 159.115 39.5405 159.755 39.0498C160.416 38.5591 161.163 38.1965 161.995 37.9618C162.848 37.7271 163.765 37.6098 164.747 37.6098C165.728 37.6098 166.645 37.7485 167.499 38.0258C168.373 38.2818 169.131 38.6765 169.771 39.2098C170.432 39.7218 170.944 40.3725 171.307 41.1618C171.691 41.9298 171.883 42.8365 171.883 43.8818C171.883 44.6285 171.765 45.3325 171.531 45.9938C171.317 46.6338 171.029 47.2418 170.667 47.8178C170.304 48.3938 169.888 48.9378 169.419 49.4498C168.949 49.9618 168.459 50.4631 167.947 50.9538L160.491 58.1538H171.883V60.8418H157.035V57.5778ZM181.984 41.7058L177.824 45.5458L176.032 43.4018L182.336 38.1858H185.056V60.8418H181.984V41.7058ZM194.037 38.1858H208.277V41.0658H197.109V48.1698H207.509V51.0498H197.109V60.8418H194.037V38.1858ZM214.204 55.3058C214.567 56.3938 215.047 57.2045 215.644 57.7378C216.263 58.2711 217.169 58.5378 218.364 58.5378C218.961 58.5378 219.516 58.4418 220.028 58.2498C220.561 58.0365 221.031 57.7591 221.436 57.4178C221.841 57.0551 222.161 56.6285 222.396 56.1378C222.631 55.6258 222.748 55.0605 222.748 54.4418C222.748 53.5031 222.545 52.7565 222.14 52.2018C221.756 51.6258 221.255 51.1991 220.636 50.9218C220.017 50.6231 219.335 50.4311 218.588 50.3458C217.841 50.2605 217.105 50.2178 216.38 50.2178V47.5298C217.553 47.5298 218.513 47.4551 219.26 47.3058C220.007 47.1351 220.593 46.9005 221.02 46.6018C221.447 46.3031 221.745 45.9298 221.916 45.4818C222.087 45.0338 222.172 44.5325 222.172 43.9778C222.172 42.7618 221.809 41.8445 221.084 41.2258C220.359 40.6071 219.452 40.2978 218.364 40.2978C217.532 40.2978 216.775 40.5431 216.092 41.0338C215.431 41.5031 214.929 42.1325 214.588 42.9218L211.452 41.8658C212.049 40.4151 212.956 39.3485 214.172 38.6658C215.409 37.9618 216.785 37.6098 218.3 37.6098C219.217 37.6098 220.092 37.7378 220.924 37.9938C221.777 38.2285 222.524 38.6018 223.164 39.1138C223.804 39.6258 224.305 40.2765 224.668 41.0658C225.052 41.8338 225.244 42.7405 225.244 43.7858C225.244 44.9805 224.881 46.0471 224.156 46.9858C223.452 47.9245 222.524 48.5645 221.372 48.9058V48.9698C222.076 49.0978 222.705 49.3325 223.26 49.6738C223.815 50.0151 224.284 50.4418 224.668 50.9538C225.052 51.4658 225.34 52.0418 225.532 52.6818C225.724 53.3005 225.82 53.9618 225.82 54.6658C225.82 55.7538 225.607 56.7138 225.18 57.5458C224.775 58.3565 224.22 59.0391 223.516 59.5938C222.833 60.1271 222.033 60.5325 221.116 60.8098C220.22 61.0871 219.271 61.2258 218.268 61.2258C216.54 61.2258 215.015 60.8311 213.692 60.0418C212.391 59.2525 211.484 58.0045 210.972 56.2978L214.204 55.3058ZM238.033 52.0738H237.905C237.201 52.4151 236.369 52.5858 235.409 52.5858C234.599 52.5858 233.777 52.4471 232.945 52.1698C232.113 51.8925 231.356 51.4658 230.673 50.8898C230.012 50.2925 229.468 49.5458 229.041 48.6498C228.615 47.7325 228.401 46.6551 228.401 45.4178C228.401 44.1805 228.604 43.0925 229.009 42.1538C229.436 41.1938 230.001 40.3938 230.705 39.7538C231.409 39.1138 232.231 38.6338 233.169 38.3138C234.108 37.9725 235.111 37.8018 236.177 37.8018C237.244 37.8018 238.247 37.9725 239.185 38.3138C240.124 38.6551 240.945 39.1458 241.649 39.7858C242.353 40.4258 242.908 41.1938 243.313 42.0898C243.74 42.9858 243.953 43.9885 243.953 45.0978C243.953 45.8018 243.9 46.4418 243.793 47.0178C243.687 47.5938 243.527 48.1485 243.313 48.6818C243.121 49.1938 242.887 49.7058 242.609 50.2178C242.332 50.7298 242.023 51.2525 241.681 51.7858L235.953 60.8418H232.337L238.033 52.0738ZM240.881 45.1938C240.881 44.5111 240.764 43.8818 240.529 43.3058C240.316 42.7298 239.996 42.2391 239.569 41.8338C239.164 41.4071 238.673 41.0765 238.097 40.8418C237.521 40.6071 236.881 40.4898 236.177 40.4898C235.473 40.4898 234.833 40.6071 234.257 40.8418C233.681 41.0765 233.18 41.4071 232.753 41.8338C232.348 42.2391 232.028 42.7298 231.793 43.3058C231.58 43.8818 231.473 44.5111 231.473 45.1938C231.473 45.8765 231.58 46.5058 231.793 47.0818C232.028 47.6578 232.348 48.1591 232.753 48.5858C233.18 48.9911 233.681 49.3111 234.257 49.5458C234.833 49.7805 235.473 49.8978 236.177 49.8978C236.881 49.8978 237.521 49.7805 238.097 49.5458C238.673 49.3111 239.164 48.9911 239.569 48.5858C239.996 48.1591 240.316 47.6578 240.529 47.0818C240.764 46.5058 240.881 45.8765 240.881 45.1938Z" fill="black"/>
</svg>
