<svg width="257" height="101" viewBox="0 0 257 101" fill="none" xmlns="http://www.w3.org/2000/svg">
<circle cx="50" cy="50.8418" r="50" fill="#1B4AC3"/>
<path d="M123.84 54.3138H120.8V51.8178H124.192L124.832 47.2098H121.792V44.7138H125.184L126.08 38.1858H128.608L127.712 44.7138H131.424L132.32 38.1858H134.848L133.952 44.7138H136.992V47.2098H133.6L132.96 51.8178H136V54.3138H132.608L131.712 60.8418H129.184L130.08 54.3138H126.368L125.472 60.8418H122.944L123.84 54.3138ZM127.36 47.2098L126.72 51.8178H130.432L131.072 47.2098H127.36ZM146.421 41.7058L142.261 45.5458L140.469 43.4018L146.773 38.1858H149.493V60.8418H146.421V41.7058ZM158.475 38.1858H166.347C167.328 38.1858 168.235 38.3031 169.067 38.5378C169.92 38.7725 170.645 39.1245 171.243 39.5938C171.861 40.0418 172.341 40.6285 172.683 41.3538C173.045 42.0578 173.227 42.8898 173.227 43.8498C173.227 45.1511 172.864 46.2178 172.139 47.0498C171.413 47.8605 170.475 48.4578 169.323 48.8418V48.9058C170.005 48.9485 170.645 49.1298 171.243 49.4498C171.84 49.7485 172.352 50.1538 172.779 50.6658C173.227 51.1565 173.579 51.7325 173.835 52.3938C174.091 53.0551 174.219 53.7698 174.219 54.5378C174.219 55.5618 174.005 56.4685 173.579 57.2578C173.173 58.0258 172.608 58.6765 171.883 59.2098C171.157 59.7431 170.315 60.1485 169.355 60.4258C168.395 60.7031 167.36 60.8418 166.251 60.8418H158.475V38.1858ZM161.547 47.5938H165.739C166.315 47.5938 166.859 47.5405 167.371 47.4338C167.883 47.3058 168.331 47.1031 168.715 46.8258C169.099 46.5485 169.397 46.1965 169.611 45.7698C169.845 45.3431 169.963 44.8205 169.963 44.2018C169.963 43.3058 169.675 42.5271 169.099 41.8658C168.523 41.2045 167.616 40.8738 166.379 40.8738H161.547V47.5938ZM161.547 58.1538H166.059C166.528 58.1538 167.04 58.1111 167.595 58.0258C168.171 57.9191 168.704 57.7271 169.195 57.4498C169.685 57.1511 170.101 56.7565 170.443 56.2658C170.784 55.7751 170.955 55.1245 170.955 54.3138C170.955 52.9698 170.517 51.9671 169.643 51.3058C168.768 50.6231 167.584 50.2818 166.091 50.2818H161.547V58.1538ZM186.471 55.8498H176.807V52.7138L185.831 38.1858H189.543V53.1618H192.743V55.8498H189.543V60.8418H186.471V55.8498ZM186.471 41.8338H186.407L179.495 53.1618H186.471V41.8338ZM203.516 38.1858H206.3L215.996 60.8418H212.412L210.14 55.2418H199.356L197.116 60.8418H193.532L203.516 38.1858ZM209.02 52.5538L204.796 42.1538H204.732L200.444 52.5538H209.02ZM234.719 43.0818C234.079 42.2498 233.269 41.6098 232.287 41.1618C231.306 40.7138 230.293 40.4898 229.247 40.4898C227.967 40.4898 226.805 40.7351 225.759 41.2258C224.735 41.6951 223.85 42.3458 223.103 43.1778C222.378 44.0098 221.813 44.9911 221.407 46.1218C221.002 47.2311 220.799 48.4258 220.799 49.7058C220.799 50.9005 220.991 52.0311 221.375 53.0978C221.759 54.1645 222.314 55.1031 223.039 55.9138C223.765 56.7245 224.65 57.3645 225.695 57.8338C226.741 58.3031 227.925 58.5378 229.247 58.5378C230.549 58.5378 231.69 58.2711 232.671 57.7378C233.653 57.2045 234.485 56.4578 235.167 55.4978L237.759 57.4498C237.589 57.6845 237.29 58.0258 236.863 58.4738C236.437 58.9005 235.871 59.3378 235.167 59.7858C234.463 60.2125 233.61 60.5858 232.607 60.9058C231.626 61.2471 230.485 61.4178 229.183 61.4178C227.391 61.4178 225.77 61.0765 224.319 60.3938C222.89 59.7111 221.663 58.8151 220.639 57.7058C219.637 56.5965 218.869 55.3485 218.335 53.9618C217.802 52.5538 217.535 51.1351 217.535 49.7058C217.535 47.9565 217.823 46.3458 218.399 44.8738C218.975 43.3805 219.775 42.1005 220.799 41.0338C221.845 39.9458 223.093 39.1031 224.543 38.5058C225.994 37.9085 227.594 37.6098 229.343 37.6098C230.837 37.6098 232.298 37.8978 233.727 38.4738C235.178 39.0498 236.362 39.9351 237.279 41.1298L234.719 43.0818ZM243.266 55.3058C243.629 56.3938 244.109 57.2045 244.707 57.7378C245.325 58.2711 246.232 58.5378 247.427 58.5378C248.024 58.5378 248.579 58.4418 249.091 58.2498C249.624 58.0365 250.093 57.7591 250.499 57.4178C250.904 57.0551 251.224 56.6285 251.459 56.1378C251.693 55.6258 251.811 55.0605 251.811 54.4418C251.811 53.5031 251.608 52.7565 251.203 52.2018C250.819 51.6258 250.317 51.1991 249.699 50.9218C249.08 50.6231 248.397 50.4311 247.651 50.3458C246.904 50.2605 246.168 50.2178 245.443 50.2178V47.5298C246.616 47.5298 247.576 47.4551 248.323 47.3058C249.069 47.1351 249.656 46.9005 250.083 46.6018C250.509 46.3031 250.808 45.9298 250.979 45.4818C251.149 45.0338 251.235 44.5325 251.235 43.9778C251.235 42.7618 250.872 41.8445 250.147 41.2258C249.421 40.6071 248.515 40.2978 247.427 40.2978C246.595 40.2978 245.837 40.5431 245.155 41.0338C244.493 41.5031 243.992 42.1325 243.651 42.9218L240.515 41.8658C241.112 40.4151 242.019 39.3485 243.235 38.6658C244.472 37.9618 245.848 37.6098 247.363 37.6098C248.28 37.6098 249.155 37.7378 249.987 37.9938C250.84 38.2285 251.587 38.6018 252.227 39.1138C252.867 39.6258 253.368 40.2765 253.731 41.0658C254.115 41.8338 254.307 42.7405 254.307 43.7858C254.307 44.9805 253.944 46.0471 253.219 46.9858C252.515 47.9245 251.587 48.5645 250.435 48.9058V48.9698C251.139 49.0978 251.768 49.3325 252.323 49.6738C252.877 50.0151 253.347 50.4418 253.731 50.9538C254.115 51.4658 254.403 52.0418 254.595 52.6818C254.787 53.3005 254.883 53.9618 254.883 54.6658C254.883 55.7538 254.669 56.7138 254.243 57.5458C253.837 58.3565 253.283 59.0391 252.579 59.5938C251.896 60.1271 251.096 60.5325 250.179 60.8098C249.283 61.0871 248.333 61.2258 247.331 61.2258C245.603 61.2258 244.077 60.8311 242.755 60.0418C241.453 59.2525 240.547 58.0045 240.035 56.2978L243.266 55.3058Z" fill="black"/>
</svg>
