<svg width="257" height="101" viewBox="0 0 257 101" fill="none" xmlns="http://www.w3.org/2000/svg">
<circle cx="50" cy="50.8418" r="50" fill="#EA9A00"/>
<path d="M123.84 54.3138H120.8V51.8178H124.192L124.832 47.2098H121.792V44.7138H125.184L126.08 38.1858H128.608L127.712 44.7138H131.424L132.32 38.1858H134.848L133.952 44.7138H136.992V47.2098H133.6L132.96 51.8178H136V54.3138H132.608L131.712 60.8418H129.184L130.08 54.3138H126.368L125.472 60.8418H122.944L123.84 54.3138ZM127.36 47.2098L126.72 51.8178H130.432L131.072 47.2098H127.36ZM140.693 38.1858H155.317V41.0658H143.765V47.8178H154.517V50.6978H143.765V57.9618H155.893V60.8418H140.693V38.1858ZM167.36 38.1858H170.144L179.84 60.8418H176.256L173.984 55.2418H163.2L160.96 60.8418H157.376L167.36 38.1858ZM172.864 52.5538L168.64 42.1538H168.576L164.288 52.5538H172.864ZM190.627 52.0738H190.499C189.795 52.4151 188.963 52.5858 188.003 52.5858C187.192 52.5858 186.371 52.4471 185.539 52.1698C184.707 51.8925 183.95 51.4658 183.267 50.8898C182.606 50.2925 182.062 49.5458 181.635 48.6498C181.208 47.7325 180.995 46.6551 180.995 45.4178C180.995 44.1805 181.198 43.0925 181.603 42.1538C182.03 41.1938 182.595 40.3938 183.299 39.7538C184.003 39.1138 184.824 38.6338 185.763 38.3138C186.702 37.9725 187.704 37.8018 188.771 37.8018C189.838 37.8018 190.84 37.9725 191.779 38.3138C192.718 38.6551 193.539 39.1458 194.243 39.7858C194.947 40.4258 195.502 41.1938 195.907 42.0898C196.334 42.9858 196.547 43.9885 196.547 45.0978C196.547 45.8018 196.494 46.4418 196.387 47.0178C196.28 47.5938 196.12 48.1485 195.907 48.6818C195.715 49.1938 195.48 49.7058 195.203 50.2178C194.926 50.7298 194.616 51.2525 194.275 51.7858L188.547 60.8418H184.931L190.627 52.0738ZM193.475 45.1938C193.475 44.5111 193.358 43.8818 193.123 43.3058C192.91 42.7298 192.59 42.2391 192.163 41.8338C191.758 41.4071 191.267 41.0765 190.691 40.8418C190.115 40.6071 189.475 40.4898 188.771 40.4898C188.067 40.4898 187.427 40.6071 186.851 40.8418C186.275 41.0765 185.774 41.4071 185.347 41.8338C184.942 42.2391 184.622 42.7298 184.387 43.3058C184.174 43.8818 184.067 44.5111 184.067 45.1938C184.067 45.8765 184.174 46.5058 184.387 47.0818C184.622 47.6578 184.942 48.1591 185.347 48.5858C185.774 48.9911 186.275 49.3111 186.851 49.5458C187.427 49.7805 188.067 49.8978 188.771 49.8978C189.475 49.8978 190.115 49.7805 190.691 49.5458C191.267 49.3111 191.758 48.9911 192.163 48.5858C192.59 48.1591 192.91 47.6578 193.123 47.0818C193.358 46.5058 193.475 45.8765 193.475 45.1938ZM207.672 38.1858H210.456L220.152 60.8418H216.568L214.296 55.2418H203.512L201.272 60.8418H197.688L207.672 38.1858ZM213.176 52.5538L208.952 42.1538H208.888L204.6 52.5538H213.176ZM221.276 49.5138C221.276 48.6818 221.318 47.8178 221.404 46.9218C221.489 46.0258 221.638 45.1511 221.852 44.2978C222.086 43.4231 222.385 42.5911 222.748 41.8018C223.132 41.0125 223.612 40.3298 224.188 39.7538C224.785 39.1565 225.478 38.6871 226.268 38.3458C227.078 37.9831 228.017 37.8018 229.084 37.8018C230.15 37.8018 231.078 37.9831 231.868 38.3458C232.678 38.6871 233.372 39.1565 233.948 39.7538C234.545 40.3298 235.025 41.0125 235.388 41.8018C235.772 42.5911 236.07 43.4231 236.284 44.2978C236.518 45.1511 236.678 46.0258 236.764 46.9218C236.849 47.8178 236.892 48.6818 236.892 49.5138C236.892 50.7085 236.785 51.9885 236.572 53.3538C236.358 54.7191 235.964 55.9885 235.388 57.1618C234.812 58.3351 234.012 59.3058 232.988 60.0738C231.985 60.8418 230.684 61.2258 229.084 61.2258C227.484 61.2258 226.172 60.8418 225.148 60.0738C224.145 59.3058 223.356 58.3351 222.78 57.1618C222.204 55.9885 221.809 54.7191 221.596 53.3538C221.382 51.9885 221.276 50.7085 221.276 49.5138ZM224.348 49.5138C224.348 50.2605 224.39 51.1458 224.476 52.1698C224.582 53.1938 224.796 54.1858 225.116 55.1458C225.436 56.0845 225.905 56.8845 226.524 57.5458C227.164 58.2071 228.017 58.5378 229.084 58.5378C230.15 58.5378 230.993 58.2071 231.612 57.5458C232.252 56.8845 232.732 56.0845 233.052 55.1458C233.372 54.1858 233.574 53.1938 233.66 52.1698C233.766 51.1458 233.82 50.2605 233.82 49.5138C233.82 49.0018 233.798 48.4258 233.756 47.7858C233.734 47.1245 233.66 46.4631 233.532 45.8018C233.425 45.1191 233.265 44.4685 233.052 43.8498C232.838 43.2098 232.55 42.6445 232.188 42.1538C231.846 41.6418 231.42 41.2365 230.908 40.9378C230.396 40.6391 229.788 40.4898 229.084 40.4898C228.38 40.4898 227.772 40.6391 227.26 40.9378C226.748 41.2365 226.31 41.6418 225.948 42.1538C225.606 42.6445 225.329 43.2098 225.116 43.8498C224.902 44.4685 224.732 45.1191 224.604 45.8018C224.497 46.4631 224.422 47.1245 224.38 47.7858C224.358 48.4258 224.348 49.0018 224.348 49.5138ZM239.057 49.5138C239.057 48.6818 239.099 47.8178 239.185 46.9218C239.27 46.0258 239.419 45.1511 239.633 44.2978C239.867 43.4231 240.166 42.5911 240.529 41.8018C240.913 41.0125 241.393 40.3298 241.969 39.7538C242.566 39.1565 243.259 38.6871 244.049 38.3458C244.859 37.9831 245.798 37.8018 246.865 37.8018C247.931 37.8018 248.859 37.9831 249.649 38.3458C250.459 38.6871 251.153 39.1565 251.729 39.7538C252.326 40.3298 252.806 41.0125 253.169 41.8018C253.553 42.5911 253.851 43.4231 254.065 44.2978C254.299 45.1511 254.459 46.0258 254.545 46.9218C254.63 47.8178 254.673 48.6818 254.673 49.5138C254.673 50.7085 254.566 51.9885 254.353 53.3538C254.139 54.7191 253.745 55.9885 253.169 57.1618C252.593 58.3351 251.793 59.3058 250.769 60.0738C249.766 60.8418 248.465 61.2258 246.865 61.2258C245.265 61.2258 243.953 60.8418 242.929 60.0738C241.926 59.3058 241.137 58.3351 240.561 57.1618C239.985 55.9885 239.59 54.7191 239.377 53.3538C239.163 51.9885 239.057 50.7085 239.057 49.5138ZM242.129 49.5138C242.129 50.2605 242.171 51.1458 242.257 52.1698C242.363 53.1938 242.577 54.1858 242.897 55.1458C243.217 56.0845 243.686 56.8845 244.305 57.5458C244.945 58.2071 245.798 58.5378 246.865 58.5378C247.931 58.5378 248.774 58.2071 249.393 57.5458C250.033 56.8845 250.513 56.0845 250.833 55.1458C251.153 54.1858 251.355 53.1938 251.441 52.1698C251.547 51.1458 251.601 50.2605 251.601 49.5138C251.601 49.0018 251.579 48.4258 251.537 47.7858C251.515 47.1245 251.441 46.4631 251.313 45.8018C251.206 45.1191 251.046 44.4685 250.833 43.8498C250.619 43.2098 250.331 42.6445 249.969 42.1538C249.627 41.6418 249.201 41.2365 248.689 40.9378C248.177 40.6391 247.569 40.4898 246.865 40.4898C246.161 40.4898 245.553 40.6391 245.041 40.9378C244.529 41.2365 244.091 41.6418 243.729 42.1538C243.387 42.6445 243.11 43.2098 242.897 43.8498C242.683 44.4685 242.513 45.1191 242.385 45.8018C242.278 46.4631 242.203 47.1245 242.161 47.7858C242.139 48.4258 242.129 49.0018 242.129 49.5138Z" fill="black"/>
</svg>
