<svg width="257" height="101" viewBox="0 0 257 101" fill="none" xmlns="http://www.w3.org/2000/svg">
<circle cx="50" cy="50.8418" r="50" fill="#EBEEF6"/>
<path d="M122.912 38.1858H137.536V41.0658H125.984V47.8178H136.736V50.6978H125.984V57.9618H138.112V60.8418H122.912V38.1858ZM142.475 38.1858H150.347C151.328 38.1858 152.235 38.3031 153.067 38.5378C153.92 38.7725 154.645 39.1245 155.243 39.5938C155.861 40.0418 156.341 40.6285 156.683 41.3538C157.045 42.0578 157.227 42.8898 157.227 43.8498C157.227 45.1511 156.864 46.2178 156.139 47.0498C155.413 47.8605 154.475 48.4578 153.323 48.8418V48.9058C154.005 48.9485 154.645 49.1298 155.243 49.4498C155.84 49.7485 156.352 50.1538 156.779 50.6658C157.227 51.1565 157.579 51.7325 157.835 52.3938C158.091 53.0551 158.219 53.7698 158.219 54.5378C158.219 55.5618 158.005 56.4685 157.579 57.2578C157.173 58.0258 156.608 58.6765 155.883 59.2098C155.157 59.7431 154.315 60.1485 153.355 60.4258C152.395 60.7031 151.36 60.8418 150.251 60.8418H142.475V38.1858ZM145.547 47.5938H149.739C150.315 47.5938 150.859 47.5405 151.371 47.4338C151.883 47.3058 152.331 47.1031 152.715 46.8258C153.099 46.5485 153.397 46.1965 153.611 45.7698C153.845 45.3431 153.963 44.8205 153.963 44.2018C153.963 43.3058 153.675 42.5271 153.099 41.8658C152.523 41.2045 151.616 40.8738 150.379 40.8738H145.547V47.5938ZM145.547 58.1538H150.059C150.528 58.1538 151.04 58.1111 151.595 58.0258C152.171 57.9191 152.704 57.7271 153.195 57.4498C153.685 57.1511 154.101 56.7565 154.443 56.2658C154.784 55.7751 154.955 55.1245 154.955 54.3138C154.955 52.9698 154.517 51.9671 153.643 51.3058C152.768 50.6231 151.584 50.2818 150.091 50.2818H145.547V58.1538ZM162.631 38.1858H177.255V41.0658H165.703V47.8178H176.455V50.6978H165.703V57.9618H177.831V60.8418H162.631V38.1858ZM182.193 38.1858H196.817V41.0658H185.265V47.8178H196.017V50.6978H185.265V57.9618H197.393V60.8418H182.193V38.1858ZM201.756 38.1858H215.996V41.0658H204.828V48.1698H215.228V51.0498H204.828V60.8418H201.756V38.1858ZM224.259 46.9538H224.387C225.091 46.6125 225.923 46.4418 226.883 46.4418C227.693 46.4418 228.515 46.5805 229.347 46.8578C230.179 47.1351 230.925 47.5725 231.587 48.1698C232.269 48.7458 232.824 49.4925 233.251 50.4098C233.677 51.3058 233.891 52.3725 233.891 53.6098C233.891 54.8685 233.677 55.9778 233.251 56.9378C232.845 57.8765 232.291 58.6658 231.587 59.3058C230.883 59.9458 230.061 60.4258 229.123 60.7458C228.184 61.0658 227.181 61.2258 226.115 61.2258C225.048 61.2258 224.045 61.0551 223.107 60.7138C222.168 60.3725 221.347 59.8818 220.643 59.2418C219.939 58.6018 219.373 57.8338 218.947 56.9378C218.541 56.0418 218.339 55.0391 218.339 53.9298C218.339 53.2258 218.392 52.5858 218.499 52.0098C218.605 51.4338 218.755 50.8898 218.947 50.3778C219.16 49.8445 219.405 49.3325 219.683 48.8418C219.96 48.3298 220.269 47.7965 220.611 47.2418L226.339 38.1858H229.955L224.259 46.9538ZM221.411 53.8338C221.411 54.5165 221.517 55.1458 221.731 55.7218C221.965 56.2978 222.285 56.7991 222.691 57.2258C223.117 57.6311 223.619 57.9511 224.195 58.1858C224.771 58.4205 225.411 58.5378 226.115 58.5378C226.819 58.5378 227.459 58.4205 228.035 58.1858C228.611 57.9511 229.101 57.6311 229.507 57.2258C229.933 56.7991 230.253 56.2978 230.467 55.7218C230.701 55.1458 230.819 54.5165 230.819 53.8338C230.819 53.1511 230.701 52.5218 230.467 51.9458C230.253 51.3698 229.933 50.8791 229.507 50.4738C229.101 50.0471 228.611 49.7165 228.035 49.4818C227.459 49.2471 226.819 49.1298 226.115 49.1298C225.411 49.1298 224.771 49.2471 224.195 49.4818C223.619 49.7165 223.117 50.0471 222.691 50.4738C222.285 50.8791 221.965 51.3698 221.731 51.9458C221.517 52.5218 221.411 53.1511 221.411 53.8338Z" fill="black"/>
</svg>
