<svg width="343" height="271" viewBox="0 0 343 271" fill="none" xmlns="http://www.w3.org/2000/svg">
<rect y="0.914062" width="343" height="270" rx="16" fill="#F7F8FF"/>
<path d="M17.2793 29.0021H19.2813L22.4313 36.5061H22.4873L25.6093 29.0021H27.6113V38.9141H26.2673V30.7661H26.2393L22.8933 38.9141H21.9973L18.6513 30.7661H18.6233V38.9141H17.2793V29.0021ZM29.2108 33.0901C29.5654 32.7634 29.9761 32.5207 30.4428 32.3621C30.9094 32.1941 31.3761 32.1101 31.8428 32.1101C32.3281 32.1101 32.7434 32.1707 33.0888 32.2921C33.4434 32.4134 33.7328 32.5767 33.9568 32.7821C34.1808 32.9874 34.3441 33.2254 34.4468 33.4961C34.5588 33.7574 34.6148 34.0327 34.6148 34.3221V37.7101C34.6148 37.9434 34.6194 38.1581 34.6288 38.3541C34.6381 38.5501 34.6521 38.7367 34.6708 38.9141H33.5508C33.5228 38.5781 33.5088 38.2421 33.5088 37.9061H33.4808C33.2008 38.3354 32.8694 38.6387 32.4868 38.8161C32.1041 38.9934 31.6608 39.0821 31.1568 39.0821C30.8488 39.0821 30.5548 39.0401 30.2748 38.9561C29.9948 38.8721 29.7474 38.7461 29.5328 38.5781C29.3274 38.4101 29.1641 38.2047 29.0428 37.9621C28.9214 37.7101 28.8608 37.4207 28.8608 37.0941C28.8608 36.6647 28.9541 36.3054 29.1408 36.0161C29.3368 35.7267 29.5981 35.4934 29.9248 35.3161C30.2608 35.1294 30.6481 34.9987 31.0868 34.9241C31.5348 34.8401 32.0108 34.7981 32.5148 34.7981H33.4388V34.5181C33.4388 34.3501 33.4061 34.1821 33.3408 34.0141C33.2754 33.8461 33.1774 33.6967 33.0468 33.5661C32.9161 33.4261 32.7528 33.3187 32.5568 33.2441C32.3608 33.1601 32.1274 33.1181 31.8568 33.1181C31.6141 33.1181 31.3994 33.1414 31.2128 33.1881C31.0354 33.2347 30.8721 33.2954 30.7228 33.3701C30.5734 33.4354 30.4381 33.5147 30.3168 33.6081C30.1954 33.7014 30.0788 33.7901 29.9668 33.8741L29.2108 33.0901ZM32.7668 35.7221C32.4681 35.7221 32.1601 35.7407 31.8428 35.7781C31.5348 35.8061 31.2501 35.8667 30.9888 35.9601C30.7368 36.0534 30.5268 36.1841 30.3588 36.3521C30.2001 36.5201 30.1208 36.7347 30.1208 36.9961C30.1208 37.3787 30.2468 37.6541 30.4988 37.8221C30.7601 37.9901 31.1101 38.0741 31.5488 38.0741C31.8941 38.0741 32.1881 38.0181 32.4308 37.9061C32.6734 37.7847 32.8694 37.6307 33.0188 37.4441C33.1681 37.2574 33.2754 37.0521 33.3408 36.8281C33.4061 36.5947 33.4388 36.3661 33.4388 36.1421V35.7221H32.7668ZM35.0845 32.2781H36.5405L38.5145 37.4581H38.5425L40.4185 32.2781H41.7765L38.6265 40.3421C38.5145 40.6314 38.3979 40.8927 38.2765 41.1261C38.1552 41.3687 38.0105 41.5741 37.8425 41.7421C37.6745 41.9101 37.4692 42.0407 37.2265 42.1341C36.9932 42.2274 36.7039 42.2741 36.3585 42.2741C36.1719 42.2741 35.9805 42.2601 35.7845 42.2321C35.5979 42.2134 35.4159 42.1667 35.2385 42.0921L35.3925 40.9441C35.6445 41.0467 35.8965 41.0981 36.1485 41.0981C36.3445 41.0981 36.5079 41.0701 36.6385 41.0141C36.7785 40.9674 36.8952 40.8927 36.9885 40.7901C37.0912 40.6967 37.1752 40.5847 37.2405 40.4541C37.3059 40.3234 37.3712 40.1741 37.4365 40.0061L37.8425 38.9561L35.0845 32.2781ZM43.3445 35.5961C43.3445 35.9321 43.3959 36.2447 43.4985 36.5341C43.6012 36.8141 43.7459 37.0567 43.9325 37.2621C44.1192 37.4581 44.3479 37.6167 44.6185 37.7381C44.8892 37.8501 45.1925 37.9061 45.5285 37.9061C45.8645 37.9061 46.1679 37.8501 46.4385 37.7381C46.7092 37.6167 46.9379 37.4581 47.1245 37.2621C47.3112 37.0567 47.4559 36.8141 47.5585 36.5341C47.6612 36.2447 47.7125 35.9321 47.7125 35.5961C47.7125 35.2601 47.6612 34.9521 47.5585 34.6721C47.4559 34.3827 47.3112 34.1401 47.1245 33.9441C46.9379 33.7387 46.7092 33.5801 46.4385 33.4681C46.1679 33.3467 45.8645 33.2861 45.5285 33.2861C45.1925 33.2861 44.8892 33.3467 44.6185 33.4681C44.3479 33.5801 44.1192 33.7387 43.9325 33.9441C43.7459 34.1401 43.6012 34.3827 43.4985 34.6721C43.3959 34.9521 43.3445 35.2601 43.3445 35.5961ZM42.0005 35.5961C42.0005 35.1107 42.0892 34.6581 42.2665 34.2381C42.4532 33.8181 42.7052 33.4494 43.0225 33.1321C43.3399 32.8147 43.7132 32.5674 44.1425 32.3901C44.5719 32.2034 45.0339 32.1101 45.5285 32.1101C46.0232 32.1101 46.4852 32.2034 46.9145 32.3901C47.3439 32.5674 47.7172 32.8147 48.0345 33.1321C48.3519 33.4494 48.5992 33.8181 48.7765 34.2381C48.9632 34.6581 49.0565 35.1107 49.0565 35.5961C49.0565 36.0814 48.9632 36.5387 48.7765 36.9681C48.5992 37.3881 48.3519 37.7567 48.0345 38.0741C47.7172 38.3821 47.3439 38.6294 46.9145 38.8161C46.4852 38.9934 46.0232 39.0821 45.5285 39.0821C45.0339 39.0821 44.5719 38.9934 44.1425 38.8161C43.7132 38.6294 43.3399 38.3821 43.0225 38.0741C42.7052 37.7567 42.4532 37.3881 42.2665 36.9681C42.0892 36.5387 42.0005 36.0814 42.0005 35.5961ZM53.1035 37.4861L57.0795 33.5381C57.2195 33.4074 57.3549 33.2674 57.4855 33.1181C57.6162 32.9594 57.7329 32.7961 57.8355 32.6281C57.9382 32.4601 58.0175 32.2827 58.0735 32.0961C58.1389 31.9094 58.1715 31.7134 58.1715 31.5081C58.1715 31.2654 58.1249 31.0461 58.0315 30.8501C57.9475 30.6541 57.8262 30.4907 57.6675 30.3601C57.5182 30.2201 57.3362 30.1127 57.1215 30.0381C56.9162 29.9634 56.6969 29.9261 56.4635 29.9261C55.9782 29.9261 55.5769 30.0614 55.2595 30.3321C54.9422 30.6027 54.7415 30.9761 54.6575 31.4521L53.2015 31.3261C53.2669 30.8874 53.3929 30.5094 53.5795 30.1921C53.7755 29.8654 54.0135 29.5947 54.2935 29.3801C54.5829 29.1654 54.9095 29.0067 55.2735 28.9041C55.6469 28.8014 56.0482 28.7501 56.4775 28.7501C56.9069 28.7501 57.3082 28.8107 57.6815 28.9321C58.0642 29.0441 58.3955 29.2167 58.6755 29.4501C58.9649 29.6741 59.1889 29.9587 59.3475 30.3041C59.5155 30.6401 59.5995 31.0367 59.5995 31.4941C59.5995 31.8207 59.5482 32.1287 59.4455 32.4181C59.3522 32.6981 59.2262 32.9641 59.0675 33.2161C58.9089 33.4681 58.7269 33.7061 58.5215 33.9301C58.3162 34.1541 58.1015 34.3734 57.8775 34.5881L54.6155 37.7381H59.5995V38.9141H53.1035V37.4861ZM60.1548 33.9581C60.1548 33.5941 60.1735 33.2161 60.2108 32.8241C60.2482 32.4321 60.3135 32.0494 60.4068 31.6761C60.5095 31.2934 60.6402 30.9294 60.7988 30.5841C60.9668 30.2387 61.1768 29.9401 61.4288 29.6881C61.6902 29.4267 61.9935 29.2214 62.3388 29.0721C62.6935 28.9134 63.1042 28.8341 63.5708 28.8341C64.0375 28.8341 64.4435 28.9134 64.7888 29.0721C65.1435 29.2214 65.4468 29.4267 65.6988 29.6881C65.9602 29.9401 66.1702 30.2387 66.3288 30.5841C66.4968 30.9294 66.6275 31.2934 66.7208 31.6761C66.8235 32.0494 66.8935 32.4321 66.9308 32.8241C66.9682 33.2161 66.9868 33.5941 66.9868 33.9581C66.9868 34.4807 66.9402 35.0407 66.8468 35.6381C66.7535 36.2354 66.5808 36.7907 66.3288 37.3041C66.0768 37.8174 65.7268 38.2421 65.2788 38.5781C64.8402 38.9141 64.2708 39.0821 63.5708 39.0821C62.8708 39.0821 62.2968 38.9141 61.8488 38.5781C61.4102 38.2421 61.0648 37.8174 60.8128 37.3041C60.5608 36.7907 60.3882 36.2354 60.2948 35.6381C60.2015 35.0407 60.1548 34.4807 60.1548 33.9581ZM61.4988 33.9581C61.4988 34.2847 61.5175 34.6721 61.5548 35.1201C61.6015 35.5681 61.6948 36.0021 61.8348 36.4221C61.9748 36.8327 62.1802 37.1827 62.4508 37.4721C62.7308 37.7614 63.1042 37.9061 63.5708 37.9061C64.0375 37.9061 64.4062 37.7614 64.6768 37.4721C64.9568 37.1827 65.1668 36.8327 65.3068 36.4221C65.4468 36.0021 65.5355 35.5681 65.5728 35.1201C65.6195 34.6721 65.6428 34.2847 65.6428 33.9581C65.6428 33.7341 65.6335 33.4821 65.6148 33.2021C65.6055 32.9127 65.5728 32.6234 65.5168 32.3341C65.4702 32.0354 65.4002 31.7507 65.3068 31.4801C65.2135 31.2001 65.0875 30.9527 64.9288 30.7381C64.7795 30.5141 64.5928 30.3367 64.3688 30.2061C64.1448 30.0754 63.8788 30.0101 63.5708 30.0101C63.2628 30.0101 62.9968 30.0754 62.7728 30.2061C62.5488 30.3367 62.3575 30.5141 62.1988 30.7381C62.0495 30.9527 61.9282 31.2001 61.8348 31.4801C61.7415 31.7507 61.6668 32.0354 61.6108 32.3341C61.5642 32.6234 61.5315 32.9127 61.5128 33.2021C61.5035 33.4821 61.4988 33.7341 61.4988 33.9581ZM67.5421 37.4861L71.5181 33.5381C71.6581 33.4074 71.7935 33.2674 71.9241 33.1181C72.0548 32.9594 72.1715 32.7961 72.2741 32.6281C72.3768 32.4601 72.4561 32.2827 72.5121 32.0961C72.5775 31.9094 72.6101 31.7134 72.6101 31.5081C72.6101 31.2654 72.5635 31.0461 72.4701 30.8501C72.3861 30.6541 72.2648 30.4907 72.1061 30.3601C71.9568 30.2201 71.7748 30.1127 71.5601 30.0381C71.3548 29.9634 71.1355 29.9261 70.9021 29.9261C70.4168 29.9261 70.0155 30.0614 69.6981 30.3321C69.3808 30.6027 69.1801 30.9761 69.0961 31.4521L67.6401 31.3261C67.7055 30.8874 67.8315 30.5094 68.0181 30.1921C68.2141 29.8654 68.4521 29.5947 68.7321 29.3801C69.0215 29.1654 69.3481 29.0067 69.7121 28.9041C70.0855 28.8014 70.4868 28.7501 70.9161 28.7501C71.3455 28.7501 71.7468 28.8107 72.1201 28.9321C72.5028 29.0441 72.8341 29.2167 73.1141 29.4501C73.4035 29.6741 73.6275 29.9587 73.7861 30.3041C73.9541 30.6401 74.0381 31.0367 74.0381 31.4941C74.0381 31.8207 73.9868 32.1287 73.8841 32.4181C73.7908 32.6981 73.6648 32.9641 73.5061 33.2161C73.3475 33.4681 73.1655 33.7061 72.9601 33.9301C72.7548 34.1541 72.5401 34.3734 72.3161 34.5881L69.0541 37.7381H74.0381V38.9141H67.5421V37.4861ZM76.1754 36.4921C76.3341 36.9681 76.5441 37.3227 76.8054 37.5561C77.0761 37.7894 77.4728 37.9061 77.9954 37.9061C78.2568 37.9061 78.4994 37.8641 78.7234 37.7801C78.9568 37.6867 79.1621 37.5654 79.3394 37.4161C79.5168 37.2574 79.6568 37.0707 79.7594 36.8561C79.8621 36.6321 79.9134 36.3847 79.9134 36.1141C79.9134 35.7034 79.8248 35.3767 79.6474 35.1341C79.4794 34.8821 79.2601 34.6954 78.9894 34.5741C78.7188 34.4434 78.4201 34.3594 78.0934 34.3221C77.7668 34.2847 77.4448 34.2661 77.1274 34.2661V33.0901C77.6408 33.0901 78.0608 33.0574 78.3874 32.9921C78.7141 32.9174 78.9708 32.8147 79.1574 32.6841C79.3441 32.5534 79.4748 32.3901 79.5494 32.1941C79.6241 31.9981 79.6614 31.7787 79.6614 31.5361C79.6614 31.0041 79.5028 30.6027 79.1854 30.3321C78.8681 30.0614 78.4714 29.9261 77.9954 29.9261C77.6314 29.9261 77.3001 30.0334 77.0014 30.2481C76.7121 30.4534 76.4928 30.7287 76.3434 31.0741L74.9714 30.6121C75.2328 29.9774 75.6294 29.5107 76.1614 29.2121C76.7028 28.9041 77.3048 28.7501 77.9674 28.7501C78.3688 28.7501 78.7514 28.8061 79.1154 28.9181C79.4888 29.0207 79.8154 29.1841 80.0954 29.4081C80.3754 29.6321 80.5948 29.9167 80.7534 30.2621C80.9214 30.5981 81.0054 30.9947 81.0054 31.4521C81.0054 31.9747 80.8468 32.4414 80.5294 32.8521C80.2214 33.2627 79.8154 33.5427 79.3114 33.6921V33.7201C79.6194 33.7761 79.8948 33.8787 80.1374 34.0281C80.3801 34.1774 80.5854 34.3641 80.7534 34.5881C80.9214 34.8121 81.0474 35.0641 81.1314 35.3441C81.2154 35.6147 81.2574 35.9041 81.2574 36.2121C81.2574 36.6881 81.1641 37.1081 80.9774 37.4721C80.8001 37.8267 80.5574 38.1254 80.2494 38.3681C79.9508 38.6014 79.6008 38.7787 79.1994 38.9001C78.8074 39.0214 78.3921 39.0821 77.9534 39.0821C77.1974 39.0821 76.5301 38.9094 75.9514 38.5641C75.3821 38.2187 74.9854 37.6727 74.7614 36.9261L76.1754 36.4921Z" fill="#121F39"/>
<path d="M293.232 29.0021H295.766C296.242 29.0021 296.713 29.0301 297.18 29.0861C297.656 29.1421 298.081 29.2634 298.454 29.4501C298.827 29.6367 299.131 29.9121 299.364 30.2761C299.597 30.6307 299.714 31.1161 299.714 31.7321C299.714 32.4601 299.495 33.0481 299.056 33.4961C298.617 33.9441 298.011 34.2287 297.236 34.3501L300.05 38.9141H298.608L295.92 34.4621H294.408V38.9141H293.232V29.0021ZM294.408 33.3701H295.458C295.785 33.3701 296.121 33.3607 296.466 33.3421C296.821 33.3234 297.143 33.2627 297.432 33.1601C297.731 33.0574 297.973 32.8987 298.16 32.6841C298.356 32.4601 298.454 32.1427 298.454 31.7321C298.454 31.3774 298.384 31.0927 298.244 30.8781C298.104 30.6634 297.917 30.5001 297.684 30.3881C297.46 30.2667 297.203 30.1874 296.914 30.1501C296.634 30.1127 296.349 30.0941 296.06 30.0941H294.408V33.3701ZM307.447 37.7241C307.055 38.2281 306.625 38.5827 306.159 38.7881C305.692 38.9841 305.151 39.0821 304.535 39.0821C304.021 39.0821 303.559 38.9934 303.149 38.8161C302.738 38.6294 302.388 38.3821 302.099 38.0741C301.819 37.7661 301.599 37.4021 301.441 36.9821C301.291 36.5621 301.217 36.1141 301.217 35.6381C301.217 35.1341 301.301 34.6721 301.469 34.2521C301.637 33.8227 301.87 33.4587 302.169 33.1601C302.467 32.8521 302.822 32.6141 303.233 32.4461C303.643 32.2781 304.091 32.1941 304.577 32.1941C305.034 32.1941 305.454 32.2734 305.837 32.4321C306.219 32.5814 306.546 32.8054 306.817 33.1041C307.097 33.3934 307.311 33.7527 307.461 34.1821C307.61 34.6021 307.685 35.0827 307.685 35.6241V35.9741H302.393C302.411 36.2541 302.477 36.5247 302.589 36.7861C302.71 37.0381 302.864 37.2621 303.051 37.4581C303.237 37.6447 303.457 37.7941 303.709 37.9061C303.961 38.0181 304.236 38.0741 304.535 38.0741C305.011 38.0741 305.412 37.9901 305.739 37.8221C306.065 37.6541 306.359 37.4067 306.621 37.0801L307.447 37.7241ZM306.509 35.0501C306.49 34.4901 306.308 34.0421 305.963 33.7061C305.617 33.3701 305.141 33.2021 304.535 33.2021C303.928 33.2021 303.438 33.3701 303.065 33.7061C302.691 34.0421 302.467 34.4901 302.393 35.0501H306.509ZM309.514 37.1921C309.729 37.4627 309.962 37.6774 310.214 37.8361C310.475 37.9947 310.802 38.0741 311.194 38.0741C311.362 38.0741 311.53 38.0554 311.698 38.0181C311.875 37.9807 312.034 37.9201 312.174 37.8361C312.314 37.7521 312.426 37.6494 312.51 37.5281C312.594 37.3974 312.636 37.2434 312.636 37.0661C312.636 36.8887 312.594 36.7441 312.51 36.6321C312.435 36.5201 312.333 36.4267 312.202 36.3521C312.071 36.2681 311.922 36.2027 311.754 36.1561C311.586 36.1094 311.413 36.0674 311.236 36.0301C310.928 35.9647 310.634 35.8901 310.354 35.8061C310.074 35.7221 309.827 35.6147 309.612 35.4841C309.407 35.3441 309.239 35.1667 309.108 34.9521C308.987 34.7374 308.926 34.4621 308.926 34.1261C308.926 33.8087 308.996 33.5287 309.136 33.2861C309.276 33.0434 309.463 32.8427 309.696 32.6841C309.929 32.5254 310.191 32.4041 310.48 32.3201C310.769 32.2361 311.068 32.1941 311.376 32.1941C311.843 32.1941 312.272 32.2874 312.664 32.4741C313.065 32.6607 313.378 32.9641 313.602 33.3841L312.692 33.9861C312.552 33.7527 312.365 33.5661 312.132 33.4261C311.908 33.2767 311.633 33.2021 311.306 33.2021C311.157 33.2021 311.003 33.2207 310.844 33.2581C310.695 33.2954 310.559 33.3514 310.438 33.4261C310.317 33.5007 310.214 33.5987 310.13 33.7201C310.055 33.8321 310.018 33.9627 310.018 34.1121C310.018 34.2521 310.06 34.3734 310.144 34.4761C310.237 34.5694 310.359 34.6534 310.508 34.7281C310.667 34.8027 310.844 34.8681 311.04 34.9241C311.245 34.9801 311.455 35.0267 311.67 35.0641C311.959 35.1201 312.235 35.1947 312.496 35.2881C312.757 35.3721 312.986 35.4887 313.182 35.6381C313.378 35.7874 313.532 35.9741 313.644 36.1981C313.756 36.4221 313.812 36.6974 313.812 37.0241C313.812 37.3974 313.737 37.7147 313.588 37.9761C313.439 38.2374 313.238 38.4521 312.986 38.6201C312.743 38.7787 312.463 38.8954 312.146 38.9701C311.838 39.0447 311.521 39.0821 311.194 39.0821C310.634 39.0821 310.149 38.9981 309.738 38.8301C309.337 38.6527 308.973 38.3307 308.646 37.8641L309.514 37.1921ZM321.187 37.7241C320.795 38.2281 320.365 38.5827 319.899 38.7881C319.432 38.9841 318.891 39.0821 318.275 39.0821C317.761 39.0821 317.299 38.9934 316.889 38.8161C316.478 38.6294 316.128 38.3821 315.839 38.0741C315.559 37.7661 315.339 37.4021 315.181 36.9821C315.031 36.5621 314.957 36.1141 314.957 35.6381C314.957 35.1341 315.041 34.6721 315.209 34.2521C315.377 33.8227 315.61 33.4587 315.909 33.1601C316.207 32.8521 316.562 32.6141 316.973 32.4461C317.383 32.2781 317.831 32.1941 318.317 32.1941C318.774 32.1941 319.194 32.2734 319.577 32.4321C319.959 32.5814 320.286 32.8054 320.557 33.1041C320.837 33.3934 321.051 33.7527 321.201 34.1821C321.35 34.6021 321.425 35.0827 321.425 35.6241V35.9741H316.133C316.151 36.2541 316.217 36.5247 316.329 36.7861C316.45 37.0381 316.604 37.2621 316.791 37.4581C316.977 37.6447 317.197 37.7941 317.449 37.9061C317.701 38.0181 317.976 38.0741 318.275 38.0741C318.751 38.0741 319.152 37.9901 319.479 37.8221C319.805 37.6541 320.099 37.4067 320.361 37.0801L321.187 37.7241ZM320.249 35.0501C320.23 34.4901 320.048 34.0421 319.703 33.7061C319.357 33.3701 318.881 33.2021 318.275 33.2021C317.668 33.2021 317.178 33.3701 316.805 33.7061C316.431 34.0421 316.207 34.4901 316.133 35.0501H320.249ZM326.698 33.2861H324.766V36.5621C324.766 36.7767 324.771 36.9774 324.78 37.1641C324.789 37.3414 324.827 37.5001 324.892 37.6401C324.957 37.7707 325.055 37.8781 325.186 37.9621C325.317 38.0367 325.503 38.0741 325.746 38.0741C325.905 38.0741 326.068 38.0554 326.236 38.0181C326.404 37.9807 326.563 37.9247 326.712 37.8501L326.754 38.8441C326.567 38.9281 326.357 38.9887 326.124 39.0261C325.9 39.0634 325.685 39.0821 325.48 39.0821C325.088 39.0821 324.775 39.0307 324.542 38.9281C324.309 38.8254 324.127 38.6807 323.996 38.4941C323.865 38.3074 323.777 38.0787 323.73 37.8081C323.693 37.5281 323.674 37.2201 323.674 36.8841V33.2861H322.246V32.3621H323.674V30.5001H324.766V32.3621H326.698V33.2861Z" fill="#1B4AC3"/>
<rect x="16" y="74.9141" width="24" height="24" rx="12" fill="#FFFEFD"/>
<path d="M24.9996 87.0076C25.0047 87.1888 25.0721 87.3442 25.2119 87.484L29.2414 91.4255C29.3605 91.5394 29.5003 91.6016 29.6713 91.6016C30.0183 91.6016 30.2876 91.3322 30.2876 90.9852C30.2876 90.8195 30.2203 90.6641 30.1011 90.545L26.4757 87.0076L30.1011 83.4701C30.2203 83.351 30.2876 83.2008 30.2876 83.0299C30.2876 82.6829 30.0183 82.4135 29.6713 82.4135C29.5055 82.4135 29.3605 82.4757 29.2414 82.5896L25.2119 86.5362C25.0669 86.6709 24.9996 86.8263 24.9996 87.0076Z" fill="#121F39"/>
<path d="M154.455 90.2821L158.999 85.7701C159.159 85.6207 159.313 85.4607 159.463 85.2901C159.612 85.1087 159.745 84.9221 159.863 84.7301C159.98 84.5381 160.071 84.3354 160.135 84.1221C160.209 83.9087 160.247 83.6847 160.247 83.4501C160.247 83.1727 160.193 82.9221 160.087 82.6981C159.991 82.4741 159.852 82.2874 159.671 82.1381C159.5 81.9781 159.292 81.8554 159.047 81.7701C158.812 81.6847 158.561 81.6421 158.295 81.6421C157.74 81.6421 157.281 81.7967 156.919 82.1061C156.556 82.4154 156.327 82.8421 156.231 83.3861L154.567 83.2421C154.641 82.7407 154.785 82.3087 154.999 81.9461C155.223 81.5727 155.495 81.2634 155.815 81.0181C156.145 80.7727 156.519 80.5914 156.935 80.4741C157.361 80.3567 157.82 80.2981 158.311 80.2981C158.801 80.2981 159.26 80.3674 159.687 80.5061C160.124 80.6341 160.503 80.8314 160.823 81.0981C161.153 81.3541 161.409 81.6794 161.591 82.0741C161.783 82.4581 161.879 82.9114 161.879 83.4341C161.879 83.8074 161.82 84.1594 161.703 84.4901C161.596 84.8101 161.452 85.1141 161.271 85.4021C161.089 85.6901 160.881 85.9621 160.647 86.2181C160.412 86.4741 160.167 86.7247 159.911 86.9701L156.183 90.5701H161.879V91.9141H154.455V90.2821ZM163.153 86.2501C163.153 85.8341 163.175 85.4021 163.217 84.9541C163.26 84.5061 163.335 84.0687 163.441 83.6421C163.559 83.2047 163.708 82.7887 163.889 82.3941C164.081 81.9994 164.321 81.6581 164.609 81.3701C164.908 81.0714 165.255 80.8367 165.649 80.6661C166.055 80.4847 166.524 80.3941 167.057 80.3941C167.591 80.3941 168.055 80.4847 168.449 80.6661C168.855 80.8367 169.201 81.0714 169.489 81.3701C169.788 81.6581 170.028 81.9994 170.209 82.3941C170.401 82.7887 170.551 83.2047 170.657 83.6421C170.775 84.0687 170.855 84.5061 170.897 84.9541C170.94 85.4021 170.961 85.8341 170.961 86.2501C170.961 86.8474 170.908 87.4874 170.801 88.1701C170.695 88.8527 170.497 89.4874 170.209 90.0741C169.921 90.6607 169.521 91.1461 169.009 91.5301C168.508 91.9141 167.857 92.1061 167.057 92.1061C166.257 92.1061 165.601 91.9141 165.089 91.5301C164.588 91.1461 164.193 90.6607 163.905 90.0741C163.617 89.4874 163.42 88.8527 163.313 88.1701C163.207 87.4874 163.153 86.8474 163.153 86.2501ZM164.689 86.2501C164.689 86.6234 164.711 87.0661 164.753 87.5781C164.807 88.0901 164.913 88.5861 165.073 89.0661C165.233 89.5354 165.468 89.9354 165.777 90.2661C166.097 90.5967 166.524 90.7621 167.057 90.7621C167.591 90.7621 168.012 90.5967 168.321 90.2661C168.641 89.9354 168.881 89.5354 169.041 89.0661C169.201 88.5861 169.303 88.0901 169.345 87.5781C169.399 87.0661 169.425 86.6234 169.425 86.2501C169.425 85.9941 169.415 85.7061 169.393 85.3861C169.383 85.0554 169.345 84.7247 169.281 84.3941C169.228 84.0527 169.148 83.7274 169.041 83.4181C168.935 83.0981 168.791 82.8154 168.609 82.5701C168.439 82.3141 168.225 82.1114 167.969 81.9621C167.713 81.8127 167.409 81.7381 167.057 81.7381C166.705 81.7381 166.401 81.8127 166.145 81.9621C165.889 82.1114 165.671 82.3141 165.489 82.5701C165.319 82.8154 165.18 83.0981 165.073 83.4181C164.967 83.7274 164.881 84.0527 164.817 84.3941C164.764 84.7247 164.727 85.0554 164.705 85.3861C164.695 85.7061 164.689 85.9941 164.689 86.2501ZM172.236 90.2821L176.78 85.7701C176.94 85.6207 177.095 85.4607 177.244 85.2901C177.393 85.1087 177.527 84.9221 177.644 84.7301C177.761 84.5381 177.852 84.3354 177.916 84.1221C177.991 83.9087 178.028 83.6847 178.028 83.4501C178.028 83.1727 177.975 82.9221 177.868 82.6981C177.772 82.4741 177.633 82.2874 177.452 82.1381C177.281 81.9781 177.073 81.8554 176.828 81.7701C176.593 81.6847 176.343 81.6421 176.076 81.6421C175.521 81.6421 175.063 81.7967 174.7 82.1061C174.337 82.4154 174.108 82.8421 174.012 83.3861L172.348 83.2421C172.423 82.7407 172.567 82.3087 172.78 81.9461C173.004 81.5727 173.276 81.2634 173.596 81.0181C173.927 80.7727 174.3 80.5914 174.716 80.4741C175.143 80.3567 175.601 80.2981 176.092 80.2981C176.583 80.2981 177.041 80.3674 177.468 80.5061C177.905 80.6341 178.284 80.8314 178.604 81.0981C178.935 81.3541 179.191 81.6794 179.372 82.0741C179.564 82.4581 179.66 82.9114 179.66 83.4341C179.66 83.8074 179.601 84.1594 179.484 84.4901C179.377 84.8101 179.233 85.1141 179.052 85.4021C178.871 85.6901 178.663 85.9621 178.428 86.2181C178.193 86.4741 177.948 86.7247 177.692 86.9701L173.964 90.5701H179.66V91.9141H172.236V90.2821ZM182.743 89.1461C182.924 89.6901 183.164 90.0954 183.463 90.3621C183.772 90.6287 184.225 90.7621 184.823 90.7621C185.121 90.7621 185.399 90.7141 185.655 90.6181C185.921 90.5114 186.156 90.3727 186.359 90.2021C186.561 90.0207 186.721 89.8074 186.839 89.5621C186.956 89.3061 187.015 89.0234 187.015 88.7141C187.015 88.2447 186.913 87.8714 186.711 87.5941C186.519 87.3061 186.268 87.0927 185.959 86.9541C185.649 86.8047 185.308 86.7087 184.935 86.6661C184.561 86.6234 184.193 86.6021 183.831 86.6021V85.2581C184.417 85.2581 184.897 85.2207 185.271 85.1461C185.644 85.0607 185.937 84.9434 186.151 84.7941C186.364 84.6447 186.513 84.4581 186.599 84.2341C186.684 84.0101 186.727 83.7594 186.727 83.4821C186.727 82.8741 186.545 82.4154 186.183 82.1061C185.82 81.7967 185.367 81.6421 184.823 81.6421C184.407 81.6421 184.028 81.7647 183.687 82.0101C183.356 82.2447 183.105 82.5594 182.935 82.9541L181.367 82.4261C181.665 81.7007 182.119 81.1674 182.727 80.8261C183.345 80.4741 184.033 80.2981 184.791 80.2981C185.249 80.2981 185.687 80.3621 186.103 80.4901C186.529 80.6074 186.903 80.7941 187.223 81.0501C187.543 81.3061 187.793 81.6314 187.975 82.0261C188.167 82.4101 188.263 82.8634 188.263 83.3861C188.263 83.9834 188.081 84.5167 187.719 84.9861C187.367 85.4554 186.903 85.7754 186.327 85.9461V85.9781C186.679 86.0421 186.993 86.1594 187.271 86.3301C187.548 86.5007 187.783 86.7141 187.975 86.9701C188.167 87.2261 188.311 87.5141 188.407 87.8341C188.503 88.1434 188.551 88.4741 188.551 88.8261C188.551 89.3701 188.444 89.8501 188.231 90.2661C188.028 90.6714 187.751 91.0127 187.399 91.2901C187.057 91.5567 186.657 91.7594 186.199 91.8981C185.751 92.0367 185.276 92.1061 184.775 92.1061C183.911 92.1061 183.148 91.9087 182.487 91.5141C181.836 91.1194 181.383 90.4954 181.127 89.6421L182.743 89.1461Z" fill="#121F39"/>
<rect x="303" y="74.9141" width="24" height="24" rx="12" fill="#FFFEFD"/>
<path d="M317.288 87.0081C317.283 86.8268 317.216 86.6714 317.076 86.5316L313.046 82.5902C312.927 82.4762 312.787 82.4141 312.616 82.4141C312.269 82.4141 312 82.6834 312 83.0304C312 83.1961 312.067 83.3515 312.186 83.4706L315.812 87.0081L312.186 90.5455C312.067 90.6646 312 90.8148 312 90.9858C312 91.3328 312.269 91.6021 312.616 91.6021C312.782 91.6021 312.927 91.5399 313.046 91.426L317.076 87.4794C317.221 87.3447 317.288 87.1893 317.288 87.0081Z" fill="#121F39"/>
<path opacity="0.6" d="M42.5498 135.586H49.8618V137.026H44.0858V140.402H49.4618V141.842H44.0858V145.474H50.1498V146.914H42.5498V135.586ZM51.963 139.33H53.403V140.498H53.435C53.6163 140.093 53.931 139.767 54.379 139.522C54.827 139.266 55.3443 139.138 55.931 139.138C56.2937 139.138 56.6403 139.197 56.971 139.314C57.3123 139.421 57.6057 139.591 57.851 139.826C58.107 140.061 58.3097 140.365 58.459 140.738C58.6083 141.101 58.683 141.533 58.683 142.034V146.914H57.243V142.434C57.243 142.082 57.195 141.783 57.099 141.538C57.003 141.282 56.875 141.079 56.715 140.93C56.555 140.77 56.3683 140.658 56.155 140.594C55.9523 140.519 55.739 140.482 55.515 140.482C55.2163 140.482 54.939 140.53 54.683 140.626C54.427 140.722 54.203 140.877 54.011 141.09C53.819 141.293 53.6697 141.554 53.563 141.874C53.4563 142.194 53.403 142.573 53.403 143.01V146.914H51.963V139.33ZM61.9416 143.65C61.9416 143.981 62.011 144.285 62.1496 144.562C62.299 144.829 62.491 145.058 62.7256 145.25C62.9603 145.442 63.2323 145.591 63.5416 145.698C63.851 145.805 64.171 145.858 64.5016 145.858C64.9496 145.858 65.339 145.757 65.6696 145.554C66.0003 145.341 66.3043 145.063 66.5816 144.722L67.6696 145.554C66.8696 146.589 65.7496 147.106 64.3096 147.106C63.7123 147.106 63.1683 147.005 62.6776 146.802C62.1976 146.599 61.787 146.322 61.4456 145.97C61.115 145.607 60.859 145.186 60.6776 144.706C60.4963 144.215 60.4056 143.687 60.4056 143.122C60.4056 142.557 60.5016 142.034 60.6936 141.554C60.8963 141.063 61.1683 140.642 61.5096 140.29C61.8616 139.927 62.2776 139.645 62.7576 139.442C63.2376 139.239 63.7603 139.138 64.3256 139.138C64.9976 139.138 65.563 139.255 66.0216 139.49C66.491 139.725 66.875 140.034 67.1736 140.418C67.4723 140.791 67.6856 141.218 67.8136 141.698C67.9523 142.167 68.0216 142.647 68.0216 143.138V143.65H61.9416ZM66.4856 142.498C66.475 142.178 66.4216 141.885 66.3256 141.618C66.2403 141.351 66.107 141.122 65.9256 140.93C65.7443 140.727 65.515 140.573 65.2376 140.466C64.971 140.349 64.6563 140.29 64.2936 140.29C63.9416 140.29 63.6163 140.359 63.3176 140.498C63.0296 140.626 62.7843 140.797 62.5816 141.01C62.379 141.223 62.219 141.463 62.1016 141.73C61.995 141.986 61.9416 142.242 61.9416 142.498H66.4856Z" fill="#1B4AC3"/>
<path opacity="0.6" d="M120.3 135.586H127.612V137.026H121.836V140.402H127.212V141.842H121.836V145.474H127.9V146.914H120.3V135.586ZM129.713 139.33H131.153V140.498H131.185C131.366 140.093 131.681 139.767 132.129 139.522C132.577 139.266 133.094 139.138 133.681 139.138C134.044 139.138 134.39 139.197 134.721 139.314C135.062 139.421 135.356 139.591 135.601 139.826C135.857 140.061 136.06 140.365 136.209 140.738C136.358 141.101 136.433 141.533 136.433 142.034V146.914H134.993V142.434C134.993 142.082 134.945 141.783 134.849 141.538C134.753 141.282 134.625 141.079 134.465 140.93C134.305 140.77 134.118 140.658 133.905 140.594C133.702 140.519 133.489 140.482 133.265 140.482C132.966 140.482 132.689 140.53 132.433 140.626C132.177 140.722 131.953 140.877 131.761 141.09C131.569 141.293 131.42 141.554 131.313 141.874C131.206 142.194 131.153 142.573 131.153 143.01V146.914H129.713V139.33ZM139.692 143.65C139.692 143.981 139.761 144.285 139.9 144.562C140.049 144.829 140.241 145.058 140.476 145.25C140.71 145.442 140.982 145.591 141.292 145.698C141.601 145.805 141.921 145.858 142.252 145.858C142.7 145.858 143.089 145.757 143.42 145.554C143.75 145.341 144.054 145.063 144.332 144.722L145.42 145.554C144.62 146.589 143.5 147.106 142.06 147.106C141.462 147.106 140.918 147.005 140.428 146.802C139.948 146.599 139.537 146.322 139.196 145.97C138.865 145.607 138.609 145.186 138.428 144.706C138.246 144.215 138.156 143.687 138.156 143.122C138.156 142.557 138.252 142.034 138.444 141.554C138.646 141.063 138.918 140.642 139.26 140.29C139.612 139.927 140.028 139.645 140.508 139.442C140.988 139.239 141.51 139.138 142.076 139.138C142.748 139.138 143.313 139.255 143.772 139.49C144.241 139.725 144.625 140.034 144.924 140.418C145.222 140.791 145.436 141.218 145.564 141.698C145.702 142.167 145.772 142.647 145.772 143.138V143.65H139.692ZM144.236 142.498C144.225 142.178 144.172 141.885 144.076 141.618C143.99 141.351 143.857 141.122 143.676 140.93C143.494 140.727 143.265 140.573 142.988 140.466C142.721 140.349 142.406 140.29 142.044 140.29C141.692 140.29 141.366 140.359 141.068 140.498C140.78 140.626 140.534 140.797 140.332 141.01C140.129 141.223 139.969 141.463 139.852 141.73C139.745 141.986 139.692 142.242 139.692 142.498H144.236Z" fill="#1B4AC3"/>
<path opacity="0.6" d="M198.05 135.586H205.362V137.026H199.586V140.402H204.962V141.842H199.586V145.474H205.65V146.914H198.05V135.586ZM207.463 139.33H208.903V140.498H208.935C209.116 140.093 209.431 139.767 209.879 139.522C210.327 139.266 210.844 139.138 211.431 139.138C211.794 139.138 212.14 139.197 212.471 139.314C212.812 139.421 213.106 139.591 213.351 139.826C213.607 140.061 213.81 140.365 213.959 140.738C214.108 141.101 214.183 141.533 214.183 142.034V146.914H212.743V142.434C212.743 142.082 212.695 141.783 212.599 141.538C212.503 141.282 212.375 141.079 212.215 140.93C212.055 140.77 211.868 140.658 211.655 140.594C211.452 140.519 211.239 140.482 211.015 140.482C210.716 140.482 210.439 140.53 210.183 140.626C209.927 140.722 209.703 140.877 209.511 141.09C209.319 141.293 209.17 141.554 209.063 141.874C208.956 142.194 208.903 142.573 208.903 143.01V146.914H207.463V139.33ZM217.442 143.65C217.442 143.981 217.511 144.285 217.65 144.562C217.799 144.829 217.991 145.058 218.226 145.25C218.46 145.442 218.732 145.591 219.042 145.698C219.351 145.805 219.671 145.858 220.002 145.858C220.45 145.858 220.839 145.757 221.17 145.554C221.5 145.341 221.804 145.063 222.082 144.722L223.17 145.554C222.37 146.589 221.25 147.106 219.81 147.106C219.212 147.106 218.668 147.005 218.178 146.802C217.698 146.599 217.287 146.322 216.946 145.97C216.615 145.607 216.359 145.186 216.178 144.706C215.996 144.215 215.906 143.687 215.906 143.122C215.906 142.557 216.002 142.034 216.194 141.554C216.396 141.063 216.668 140.642 217.01 140.29C217.362 139.927 217.778 139.645 218.258 139.442C218.738 139.239 219.26 139.138 219.826 139.138C220.498 139.138 221.063 139.255 221.522 139.49C221.991 139.725 222.375 140.034 222.674 140.418C222.972 140.791 223.186 141.218 223.314 141.698C223.452 142.167 223.522 142.647 223.522 143.138V143.65H217.442ZM221.986 142.498C221.975 142.178 221.922 141.885 221.826 141.618C221.74 141.351 221.607 141.122 221.426 140.93C221.244 140.727 221.015 140.573 220.738 140.466C220.471 140.349 220.156 140.29 219.794 140.29C219.442 140.29 219.116 140.359 218.818 140.498C218.53 140.626 218.284 140.797 218.082 141.01C217.879 141.223 217.719 141.463 217.602 141.73C217.495 141.986 217.442 142.242 217.442 142.498H221.986Z" fill="#1B4AC3"/>
<path opacity="0.6" d="M275.8 135.586H283.112V137.026H277.336V140.402H282.712V141.842H277.336V145.474H283.4V146.914H275.8V135.586ZM285.213 139.33H286.653V140.498H286.685C286.866 140.093 287.181 139.767 287.629 139.522C288.077 139.266 288.594 139.138 289.181 139.138C289.544 139.138 289.89 139.197 290.221 139.314C290.562 139.421 290.856 139.591 291.101 139.826C291.357 140.061 291.56 140.365 291.709 140.738C291.858 141.101 291.933 141.533 291.933 142.034V146.914H290.493V142.434C290.493 142.082 290.445 141.783 290.349 141.538C290.253 141.282 290.125 141.079 289.965 140.93C289.805 140.77 289.618 140.658 289.405 140.594C289.202 140.519 288.989 140.482 288.765 140.482C288.466 140.482 288.189 140.53 287.933 140.626C287.677 140.722 287.453 140.877 287.261 141.09C287.069 141.293 286.92 141.554 286.813 141.874C286.706 142.194 286.653 142.573 286.653 143.01V146.914H285.213V139.33ZM295.192 143.65C295.192 143.981 295.261 144.285 295.4 144.562C295.549 144.829 295.741 145.058 295.976 145.25C296.21 145.442 296.482 145.591 296.792 145.698C297.101 145.805 297.421 145.858 297.752 145.858C298.2 145.858 298.589 145.757 298.92 145.554C299.25 145.341 299.554 145.063 299.832 144.722L300.92 145.554C300.12 146.589 299 147.106 297.56 147.106C296.962 147.106 296.418 147.005 295.928 146.802C295.448 146.599 295.037 146.322 294.696 145.97C294.365 145.607 294.109 145.186 293.928 144.706C293.746 144.215 293.656 143.687 293.656 143.122C293.656 142.557 293.752 142.034 293.944 141.554C294.146 141.063 294.418 140.642 294.76 140.29C295.112 139.927 295.528 139.645 296.008 139.442C296.488 139.239 297.01 139.138 297.576 139.138C298.248 139.138 298.813 139.255 299.272 139.49C299.741 139.725 300.125 140.034 300.424 140.418C300.722 140.791 300.936 141.218 301.064 141.698C301.202 142.167 301.272 142.647 301.272 143.138V143.65H295.192ZM299.736 142.498C299.725 142.178 299.672 141.885 299.576 141.618C299.49 141.351 299.357 141.122 299.176 140.93C298.994 140.727 298.765 140.573 298.488 140.466C298.221 140.349 297.906 140.29 297.544 140.29C297.192 140.29 296.866 140.359 296.568 140.498C296.28 140.626 296.034 140.797 295.832 141.01C295.629 141.223 295.469 141.463 295.352 141.73C295.245 141.986 295.192 142.242 295.192 142.498H299.736Z" fill="#1B4AC3"/>
<g filter="url(#filter0_ddi_1258_9526)">
<rect x="16" y="174.914" width="77.75" height="22" rx="8" fill="#FFFEFD"/>
<path d="M40.8206 179.586H43.1086L46.7086 188.162H46.7726L50.3406 179.586H52.6286V190.914H51.0926V181.602H51.0606L47.2366 190.914H46.2126L42.3886 181.602H42.3566V190.914H40.8206V179.586ZM55.0966 184.258C55.5019 183.885 55.9712 183.607 56.5046 183.426C57.0379 183.234 57.5712 183.138 58.1046 183.138C58.6592 183.138 59.1339 183.207 59.5286 183.346C59.9339 183.485 60.2646 183.671 60.5206 183.906C60.7766 184.141 60.9632 184.413 61.0806 184.722C61.2086 185.021 61.2726 185.335 61.2726 185.666V189.538C61.2726 189.805 61.2779 190.05 61.2886 190.274C61.2992 190.498 61.3152 190.711 61.3366 190.914H60.0566C60.0246 190.53 60.0086 190.146 60.0086 189.762H59.9766C59.6566 190.253 59.2779 190.599 58.8406 190.802C58.4032 191.005 57.8966 191.106 57.3206 191.106C56.9686 191.106 56.6326 191.058 56.3126 190.962C55.9926 190.866 55.7099 190.722 55.4646 190.53C55.2299 190.338 55.0432 190.103 54.9046 189.826C54.7659 189.538 54.6966 189.207 54.6966 188.834C54.6966 188.343 54.8032 187.933 55.0166 187.602C55.2406 187.271 55.5392 187.005 55.9126 186.802C56.2966 186.589 56.7392 186.439 57.2406 186.354C57.7526 186.258 58.2966 186.21 58.8726 186.21H59.9286V185.89C59.9286 185.698 59.8912 185.506 59.8166 185.314C59.7419 185.122 59.6299 184.951 59.4806 184.802C59.3312 184.642 59.1446 184.519 58.9206 184.434C58.6966 184.338 58.4299 184.29 58.1206 184.29C57.8432 184.29 57.5979 184.317 57.3846 184.37C57.1819 184.423 56.9952 184.493 56.8246 184.578C56.6539 184.653 56.4992 184.743 56.3606 184.85C56.2219 184.957 56.0886 185.058 55.9606 185.154L55.0966 184.258ZM59.1606 187.266C58.8192 187.266 58.4672 187.287 58.1046 187.33C57.7526 187.362 57.4272 187.431 57.1286 187.538C56.8406 187.645 56.6006 187.794 56.4086 187.986C56.2272 188.178 56.1366 188.423 56.1366 188.722C56.1366 189.159 56.2806 189.474 56.5686 189.666C56.8672 189.858 57.2672 189.954 57.7686 189.954C58.1632 189.954 58.4992 189.89 58.7766 189.762C59.0539 189.623 59.2779 189.447 59.4486 189.234C59.6192 189.021 59.7419 188.786 59.8166 188.53C59.8912 188.263 59.9286 188.002 59.9286 187.746V187.266H59.1606ZM62.4494 183.33H64.1134L66.3694 189.25H66.4014L68.5454 183.33H70.0974L66.4974 192.546C66.3694 192.877 66.2361 193.175 66.0974 193.442C65.9588 193.719 65.7934 193.954 65.6014 194.146C65.4094 194.338 65.1748 194.487 64.8974 194.594C64.6308 194.701 64.3001 194.754 63.9054 194.754C63.6921 194.754 63.4734 194.738 63.2494 194.706C63.0361 194.685 62.8281 194.631 62.6254 194.546L62.8014 193.234C63.0894 193.351 63.3774 193.41 63.6654 193.41C63.8894 193.41 64.0761 193.378 64.2254 193.314C64.3854 193.261 64.5188 193.175 64.6254 193.058C64.7428 192.951 64.8388 192.823 64.9134 192.674C64.9881 192.525 65.0628 192.354 65.1374 192.162L65.6014 190.962L62.4494 183.33Z" fill="#1B4AC3"/>
</g>
<path opacity="0.6" d="M120.3 181.586H127.612V183.026H121.836V186.402H127.212V187.842H121.836V191.474H127.9V192.914H120.3V181.586ZM129.713 185.33H131.153V186.498H131.185C131.366 186.093 131.681 185.767 132.129 185.522C132.577 185.266 133.094 185.138 133.681 185.138C134.044 185.138 134.39 185.197 134.721 185.314C135.062 185.421 135.356 185.591 135.601 185.826C135.857 186.061 136.06 186.365 136.209 186.738C136.358 187.101 136.433 187.533 136.433 188.034V192.914H134.993V188.434C134.993 188.082 134.945 187.783 134.849 187.538C134.753 187.282 134.625 187.079 134.465 186.93C134.305 186.77 134.118 186.658 133.905 186.594C133.702 186.519 133.489 186.482 133.265 186.482C132.966 186.482 132.689 186.53 132.433 186.626C132.177 186.722 131.953 186.877 131.761 187.09C131.569 187.293 131.42 187.554 131.313 187.874C131.206 188.194 131.153 188.573 131.153 189.01V192.914H129.713V185.33ZM139.692 189.65C139.692 189.981 139.761 190.285 139.9 190.562C140.049 190.829 140.241 191.058 140.476 191.25C140.71 191.442 140.982 191.591 141.292 191.698C141.601 191.805 141.921 191.858 142.252 191.858C142.7 191.858 143.089 191.757 143.42 191.554C143.75 191.341 144.054 191.063 144.332 190.722L145.42 191.554C144.62 192.589 143.5 193.106 142.06 193.106C141.462 193.106 140.918 193.005 140.428 192.802C139.948 192.599 139.537 192.322 139.196 191.97C138.865 191.607 138.609 191.186 138.428 190.706C138.246 190.215 138.156 189.687 138.156 189.122C138.156 188.557 138.252 188.034 138.444 187.554C138.646 187.063 138.918 186.642 139.26 186.29C139.612 185.927 140.028 185.645 140.508 185.442C140.988 185.239 141.51 185.138 142.076 185.138C142.748 185.138 143.313 185.255 143.772 185.49C144.241 185.725 144.625 186.034 144.924 186.418C145.222 186.791 145.436 187.218 145.564 187.698C145.702 188.167 145.772 188.647 145.772 189.138V189.65H139.692ZM144.236 188.498C144.225 188.178 144.172 187.885 144.076 187.618C143.99 187.351 143.857 187.122 143.676 186.93C143.494 186.727 143.265 186.573 142.988 186.466C142.721 186.349 142.406 186.29 142.044 186.29C141.692 186.29 141.366 186.359 141.068 186.498C140.78 186.626 140.534 186.797 140.332 187.01C140.129 187.223 139.969 187.463 139.852 187.73C139.745 187.986 139.692 188.242 139.692 188.498H144.236Z" fill="#1B4AC3"/>
<path opacity="0.6" d="M198.05 181.586H205.362V183.026H199.586V186.402H204.962V187.842H199.586V191.474H205.65V192.914H198.05V181.586ZM207.463 185.33H208.903V186.498H208.935C209.116 186.093 209.431 185.767 209.879 185.522C210.327 185.266 210.844 185.138 211.431 185.138C211.794 185.138 212.14 185.197 212.471 185.314C212.812 185.421 213.106 185.591 213.351 185.826C213.607 186.061 213.81 186.365 213.959 186.738C214.108 187.101 214.183 187.533 214.183 188.034V192.914H212.743V188.434C212.743 188.082 212.695 187.783 212.599 187.538C212.503 187.282 212.375 187.079 212.215 186.93C212.055 186.77 211.868 186.658 211.655 186.594C211.452 186.519 211.239 186.482 211.015 186.482C210.716 186.482 210.439 186.53 210.183 186.626C209.927 186.722 209.703 186.877 209.511 187.09C209.319 187.293 209.17 187.554 209.063 187.874C208.956 188.194 208.903 188.573 208.903 189.01V192.914H207.463V185.33ZM217.442 189.65C217.442 189.981 217.511 190.285 217.65 190.562C217.799 190.829 217.991 191.058 218.226 191.25C218.46 191.442 218.732 191.591 219.042 191.698C219.351 191.805 219.671 191.858 220.002 191.858C220.45 191.858 220.839 191.757 221.17 191.554C221.5 191.341 221.804 191.063 222.082 190.722L223.17 191.554C222.37 192.589 221.25 193.106 219.81 193.106C219.212 193.106 218.668 193.005 218.178 192.802C217.698 192.599 217.287 192.322 216.946 191.97C216.615 191.607 216.359 191.186 216.178 190.706C215.996 190.215 215.906 189.687 215.906 189.122C215.906 188.557 216.002 188.034 216.194 187.554C216.396 187.063 216.668 186.642 217.01 186.29C217.362 185.927 217.778 185.645 218.258 185.442C218.738 185.239 219.26 185.138 219.826 185.138C220.498 185.138 221.063 185.255 221.522 185.49C221.991 185.725 222.375 186.034 222.674 186.418C222.972 186.791 223.186 187.218 223.314 187.698C223.452 188.167 223.522 188.647 223.522 189.138V189.65H217.442ZM221.986 188.498C221.975 188.178 221.922 187.885 221.826 187.618C221.74 187.351 221.607 187.122 221.426 186.93C221.244 186.727 221.015 186.573 220.738 186.466C220.471 186.349 220.156 186.29 219.794 186.29C219.442 186.29 219.116 186.359 218.818 186.498C218.53 186.626 218.284 186.797 218.082 187.01C217.879 187.223 217.719 187.463 217.602 187.73C217.495 187.986 217.442 188.242 217.442 188.498H221.986Z" fill="#1B4AC3"/>
<path opacity="0.6" d="M275.8 181.586H283.112V183.026H277.336V186.402H282.712V187.842H277.336V191.474H283.4V192.914H275.8V181.586ZM285.213 185.33H286.653V186.498H286.685C286.866 186.093 287.181 185.767 287.629 185.522C288.077 185.266 288.594 185.138 289.181 185.138C289.544 185.138 289.89 185.197 290.221 185.314C290.562 185.421 290.856 185.591 291.101 185.826C291.357 186.061 291.56 186.365 291.709 186.738C291.858 187.101 291.933 187.533 291.933 188.034V192.914H290.493V188.434C290.493 188.082 290.445 187.783 290.349 187.538C290.253 187.282 290.125 187.079 289.965 186.93C289.805 186.77 289.618 186.658 289.405 186.594C289.202 186.519 288.989 186.482 288.765 186.482C288.466 186.482 288.189 186.53 287.933 186.626C287.677 186.722 287.453 186.877 287.261 187.09C287.069 187.293 286.92 187.554 286.813 187.874C286.706 188.194 286.653 188.573 286.653 189.01V192.914H285.213V185.33ZM295.192 189.65C295.192 189.981 295.261 190.285 295.4 190.562C295.549 190.829 295.741 191.058 295.976 191.25C296.21 191.442 296.482 191.591 296.792 191.698C297.101 191.805 297.421 191.858 297.752 191.858C298.2 191.858 298.589 191.757 298.92 191.554C299.25 191.341 299.554 191.063 299.832 190.722L300.92 191.554C300.12 192.589 299 193.106 297.56 193.106C296.962 193.106 296.418 193.005 295.928 192.802C295.448 192.599 295.037 192.322 294.696 191.97C294.365 191.607 294.109 191.186 293.928 190.706C293.746 190.215 293.656 189.687 293.656 189.122C293.656 188.557 293.752 188.034 293.944 187.554C294.146 187.063 294.418 186.642 294.76 186.29C295.112 185.927 295.528 185.645 296.008 185.442C296.488 185.239 297.01 185.138 297.576 185.138C298.248 185.138 298.813 185.255 299.272 185.49C299.741 185.725 300.125 186.034 300.424 186.418C300.722 186.791 300.936 187.218 301.064 187.698C301.202 188.167 301.272 188.647 301.272 189.138V189.65H295.192ZM299.736 188.498C299.725 188.178 299.672 187.885 299.576 187.618C299.49 187.351 299.357 187.122 299.176 186.93C298.994 186.727 298.765 186.573 298.488 186.466C298.221 186.349 297.906 186.29 297.544 186.29C297.192 186.29 296.866 186.359 296.568 186.498C296.28 186.626 296.034 186.797 295.832 187.01C295.629 187.223 295.469 187.463 295.352 187.73C295.245 187.986 295.192 188.242 295.192 188.498H299.736Z" fill="#1B4AC3"/>
<path opacity="0.6" d="M42.5498 227.586H49.8618V229.026H44.0858V232.402H49.4618V233.842H44.0858V237.474H50.1498V238.914H42.5498V227.586ZM51.963 231.33H53.403V232.498H53.435C53.6163 232.093 53.931 231.767 54.379 231.522C54.827 231.266 55.3443 231.138 55.931 231.138C56.2937 231.138 56.6403 231.197 56.971 231.314C57.3123 231.421 57.6057 231.591 57.851 231.826C58.107 232.061 58.3097 232.365 58.459 232.738C58.6083 233.101 58.683 233.533 58.683 234.034V238.914H57.243V234.434C57.243 234.082 57.195 233.783 57.099 233.538C57.003 233.282 56.875 233.079 56.715 232.93C56.555 232.77 56.3683 232.658 56.155 232.594C55.9523 232.519 55.739 232.482 55.515 232.482C55.2163 232.482 54.939 232.53 54.683 232.626C54.427 232.722 54.203 232.877 54.011 233.09C53.819 233.293 53.6697 233.554 53.563 233.874C53.4563 234.194 53.403 234.573 53.403 235.01V238.914H51.963V231.33ZM61.9416 235.65C61.9416 235.981 62.011 236.285 62.1496 236.562C62.299 236.829 62.491 237.058 62.7256 237.25C62.9603 237.442 63.2323 237.591 63.5416 237.698C63.851 237.805 64.171 237.858 64.5016 237.858C64.9496 237.858 65.339 237.757 65.6696 237.554C66.0003 237.341 66.3043 237.063 66.5816 236.722L67.6696 237.554C66.8696 238.589 65.7496 239.106 64.3096 239.106C63.7123 239.106 63.1683 239.005 62.6776 238.802C62.1976 238.599 61.787 238.322 61.4456 237.97C61.115 237.607 60.859 237.186 60.6776 236.706C60.4963 236.215 60.4056 235.687 60.4056 235.122C60.4056 234.557 60.5016 234.034 60.6936 233.554C60.8963 233.063 61.1683 232.642 61.5096 232.29C61.8616 231.927 62.2776 231.645 62.7576 231.442C63.2376 231.239 63.7603 231.138 64.3256 231.138C64.9976 231.138 65.563 231.255 66.0216 231.49C66.491 231.725 66.875 232.034 67.1736 232.418C67.4723 232.791 67.6856 233.218 67.8136 233.698C67.9523 234.167 68.0216 234.647 68.0216 235.138V235.65H61.9416ZM66.4856 234.498C66.475 234.178 66.4216 233.885 66.3256 233.618C66.2403 233.351 66.107 233.122 65.9256 232.93C65.7443 232.727 65.515 232.573 65.2376 232.466C64.971 232.349 64.6563 232.29 64.2936 232.29C63.9416 232.29 63.6163 232.359 63.3176 232.498C63.0296 232.626 62.7843 232.797 62.5816 233.01C62.379 233.223 62.219 233.463 62.1016 233.73C61.995 233.986 61.9416 234.242 61.9416 234.498H66.4856Z" fill="#1B4AC3"/>
<path opacity="0.6" d="M120.3 227.586H127.612V229.026H121.836V232.402H127.212V233.842H121.836V237.474H127.9V238.914H120.3V227.586ZM129.713 231.33H131.153V232.498H131.185C131.366 232.093 131.681 231.767 132.129 231.522C132.577 231.266 133.094 231.138 133.681 231.138C134.044 231.138 134.39 231.197 134.721 231.314C135.062 231.421 135.356 231.591 135.601 231.826C135.857 232.061 136.06 232.365 136.209 232.738C136.358 233.101 136.433 233.533 136.433 234.034V238.914H134.993V234.434C134.993 234.082 134.945 233.783 134.849 233.538C134.753 233.282 134.625 233.079 134.465 232.93C134.305 232.77 134.118 232.658 133.905 232.594C133.702 232.519 133.489 232.482 133.265 232.482C132.966 232.482 132.689 232.53 132.433 232.626C132.177 232.722 131.953 232.877 131.761 233.09C131.569 233.293 131.42 233.554 131.313 233.874C131.206 234.194 131.153 234.573 131.153 235.01V238.914H129.713V231.33ZM139.692 235.65C139.692 235.981 139.761 236.285 139.9 236.562C140.049 236.829 140.241 237.058 140.476 237.25C140.71 237.442 140.982 237.591 141.292 237.698C141.601 237.805 141.921 237.858 142.252 237.858C142.7 237.858 143.089 237.757 143.42 237.554C143.75 237.341 144.054 237.063 144.332 236.722L145.42 237.554C144.62 238.589 143.5 239.106 142.06 239.106C141.462 239.106 140.918 239.005 140.428 238.802C139.948 238.599 139.537 238.322 139.196 237.97C138.865 237.607 138.609 237.186 138.428 236.706C138.246 236.215 138.156 235.687 138.156 235.122C138.156 234.557 138.252 234.034 138.444 233.554C138.646 233.063 138.918 232.642 139.26 232.29C139.612 231.927 140.028 231.645 140.508 231.442C140.988 231.239 141.51 231.138 142.076 231.138C142.748 231.138 143.313 231.255 143.772 231.49C144.241 231.725 144.625 232.034 144.924 232.418C145.222 232.791 145.436 233.218 145.564 233.698C145.702 234.167 145.772 234.647 145.772 235.138V235.65H139.692ZM144.236 234.498C144.225 234.178 144.172 233.885 144.076 233.618C143.99 233.351 143.857 233.122 143.676 232.93C143.494 232.727 143.265 232.573 142.988 232.466C142.721 232.349 142.406 232.29 142.044 232.29C141.692 232.29 141.366 232.359 141.068 232.498C140.78 232.626 140.534 232.797 140.332 233.01C140.129 233.223 139.969 233.463 139.852 233.73C139.745 233.986 139.692 234.242 139.692 234.498H144.236Z" fill="#1B4AC3"/>
<path opacity="0.6" d="M198.05 227.586H205.362V229.026H199.586V232.402H204.962V233.842H199.586V237.474H205.65V238.914H198.05V227.586ZM207.463 231.33H208.903V232.498H208.935C209.116 232.093 209.431 231.767 209.879 231.522C210.327 231.266 210.844 231.138 211.431 231.138C211.794 231.138 212.14 231.197 212.471 231.314C212.812 231.421 213.106 231.591 213.351 231.826C213.607 232.061 213.81 232.365 213.959 232.738C214.108 233.101 214.183 233.533 214.183 234.034V238.914H212.743V234.434C212.743 234.082 212.695 233.783 212.599 233.538C212.503 233.282 212.375 233.079 212.215 232.93C212.055 232.77 211.868 232.658 211.655 232.594C211.452 232.519 211.239 232.482 211.015 232.482C210.716 232.482 210.439 232.53 210.183 232.626C209.927 232.722 209.703 232.877 209.511 233.09C209.319 233.293 209.17 233.554 209.063 233.874C208.956 234.194 208.903 234.573 208.903 235.01V238.914H207.463V231.33ZM217.442 235.65C217.442 235.981 217.511 236.285 217.65 236.562C217.799 236.829 217.991 237.058 218.226 237.25C218.46 237.442 218.732 237.591 219.042 237.698C219.351 237.805 219.671 237.858 220.002 237.858C220.45 237.858 220.839 237.757 221.17 237.554C221.5 237.341 221.804 237.063 222.082 236.722L223.17 237.554C222.37 238.589 221.25 239.106 219.81 239.106C219.212 239.106 218.668 239.005 218.178 238.802C217.698 238.599 217.287 238.322 216.946 237.97C216.615 237.607 216.359 237.186 216.178 236.706C215.996 236.215 215.906 235.687 215.906 235.122C215.906 234.557 216.002 234.034 216.194 233.554C216.396 233.063 216.668 232.642 217.01 232.29C217.362 231.927 217.778 231.645 218.258 231.442C218.738 231.239 219.26 231.138 219.826 231.138C220.498 231.138 221.063 231.255 221.522 231.49C221.991 231.725 222.375 232.034 222.674 232.418C222.972 232.791 223.186 233.218 223.314 233.698C223.452 234.167 223.522 234.647 223.522 235.138V235.65H217.442ZM221.986 234.498C221.975 234.178 221.922 233.885 221.826 233.618C221.74 233.351 221.607 233.122 221.426 232.93C221.244 232.727 221.015 232.573 220.738 232.466C220.471 232.349 220.156 232.29 219.794 232.29C219.442 232.29 219.116 232.359 218.818 232.498C218.53 232.626 218.284 232.797 218.082 233.01C217.879 233.223 217.719 233.463 217.602 233.73C217.495 233.986 217.442 234.242 217.442 234.498H221.986Z" fill="#1B4AC3"/>
<path opacity="0.6" d="M275.8 227.586H283.112V229.026H277.336V232.402H282.712V233.842H277.336V237.474H283.4V238.914H275.8V227.586ZM285.213 231.33H286.653V232.498H286.685C286.866 232.093 287.181 231.767 287.629 231.522C288.077 231.266 288.594 231.138 289.181 231.138C289.544 231.138 289.89 231.197 290.221 231.314C290.562 231.421 290.856 231.591 291.101 231.826C291.357 232.061 291.56 232.365 291.709 232.738C291.858 233.101 291.933 233.533 291.933 234.034V238.914H290.493V234.434C290.493 234.082 290.445 233.783 290.349 233.538C290.253 233.282 290.125 233.079 289.965 232.93C289.805 232.77 289.618 232.658 289.405 232.594C289.202 232.519 288.989 232.482 288.765 232.482C288.466 232.482 288.189 232.53 287.933 232.626C287.677 232.722 287.453 232.877 287.261 233.09C287.069 233.293 286.92 233.554 286.813 233.874C286.706 234.194 286.653 234.573 286.653 235.01V238.914H285.213V231.33ZM295.192 235.65C295.192 235.981 295.261 236.285 295.4 236.562C295.549 236.829 295.741 237.058 295.976 237.25C296.21 237.442 296.482 237.591 296.792 237.698C297.101 237.805 297.421 237.858 297.752 237.858C298.2 237.858 298.589 237.757 298.92 237.554C299.25 237.341 299.554 237.063 299.832 236.722L300.92 237.554C300.12 238.589 299 239.106 297.56 239.106C296.962 239.106 296.418 239.005 295.928 238.802C295.448 238.599 295.037 238.322 294.696 237.97C294.365 237.607 294.109 237.186 293.928 236.706C293.746 236.215 293.656 235.687 293.656 235.122C293.656 234.557 293.752 234.034 293.944 233.554C294.146 233.063 294.418 232.642 294.76 232.29C295.112 231.927 295.528 231.645 296.008 231.442C296.488 231.239 297.01 231.138 297.576 231.138C298.248 231.138 298.813 231.255 299.272 231.49C299.741 231.725 300.125 232.034 300.424 232.418C300.722 232.791 300.936 233.218 301.064 233.698C301.202 234.167 301.272 234.647 301.272 235.138V235.65H295.192ZM299.736 234.498C299.725 234.178 299.672 233.885 299.576 233.618C299.49 233.351 299.357 233.122 299.176 232.93C298.994 232.727 298.765 232.573 298.488 232.466C298.221 232.349 297.906 232.29 297.544 232.29C297.192 232.29 296.866 232.359 296.568 232.498C296.28 232.626 296.034 232.797 295.832 233.01C295.629 233.223 295.469 233.463 295.352 233.73C295.245 233.986 295.192 234.242 295.192 234.498H299.736Z" fill="#1B4AC3"/>
<defs>
<filter id="filter0_ddi_1258_9526" x="12" y="172.914" width="85.75" height="30" filterUnits="userSpaceOnUse" color-interpolation-filters="sRGB">
<feFlood flood-opacity="0" result="BackgroundImageFix"/>
<feColorMatrix in="SourceAlpha" type="matrix" values="0 0 0 0 0 0 0 0 0 0 0 0 0 0 0 0 0 0 127 0" result="hardAlpha"/>
<feMorphology radius="2" operator="erode" in="SourceAlpha" result="effect1_dropShadow_1258_9526"/>
<feOffset dy="3"/>
<feColorMatrix type="matrix" values="0 0 0 0 0.627451 0 0 0 0 0.698039 0 0 0 0 0.905882 0 0 0 0.14 0"/>
<feBlend mode="normal" in2="BackgroundImageFix" result="effect1_dropShadow_1258_9526"/>
<feColorMatrix in="SourceAlpha" type="matrix" values="0 0 0 0 0 0 0 0 0 0 0 0 0 0 0 0 0 0 127 0" result="hardAlpha"/>
<feOffset dy="2"/>
<feGaussianBlur stdDeviation="2"/>
<feColorMatrix type="matrix" values="0 0 0 0 0.627451 0 0 0 0 0.698039 0 0 0 0 0.905882 0 0 0 0.02 0"/>
<feBlend mode="normal" in2="effect1_dropShadow_1258_9526" result="effect2_dropShadow_1258_9526"/>
<feBlend mode="normal" in="SourceGraphic" in2="effect2_dropShadow_1258_9526" result="shape"/>
<feColorMatrix in="SourceAlpha" type="matrix" values="0 0 0 0 0 0 0 0 0 0 0 0 0 0 0 0 0 0 127 0" result="hardAlpha"/>
<feMorphology radius="2" operator="dilate" in="SourceAlpha" result="effect3_innerShadow_1258_9526"/>
<feOffset dy="1"/>
<feComposite in2="hardAlpha" operator="arithmetic" k2="-1" k3="1"/>
<feColorMatrix type="matrix" values="0 0 0 0 0.627451 0 0 0 0 0.698039 0 0 0 0 0.905882 0 0 0 0.02 0"/>
<feBlend mode="normal" in2="shape" result="effect3_innerShadow_1258_9526"/>
</filter>
</defs>
</svg>
