<svg width="688" height="252" viewBox="0 0 688 252" fill="none" xmlns="http://www.w3.org/2000/svg">
<rect y="0.841797" width="688" height="251.073" rx="16" fill="#F7F8FF"/>
<path d="M119.082 69.1178C119.082 71.4098 117.366 73.266 115.245 73.266H90.7842C88.6662 73.266 86.9487 71.409 86.9487 69.1178V31.713C86.9487 29.4187 88.667 27.5625 90.7842 27.5625H115.245C117.366 27.5625 119.082 29.4187 119.082 31.713V69.1178Z" fill="#1B4AC3"/>
<path d="M103.174 33.2597C103.174 33.6954 102.306 34.0479 101.239 34.0479H88.8862C87.8167 34.0479 86.9497 33.6954 86.9497 33.2597V26.1647C86.9497 25.7304 87.816 25.3779 88.8862 25.3779H101.239C102.306 25.3779 103.174 25.7304 103.174 26.1647V33.2597Z" fill="#1B4AC3"/>
<path d="M120.997 67.3782C120.997 69.323 119.263 70.8957 117.121 70.8957H92.4021C90.2639 70.8957 88.5269 69.3222 88.5269 67.3782V35.6757C88.5269 33.7325 90.2639 32.1582 92.4021 32.1582H117.121C119.263 32.1582 120.997 33.7332 120.997 35.6757V67.3782Z" fill="#D0D2D3"/>
<path d="M120.568 64.8982C120.568 66.568 119.066 67.9871 117.121 67.9871H92.4021C90.4603 67.9871 88.9554 66.5671 88.9554 64.8982V33.1957C88.9554 31.5277 90.4601 30.1083 92.4021 30.1083H117.121C119.066 30.1083 120.568 31.5281 120.568 33.1957V64.8982Z" fill="white" stroke="#D0D2D3" stroke-width="0.857143"/>
<path d="M112.325 31.5875C112.325 31.8215 111.171 32.012 109.752 32.012H93.3275C91.9055 32.012 90.752 31.8215 90.752 31.5875V27.7663C90.752 27.53 91.9055 27.3418 93.3275 27.3418H109.752C111.171 27.3418 112.325 27.53 112.325 27.7663V31.5875Z" fill="#D0D2D3"/>
<path d="M95.0523 38.9H116.474C117.915 38.9 117.915 36.875 116.474 36.875H95.0523C93.616 36.875 93.616 38.9 95.0523 38.9ZM95.0523 43.0137H116.474C117.915 43.0137 117.915 40.9902 116.474 40.9902H95.0523C93.616 40.9902 93.616 43.0137 95.0523 43.0137ZM95.0523 47.2175H116.474C117.915 47.2175 117.915 45.1925 116.474 45.1925H95.0523C93.616 45.1925 93.616 47.2175 95.0523 47.2175ZM95.0523 51.3275H116.474C117.915 51.3275 117.915 49.304 116.474 49.304H95.0523C93.616 49.304 93.616 51.3275 95.0523 51.3275ZM95.0523 59.2625H104.913C106.35 59.2625 106.35 57.2382 104.913 57.2382H95.0523C93.616 57.2375 93.616 59.2625 95.0523 59.2625Z" fill="#1B4AC3"/>
<path d="M163.99 70.7769C152.171 70.7769 142.556 61.1615 142.556 49.3427C142.556 37.5239 152.171 27.9092 163.99 27.9092C175.808 27.9092 185.423 37.524 185.423 49.3428C185.423 61.1616 175.808 70.7769 163.99 70.7769Z" fill="#FFFEFD"/>
<path d="M163.99 34.3765C172.242 34.3765 178.956 41.0904 178.956 49.3428C178.956 57.5952 172.242 64.3091 163.99 64.3091C155.737 64.3091 149.023 57.5952 149.023 49.3428C149.023 41.0904 155.737 34.3765 163.99 34.3765ZM163.99 31.3428C154.049 31.3428 145.99 39.4016 145.99 49.3428C145.99 59.2839 154.049 67.3428 163.99 67.3428C173.931 67.3428 181.99 59.2839 181.99 49.3428C181.99 39.4016 173.931 31.3428 163.99 31.3428Z" fill="#1B4AC3"/>
<path d="M163.989 51.1124C163.031 51.1124 162.255 50.3359 162.255 49.3781V34.0039C162.255 33.0461 163.031 32.2695 163.989 32.2695C164.947 32.2695 165.724 33.0461 165.724 34.0039V49.3781C165.724 50.3359 164.947 51.1124 163.989 51.1124Z" fill="#99AAB5"/>
<path d="M163.989 51.1124C163.031 51.1124 162.255 50.3359 162.255 49.3781V34.0039C162.255 33.0461 163.031 32.2695 163.989 32.2695C164.947 32.2695 165.724 33.0461 165.724 34.0039V49.3781C165.724 50.3359 164.947 51.1124 163.989 51.1124Z" fill="black" fill-opacity="0.2"/>
<path d="M175.758 47.6037H175.757L165.759 47.6081C165.309 47.1493 164.683 46.8643 163.989 46.8643C162.62 46.8643 161.51 47.9742 161.51 49.3432C161.51 50.7123 162.62 51.8221 163.989 51.8221C164.683 51.8221 165.311 51.5365 165.761 51.0767L175.758 51.0724C176.716 51.0719 177.492 50.2951 177.492 49.3372C177.492 48.3796 176.715 47.6037 175.758 47.6037Z" fill="#CCD6DD"/>
<path d="M238.667 32.8642C238.914 32.6339 239.242 32.5087 239.58 32.5149C239.918 32.5211 240.241 32.6582 240.48 32.8974C240.719 33.1366 240.856 33.4592 240.863 33.7974C240.869 34.1356 240.744 34.4631 240.513 34.7109L222.512 52.7109C222.265 52.9447 221.937 53.0729 221.597 53.0682C221.257 53.0636 220.932 52.9265 220.691 52.686C220.451 52.4456 220.314 52.1208 220.309 51.7808C220.305 51.4408 220.433 51.1124 220.667 50.8655L238.667 32.8642Z" fill="#1B4AC3"/>
<path d="M244.586 25.9635C244.77 25.7724 244.991 25.6201 245.235 25.5152C245.479 25.4104 245.741 25.3553 246.007 25.353C246.272 25.3506 246.536 25.4012 246.781 25.5018C247.027 25.6024 247.251 25.7509 247.438 25.9387C247.626 26.1264 247.775 26.3498 247.875 26.5955C247.976 26.8413 248.026 27.1047 248.024 27.3703C248.022 27.6358 247.967 27.8982 247.862 28.1423C247.757 28.3863 247.605 28.607 247.414 28.7915L239.872 36.3328C239.688 36.5238 239.467 36.6762 239.223 36.781C238.979 36.8858 238.717 36.941 238.451 36.9433C238.185 36.9456 237.922 36.895 237.676 36.7944C237.43 36.6939 237.207 36.5454 237.019 36.3576C236.832 36.1698 236.683 35.9465 236.583 35.7007C236.482 35.4549 236.431 35.1915 236.434 34.926C236.436 34.6604 236.491 34.398 236.596 34.154C236.701 33.91 236.853 33.6893 237.044 33.5048L244.586 25.9635Z" fill="#CCD6DD"/>
<path d="M206.933 70.1152L205.991 69.1726L222.013 53.1406L222.956 54.0832L206.933 70.1152ZM203.16 68.2259L202.217 67.2832L219.188 50.3126L220.131 51.2566L203.16 68.2259Z" fill="#FFFEFD"/>
<path d="M212.588 71.9981L201.274 60.6848L202.217 59.7421L213.53 71.0555L212.588 71.9981ZM217.301 71.0555L203.16 56.9115L204.102 55.9688L218.245 70.1128L217.301 71.0555ZM220.13 68.2261L205.046 53.1421L205.989 52.1995L221.073 67.2835L220.13 68.2261ZM222.017 64.4555L208.817 51.2568L209.76 50.3141L222.96 63.5141L222.017 64.4555ZM223.901 60.6848L212.588 49.3715L213.53 48.4288L224.845 59.7421L223.901 60.6848Z" fill="#1B4AC3"/>
<path d="M212.588 72.1855L201.274 60.8722L202.217 59.9295L213.53 71.2429L212.588 72.1855ZM217.301 71.2429L203.16 57.0989L204.102 56.1562L218.245 70.3002L217.301 71.2429ZM220.13 68.4135L205.046 53.3295L205.989 52.3869L221.073 67.4709L220.13 68.4135ZM222.017 64.6429L208.817 51.4442L209.76 50.5015L222.96 63.7015L222.017 64.6429ZM223.901 60.8722L212.588 49.5589L213.53 48.6162L224.845 59.9295L223.901 60.8722Z" fill="#1B4AC3"/>
<path d="M210.702 71.998L209.76 71.0554L223.901 56.9114L224.844 57.854L210.702 71.998ZM202.217 63.5114L201.274 62.57L215.416 48.4274L216.36 49.37L202.217 63.5114Z" fill="#FFFEFD"/>
<path d="M203.291 70.0875C207.92 74.7155 215.893 74.2462 221.1 69.0395C226.308 63.8315 226.776 55.8595 222.148 51.2315C217.519 46.6022 209.548 47.0702 204.34 52.2795C199.132 57.4862 198.663 65.4582 203.291 70.0875ZM220.419 52.9595C224.063 56.6035 223.571 63.0062 219.319 67.2595C215.067 71.5115 208.665 72.0022 205.02 68.3582C201.375 64.7128 201.868 58.3115 206.12 54.0595C210.372 49.8075 216.775 49.3142 220.419 52.9595Z" fill="#1B4AC3"/>
<path d="M219.188 50.3136C219.438 50.0637 219.777 49.9232 220.131 49.9232C220.484 49.9232 220.823 50.0637 221.073 50.3136L222.96 52.2003C223.084 52.3242 223.182 52.4712 223.249 52.633C223.316 52.7949 223.35 52.9683 223.35 53.1434C223.35 53.3186 223.316 53.492 223.248 53.6537C223.181 53.8155 223.083 53.9625 222.959 54.0863C222.835 54.2101 222.688 54.3083 222.527 54.3752C222.365 54.4422 222.191 54.4766 222.016 54.4766C221.662 54.4764 221.323 54.3358 221.073 54.0856L219.188 52.2003C219.064 52.0765 218.966 51.9294 218.899 51.7675C218.831 51.6057 218.797 51.4322 218.797 51.257C218.797 51.0817 218.831 50.9082 218.899 50.7464C218.966 50.5845 219.064 50.4375 219.188 50.3136Z" fill="#226699"/>
<path d="M222.016 49.3713C222.14 49.2474 222.287 49.1491 222.448 49.082C222.61 49.015 222.784 48.9804 222.959 48.9803C223.134 48.9803 223.307 49.0147 223.469 49.0817C223.631 49.1486 223.778 49.2468 223.902 49.3706C224.026 49.4944 224.124 49.6414 224.191 49.8032C224.258 49.9649 224.293 50.1383 224.293 50.3135C224.293 50.4886 224.258 50.662 224.191 50.8238C224.124 50.9857 224.026 51.1327 223.903 51.2566L222.96 52.1993C222.707 52.4373 222.372 52.5675 222.025 52.5624C221.678 52.5572 221.346 52.417 221.101 52.1716C220.855 51.9262 220.715 51.5948 220.71 51.2477C220.705 50.9007 220.835 50.5652 221.073 50.3126L222.016 49.3713Z" fill="#226699"/>
<path d="M236.587 33.9647C237.367 33.1834 237.691 34.1274 238.472 34.9074C239.252 35.6887 240.195 36.0127 239.415 36.7927C239.23 36.9838 239.009 37.1361 238.765 37.2409C238.521 37.3458 238.259 37.4009 237.993 37.4032C237.728 37.4056 237.465 37.3549 237.219 37.2544C236.973 37.1538 236.75 37.0053 236.562 36.8175C236.374 36.6297 236.226 36.4064 236.125 36.1607C236.024 35.9149 235.974 35.6515 235.976 35.3859C235.978 35.1204 236.034 34.8579 236.138 34.6139C236.243 34.3699 236.396 34.1492 236.587 33.9647Z" fill="#226699"/>
<path d="M204.243 44.2983C204.743 44.7983 205.421 45.0791 206.128 45.0791C206.835 45.0791 207.513 44.7983 208.013 44.2983L208.956 43.3557L208.013 42.413L206.128 40.5277L205.185 39.5823L204.243 40.5277C203.743 41.0277 203.462 41.7059 203.462 42.413C203.462 43.1201 203.743 43.7983 204.243 44.2983Z" fill="#1B4AC3"/>
<path d="M208.955 43.3516L205.184 39.5782L206.127 38.6356L209.899 42.4089L208.955 43.3516Z" fill="#D0D2D3"/>
<path d="M209.899 42.4111L206.128 38.6378C206.779 36.6738 212.887 26.4711 213.24 26.8231C214.252 27.8338 213.508 29.3725 213.508 29.3725C213.508 29.3725 214.583 28.2471 215.551 29.2165C216.519 30.1858 215.393 31.2578 215.393 31.2578C215.393 31.2578 216.381 29.9658 217.479 31.0591C218.58 32.1605 217.28 33.1418 217.28 33.1418C217.28 33.1418 218.588 32.1698 219.431 33.0111C220.272 33.8551 219.165 35.0298 219.165 35.0298C219.165 35.0298 220.496 34.4725 221.507 35.4858C221.992 35.9685 211.733 41.6311 209.899 42.4111Z" fill="#FFFEFD"/>
<path d="M210.431 38.1593C209.52 37.3886 215.4 30.9166 216.536 32.0526C217.671 33.1899 211.524 39.0859 210.431 38.1593ZM220.361 35.8859C219.771 34.9793 212.607 39.9819 213.125 40.5993C213.16 40.6406 213.221 40.6593 213.293 40.6699C215.461 39.4926 218.085 37.9953 219.783 36.9046C220.239 36.4566 220.489 36.0833 220.361 35.8859ZM208.051 35.5233C208.667 36.0446 213.669 28.8779 212.764 28.2873C212.527 28.1339 212.043 28.5139 211.471 29.1619C210.276 31.0347 209.133 32.9398 208.043 34.8753C207.956 35.1953 207.944 35.4326 208.051 35.5233ZM211.863 39.5086C211.291 38.9406 217.981 33.3206 218.653 34.1726C219.32 35.0233 212.552 40.1926 211.863 39.5086ZM209.141 36.7873C209.709 37.3579 215.328 30.6673 214.477 29.9979C213.625 29.3286 208.456 36.0966 209.141 36.7873Z" fill="#CCD6DD"/>
<path d="M267.493 48.2806C267.389 47.598 267.914 46.9814 268.604 46.975L289.829 46.7796C292.935 46.7909 291.689 47.1609 294.499 45.953C294.528 45.9402 294.559 45.9258 294.587 45.9103C294.587 45.9103 299.484 43.3624 299.517 43.3415C301.661 41.9832 306.529 45.2694 306.529 49.599C306.529 52.4926 304.482 54.9818 301.643 55.5409L290.535 57.519C290.449 57.5343 290.365 57.5595 290.285 57.594L274.054 64.5862C273.848 64.675 273.62 64.7006 273.4 64.6601C273.179 64.6195 272.976 64.5144 272.815 64.3582L269.722 61.3551C269.545 61.1827 269.428 60.9571 269.391 60.7125L267.493 48.2806Z" fill="#EBEEF6"/>
<path d="M270.144 60.7996L280.288 57.9374C279.951 59.2418 279.394 60.6702 278.478 61.7576C274.487 66.4903 267.004 66.1348 262.626 61.7576C259.125 58.2559 259.125 52.5784 262.626 49.0766C263.924 47.7785 265.596 47.0819 267.296 46.9868C269.263 46.8768 271.268 47.5733 272.771 49.0766C273.275 49.5805 273.635 50.1699 273.943 50.768C275.14 53.0881 274.686 57.1319 272.949 58.8691" fill="#96A9B2"/>
<path d="M277.434 48.0448L283.033 48.0455C283.154 48.0455 283.27 48.0851 283.365 48.1591C283.802 48.4976 285.03 49.5708 285.254 51.0743C285.582 53.265 285.522 54.3183 285.426 54.8063C285.404 54.9184 285.347 55.0207 285.264 55.0986C285.18 55.1766 285.074 55.2261 284.961 55.2403L278.378 56.071C277.967 56.1228 277.657 55.7157 277.807 55.3297C278.709 53.0182 278.103 50.3976 276.991 48.9042C276.728 48.5493 276.992 48.0447 277.434 48.0448ZM286.468 48.9113L294.331 48.8031L301.345 45.6818C301.455 45.6327 301.541 45.5418 301.585 45.4291C301.628 45.3164 301.625 45.1911 301.576 45.0807C301.527 44.9704 301.436 44.8841 301.323 44.8408C301.21 44.7975 301.085 44.8008 300.975 44.8499L294.132 47.8952L286.455 48.0008C286.336 48.0031 286.221 48.0525 286.138 48.1383C286.054 48.2241 286.008 48.3394 286.009 48.4591C286.01 48.5789 286.057 48.6935 286.142 48.7782C286.227 48.8628 286.342 48.9107 286.461 48.9114L286.468 48.9113ZM287.393 51.4891L296.402 51.0451L302.86 48.2079C302.915 48.1839 302.964 48.1493 303.006 48.1061C303.047 48.063 303.08 48.0121 303.101 47.9564C303.123 47.9007 303.134 47.8412 303.132 47.7814C303.131 47.7217 303.118 47.6627 303.094 47.608C303.07 47.5532 303.035 47.5037 302.992 47.4623C302.949 47.4209 302.898 47.3885 302.842 47.3668C302.787 47.345 302.727 47.3345 302.667 47.3358C302.608 47.3371 302.549 47.3502 302.494 47.3743L296.189 50.1438L287.348 50.5796C287.227 50.5855 287.114 50.6391 287.033 50.7286C286.952 50.8181 286.91 50.9361 286.916 51.0567C286.922 51.1773 286.975 51.2906 287.065 51.3717C287.154 51.4528 287.272 51.495 287.393 51.4891Z" fill="#1B4AC3"/>
<path d="M292.795 57.0711C300.656 55.5667 302.054 55.7495 303.486 55.114C306.568 53.7468 308.601 49.9451 307.704 47.7503C307.644 47.6036 307.48 47.5291 307.332 47.585L294.951 52.5047L281.196 52.3354C281.165 52.335 281.134 52.3406 281.106 52.3519C281.077 52.3633 281.051 52.3803 281.029 52.4018C281.007 52.4233 280.99 52.4489 280.978 52.4772C280.966 52.5055 280.959 52.5359 280.959 52.5666C280.95 54.0218 280.649 61.8433 275.254 64.2265" fill="#CCD6DD"/>
<path d="M274.621 54.0635C274.737 55.9782 274.185 57.8754 272.722 59.3384C270.553 61.5078 267.035 61.5078 264.866 59.3384C263.829 58.3018 263.412 56.8804 263.613 55.5339C263.624 55.4628 263.657 55.3968 263.707 55.3455C263.758 55.2942 263.823 55.2602 263.894 55.2483L274.601 53.4721M263.364 53.5434C263.386 53.5434 263.407 53.5419 263.429 53.5389L274.391 51.9948C274.318 51.6947 274.222 51.4008 274.103 51.1157L263.302 52.6371C263.188 52.6534 263.084 52.7122 263.012 52.8017C262.94 52.8912 262.904 53.0047 262.912 53.1195C262.92 53.2343 262.971 53.3418 263.055 53.4204C263.139 53.4991 263.249 53.543 263.364 53.5434ZM264.971 50.5413C264.992 50.5413 265.014 50.5397 265.035 50.5367L273.069 49.4051C272.975 49.2911 272.875 49.1815 272.771 49.0766C272.604 48.9098 272.428 48.7512 272.245 48.6016L264.908 49.635C264.794 49.6513 264.691 49.7101 264.618 49.7995C264.546 49.889 264.51 50.0026 264.518 50.1174C264.526 50.2321 264.577 50.3396 264.661 50.4183C264.745 50.4969 264.856 50.5408 264.971 50.5413Z" fill="#1B4AC3"/>
<path d="M273.198 58.8081L267.956 59.6606C267.838 59.6774 267.718 59.6473 267.622 59.5766C267.526 59.506 267.461 59.4005 267.442 59.2829C267.423 59.1652 267.451 59.0447 267.52 58.9473C267.588 58.8498 267.692 58.7832 267.81 58.7617L273.875 57.7754C273.683 58.1408 273.457 58.4867 273.198 58.8081ZM266.439 57.1739C266.463 57.1739 266.488 57.1719 266.513 57.168L274.522 55.8654C274.577 55.5548 274.612 55.2409 274.627 54.9258L266.366 56.2692C266.254 56.288 266.153 56.3482 266.082 56.4382C266.012 56.5281 265.978 56.6411 265.987 56.7548C265.996 56.8686 266.048 56.9747 266.132 57.0523C266.215 57.1299 266.325 57.1733 266.439 57.1739Z" fill="#EBEEF6"/>
<path d="M293.287 56.7012C295.683 51.4633 294.831 49.1362 290.221 47.0411C289.875 46.8838 289.95 46.3729 290.326 46.3241L293.978 45.8508C294.048 45.8417 294.119 45.8524 294.183 45.8817C294.815 46.1704 298.266 47.8378 299.17 50.1982C300.048 52.4949 299.019 55.4432 298.711 56.2287L298.421 56.462L293.689 57.2295C293.392 57.2776 293.161 56.9747 293.287 56.7012Z" fill="#1B4AC3"/>
<g clip-path="url(#clip0_1258_5930)">
<path d="M366.076 52.481C369.141 46.6426 362.911 42.5938 354.766 40.6082C355.379 39.2154 355.557 37.3923 353.829 35.6515C351.613 33.4235 353.085 30.1779 353.085 30.1779C353.085 30.1779 348.434 34.4683 351.371 37.4267C352.454 38.517 353.018 39.4746 353.288 40.2754C351.039 39.812 348.763 39.4982 346.473 39.3362C347.157 37.477 347.223 35.1419 345.068 32.9059C342.118 29.8411 344.082 25.3779 344.082 25.3779C344.082 25.3779 337.88 31.2771 341.796 35.3443C343.226 36.8275 343.978 38.133 344.343 39.2274C341.916 39.1546 339.58 39.261 337.505 39.5514C337.752 38.3554 337.546 36.9803 336.226 35.6523C334.01 33.4243 335.484 30.1779 335.484 30.1779C335.484 30.1779 330.832 34.4683 333.77 37.4267C334.69 38.353 335.229 39.1802 335.538 39.901C335.188 39.9778 334.848 40.061 334.521 40.1514C324.407 39.205 319.996 41.2946 322.011 45.3938C318.494 48.9106 319.816 52.9241 324.217 55.9953C326.513 65.4521 327.104 73.3776 344.397 73.3776C359.827 73.3776 361.959 67.0657 363.87 58.9873C369.605 57.8457 368.383 55.0969 366.076 52.481ZM364.646 51.5362C362.725 55.6321 354.389 58.7153 344.397 58.7153C334.405 58.7153 326.069 55.6321 324.147 51.5362C324.106 51.4146 324.067 51.2882 324.028 51.165C324.943 48.8434 327.918 46.829 332.095 45.4802C331.114 46.429 330.91 47.8458 333.493 48.3426C334.232 48.485 336.262 47.9922 335.374 45.4738C335.25 45.1218 335.048 44.8858 334.799 44.7434C337.67 44.0866 340.928 43.7082 344.397 43.7082C344.785 43.7082 345.167 43.7218 345.55 43.7306C343.549 44.441 341.916 46.6298 346.003 47.2754C346.905 47.4178 349.383 46.925 348.3 44.4066C348.205 44.1821 348.054 43.9863 347.86 43.8386C351.689 44.1202 355.159 44.8578 357.964 45.921C355.497 45.7834 352.761 47.3034 357.143 49.4434C358.083 49.9026 360.939 50.3242 360.546 47.5434C360.518 47.3425 360.447 47.1499 360.338 46.9786C362.581 48.1602 364.145 49.593 364.765 51.165L364.646 51.5362Z" fill="#1B4AC3"/>
<path d="M338.4 56.1716C340.986 56.1716 342.711 53.8332 344.062 52.918C345.95 51.6381 350.697 51.1389 346.516 51.0381C342.551 50.9429 337.655 54.162 334.383 53.9404C328.965 53.5724 334.514 56.1716 338.4 56.1716ZM343.989 60.9492C344.902 61.1252 347.413 60.5156 346.315 57.4012C345.074 53.8772 337.563 59.7124 343.989 60.9492ZM329.768 53.2412C328.895 52.0093 327.629 50.4469 327.105 51.2605C326.389 52.3732 326.164 54.6124 326.684 54.7116C330.761 55.4932 330.475 54.2388 329.768 53.2412ZM353.468 53.7404C354.203 52.83 352.735 50.6389 351.792 51.0221C350.317 51.6221 349.467 51.2157 348.819 52.1261C347.301 54.258 352.468 54.9764 353.468 53.7404ZM353.008 56.3492C351.951 55.8828 352.2 57.4452 350.638 56.1916C349.52 55.294 347.113 57.558 348.7 59.0956C350.467 60.8068 350.937 59.1804 351.68 59.3172C353.188 59.5948 355.783 57.5732 353.008 56.3492ZM335.423 56.8836C334.872 56.3412 334.133 56.9956 333.715 57.794C333.301 57.5908 332.965 57.5436 332.965 57.5436C332.649 56.6428 331.709 56.0252 331.709 56.0252C331.709 56.0252 331.794 56.962 331.918 57.4188C330.88 57.05 330.848 55.194 330.848 55.194C330.848 55.194 330.151 55.6108 330.214 56.3188C329.071 55.3964 328.097 55.8276 328.097 55.8276C328.097 55.8276 329.548 56.6436 329.748 57.194C328.933 57.2572 328.458 57.5388 328.181 58.194C328.182 58.1996 329.791 57.4284 330.981 57.9852C330.512 58.3692 330.745 59.3284 330.745 59.3284C331.853 58.154 332.738 58.2796 333.446 58.49C333.361 58.8492 333.366 59.1772 333.518 59.3764C334.746 60.9908 339.024 60.6276 340.173 59.434C341.564 57.99 337.698 59.1228 335.423 56.8836Z" fill="#1B4AC3"/>
<path d="M339.115 47.8817C338.751 48.6129 338.748 49.1649 339.169 49.7393C339.175 49.7409 339.339 47.9649 340.427 47.2289C340.516 47.8289 341.459 48.1201 341.459 48.1201C340.705 45.4513 342.905 45.3121 342.895 44.3545C341.728 44.4529 341.066 45.3009 341.066 45.3009C340.131 45.1097 339.117 45.5985 339.117 45.5985C339.117 45.5985 339.966 46.0057 340.421 46.1345C339.571 46.8361 337.962 45.9105 337.962 45.9105C337.962 45.9105 337.962 46.7233 338.602 47.0313C337.223 47.5393 337.094 48.5953 337.094 48.5953C337.094 48.5953 338.539 47.7705 339.115 47.8817ZM359.555 51.5264C359.886 50.8976 359.403 50.2441 359.403 50.2441C359.403 50.2441 358.66 51.9456 357.56 51.8872C357.85 51.5128 358.29 50.6809 358.29 50.6809C358.29 50.6809 357.184 50.8912 356.546 51.6008C356.546 51.6008 355.509 51.3136 354.514 51.928C355.075 52.704 356.926 51.5064 357.908 54.1C357.908 54.1 358.492 53.3056 358.206 52.7704C359.52 52.7136 360.709 54.0432 360.713 54.0384C360.708 53.3264 360.378 52.8848 359.65 52.5136C360.046 52.0824 361.699 51.8864 361.699 51.8864C361.699 51.8864 360.966 51.1144 359.555 51.5264Z" fill="#1B4AC3"/>
</g>
<path d="M399.995 32.428C399.995 29.7692 402.159 27.6055 404.818 27.6055C407.476 27.6055 409.64 29.7692 409.64 32.428C409.64 35.0867 407.476 37.2505 404.818 37.2505C402.159 37.2505 399.995 35.0905 399.995 32.428ZM402.8 32.428C402.8 33.5417 403.704 34.4455 404.818 34.4455C405.931 34.4455 406.835 33.5417 406.835 32.428C406.835 31.3142 405.931 30.4105 404.818 30.4105C403.704 30.4105 402.8 31.318 402.8 32.428Z" fill="#1B4AC3"/>
<path d="M408.965 29.9834C408.965 29.9834 409.179 30.8346 408.193 31.2996C407.206 31.7609 406.554 31.4196 406.554 31.4196C406.73 31.7196 406.835 32.0609 406.835 32.4321C406.835 33.5459 405.931 34.4496 404.818 34.4496C403.704 34.4496 402.8 33.5459 402.8 32.4321C402.8 32.3196 402.826 31.8959 403.006 31.5434C401.334 32.3384 400.063 31.6596 400.063 31.6596C400.021 31.9109 399.995 32.1696 399.995 32.4321C399.995 35.0909 402.159 37.2546 404.818 37.2546C407.476 37.2546 409.64 35.0909 409.64 32.4284C409.64 31.5359 409.393 30.6996 408.965 29.9834Z" fill="#D0D2D3"/>
<path d="M383.923 62.0527C386.461 59.559 388.044 58.719 388.689 55.104C389.334 51.489 388.816 43.8727 391.659 38.8852C394.254 34.3177 399.016 32.4277 403.663 32.4277C403.775 32.4277 403.888 32.4352 404 32.4352C404.113 32.4315 404.225 32.4277 404.338 32.4277C408.984 32.4277 413.746 34.3177 416.341 38.8815C419.18 43.8727 418.666 51.489 419.311 55.1002C419.956 58.7152 421.539 59.5552 424.078 62.049C425.173 63.1252 426.496 64.839 426.5 65.9415C426.504 67.044 425.941 67.4452 424.603 68.0077C420.815 69.6015 415.753 71.1465 404 71.1465C392.248 71.1465 387.185 69.6015 383.398 68.0077C382.059 67.4452 381.496 67.0477 381.5 65.9415C381.504 64.8427 382.828 63.129 383.923 62.0527Z" fill="#1B4AC3"/>
<path d="M422.637 66.0202C422.637 64.3589 414.294 63.0127 404 63.0127C393.706 63.0127 385.362 64.3589 385.362 66.0202C385.362 67.6814 393.706 69.6652 404 69.6652C414.294 69.6652 422.637 67.6814 422.637 66.0202Z" fill="#FFFEFD"/>
<path d="M415.19 42.1743C415.329 42.703 415.445 43.2318 415.539 43.7493C416.015 46.3968 415.929 49.1118 416.142 51.793C416.431 55.3818 417.069 57.2718 418.52 58.9593C418.711 59.1805 418.516 59.5218 418.227 59.4768C416.289 59.1805 414.732 58.8843 412.959 57.7143C410.311 55.9705 409.659 52.6893 409.64 49.7418C409.61 45.3543 409.692 41.1055 409.344 39.493C408.86 37.2468 408.41 36.0505 407.675 34.9593C406.554 33.2943 410.907 35.6043 411.59 36.118C413.491 37.5543 414.582 39.8643 415.19 42.1743Z" fill="#1B4AC3"/>
<path d="M391.584 47.9976C391.539 45.1551 391.561 42.2151 392.694 39.6051C393.372 38.0451 394.524 36.6389 395.994 35.7651C397.149 35.0789 399.496 34.3214 400.34 35.8776C400.509 36.1889 400.576 36.5526 400.587 36.9089C400.617 38.1501 399.972 39.2976 399.346 40.3701C397.494 43.5501 396.755 47.0264 395.776 50.5514C395.375 52.0064 394.865 53.4577 393.991 54.6877C393.391 55.5314 390.05 58.5314 390.815 55.8201C391.55 53.1989 391.625 50.7276 391.584 47.9976Z" fill="#1B4AC3" fill-opacity="0.1"/>
<path d="M407.409 65.4356C407.405 64.7906 407.056 64.4194 406.254 64.1419C404.589 63.5681 402.504 63.6731 401.289 64.3256C400.014 65.0081 400.899 68.7919 404 68.7919C407.101 68.7919 407.412 65.9269 407.409 65.4356Z" fill="#1B4AC3"/>
<path d="M392.469 59.7994C389.176 60.3769 386.791 61.6257 385.76 62.6382C384.943 63.4369 384.943 64.0669 386.383 63.4107C387.466 62.9157 390.939 61.9107 393.98 61.6069C399.204 61.0819 402.429 61.0707 402.965 61.0819C404.221 61.1082 404.326 60.1407 401.788 59.7994C399.249 59.4619 395.761 59.2257 392.469 59.7994ZM402.673 68.0607C403.108 68.3607 403.685 68.5069 404.173 68.3044C404.66 68.1019 404.975 67.4832 404.735 67.0144C404.641 66.8307 404.48 66.6919 404.319 66.5644C403.873 66.2157 403.378 65.9307 402.853 65.7207C402.646 65.6382 402.429 65.5632 402.204 65.5782C401.983 65.5894 401.75 65.7057 401.664 65.9119C401.293 66.7557 402.035 67.6257 402.673 68.0607Z" fill="#1B4AC3" fill-opacity="0.1"/>
<path d="M485 49.3933H443L445.58 42.9283C445.835 42.2833 446.45 41.8633 447.14 41.8633H480.86C481.55 41.8633 482.165 42.2833 482.42 42.9283L485 49.3933Z" fill="#1B4AC3"/>
<path d="M466.265 30.373H470.3C470.54 30.373 470.735 30.568 470.735 30.808V32.938C470.735 33.178 470.54 33.373 470.3 33.373H467.18C466.685 33.373 466.28 32.968 466.28 32.473V30.373H466.265Z" fill="#1B4AC3" fill-opacity="0.1"/>
<path d="M468.65 31.873H464V28.873H468.65C468.98 28.873 469.25 29.143 469.25 29.473V31.258C469.265 31.603 468.995 31.873 468.65 31.873Z" fill="#1B4AC3"/>
<path opacity="0.7" d="M443 49.3779H453.5V70.3779H443V49.3779ZM485 49.3779H474.5V70.3779H485V49.3779Z" fill="#CCD6DD"/>
<path d="M474.08 46.3181L464.855 37.2281C464.745 37.1174 464.614 37.0296 464.47 36.9697C464.326 36.9098 464.171 36.8789 464.015 36.8789C463.859 36.8789 463.704 36.9098 463.56 36.9697C463.416 37.0296 463.285 37.1174 463.175 37.2281L453.95 46.3181C453.678 46.5882 453.521 46.9543 453.515 47.3381V70.3931H459.466L463.987 68.5826L468.508 70.3931H474.515V47.3231C474.5 46.9481 474.35 46.5881 474.08 46.3181Z" fill="#CCD6DD"/>
<path d="M447.08 56.8779H444.92C444.695 56.8779 444.5 56.6829 444.5 56.4579V52.7979C444.5 52.5729 444.695 52.3779 444.92 52.3779H447.08C447.305 52.3779 447.5 52.5729 447.5 52.7979V56.4579C447.5 56.6979 447.32 56.8779 447.08 56.8779ZM452 56.4579V52.7979C452 52.5729 451.805 52.3779 451.58 52.3779H449.42C449.195 52.3779 449 52.5729 449 52.7979V56.4579C449 56.6829 449.195 56.8779 449.42 56.8779H451.58C451.82 56.8779 452 56.6979 452 56.4579ZM447.5 62.4579V58.7979C447.5 58.5729 447.305 58.3779 447.08 58.3779H444.92C444.695 58.3779 444.5 58.5729 444.5 58.7979V62.4579C444.5 62.6829 444.695 62.8779 444.92 62.8779H447.08C447.32 62.8779 447.5 62.6979 447.5 62.4579ZM452 62.4579V58.7979C452 58.5729 451.805 58.3779 451.58 58.3779H449.42C449.195 58.3779 449 58.5729 449 58.7979V62.4579C449 62.6829 449.195 62.8779 449.42 62.8779H451.58C451.82 62.8779 452 62.6979 452 62.4579ZM478.58 56.8779H476.42C476.195 56.8779 476 56.6829 476 56.4579V52.7979C476 52.5729 476.195 52.3779 476.42 52.3779H478.58C478.805 52.3779 479 52.5729 479 52.7979V56.4579C479 56.6979 478.82 56.8779 478.58 56.8779ZM480.92 56.8779H483.08C483.32 56.8779 483.5 56.6979 483.5 56.4579V52.7979C483.5 52.5729 483.305 52.3779 483.08 52.3779H480.92C480.695 52.3779 480.5 52.5729 480.5 52.7979V56.4579C480.5 56.6829 480.695 56.8779 480.92 56.8779ZM478.58 62.8779H476.42C476.195 62.8779 476 62.6829 476 62.4579V58.7979C476 58.5729 476.195 58.3779 476.42 58.3779H478.58C478.805 58.3779 479 58.5729 479 58.7979V62.4579C479 62.6979 478.82 62.8779 478.58 62.8779ZM480.92 62.8779H483.08C483.32 62.8779 483.5 62.6979 483.5 62.4579V58.7979C483.5 58.5729 483.305 58.3779 483.08 58.3779H480.92C480.695 58.3779 480.5 58.5729 480.5 58.7979V62.4579C480.5 62.6829 480.695 62.8779 480.92 62.8779Z" fill="#FFFEFD"/>
<path d="M464 52.3779C465.193 52.3779 466.338 51.9038 467.182 51.0599C468.026 50.216 468.5 49.0714 468.5 47.8779C468.5 46.6845 468.026 45.5399 467.182 44.6959C466.338 43.852 465.193 43.3779 464 43.3779C462.807 43.3779 461.662 43.852 460.818 44.6959C459.974 45.5399 459.5 46.6845 459.5 47.8779C459.5 49.0714 459.974 50.216 460.818 51.0599C461.662 51.9038 462.807 52.3779 464 52.3779Z" fill="white"/>
<path d="M463.265 34.6779V29.0829C463.265 28.6929 463.58 28.3779 463.97 28.3779H464.06C464.45 28.3779 464.765 28.6929 464.765 29.0829V34.6974C464.834 34.7424 464.9 34.7979 464.96 34.8579L475.505 45.4029C475.82 45.7179 476 46.1379 476 46.5879L475.985 49.3179C476 49.3329 476 49.3629 476 49.3929C476 49.8129 475.67 50.1429 475.25 50.1429C474.83 50.1429 474.5 49.8129 474.5 49.3929C474.5 49.3779 474.504 49.3659 474.507 49.3554C474.512 49.3435 474.515 49.3308 474.515 49.3179H474.5V47.5029C474.5 47.1129 474.335 46.7379 474.065 46.4679L464.84 37.2429C464.73 37.1323 464.599 37.0445 464.455 36.9845C464.311 36.9246 464.156 36.8938 464 36.8938C463.844 36.8938 463.689 36.9246 463.545 36.9845C463.401 37.0445 463.27 37.1323 463.16 37.2429L453.935 46.4679C453.65 46.7379 453.5 47.1129 453.5 47.5029V49.3179H453.485C453.485 49.3329 453.488 49.3434 453.492 49.3554C453.497 49.3674 453.5 49.3801 453.5 49.3929C453.5 49.8129 453.17 50.1429 452.75 50.1429C452.33 50.1429 452 49.8129 452 49.3929C452 49.3779 452.003 49.3659 452.008 49.3554C452.012 49.3435 452.015 49.3308 452.015 49.3179H452V46.5879C452 46.1529 452.18 45.7179 452.495 45.4029L463.04 34.8579C463.108 34.79 463.184 34.7296 463.265 34.6779ZM463.25 47.7429C463.25 47.7699 463.25 47.7969 463.255 47.8239C463.243 47.9355 463.257 48.0481 463.295 48.1536C463.333 48.259 463.395 48.3545 463.475 48.4329L465.695 50.6529C465.83 50.8029 466.025 50.8779 466.22 50.8779C466.415 50.8779 466.595 50.8029 466.76 50.6529C467.06 50.3529 467.06 49.8879 466.76 49.5879L464.75 47.5779V45.6279C464.75 45.2079 464.42 44.8779 464 44.8779C463.58 44.8779 463.25 45.2079 463.25 45.6279V47.7429ZM468.515 70.3779H459.44V62.4279C459.44 61.8429 459.905 61.3779 460.49 61.3779H467.465C468.05 61.3779 468.515 61.8429 468.515 62.4279V70.3779Z" fill="#1B4AC3"/>
<path d="M515.464 70.6981H507.75V38.258C507.75 37.0988 508.513 36.1592 509.455 36.1592H513.759C514.701 36.1592 515.464 37.0988 515.464 38.258V70.6981Z" fill="#1B4AC3"/>
<path d="M528.071 70.6986H520.357V53.1457C520.357 51.9865 521.12 51.0469 522.062 51.0469H526.366C527.308 51.0469 528.071 51.9865 528.071 53.1457V70.6986Z" fill="#1B4AC3"/>
<path d="M540.678 70.6982H532.964V32.963C532.964 31.8039 533.727 30.8643 534.669 30.8643H538.973C539.915 30.8643 540.678 31.8039 540.678 32.963V70.6982H540.678Z" fill="#1B4AC3"/>
<path d="M607.16 49.7187C608.03 50.84 607.925 52.1975 606.905 52.73L576.001 68.9112C574.644 69.6162 572.859 69.035 572.049 67.6175L560.548 47.5287C559.876 46.355 560.398 44.9787 561.684 44.465L591.493 32.5887C592.49 32.195 593.896 32.645 594.639 33.6012L607.16 49.7187Z" fill="#1B4AC3"/>
<mask id="mask0_1258_5930" style="mask-type:luminance" maskUnits="userSpaceOnUse" x="560" y="32" width="48" height="38">
<path d="M607.16 49.7197C608.03 50.8409 607.925 52.1984 606.905 52.7309L576.001 68.9122C574.643 69.6172 572.858 69.0359 572.048 67.6184L560.547 47.5297C559.876 46.3559 560.397 44.9797 561.683 44.4659L591.492 32.5897C592.49 32.1959 593.896 32.6459 594.638 33.6022L607.16 49.7197Z" fill="white"/>
</mask>
<g mask="url(#mask0_1258_5930)">
<path d="M600.072 38.811L563.161 55.1572L559.992 49.5472L596.573 34.3447L600.072 38.811Z" fill="#CCD6DD"/>
</g>
<path d="M604.722 49.6101C605.15 50.1726 605.09 50.8476 604.572 51.1064L600.414 53.2289C599.877 53.5026 599.086 53.2476 598.659 52.6626L596.217 49.3139C595.809 48.7476 595.91 48.0801 596.442 47.8251L600.579 45.8564C601.089 45.6126 601.839 45.8564 602.259 46.3964L604.722 49.6101Z" fill="#FFFEFD"/>
<path fill-rule="evenodd" clip-rule="evenodd" d="M102.937 113.73C103.761 114.554 103.761 115.889 102.937 116.713L93.8815 125.769H116.211C117.376 125.769 118.32 126.713 118.32 127.878C118.32 129.043 117.376 129.987 116.211 129.987H93.8815L102.937 139.043C103.761 139.866 103.761 141.202 102.937 142.026C102.113 142.849 100.778 142.849 99.9538 142.026L87.2975 129.369C86.4737 128.546 86.4737 127.21 87.2975 126.386L99.9538 113.73C100.778 112.906 102.113 112.906 102.937 113.73Z" fill="#121F39"/>
<path d="M165.625 122.804L155.5 132.929M155.5 122.804L165.625 132.929M169 116.054C169 116.054 151.692 115.587 150.437 116.054C149.183 116.521 138.625 127.867 138.625 127.867L150.437 139.679H169C169.895 139.679 170.754 139.323 171.386 138.69C172.019 138.058 172.375 137.199 172.375 136.304V119.429C172.375 118.534 172.019 117.676 171.386 117.043C170.754 116.41 169.895 116.054 169 116.054Z" stroke="#121F39" stroke-width="2.4" stroke-linecap="round" stroke-linejoin="round"/>
<path d="M224.423 128.242L222.354 127.906C222.221 127.883 222.098 127.818 222.004 127.719C221.909 127.621 221.849 127.495 221.831 127.359C221.791 127.103 221.751 126.846 221.696 126.598C221.669 126.464 221.684 126.326 221.74 126.202C221.795 126.078 221.888 125.975 222.005 125.907L223.837 124.88C223.976 124.809 224.084 124.688 224.141 124.542C224.198 124.396 224.2 124.233 224.146 124.086L223.829 123.204C223.776 123.056 223.67 122.933 223.533 122.859C223.395 122.785 223.235 122.766 223.083 122.804L221.029 123.204C220.896 123.231 220.758 123.213 220.635 123.153C220.512 123.094 220.412 122.997 220.348 122.875C220.229 122.651 220.102 122.426 219.967 122.202C219.896 122.085 219.863 121.948 219.873 121.811C219.883 121.674 219.935 121.544 220.023 121.439L221.394 119.842C221.501 119.727 221.562 119.578 221.566 119.421C221.571 119.264 221.518 119.111 221.418 118.991L220.824 118.27C220.725 118.149 220.585 118.069 220.431 118.047C220.277 118.025 220.12 118.061 219.991 118.149L218.191 119.241C218.075 119.31 217.941 119.341 217.807 119.328C217.673 119.315 217.547 119.259 217.446 119.169C217.256 119 217.057 118.832 216.859 118.671C216.753 118.586 216.677 118.47 216.642 118.339C216.606 118.207 216.613 118.068 216.661 117.941L217.406 115.958C217.47 115.815 217.479 115.652 217.431 115.502C217.383 115.352 217.283 115.225 217.148 115.145L216.339 114.672C216.204 114.595 216.046 114.57 215.894 114.602C215.742 114.635 215.607 114.723 215.515 114.849L214.195 116.518C214.121 116.623 214.015 116.7 213.892 116.737C213.77 116.773 213.639 116.767 213.521 116.719C213.521 116.719 213.076 116.534 212.743 116.421C212.615 116.378 212.504 116.295 212.426 116.185C212.348 116.074 212.307 115.941 212.309 115.805L212.341 113.686C212.35 113.528 212.302 113.373 212.206 113.249C212.109 113.124 211.971 113.04 211.817 113.011L210.898 112.851C210.744 112.824 210.586 112.855 210.453 112.938C210.32 113.021 210.221 113.15 210.176 113.301L209.494 115.307C209.45 115.437 209.366 115.548 209.255 115.626C209.144 115.704 209.011 115.744 208.876 115.741H208.098C207.963 115.743 207.831 115.703 207.719 115.625C207.608 115.547 207.525 115.436 207.48 115.307L206.798 113.301C206.753 113.15 206.654 113.021 206.521 112.938C206.388 112.855 206.23 112.824 206.076 112.851L205.157 113.011C205.003 113.04 204.865 113.124 204.768 113.249C204.672 113.373 204.624 113.528 204.633 113.686L204.665 115.805C204.667 115.941 204.625 116.074 204.547 116.185C204.469 116.296 204.357 116.379 204.229 116.422C204.047 116.494 203.65 116.647 203.46 116.719C203.238 116.799 202.976 116.735 202.762 116.486L201.452 114.857C201.359 114.731 201.224 114.644 201.072 114.612C200.92 114.58 200.762 114.605 200.627 114.683L199.818 115.157C199.684 115.235 199.582 115.361 199.534 115.51C199.486 115.659 199.494 115.821 199.556 115.965L200.302 117.947C200.349 118.075 200.356 118.214 200.32 118.345C200.284 118.476 200.209 118.592 200.104 118.677C199.906 118.837 199.707 119.006 199.517 119.175C199.416 119.265 199.29 119.321 199.156 119.334C199.022 119.347 198.888 119.317 198.772 119.247L196.998 118.139C196.868 118.053 196.712 118.018 196.559 118.04C196.405 118.062 196.265 118.14 196.165 118.26L195.571 118.981C195.471 119.101 195.418 119.254 195.423 119.411C195.427 119.567 195.488 119.717 195.595 119.831L196.966 121.429C197.055 121.533 197.109 121.663 197.119 121.801C197.129 121.938 197.095 122.075 197.022 122.191C196.887 122.405 196.76 122.629 196.641 122.865C196.576 122.985 196.476 123.082 196.353 123.141C196.231 123.2 196.093 123.219 195.96 123.194L193.906 122.793C193.754 122.756 193.595 122.776 193.457 122.85C193.32 122.924 193.214 123.046 193.16 123.194L192.843 124.075C192.789 124.223 192.791 124.385 192.848 124.532C192.905 124.678 193.013 124.798 193.152 124.87L194.981 125.897C195.099 125.964 195.193 126.067 195.249 126.191C195.305 126.315 195.319 126.455 195.291 126.588C195.243 126.844 195.196 127.093 195.156 127.35C195.137 127.485 195.076 127.61 194.982 127.709C194.888 127.807 194.765 127.872 194.632 127.896L192.563 128.232C192.409 128.252 192.267 128.326 192.164 128.443C192.06 128.56 192.002 128.71 192 128.867V129.806C191.998 129.963 192.055 130.116 192.159 130.234C192.264 130.351 192.408 130.425 192.563 130.44L194.632 130.776C194.766 130.799 194.889 130.864 194.983 130.963C195.077 131.061 195.138 131.187 195.156 131.323C195.196 131.579 195.235 131.836 195.291 132.084C195.318 132.218 195.302 132.356 195.247 132.48C195.191 132.604 195.098 132.707 194.981 132.775L193.15 133.803C193.011 133.875 192.903 133.995 192.846 134.142C192.789 134.288 192.787 134.45 192.84 134.598L193.158 135.479C193.211 135.627 193.316 135.75 193.454 135.824C193.592 135.898 193.752 135.918 193.903 135.88L195.957 135.479C196.091 135.453 196.229 135.471 196.352 135.53C196.474 135.59 196.575 135.687 196.639 135.808C196.758 136.033 196.885 136.257 197.019 136.482C197.091 136.599 197.124 136.736 197.114 136.872C197.104 137.009 197.051 137.139 196.964 137.245L195.592 138.843C195.486 138.958 195.425 139.107 195.42 139.264C195.416 139.421 195.469 139.574 195.568 139.694L196.163 140.415C196.262 140.536 196.402 140.616 196.556 140.638C196.71 140.661 196.867 140.624 196.996 140.536L198.796 139.444C198.911 139.375 199.046 139.345 199.18 139.358C199.314 139.371 199.44 139.426 199.541 139.516C199.731 139.685 199.929 139.854 200.128 140.015C200.233 140.099 200.309 140.215 200.345 140.347C200.381 140.478 200.374 140.617 200.326 140.744L199.58 142.727C199.518 142.871 199.51 143.033 199.558 143.182C199.607 143.332 199.708 143.458 199.842 143.537L200.651 144.011C200.786 144.088 200.945 144.113 201.097 144.08C201.249 144.048 201.383 143.96 201.476 143.834L202.808 142.18C202.974 141.972 203.244 141.884 203.458 141.972C203.728 142.084 203.91 142.148 204.243 142.261C204.372 142.304 204.483 142.387 204.561 142.498C204.64 142.609 204.681 142.743 204.679 142.879L204.647 144.998C204.638 145.155 204.686 145.311 204.782 145.435C204.879 145.559 205.017 145.644 205.171 145.672L206.09 145.832C206.244 145.859 206.403 145.828 206.536 145.746C206.668 145.663 206.767 145.534 206.812 145.383L207.494 143.38C207.538 143.251 207.622 143.139 207.733 143.061C207.844 142.983 207.977 142.943 208.112 142.947H208.89C209.025 142.944 209.158 142.985 209.269 143.062C209.38 143.14 209.463 143.252 209.508 143.38L210.19 145.383C210.236 145.534 210.334 145.663 210.467 145.746C210.6 145.828 210.758 145.859 210.912 145.832L211.832 145.672C211.985 145.644 212.124 145.559 212.22 145.435C212.316 145.311 212.365 145.155 212.355 144.998L212.323 142.879C212.322 142.743 212.363 142.609 212.441 142.498C212.519 142.387 212.631 142.304 212.759 142.261C213.092 142.148 213.314 142.06 213.521 141.98C213.727 141.9 213.981 141.9 214.179 142.148L215.528 143.826C215.62 143.952 215.756 144.04 215.908 144.072C216.061 144.105 216.22 144.079 216.355 144L217.164 143.527C217.3 143.449 217.402 143.322 217.45 143.173C217.498 143.023 217.49 142.86 217.426 142.716L216.68 140.734C216.633 140.606 216.627 140.467 216.663 140.336C216.698 140.205 216.774 140.089 216.879 140.003C217.077 139.843 217.275 139.675 217.466 139.506C217.566 139.416 217.693 139.36 217.827 139.347C217.961 139.334 218.095 139.365 218.211 139.434L220.004 140.529C220.134 140.615 220.29 140.65 220.444 140.628C220.597 140.605 220.737 140.527 220.837 140.408L221.432 139.687C221.531 139.567 221.584 139.414 221.58 139.257C221.575 139.1 221.514 138.951 221.408 138.836L220.036 137.239C219.947 137.135 219.893 137.004 219.883 136.867C219.873 136.73 219.907 136.593 219.981 136.476C220.115 136.26 220.242 136.036 220.361 135.803C220.426 135.682 220.527 135.586 220.649 135.527C220.772 135.467 220.909 135.449 221.043 135.474L223.097 135.874C223.248 135.911 223.408 135.891 223.545 135.817C223.683 135.743 223.789 135.621 223.843 135.474L224.16 134.592C224.213 134.445 224.211 134.282 224.154 134.136C224.097 133.99 223.989 133.869 223.85 133.798L222.019 132.771C221.901 132.705 221.807 132.602 221.751 132.477C221.695 132.353 221.681 132.214 221.709 132.08C221.757 131.824 221.804 131.575 221.844 131.319C221.863 131.184 221.924 131.058 222.018 130.96C222.112 130.862 222.235 130.796 222.368 130.772L224.437 130.436C224.591 130.417 224.733 130.342 224.836 130.225C224.94 130.109 224.998 129.958 225 129.802V128.861C224.991 128.706 224.929 128.559 224.823 128.446C224.718 128.332 224.576 128.26 224.423 128.242ZM208.501 117.807C211.035 117.806 213.497 118.657 215.499 120.225C217.501 121.793 218.93 123.989 219.559 126.468C219.605 126.657 219.609 126.854 219.569 127.045C219.529 127.235 219.446 127.414 219.327 127.568C219.209 127.721 219.057 127.845 218.883 127.931C218.71 128.016 218.519 128.06 218.327 128.06H209.978C209.753 128.06 209.533 128 209.339 127.886C209.145 127.773 208.985 127.609 208.874 127.412L204.741 120.066C204.645 119.895 204.589 119.704 204.577 119.508C204.565 119.312 204.599 119.116 204.674 118.935C204.75 118.754 204.866 118.593 205.013 118.464C205.16 118.335 205.334 118.242 205.522 118.192C206.495 117.935 207.496 117.805 208.501 117.807ZM197.077 129.342C197.076 127.797 197.382 126.268 197.977 124.845C198.571 123.423 199.443 122.135 200.54 121.058C200.679 120.92 200.847 120.816 201.032 120.753C201.217 120.691 201.413 120.673 201.607 120.7C201.8 120.727 201.984 120.798 202.145 120.908C202.307 121.019 202.441 121.165 202.537 121.336L206.681 128.701C206.791 128.895 206.848 129.114 206.848 129.337C206.848 129.56 206.791 129.779 206.681 129.972L202.503 137.318C202.406 137.488 202.271 137.634 202.109 137.744C201.948 137.853 201.763 137.924 201.57 137.95C201.377 137.976 201.18 137.957 200.996 137.894C200.811 137.831 200.643 137.726 200.505 137.587C199.419 136.512 198.556 135.229 197.967 133.813C197.379 132.398 197.076 130.877 197.077 129.342ZM208.501 140.876C207.478 140.879 206.46 140.746 205.472 140.48C205.283 140.429 205.109 140.336 204.962 140.207C204.816 140.077 204.701 139.915 204.626 139.734C204.551 139.552 204.518 139.356 204.531 139.16C204.543 138.964 204.6 138.773 204.697 138.602L208.869 131.269C208.98 131.074 209.141 130.912 209.334 130.799C209.527 130.687 209.747 130.628 209.97 130.628H218.331C218.523 130.628 218.714 130.673 218.887 130.758C219.06 130.844 219.212 130.968 219.331 131.121C219.45 131.275 219.532 131.453 219.572 131.644C219.612 131.835 219.609 132.032 219.562 132.221C218.931 134.699 217.502 136.894 215.5 138.461C213.497 140.029 211.035 140.878 208.501 140.876Z" fill="#121F39"/>
<path d="M264.009 145.05H257.998C257.991 145.05 257.984 145.05 257.977 145.05C257.077 145.036 256.324 144.41 256.142 143.531C256.134 143.51 256.135 143.482 256.127 143.461L255.656 140.1H255.649C255.073 139.819 254.51 139.495 253.983 139.122L250.826 140.395C250.819 140.395 250.812 140.402 250.805 140.402C249.947 140.726 248.984 140.395 248.513 139.601C248.513 139.594 248.506 139.594 248.506 139.587L245.496 134.383C245.032 133.589 245.215 132.576 245.925 131.986C245.932 131.979 245.939 131.972 245.946 131.965L248.632 129.855L248.625 129.848C248.597 129.497 248.583 129.18 248.583 128.871C248.583 128.554 248.597 128.238 248.625 127.901L245.953 125.805C245.939 125.798 245.932 125.791 245.925 125.777C245.229 125.187 245.053 124.181 245.51 123.394L248.52 118.19C248.52 118.183 248.527 118.183 248.527 118.176C248.998 117.389 249.961 117.051 250.819 117.375C250.826 117.375 250.833 117.382 250.84 117.382L253.997 118.654C254.531 118.289 255.087 117.965 255.663 117.684L256.135 114.316C256.135 114.302 256.142 114.288 256.142 114.281C256.289 113.388 257.063 112.727 257.97 112.706C257.977 112.706 257.984 112.706 257.991 112.706H264.002C264.01 112.706 264.017 112.706 264.024 112.706C264.924 112.72 265.676 113.346 265.859 114.225C265.866 114.246 265.866 114.274 265.873 114.295L266.344 117.656H266.351C266.927 117.937 267.49 118.261 268.017 118.633L271.174 117.361C271.181 117.361 271.188 117.354 271.195 117.354C272.053 117.023 273.017 117.361 273.488 118.155C273.488 118.162 273.495 118.162 273.495 118.169L276.504 123.372C276.968 124.167 276.785 125.179 276.075 125.77C276.068 125.777 276.061 125.784 276.054 125.791L273.368 127.901C273.368 127.908 273.368 127.915 273.368 127.915C273.396 128.273 273.41 128.59 273.41 128.878V128.885C273.41 129.201 273.396 129.525 273.368 129.841L276.054 131.944C276.061 131.951 276.068 131.958 276.075 131.965C276.785 132.555 276.968 133.561 276.504 134.362L273.495 139.565C273.495 139.572 273.488 139.572 273.488 139.579C273.017 140.367 272.053 140.704 271.195 140.381C271.188 140.381 271.181 140.374 271.174 140.374L268.017 139.101C267.483 139.467 266.927 139.79 266.351 140.072L265.88 143.44C265.88 143.454 265.873 143.468 265.873 143.475C265.718 144.368 264.945 145.029 264.038 145.05C264.024 145.05 264.017 145.05 264.009 145.05ZM258.307 142.8H263.693L264.122 139.755C264.227 139.017 264.692 138.377 265.367 138.047C265.845 137.815 266.302 137.547 266.738 137.252C267.356 136.823 268.151 136.732 268.861 137.013L271.716 138.159L274.402 133.512L271.477 131.226C271.16 130.98 270.999 130.579 271.055 130.186C271.118 129.757 271.146 129.314 271.153 128.878C271.153 128.646 271.139 128.393 271.118 128.097C271.048 127.338 271.371 126.6 271.969 126.129L274.395 124.223L271.709 119.576L268.854 120.722C268.151 121.003 267.356 120.919 266.731 120.483C266.302 120.18 265.845 119.913 265.374 119.688C264.699 119.365 264.227 118.725 264.115 117.979L263.693 114.956H258.307L257.878 118.001C257.773 118.739 257.309 119.379 256.634 119.709C256.156 119.941 255.699 120.208 255.263 120.504C254.644 120.933 253.849 121.024 253.139 120.743L250.299 119.597L247.613 124.244L250.024 126.143C250.622 126.614 250.938 127.345 250.875 128.104C250.847 128.379 250.84 128.632 250.84 128.878C250.84 129.117 250.854 129.37 250.875 129.658C250.945 130.418 250.629 131.156 250.031 131.627L247.606 133.533L250.292 138.18L253.139 137.034C253.842 136.753 254.637 136.837 255.263 137.273C255.692 137.576 256.149 137.843 256.62 138.068C257.295 138.391 257.766 139.031 257.878 139.776L258.307 142.8ZM261.007 134.503C260.824 134.503 260.635 134.496 260.452 134.475C258.954 134.327 257.611 133.603 256.655 132.443C255.699 131.283 255.256 129.82 255.403 128.322C255.706 125.236 258.469 122.972 261.556 123.274C264.213 123.541 266.33 125.665 266.597 128.315C266.632 128.681 266.632 129.054 266.597 129.426C266.309 132.33 263.862 134.503 261.007 134.503ZM260.993 125.503C260.213 125.503 259.467 125.77 258.856 126.269C258.16 126.839 257.724 127.647 257.639 128.547C257.548 129.447 257.815 130.319 258.392 131.022C258.961 131.719 259.77 132.154 260.67 132.239C262.519 132.422 264.178 131.065 264.361 129.208C264.382 128.99 264.382 128.765 264.361 128.547C264.199 126.951 262.927 125.679 261.331 125.517C261.218 125.51 261.106 125.503 260.993 125.503Z" fill="#121F39"/>
<path fill-rule="evenodd" clip-rule="evenodd" d="M319.422 117.331C318.839 117.331 318.367 117.803 318.367 118.386C318.367 118.968 318.839 119.44 319.422 119.44C320.004 119.44 320.477 118.968 320.477 118.386C320.477 117.803 320.004 117.331 319.422 117.331ZM316.438 117.331C316.872 116.102 318.044 115.222 319.422 115.222C320.8 115.222 321.972 116.102 322.406 117.331H326.805C327.387 117.331 327.859 117.803 327.859 118.386C327.859 118.968 327.387 119.44 326.805 119.44H322.406C321.972 120.669 320.8 121.55 319.422 121.55C318.044 121.55 316.872 120.669 316.438 119.44H301.492C300.91 119.44 300.438 118.968 300.438 118.386C300.438 117.803 300.91 117.331 301.492 117.331H316.438ZM308.875 125.769C308.293 125.769 307.82 126.241 307.82 126.823C307.82 127.406 308.293 127.878 308.875 127.878C309.457 127.878 309.93 127.406 309.93 126.823C309.93 126.241 309.457 125.769 308.875 125.769ZM305.891 125.769C306.325 124.54 307.497 123.659 308.875 123.659C310.253 123.659 311.425 124.54 311.859 125.769H326.805C327.387 125.769 327.859 126.241 327.859 126.823C327.859 127.406 327.387 127.878 326.805 127.878H311.859C311.425 129.107 310.253 129.987 308.875 129.987C307.497 129.987 306.325 129.107 305.891 127.878H301.492C300.91 127.878 300.438 127.406 300.438 126.823C300.438 126.241 300.91 125.769 301.492 125.769H305.891ZM319.422 134.206C318.839 134.206 318.367 134.678 318.367 135.261C318.367 135.843 318.839 136.315 319.422 136.315C320.004 136.315 320.477 135.843 320.477 135.261C320.477 134.678 320.004 134.206 319.422 134.206ZM316.438 134.206C316.872 132.977 318.044 132.097 319.422 132.097C320.8 132.097 321.972 132.977 322.406 134.206H326.805C327.387 134.206 327.859 134.678 327.859 135.261C327.859 135.843 327.387 136.315 326.805 136.315H322.406C321.972 137.544 320.8 138.425 319.422 138.425C318.044 138.425 316.872 137.544 316.438 136.315H301.492C300.91 136.315 300.438 135.843 300.438 135.261C300.438 134.678 300.91 134.206 301.492 134.206H316.438Z" fill="#121F39"/>
<path fill-rule="evenodd" clip-rule="evenodd" d="M357.784 114.304C359.785 112.967 362.138 112.253 364.545 112.253H364.545C367.773 112.253 370.869 113.535 373.151 115.818C375.433 118.1 376.716 121.196 376.716 124.423V124.423C376.716 126.83 376.002 129.183 374.665 131.185C374.43 131.536 374.178 131.874 373.91 132.197L381.295 139.582C381.735 140.022 381.735 140.734 381.295 141.173C380.856 141.613 380.144 141.613 379.705 141.173L372.319 133.788C371.385 134.563 370.336 135.198 369.203 135.667C366.979 136.588 364.532 136.829 362.171 136.36C359.81 135.89 357.642 134.731 355.94 133.029C354.238 131.327 353.078 129.158 352.609 126.798C352.139 124.437 352.38 121.99 353.301 119.766C354.223 117.542 355.782 115.641 357.784 114.304ZM364.545 114.503C362.583 114.503 360.665 115.085 359.034 116.175C357.403 117.265 356.131 118.814 355.38 120.627C354.629 122.44 354.433 124.434 354.816 126.359C355.198 128.283 356.143 130.051 357.531 131.438C358.918 132.825 360.686 133.77 362.61 134.153C364.534 134.536 366.529 134.339 368.342 133.589C370.154 132.838 371.704 131.566 372.794 129.935C373.884 128.303 374.466 126.385 374.466 124.423M364.545 114.503C367.176 114.503 369.7 115.548 371.56 117.409C373.42 119.269 374.466 121.792 374.466 124.423" fill="#121F39"/>
<path d="M429.533 124.642V119.309M429.533 119.309H424.2M429.533 119.309L423.133 125.633M417.8 136.375L412.467 136.4V131.042M418.867 129.975L412.467 136.375" stroke="#121F39" stroke-width="1.77778" stroke-linecap="round" stroke-linejoin="round"/>
<rect x="405.889" y="112.731" width="30.2222" height="30.2468" rx="8.44445" stroke="#121F39" stroke-width="1.77778"/>
<rect x="451" y="105.378" width="45" height="45" rx="22.5" fill="#F7F8FF"/>
<path d="M465.332 128.053C465.347 128.567 465.538 129.008 465.934 129.404L477.364 140.584C477.702 140.908 478.099 141.084 478.584 141.084C479.568 141.084 480.332 140.32 480.332 139.336C480.332 138.866 480.141 138.425 479.803 138.087L469.519 128.053L479.803 118.019C480.141 117.681 480.332 117.255 480.332 116.77C480.332 115.785 479.568 115.021 478.584 115.021C478.114 115.021 477.702 115.198 477.364 115.521L465.934 126.716C465.523 127.098 465.332 127.539 465.332 128.053Z" fill="#121F39"/>
<rect x="504" y="105.378" width="45" height="45" rx="22.5" fill="#F7F8FF"/>
<rect x="511" y="112.878" width="29.0243" height="30" rx="14.5122" fill="#121F39"/>
<path d="M529.593 126.589V128.63C529.593 129.608 529.496 130.442 529.301 131.134C529.113 131.82 528.838 132.377 528.478 132.806C528.118 133.235 527.686 133.549 527.183 133.749C526.686 133.949 526.129 134.049 525.511 134.049C525.02 134.049 524.562 133.987 524.139 133.861C523.722 133.735 523.345 133.538 523.007 133.269C522.67 133 522.381 132.655 522.141 132.232C521.907 131.803 521.724 131.291 521.593 130.697C521.467 130.102 521.404 129.413 521.404 128.63V126.589C521.404 125.606 521.501 124.777 521.696 124.103C521.89 123.423 522.167 122.871 522.527 122.448C522.887 122.019 523.316 121.708 523.813 121.513C524.316 121.319 524.877 121.222 525.494 121.222C525.991 121.222 526.449 121.285 526.866 121.41C527.289 121.53 527.666 121.722 527.998 121.985C528.335 122.248 528.621 122.591 528.855 123.014C529.095 123.431 529.278 123.937 529.404 124.532C529.53 125.12 529.593 125.806 529.593 126.589ZM527.526 128.922V126.281C527.526 125.783 527.498 125.346 527.441 124.969C527.383 124.586 527.298 124.263 527.183 124C527.075 123.731 526.937 123.514 526.772 123.348C526.606 123.177 526.417 123.054 526.206 122.98C525.994 122.9 525.757 122.859 525.494 122.859C525.174 122.859 524.888 122.922 524.637 123.048C524.385 123.168 524.174 123.363 524.002 123.631C523.831 123.9 523.699 124.254 523.608 124.694C523.522 125.129 523.479 125.658 523.479 126.281V128.922C523.479 129.425 523.508 129.868 523.565 130.251C523.622 130.634 523.708 130.963 523.822 131.237C523.936 131.506 524.074 131.729 524.234 131.906C524.399 132.077 524.588 132.203 524.8 132.283C525.017 132.363 525.254 132.403 525.511 132.403C525.837 132.403 526.126 132.34 526.377 132.214C526.629 132.089 526.84 131.889 527.012 131.614C527.183 131.334 527.312 130.971 527.398 130.525C527.483 130.079 527.526 129.545 527.526 128.922Z" fill="#FFFEFD"/>
<path fill-rule="evenodd" clip-rule="evenodd" d="M579.5 110.696C580.178 110.696 580.727 111.246 580.727 111.924V132.279L584.769 128.238C585.248 127.758 586.025 127.758 586.504 128.238C586.983 128.717 586.983 129.494 586.504 129.973L580.368 136.11C579.889 136.589 579.111 136.589 578.632 136.11L572.496 129.973C572.017 129.494 572.017 128.717 572.496 128.238C572.975 127.758 573.752 127.758 574.231 128.238L578.273 132.279V111.924C578.273 111.246 578.822 110.696 579.5 110.696ZM570.295 122.969C569.807 122.969 569.339 123.163 568.994 123.508C568.648 123.853 568.455 124.322 568.455 124.81V140.764C568.455 141.253 568.648 141.721 568.994 142.066C569.339 142.411 569.807 142.605 570.295 142.605H588.705C589.193 142.605 589.661 142.411 590.006 142.066C590.352 141.721 590.545 141.253 590.545 140.764V124.81C590.545 124.322 590.352 123.853 590.006 123.508C589.661 123.163 589.193 122.969 588.705 122.969H585.636C584.959 122.969 584.409 122.42 584.409 121.742C584.409 121.064 584.959 120.514 585.636 120.514H588.705C589.844 120.514 590.936 120.967 591.742 121.773C592.547 122.578 593 123.671 593 124.81V140.764C593 141.904 592.547 142.996 591.742 143.802C590.936 144.607 589.844 145.06 588.705 145.06H570.295C569.156 145.06 568.064 144.607 567.258 143.802C566.453 142.996 566 141.904 566 140.764V124.81C566 123.671 566.453 122.578 567.258 121.773C568.064 120.967 569.156 120.514 570.295 120.514H573.364C574.041 120.514 574.591 121.064 574.591 121.742C574.591 122.42 574.041 122.969 573.364 122.969H570.295Z" fill="#121F39"/>
<circle cx="102.5" cy="204.878" r="22.5" fill="#F7F8FF"/>
<path d="M110.795 205.863H106.438C103.169 205.863 101.516 204.012 101.516 200.35V196.583C101.516 195.245 101.673 193.328 103.064 192.278C104.233 191.412 105.912 191.346 108.393 192.068C111.648 193.013 114.365 195.73 115.31 198.985C116.032 201.453 115.966 203.146 115.1 204.301C114.05 205.705 112.134 205.863 110.795 205.863ZM105.493 193.538C104.954 193.538 104.534 193.643 104.259 193.853C103.747 194.234 103.498 195.126 103.498 196.583V200.363C103.498 203.303 104.626 203.907 106.451 203.907H110.808C112.252 203.907 113.144 203.658 113.538 203.146C113.998 202.542 113.958 201.335 113.446 199.563C112.685 196.977 110.454 194.733 107.868 193.985C106.897 193.683 106.109 193.538 105.493 193.538Z" fill="#1B4AC3"/>
<path d="M101.279 218.988C100.584 218.988 99.875 218.935 99.1662 218.817C93.7981 217.951 89.4275 213.593 88.5612 208.225C87.4456 201.322 91.895 194.812 98.7069 193.42C99.245 193.315 99.7569 193.657 99.875 194.182C99.98 194.72 99.6388 195.232 99.1138 195.35C93.3519 196.531 89.5719 202.043 90.53 207.91C91.265 212.452 94.9531 216.14 99.4944 216.875C105.387 217.82 110.887 214.027 112.055 208.238C112.16 207.7 112.685 207.359 113.21 207.464C113.748 207.569 114.089 208.094 113.984 208.619C112.737 214.748 107.382 218.988 101.279 218.988Z" fill="#1B4AC3"/>
<circle cx="155.5" cy="204.878" r="22.5" fill="#F7F8FF"/>
<path d="M155.5 196.426H168.625" stroke="#1B4AC3" stroke-width="1.8" stroke-miterlimit="10" stroke-linecap="round" stroke-linejoin="round"/>
<path d="M158.414 191.378H165.711C168.047 191.378 168.625 191.955 168.625 194.265V199.66C168.625 201.97 168.047 202.547 165.711 202.547H158.414C156.078 202.547 155.5 201.97 155.5 199.66V194.265C155.5 191.955 156.078 191.378 158.414 191.378Z" stroke="#1B4AC3" stroke-width="1.8" stroke-linecap="round" stroke-linejoin="round"/>
<path d="M142.375 209.27H155.5" stroke="#1B4AC3" stroke-width="1.8" stroke-miterlimit="10" stroke-linecap="round" stroke-linejoin="round"/>
<path d="M145.289 204.597H152.586C154.922 204.597 155.5 205.174 155.5 207.484V212.879C155.5 215.189 154.922 215.766 152.586 215.766H145.289C142.953 215.766 142.375 215.189 142.375 212.879V207.484C142.375 205.174 142.953 204.597 145.289 204.597Z" stroke="#1B4AC3" stroke-width="1.8" stroke-linecap="round" stroke-linejoin="round"/>
<path d="M168.625 206.565C168.625 211.645 164.517 215.753 159.438 215.753L160.816 213.456" stroke="#1B4AC3" stroke-width="1.8" stroke-linecap="round" stroke-linejoin="round"/>
<path d="M142.375 200.94C142.375 195.861 146.483 191.753 151.562 191.753L150.184 194.05" stroke="#1B4AC3" stroke-width="1.8" stroke-linecap="round" stroke-linejoin="round"/>
<circle cx="208.5" cy="204.878" r="22.5" fill="#F7F8FF"/>
<path d="M221.533 198L217.11 215.758C216.795 217.084 215.614 218.003 214.249 218.003H197.003C195.021 218.003 193.603 216.06 194.194 214.157L199.719 196.412C200.1 195.178 201.242 194.325 202.528 194.325H218.672C219.919 194.325 220.956 195.086 221.389 196.136C221.638 196.701 221.691 197.344 221.533 198Z" stroke="#1B4AC3" stroke-width="1.575" stroke-miterlimit="10"/>
<path d="M213.75 218.003H220.024C221.717 218.003 223.043 216.572 222.925 214.879L221.625 197.003" stroke="#1B4AC3" stroke-width="1.575" stroke-miterlimit="10" stroke-linecap="round" stroke-linejoin="round"/>
<path d="M205.455 197.502L206.82 191.832" stroke="#1B4AC3" stroke-width="1.575" stroke-miterlimit="10" stroke-linecap="round" stroke-linejoin="round"/>
<path d="M214.249 197.515L215.483 191.818" stroke="#1B4AC3" stroke-width="1.575" stroke-miterlimit="10" stroke-linecap="round" stroke-linejoin="round"/>
<path d="M202.856 204.878H213.356" stroke="#1B4AC3" stroke-width="1.575" stroke-miterlimit="10" stroke-linecap="round" stroke-linejoin="round"/>
<path d="M201.543 210.128H212.043" stroke="#1B4AC3" stroke-width="1.575" stroke-miterlimit="10" stroke-linecap="round" stroke-linejoin="round"/>
<circle cx="261.5" cy="204.878" r="22.5" fill="#F7F8FF"/>
<g clip-path="url(#clip1_1258_5930)">
<path d="M261.475 218.959C269.255 218.959 275.562 212.652 275.562 204.872C275.562 197.091 269.255 190.784 261.475 190.784C253.694 190.784 247.387 197.091 247.387 204.872C247.387 212.652 253.694 218.959 261.475 218.959Z" stroke="#1B4AC3" stroke-width="1.8" stroke-miterlimit="10" stroke-linecap="round" stroke-linejoin="round"/>
<path d="M261.5 194.459V204.871M261.461 204.897L255.626 201.528" stroke="#1B4AC3" stroke-width="1.8" stroke-miterlimit="10" stroke-linecap="round" stroke-linejoin="round"/>
</g>
<circle cx="314.5" cy="204.878" r="22.5" fill="#F7F8FF"/>
<path d="M323.444 196.578C322.043 194.977 320.268 193.894 318.342 193.465C316.416 193.036 314.424 193.28 312.616 194.166C310.808 195.052 309.265 196.542 308.179 198.447C307.094 200.353 306.515 202.59 306.515 204.878C306.515 207.165 307.094 209.402 308.179 211.308C309.265 213.213 310.808 214.703 312.616 215.589C314.424 216.475 316.416 216.719 318.342 216.29C320.268 215.861 322.043 214.778 323.444 213.177M316.473 201.558H303.194M303.194 208.197H316.473" stroke="#1B4AC3" stroke-width="1.65983" stroke-linecap="round" stroke-linejoin="round"/>
<defs>
<clipPath id="clip0_1258_5930">
<rect width="48" height="48" fill="white" transform="translate(320 25.3779)"/>
</clipPath>
<clipPath id="clip1_1258_5930">
<rect width="31.5" height="31.5" fill="white" transform="translate(245.75 189.128)"/>
</clipPath>
</defs>
</svg>
