<svg width="128" height="129" viewBox="0 0 128 129" fill="none" xmlns="http://www.w3.org/2000/svg">
<g filter="url(#filter0_ddi_1240_12191)">
<circle cx="64" cy="60.6962" r="60" fill="#FFFEFD"/>
<path d="M99.9612 83.1975C99.9612 82.5817 99.7854 82.1417 99.6973 81.5259C99.5214 80.3821 99.3454 79.2382 99.0814 77.9186C98.6414 75.3672 98.1135 72.3758 97.4977 68.9446C98.2016 72.0239 98.8175 75.1913 99.3452 78.3586C98.8173 75.0153 98.1135 71.672 97.4977 68.4167C97.1458 66.745 96.7938 65.0734 96.4419 63.4017L96.1779 62.1701L96.0019 61.5542C96.0019 61.4663 96.0019 61.4663 96.0019 61.4663V61.1144C96.0898 60.2346 96.0019 59.2668 95.65 58.387C95.2982 57.5072 94.7702 56.7153 94.0663 56.0995C93.3625 55.4837 92.4826 55.0437 91.6909 54.6918C89.9313 54.076 88.1716 53.9879 86.4999 53.812H86.412V46.5975H86.6263C86.6106 46.5021 86.6047 46.4043 86.6135 46.3046C86.6243 46.1841 86.6406 46.0645 86.6547 45.9443C86.6558 44.5815 86.8888 43.1784 87.285 41.8735C87.1896 41.5769 87.176 41.2635 87.2821 40.9887C87.3632 40.7781 87.4383 40.565 87.5101 40.3511H87.4678V39.1194C87.4678 38.8555 87.3799 38.6795 87.3799 37.9757L87.5558 37.7117C87.5558 35.1742 87.4028 32.481 87.2398 29.7098C87.2524 29.7765 87.2689 29.8353 87.2918 29.8812C87.2918 29.7296 87.2881 29.5048 87.2319 29.1659C87.2929 29.3751 87.3024 29.7085 87.3797 29.0896C87.2918 27.2419 87.1158 25.1304 86.236 23.1948C85.3562 21.2592 83.7725 19.6755 82.0129 18.8837C81.5731 18.7076 81.045 18.6197 80.6052 18.5318C80.2533 18.4438 79.9894 18.3557 80.3413 18.3557C78.9336 18.0039 80.2533 18.4437 79.5494 18.2678C79.0783 18.163 78.7997 18.0907 78.7581 18.0669C76.1673 17.8112 71.8147 17.5556 69.3437 17.3001H69.8716C67.8481 17.1241 67.5841 17.388 65.6485 17.212H66.0004C61.6013 16.9481 56.6743 16.772 53.331 16.2443C52.9791 16.3322 51.9233 16.2443 50.8675 16.1562C49.8116 16.1562 48.7558 16.1562 48.6679 16.3322C48.0521 16.3322 47.6121 16.3322 47.2602 16.4201C46.9083 16.4201 46.6444 16.4201 46.3804 16.5081C46.1165 16.5962 45.7646 16.5962 45.2367 16.6841C44.7969 16.772 44.0929 16.9481 43.3011 17.2999C42.8613 17.4758 42.5092 17.7397 42.2453 18.0037C42.0694 18.0916 41.8934 18.2676 41.7174 18.3556C41.5413 18.5316 41.3655 18.7074 41.1015 18.8835L41.0136 18.7955C40.5738 19.1474 40.2217 19.5874 39.8699 20.0272C39.6059 20.2031 39.4301 20.3791 39.1659 20.5551C38.9022 20.8191 38.7261 21.1709 38.5501 21.5228C38.8141 21.1709 39.1659 20.731 39.1659 20.8189C38.6382 21.5228 38.1103 22.4905 37.6703 23.2824C37.2305 24.0743 37.0545 24.6901 36.9664 24.6901C36.5266 26.0099 36.2626 27.4175 36.1747 28.8252V28.2973C35.9987 29.1771 35.9987 28.2094 35.9107 29.8811C35.9987 29.6171 35.9987 30.0571 35.9987 30.0571C35.8228 31.025 35.7347 33.3125 35.7347 34.9841L35.6468 34.6322V38.8553C35.6468 38.9432 35.5589 38.8553 35.5589 38.8553H35.3942V43.1295C35.3942 43.1793 35.3907 43.2267 35.387 43.2742C35.3674 44.907 35.2874 46.533 35 48.147L35.031 49.3246C35.2068 54.1635 35.2949 59.0905 35.4708 63.9294C35.5587 66.3929 35.5587 68.8565 35.6468 71.3198L35.7347 75.015C35.7347 75.6308 35.7347 76.2466 35.8226 76.9506C35.9106 77.3024 35.9987 77.6545 36.1745 77.9183C36.3504 78.182 36.7024 78.6222 36.7024 78.5341C36.5266 80.3818 36.4385 82.2293 36.2626 84.0769C36.1747 86.0125 35.9987 87.9481 35.9107 89.8837C35.8228 91.8193 35.7349 93.7549 35.7349 95.6905C35.7349 96.2184 35.647 96.6584 35.7349 97.1863C35.7349 97.7142 35.9988 98.3301 36.3507 98.7701C37.0545 99.7378 38.2861 100.178 39.3421 100.09C40.398 100.09 41.6296 99.5619 42.2455 98.594C42.4215 98.3301 42.5973 98.0661 42.6854 97.8022L42.8613 97.3624C42.8613 97.1863 42.8613 97.0984 42.9492 96.9224L43.0371 96.4824V95.4266C43.1251 93.491 43.1251 91.5554 43.3009 89.6198C43.3888 87.6842 43.4769 85.7486 43.653 83.813L43.8288 80.9097L43.9167 79.4141C43.9167 79.3261 43.9167 79.238 43.9167 79.238H44.0928L49.9875 79.326L52.8908 79.4139H53.0668V79.5897L52.9789 80.9974L52.275 92.6989C52.275 92.9629 52.275 93.3148 52.3629 93.5787C52.4508 93.8427 52.4508 94.1945 52.6268 94.4585C52.8906 94.9864 53.3306 95.4262 53.8585 95.7783C54.9143 96.3941 56.146 96.3941 57.2018 96.0422C58.2576 95.6904 59.2253 94.7225 59.4893 93.5787C59.5772 93.3148 59.5772 93.0508 59.6651 92.6989V91.995L59.753 90.4994L60.4568 79.3258L62.5684 79.2378L65.2959 79.1499C67.1436 79.062 68.9031 78.9739 70.7506 78.798C72.5983 78.7101 74.3579 78.5341 76.2056 78.3581L78.933 78.0941L80.9565 77.8302C81.3965 81.4374 81.8363 85.0446 82.2763 88.6519L82.9801 94.3706L83.1561 95.7783L83.244 96.4822C83.3319 96.7462 83.3319 97.0101 83.42 97.362C83.7719 98.5057 84.7398 99.3855 85.7954 99.8253C86.8511 100.265 88.0829 100.265 89.1387 99.6493C89.6666 99.3853 90.1946 98.9454 90.4585 98.3295C90.5464 98.1535 90.6345 98.0656 90.6345 97.8895L90.7225 97.4497C90.8104 97.1858 90.8104 96.8339 90.8104 96.57C90.6345 94.5464 90.3706 92.6988 90.1065 90.7632C89.6667 86.9799 89.1387 83.1087 88.6988 79.3256C88.5227 78.1818 88.4348 77.126 88.3469 76.1581C88.259 75.6302 88.259 75.1904 88.171 74.7504V74.6625C88.171 74.6625 88.171 74.6625 88.171 74.5746C88.259 74.3986 88.435 74.3106 88.5229 74.2227C89.1387 73.6069 89.6666 72.9909 90.1946 72.375C90.2825 72.1992 90.4583 72.1111 90.5464 71.9352C91.6902 77.9179 92.1302 80.1174 92.8339 83.9886C92.9218 84.2526 92.9218 84.5166 93.0098 84.7805C93.0977 85.1324 93.0977 85.4844 93.3616 85.7482C93.6256 86.4522 94.3293 87.068 95.1212 87.244C95.9129 87.508 96.7927 87.42 97.6726 86.9801C98.4645 86.6282 99.3443 85.9242 99.6962 84.8686L99.872 84.5167L99.9599 84.0768C100.049 83.8133 99.9612 83.5494 99.9612 83.1975ZM87.116 26.9774C87.116 27.0653 87.028 26.9774 87.028 26.6255C87.028 26.8015 86.9401 26.0097 86.8522 25.3937C86.9401 25.8336 87.028 26.3615 87.116 26.9774ZM42.3336 39.8226V39.5587C42.4215 39.5587 42.5094 39.6468 42.5094 39.6468V39.7347C42.5255 39.767 42.5297 39.7827 42.5416 39.8093C42.4737 39.8149 42.4008 39.8159 42.3336 39.8226ZM42.8615 38.6789C42.9494 38.6789 42.9494 38.591 42.9494 38.5029L42.7735 38.0629C42.8615 37.975 42.9494 38.2389 42.9494 37.975C42.8615 37.7989 42.7735 38.151 42.6854 37.887C42.7734 37.711 42.8615 37.711 42.7734 37.4471C42.81 37.4471 42.8248 37.4498 42.8373 37.4562C42.7752 37.254 42.7633 36.9091 42.6853 36.8312C42.7732 36.5673 42.5973 36.1275 42.7732 36.1275C42.6853 36.0395 42.5973 35.7756 42.5973 35.5116C42.8613 35.8635 42.5973 34.7198 42.8613 34.8077C42.6101 34.5568 42.749 33.9112 42.6127 33.3943C42.607 33.396 42.6065 33.4 42.5973 33.4C42.5973 33.3762 42.601 33.3599 42.6023 33.3388C42.5995 33.3304 42.6001 33.3205 42.5973 33.3121C42.5973 33.3121 42.6014 33.3167 42.6039 33.3194C42.6202 33.1205 42.6853 33.0273 42.6853 32.8723C42.5094 32.8723 42.5094 32.4323 42.3334 32.1683C42.5092 31.8165 42.5092 32.3444 42.6853 32.2563C42.5094 32.2563 42.5973 31.6404 42.4213 31.8163C42.5092 31.5523 42.5092 31.6403 42.5973 31.4644C42.4213 31.3765 42.5973 31.2005 42.4213 31.0244C42.5092 30.6725 42.5973 30.9365 42.5973 30.5846C42.6232 30.5328 42.6402 30.5317 42.6525 30.5507C42.5984 30.441 42.4865 30.5619 42.4213 30.4967C42.4213 29.9688 42.5973 30.3207 42.6853 30.1448C42.6853 29.8809 42.5973 29.6169 42.5973 29.353C42.5973 29.353 42.6853 29.265 42.6853 29.353C42.5973 29.0011 42.8613 28.3851 42.7732 28.0332H42.5973C42.5973 27.8573 42.5973 27.6813 42.6853 27.6813C42.8611 27.5934 42.6853 27.9453 42.7732 27.9453C42.7732 27.5934 42.8611 27.1534 42.9492 26.8895C43.1251 26.8895 42.7732 27.5053 43.0371 27.2413C42.9492 27.3293 42.8613 27.5053 42.8613 27.6811C43.2132 27.4172 42.7734 27.9451 43.1252 27.6811C43.3892 27.1532 43.2132 27.0653 43.4771 26.5374C43.4771 26.3614 43.3892 26.5374 43.3013 26.3614C43.3892 25.9214 43.5652 25.8335 43.7411 25.8335C43.9169 25.7455 44.005 25.7455 44.0929 25.3935C44.0929 25.2174 44.005 25.0416 44.3569 24.7776V24.9537C44.7088 24.6018 44.3569 24.5137 44.8848 24.2497C44.7969 24.3378 44.6209 24.5137 44.7088 24.5137C45.0607 24.3378 44.7967 24.2497 45.0607 24.0739L45.2365 24.1618C45.4125 23.9858 45.6765 23.8099 45.9404 23.6339C46.2044 23.4579 46.4683 23.282 46.8202 23.1939C46.8202 23.2818 46.7323 23.3699 46.9081 23.2818C47.6119 22.93 48.5798 22.93 49.3717 22.93L49.6356 22.7539C49.7235 22.7539 49.8115 22.8419 49.7235 22.8419C50.0754 22.8419 49.7235 22.7539 49.8994 22.6658C50.0219 22.6658 50.0956 22.7078 50.0732 22.7336C50.62 22.5737 51.5958 22.498 52.1843 22.6653C52.5437 22.6889 52.6609 22.4154 53.0668 22.5777H52.9789C53.9466 22.6656 55.0903 22.7538 55.7943 23.0177C55.9701 22.8417 56.7622 23.1937 56.8501 22.9298C57.378 23.1058 57.202 23.1937 58.0819 23.2817C58.2578 23.2817 58.4338 23.1056 58.6978 23.1056V23.2817L59.0497 23.1937L59.2257 23.3698H59.4896C59.4017 23.3698 59.3136 23.2818 59.3136 23.2818C59.6655 23.2818 60.2815 23.4579 60.2815 23.5458L61.2492 23.4579C61.2492 23.4976 61.2113 23.5178 61.164 23.5297C61.391 23.5341 61.1426 23.7079 61.5133 23.6339C61.4254 23.6339 61.5133 23.546 61.6013 23.546C61.7773 23.6339 62.3052 23.722 62.745 23.6339L62.6571 23.7218C63.361 23.8098 64.0648 23.8098 64.8566 23.8098C64.5927 23.7218 64.6806 23.6337 64.8566 23.6337L64.9446 23.8098C65.1206 23.7218 64.6806 23.7218 65.0325 23.6337C65.2964 23.6337 65.2085 23.8098 65.0325 23.8098H65.3844C65.3844 23.8607 65.3556 23.8808 65.3307 23.8898C65.523 23.8416 65.922 24.0688 66.0881 23.9858C66.88 24.0737 67.2319 23.9858 67.8477 24.0737C67.8477 23.9858 68.1116 23.9858 68.2875 23.8977C68.7273 23.9856 69.2554 24.0737 69.7833 24.1616C70.1352 24.1616 69.8712 24.0737 70.0472 23.9858C70.0472 24.0737 70.6631 24.1616 70.3112 24.1616H71.9828C71.8949 24.0737 71.807 24.0737 71.807 24.0737C71.9828 24.0737 72.1589 24.1616 72.1589 24.1616C73.1268 24.0737 74.3584 24.6016 75.0624 24.4256L75.8542 24.3377C76.2061 24.3377 75.5903 24.4256 75.8542 24.5135C76.734 24.3377 77.174 24.6014 77.7898 24.6014C77.9659 24.7775 78.3177 24.8654 78.6696 25.1293C79.0215 25.3054 79.2854 25.6572 79.2854 26.0091L79.3734 25.9212C79.5492 26.0091 79.4613 26.0972 79.4613 26.2731C79.5492 26.1852 79.4613 26.097 79.5492 26.1852C79.7251 26.537 79.8132 26.8889 79.9892 27.241C80.0771 27.5928 80.0771 27.9449 80.0771 28.2968C80.0771 29.0886 79.9013 29.8805 79.8132 30.7603C79.8132 31.3761 80.2532 31.1122 79.9892 31.904L79.8132 31.728C79.9892 32.9598 79.8132 34.1915 79.9011 35.3352C79.9011 35.2473 79.8132 35.2473 79.8132 35.1592C79.7252 35.4232 79.8132 36.039 79.9011 36.1269C79.9011 36.303 79.8132 36.1269 79.8132 36.303C79.7331 36.5429 79.8626 36.8495 79.8221 37.0366C79.8919 37.2395 79.817 37.7909 79.9011 37.6227C79.8132 38.0627 79.9011 38.5025 79.9011 38.8546C80.0769 39.1185 79.8132 39.6464 79.989 39.6464C79.813 39.6464 79.813 40.4383 79.9011 40.7022C79.8132 40.6143 79.8132 40.9662 79.7252 40.7902C79.7252 41.142 79.7252 41.406 79.8132 41.3181C79.7252 41.4941 79.7252 41.4941 79.7252 41.4941V41.582C79.6373 41.582 79.6373 41.67 79.4613 41.4941C78.5815 41.6701 77.7017 41.6701 76.8219 41.6701C76.8219 41.4941 77.7898 41.6701 77.7017 41.4941C76.91 41.582 76.4701 41.6701 75.6782 41.582C75.5022 41.4941 75.7661 41.4941 75.854 41.4941C75.0622 41.4941 74.3584 41.3181 73.5666 41.3181C73.7289 41.4804 73.0689 41.4932 72.9656 41.5632C73.1625 41.3234 72.2583 41.3992 72.6868 41.142C72.5989 41.142 72.5109 41.142 72.5109 41.23C72.3349 41.23 72.3349 41.142 72.5109 41.142C71.983 41.142 72.1589 41.23 71.7191 41.142C71.7191 41.142 71.7647 41.0977 71.8224 41.0721C71.5819 41.1375 71.335 41.134 71.0151 41.0541C71.0151 41.0541 71.0157 41.0497 71.0159 41.0464C70.4374 40.9779 69.9251 41.0457 69.2554 40.8783C69.5193 40.7022 68.9914 40.7903 68.9914 40.6143H68.5516L68.7275 40.7022C68.3756 40.6143 68.0237 40.7022 67.7598 40.6143C67.4079 40.6143 67.7598 40.7903 67.32 40.7022C67.4079 40.7022 66.9681 40.6143 66.7921 40.5262C66.6162 40.5262 66.4402 40.6141 66.1762 40.5262C66.0883 40.4383 66.2641 40.3502 66.2641 40.3502C66.0883 40.4381 65.4725 40.2623 65.2083 40.3502C65.2963 40.3502 65.2963 40.2623 65.2963 40.2623L65.1204 40.3502C64.9444 40.2623 64.9444 40.2623 64.9444 40.1742C64.5046 40.0862 65.0323 40.4381 64.5046 40.2621H64.5925C64.0646 40.086 63.4488 40.1742 63.0088 39.9981C62.8328 39.8221 63.4486 39.9981 63.2726 39.8221C62.5349 39.74 61.8002 39.8056 61.1336 39.7446C61.0153 39.8591 60.6138 39.5629 60.2811 39.6461C60.3691 39.6461 60.3691 39.558 60.3691 39.558C59.8412 39.47 59.3132 39.558 58.5214 39.558L58.6093 39.47C58.3454 39.3821 57.8174 39.3821 57.4656 39.3821C57.3776 39.47 57.2016 39.3821 57.2897 39.47C56.3218 39.1182 55.3541 39.558 54.5623 39.2942C54.6502 39.2942 54.8262 39.2061 54.7383 39.2061L53.9464 39.2942C54.0345 39.3821 54.0345 39.3821 54.2104 39.47C54.1225 39.558 53.9464 39.558 53.6825 39.558C54.0345 39.47 53.6825 39.3819 53.5066 39.294V39.3819C53.1547 39.2059 53.4187 39.5578 52.8908 39.4698V39.3819C52.7148 39.3819 52.5389 39.4698 52.275 39.4698C52.187 39.3819 52.4508 39.3819 52.5389 39.294C52.275 39.294 51.9231 39.558 51.6591 39.3819C51.7471 39.3819 52.011 39.3819 52.0989 39.294C51.835 39.118 51.7471 39.2061 51.571 39.2061L51.1157 39.1301C50.7881 39.4391 50.3872 39.2378 49.9813 39.3541C50.3771 39.2154 49.9875 39.2837 49.9875 39.118C49.9107 39.118 49.7003 39.0511 49.7061 39.0341C49.4521 39.1086 49.2775 38.9462 49.0196 39.118C49.0196 39.118 48.7556 39.118 48.8437 39.03C48.4919 39.118 48.9317 39.118 48.9317 39.118C48.4917 39.294 47.7879 39.03 47.084 39.2059C46.5561 39.2938 46.3802 39.4698 45.9403 39.5578H45.8523C45.7644 39.4698 46.0282 39.3817 46.0282 39.3817C45.775 39.2975 45.5219 39.375 45.2687 39.459C45.2856 39.436 45.2176 39.3817 45.1482 39.3817C44.8843 39.3817 44.9724 39.5578 44.7082 39.4697C44.7961 39.3817 44.7961 39.3817 44.8843 39.2938C44.6203 39.3817 44.3563 39.4697 44.0924 39.4697C44.0045 39.3817 44.2682 39.3817 44.3563 39.2938C44.0045 39.3817 43.5645 39.3817 43.4766 39.5578H43.6526C43.5647 39.5578 43.5647 39.4698 43.6526 39.4698C43.9165 39.3819 44.0045 39.4698 44.0924 39.5578H43.9165C44.0924 39.8217 44.7082 39.4698 45.1482 39.4698L45.0603 39.6459C44.3906 39.7129 43.6784 39.7373 42.9844 39.7798C43.0155 39.7032 43.0368 39.5975 43.0368 39.47L42.8609 39.03L42.9435 38.8648C42.9208 38.8035 42.8924 38.7412 42.8615 38.6789ZM56.0586 39.7347V39.8226H55.7947C55.7947 39.7347 55.8826 39.7347 56.0586 39.7347ZM47.9643 39.9107H47.6125C47.6125 39.9107 47.7004 39.8228 47.7885 39.8228L47.9643 39.9107ZM45.7648 39.9107V40.0868H45.4129L45.7648 39.9107ZM44.709 46.5973H44.3571C44.3571 46.5973 44.3571 46.5092 44.445 46.5092C44.3571 46.5973 44.5329 46.5973 44.709 46.5973ZM43.1254 50.9083L43.0415 51.3273C42.9895 51.0737 42.9494 50.82 42.9494 50.6444C43.1254 50.5565 43.0373 51.2604 43.1254 50.9083ZM43.5652 62.0819C43.5652 62.0819 43.5652 62.1699 43.4773 62.1699V61.9059H43.5652V62.0819ZM44.9729 61.0263C44.9418 61.0219 44.9141 61.0256 44.8844 61.0241C44.9125 60.9591 44.9412 60.8979 44.9729 60.8503V61.0263ZM45.6768 60.0584C45.4129 60.2345 45.325 60.4103 45.1489 60.6743C45.1489 60.5863 45.061 60.6743 44.9729 60.6743C44.8978 60.8245 44.9416 60.8558 44.8493 61.0232C44.8319 61.023 44.8137 61.021 44.7969 61.0219V60.8503C44.7747 60.9168 44.7483 60.9693 44.7249 61.0276C44.2574 61.0926 43.9546 61.5418 43.6531 61.994V61.9568C43.6531 61.7944 43.6531 61.642 43.6531 61.642C43.6531 61.642 43.6531 61.642 43.7411 61.554L43.565 61.1142C43.653 61.0263 43.7411 61.2903 43.7411 61.0263C43.6531 60.8503 43.565 61.2022 43.4771 60.9384C43.565 60.7624 43.6531 60.7624 43.565 60.5865C43.6041 60.5865 43.6213 60.5885 43.6334 60.5962C43.5885 60.4098 43.6313 60.1357 43.4771 60.0586C43.565 59.8826 43.389 59.3547 43.653 59.3547C43.565 59.2668 43.4771 59.0028 43.4771 58.8268C43.7411 59.1786 43.4771 58.1228 43.7411 58.2109C43.5747 57.9615 43.6376 57.3249 43.4969 56.8838C43.4907 56.8866 43.4888 56.8912 43.4771 56.8912C43.4771 56.8653 43.481 56.8478 43.4824 56.825C43.4799 56.8184 43.4797 56.8097 43.4771 56.8032C43.4771 56.8032 43.4811 56.8078 43.4837 56.8106C43.5 56.6118 43.565 56.5184 43.565 56.3634C43.389 56.3634 43.3011 55.9235 43.2132 55.7476C43.389 55.3957 43.389 55.9236 43.565 55.8355C43.389 55.8355 43.389 55.3076 43.3011 55.3955C43.389 55.1316 43.389 55.2195 43.4771 55.0437C43.3011 55.0437 43.4771 54.7797 43.3011 54.6039C43.389 54.252 43.4771 54.5159 43.389 54.1639C43.4771 53.9879 43.565 54.3399 43.565 54.3399C43.565 53.988 43.389 54.1639 43.3011 54.076C43.2132 53.636 43.389 53.8999 43.4771 53.7241C43.389 53.4601 43.3011 53.1962 43.3011 53.0201C43.3011 53.0201 43.3011 52.9322 43.389 53.0201C43.2132 52.7562 43.389 52.1404 43.2132 51.7885C43.2132 51.7885 43.2132 51.7885 43.2132 51.7006C43.1252 51.7885 43.0371 51.7885 42.9492 51.7885C42.9492 51.6125 42.8613 51.4366 42.9492 51.4366C43.1252 51.2606 43.0371 51.7006 43.1252 51.7006C43.0967 51.5866 43.0696 51.4639 43.0441 51.3406C43.2936 51.0137 43.0402 51.6086 43.3013 51.2606C43.3013 50.7327 43.2133 50.6447 43.2133 50.1168C43.1254 50.0289 43.1254 50.2048 43.0375 50.0289C42.8616 49.2371 43.3894 49.4131 43.2133 48.7973C43.1254 48.6212 42.9494 48.6212 43.0375 48.1814L43.2133 48.3575C43.2133 47.8295 42.9494 48.0935 43.0375 47.4777C43.1254 47.5656 43.1254 47.9177 43.1254 47.8295C43.2133 47.4777 43.0375 47.5656 43.0375 47.3016C43.1254 47.3016 43.1254 47.2137 43.2133 47.2137C43.2133 47.1258 43.2133 47.0377 43.1254 47.0377C43.1254 47.0377 43.2133 46.9498 43.3013 46.9498H43.5652H43.8292C43.8292 47.0377 43.6533 47.0377 43.8292 47.1258C44.621 47.0379 45.5008 47.0379 46.2927 47.0379L46.5566 46.8618C46.6446 46.8618 46.6446 46.9498 46.6446 46.9498C46.9085 46.9498 46.6446 46.8618 46.8204 46.7737C46.9384 46.7737 47.0085 46.8122 46.9946 46.8382C47.5218 46.6752 48.3785 46.5305 48.8883 46.6788C49.2658 46.6591 49.3074 46.4422 49.6984 46.5087C50.6491 46.505 51.6745 46.4253 52.3633 46.5975C52.5391 46.4215 53.3311 46.6854 53.3311 46.4215C53.8589 46.5094 53.683 46.5975 54.4749 46.6854C54.6509 46.6854 54.7388 46.5094 55.0028 46.5094V46.6854L55.3547 46.5094L55.5307 46.6854H55.7947C55.7065 46.6854 55.6186 46.5975 55.6186 46.5975C55.9705 46.5096 56.4984 46.6854 56.4984 46.7735L57.3782 46.6856C57.3782 46.7265 57.3386 46.7472 57.2892 46.7589C57.4403 46.7752 57.2894 46.9148 57.6421 46.7735C57.5542 46.7735 57.6421 46.6856 57.7301 46.6856C57.9059 46.7735 58.4338 46.7735 58.7859 46.7735L58.698 46.8615C59.3138 46.9494 60.0177 46.9494 60.7215 47.0375C60.4575 46.9496 60.5456 46.7735 60.7215 46.8615L60.8094 47.0375C60.9853 46.9496 60.6334 46.9496 60.8973 46.8615C61.1613 46.9494 61.0734 47.0375 60.8973 47.0375H61.2492C61.2492 47.0848 61.2243 47.1058 61.2009 47.1159C61.3859 47.0749 61.707 47.2956 61.9531 47.2135V47.3015C62.6569 47.3894 63.009 47.3894 63.5369 47.4775C63.5369 47.3896 63.8008 47.3896 63.9767 47.3896C64.4167 47.4775 64.8565 47.6535 65.3845 47.7414C65.7364 47.7414 65.4725 47.6535 65.6485 47.6535C65.6485 47.7414 66.1762 47.8295 65.9123 47.9175C66.5281 48.0054 66.7041 48.0054 67.496 48.0935C67.4081 48.0056 67.3201 48.0056 67.4081 48.0056C67.5841 48.0056 67.7599 48.0935 67.672 48.1816C68.5518 48.1816 69.6076 48.8855 70.3995 48.7974H71.1913C71.5432 48.8854 71.0153 48.8854 71.1913 48.9735C71.9832 48.8855 72.423 49.2374 73.1269 49.1493C73.5667 49.5893 74.8865 49.3253 75.5905 49.5893V49.5014C75.7663 49.4134 75.7663 49.5893 75.9423 49.5893C75.9423 49.5014 75.7663 49.5014 75.8544 49.5014C76.6463 49.5014 77.3502 49.5893 78.1419 49.6774L79.3736 49.7653H79.8135C79.8135 49.7653 79.9015 49.6774 79.9894 49.6774H80.0773V49.7653V50.0293L79.9015 49.8533C80.0773 50.997 79.9015 52.1409 80.0773 53.2845C80.0773 53.1965 79.9894 53.1965 79.9894 53.1084C79.9015 53.3724 79.9894 53.9882 80.0773 53.9882C80.0773 54.1643 79.9894 53.9882 79.9894 54.1642C79.9894 54.3403 79.9894 54.2522 79.9894 54.3403C79.9894 54.3403 80.0773 54.4282 79.9894 54.4282C79.9894 54.4282 79.9894 54.4187 79.9894 54.3952C79.9674 54.4062 79.9454 54.4282 79.9894 54.5161H79.8135C79.6375 54.5161 79.4617 54.5161 79.2856 54.4282C79.0217 54.5161 78.5819 54.3403 78.4938 54.5161C78.4938 54.3401 77.79 54.3401 77.5259 54.4282C77.6138 54.3403 77.2621 54.3403 77.438 54.2522C77.174 54.2522 76.8221 54.2522 76.91 54.3401C76.3823 54.0761 75.7663 54.428 75.5023 54.1641C74.6226 54.252 73.7428 54.252 72.9509 54.252C72.9509 54.076 73.8307 54.252 73.8307 54.076C73.0388 54.076 72.5989 54.252 71.8951 54.1639C71.7193 54.1639 71.983 54.076 72.0709 54.076C71.2791 54.076 70.5753 53.988 69.9595 54.076C70.1176 54.2342 69.5664 54.3212 69.453 54.4011C69.6215 54.1776 68.7443 54.3267 69.1676 53.988C69.0797 53.988 68.9918 54.076 68.9918 54.076C68.9039 54.076 68.8159 53.988 68.9918 53.988C68.5518 53.988 68.6399 54.076 68.288 54.076C68.288 54.076 68.3168 54.049 68.3564 54.0247C68.1468 54.0972 67.9741 54.1514 67.6722 54.076C67.6722 54.076 67.6722 53.988 67.7601 53.988C67.1443 53.988 66.7043 54.1641 66.0006 54.076C66.1764 53.8999 65.7366 53.988 65.7366 53.812H65.3847L65.5608 53.8999C65.2087 53.8999 64.9449 53.9879 64.681 53.8999C64.332 53.9871 64.674 54.0743 64.2509 54.0758C64.2333 54.0749 63.8693 54.0661 63.7131 53.9879C63.5372 54.0758 63.3612 54.0758 63.1852 54.0758C63.0973 53.9879 63.2731 53.8997 63.1852 53.8997C63.0267 54.0582 62.5142 53.9335 62.2847 54.0353C62.303 54.0014 62.3052 53.9518 62.3052 53.8997L62.1294 53.9877C61.9533 53.9877 61.9533 53.8997 61.9533 53.8997C61.5135 53.8997 62.1294 54.0758 61.6015 53.9877C61.6015 53.9877 61.6015 53.9877 61.6894 53.8997C61.1615 53.8118 60.6336 53.9877 60.1057 53.9877C59.9296 53.8116 60.5455 53.8997 60.3696 53.8116C59.6657 53.8996 58.874 54.0756 58.1701 54.0756H58.258C58.1732 54.3297 57.7625 54.0144 57.4179 54.1474C57.4399 54.1289 57.4518 54.0981 57.4581 54.0761C57.0197 54.0782 56.4942 54.2524 55.7945 54.4275L55.8824 54.3396C55.6184 54.3396 55.1786 54.4275 54.8266 54.5156C54.7387 54.6035 54.5626 54.6035 54.7387 54.6914C54.2107 54.6035 53.8589 54.7795 53.4189 54.9554C52.9789 55.1314 52.627 55.3073 52.1872 55.3073C52.2751 55.3073 52.3631 55.2193 52.2751 55.2193C52.0993 55.3073 51.8353 55.3954 51.6593 55.4833C51.7472 55.5712 51.7472 55.4833 51.9233 55.4833C51.8557 55.5507 51.7373 55.6183 51.6458 55.6857C51.7449 55.5716 51.4716 55.5712 51.3954 55.5712V55.6591C50.9556 55.6591 51.3954 55.8352 50.9556 56.011V55.9231C50.7797 56.011 50.6916 56.187 50.5158 56.275C50.4278 56.187 50.6916 56.0989 50.6037 56.011C50.3397 56.187 50.2516 56.451 49.8997 56.5389C49.9877 56.451 50.1637 56.3629 50.2516 56.275C49.8997 56.275 49.8997 56.3629 49.7239 56.451L49.2839 56.627H49.3718C49.1958 57.067 48.756 57.067 48.4921 57.5068C48.756 57.0668 48.4921 57.3308 48.4041 57.2429C48.3162 57.2429 48.1402 57.3308 48.1402 57.3308C48.0523 57.5947 47.7883 57.5068 47.6123 57.8587C47.6123 57.8587 47.5176 57.9525 47.4324 57.9332C47.4348 57.9362 47.4362 57.9404 47.4362 57.9466C47.1725 58.3864 46.4685 58.5624 46.2046 59.1783C45.8527 59.6183 45.9406 59.7941 45.6767 60.2341C45.5889 60.3224 45.6768 60.0584 45.6768 60.0584ZM46.7129 73.0927C46.722 73.0894 46.7195 73.0795 46.7325 73.0795C46.9671 73.0013 47.0582 73.1259 47.0765 73.1559C46.9578 73.1334 46.8373 73.1123 46.7129 73.0927ZM47.7883 73.3437C47.6936 73.3058 47.5819 73.2735 47.4661 73.2429C47.6185 73.2089 47.7696 73.1676 47.8762 73.1676L47.7883 73.3437ZM48.1404 73.1676L48.3162 73.0797L48.4041 73.1676H48.1404ZM49.9879 73.1676C49.9879 73.1676 49.9879 73.1676 50.1637 73.0797L50.2516 73.1676H49.9879ZM56.9384 73.1676C56.9384 73.1676 56.8505 73.1676 56.7625 73.1676C56.7625 73.1676 56.8505 73.0797 56.9384 73.0797V73.1676ZM81.3973 70.4402V70.5281C81.3973 70.5281 81.3093 70.5281 81.3973 70.616C81.3973 70.616 81.3093 70.616 81.2214 70.616H80.9575C80.7816 70.616 80.6056 70.7039 80.5177 70.616C80.3418 70.7919 79.9018 70.616 79.8139 70.7919C79.8139 70.616 79.1981 70.7039 78.9341 70.7919C79.022 70.7039 78.7581 70.7919 78.8462 70.616C78.5822 70.616 78.3183 70.7039 78.4064 70.7919C77.8785 70.616 77.4385 71.0558 77.1745 70.7919C76.3827 70.9679 75.6787 71.1437 74.975 71.2319C74.975 71.0558 75.7669 71.1437 75.6787 70.9679C74.975 71.1437 74.6231 71.3198 74.0073 71.3198C73.8313 71.3198 74.0952 71.2319 74.1831 71.1438C73.4992 71.3148 72.8989 71.2385 72.3811 71.3954C72.4025 71.3841 72.4236 71.3626 72.4236 71.3198C72.3356 71.3198 72.1596 71.3198 72.1596 71.4077H72.2475C72.4102 71.489 71.8975 71.6453 71.8185 71.738C71.933 71.5128 71.2027 71.7486 71.5436 71.4077C71.4557 71.4077 71.3677 71.4956 71.3677 71.4956C71.2798 71.4956 71.1919 71.4956 71.3677 71.4077C70.9279 71.4956 71.1038 71.5837 70.7519 71.5837L70.8398 71.4958C70.664 71.5837 70.488 71.6718 70.1359 71.6718C70.1359 71.6718 70.1359 71.5839 70.2238 71.5839C69.6959 71.6718 69.2559 71.8479 68.6401 71.8479C68.8159 71.6718 68.4643 71.7599 68.3761 71.6718L68.0243 71.7598L68.2003 71.8477C67.9363 71.8477 67.6724 72.0237 67.4084 71.9356L67.5845 71.8477L67.0566 71.9356L67.4084 72.0235C67.1481 72.1104 67.4004 72.197 67.0692 72.1992C67.0553 72.1979 66.7695 72.188 66.6166 72.1115C66.4407 72.1994 66.3526 72.1994 66.0887 72.1994C66.0007 72.1115 66.0887 72.0234 66.0887 72.0234C65.9289 72.1831 65.482 72.1274 65.2688 72.2468C65.2783 72.2129 65.2609 72.1633 65.2089 72.1113L65.121 72.1992C64.9451 72.1992 64.9451 72.1113 64.9451 72.1113C64.5053 72.1113 65.121 72.2873 64.5932 72.2873C64.5932 72.2873 64.5932 72.2873 64.6812 72.1994C64.2414 72.1994 63.8014 72.2873 63.3614 72.2873C63.1854 72.1113 63.7133 72.1994 63.6253 72.1113C63.0095 72.1992 62.3056 72.3752 61.6897 72.3752H61.7777C61.6897 72.6392 61.3377 72.2873 60.9858 72.3752C61.0365 72.3752 61.0567 72.3203 61.0659 72.2877C60.6286 72.2888 60.1905 72.3758 59.5783 72.4633L59.6662 72.3754C59.4023 72.2875 59.0504 72.3754 58.7864 72.3754C58.6985 72.4633 58.5225 72.4633 58.6106 72.5514C57.8288 72.204 57.0474 72.711 56.3504 72.4701L55.5312 72.9914C55.6192 73.0794 55.6192 73.0794 55.7071 73.1675C55.6192 73.2554 55.4433 73.2554 55.2673 73.2554C55.5312 73.1675 55.2673 73.0793 55.1794 73.0793V73.1673C54.8275 72.9912 55.0914 73.3433 54.6515 73.2552V73.1673C54.4756 73.1673 54.2996 73.2552 54.1236 73.2552C54.0356 73.1673 54.2994 73.1673 54.2994 73.0792C54.0354 73.0792 53.7715 73.3431 53.5956 73.1671C53.6836 73.1671 53.8596 73.1671 53.9475 73.0792C53.6836 72.9031 53.6836 72.9912 53.5077 72.9912L53.1309 72.9158C52.7919 73.1524 52.529 72.9955 52.1 73.1671C52.54 72.9912 52.188 73.0792 52.188 72.9031C52.1 72.9031 51.924 72.8152 51.924 72.8152C51.7482 72.9031 51.5721 72.7273 51.3082 72.9031C51.3082 72.9031 51.1323 72.9031 51.1323 72.8152C50.8684 72.8152 51.2202 72.9031 51.1323 72.9031C50.6923 73.0792 50.1644 72.7271 49.6365 72.9031C49.1967 72.9911 49.0207 73.0792 48.6688 73.1671H48.5809C48.493 73.0792 48.7567 73.0792 48.7567 73.0792C48.5034 72.9947 48.3294 72.9934 48.0825 73.0713C48.1081 73.0502 48.0374 72.9912 47.9649 72.9912C47.7888 72.9912 47.877 73.1671 47.613 73.0792C47.7009 72.9912 47.7009 72.9912 47.7888 72.9031C47.5249 72.9031 47.349 72.9911 47.0851 73.0792C46.9972 72.9912 47.2609 72.9912 47.349 72.9031C47.0943 72.9031 46.6827 72.9852 46.5746 73.07C46.5286 73.063 46.4839 73.0559 46.4378 73.0493C46.5914 72.9702 46.7235 72.8837 46.6451 72.7273C46.4693 72.9033 46.4693 72.8152 46.2932 72.9912H46.3812C46.4323 72.9912 46.4233 73.0202 46.4073 73.0451C46.28 73.0268 46.1524 73.0088 46.0293 72.9912H46.2932C46.2053 72.9912 46.1172 72.9912 46.1172 72.9033C46.1172 72.9033 46.1172 72.9033 46.1172 72.8154V72.4635L46.2053 72.3756L46.1172 72.6395C46.2932 72.4635 46.2053 72.3756 46.2053 72.1996C46.2932 72.1996 46.2932 72.1116 46.3812 72.1116L46.2932 71.6717C46.3812 71.6717 46.3812 71.8477 46.4693 71.6717C46.4693 71.4956 46.2932 71.7596 46.2932 71.4956C46.4693 71.3196 46.4693 71.4077 46.4693 71.2317C46.5572 71.2317 46.5572 71.2317 46.5572 71.3196C46.5572 71.1436 46.6451 70.8798 46.6451 70.7038C46.821 70.5279 46.821 70.0879 46.997 70.1759V69.6479C47.0851 69.9998 47.2609 69.0321 47.437 69.208C47.349 68.944 47.7009 68.4161 47.7009 67.9761V68.064C47.7888 67.888 47.8768 67.8001 47.9649 67.7122C47.789 67.6242 47.9649 67.2722 47.9649 67.0963C48.2288 66.9203 48.0528 67.3603 48.2288 67.3603C48.1409 67.2724 48.3168 66.8324 48.1409 66.9203C48.3168 66.7445 48.2288 66.7445 48.4049 66.7445C48.2288 66.5684 48.4928 66.5684 48.4049 66.3045C48.6688 66.1284 48.5807 66.3045 48.7567 66.0405C48.9328 65.9526 48.8447 66.2165 48.8447 66.2165C49.0207 65.9526 48.7567 66.0405 48.7567 65.8647C48.9328 65.5128 48.9328 65.7767 49.1086 65.6886C49.1965 65.4247 49.1965 65.2487 49.2846 65.0728H49.3726C49.3726 64.8089 49.8126 64.457 49.9005 64.1049H49.9884C49.9005 64.1049 49.8126 64.017 49.8126 64.017C49.9005 63.9291 49.9005 63.753 50.0765 63.753C49.9886 63.841 50.0765 63.841 50.0765 63.9289L50.1644 63.753C50.3405 63.753 50.0765 63.9289 50.1644 64.017C50.3405 63.753 50.4284 63.4012 50.6923 63.2251C50.7803 63.3131 50.3405 63.6651 50.6923 63.4891L50.4284 63.753C50.7803 63.6651 50.2525 63.9291 50.6044 63.841C50.9563 63.4891 50.8684 63.4012 51.3082 63.1372C51.3082 62.9612 51.2202 63.0493 51.2202 62.9612C51.5721 62.3454 51.8361 62.9612 52.1 62.4333C52.188 62.2572 52.1 62.0814 52.4519 61.9933V62.1693C52.8917 61.9933 52.5398 61.8174 52.9798 61.6414C52.9798 61.694 52.8912 61.7718 52.834 61.8123C53.13 61.7984 52.9871 61.6341 53.1558 61.4654L53.2438 61.5533C53.6836 61.2894 54.1236 60.9375 54.6515 60.7614C54.6515 60.8494 54.5635 60.8494 54.7394 60.8494C55.0033 60.6735 55.3552 60.5854 55.7952 60.4975C56.1471 60.4096 56.499 60.4096 56.851 60.4096L57.115 60.2335C57.2029 60.2335 57.2029 60.2335 57.2029 60.3215C57.4668 60.3215 57.2029 60.2335 57.2908 60.1454C57.4178 60.1454 57.4511 60.1907 57.4278 60.2161C57.8795 60.0408 58.7121 59.7989 59.1385 59.9694L59.0506 60.0573C59.3924 60.0573 59.4895 59.8141 59.8168 59.8802C60.5969 59.8762 61.5296 59.7978 62.1299 59.9694C62.2178 59.7934 62.9218 60.0573 63.0097 59.7934C63.4495 59.9694 63.3616 59.9694 63.9774 60.0573C64.1534 60.0573 64.2414 59.8813 64.5053 59.8813V60.0573L64.7693 59.8813L64.9451 60.0573H65.121C65.033 60.0573 64.9451 59.9694 64.9451 59.9694C65.297 59.8815 65.737 60.0573 65.737 60.1454L66.5288 60.0575C66.5288 60.0984 66.4893 60.1191 66.4396 60.1308C66.5867 60.1474 66.423 60.2863 66.7047 60.1454C66.6168 60.1454 66.7047 60.0575 66.7047 60.0575C66.8807 60.1454 67.3205 60.1454 67.6726 60.1454L67.5847 60.2334H69.4323C69.1684 60.1454 69.2563 60.0573 69.4323 59.9694L69.5203 60.1454C69.6082 60.0575 69.3444 60.0575 69.6082 59.9694C69.8721 59.9694 69.7842 60.1454 69.6082 60.1454H69.8721L69.7842 60.2334C69.8721 60.1454 70.3121 60.4094 70.488 60.2334H71.9838C71.9838 60.1454 72.1596 60.1454 72.3356 60.0573C72.6875 60.1453 73.1275 60.2334 73.5675 60.2334C73.9194 60.1454 73.6554 60.1454 73.8314 60.0573C73.8314 60.1453 74.2714 60.1453 74.0954 60.2334H75.5031C75.4152 60.1454 75.3272 60.1454 75.4152 60.1454C75.5031 60.1454 75.6791 60.2334 75.6791 60.2334C76.471 60.1454 77.4387 60.6733 78.1426 60.4973L78.7585 60.4094C79.0224 60.4094 78.5826 60.4973 78.7585 60.5854C79.1103 60.4975 79.3743 60.5854 79.6382 60.5854C79.7262 60.5854 79.9022 60.5854 79.9901 60.6733H80.342V60.8492V61.2011C80.342 61.465 80.4301 61.8169 80.342 61.9929H80.4301C80.518 62.1688 80.4301 62.1688 80.4301 62.3448C80.518 62.3448 80.518 62.1688 80.518 62.2569C80.6941 63.5767 80.6059 64.9843 80.6941 66.392C80.6941 66.9199 81.1339 66.656 81.0459 67.2718L80.8701 67.0958C81.134 68.0635 81.134 69.1193 81.398 70.087C81.398 69.9991 81.3101 69.9991 81.3101 69.9112V70.351C81.3092 70.4402 81.3973 70.4402 81.3973 70.4402ZM89.4034 61.9059C89.4914 61.9059 89.4914 61.9059 89.4034 61.994V61.9059ZM89.2274 62.9617C89.2274 62.8738 89.2274 62.8738 89.3155 62.9617H89.2274ZM89.2274 62.1701C89.3155 62.258 89.4034 62.3461 89.3155 62.3461L89.2274 62.2582C89.1397 62.3459 89.402 62.4338 89.2281 62.5216C89.2475 62.5483 89.2587 62.5789 89.2274 62.61L89.0516 62.5221V62.7861L88.9636 62.6981C88.9636 62.8742 88.8757 62.8742 88.6997 62.9621L88.7876 63.05H88.6997C88.6117 63.05 88.7876 63.05 88.7876 63.1379H88.6997C88.7876 63.2259 88.7876 63.4019 88.6997 63.4019C88.6117 63.4019 88.8755 63.5779 88.7876 63.5779C88.6997 63.6659 88.6997 63.8419 88.5236 63.8419C88.6997 63.9298 88.3478 63.9298 88.6116 64.0179C88.4357 64.0179 88.4357 64.0179 88.2597 64.0179C88.2597 64.0179 88.3476 64.1058 88.3476 64.1939L88.1718 64.106V64.1939H88.2597C88.2597 64.2819 88.0838 64.2819 88.0838 64.1939V64.37C87.9959 64.37 87.9959 64.37 87.9959 64.37L87.908 64.2819V64.37C87.908 64.37 87.9959 64.546 87.9959 64.6339C87.9959 64.6339 87.908 64.4581 87.908 64.37V64.4579C87.908 64.37 87.908 64.37 87.8201 64.2819V64.6337C87.8201 64.6337 87.8201 64.4579 87.7322 64.4579C87.7322 64.5458 87.7321 64.5458 87.6442 64.7218L87.5563 65.0737C87.5563 65.029 87.5786 64.9616 87.6008 64.8832C87.5982 64.8821 87.6098 64.7713 87.5563 64.9856C87.5918 64.7724 87.6105 64.6612 87.6232 64.5913C87.6043 64.5933 87.5874 64.5398 87.6442 64.3696C87.6089 64.4403 87.5902 64.4793 87.5776 64.5103C87.5792 64.5046 87.5808 64.4987 87.5825 64.4929L87.5561 64.5456C87.4838 64.6903 87.5314 64.5409 87.5992 64.433C87.6228 64.3458 87.644 64.2542 87.644 64.1936C87.5561 64.3696 87.3801 64.7215 87.4682 64.4575L87.5561 64.2815C87.3801 64.4575 87.5561 64.2815 87.3801 64.3694L87.468 64.2815C87.5559 64.1936 87.468 64.2815 87.3801 64.2815L87.468 64.1936C87.3801 64.1936 87.468 64.1936 87.3801 64.1936C87.468 64.1936 87.2922 64.1936 87.3801 64.1057C87.3629 64.1057 87.3651 64.1057 87.3554 64.1057H87.3169C87.3074 64.1057 87.3094 64.1057 87.2922 64.1057C87.468 64.1057 87.468 64.0177 87.3801 63.9296H87.5561C87.5561 63.9296 87.4682 63.8417 87.3801 63.8417C87.644 63.7538 87.2042 63.6657 87.468 63.6657C87.3801 63.5777 87.2922 63.4017 87.2041 63.3138C87.3799 63.3138 87.2041 63.4017 87.468 63.4017C87.3801 63.3138 87.2041 63.2259 87.2041 63.1378H87.292C87.2041 63.0498 87.292 62.9619 87.2041 62.8738C87.1161 62.8738 86.9401 62.7857 86.8522 62.7857C87.116 62.7857 86.9401 62.6978 87.2041 62.6978C87.1161 62.6099 87.0282 62.6978 87.0282 62.6099H87.1161C87.0282 62.6099 86.9403 62.5219 86.9403 62.5219H87.0282C87.0282 62.434 86.7643 62.3459 86.8524 62.258C87.0282 62.258 86.9403 62.258 87.1161 62.1701L87.0282 62.0821H86.9403C86.9403 61.9942 86.8524 61.9942 86.8524 61.9942C86.7644 61.9942 86.6763 61.9942 86.6763 61.9063C86.6763 61.9063 86.6763 61.8184 86.7643 61.8184C86.6763 61.8184 86.6763 61.8184 86.6763 61.7304H86.8524C86.6763 61.7304 86.7644 61.6425 86.6763 61.6425H86.7643H86.8522C86.8522 61.5879 86.7892 61.6017 86.7586 61.6194C86.7441 61.5564 86.6859 61.5449 86.7641 61.4665C86.9399 61.4665 86.852 61.5544 86.9399 61.5544C86.9399 61.5544 86.7641 61.3784 86.7641 61.2905C86.5001 61.1144 86.852 61.2905 86.7641 61.2025C86.7641 61.2025 86.7765 61.2089 86.793 61.2181C86.7604 61.1741 86.7186 61.1117 86.676 61.0267L86.7639 61.1146C86.7897 61.1146 86.7959 61.1188 86.809 61.121C86.8086 61.0968 86.8119 61.0747 86.7639 61.0267C86.9397 61.2027 86.9397 61.2027 86.9397 61.1146C86.9397 61.0267 86.9397 61.0267 87.0277 61.1146V61.0267C87.1156 61.2027 87.0277 60.8507 87.1156 60.9388V61.0267C87.1156 61.0267 87.1156 60.9388 87.2035 60.9388V61.1148C87.2035 61.1148 87.2914 60.9388 87.2914 61.0269C87.2914 61.0269 87.2914 61.0269 87.2035 61.1148C87.2035 61.2908 87.2035 61.2027 87.2914 61.2027L87.3794 61.2906C87.4517 61.0739 87.4645 61.2126 87.5156 61.123C87.5034 61.173 87.5307 61.1639 87.4673 61.2906V61.3786C87.5554 61.2906 87.4673 61.4665 87.5554 61.2906C87.6433 61.1146 87.6433 61.4667 87.8192 61.2906C87.8624 61.2474 87.9052 61.2042 87.938 61.1609C87.964 61.178 87.9952 61.1718 87.9952 61.1146V61.2025C87.9952 61.2025 88.0831 61.0265 88.0831 61.1146C88.0963 61.1199 88.1055 61.1234 88.1181 61.1285C88.0903 61.1516 88.0626 61.1692 88.0338 61.184C88.0148 61.2154 87.9952 61.252 87.9952 61.2906C87.9952 61.2906 88.0831 61.2027 88.171 61.2027C88.1807 61.1734 88.1771 61.1707 88.1807 61.1533C88.9623 61.4634 89.0545 61.4703 89.1387 61.5546C89.1387 61.7306 89.1387 61.9065 89.2267 62.0825C89.2267 62.1704 89.2267 62.0825 89.3148 61.9946V62.0825C89.4027 62.1704 89.4027 62.1704 89.4906 62.1704C89.5795 62.3459 89.1395 61.994 89.2274 62.1701ZM89.5795 61.9059C89.6674 61.994 89.6674 61.994 89.6674 62.0819C89.4915 61.994 89.5795 61.994 89.5795 61.9059ZM89.6894 62.1039C89.7449 62.1594 89.7553 62.1699 89.7553 62.1699C89.6355 62.1701 89.6775 62.1301 89.6894 62.1039ZM89.7555 62.0819C89.7555 62.0819 89.8434 62.082 89.8434 62.1699C89.8434 62.1699 89.7555 62.1701 89.7555 62.0819Z" fill="url(#paint0_linear_1240_12191)"/>
</g>
<defs>
<filter id="filter0_ddi_1240_12191" x="0" y="0.696228" width="128" height="128" filterUnits="userSpaceOnUse" color-interpolation-filters="sRGB">
<feFlood flood-opacity="0" result="BackgroundImageFix"/>
<feColorMatrix in="SourceAlpha" type="matrix" values="0 0 0 0 0 0 0 0 0 0 0 0 0 0 0 0 0 0 127 0" result="hardAlpha"/>
<feMorphology radius="2" operator="erode" in="SourceAlpha" result="effect1_dropShadow_1240_12191"/>
<feOffset dy="4"/>
<feGaussianBlur stdDeviation="2"/>
<feColorMatrix type="matrix" values="0 0 0 0 0.0941176 0 0 0 0 0.152941 0 0 0 0 0.294118 0 0 0 0.08 0"/>
<feBlend mode="normal" in2="BackgroundImageFix" result="effect1_dropShadow_1240_12191"/>
<feColorMatrix in="SourceAlpha" type="matrix" values="0 0 0 0 0 0 0 0 0 0 0 0 0 0 0 0 0 0 127 0" result="hardAlpha"/>
<feOffset dy="4"/>
<feGaussianBlur stdDeviation="2"/>
<feComposite in2="hardAlpha" operator="out"/>
<feColorMatrix type="matrix" values="0 0 0 0 0 0 0 0 0 0 0 0 0 0 0 0 0 0 0.1 0"/>
<feBlend mode="normal" in2="effect1_dropShadow_1240_12191" result="effect2_dropShadow_1240_12191"/>
<feBlend mode="normal" in="SourceGraphic" in2="effect2_dropShadow_1240_12191" result="shape"/>
<feColorMatrix in="SourceAlpha" type="matrix" values="0 0 0 0 0 0 0 0 0 0 0 0 0 0 0 0 0 0 127 0" result="hardAlpha"/>
<feMorphology radius="2" operator="dilate" in="SourceAlpha" result="effect3_innerShadow_1240_12191"/>
<feOffset dy="1"/>
<feComposite in2="hardAlpha" operator="arithmetic" k2="-1" k3="1"/>
<feColorMatrix type="matrix" values="0 0 0 0 0.0941176 0 0 0 0 0.152941 0 0 0 0 0.294118 0 0 0 0.04 0"/>
<feBlend mode="normal" in2="shape" result="effect3_innerShadow_1240_12191"/>
</filter>
<linearGradient id="paint0_linear_1240_12191" x1="67.5" y1="27.9338" x2="103.485" y2="61.1369" gradientUnits="userSpaceOnUse">
<stop stop-color="#6B73FF"/>
<stop offset="1" stop-color="#2B35FF"/>
</linearGradient>
</defs>
</svg>
