<svg width="367" height="51" viewBox="0 0 367 51" fill="none" xmlns="http://www.w3.org/2000/svg">
<g filter="url(#filter0_d_572_1411)">
<path d="M19.5293 38C16.6626 38 13.9793 37.6833 11.4793 37.05C9.01263 36.4167 7.26263 35.7833 6.2293 35.15C5.2293 34.5167 4.56263 34.0667 4.2293 33.8C3.36263 33.1 2.9293 32.1333 2.9293 30.9C2.9293 29.9333 3.04596 29.0167 3.2793 28.15C3.71263 26.5167 4.49596 25.7 5.6293 25.7C5.99596 25.7333 7.16263 26.1167 9.1293 26.85C11.1293 27.5833 12.696 27.95 13.8293 27.95C15.5293 27.95 16.3793 27.2833 16.3793 25.95C16.3793 25.15 15.9626 24.4167 15.1293 23.75C14.296 23.05 13.2793 22.3833 12.0793 21.75C10.9126 21.1167 9.7293 20.4 8.5293 19.6C7.3293 18.7667 6.31263 17.6333 5.4793 16.2C4.64596 14.7333 4.2293 13.0333 4.2293 11.1C4.2293 7.9 5.79596 5.4 8.9293 3.6C12.0626 1.76666 16.1126 0.849998 21.0793 0.849998C26.046 0.849998 29.9793 1.36666 32.8793 2.4C35.8126 3.4 37.2793 4.8 37.2793 6.6C37.2793 7.9 36.9793 9.05 36.3793 10.05C35.7793 11.0167 35.146 11.5 34.4793 11.5C34.246 11.5 33.4626 11.25 32.1293 10.75C30.8293 10.2167 29.646 9.95 28.5793 9.95C26.4793 9.95 25.4293 10.7667 25.4293 12.4C25.4293 13.2 25.9293 13.9333 26.9293 14.6C27.9293 15.2667 29.1293 15.9167 30.5293 16.55C31.9626 17.15 33.396 17.8333 34.8293 18.6C36.2626 19.3667 37.4793 20.4167 38.4793 21.75C39.4793 23.0833 39.9793 24.7 39.9793 26.6C39.9793 28.5 39.3626 30.2333 38.1293 31.8C36.9293 33.3667 35.3293 34.5833 33.3293 35.45C29.3626 37.15 24.7626 38 19.5293 38ZM65.459 18.75C63.8923 18.75 62.7257 19.2667 61.959 20.3C61.1923 21.3333 60.809 22.6167 60.809 24.15C60.809 25.6833 61.259 27 62.159 28.1C63.059 29.2 64.509 29.75 66.509 29.75C67.1423 29.75 68.0757 29.5833 69.309 29.25C70.5423 28.9167 71.409 28.75 71.909 28.75C73.0757 28.75 73.6923 29.8667 73.759 32.1C73.759 33.0667 73.6923 33.9667 73.559 34.8C73.459 35.6333 72.8423 36.2333 71.709 36.6C68.3757 37.6333 65.4257 38.15 62.859 38.15C60.3257 38.15 58.2423 38.05 56.609 37.85C55.009 37.6833 53.3757 37.3167 51.709 36.75C50.0757 36.1833 48.709 35.4333 47.609 34.5C46.5423 33.5667 45.659 32.3167 44.959 30.75C44.2923 29.15 43.959 27.15 43.959 24.75C43.959 22.3167 44.4757 20.15 45.509 18.25C46.5757 16.35 48.0257 14.9 49.859 13.9C53.3257 12.0333 57.659 11.1 62.859 11.1C65.659 11.1 68.509 11.55 71.409 12.45C72.6423 12.85 73.259 14.2 73.259 16.5C73.259 18.7667 72.6757 19.9 71.509 19.9C71.009 19.9 70.0923 19.7167 68.759 19.35C67.459 18.95 66.359 18.75 65.459 18.75ZM78.598 34.65L78.498 18.3C78.498 13.3 78.548 8.43333 78.648 3.7C78.6814 2.6 78.8814 1.78333 79.248 1.25C79.648 0.716666 80.398 0.45 81.498 0.45H91.098C92.198 0.45 92.9314 0.716666 93.298 1.25C93.698 1.75 93.9314 2.68333 93.998 4.05C94.098 5.38333 94.1814 8.98333 94.248 14.85C96.848 12.2167 99.9647 10.9 103.598 10.9C107.265 10.9 110.148 11.8 112.248 13.6C114.348 15.4 115.415 17.8833 115.448 21.05C115.515 24.2167 115.548 27.05 115.548 29.55C115.548 32.05 115.531 33.7333 115.498 34.6C115.465 35.4667 115.231 36.1 114.798 36.5C114.398 36.8667 113.598 37.05 112.398 37.05L102.798 37.15C101.731 37.15 100.981 36.9667 100.548 36.6C100.148 36.2 99.948 35.6167 99.948 34.85L99.998 22.65C99.998 21.65 99.748 20.9 99.248 20.4C98.748 19.9 98.1147 19.65 97.348 19.65C96.6147 19.65 95.948 19.9167 95.348 20.45C94.748 20.95 94.4314 21.6667 94.398 22.6L94.098 34.65C94.0647 35.2833 93.7647 35.8167 93.198 36.25C92.6314 36.6833 91.9314 36.9333 91.098 37C90.298 37.0667 89.398 37.1 88.398 37.1L81.398 37C80.7647 37 80.1314 36.7833 79.498 36.35C78.898 35.8833 78.598 35.3167 78.598 34.65ZM135.77 24.5C135.77 28.2333 136.754 30.1 138.72 30.1C140.687 30.1 141.67 28.2333 141.67 24.5C141.67 22.8 141.47 21.5 141.07 20.6C140.67 19.6667 139.887 19.2 138.72 19.2C137.554 19.2 136.77 19.6667 136.37 20.6C135.97 21.5 135.77 22.8 135.77 24.5ZM157.37 24.5C157.37 33.5667 151.154 38.1 138.72 38.1C126.287 38.1 120.07 33.5667 120.07 24.5C120.07 20.2 121.654 16.8667 124.82 14.5C127.987 12.1333 132.62 10.95 138.72 10.95C144.82 10.95 149.454 12.1333 152.62 14.5C155.787 16.8667 157.37 20.2 157.37 24.5ZM177.079 24.5C177.079 28.2333 178.062 30.1 180.029 30.1C181.996 30.1 182.979 28.2333 182.979 24.5C182.979 22.8 182.779 21.5 182.379 20.6C181.979 19.6667 181.196 19.2 180.029 19.2C178.862 19.2 178.079 19.6667 177.679 20.6C177.279 21.5 177.079 22.8 177.079 24.5ZM198.679 24.5C198.679 33.5667 192.462 38.1 180.029 38.1C167.596 38.1 161.379 33.5667 161.379 24.5C161.379 20.2 162.962 16.8667 166.129 14.5C169.296 12.1333 173.929 10.95 180.029 10.95C186.129 10.95 190.762 12.1333 193.929 14.5C197.096 16.8667 198.679 20.2 198.679 24.5ZM206.938 0.45H216.538C217.638 0.45 218.371 0.716666 218.738 1.25C219.104 1.75 219.338 2.56666 219.438 3.7C219.638 7.7 219.738 13.2333 219.738 20.3C219.738 27.3333 219.604 32.1833 219.338 34.85C219.271 35.3833 219.004 35.8667 218.538 36.3C218.071 36.7333 217.238 36.9833 216.038 37.05C214.871 37.15 213.488 37.2 211.888 37.2C210.288 37.2 208.854 37.1667 207.588 37.1C205.421 36.9333 204.288 36.1833 204.188 34.85C203.854 31.95 203.688 26.8167 203.688 19.45C203.688 12.05 203.821 6.8 204.088 3.7C204.188 2.56666 204.404 1.75 204.738 1.25C205.104 0.716666 205.838 0.45 206.938 0.45ZM266.427 30.55V34.75C266.427 36.1833 265.444 36.95 263.477 37.05C261.544 37.15 259.427 37.2 257.127 37.2C254.861 37.2 252.261 37.1167 249.327 36.95C248.361 36.8833 247.577 36.55 246.977 35.95C246.411 35.35 246.077 34.6667 245.977 33.9C245.711 30.9667 245.577 26.3667 245.577 20.1C245.577 13.8 245.677 9.21667 245.877 6.35C246.077 3.48333 247.527 2.03333 250.227 2C253.327 1.93333 256.644 1.9 260.177 1.9C263.711 1.9 267.527 1.95 271.627 2.05C275.761 2.15 279.127 3.7 281.727 6.7C284.327 9.7 285.627 13 285.627 16.6C285.627 20.2 284.477 23.1667 282.177 25.5C279.877 27.8333 276.511 29 272.077 29H268.177C267.744 29 267.344 29.15 266.977 29.45C266.611 29.75 266.427 30.1167 266.427 30.55ZM266.377 12.45L266.477 21.7C266.477 22.3333 266.827 22.65 267.527 22.65C269.594 22.65 271.211 22.0833 272.377 20.95C273.577 19.7833 274.177 18.4167 274.177 16.85C274.177 15.2833 273.611 13.9333 272.477 12.8C271.377 11.6667 269.744 11.1 267.577 11.1C266.777 11.1 266.377 11.55 266.377 12.45ZM308.055 10.75C318.922 10.75 324.405 14.2833 324.505 21.35C324.572 24.35 324.605 27.1 324.605 29.6C324.605 32.1 324.588 33.7833 324.555 34.65C324.522 35.5167 324.288 36.15 323.855 36.55C323.455 36.9167 322.655 37.1 321.455 37.1H310.855C309.788 37.1 309.055 36.9167 308.655 36.55C308.255 36.15 308.038 35.5667 308.005 34.8C308.005 34.7667 307.988 34.7167 307.955 34.65C307.955 34.55 307.955 34.4667 307.955 34.4C305.755 36.6667 302.755 37.8 298.955 37.8C296.322 37.8 294.072 37.15 292.205 35.85C290.372 34.5167 289.455 32.7 289.455 30.4C289.455 28.0667 290.105 26.2167 291.405 24.85C292.738 23.45 294.305 22.5 296.105 22C297.938 21.5 299.888 21.25 301.955 21.25C304.055 21.25 306.105 21.45 308.105 21.85V21.65C308.105 19.9833 307.772 18.7833 307.105 18.05C306.472 17.3167 305.422 16.95 303.955 16.95C302.522 16.95 301.322 17.0833 300.355 17.35C299.388 17.5833 298.655 17.8333 298.155 18.1C296.788 18.9 295.838 19.3 295.305 19.3C294.772 19.3 294.288 19.05 293.855 18.55C293.455 18.05 293.255 17.2833 293.255 16.25C293.255 15.1833 293.438 14.45 293.805 14.05C294.205 13.65 294.822 13.25 295.655 12.85C298.555 11.45 302.688 10.75 308.055 10.75ZM305.705 31.2C307.172 31.2 307.922 30.9167 307.955 30.35C308.022 29.25 308.055 27.8 308.055 26C308.055 25.3 307.522 24.95 306.455 24.95C305.388 24.95 304.522 25.2167 303.855 25.75C303.188 26.25 302.855 27 302.855 28C302.855 29 303.122 29.7833 303.655 30.35C304.222 30.9167 304.905 31.2 305.705 31.2ZM334.192 38.95C338.592 38.95 340.792 38.3 340.792 37C340.792 36.5667 340.525 35.9167 339.992 35.05C337.558 31.25 333.958 24.7 329.192 15.4C328.825 14.6333 328.642 14.0333 328.642 13.6C328.642 12.2333 329.325 11.55 330.692 11.55H341.692C342.758 11.55 343.558 11.7167 344.092 12.05C344.658 12.3833 345.192 13.0167 345.692 13.95L350.342 22.65C350.542 23.05 350.825 23.25 351.192 23.25C351.558 23.25 351.842 23.05 352.042 22.65L356.842 12.7C357.142 12.0333 357.492 11.6667 357.892 11.6C358.025 11.6 358.275 11.5833 358.642 11.55H363.892C364.358 11.55 364.692 11.7667 364.892 12.2C364.958 12.4 364.992 12.6333 364.992 12.9C364.992 13.1333 364.858 13.5 364.592 14C364.358 14.4667 363.108 17.1167 360.842 21.95C358.575 26.7833 356.842 30.3333 355.642 32.6C354.475 34.8667 353.642 36.4167 353.142 37.25C352.675 38.0833 352.042 39.0667 351.242 40.2C350.442 41.3667 349.675 42.2333 348.942 42.8C348.208 43.4 347.292 44 346.192 44.6C344.258 45.6333 341.775 46.15 338.742 46.15C335.742 46.15 333.758 45.8833 332.792 45.35C331.825 44.85 331.342 43.7333 331.342 42C331.342 41.1667 331.492 40.45 331.792 39.85C332.125 39.25 332.558 38.95 333.092 38.95H334.192Z" fill="url(#paint0_linear_572_1411)"/>
</g>
<defs>
<filter id="filter0_d_572_1411" x="0.929321" y="0.449951" width="366.062" height="49.7" filterUnits="userSpaceOnUse" color-interpolation-filters="sRGB">
<feFlood flood-opacity="0" result="BackgroundImageFix"/>
<feColorMatrix in="SourceAlpha" type="matrix" values="0 0 0 0 0 0 0 0 0 0 0 0 0 0 0 0 0 0 127 0" result="hardAlpha"/>
<feOffset dy="2"/>
<feGaussianBlur stdDeviation="1"/>
<feComposite in2="hardAlpha" operator="out"/>
<feColorMatrix type="matrix" values="0 0 0 0 0.445833 0 0 0 0 0.425399 0 0 0 0 0.425399 0 0 0 0.05 0"/>
<feBlend mode="normal" in2="BackgroundImageFix" result="effect1_dropShadow_572_1411"/>
<feBlend mode="normal" in="SourceGraphic" in2="effect1_dropShadow_572_1411" result="shape"/>
</filter>
<linearGradient id="paint0_linear_572_1411" x1="183.5" y1="6.90853" x2="185.905" y2="36.8066" gradientUnits="userSpaceOnUse">
<stop stop-color="#6B73FF"/>
<stop offset="1" stop-color="#1B4AC3"/>
</linearGradient>
</defs>
</svg>
