<svg width="506" height="73" viewBox="0 0 506 73" fill="none" xmlns="http://www.w3.org/2000/svg">
<g filter="url(#filter0_dd_1240_12192)">
<path d="M25.9 53.0962C21.8867 53.0962 18.13 52.6529 14.63 51.7662C11.1767 50.8796 8.72667 49.9929 7.28 49.1062C5.88 48.2196 4.94667 47.5896 4.48 47.2162C3.26667 46.2362 2.66 44.8829 2.66 43.1562C2.66 41.8029 2.82333 40.5196 3.15 39.3062C3.75667 37.0196 4.85333 35.8762 6.44 35.8762C6.95333 35.9229 8.58667 36.4596 11.34 37.4862C14.14 38.5129 16.3333 39.0262 17.92 39.0262C20.3 39.0262 21.49 38.0929 21.49 36.2262C21.49 35.1062 20.9067 34.0796 19.74 33.1462C18.5733 32.1662 17.15 31.2329 15.47 30.3462C13.8367 29.4596 12.18 28.4562 10.5 27.3362C8.82 26.1696 7.39667 24.5829 6.23 22.5762C5.06333 20.5229 4.48 18.1429 4.48 15.4362C4.48 10.9562 6.67333 7.45623 11.06 4.93623C15.4467 2.36956 21.1167 1.08622 28.07 1.08622C35.0233 1.08622 40.53 1.80956 44.59 3.25623C48.6967 4.65622 50.75 6.61622 50.75 9.13623C50.75 10.9562 50.33 12.5662 49.49 13.9662C48.65 15.3196 47.7633 15.9962 46.83 15.9962C46.5033 15.9962 45.4067 15.6462 43.54 14.9462C41.72 14.1996 40.0633 13.8262 38.57 13.8262C35.63 13.8262 34.16 14.9696 34.16 17.2562C34.16 18.3762 34.86 19.4029 36.26 20.3362C37.66 21.2696 39.34 22.1796 41.3 23.0662C43.3067 23.9062 45.3133 24.8629 47.32 25.9362C49.3267 27.0096 51.03 28.4796 52.43 30.3462C53.83 32.2129 54.53 34.4762 54.53 37.1362C54.53 39.7962 53.6667 42.2229 51.94 44.4162C50.26 46.6096 48.02 48.3129 45.22 49.5262C39.6667 51.9062 33.2267 53.0962 25.9 53.0962ZM89.4316 26.1462C87.2382 26.1462 85.6049 26.8696 84.5316 28.3162C83.4582 29.7629 82.9216 31.5596 82.9216 33.7062C82.9216 35.8529 83.5516 37.6962 84.8116 39.2362C86.0716 40.7762 88.1016 41.5462 90.9016 41.5462C91.7882 41.5462 93.0949 41.3129 94.8216 40.8462C96.5482 40.3796 97.7616 40.1462 98.4616 40.1462C100.095 40.1462 100.958 41.7096 101.052 44.8362C101.052 46.1896 100.958 47.4496 100.772 48.6162C100.632 49.7829 99.7682 50.6229 98.1816 51.1362C93.5149 52.5829 89.3849 53.3062 85.7916 53.3062C82.2449 53.3062 79.3282 53.1662 77.0416 52.8862C74.8016 52.6529 72.5149 52.1396 70.1816 51.3462C67.8949 50.5529 65.9816 49.5029 64.4416 48.1962C62.9482 46.8896 61.7116 45.1396 60.7316 42.9462C59.7982 40.7062 59.3316 37.9062 59.3316 34.5462C59.3316 31.1396 60.0549 28.1062 61.5016 25.4462C62.9949 22.7862 65.0249 20.7562 67.5916 19.3562C72.4449 16.7429 78.5116 15.4362 85.7916 15.4362C89.7116 15.4362 93.7016 16.0662 97.7616 17.3262C99.4882 17.8862 100.352 19.7762 100.352 22.9962C100.352 26.1696 99.5349 27.7562 97.9016 27.7562C97.2016 27.7562 95.9182 27.4996 94.0516 26.9862C92.2316 26.4262 90.6916 26.1462 89.4316 26.1462ZM107.056 48.4062L106.916 25.5162C106.916 18.5162 106.986 11.7029 107.126 5.07623C107.173 3.53623 107.453 2.39289 107.966 1.64623C108.526 0.89956 109.576 0.526228 111.116 0.526228H124.556C126.096 0.526228 127.123 0.89956 127.636 1.64623C128.196 2.34623 128.523 3.65289 128.616 5.56623C128.756 7.43289 128.873 12.4729 128.966 20.6862C132.606 16.9996 136.97 15.1562 142.056 15.1562C147.19 15.1562 151.226 16.4162 154.166 18.9362C157.106 21.4562 158.6 24.9329 158.646 29.3662C158.74 33.7996 158.786 37.7662 158.786 41.2662C158.786 44.7662 158.763 47.1229 158.716 48.3362C158.67 49.5496 158.343 50.4362 157.736 50.9962C157.176 51.5096 156.056 51.7662 154.376 51.7662L140.936 51.9062C139.443 51.9062 138.393 51.6496 137.786 51.1362C137.226 50.5762 136.946 49.7596 136.946 48.6862L137.016 31.6062C137.016 30.2062 136.666 29.1562 135.966 28.4562C135.266 27.7562 134.38 27.4062 133.306 27.4062C132.28 27.4062 131.346 27.7796 130.506 28.5262C129.666 29.2262 129.223 30.2296 129.176 31.5362L128.756 48.4062C128.71 49.2929 128.29 50.0396 127.496 50.6462C126.703 51.2529 125.723 51.6029 124.556 51.6962C123.436 51.7896 122.176 51.8362 120.776 51.8362L110.976 51.6962C110.09 51.6962 109.203 51.3929 108.316 50.7862C107.476 50.1329 107.056 49.3396 107.056 48.4062ZM186.327 34.1962C186.327 39.4229 187.704 42.0362 190.457 42.0362C193.211 42.0362 194.587 39.4229 194.587 34.1962C194.587 31.8162 194.307 29.9962 193.747 28.7362C193.187 27.4296 192.091 26.7762 190.457 26.7762C188.824 26.7762 187.727 27.4296 187.167 28.7362C186.607 29.9962 186.327 31.8162 186.327 34.1962ZM216.567 34.1962C216.567 46.8896 207.864 53.2362 190.457 53.2362C173.051 53.2362 164.347 46.8896 164.347 34.1962C164.347 28.1762 166.564 23.5096 170.997 20.1962C175.431 16.8829 181.917 15.2262 190.457 15.2262C198.997 15.2262 205.484 16.8829 209.917 20.1962C214.351 23.5096 216.567 28.1762 216.567 34.1962ZM243.389 34.1962C243.389 39.4229 244.766 42.0362 247.519 42.0362C250.273 42.0362 251.649 39.4229 251.649 34.1962C251.649 31.8162 251.369 29.9962 250.809 28.7362C250.249 27.4296 249.153 26.7762 247.519 26.7762C245.886 26.7762 244.789 27.4296 244.229 28.7362C243.669 29.9962 243.389 31.8162 243.389 34.1962ZM273.629 34.1962C273.629 46.8896 264.926 53.2362 247.519 53.2362C230.113 53.2362 221.409 46.8896 221.409 34.1962C221.409 28.1762 223.626 23.5096 228.059 20.1962C232.493 16.8829 238.979 15.2262 247.519 15.2262C256.059 15.2262 262.546 16.8829 266.979 20.1962C271.413 23.5096 273.629 28.1762 273.629 34.1962ZM284.421 0.526228H297.861C299.401 0.526228 300.428 0.89956 300.941 1.64623C301.455 2.34623 301.781 3.48956 301.921 5.07623C302.201 10.6762 302.341 18.4229 302.341 28.3162C302.341 38.1629 302.155 44.9529 301.781 48.6862C301.688 49.4329 301.315 50.1096 300.661 50.7162C300.008 51.3229 298.841 51.6729 297.161 51.7662C295.528 51.9062 293.591 51.9762 291.351 51.9762C289.111 51.9762 287.105 51.9296 285.331 51.8362C282.298 51.6029 280.711 50.5529 280.571 48.6862C280.105 44.6262 279.871 37.4396 279.871 27.1262C279.871 16.7662 280.058 9.41623 280.431 5.07623C280.571 3.48956 280.875 2.34623 281.341 1.64623C281.855 0.89956 282.881 0.526228 284.421 0.526228ZM366.167 42.6662V48.5462C366.167 50.5529 364.791 51.6262 362.037 51.7662C359.331 51.9062 356.367 51.9762 353.147 51.9762C349.974 51.9762 346.334 51.8596 342.227 51.6262C340.874 51.5329 339.777 51.0662 338.937 50.2262C338.144 49.3862 337.677 48.4296 337.537 47.3562C337.164 43.2496 336.977 36.8096 336.977 28.0362C336.977 19.2162 337.117 12.7996 337.397 8.78623C337.677 4.77289 339.707 2.74289 343.487 2.69622C347.827 2.60289 352.471 2.55623 357.417 2.55623C362.364 2.55623 367.707 2.62623 373.447 2.76622C379.234 2.90622 383.947 5.07623 387.587 9.27623C391.227 13.4762 393.047 18.0962 393.047 23.1362C393.047 28.1762 391.437 32.3296 388.217 35.5962C384.997 38.8629 380.284 40.4962 374.077 40.4962H368.617C368.011 40.4962 367.451 40.7062 366.937 41.1262C366.424 41.5462 366.167 42.0596 366.167 42.6662ZM366.097 17.3262L366.237 30.2762C366.237 31.1629 366.727 31.6062 367.707 31.6062C370.601 31.6062 372.864 30.8129 374.497 29.2262C376.177 27.5929 377.017 25.6796 377.017 23.4862C377.017 21.2929 376.224 19.4029 374.637 17.8162C373.097 16.2296 370.811 15.4362 367.777 15.4362C366.657 15.4362 366.097 16.0662 366.097 17.3262ZM423.676 14.9462C438.889 14.9462 446.566 19.8929 446.706 29.7862C446.799 33.9862 446.846 37.8362 446.846 41.3362C446.846 44.8362 446.823 47.1929 446.776 48.4062C446.729 49.6196 446.403 50.5062 445.796 51.0662C445.236 51.5796 444.116 51.8362 442.436 51.8362H427.596C426.103 51.8362 425.076 51.5796 424.516 51.0662C423.956 50.5062 423.653 49.6896 423.606 48.6162C423.606 48.5696 423.583 48.4996 423.536 48.4062C423.536 48.2662 423.536 48.1496 423.536 48.0562C420.456 51.2296 416.256 52.8162 410.936 52.8162C407.249 52.8162 404.099 51.9062 401.486 50.0862C398.919 48.2196 397.636 45.6762 397.636 42.4562C397.636 39.1896 398.546 36.5996 400.366 34.6862C402.233 32.7262 404.426 31.3962 406.946 30.6962C409.513 29.9962 412.243 29.6462 415.136 29.6462C418.076 29.6462 420.946 29.9262 423.746 30.4862V30.2062C423.746 27.8729 423.279 26.1929 422.346 25.1662C421.459 24.1396 419.989 23.6262 417.936 23.6262C415.929 23.6262 414.249 23.8129 412.896 24.1862C411.543 24.5129 410.516 24.8629 409.816 25.2362C407.903 26.3562 406.573 26.9162 405.826 26.9162C405.079 26.9162 404.403 26.5662 403.796 25.8662C403.236 25.1662 402.956 24.0929 402.956 22.6462C402.956 21.1529 403.213 20.1262 403.726 19.5662C404.286 19.0062 405.149 18.4462 406.316 17.8862C410.376 15.9262 416.163 14.9462 423.676 14.9462ZM420.386 43.5762C422.439 43.5762 423.489 43.1796 423.536 42.3862C423.629 40.8462 423.676 38.8162 423.676 36.2962C423.676 35.3162 422.929 34.8262 421.436 34.8262C419.943 34.8262 418.729 35.1996 417.796 35.9462C416.863 36.6462 416.396 37.6962 416.396 39.0962C416.396 40.4962 416.769 41.5929 417.516 42.3862C418.309 43.1796 419.266 43.5762 420.386 43.5762ZM459.498 54.4262C465.658 54.4262 468.738 53.5162 468.738 51.6962C468.738 51.0896 468.364 50.1796 467.618 48.9662C464.211 43.6462 459.171 34.4762 452.498 21.4562C451.984 20.3829 451.728 19.5429 451.728 18.9362C451.728 17.0229 452.684 16.0662 454.598 16.0662H469.998C471.491 16.0662 472.611 16.2996 473.358 16.7662C474.151 17.2329 474.898 18.1196 475.598 19.4262L482.108 31.6062C482.388 32.1662 482.784 32.4462 483.298 32.4462C483.811 32.4462 484.208 32.1662 484.488 31.6062L491.208 17.6762C491.628 16.7429 492.118 16.2296 492.678 16.1362C492.864 16.1362 493.214 16.1129 493.728 16.0662H501.078C501.731 16.0662 502.198 16.3696 502.478 16.9762C502.571 17.2562 502.618 17.5829 502.618 17.9562C502.618 18.2829 502.431 18.7962 502.058 19.4962C501.731 20.1496 499.981 23.8596 496.808 30.6262C493.634 37.3929 491.208 42.3629 489.528 45.5362C487.894 48.7096 486.728 50.8796 486.028 52.0462C485.374 53.2129 484.488 54.5896 483.368 56.1762C482.248 57.8096 481.174 59.0229 480.148 59.8162C479.121 60.6562 477.838 61.4962 476.298 62.3362C473.591 63.7829 470.114 64.5062 465.868 64.5062C461.668 64.5062 458.891 64.1329 457.538 63.3862C456.184 62.6862 455.508 61.1229 455.508 58.6962C455.508 57.5296 455.718 56.5262 456.138 55.6862C456.604 54.8462 457.211 54.4262 457.958 54.4262H459.498Z" fill="#FFFEFD"/>
</g>
<defs>
<filter id="filter0_dd_1240_12192" x="0.15183" y="0.526215" width="504.974" height="71.505" filterUnits="userSpaceOnUse" color-interpolation-filters="sRGB">
<feFlood flood-opacity="0" result="BackgroundImageFix"/>
<feColorMatrix in="SourceAlpha" type="matrix" values="0 0 0 0 0 0 0 0 0 0 0 0 0 0 0 0 0 0 127 0" result="hardAlpha"/>
<feMorphology radius="2.50833" operator="erode" in="SourceAlpha" result="effect1_dropShadow_1240_12192"/>
<feOffset dy="5.01665"/>
<feGaussianBlur stdDeviation="2.50833"/>
<feColorMatrix type="matrix" values="0 0 0 0 0.0941176 0 0 0 0 0.152941 0 0 0 0 0.294118 0 0 0 0.08 0"/>
<feBlend mode="normal" in2="BackgroundImageFix" result="effect1_dropShadow_1240_12192"/>
<feColorMatrix in="SourceAlpha" type="matrix" values="0 0 0 0 0 0 0 0 0 0 0 0 0 0 0 0 0 0 127 0" result="hardAlpha"/>
<feMorphology radius="2.50833" operator="erode" in="SourceAlpha" result="effect2_dropShadow_1240_12192"/>
<feOffset dy="2.50833"/>
<feGaussianBlur stdDeviation="2.50833"/>
<feColorMatrix type="matrix" values="0 0 0 0 0.0941176 0 0 0 0 0.152941 0 0 0 0 0.294118 0 0 0 0.12 0"/>
<feBlend mode="normal" in2="effect1_dropShadow_1240_12192" result="effect2_dropShadow_1240_12192"/>
<feBlend mode="normal" in="SourceGraphic" in2="effect2_dropShadow_1240_12192" result="shape"/>
</filter>
</defs>
</svg>
