<svg width="318" height="101" viewBox="0 0 318 101" fill="none" xmlns="http://www.w3.org/2000/svg">
<g filter="url(#filter0_d_1258_9676)">
<circle cx="50" cy="50.8418" r="50" fill="#FFFEFD"/>
</g>
<path d="M122.4 24.6858H130.304C131.904 24.6858 133.301 24.8671 134.496 25.2298C135.712 25.5925 136.757 26.0831 137.632 26.7018C138.528 27.2991 139.264 27.9925 139.84 28.7818C140.437 29.5711 140.907 30.3818 141.248 31.2138C141.589 32.0458 141.835 32.8778 141.984 33.7098C142.133 34.5418 142.208 35.3098 142.208 36.0138C142.208 37.4645 141.941 38.8725 141.408 40.2378C140.875 41.5818 140.085 42.7871 139.04 43.8538C137.995 44.8991 136.693 45.7418 135.136 46.3818C133.6 47.0218 131.819 47.3418 129.792 47.3418H122.4V24.6858ZM125.472 44.4618H129.344C130.645 44.4618 131.872 44.2911 133.024 43.9498C134.197 43.5871 135.221 43.0538 136.096 42.3498C136.971 41.6458 137.664 40.7711 138.176 39.7258C138.688 38.6591 138.944 37.4218 138.944 36.0138C138.944 35.2885 138.827 34.4458 138.592 33.4858C138.357 32.5045 137.909 31.5765 137.248 30.7018C136.608 29.8271 135.712 29.0911 134.56 28.4938C133.408 27.8751 131.915 27.5658 130.08 27.5658H125.472V44.4618ZM145.895 32.1738H148.775V34.5098H148.839C149.031 34.1045 149.287 33.7418 149.607 33.4218C149.927 33.0805 150.279 32.7925 150.663 32.5578C151.068 32.3231 151.505 32.1418 151.975 32.0138C152.444 31.8645 152.913 31.7898 153.383 31.7898C153.852 31.7898 154.279 31.8538 154.663 31.9818L154.535 35.0858C154.3 35.0218 154.065 34.9685 153.831 34.9258C153.596 34.8831 153.361 34.8618 153.127 34.8618C151.719 34.8618 150.641 35.2565 149.895 36.0458C149.148 36.8351 148.775 38.0618 148.775 39.7258V47.3418H145.895V32.1738ZM159.512 39.7578C159.512 40.5258 159.629 41.2405 159.864 41.9018C160.099 42.5418 160.429 43.0965 160.856 43.5658C161.283 44.0138 161.805 44.3765 162.424 44.6538C163.043 44.9098 163.736 45.0378 164.504 45.0378C165.272 45.0378 165.965 44.9098 166.584 44.6538C167.203 44.3765 167.725 44.0138 168.152 43.5658C168.579 43.0965 168.909 42.5418 169.144 41.9018C169.379 41.2405 169.496 40.5258 169.496 39.7578C169.496 38.9898 169.379 38.2858 169.144 37.6458C168.909 36.9845 168.579 36.4298 168.152 35.9818C167.725 35.5125 167.203 35.1498 166.584 34.8938C165.965 34.6165 165.272 34.4778 164.504 34.4778C163.736 34.4778 163.043 34.6165 162.424 34.8938C161.805 35.1498 161.283 35.5125 160.856 35.9818C160.429 36.4298 160.099 36.9845 159.864 37.6458C159.629 38.2858 159.512 38.9898 159.512 39.7578ZM156.44 39.7578C156.44 38.6485 156.643 37.6138 157.048 36.6538C157.475 35.6938 158.051 34.8511 158.776 34.1258C159.501 33.4005 160.355 32.8351 161.336 32.4298C162.317 32.0031 163.373 31.7898 164.504 31.7898C165.635 31.7898 166.691 32.0031 167.672 32.4298C168.653 32.8351 169.507 33.4005 170.232 34.1258C170.957 34.8511 171.523 35.6938 171.928 36.6538C172.355 37.6138 172.568 38.6485 172.568 39.7578C172.568 40.8671 172.355 41.9125 171.928 42.8938C171.523 43.8538 170.957 44.6965 170.232 45.4218C169.507 46.1258 168.653 46.6911 167.672 47.1178C166.691 47.5231 165.635 47.7258 164.504 47.7258C163.373 47.7258 162.317 47.5231 161.336 47.1178C160.355 46.6911 159.501 46.1258 158.776 45.4218C158.051 44.6965 157.475 43.8538 157.048 42.8938C156.643 41.9125 156.44 40.8671 156.44 39.7578ZM176.176 32.1738H179.056V34.3498H179.12C179.675 33.5391 180.432 32.9098 181.392 32.4618C182.373 32.0138 183.376 31.7898 184.4 31.7898C185.573 31.7898 186.629 31.9925 187.568 32.3978C188.528 32.8031 189.339 33.3685 190 34.0938C190.683 34.8191 191.205 35.6725 191.568 36.6538C191.931 37.6138 192.112 38.6485 192.112 39.7578C192.112 40.8885 191.931 41.9445 191.568 42.9258C191.205 43.8858 190.683 44.7285 190 45.4538C189.339 46.1578 188.528 46.7125 187.568 47.1178C186.629 47.5231 185.573 47.7258 184.4 47.7258C183.312 47.7258 182.288 47.5018 181.328 47.0538C180.368 46.5845 179.632 45.9551 179.12 45.1658H179.056V56.3658H176.176V32.1738ZM184.048 34.4778C183.28 34.4778 182.587 34.6165 181.968 34.8938C181.349 35.1498 180.827 35.5125 180.4 35.9818C179.973 36.4298 179.643 36.9845 179.408 37.6458C179.173 38.2858 179.056 38.9898 179.056 39.7578C179.056 40.5258 179.173 41.2405 179.408 41.9018C179.643 42.5418 179.973 43.0965 180.4 43.5658C180.827 44.0138 181.349 44.3765 181.968 44.6538C182.587 44.9098 183.28 45.0378 184.048 45.0378C184.816 45.0378 185.509 44.9098 186.128 44.6538C186.747 44.3765 187.269 44.0138 187.696 43.5658C188.123 43.0965 188.453 42.5418 188.688 41.9018C188.923 41.2405 189.04 40.5258 189.04 39.7578C189.04 38.9898 188.923 38.2858 188.688 37.6458C188.453 36.9845 188.123 36.4298 187.696 35.9818C187.269 35.5125 186.747 35.1498 186.128 34.8938C185.509 34.6165 184.816 34.4778 184.048 34.4778ZM206.053 42.6058C206.607 43.4378 207.311 44.0565 208.165 44.4618C209.039 44.8458 209.935 45.0378 210.853 45.0378C211.365 45.0378 211.887 44.9631 212.421 44.8138C212.954 44.6431 213.434 44.3978 213.861 44.0778C214.309 43.7578 214.671 43.3631 214.949 42.8938C215.226 42.4245 215.365 41.8805 215.365 41.2618C215.365 40.3871 215.087 39.7258 214.533 39.2778C213.978 38.8085 213.285 38.4245 212.453 38.1258C211.642 37.8058 210.746 37.5071 209.765 37.2298C208.805 36.9311 207.909 36.5258 207.077 36.0138C206.266 35.5018 205.583 34.8191 205.029 33.9658C204.474 33.0911 204.197 31.9178 204.197 30.4458C204.197 29.7845 204.335 29.0805 204.613 28.3338C204.911 27.5871 205.37 26.9045 205.989 26.2858C206.607 25.6671 207.397 25.1551 208.357 24.7498C209.338 24.3231 210.511 24.1098 211.877 24.1098C213.114 24.1098 214.298 24.2805 215.429 24.6218C216.559 24.9631 217.551 25.6565 218.405 26.7018L215.909 28.9738C215.525 28.3765 214.981 27.8965 214.277 27.5338C213.573 27.1711 212.773 26.9898 211.877 26.9898C211.023 26.9898 210.309 27.1071 209.733 27.3418C209.178 27.5551 208.73 27.8431 208.389 28.2058C208.047 28.5471 207.802 28.9205 207.653 29.3258C207.525 29.7311 207.461 30.1045 207.461 30.4458C207.461 31.4058 207.738 32.1418 208.293 32.6538C208.847 33.1658 209.53 33.5818 210.341 33.9018C211.173 34.2218 212.069 34.5098 213.029 34.7658C214.01 35.0218 214.906 35.3845 215.717 35.8538C216.549 36.3018 217.242 36.9205 217.797 37.7098C218.351 38.4778 218.629 39.5445 218.629 40.9098C218.629 41.9978 218.415 42.9791 217.989 43.8538C217.583 44.7285 217.029 45.4645 216.325 46.0618C215.621 46.6591 214.789 47.1178 213.829 47.4378C212.869 47.7578 211.845 47.9178 210.757 47.9178C209.306 47.9178 207.93 47.6618 206.629 47.1498C205.327 46.6378 204.293 45.8485 203.525 44.7818L206.053 42.6058ZM222.426 23.1498H225.306V34.5098H225.37C225.733 33.6991 226.362 33.0485 227.258 32.5578C228.154 32.0458 229.189 31.7898 230.362 31.7898C231.087 31.7898 231.781 31.9071 232.442 32.1418C233.125 32.3551 233.711 32.6965 234.202 33.1658C234.714 33.6351 235.119 34.2431 235.418 34.9898C235.717 35.7151 235.866 36.5791 235.866 37.5818V47.3418H232.986V38.3818C232.986 37.6778 232.89 37.0805 232.698 36.5898C232.506 36.0778 232.25 35.6725 231.93 35.3738C231.61 35.0538 231.237 34.8298 230.81 34.7018C230.405 34.5525 229.978 34.4778 229.53 34.4778C228.933 34.4778 228.378 34.5738 227.866 34.7658C227.354 34.9578 226.906 35.2671 226.522 35.6938C226.138 36.0991 225.839 36.6218 225.626 37.2618C225.413 37.9018 225.306 38.6591 225.306 39.5338V47.3418H222.426V23.1498ZM240.271 34.0298C241.082 33.2831 242.021 32.7285 243.087 32.3658C244.154 31.9818 245.221 31.7898 246.287 31.7898C247.397 31.7898 248.346 31.9285 249.135 32.2058C249.946 32.4831 250.607 32.8565 251.119 33.3258C251.631 33.7951 252.005 34.3391 252.239 34.9578C252.495 35.5551 252.623 36.1845 252.623 36.8458V44.5898C252.623 45.1231 252.634 45.6138 252.655 46.0618C252.677 46.5098 252.709 46.9365 252.751 47.3418H250.191C250.127 46.5738 250.095 45.8058 250.095 45.0378H250.031C249.391 46.0191 248.634 46.7125 247.759 47.1178C246.885 47.5231 245.871 47.7258 244.719 47.7258C244.015 47.7258 243.343 47.6298 242.703 47.4378C242.063 47.2458 241.498 46.9578 241.007 46.5738C240.538 46.1898 240.165 45.7205 239.887 45.1658C239.61 44.5898 239.471 43.9285 239.471 43.1818C239.471 42.2005 239.685 41.3791 240.111 40.7178C240.559 40.0565 241.157 39.5231 241.903 39.1178C242.671 38.6911 243.557 38.3925 244.559 38.2218C245.583 38.0298 246.671 37.9338 247.823 37.9338H249.935V37.2938C249.935 36.9098 249.861 36.5258 249.711 36.1418C249.562 35.7578 249.338 35.4165 249.039 35.1178C248.741 34.7978 248.367 34.5525 247.919 34.3818C247.471 34.1898 246.938 34.0938 246.319 34.0938C245.765 34.0938 245.274 34.1471 244.847 34.2538C244.442 34.3605 244.069 34.4991 243.727 34.6698C243.386 34.8191 243.077 35.0005 242.799 35.2138C242.522 35.4271 242.255 35.6298 241.999 35.8218L240.271 34.0298ZM248.399 40.0458C247.717 40.0458 247.013 40.0885 246.287 40.1738C245.583 40.2378 244.933 40.3765 244.335 40.5898C243.759 40.8031 243.279 41.1018 242.895 41.4858C242.533 41.8698 242.351 42.3605 242.351 42.9578C242.351 43.8325 242.639 44.4618 243.215 44.8458C243.813 45.2298 244.613 45.4218 245.615 45.4218C246.405 45.4218 247.077 45.2938 247.631 45.0378C248.186 44.7605 248.634 44.4085 248.975 43.9818C249.317 43.5551 249.562 43.0858 249.711 42.5738C249.861 42.0405 249.935 41.5178 249.935 41.0058V40.0458H248.399ZM272.001 47.3418H269.121V45.1658H269.057C268.502 45.9765 267.734 46.6058 266.753 47.0538C265.793 47.5018 264.801 47.7258 263.777 47.7258C262.604 47.7258 261.537 47.5231 260.577 47.1178C259.638 46.7125 258.828 46.1471 258.145 45.4218C257.484 44.6965 256.972 43.8538 256.609 42.8938C256.246 41.9338 256.065 40.8885 256.065 39.7578C256.065 38.6271 256.246 37.5818 256.609 36.6218C256.972 35.6405 257.484 34.7978 258.145 34.0938C258.828 33.3685 259.638 32.8031 260.577 32.3978C261.537 31.9925 262.604 31.7898 263.777 31.7898C264.865 31.7898 265.889 32.0245 266.849 32.4938C267.809 32.9418 268.545 33.5605 269.057 34.3498H269.121V23.1498H272.001V47.3418ZM264.129 45.0378C264.897 45.0378 265.59 44.9098 266.209 44.6538C266.828 44.3765 267.35 44.0138 267.777 43.5658C268.204 43.0965 268.534 42.5418 268.769 41.9018C269.004 41.2405 269.121 40.5258 269.121 39.7578C269.121 38.9898 269.004 38.2858 268.769 37.6458C268.534 36.9845 268.204 36.4298 267.777 35.9818C267.35 35.5125 266.828 35.1498 266.209 34.8938C265.59 34.6165 264.897 34.4778 264.129 34.4778C263.361 34.4778 262.668 34.6165 262.049 34.8938C261.43 35.1498 260.908 35.5125 260.481 35.9818C260.054 36.4298 259.724 36.9845 259.489 37.6458C259.254 38.2858 259.137 38.9898 259.137 39.7578C259.137 40.5258 259.254 41.2405 259.489 41.9018C259.724 42.5418 260.054 43.0965 260.481 43.5658C260.908 44.0138 261.43 44.3765 262.049 44.6538C262.668 44.9098 263.361 45.0378 264.129 45.0378ZM278.7 39.7578C278.7 40.5258 278.817 41.2405 279.052 41.9018C279.286 42.5418 279.617 43.0965 280.044 43.5658C280.47 44.0138 280.993 44.3765 281.612 44.6538C282.23 44.9098 282.924 45.0378 283.692 45.0378C284.46 45.0378 285.153 44.9098 285.772 44.6538C286.39 44.3765 286.913 44.0138 287.34 43.5658C287.766 43.0965 288.097 42.5418 288.332 41.9018C288.566 41.2405 288.684 40.5258 288.684 39.7578C288.684 38.9898 288.566 38.2858 288.332 37.6458C288.097 36.9845 287.766 36.4298 287.34 35.9818C286.913 35.5125 286.39 35.1498 285.772 34.8938C285.153 34.6165 284.46 34.4778 283.692 34.4778C282.924 34.4778 282.23 34.6165 281.612 34.8938C280.993 35.1498 280.47 35.5125 280.044 35.9818C279.617 36.4298 279.286 36.9845 279.052 37.6458C278.817 38.2858 278.7 38.9898 278.7 39.7578ZM275.628 39.7578C275.628 38.6485 275.83 37.6138 276.236 36.6538C276.662 35.6938 277.238 34.8511 277.964 34.1258C278.689 33.4005 279.542 32.8351 280.524 32.4298C281.505 32.0031 282.561 31.7898 283.692 31.7898C284.822 31.7898 285.878 32.0031 286.86 32.4298C287.841 32.8351 288.694 33.4005 289.42 34.1258C290.145 34.8511 290.71 35.6938 291.116 36.6538C291.542 37.6138 291.756 38.6485 291.756 39.7578C291.756 40.8671 291.542 41.9125 291.116 42.8938C290.71 43.8538 290.145 44.6965 289.42 45.4218C288.694 46.1258 287.841 46.6911 286.86 47.1178C285.878 47.5231 284.822 47.7258 283.692 47.7258C282.561 47.7258 281.505 47.5231 280.524 47.1178C279.542 46.6911 278.689 46.1258 277.964 45.4218C277.238 44.6965 276.662 43.8538 276.236 42.8938C275.83 41.9125 275.628 40.8671 275.628 39.7578ZM293.54 32.1738H296.772L300.196 43.5018H300.26L303.876 32.1738H306.916L310.756 43.5018H310.819L314.084 32.1738H317.124L312.228 47.3418H309.316L305.316 36.0138H305.252L301.635 47.3418H298.532L293.54 32.1738Z" fill="black"/>
<path d="M121.64 65.1818H125.48L129.26 75.1018L133.08 65.1818H136.88V79.3418H134.48V67.5818H134.44L130.14 79.3418H128.38L124.08 67.5818H124.04V79.3418H121.64V65.1818ZM141.796 75.3818C141.876 76.1018 142.156 76.6618 142.636 77.0618C143.116 77.4618 143.696 77.6618 144.376 77.6618C144.976 77.6618 145.476 77.5418 145.876 77.3018C146.289 77.0485 146.649 76.7351 146.956 76.3618L148.676 77.6618C148.116 78.3551 147.489 78.8485 146.796 79.1418C146.102 79.4351 145.376 79.5818 144.616 79.5818C143.896 79.5818 143.216 79.4618 142.576 79.2218C141.936 78.9818 141.382 78.6418 140.916 78.2018C140.449 77.7618 140.076 77.2351 139.796 76.6218C139.529 75.9951 139.396 75.3018 139.396 74.5418C139.396 73.7818 139.529 73.0951 139.796 72.4818C140.076 71.8551 140.449 71.3218 140.916 70.8818C141.382 70.4418 141.936 70.1018 142.576 69.8618C143.216 69.6218 143.896 69.5018 144.616 69.5018C145.282 69.5018 145.889 69.6218 146.436 69.8618C146.996 70.0885 147.469 70.4218 147.856 70.8618C148.256 71.3018 148.562 71.8485 148.776 72.5018C149.002 73.1418 149.116 73.8818 149.116 74.7218V75.3818H141.796ZM146.716 73.5818C146.702 72.8751 146.482 72.3218 146.056 71.9218C145.629 71.5085 145.036 71.3018 144.276 71.3018C143.556 71.3018 142.982 71.5085 142.556 71.9218C142.142 72.3351 141.889 72.8885 141.796 73.5818H146.716ZM158.96 77.9018H158.92C158.573 78.4885 158.107 78.9151 157.52 79.1818C156.933 79.4485 156.3 79.5818 155.62 79.5818C154.873 79.5818 154.207 79.4551 153.62 79.2018C153.047 78.9351 152.553 78.5751 152.14 78.1218C151.727 77.6685 151.413 77.1351 151.2 76.5218C150.987 75.9085 150.88 75.2485 150.88 74.5418C150.88 73.8351 150.993 73.1751 151.22 72.5618C151.447 71.9485 151.76 71.4151 152.16 70.9618C152.573 70.5085 153.067 70.1551 153.64 69.9018C154.213 69.6351 154.84 69.5018 155.52 69.5018C155.973 69.5018 156.373 69.5485 156.72 69.6418C157.067 69.7351 157.373 69.8551 157.64 70.0018C157.907 70.1485 158.133 70.3085 158.32 70.4818C158.507 70.6418 158.66 70.8018 158.78 70.9618H158.84V64.2218H161.24V79.3418H158.96V77.9018ZM153.28 74.5418C153.28 74.9151 153.34 75.2751 153.46 75.6218C153.593 75.9685 153.78 76.2751 154.02 76.5418C154.273 76.8085 154.573 77.0218 154.92 77.1818C155.267 77.3418 155.66 77.4218 156.1 77.4218C156.54 77.4218 156.933 77.3418 157.28 77.1818C157.627 77.0218 157.92 76.8085 158.16 76.5418C158.413 76.2751 158.6 75.9685 158.72 75.6218C158.853 75.2751 158.92 74.9151 158.92 74.5418C158.92 74.1685 158.853 73.8085 158.72 73.4618C158.6 73.1151 158.413 72.8085 158.16 72.5418C157.92 72.2751 157.627 72.0618 157.28 71.9018C156.933 71.7418 156.54 71.6618 156.1 71.6618C155.66 71.6618 155.267 71.7418 154.92 71.9018C154.573 72.0618 154.273 72.2751 154.02 72.5418C153.78 72.8085 153.593 73.1151 153.46 73.4618C153.34 73.8085 153.28 74.1685 153.28 74.5418ZM164.017 69.7418H166.417V79.3418H164.017V69.7418ZM163.677 66.4818C163.677 66.0951 163.817 65.7618 164.097 65.4818C164.391 65.1885 164.757 65.0418 165.197 65.0418C165.637 65.0418 166.004 65.1818 166.297 65.4618C166.604 65.7285 166.757 66.0685 166.757 66.4818C166.757 66.8951 166.604 67.2418 166.297 67.5218C166.004 67.7885 165.637 67.9218 165.197 67.9218C164.757 67.9218 164.391 67.7818 164.097 67.5018C163.817 67.2085 163.677 66.8685 163.677 66.4818ZM177.933 79.3418H175.653V77.8018H175.613C175.386 78.2818 175.039 78.7018 174.573 79.0618C174.106 79.4085 173.473 79.5818 172.673 79.5818C172.033 79.5818 171.486 79.4818 171.033 79.2818C170.593 79.0685 170.233 78.7885 169.953 78.4418C169.673 78.0818 169.473 77.6751 169.353 77.2218C169.233 76.7685 169.173 76.2951 169.173 75.8018V69.7418H171.573V74.6018C171.573 74.8685 171.586 75.1685 171.613 75.5018C171.639 75.8218 171.706 76.1285 171.813 76.4218C171.933 76.7018 172.106 76.9418 172.333 77.1418C172.573 77.3285 172.906 77.4218 173.333 77.4218C173.733 77.4218 174.066 77.3551 174.333 77.2218C174.613 77.0885 174.839 76.9085 175.013 76.6818C175.199 76.4551 175.333 76.1951 175.413 75.9018C175.493 75.6085 175.533 75.3018 175.533 74.9818V69.7418H177.933V79.3418ZM180.557 69.7418H182.837V71.2418H182.877C183.09 70.7885 183.43 70.3885 183.897 70.0418C184.377 69.6818 185.017 69.5018 185.817 69.5018C187.324 69.5018 188.324 70.0951 188.817 71.2818C189.164 70.6685 189.597 70.2218 190.117 69.9418C190.637 69.6485 191.257 69.5018 191.977 69.5018C192.617 69.5018 193.157 69.6085 193.597 69.8218C194.037 70.0351 194.39 70.3285 194.657 70.7018C194.937 71.0751 195.137 71.5151 195.257 72.0218C195.377 72.5151 195.437 73.0485 195.437 73.6218V79.3418H193.037V73.9018C193.037 73.6085 193.01 73.3285 192.957 73.0618C192.904 72.7818 192.81 72.5418 192.677 72.3418C192.544 72.1285 192.364 71.9618 192.137 71.8418C191.91 71.7218 191.617 71.6618 191.257 71.6618C190.884 71.6618 190.564 71.7351 190.297 71.8818C190.044 72.0151 189.83 72.2018 189.657 72.4418C189.497 72.6685 189.377 72.9351 189.297 73.2418C189.23 73.5351 189.197 73.8351 189.197 74.1418V79.3418H186.797V73.6218C186.797 73.0218 186.67 72.5485 186.417 72.2018C186.164 71.8418 185.744 71.6618 185.157 71.6618C184.757 71.6618 184.417 71.7285 184.137 71.8618C183.87 71.9951 183.644 72.1751 183.457 72.4018C183.284 72.6285 183.157 72.8885 183.077 73.1818C182.997 73.4751 182.957 73.7818 182.957 74.1018V79.3418H180.557V69.7418Z" fill="black"/>
<defs>
<filter id="filter0_d_1258_9676" x="0" y="0.841797" width="100" height="100" filterUnits="userSpaceOnUse" color-interpolation-filters="sRGB">
<feFlood flood-opacity="0" result="BackgroundImageFix"/>
<feColorMatrix in="SourceAlpha" type="matrix" values="0 0 0 0 0 0 0 0 0 0 0 0 0 0 0 0 0 0 127 0" result="hardAlpha"/>
<feMorphology radius="2" operator="erode" in="SourceAlpha" result="effect1_dropShadow_1258_9676"/>
<feOffset dy="1"/>
<feColorMatrix type="matrix" values="0 0 0 0 0.627451 0 0 0 0 0.698039 0 0 0 0 0.905882 0 0 0 0.14 0"/>
<feBlend mode="normal" in2="BackgroundImageFix" result="effect1_dropShadow_1258_9676"/>
<feBlend mode="normal" in="SourceGraphic" in2="effect1_dropShadow_1258_9676" result="shape"/>
</filter>
</defs>
</svg>
