<svg width="322" height="109" viewBox="0 0 322 109" fill="none" xmlns="http://www.w3.org/2000/svg">
<g filter="url(#filter0_ddi_1258_9682)">
<circle cx="54" cy="50.8418" r="50" fill="#FFFEFD"/>
</g>
<path d="M126.4 24.6858H134.304C135.904 24.6858 137.301 24.8671 138.496 25.2298C139.712 25.5925 140.757 26.0831 141.632 26.7018C142.528 27.2991 143.264 27.9925 143.84 28.7818C144.437 29.5711 144.907 30.3818 145.248 31.2138C145.589 32.0458 145.835 32.8778 145.984 33.7098C146.133 34.5418 146.208 35.3098 146.208 36.0138C146.208 37.4645 145.941 38.8725 145.408 40.2378C144.875 41.5818 144.085 42.7871 143.04 43.8538C141.995 44.8991 140.693 45.7418 139.136 46.3818C137.6 47.0218 135.819 47.3418 133.792 47.3418H126.4V24.6858ZM129.472 44.4618H133.344C134.645 44.4618 135.872 44.2911 137.024 43.9498C138.197 43.5871 139.221 43.0538 140.096 42.3498C140.971 41.6458 141.664 40.7711 142.176 39.7258C142.688 38.6591 142.944 37.4218 142.944 36.0138C142.944 35.2885 142.827 34.4458 142.592 33.4858C142.357 32.5045 141.909 31.5765 141.248 30.7018C140.608 29.8271 139.712 29.0911 138.56 28.4938C137.408 27.8751 135.915 27.5658 134.08 27.5658H129.472V44.4618ZM149.895 32.1738H152.775V34.5098H152.839C153.031 34.1045 153.287 33.7418 153.607 33.4218C153.927 33.0805 154.279 32.7925 154.663 32.5578C155.068 32.3231 155.505 32.1418 155.975 32.0138C156.444 31.8645 156.913 31.7898 157.383 31.7898C157.852 31.7898 158.279 31.8538 158.663 31.9818L158.535 35.0858C158.3 35.0218 158.065 34.9685 157.831 34.9258C157.596 34.8831 157.361 34.8618 157.127 34.8618C155.719 34.8618 154.641 35.2565 153.895 36.0458C153.148 36.8351 152.775 38.0618 152.775 39.7258V47.3418H149.895V32.1738ZM163.512 39.7578C163.512 40.5258 163.629 41.2405 163.864 41.9018C164.099 42.5418 164.429 43.0965 164.856 43.5658C165.283 44.0138 165.805 44.3765 166.424 44.6538C167.043 44.9098 167.736 45.0378 168.504 45.0378C169.272 45.0378 169.965 44.9098 170.584 44.6538C171.203 44.3765 171.725 44.0138 172.152 43.5658C172.579 43.0965 172.909 42.5418 173.144 41.9018C173.379 41.2405 173.496 40.5258 173.496 39.7578C173.496 38.9898 173.379 38.2858 173.144 37.6458C172.909 36.9845 172.579 36.4298 172.152 35.9818C171.725 35.5125 171.203 35.1498 170.584 34.8938C169.965 34.6165 169.272 34.4778 168.504 34.4778C167.736 34.4778 167.043 34.6165 166.424 34.8938C165.805 35.1498 165.283 35.5125 164.856 35.9818C164.429 36.4298 164.099 36.9845 163.864 37.6458C163.629 38.2858 163.512 38.9898 163.512 39.7578ZM160.44 39.7578C160.44 38.6485 160.643 37.6138 161.048 36.6538C161.475 35.6938 162.051 34.8511 162.776 34.1258C163.501 33.4005 164.355 32.8351 165.336 32.4298C166.317 32.0031 167.373 31.7898 168.504 31.7898C169.635 31.7898 170.691 32.0031 171.672 32.4298C172.653 32.8351 173.507 33.4005 174.232 34.1258C174.957 34.8511 175.523 35.6938 175.928 36.6538C176.355 37.6138 176.568 38.6485 176.568 39.7578C176.568 40.8671 176.355 41.9125 175.928 42.8938C175.523 43.8538 174.957 44.6965 174.232 45.4218C173.507 46.1258 172.653 46.6911 171.672 47.1178C170.691 47.5231 169.635 47.7258 168.504 47.7258C167.373 47.7258 166.317 47.5231 165.336 47.1178C164.355 46.6911 163.501 46.1258 162.776 45.4218C162.051 44.6965 161.475 43.8538 161.048 42.8938C160.643 41.9125 160.44 40.8671 160.44 39.7578ZM180.176 32.1738H183.056V34.3498H183.12C183.675 33.5391 184.432 32.9098 185.392 32.4618C186.373 32.0138 187.376 31.7898 188.4 31.7898C189.573 31.7898 190.629 31.9925 191.568 32.3978C192.528 32.8031 193.339 33.3685 194 34.0938C194.683 34.8191 195.205 35.6725 195.568 36.6538C195.931 37.6138 196.112 38.6485 196.112 39.7578C196.112 40.8885 195.931 41.9445 195.568 42.9258C195.205 43.8858 194.683 44.7285 194 45.4538C193.339 46.1578 192.528 46.7125 191.568 47.1178C190.629 47.5231 189.573 47.7258 188.4 47.7258C187.312 47.7258 186.288 47.5018 185.328 47.0538C184.368 46.5845 183.632 45.9551 183.12 45.1658H183.056V56.3658H180.176V32.1738ZM188.048 34.4778C187.28 34.4778 186.587 34.6165 185.968 34.8938C185.349 35.1498 184.827 35.5125 184.4 35.9818C183.973 36.4298 183.643 36.9845 183.408 37.6458C183.173 38.2858 183.056 38.9898 183.056 39.7578C183.056 40.5258 183.173 41.2405 183.408 41.9018C183.643 42.5418 183.973 43.0965 184.4 43.5658C184.827 44.0138 185.349 44.3765 185.968 44.6538C186.587 44.9098 187.28 45.0378 188.048 45.0378C188.816 45.0378 189.509 44.9098 190.128 44.6538C190.747 44.3765 191.269 44.0138 191.696 43.5658C192.123 43.0965 192.453 42.5418 192.688 41.9018C192.923 41.2405 193.04 40.5258 193.04 39.7578C193.04 38.9898 192.923 38.2858 192.688 37.6458C192.453 36.9845 192.123 36.4298 191.696 35.9818C191.269 35.5125 190.747 35.1498 190.128 34.8938C189.509 34.6165 188.816 34.4778 188.048 34.4778ZM210.053 42.6058C210.607 43.4378 211.311 44.0565 212.165 44.4618C213.039 44.8458 213.935 45.0378 214.853 45.0378C215.365 45.0378 215.887 44.9631 216.421 44.8138C216.954 44.6431 217.434 44.3978 217.861 44.0778C218.309 43.7578 218.671 43.3631 218.949 42.8938C219.226 42.4245 219.365 41.8805 219.365 41.2618C219.365 40.3871 219.087 39.7258 218.533 39.2778C217.978 38.8085 217.285 38.4245 216.453 38.1258C215.642 37.8058 214.746 37.5071 213.765 37.2298C212.805 36.9311 211.909 36.5258 211.077 36.0138C210.266 35.5018 209.583 34.8191 209.029 33.9658C208.474 33.0911 208.197 31.9178 208.197 30.4458C208.197 29.7845 208.335 29.0805 208.613 28.3338C208.911 27.5871 209.37 26.9045 209.989 26.2858C210.607 25.6671 211.397 25.1551 212.357 24.7498C213.338 24.3231 214.511 24.1098 215.877 24.1098C217.114 24.1098 218.298 24.2805 219.429 24.6218C220.559 24.9631 221.551 25.6565 222.405 26.7018L219.909 28.9738C219.525 28.3765 218.981 27.8965 218.277 27.5338C217.573 27.1711 216.773 26.9898 215.877 26.9898C215.023 26.9898 214.309 27.1071 213.733 27.3418C213.178 27.5551 212.73 27.8431 212.389 28.2058C212.047 28.5471 211.802 28.9205 211.653 29.3258C211.525 29.7311 211.461 30.1045 211.461 30.4458C211.461 31.4058 211.738 32.1418 212.293 32.6538C212.847 33.1658 213.53 33.5818 214.341 33.9018C215.173 34.2218 216.069 34.5098 217.029 34.7658C218.01 35.0218 218.906 35.3845 219.717 35.8538C220.549 36.3018 221.242 36.9205 221.797 37.7098C222.351 38.4778 222.629 39.5445 222.629 40.9098C222.629 41.9978 222.415 42.9791 221.989 43.8538C221.583 44.7285 221.029 45.4645 220.325 46.0618C219.621 46.6591 218.789 47.1178 217.829 47.4378C216.869 47.7578 215.845 47.9178 214.757 47.9178C213.306 47.9178 211.93 47.6618 210.629 47.1498C209.327 46.6378 208.293 45.8485 207.525 44.7818L210.053 42.6058ZM226.426 23.1498H229.306V34.5098H229.37C229.733 33.6991 230.362 33.0485 231.258 32.5578C232.154 32.0458 233.189 31.7898 234.362 31.7898C235.087 31.7898 235.781 31.9071 236.442 32.1418C237.125 32.3551 237.711 32.6965 238.202 33.1658C238.714 33.6351 239.119 34.2431 239.418 34.9898C239.717 35.7151 239.866 36.5791 239.866 37.5818V47.3418H236.986V38.3818C236.986 37.6778 236.89 37.0805 236.698 36.5898C236.506 36.0778 236.25 35.6725 235.93 35.3738C235.61 35.0538 235.237 34.8298 234.81 34.7018C234.405 34.5525 233.978 34.4778 233.53 34.4778C232.933 34.4778 232.378 34.5738 231.866 34.7658C231.354 34.9578 230.906 35.2671 230.522 35.6938C230.138 36.0991 229.839 36.6218 229.626 37.2618C229.413 37.9018 229.306 38.6591 229.306 39.5338V47.3418H226.426V23.1498ZM244.271 34.0298C245.082 33.2831 246.021 32.7285 247.087 32.3658C248.154 31.9818 249.221 31.7898 250.287 31.7898C251.397 31.7898 252.346 31.9285 253.135 32.2058C253.946 32.4831 254.607 32.8565 255.119 33.3258C255.631 33.7951 256.005 34.3391 256.239 34.9578C256.495 35.5551 256.623 36.1845 256.623 36.8458V44.5898C256.623 45.1231 256.634 45.6138 256.655 46.0618C256.677 46.5098 256.709 46.9365 256.751 47.3418H254.191C254.127 46.5738 254.095 45.8058 254.095 45.0378H254.031C253.391 46.0191 252.634 46.7125 251.759 47.1178C250.885 47.5231 249.871 47.7258 248.719 47.7258C248.015 47.7258 247.343 47.6298 246.703 47.4378C246.063 47.2458 245.498 46.9578 245.007 46.5738C244.538 46.1898 244.165 45.7205 243.887 45.1658C243.61 44.5898 243.471 43.9285 243.471 43.1818C243.471 42.2005 243.685 41.3791 244.111 40.7178C244.559 40.0565 245.157 39.5231 245.903 39.1178C246.671 38.6911 247.557 38.3925 248.559 38.2218C249.583 38.0298 250.671 37.9338 251.823 37.9338H253.935V37.2938C253.935 36.9098 253.861 36.5258 253.711 36.1418C253.562 35.7578 253.338 35.4165 253.039 35.1178C252.741 34.7978 252.367 34.5525 251.919 34.3818C251.471 34.1898 250.938 34.0938 250.319 34.0938C249.765 34.0938 249.274 34.1471 248.847 34.2538C248.442 34.3605 248.069 34.4991 247.727 34.6698C247.386 34.8191 247.077 35.0005 246.799 35.2138C246.522 35.4271 246.255 35.6298 245.999 35.8218L244.271 34.0298ZM252.399 40.0458C251.717 40.0458 251.013 40.0885 250.287 40.1738C249.583 40.2378 248.933 40.3765 248.335 40.5898C247.759 40.8031 247.279 41.1018 246.895 41.4858C246.533 41.8698 246.351 42.3605 246.351 42.9578C246.351 43.8325 246.639 44.4618 247.215 44.8458C247.813 45.2298 248.613 45.4218 249.615 45.4218C250.405 45.4218 251.077 45.2938 251.631 45.0378C252.186 44.7605 252.634 44.4085 252.975 43.9818C253.317 43.5551 253.562 43.0858 253.711 42.5738C253.861 42.0405 253.935 41.5178 253.935 41.0058V40.0458H252.399ZM276.001 47.3418H273.121V45.1658H273.057C272.502 45.9765 271.734 46.6058 270.753 47.0538C269.793 47.5018 268.801 47.7258 267.777 47.7258C266.604 47.7258 265.537 47.5231 264.577 47.1178C263.638 46.7125 262.828 46.1471 262.145 45.4218C261.484 44.6965 260.972 43.8538 260.609 42.8938C260.246 41.9338 260.065 40.8885 260.065 39.7578C260.065 38.6271 260.246 37.5818 260.609 36.6218C260.972 35.6405 261.484 34.7978 262.145 34.0938C262.828 33.3685 263.638 32.8031 264.577 32.3978C265.537 31.9925 266.604 31.7898 267.777 31.7898C268.865 31.7898 269.889 32.0245 270.849 32.4938C271.809 32.9418 272.545 33.5605 273.057 34.3498H273.121V23.1498H276.001V47.3418ZM268.129 45.0378C268.897 45.0378 269.59 44.9098 270.209 44.6538C270.828 44.3765 271.35 44.0138 271.777 43.5658C272.204 43.0965 272.534 42.5418 272.769 41.9018C273.004 41.2405 273.121 40.5258 273.121 39.7578C273.121 38.9898 273.004 38.2858 272.769 37.6458C272.534 36.9845 272.204 36.4298 271.777 35.9818C271.35 35.5125 270.828 35.1498 270.209 34.8938C269.59 34.6165 268.897 34.4778 268.129 34.4778C267.361 34.4778 266.668 34.6165 266.049 34.8938C265.43 35.1498 264.908 35.5125 264.481 35.9818C264.054 36.4298 263.724 36.9845 263.489 37.6458C263.254 38.2858 263.137 38.9898 263.137 39.7578C263.137 40.5258 263.254 41.2405 263.489 41.9018C263.724 42.5418 264.054 43.0965 264.481 43.5658C264.908 44.0138 265.43 44.3765 266.049 44.6538C266.668 44.9098 267.361 45.0378 268.129 45.0378ZM282.7 39.7578C282.7 40.5258 282.817 41.2405 283.052 41.9018C283.286 42.5418 283.617 43.0965 284.044 43.5658C284.47 44.0138 284.993 44.3765 285.612 44.6538C286.23 44.9098 286.924 45.0378 287.692 45.0378C288.46 45.0378 289.153 44.9098 289.772 44.6538C290.39 44.3765 290.913 44.0138 291.34 43.5658C291.766 43.0965 292.097 42.5418 292.332 41.9018C292.566 41.2405 292.684 40.5258 292.684 39.7578C292.684 38.9898 292.566 38.2858 292.332 37.6458C292.097 36.9845 291.766 36.4298 291.34 35.9818C290.913 35.5125 290.39 35.1498 289.772 34.8938C289.153 34.6165 288.46 34.4778 287.692 34.4778C286.924 34.4778 286.23 34.6165 285.612 34.8938C284.993 35.1498 284.47 35.5125 284.044 35.9818C283.617 36.4298 283.286 36.9845 283.052 37.6458C282.817 38.2858 282.7 38.9898 282.7 39.7578ZM279.628 39.7578C279.628 38.6485 279.83 37.6138 280.236 36.6538C280.662 35.6938 281.238 34.8511 281.964 34.1258C282.689 33.4005 283.542 32.8351 284.524 32.4298C285.505 32.0031 286.561 31.7898 287.692 31.7898C288.822 31.7898 289.878 32.0031 290.86 32.4298C291.841 32.8351 292.694 33.4005 293.42 34.1258C294.145 34.8511 294.71 35.6938 295.116 36.6538C295.542 37.6138 295.756 38.6485 295.756 39.7578C295.756 40.8671 295.542 41.9125 295.116 42.8938C294.71 43.8538 294.145 44.6965 293.42 45.4218C292.694 46.1258 291.841 46.6911 290.86 47.1178C289.878 47.5231 288.822 47.7258 287.692 47.7258C286.561 47.7258 285.505 47.5231 284.524 47.1178C283.542 46.6911 282.689 46.1258 281.964 45.4218C281.238 44.6965 280.662 43.8538 280.236 42.8938C279.83 41.9125 279.628 40.8671 279.628 39.7578ZM297.54 32.1738H300.772L304.196 43.5018H304.26L307.876 32.1738H310.916L314.756 43.5018H314.819L318.084 32.1738H321.124L316.228 47.3418H313.316L309.316 36.0138H309.252L305.635 47.3418H302.532L297.54 32.1738Z" fill="black"/>
<path d="M125.58 65.1818H134.96V67.4618H128.1V70.9418H134.6V73.2218H128.1V77.0618H135.32V79.3418H125.58V65.1818ZM140.067 74.1818L136.747 69.7418H139.667L141.587 72.6218L143.667 69.7418H146.407L143.127 74.1818L146.987 79.3418H144.067L141.567 75.9018L139.047 79.3418H136.207L140.067 74.1818ZM147.209 71.7818V69.7418H149.189V66.9618H151.589V69.7418H154.229V71.7818H151.589V75.9818C151.589 76.4618 151.675 76.8418 151.849 77.1218C152.035 77.4018 152.395 77.5418 152.929 77.5418C153.142 77.5418 153.375 77.5218 153.629 77.4818C153.882 77.4285 154.082 77.3485 154.229 77.2418V79.2618C153.975 79.3818 153.662 79.4618 153.289 79.5018C152.929 79.5551 152.609 79.5818 152.329 79.5818C151.689 79.5818 151.162 79.5085 150.749 79.3618C150.349 79.2285 150.029 79.0218 149.789 78.7418C149.562 78.4485 149.402 78.0885 149.309 77.6618C149.229 77.2351 149.189 76.7418 149.189 76.1818V71.7818H147.209ZM156.102 69.7418H158.502V71.2618H158.542C158.809 70.7018 159.189 70.2685 159.682 69.9618C160.176 69.6551 160.742 69.5018 161.382 69.5018C161.529 69.5018 161.669 69.5151 161.802 69.5418C161.949 69.5685 162.096 69.6018 162.242 69.6418V71.9618C162.042 71.9085 161.842 71.8685 161.642 71.8418C161.456 71.8018 161.269 71.7818 161.082 71.7818C160.522 71.7818 160.069 71.8885 159.722 72.1018C159.389 72.3018 159.129 72.5351 158.942 72.8018C158.769 73.0685 158.649 73.3351 158.582 73.6018C158.529 73.8685 158.502 74.0685 158.502 74.2018V79.3418H156.102V69.7418ZM169.876 78.0218H169.816C169.469 78.5685 169.029 78.9685 168.496 79.2218C167.962 79.4618 167.376 79.5818 166.736 79.5818C166.296 79.5818 165.862 79.5218 165.436 79.4018C165.022 79.2818 164.649 79.1018 164.316 78.8618C163.996 78.6218 163.736 78.3218 163.536 77.9618C163.336 77.6018 163.236 77.1818 163.236 76.7018C163.236 76.1818 163.329 75.7418 163.516 75.3818C163.702 75.0085 163.949 74.7018 164.256 74.4618C164.576 74.2085 164.942 74.0085 165.356 73.8618C165.769 73.7151 166.196 73.6085 166.636 73.5418C167.089 73.4618 167.542 73.4151 167.996 73.4018C168.449 73.3751 168.876 73.3618 169.276 73.3618H169.876V73.1018C169.876 72.5018 169.669 72.0551 169.256 71.7618C168.842 71.4551 168.316 71.3018 167.676 71.3018C167.169 71.3018 166.696 71.3951 166.256 71.5818C165.816 71.7551 165.436 71.9951 165.116 72.3018L163.856 71.0418C164.389 70.4951 165.009 70.1018 165.716 69.8618C166.436 69.6218 167.176 69.5018 167.936 69.5018C168.616 69.5018 169.189 69.5818 169.656 69.7418C170.122 69.8885 170.509 70.0818 170.816 70.3218C171.122 70.5618 171.356 70.8418 171.516 71.1618C171.689 71.4685 171.809 71.7818 171.876 72.1018C171.956 72.4218 172.002 72.7351 172.016 73.0418C172.029 73.3351 172.036 73.5951 172.036 73.8218V79.3418H169.876V78.0218ZM169.736 75.0418H169.236C168.902 75.0418 168.529 75.0551 168.116 75.0818C167.702 75.1085 167.309 75.1751 166.936 75.2818C166.576 75.3751 166.269 75.5218 166.016 75.7218C165.762 75.9085 165.636 76.1751 165.636 76.5218C165.636 76.7485 165.682 76.9418 165.776 77.1018C165.882 77.2485 166.016 77.3751 166.176 77.4818C166.336 77.5885 166.516 77.6685 166.716 77.7218C166.916 77.7618 167.116 77.7818 167.316 77.7818C168.142 77.7818 168.749 77.5885 169.136 77.2018C169.536 76.8018 169.736 76.2618 169.736 75.5818V75.0418ZM180.756 65.1818H183.276V77.0618H189.296V79.3418H180.756V65.1818ZM196.907 78.0218H196.847C196.5 78.5685 196.06 78.9685 195.527 79.2218C194.994 79.4618 194.407 79.5818 193.767 79.5818C193.327 79.5818 192.894 79.5218 192.467 79.4018C192.054 79.2818 191.68 79.1018 191.347 78.8618C191.027 78.6218 190.767 78.3218 190.567 77.9618C190.367 77.6018 190.267 77.1818 190.267 76.7018C190.267 76.1818 190.36 75.7418 190.547 75.3818C190.734 75.0085 190.98 74.7018 191.287 74.4618C191.607 74.2085 191.974 74.0085 192.387 73.8618C192.8 73.7151 193.227 73.6085 193.667 73.5418C194.12 73.4618 194.574 73.4151 195.027 73.4018C195.48 73.3751 195.907 73.3618 196.307 73.3618H196.907V73.1018C196.907 72.5018 196.7 72.0551 196.287 71.7618C195.874 71.4551 195.347 71.3018 194.707 71.3018C194.2 71.3018 193.727 71.3951 193.287 71.5818C192.847 71.7551 192.467 71.9951 192.147 72.3018L190.887 71.0418C191.42 70.4951 192.04 70.1018 192.747 69.8618C193.467 69.6218 194.207 69.5018 194.967 69.5018C195.647 69.5018 196.22 69.5818 196.687 69.7418C197.154 69.8885 197.54 70.0818 197.847 70.3218C198.154 70.5618 198.387 70.8418 198.547 71.1618C198.72 71.4685 198.84 71.7818 198.907 72.1018C198.987 72.4218 199.034 72.7351 199.047 73.0418C199.06 73.3351 199.067 73.5951 199.067 73.8218V79.3418H196.907V78.0218ZM196.767 75.0418H196.267C195.934 75.0418 195.56 75.0551 195.147 75.0818C194.734 75.1085 194.34 75.1751 193.967 75.2818C193.607 75.3751 193.3 75.5218 193.047 75.7218C192.794 75.9085 192.667 76.1751 192.667 76.5218C192.667 76.7485 192.714 76.9418 192.807 77.1018C192.914 77.2485 193.047 77.3751 193.207 77.4818C193.367 77.5885 193.547 77.6685 193.747 77.7218C193.947 77.7618 194.147 77.7818 194.347 77.7818C195.174 77.7818 195.78 77.5885 196.167 77.2018C196.567 76.8018 196.767 76.2618 196.767 75.5818V75.0418ZM201.649 69.7418H204.049V71.2618H204.089C204.356 70.7018 204.736 70.2685 205.229 69.9618C205.722 69.6551 206.289 69.5018 206.929 69.5018C207.076 69.5018 207.216 69.5151 207.349 69.5418C207.496 69.5685 207.642 69.6018 207.789 69.6418V71.9618C207.589 71.9085 207.389 71.8685 207.189 71.8418C207.002 71.8018 206.816 71.7818 206.629 71.7818C206.069 71.7818 205.616 71.8885 205.269 72.1018C204.936 72.3018 204.676 72.5351 204.489 72.8018C204.316 73.0685 204.196 73.3351 204.129 73.6018C204.076 73.8685 204.049 74.0685 204.049 74.2018V79.3418H201.649V69.7418ZM218.951 69.7418V78.4818C218.951 79.3485 218.844 80.1285 218.631 80.8218C218.418 81.5285 218.084 82.1218 217.631 82.6018C217.191 83.0951 216.631 83.4751 215.951 83.7418C215.271 84.0085 214.464 84.1418 213.531 84.1418C212.638 84.1418 211.791 84.0285 210.991 83.8018C210.191 83.5751 209.451 83.1618 208.771 82.5618L210.211 80.6018C210.691 81.0418 211.191 81.3818 211.711 81.6218C212.231 81.8618 212.831 81.9818 213.511 81.9818C214.084 81.9818 214.564 81.9018 214.951 81.7418C215.351 81.5818 215.664 81.3618 215.891 81.0818C216.131 80.8018 216.298 80.4618 216.391 80.0618C216.498 79.6751 216.551 79.2418 216.551 78.7618V78.0618H216.511C216.164 78.5285 215.704 78.8818 215.131 79.1218C214.558 79.3485 213.971 79.4618 213.371 79.4618C212.651 79.4618 211.998 79.3351 211.411 79.0818C210.824 78.8151 210.318 78.4618 209.891 78.0218C209.478 77.5818 209.158 77.0618 208.931 76.4618C208.704 75.8618 208.591 75.2218 208.591 74.5418C208.591 73.8351 208.698 73.1751 208.911 72.5618C209.124 71.9485 209.438 71.4151 209.851 70.9618C210.264 70.5085 210.758 70.1551 211.331 69.9018C211.918 69.6351 212.584 69.5018 213.331 69.5018C214.011 69.5018 214.644 69.6351 215.231 69.9018C215.818 70.1685 216.284 70.5951 216.631 71.1818H216.671V69.7418H218.951ZM213.831 71.6618C213.404 71.6618 213.018 71.7351 212.671 71.8818C212.324 72.0151 212.024 72.2085 211.771 72.4618C211.531 72.7018 211.338 73.0018 211.191 73.3618C211.058 73.7085 210.991 74.0951 210.991 74.5218C210.991 74.9085 211.058 75.2685 211.191 75.6018C211.338 75.9351 211.538 76.2285 211.791 76.4818C212.044 76.7351 212.344 76.9351 212.691 77.0818C213.038 77.2285 213.411 77.3018 213.811 77.3018C214.251 77.3018 214.644 77.2285 214.991 77.0818C215.351 76.9351 215.651 76.7418 215.891 76.5018C216.144 76.2485 216.338 75.9485 216.471 75.6018C216.604 75.2551 216.671 74.8818 216.671 74.4818C216.671 73.6418 216.418 72.9618 215.911 72.4418C215.404 71.9218 214.711 71.6618 213.831 71.6618ZM230.429 79.3418H228.149V77.8018H228.109C227.882 78.2818 227.535 78.7018 227.069 79.0618C226.602 79.4085 225.969 79.5818 225.169 79.5818C224.529 79.5818 223.982 79.4818 223.529 79.2818C223.089 79.0685 222.729 78.7885 222.449 78.4418C222.169 78.0818 221.969 77.6751 221.849 77.2218C221.729 76.7685 221.669 76.2951 221.669 75.8018V69.7418H224.069V74.6018C224.069 74.8685 224.082 75.1685 224.109 75.5018C224.135 75.8218 224.202 76.1285 224.309 76.4218C224.429 76.7018 224.602 76.9418 224.829 77.1418C225.069 77.3285 225.402 77.4218 225.829 77.4218C226.229 77.4218 226.562 77.3551 226.829 77.2218C227.109 77.0885 227.335 76.9085 227.509 76.6818C227.695 76.4551 227.829 76.1951 227.909 75.9018C227.989 75.6085 228.029 75.3018 228.029 74.9818V69.7418H230.429V79.3418ZM235.073 75.3818C235.153 76.1018 235.433 76.6618 235.913 77.0618C236.393 77.4618 236.973 77.6618 237.653 77.6618C238.253 77.6618 238.753 77.5418 239.153 77.3018C239.566 77.0485 239.926 76.7351 240.233 76.3618L241.953 77.6618C241.393 78.3551 240.766 78.8485 240.073 79.1418C239.38 79.4351 238.653 79.5818 237.893 79.5818C237.173 79.5818 236.493 79.4618 235.853 79.2218C235.213 78.9818 234.66 78.6418 234.193 78.2018C233.726 77.7618 233.353 77.2351 233.073 76.6218C232.806 75.9951 232.673 75.3018 232.673 74.5418C232.673 73.7818 232.806 73.0951 233.073 72.4818C233.353 71.8551 233.726 71.3218 234.193 70.8818C234.66 70.4418 235.213 70.1018 235.853 69.8618C236.493 69.6218 237.173 69.5018 237.893 69.5018C238.56 69.5018 239.166 69.6218 239.713 69.8618C240.273 70.0885 240.746 70.4218 241.133 70.8618C241.533 71.3018 241.84 71.8485 242.053 72.5018C242.28 73.1418 242.393 73.8818 242.393 74.7218V75.3818H235.073ZM239.993 73.5818C239.98 72.8751 239.76 72.3218 239.333 71.9218C238.906 71.5085 238.313 71.3018 237.553 71.3018C236.833 71.3018 236.26 71.5085 235.833 71.9218C235.42 72.3351 235.166 72.8885 235.073 73.5818H239.993Z" fill="black"/>
<defs>
<filter id="filter0_ddi_1258_9682" x="0" y="0.841797" width="108" height="108" filterUnits="userSpaceOnUse" color-interpolation-filters="sRGB">
<feFlood flood-opacity="0" result="BackgroundImageFix"/>
<feColorMatrix in="SourceAlpha" type="matrix" values="0 0 0 0 0 0 0 0 0 0 0 0 0 0 0 0 0 0 127 0" result="hardAlpha"/>
<feMorphology radius="2" operator="erode" in="SourceAlpha" result="effect1_dropShadow_1258_9682"/>
<feOffset dy="4"/>
<feGaussianBlur stdDeviation="2"/>
<feColorMatrix type="matrix" values="0 0 0 0 0.0941176 0 0 0 0 0.152941 0 0 0 0 0.294118 0 0 0 0.08 0"/>
<feBlend mode="normal" in2="BackgroundImageFix" result="effect1_dropShadow_1258_9682"/>
<feColorMatrix in="SourceAlpha" type="matrix" values="0 0 0 0 0 0 0 0 0 0 0 0 0 0 0 0 0 0 127 0" result="hardAlpha"/>
<feOffset dy="4"/>
<feGaussianBlur stdDeviation="2"/>
<feComposite in2="hardAlpha" operator="out"/>
<feColorMatrix type="matrix" values="0 0 0 0 0 0 0 0 0 0 0 0 0 0 0 0 0 0 0.1 0"/>
<feBlend mode="normal" in2="effect1_dropShadow_1258_9682" result="effect2_dropShadow_1258_9682"/>
<feBlend mode="normal" in="SourceGraphic" in2="effect2_dropShadow_1258_9682" result="shape"/>
<feColorMatrix in="SourceAlpha" type="matrix" values="0 0 0 0 0 0 0 0 0 0 0 0 0 0 0 0 0 0 127 0" result="hardAlpha"/>
<feMorphology radius="2" operator="dilate" in="SourceAlpha" result="effect3_innerShadow_1258_9682"/>
<feOffset dy="1"/>
<feComposite in2="hardAlpha" operator="arithmetic" k2="-1" k3="1"/>
<feColorMatrix type="matrix" values="0 0 0 0 0.0941176 0 0 0 0 0.152941 0 0 0 0 0.294118 0 0 0 0.04 0"/>
<feBlend mode="normal" in2="shape" result="effect3_innerShadow_1258_9682"/>
</filter>
</defs>
</svg>
