<svg width="320" height="105" viewBox="0 0 320 105" fill="none" xmlns="http://www.w3.org/2000/svg">
<g filter="url(#filter0_d_1258_9673)">
<circle cx="52" cy="51.8418" r="50" fill="#FFFEFD"/>
</g>
<path d="M124.4 25.6858H132.304C133.904 25.6858 135.301 25.8671 136.496 26.2298C137.712 26.5925 138.757 27.0831 139.632 27.7018C140.528 28.2991 141.264 28.9925 141.84 29.7818C142.437 30.5711 142.907 31.3818 143.248 32.2138C143.589 33.0458 143.835 33.8778 143.984 34.7098C144.133 35.5418 144.208 36.3098 144.208 37.0138C144.208 38.4645 143.941 39.8725 143.408 41.2378C142.875 42.5818 142.085 43.7871 141.04 44.8538C139.995 45.8991 138.693 46.7418 137.136 47.3818C135.6 48.0218 133.819 48.3418 131.792 48.3418H124.4V25.6858ZM127.472 45.4618H131.344C132.645 45.4618 133.872 45.2911 135.024 44.9498C136.197 44.5871 137.221 44.0538 138.096 43.3498C138.971 42.6458 139.664 41.7711 140.176 40.7258C140.688 39.6591 140.944 38.4218 140.944 37.0138C140.944 36.2885 140.827 35.4458 140.592 34.4858C140.357 33.5045 139.909 32.5765 139.248 31.7018C138.608 30.8271 137.712 30.0911 136.56 29.4938C135.408 28.8751 133.915 28.5658 132.08 28.5658H127.472V45.4618ZM147.895 33.1738H150.775V35.5098H150.839C151.031 35.1045 151.287 34.7418 151.607 34.4218C151.927 34.0805 152.279 33.7925 152.663 33.5578C153.068 33.3231 153.505 33.1418 153.975 33.0138C154.444 32.8645 154.913 32.7898 155.383 32.7898C155.852 32.7898 156.279 32.8538 156.663 32.9818L156.535 36.0858C156.3 36.0218 156.065 35.9685 155.831 35.9258C155.596 35.8831 155.361 35.8618 155.127 35.8618C153.719 35.8618 152.641 36.2565 151.895 37.0458C151.148 37.8351 150.775 39.0618 150.775 40.7258V48.3418H147.895V33.1738ZM161.512 40.7578C161.512 41.5258 161.629 42.2405 161.864 42.9018C162.099 43.5418 162.429 44.0965 162.856 44.5658C163.283 45.0138 163.805 45.3765 164.424 45.6538C165.043 45.9098 165.736 46.0378 166.504 46.0378C167.272 46.0378 167.965 45.9098 168.584 45.6538C169.203 45.3765 169.725 45.0138 170.152 44.5658C170.579 44.0965 170.909 43.5418 171.144 42.9018C171.379 42.2405 171.496 41.5258 171.496 40.7578C171.496 39.9898 171.379 39.2858 171.144 38.6458C170.909 37.9845 170.579 37.4298 170.152 36.9818C169.725 36.5125 169.203 36.1498 168.584 35.8938C167.965 35.6165 167.272 35.4778 166.504 35.4778C165.736 35.4778 165.043 35.6165 164.424 35.8938C163.805 36.1498 163.283 36.5125 162.856 36.9818C162.429 37.4298 162.099 37.9845 161.864 38.6458C161.629 39.2858 161.512 39.9898 161.512 40.7578ZM158.44 40.7578C158.44 39.6485 158.643 38.6138 159.048 37.6538C159.475 36.6938 160.051 35.8511 160.776 35.1258C161.501 34.4005 162.355 33.8351 163.336 33.4298C164.317 33.0031 165.373 32.7898 166.504 32.7898C167.635 32.7898 168.691 33.0031 169.672 33.4298C170.653 33.8351 171.507 34.4005 172.232 35.1258C172.957 35.8511 173.523 36.6938 173.928 37.6538C174.355 38.6138 174.568 39.6485 174.568 40.7578C174.568 41.8671 174.355 42.9125 173.928 43.8938C173.523 44.8538 172.957 45.6965 172.232 46.4218C171.507 47.1258 170.653 47.6911 169.672 48.1178C168.691 48.5231 167.635 48.7258 166.504 48.7258C165.373 48.7258 164.317 48.5231 163.336 48.1178C162.355 47.6911 161.501 47.1258 160.776 46.4218C160.051 45.6965 159.475 44.8538 159.048 43.8938C158.643 42.9125 158.44 41.8671 158.44 40.7578ZM178.176 33.1738H181.056V35.3498H181.12C181.675 34.5391 182.432 33.9098 183.392 33.4618C184.373 33.0138 185.376 32.7898 186.4 32.7898C187.573 32.7898 188.629 32.9925 189.568 33.3978C190.528 33.8031 191.339 34.3685 192 35.0938C192.683 35.8191 193.205 36.6725 193.568 37.6538C193.931 38.6138 194.112 39.6485 194.112 40.7578C194.112 41.8885 193.931 42.9445 193.568 43.9258C193.205 44.8858 192.683 45.7285 192 46.4538C191.339 47.1578 190.528 47.7125 189.568 48.1178C188.629 48.5231 187.573 48.7258 186.4 48.7258C185.312 48.7258 184.288 48.5018 183.328 48.0538C182.368 47.5845 181.632 46.9551 181.12 46.1658H181.056V57.3658H178.176V33.1738ZM186.048 35.4778C185.28 35.4778 184.587 35.6165 183.968 35.8938C183.349 36.1498 182.827 36.5125 182.4 36.9818C181.973 37.4298 181.643 37.9845 181.408 38.6458C181.173 39.2858 181.056 39.9898 181.056 40.7578C181.056 41.5258 181.173 42.2405 181.408 42.9018C181.643 43.5418 181.973 44.0965 182.4 44.5658C182.827 45.0138 183.349 45.3765 183.968 45.6538C184.587 45.9098 185.28 46.0378 186.048 46.0378C186.816 46.0378 187.509 45.9098 188.128 45.6538C188.747 45.3765 189.269 45.0138 189.696 44.5658C190.123 44.0965 190.453 43.5418 190.688 42.9018C190.923 42.2405 191.04 41.5258 191.04 40.7578C191.04 39.9898 190.923 39.2858 190.688 38.6458C190.453 37.9845 190.123 37.4298 189.696 36.9818C189.269 36.5125 188.747 36.1498 188.128 35.8938C187.509 35.6165 186.816 35.4778 186.048 35.4778ZM208.053 43.6058C208.607 44.4378 209.311 45.0565 210.165 45.4618C211.039 45.8458 211.935 46.0378 212.853 46.0378C213.365 46.0378 213.887 45.9631 214.421 45.8138C214.954 45.6431 215.434 45.3978 215.861 45.0778C216.309 44.7578 216.671 44.3631 216.949 43.8938C217.226 43.4245 217.365 42.8805 217.365 42.2618C217.365 41.3871 217.087 40.7258 216.533 40.2778C215.978 39.8085 215.285 39.4245 214.453 39.1258C213.642 38.8058 212.746 38.5071 211.765 38.2298C210.805 37.9311 209.909 37.5258 209.077 37.0138C208.266 36.5018 207.583 35.8191 207.029 34.9658C206.474 34.0911 206.197 32.9178 206.197 31.4458C206.197 30.7845 206.335 30.0805 206.613 29.3338C206.911 28.5871 207.37 27.9045 207.989 27.2858C208.607 26.6671 209.397 26.1551 210.357 25.7498C211.338 25.3231 212.511 25.1098 213.877 25.1098C215.114 25.1098 216.298 25.2805 217.429 25.6218C218.559 25.9631 219.551 26.6565 220.405 27.7018L217.909 29.9738C217.525 29.3765 216.981 28.8965 216.277 28.5338C215.573 28.1711 214.773 27.9898 213.877 27.9898C213.023 27.9898 212.309 28.1071 211.733 28.3418C211.178 28.5551 210.73 28.8431 210.389 29.2058C210.047 29.5471 209.802 29.9205 209.653 30.3258C209.525 30.7311 209.461 31.1045 209.461 31.4458C209.461 32.4058 209.738 33.1418 210.293 33.6538C210.847 34.1658 211.53 34.5818 212.341 34.9018C213.173 35.2218 214.069 35.5098 215.029 35.7658C216.01 36.0218 216.906 36.3845 217.717 36.8538C218.549 37.3018 219.242 37.9205 219.797 38.7098C220.351 39.4778 220.629 40.5445 220.629 41.9098C220.629 42.9978 220.415 43.9791 219.989 44.8538C219.583 45.7285 219.029 46.4645 218.325 47.0618C217.621 47.6591 216.789 48.1178 215.829 48.4378C214.869 48.7578 213.845 48.9178 212.757 48.9178C211.306 48.9178 209.93 48.6618 208.629 48.1498C207.327 47.6378 206.293 46.8485 205.525 45.7818L208.053 43.6058ZM224.426 24.1498H227.306V35.5098H227.37C227.733 34.6991 228.362 34.0485 229.258 33.5578C230.154 33.0458 231.189 32.7898 232.362 32.7898C233.087 32.7898 233.781 32.9071 234.442 33.1418C235.125 33.3551 235.711 33.6965 236.202 34.1658C236.714 34.6351 237.119 35.2431 237.418 35.9898C237.717 36.7151 237.866 37.5791 237.866 38.5818V48.3418H234.986V39.3818C234.986 38.6778 234.89 38.0805 234.698 37.5898C234.506 37.0778 234.25 36.6725 233.93 36.3738C233.61 36.0538 233.237 35.8298 232.81 35.7018C232.405 35.5525 231.978 35.4778 231.53 35.4778C230.933 35.4778 230.378 35.5738 229.866 35.7658C229.354 35.9578 228.906 36.2671 228.522 36.6938C228.138 37.0991 227.839 37.6218 227.626 38.2618C227.413 38.9018 227.306 39.6591 227.306 40.5338V48.3418H224.426V24.1498ZM242.271 35.0298C243.082 34.2831 244.021 33.7285 245.087 33.3658C246.154 32.9818 247.221 32.7898 248.287 32.7898C249.397 32.7898 250.346 32.9285 251.135 33.2058C251.946 33.4831 252.607 33.8565 253.119 34.3258C253.631 34.7951 254.005 35.3391 254.239 35.9578C254.495 36.5551 254.623 37.1845 254.623 37.8458V45.5898C254.623 46.1231 254.634 46.6138 254.655 47.0618C254.677 47.5098 254.709 47.9365 254.751 48.3418H252.191C252.127 47.5738 252.095 46.8058 252.095 46.0378H252.031C251.391 47.0191 250.634 47.7125 249.759 48.1178C248.885 48.5231 247.871 48.7258 246.719 48.7258C246.015 48.7258 245.343 48.6298 244.703 48.4378C244.063 48.2458 243.498 47.9578 243.007 47.5738C242.538 47.1898 242.165 46.7205 241.887 46.1658C241.61 45.5898 241.471 44.9285 241.471 44.1818C241.471 43.2005 241.685 42.3791 242.111 41.7178C242.559 41.0565 243.157 40.5231 243.903 40.1178C244.671 39.6911 245.557 39.3925 246.559 39.2218C247.583 39.0298 248.671 38.9338 249.823 38.9338H251.935V38.2938C251.935 37.9098 251.861 37.5258 251.711 37.1418C251.562 36.7578 251.338 36.4165 251.039 36.1178C250.741 35.7978 250.367 35.5525 249.919 35.3818C249.471 35.1898 248.938 35.0938 248.319 35.0938C247.765 35.0938 247.274 35.1471 246.847 35.2538C246.442 35.3605 246.069 35.4991 245.727 35.6698C245.386 35.8191 245.077 36.0005 244.799 36.2138C244.522 36.4271 244.255 36.6298 243.999 36.8218L242.271 35.0298ZM250.399 41.0458C249.717 41.0458 249.013 41.0885 248.287 41.1738C247.583 41.2378 246.933 41.3765 246.335 41.5898C245.759 41.8031 245.279 42.1018 244.895 42.4858C244.533 42.8698 244.351 43.3605 244.351 43.9578C244.351 44.8325 244.639 45.4618 245.215 45.8458C245.813 46.2298 246.613 46.4218 247.615 46.4218C248.405 46.4218 249.077 46.2938 249.631 46.0378C250.186 45.7605 250.634 45.4085 250.975 44.9818C251.317 44.5551 251.562 44.0858 251.711 43.5738C251.861 43.0405 251.935 42.5178 251.935 42.0058V41.0458H250.399ZM274.001 48.3418H271.121V46.1658H271.057C270.502 46.9765 269.734 47.6058 268.753 48.0538C267.793 48.5018 266.801 48.7258 265.777 48.7258C264.604 48.7258 263.537 48.5231 262.577 48.1178C261.638 47.7125 260.828 47.1471 260.145 46.4218C259.484 45.6965 258.972 44.8538 258.609 43.8938C258.246 42.9338 258.065 41.8885 258.065 40.7578C258.065 39.6271 258.246 38.5818 258.609 37.6218C258.972 36.6405 259.484 35.7978 260.145 35.0938C260.828 34.3685 261.638 33.8031 262.577 33.3978C263.537 32.9925 264.604 32.7898 265.777 32.7898C266.865 32.7898 267.889 33.0245 268.849 33.4938C269.809 33.9418 270.545 34.5605 271.057 35.3498H271.121V24.1498H274.001V48.3418ZM266.129 46.0378C266.897 46.0378 267.59 45.9098 268.209 45.6538C268.828 45.3765 269.35 45.0138 269.777 44.5658C270.204 44.0965 270.534 43.5418 270.769 42.9018C271.004 42.2405 271.121 41.5258 271.121 40.7578C271.121 39.9898 271.004 39.2858 270.769 38.6458C270.534 37.9845 270.204 37.4298 269.777 36.9818C269.35 36.5125 268.828 36.1498 268.209 35.8938C267.59 35.6165 266.897 35.4778 266.129 35.4778C265.361 35.4778 264.668 35.6165 264.049 35.8938C263.43 36.1498 262.908 36.5125 262.481 36.9818C262.054 37.4298 261.724 37.9845 261.489 38.6458C261.254 39.2858 261.137 39.9898 261.137 40.7578C261.137 41.5258 261.254 42.2405 261.489 42.9018C261.724 43.5418 262.054 44.0965 262.481 44.5658C262.908 45.0138 263.43 45.3765 264.049 45.6538C264.668 45.9098 265.361 46.0378 266.129 46.0378ZM280.7 40.7578C280.7 41.5258 280.817 42.2405 281.052 42.9018C281.286 43.5418 281.617 44.0965 282.044 44.5658C282.47 45.0138 282.993 45.3765 283.612 45.6538C284.23 45.9098 284.924 46.0378 285.692 46.0378C286.46 46.0378 287.153 45.9098 287.772 45.6538C288.39 45.3765 288.913 45.0138 289.34 44.5658C289.766 44.0965 290.097 43.5418 290.332 42.9018C290.566 42.2405 290.684 41.5258 290.684 40.7578C290.684 39.9898 290.566 39.2858 290.332 38.6458C290.097 37.9845 289.766 37.4298 289.34 36.9818C288.913 36.5125 288.39 36.1498 287.772 35.8938C287.153 35.6165 286.46 35.4778 285.692 35.4778C284.924 35.4778 284.23 35.6165 283.612 35.8938C282.993 36.1498 282.47 36.5125 282.044 36.9818C281.617 37.4298 281.286 37.9845 281.052 38.6458C280.817 39.2858 280.7 39.9898 280.7 40.7578ZM277.628 40.7578C277.628 39.6485 277.83 38.6138 278.236 37.6538C278.662 36.6938 279.238 35.8511 279.964 35.1258C280.689 34.4005 281.542 33.8351 282.524 33.4298C283.505 33.0031 284.561 32.7898 285.692 32.7898C286.822 32.7898 287.878 33.0031 288.86 33.4298C289.841 33.8351 290.694 34.4005 291.42 35.1258C292.145 35.8511 292.71 36.6938 293.116 37.6538C293.542 38.6138 293.756 39.6485 293.756 40.7578C293.756 41.8671 293.542 42.9125 293.116 43.8938C292.71 44.8538 292.145 45.6965 291.42 46.4218C290.694 47.1258 289.841 47.6911 288.86 48.1178C287.878 48.5231 286.822 48.7258 285.692 48.7258C284.561 48.7258 283.505 48.5231 282.524 48.1178C281.542 47.6911 280.689 47.1258 279.964 46.4218C279.238 45.6965 278.662 44.8538 278.236 43.8938C277.83 42.9125 277.628 41.8671 277.628 40.7578ZM295.54 33.1738H298.772L302.196 44.5018H302.26L305.876 33.1738H308.916L312.756 44.5018H312.819L316.084 33.1738H319.124L314.228 48.3418H311.316L307.316 37.0138H307.252L303.635 48.3418H300.532L295.54 33.1738Z" fill="black"/>
<path d="M130.52 69.2218C130.253 68.8351 129.893 68.5551 129.44 68.3818C129 68.1951 128.533 68.1018 128.04 68.1018C127.747 68.1018 127.46 68.1351 127.18 68.2018C126.913 68.2685 126.667 68.3751 126.44 68.5218C126.227 68.6685 126.053 68.8618 125.92 69.1018C125.787 69.3285 125.72 69.6018 125.72 69.9218C125.72 70.4018 125.887 70.7685 126.22 71.0218C126.553 71.2751 126.967 71.4951 127.46 71.6818C127.953 71.8685 128.493 72.0485 129.08 72.2218C129.667 72.3951 130.207 72.6351 130.7 72.9418C131.193 73.2485 131.607 73.6551 131.94 74.1618C132.273 74.6685 132.44 75.3418 132.44 76.1818C132.44 76.9418 132.3 77.6085 132.02 78.1818C131.74 78.7418 131.36 79.2085 130.88 79.5818C130.413 79.9551 129.867 80.2351 129.24 80.4218C128.613 80.6085 127.953 80.7018 127.26 80.7018C126.38 80.7018 125.533 80.5551 124.72 80.2618C123.907 79.9685 123.207 79.4751 122.62 78.7818L124.52 76.9418C124.827 77.4085 125.227 77.7751 125.72 78.0418C126.227 78.2951 126.76 78.4218 127.32 78.4218C127.613 78.4218 127.907 78.3818 128.2 78.3018C128.493 78.2218 128.76 78.1018 129 77.9418C129.24 77.7818 129.433 77.5818 129.58 77.3418C129.727 77.0885 129.8 76.8018 129.8 76.4818C129.8 75.9618 129.633 75.5618 129.3 75.2818C128.967 75.0018 128.553 74.7685 128.06 74.5818C127.567 74.3818 127.027 74.1951 126.44 74.0218C125.853 73.8485 125.313 73.6151 124.82 73.3218C124.327 73.0151 123.913 72.6151 123.58 72.1218C123.247 71.6151 123.08 70.9418 123.08 70.1018C123.08 69.3685 123.227 68.7351 123.52 68.2018C123.827 67.6685 124.22 67.2285 124.7 66.8818C125.193 66.5218 125.753 66.2551 126.38 66.0818C127.007 65.9085 127.647 65.8218 128.3 65.8218C129.047 65.8218 129.767 65.9351 130.46 66.1618C131.167 66.3885 131.8 66.7618 132.36 67.2818L130.52 69.2218ZM134.744 70.7418H137.024V72.2418H137.064C137.278 71.7885 137.618 71.3885 138.084 71.0418C138.564 70.6818 139.204 70.5018 140.004 70.5018C141.511 70.5018 142.511 71.0951 143.004 72.2818C143.351 71.6685 143.784 71.2218 144.304 70.9418C144.824 70.6485 145.444 70.5018 146.164 70.5018C146.804 70.5018 147.344 70.6085 147.784 70.8218C148.224 71.0351 148.578 71.3285 148.844 71.7018C149.124 72.0751 149.324 72.5151 149.444 73.0218C149.564 73.5151 149.624 74.0485 149.624 74.6218V80.3418H147.224V74.9018C147.224 74.6085 147.198 74.3285 147.144 74.0618C147.091 73.7818 146.998 73.5418 146.864 73.3418C146.731 73.1285 146.551 72.9618 146.324 72.8418C146.098 72.7218 145.804 72.6618 145.444 72.6618C145.071 72.6618 144.751 72.7351 144.484 72.8818C144.231 73.0151 144.018 73.2018 143.844 73.4418C143.684 73.6685 143.564 73.9351 143.484 74.2418C143.418 74.5351 143.384 74.8351 143.384 75.1418V80.3418H140.984V74.6218C140.984 74.0218 140.858 73.5485 140.604 73.2018C140.351 72.8418 139.931 72.6618 139.344 72.6618C138.944 72.6618 138.604 72.7285 138.324 72.8618C138.058 72.9951 137.831 73.1751 137.644 73.4018C137.471 73.6285 137.344 73.8885 137.264 74.1818C137.184 74.4751 137.144 74.7818 137.144 75.1018V80.3418H134.744V70.7418ZM158.247 79.0218H158.187C157.84 79.5685 157.4 79.9685 156.867 80.2218C156.333 80.4618 155.747 80.5818 155.107 80.5818C154.667 80.5818 154.233 80.5218 153.807 80.4018C153.393 80.2818 153.02 80.1018 152.687 79.8618C152.367 79.6218 152.107 79.3218 151.907 78.9618C151.707 78.6018 151.607 78.1818 151.607 77.7018C151.607 77.1818 151.7 76.7418 151.887 76.3818C152.073 76.0085 152.32 75.7018 152.627 75.4618C152.947 75.2085 153.313 75.0085 153.727 74.8618C154.14 74.7151 154.567 74.6085 155.007 74.5418C155.46 74.4618 155.913 74.4151 156.367 74.4018C156.82 74.3751 157.247 74.3618 157.647 74.3618H158.247V74.1018C158.247 73.5018 158.04 73.0551 157.627 72.7618C157.213 72.4551 156.687 72.3018 156.047 72.3018C155.54 72.3018 155.067 72.3951 154.627 72.5818C154.187 72.7551 153.807 72.9951 153.487 73.3018L152.227 72.0418C152.76 71.4951 153.38 71.1018 154.087 70.8618C154.807 70.6218 155.547 70.5018 156.307 70.5018C156.987 70.5018 157.56 70.5818 158.027 70.7418C158.493 70.8885 158.88 71.0818 159.187 71.3218C159.493 71.5618 159.727 71.8418 159.887 72.1618C160.06 72.4685 160.18 72.7818 160.247 73.1018C160.327 73.4218 160.373 73.7351 160.387 74.0418C160.4 74.3351 160.407 74.5951 160.407 74.8218V80.3418H158.247V79.0218ZM158.107 76.0418H157.607C157.273 76.0418 156.9 76.0551 156.487 76.0818C156.073 76.1085 155.68 76.1751 155.307 76.2818C154.947 76.3751 154.64 76.5218 154.387 76.7218C154.133 76.9085 154.007 77.1751 154.007 77.5218C154.007 77.7485 154.053 77.9418 154.147 78.1018C154.253 78.2485 154.387 78.3751 154.547 78.4818C154.707 78.5885 154.887 78.6685 155.087 78.7218C155.287 78.7618 155.487 78.7818 155.687 78.7818C156.513 78.7818 157.12 78.5885 157.507 78.2018C157.907 77.8018 158.107 77.2618 158.107 76.5818V76.0418ZM163.029 65.2218H165.429V80.3418H163.029V65.2218ZM168.244 65.2218H170.644V80.3418H168.244V65.2218Z" fill="black"/>
<defs>
<filter id="filter0_d_1258_9673" x="0" y="0.841797" width="104" height="104" filterUnits="userSpaceOnUse" color-interpolation-filters="sRGB">
<feFlood flood-opacity="0" result="BackgroundImageFix"/>
<feColorMatrix in="SourceAlpha" type="matrix" values="0 0 0 0 0 0 0 0 0 0 0 0 0 0 0 0 0 0 127 0" result="hardAlpha"/>
<feMorphology radius="2" operator="erode" in="SourceAlpha" result="effect1_dropShadow_1258_9673"/>
<feOffset dy="1"/>
<feGaussianBlur stdDeviation="2"/>
<feColorMatrix type="matrix" values="0 0 0 0 0.0941176 0 0 0 0 0.152941 0 0 0 0 0.294118 0 0 0 0.12 0"/>
<feBlend mode="darken" in2="BackgroundImageFix" result="effect1_dropShadow_1258_9673"/>
<feBlend mode="normal" in="SourceGraphic" in2="effect1_dropShadow_1258_9673" result="shape"/>
</filter>
</defs>
</svg>
