<svg width="519" height="178" viewBox="0 0 519 178" fill="none" xmlns="http://www.w3.org/2000/svg">
<path d="M42.57 54.39V61.95C42.57 64.53 40.8 65.91 37.26 66.09C33.78 66.27 29.97 66.36 25.83 66.36C21.75 66.36 17.07 66.21 11.79 65.91C10.05 65.79 8.64 65.19 7.56 64.11C6.54 63.03 5.94 61.8 5.76 60.42C5.28 55.14 5.04 46.86 5.04 35.58C5.04 24.24 5.22 15.99 5.58 10.83C5.94 5.67 8.55 3.05999 13.41 3C18.99 2.88 24.96 2.82 31.32 2.82C37.68 2.82 44.55 2.91 51.93 3.08999C59.37 3.27 65.43 6.06 70.11 11.46C74.79 16.86 77.13 22.8 77.13 29.28C77.13 35.76 75.06 41.1 70.92 45.3C66.78 49.5 60.72 51.6 52.74 51.6H45.72C44.94 51.6 44.22 51.87 43.56 52.41C42.9 52.95 42.57 53.61 42.57 54.39ZM42.48 21.81L42.66 38.46C42.66 39.6 43.29 40.17 44.55 40.17C48.27 40.17 51.18 39.15 53.28 37.11C55.44 35.01 56.52 32.55 56.52 29.73C56.52 26.91 55.5 24.48 53.46 22.44C51.48 20.4 48.54 19.38 44.64 19.38C43.2 19.38 42.48 20.19 42.48 21.81ZM91.5799 20.19H109.13C111.17 20.19 112.58 20.64 113.36 21.54C114.14 22.38 114.53 23.67 114.53 25.41V28.65C117.89 22.29 123.35 19.11 130.91 19.11C133.43 19.11 135.5 19.92 137.12 21.54C138.74 23.16 139.55 25.32 139.55 28.02C139.55 30.72 138.83 33.42 137.39 36.12C135.95 38.76 133.94 40.08 131.36 40.08C130.16 40.08 128.48 39.48 126.32 38.28C124.16 37.02 122.42 36.39 121.1 36.39C119.78 36.39 118.4 36.87 116.96 37.83C115.58 38.79 114.89 40.38 114.89 42.6C114.89 52.26 114.71 58.65 114.35 61.77C114.17 62.79 113.66 63.69 112.82 64.47C111.98 65.25 110.48 65.73 108.32 65.91C106.22 66.03 104.12 66.09 102.02 66.09C99.9199 66.09 96.3499 65.97 91.3099 65.73C89.8699 65.67 88.7299 65.25 87.8899 64.47C87.0499 63.69 86.5699 62.79 86.4499 61.77C86.0299 57.87 85.8199 51.9 85.8199 43.86C85.8199 35.82 85.9399 30.33 86.1799 27.39C86.4199 24.39 86.8699 22.44 87.5299 21.54C88.1899 20.64 89.5399 20.19 91.5799 20.19ZM171.43 43.5C171.43 50.22 173.2 53.58 176.74 53.58C180.28 53.58 182.05 50.22 182.05 43.5C182.05 40.44 181.69 38.1 180.97 36.48C180.25 34.8 178.84 33.96 176.74 33.96C174.64 33.96 173.23 34.8 172.51 36.48C171.79 38.1 171.43 40.44 171.43 43.5ZM210.31 43.5C210.31 59.82 199.12 67.98 176.74 67.98C154.36 67.98 143.17 59.82 143.17 43.5C143.17 35.76 146.02 29.76 151.72 25.5C157.42 21.24 165.76 19.11 176.74 19.11C187.72 19.11 196.06 21.24 201.76 25.5C207.46 29.76 210.31 35.76 210.31 43.5ZM253.346 52.32C256.886 52.32 258.656 49.41 258.656 43.59C258.656 37.71 256.886 34.77 253.346 34.77C251.966 34.77 250.706 35.25 249.566 36.21C248.486 37.11 247.946 38.4 247.946 40.08V47.01C247.946 48.69 248.486 50.01 249.566 50.97C250.706 51.87 251.966 52.32 253.346 52.32ZM219.506 61.77L219.326 32.34C219.326 23.34 219.416 14.58 219.596 6.06C219.656 4.08 220.016 2.61 220.676 1.65C221.396 0.689999 222.746 0.209999 224.726 0.209999H242.006C243.986 0.209999 245.306 0.689999 245.966 1.65C246.686 2.55 247.136 4.56 247.316 7.68C247.556 10.8 247.676 16.32 247.676 24.24C247.676 24.6 247.766 24.9 247.946 25.14C248.126 25.32 248.396 25.26 248.756 24.96C252.956 21 258.026 19.02 263.966 19.02C269.966 19.02 274.826 20.94 278.546 24.78C282.326 28.56 284.216 34.74 284.216 43.32C284.216 51.84 282.326 57.96 278.546 61.68C274.766 65.34 269.816 67.17 263.696 67.17C254.696 67.17 248.996 65.1 246.596 60.96C246.536 62.52 245.966 63.72 244.886 64.56C243.806 65.4 242.606 65.88 241.286 66C239.966 66.12 237.566 66.18 234.086 66.18L224.546 66C223.406 66 222.266 65.61 221.126 64.83C220.046 63.99 219.506 62.97 219.506 61.77ZM298.213 0.209999H315.493C317.473 0.209999 318.793 0.689999 319.453 1.65C320.113 2.55 320.533 4.02 320.713 6.06C321.073 13.26 321.253 23.22 321.253 35.94C321.253 48.6 321.013 57.33 320.533 62.13C320.413 63.09 319.933 63.96 319.093 64.74C318.253 65.52 316.753 65.97 314.593 66.09C312.493 66.27 310.003 66.36 307.123 66.36C304.243 66.36 301.663 66.3 299.383 66.18C295.483 65.88 293.443 64.53 293.263 62.13C292.663 56.91 292.363 47.67 292.363 34.41C292.363 21.09 292.603 11.64 293.083 6.06C293.263 4.02 293.653 2.55 294.253 1.65C294.913 0.689999 296.233 0.209999 298.213 0.209999ZM344.509 22.98C347.269 21.6 350.089 20.61 352.969 20.01C355.909 19.41 359.509 19.11 363.769 19.11C368.089 19.11 372.199 19.65 376.099 20.73C379.999 21.75 382.909 23.16 384.829 24.96C388.189 28.26 389.869 32.13 389.869 36.57C389.869 43.53 383.989 47.01 372.229 47.01C368.089 47.01 363.799 46.62 359.359 45.84C359.539 49.8 360.259 52.59 361.519 54.21C362.839 55.83 365.149 56.64 368.449 56.64C371.749 56.64 374.479 56.28 376.639 55.56C378.799 54.84 380.539 54.12 381.859 53.4C383.179 52.62 384.289 52.23 385.189 52.23C386.149 52.23 386.959 52.65 387.619 53.49C388.639 54.57 389.149 56.07 389.149 57.99C389.149 59.85 388.759 61.14 387.979 61.86C387.259 62.52 386.089 63.18 384.469 63.84C378.769 66.24 370.669 67.44 360.169 67.44C351.469 67.44 344.299 65.37 338.659 61.23C333.079 57.03 330.289 51.39 330.289 44.31C330.289 40.89 330.919 37.77 332.179 34.95C333.439 32.07 335.119 29.7 337.219 27.84C339.319 25.92 341.749 24.3 344.509 22.98ZM365.389 29.37C361.729 29.37 359.749 32.34 359.449 38.28C362.329 38.52 363.829 38.64 363.949 38.64C367.909 38.64 369.889 37.32 369.889 34.68C369.889 31.14 368.389 29.37 365.389 29.37ZM475.926 62.13L476.016 40.17C476.016 38.37 475.566 37.02 474.666 36.12C473.766 35.22 472.626 34.77 471.246 34.77C469.926 34.77 468.696 35.25 467.556 36.21C466.476 37.11 465.936 38.4 465.936 40.08L466.026 53.13C466.026 57.27 465.996 60.12 465.936 61.68C465.876 63.24 465.456 64.38 464.676 65.1C463.956 65.76 462.516 66.09 460.356 66.09L443.076 66.27C441.156 66.27 439.806 65.94 439.026 65.28C438.306 64.56 437.946 63.51 437.946 62.13L438.036 40.17C438.036 38.37 437.586 37.02 436.686 36.12C435.786 35.22 434.646 34.77 433.266 34.77C431.946 34.77 430.716 35.25 429.576 36.21C428.496 37.11 427.956 38.4 427.956 40.08V45.57C427.956 53.49 427.776 58.89 427.416 61.77C427.236 62.79 426.726 63.69 425.886 64.47C425.046 65.25 423.546 65.73 421.386 65.91C419.286 66.03 417.186 66.09 415.086 66.09C412.986 66.09 409.416 65.97 404.376 65.73C402.936 65.67 401.796 65.25 400.956 64.47C400.116 63.69 399.636 62.79 399.516 61.77C399.096 57.87 398.886 51.9 398.886 43.86C398.886 35.82 399.006 30.33 399.246 27.39C399.486 24.39 399.936 22.44 400.596 21.54C401.256 20.64 402.606 20.19 404.646 20.19H422.196C424.236 20.19 425.586 20.64 426.246 21.54C426.966 22.44 427.416 23.97 427.596 26.13V26.22C432.216 21.42 438.096 19.02 445.236 19.02C449.616 19.02 453.426 19.86 456.666 21.54C459.906 23.22 462.306 25.68 463.866 28.92C465.846 25.68 468.546 23.22 471.966 21.54C475.446 19.86 479.196 19.02 483.216 19.02C489.336 19.02 494.286 20.64 498.066 23.88C501.846 27.12 503.766 31.59 503.826 37.29C503.946 42.99 504.006 48.09 504.006 52.59C504.006 57.09 503.976 60.12 503.916 61.68C503.856 63.24 503.436 64.38 502.656 65.1C501.936 65.76 500.496 66.09 498.336 66.09L481.056 66.27C479.136 66.27 477.786 65.94 477.006 65.28C476.286 64.56 475.926 63.51 475.926 62.13ZM33.3 177.8C28.14 177.8 23.31 177.23 18.81 176.09C14.37 174.95 11.22 173.81 9.36 172.67C7.56 171.53 6.36 170.72 5.76 170.24C4.2 168.98 3.42 167.24 3.42 165.02C3.42 163.28 3.63 161.63 4.05 160.07C4.83 157.13 6.24 155.66 8.28 155.66C8.94 155.72 11.04 156.41 14.58 157.73C18.18 159.05 21 159.71 23.04 159.71C26.1 159.71 27.63 158.51 27.63 156.11C27.63 154.67 26.88 153.35 25.38 152.15C23.88 150.89 22.05 149.69 19.89 148.55C17.79 147.41 15.66 146.12 13.5 144.68C11.34 143.18 9.51 141.14 8.01 138.56C6.51 135.92 5.76 132.86 5.76 129.38C5.76 123.62 8.58 119.12 14.22 115.88C19.86 112.58 27.15 110.93 36.09 110.93C45.03 110.93 52.11 111.86 57.33 113.72C62.61 115.52 65.25 118.04 65.25 121.28C65.25 123.62 64.71 125.69 63.63 127.49C62.55 129.23 61.41 130.1 60.21 130.1C59.79 130.1 58.38 129.65 55.98 128.75C53.64 127.79 51.51 127.31 49.59 127.31C45.81 127.31 43.92 128.78 43.92 131.72C43.92 133.16 44.82 134.48 46.62 135.68C48.42 136.88 50.58 138.05 53.1 139.19C55.68 140.27 58.26 141.5 60.84 142.88C63.42 144.26 65.61 146.15 67.41 148.55C69.21 150.95 70.11 153.86 70.11 157.28C70.11 160.7 69 163.82 66.78 166.64C64.62 169.46 61.74 171.65 58.14 173.21C51 176.27 42.72 177.8 33.3 177.8ZM81.9534 143.24C81.9534 142.28 81.2934 141.8 79.9734 141.8C77.6334 141.8 76.2534 141.02 75.8334 139.46C75.5934 138.68 75.4734 137.48 75.4734 135.86C75.4734 134.24 75.6834 133.1 76.1034 132.44C76.5834 131.72 77.4534 131.21 78.7134 130.91C80.0334 130.55 81.2034 129.98 82.2234 129.2C83.3034 128.36 85.4634 126.56 88.7034 123.8C92.0034 121.04 94.2834 119.24 95.5434 118.4C96.8634 117.56 98.4834 117.14 100.403 117.14H104.903C107.003 117.14 108.413 117.41 109.133 117.95C109.853 118.43 110.213 119.21 110.213 120.29V128.84C110.213 130.1 110.753 130.73 111.833 130.73H121.463C123.023 130.73 124.133 131.06 124.793 131.72C125.513 132.38 125.873 133.91 125.873 136.31C125.873 138.65 125.513 140.15 124.793 140.81C124.073 141.47 122.993 141.8 121.553 141.8H112.193C111.353 141.8 110.813 142.01 110.573 142.43C110.333 142.85 110.213 143.45 110.213 144.23V155.03C110.333 157.07 111.083 158.78 112.463 160.16C113.903 161.54 115.913 162.23 118.493 162.23C119.753 162.23 121.313 161.9 123.173 161.24C125.033 160.52 126.293 160.16 126.953 160.16C128.573 160.16 129.383 162.56 129.383 167.36C129.383 170.84 128.453 172.94 126.593 173.66C124.673 174.32 121.973 174.86 118.493 175.28C115.013 175.7 111.533 175.91 108.053 175.91C104.573 175.91 101.243 175.64 98.0634 175.1C94.9434 174.5 92.0934 173.48 89.5134 172.04C84.4734 169.1 81.9534 163.49 81.9534 155.21V143.24ZM169.355 128.75C188.915 128.75 198.785 135.11 198.965 147.83C199.085 153.23 199.145 158.18 199.145 162.68C199.145 167.18 199.115 170.21 199.055 171.77C198.995 173.33 198.575 174.47 197.795 175.19C197.075 175.85 195.635 176.18 193.475 176.18H174.395C172.475 176.18 171.155 175.85 170.435 175.19C169.715 174.47 169.325 173.42 169.265 172.04C169.265 171.98 169.235 171.89 169.175 171.77C169.175 171.59 169.175 171.44 169.175 171.32C165.215 175.4 159.815 177.44 152.975 177.44C148.235 177.44 144.185 176.27 140.825 173.93C137.525 171.53 135.875 168.26 135.875 164.12C135.875 159.92 137.045 156.59 139.385 154.13C141.785 151.61 144.605 149.9 147.845 149C151.145 148.1 154.655 147.65 158.375 147.65C162.155 147.65 165.845 148.01 169.445 148.73V148.37C169.445 145.37 168.845 143.21 167.645 141.89C166.505 140.57 164.615 139.91 161.975 139.91C159.395 139.91 157.235 140.15 155.495 140.63C153.755 141.05 152.435 141.5 151.535 141.98C149.075 143.42 147.365 144.14 146.405 144.14C145.445 144.14 144.575 143.69 143.795 142.79C143.075 141.89 142.715 140.51 142.715 138.65C142.715 136.73 143.045 135.41 143.705 134.69C144.425 133.97 145.535 133.25 147.035 132.53C152.255 130.01 159.695 128.75 169.355 128.75ZM165.125 165.56C167.765 165.56 169.115 165.05 169.175 164.03C169.295 162.05 169.355 159.44 169.355 156.2C169.355 154.94 168.395 154.31 166.475 154.31C164.555 154.31 162.995 154.79 161.795 155.75C160.595 156.65 159.995 158 159.995 159.8C159.995 161.6 160.475 163.01 161.435 164.03C162.455 165.05 163.685 165.56 165.125 165.56ZM213.701 143.24C213.701 142.28 213.041 141.8 211.721 141.8C209.381 141.8 208.001 141.02 207.581 139.46C207.341 138.68 207.221 137.48 207.221 135.86C207.221 134.24 207.431 133.1 207.851 132.44C208.331 131.72 209.201 131.21 210.461 130.91C211.781 130.55 212.951 129.98 213.971 129.2C215.051 128.36 217.211 126.56 220.451 123.8C223.751 121.04 226.031 119.24 227.291 118.4C228.611 117.56 230.231 117.14 232.151 117.14H236.651C238.751 117.14 240.161 117.41 240.881 117.95C241.601 118.43 241.961 119.21 241.961 120.29V128.84C241.961 130.1 242.501 130.73 243.581 130.73H253.211C254.771 130.73 255.881 131.06 256.541 131.72C257.261 132.38 257.621 133.91 257.621 136.31C257.621 138.65 257.261 140.15 256.541 140.81C255.821 141.47 254.741 141.8 253.301 141.8H243.941C243.101 141.8 242.561 142.01 242.321 142.43C242.081 142.85 241.961 143.45 241.961 144.23V155.03C242.081 157.07 242.831 158.78 244.211 160.16C245.651 161.54 247.661 162.23 250.241 162.23C251.501 162.23 253.061 161.9 254.921 161.24C256.781 160.52 258.041 160.16 258.701 160.16C260.321 160.16 261.131 162.56 261.131 167.36C261.131 170.84 260.201 172.94 258.341 173.66C256.421 174.32 253.721 174.86 250.241 175.28C246.761 175.7 243.281 175.91 239.801 175.91C236.321 175.91 232.991 175.64 229.811 175.1C226.691 174.5 223.841 173.48 221.261 172.04C216.221 169.1 213.701 163.49 213.701 155.21V143.24ZM346.463 172.13L346.553 150.17C346.553 148.37 346.103 147.02 345.203 146.12C344.303 145.22 343.163 144.77 341.783 144.77C340.463 144.77 339.233 145.25 338.093 146.21C337.013 147.11 336.473 148.4 336.473 150.08L336.563 163.13C336.563 167.27 336.533 170.12 336.473 171.68C336.413 173.24 335.993 174.38 335.213 175.1C334.493 175.76 333.053 176.09 330.893 176.09L313.613 176.27C311.693 176.27 310.343 175.94 309.563 175.28C308.843 174.56 308.483 173.51 308.483 172.13L308.573 150.17C308.573 148.37 308.123 147.02 307.223 146.12C306.323 145.22 305.183 144.77 303.803 144.77C302.483 144.77 301.253 145.25 300.113 146.21C299.033 147.11 298.493 148.4 298.493 150.08V155.57C298.493 163.49 298.313 168.89 297.953 171.77C297.773 172.79 297.263 173.69 296.423 174.47C295.583 175.25 294.083 175.73 291.923 175.91C289.823 176.03 287.723 176.09 285.623 176.09C283.523 176.09 279.953 175.97 274.913 175.73C273.473 175.67 272.333 175.25 271.493 174.47C270.653 173.69 270.173 172.79 270.053 171.77C269.633 167.87 269.423 161.9 269.423 153.86C269.423 145.82 269.543 140.33 269.783 137.39C270.023 134.39 270.473 132.44 271.133 131.54C271.793 130.64 273.143 130.19 275.183 130.19H292.733C294.773 130.19 296.123 130.64 296.783 131.54C297.503 132.44 297.953 133.97 298.133 136.13V136.22C302.753 131.42 308.633 129.02 315.773 129.02C320.153 129.02 323.963 129.86 327.203 131.54C330.443 133.22 332.843 135.68 334.403 138.92C336.383 135.68 339.083 133.22 342.503 131.54C345.983 129.86 349.733 129.02 353.753 129.02C359.873 129.02 364.823 130.64 368.603 133.88C372.383 137.12 374.303 141.59 374.363 147.29C374.483 152.99 374.543 158.09 374.543 162.59C374.543 167.09 374.513 170.12 374.453 171.68C374.393 173.24 373.973 174.38 373.193 175.1C372.473 175.76 371.033 176.09 368.873 176.09L351.593 176.27C349.673 176.27 348.323 175.94 347.543 175.28C346.823 174.56 346.463 173.51 346.463 172.13ZM396.892 132.98C399.652 131.6 402.472 130.61 405.352 130.01C408.292 129.41 411.892 129.11 416.152 129.11C420.472 129.11 424.582 129.65 428.482 130.73C432.382 131.75 435.292 133.16 437.212 134.96C440.572 138.26 442.252 142.13 442.252 146.57C442.252 153.53 436.372 157.01 424.612 157.01C420.472 157.01 416.182 156.62 411.742 155.84C411.922 159.8 412.642 162.59 413.902 164.21C415.222 165.83 417.532 166.64 420.832 166.64C424.132 166.64 426.862 166.28 429.022 165.56C431.182 164.84 432.922 164.12 434.242 163.4C435.562 162.62 436.672 162.23 437.572 162.23C438.532 162.23 439.342 162.65 440.002 163.49C441.022 164.57 441.532 166.07 441.532 167.99C441.532 169.85 441.142 171.14 440.362 171.86C439.642 172.52 438.472 173.18 436.852 173.84C431.152 176.24 423.052 177.44 412.552 177.44C403.852 177.44 396.682 175.37 391.042 171.23C385.462 167.03 382.672 161.39 382.672 154.31C382.672 150.89 383.302 147.77 384.562 144.95C385.822 142.07 387.502 139.7 389.602 137.84C391.702 135.92 394.132 134.3 396.892 132.98ZM417.772 139.37C414.112 139.37 412.132 142.34 411.832 148.28C414.712 148.52 416.212 148.64 416.332 148.64C420.292 148.64 422.272 147.32 422.272 144.68C422.272 141.14 420.772 139.37 417.772 139.37ZM490.329 172.13L490.419 150.17C490.419 148.37 489.969 147.02 489.069 146.12C488.169 145.22 487.029 144.77 485.649 144.77C484.329 144.77 483.099 145.25 481.959 146.21C480.879 147.11 480.339 148.4 480.339 150.08V155.57C480.339 163.49 480.159 168.89 479.799 171.77C479.619 172.79 479.109 173.69 478.269 174.47C477.429 175.25 475.929 175.73 473.769 175.91C471.669 176.03 469.569 176.09 467.469 176.09C465.369 176.09 461.799 175.97 456.759 175.73C455.319 175.67 454.179 175.25 453.339 174.47C452.499 173.69 452.019 172.79 451.899 171.77C451.479 167.87 451.269 161.9 451.269 153.86C451.269 145.82 451.389 140.33 451.629 137.39C451.869 134.39 452.319 132.44 452.979 131.54C453.639 130.64 454.989 130.19 457.029 130.19H474.579C476.619 130.19 477.969 130.64 478.629 131.54C479.349 132.44 479.799 133.97 479.979 136.13V136.22C484.599 131.42 490.209 129.02 496.809 129.02C503.469 129.02 508.689 130.64 512.469 133.88C516.249 137.12 518.169 141.59 518.229 147.29C518.349 152.99 518.409 158.09 518.409 162.59C518.409 167.09 518.379 170.12 518.319 171.68C518.259 173.24 517.839 174.38 517.059 175.1C516.339 175.76 514.899 176.09 512.739 176.09L495.459 176.27C493.539 176.27 492.189 175.94 491.409 175.28C490.689 174.56 490.329 173.51 490.329 172.13Z" fill="url(#paint0_linear_1258_1394)" fill-opacity="0.8"/>
<defs>
<linearGradient id="paint0_linear_1258_1394" x1="261.5" y1="6.7134" x2="320.373" y2="174.321" gradientUnits="userSpaceOnUse">
<stop stop-color="#6B73FF"/>
<stop offset="1" stop-color="#1B4AC3"/>
</linearGradient>
</defs>
</svg>
