<svg width="336" height="42" viewBox="0 0 336 42" fill="none" xmlns="http://www.w3.org/2000/svg">
<g filter="url(#filter0_d_576_1681)">
<path d="M24.2654 36C15.2154 36 13.4154 27 13.1154 18C13.0654 16.1 13.1154 14.35 13.2654 12.8C2.71543 12.05 2.81543 1.4 14.8154 0.949998C25.3654 0.549997 38.7154 0.249998 38.7154 6.55C38.7154 11.5 35.7654 12.45 30.1654 12.6C29.8654 14.65 29.5154 16.7 29.5154 18.5C29.5154 25.55 34.7654 36 24.2654 36ZM57.9361 37.2C45.1861 37.2 38.8861 30 38.8361 18.95C38.7861 7.9 46.9361 0.299998 57.9361 0.299998C71.2361 0.299998 77.8861 7.9 77.8861 18.75C77.8861 29.6 71.2361 37.2 57.9361 37.2ZM54.7361 23.75C56.2861 23.2 60.7861 23.2 62.1861 23.75C61.0861 19.45 61.0861 16.6 62.1861 12.8C61.2861 13.35 55.0361 13.35 54.0361 12.8C55.9361 16.6 55.9361 19.45 54.7361 23.75ZM90.5994 36C81.5494 36 80.7494 27.05 80.4494 18.05C80.0494 6.9 83.3994 0.699998 96.2494 0.6C107.899 0.499998 112.999 4.75 112.949 12.5C112.899 21.3 107.099 26.1 95.9494 25.45C98.7494 30.3 97.5994 36 90.5994 36ZM95.3994 16.7C96.9494 16.5 99.5994 16.05 99.4994 12.85C99.3994 9.55 96.6494 11.05 95.3494 10.65C95.7994 12.55 95.7994 15.45 95.3994 16.7ZM129.803 18.3C129.353 6.25 137.853 0.449999 146.603 0.499998C151.703 0.499998 162.403 0.999998 162.303 7.2C162.203 14.2 155.253 19.3 145.753 14.2C146.753 15.55 146.753 20.9 145.453 23.8C151.153 19.95 162.503 19.5 162.453 27.15C162.353 35.25 152.853 37.15 146.103 36.65C137.953 36.05 130.253 31 129.803 18.3ZM175.633 36C166.583 36 164.783 27.05 164.483 18.05C164.083 6.15 168.533 1.15 173.933 1.1C183.933 0.999998 182.983 11 179.783 15C182.483 14.5 185.133 14.5 187.833 15C183.883 11 184.833 0.999998 192.483 0.999998C198.433 0.999998 203.683 4.4 203.233 18.05C202.983 26.4 202.583 36 192.483 36C185.633 36 184.183 28.5 187.883 23.95C185.133 24.7 182.483 24.7 180.233 23.95C183.933 28 182.633 36 175.633 36ZM224.928 37.2C212.178 37.2 205.878 30 205.828 18.95C205.778 7.9 213.928 0.299998 224.928 0.299998C238.228 0.299998 244.878 7.9 244.878 18.75C244.878 29.6 238.228 37.2 224.928 37.2ZM221.728 23.75C223.278 23.2 227.778 23.2 229.178 23.75C228.078 19.45 228.078 16.6 229.178 12.8C228.278 13.35 222.028 13.35 221.028 12.8C222.928 16.6 222.928 19.45 221.728 23.75ZM258.592 36C249.542 36 247.742 27 247.442 18C247.042 6.05 251.492 1.05 256.892 0.999998C269.092 0.899999 263.842 11.45 263.842 18.5C263.842 25.55 269.092 36 258.592 36ZM267.742 18.3C267.292 6.25 275.792 0.449999 284.542 0.499998C289.642 0.499998 300.342 0.999998 300.242 7.2C300.142 14.2 293.192 19.3 283.692 14.2C284.692 15.55 284.692 20.9 283.392 23.8C289.092 19.95 300.442 19.5 300.392 27.15C300.292 35.25 290.792 37.15 284.042 36.65C275.892 36.05 268.192 31 267.742 18.3ZM316.858 36.5C305.308 35.7 303.458 29.25 303.008 18.2C302.508 4.95 308.258 1.25 317.408 0.999998C326.008 0.799997 333.508 0.549997 332.908 7C332.408 12.15 326.858 12.25 319.858 12.1C319.458 13.2 318.908 14.2 318.308 15C327.908 13.65 331.108 14.1 331.008 19.45C330.908 24.65 324.958 24.4 318.758 23.95C319.308 24.55 319.758 25.3 320.108 26.05C325.758 25.45 332.458 25.1 332.908 30.1C333.508 36.85 325.908 37.15 316.858 36.5Z" fill="#FFFEFD"/>
</g>
<defs>
<filter id="filter0_d_576_1681" x="0.715454" y="0.25" width="334.793" height="40.95" filterUnits="userSpaceOnUse" color-interpolation-filters="sRGB">
<feFlood flood-opacity="0" result="BackgroundImageFix"/>
<feColorMatrix in="SourceAlpha" type="matrix" values="0 0 0 0 0 0 0 0 0 0 0 0 0 0 0 0 0 0 127 0" result="hardAlpha"/>
<feOffset dy="2"/>
<feGaussianBlur stdDeviation="1"/>
<feComposite in2="hardAlpha" operator="out"/>
<feColorMatrix type="matrix" values="0 0 0 0 0.445833 0 0 0 0 0.425399 0 0 0 0 0.425399 0 0 0 0.05 0"/>
<feBlend mode="normal" in2="BackgroundImageFix" result="effect1_dropShadow_576_1681"/>
<feBlend mode="normal" in="SourceGraphic" in2="effect1_dropShadow_576_1681" result="shape"/>
</filter>
</defs>
</svg>
