<svg width="796" height="266" viewBox="0 0 796 266" fill="none" xmlns="http://www.w3.org/2000/svg">
<path d="M93.6657 48.6757C91.2676 34.2223 77.5921 24.5002 63.2036 26.9631L67.4164 2.75531L51.9585 0.000732422C50.6623 2.91734 44.8291 16.2041 42.0098 31.1112C47.7457 35 51.9585 41.1573 53.2224 48.6109C54.5187 56.4857 52.2502 64.1661 47.5189 69.8697C48.6855 71.2956 50.0142 72.5919 51.5049 73.7585C57.5001 78.4899 64.7915 80.3371 71.9209 79.138C86.4066 76.7399 96.1286 63.0643 93.6333 48.6757H93.6657Z" fill="#054752"/>
<path d="M41.7507 32.7956L42.0747 31.1753C36.5656 27.4161 29.7603 25.731 22.6957 26.8976L26.9085 2.72217L11.483 0C10.122 3.01383 3.89991 17.1756 1.24258 32.7308C-0.896244 45.3046 -0.799025 58.7858 5.77949 68.281C7.23778 70.3226 8.95532 72.1698 11.0293 73.7902C17.0569 78.5215 24.3808 80.3687 31.5102 79.1697C38.0563 78.1003 43.5978 74.6327 47.519 69.9338L46.2876 68.3134C39.6766 58.8507 39.5794 45.3694 41.7507 32.828V32.7956Z" fill="#2DBEFF"/>
<path d="M53.255 48.6754C51.9588 41.2219 47.7459 35.0646 42.0424 31.1758L41.7183 32.7961C39.6119 45.3699 39.7091 58.8511 46.3201 68.3463L47.5191 69.9667C52.2504 64.1334 54.5837 56.4854 53.2226 48.5782L53.255 48.6754Z" fill="#9EF769"/>
<path d="M45.68 134.845C49.1467 135.378 51.8933 136.818 53.92 139.165C56 141.458 57.04 144.632 57.04 148.685C57.04 153.858 55.3333 157.805 51.92 160.525C48.5067 163.192 44.1867 164.525 38.96 164.525H15.28V108.525H37.44C42.5067 108.525 46.56 109.752 49.6 112.205C52.6933 114.605 54.24 118.072 54.24 122.605C54.24 128.845 51.3867 132.872 45.68 134.685V134.845ZM35.84 117.965H25.52V131.405H35.44C38.0533 131.405 40.0533 130.818 41.44 129.645C42.8267 128.472 43.52 126.792 43.52 124.605C43.52 122.472 42.8267 120.845 41.44 119.725C40.0533 118.552 38.1867 117.965 35.84 117.965ZM37.2 155.085C39.9733 155.085 42.16 154.445 43.76 153.165C45.36 151.832 46.16 149.992 46.16 147.645C46.16 145.298 45.36 143.485 43.76 142.205C42.16 140.872 39.84 140.205 36.8 140.205H25.52V155.085H37.2ZM73.5388 108.525V164.525H63.6988V108.525H73.5388ZM97.965 165.725C92.8983 165.725 88.6583 163.965 85.245 160.445C81.885 156.925 80.205 152.125 80.205 146.045C80.205 139.965 81.885 135.165 85.245 131.645C88.6583 128.125 92.8983 126.365 97.965 126.365C103.618 126.365 107.725 128.498 110.285 132.765H110.445V127.565H120.205V164.525H110.445V159.325H110.285C107.725 163.592 103.618 165.725 97.965 165.725ZM93.165 153.565C95.0317 155.485 97.4583 156.445 100.445 156.445C103.432 156.445 105.832 155.485 107.645 153.565C109.512 151.645 110.445 149.138 110.445 146.045C110.445 142.952 109.512 140.445 107.645 138.525C105.832 136.605 103.432 135.645 100.445 135.645C97.4583 135.645 95.0317 136.605 93.165 138.525C91.3517 140.445 90.445 142.952 90.445 146.045C90.445 149.138 91.3517 151.645 93.165 153.565ZM160.055 134.845C163.522 135.378 166.268 136.818 168.295 139.165C170.375 141.458 171.415 144.632 171.415 148.685C171.415 153.858 169.708 157.805 166.295 160.525C162.882 163.192 158.562 164.525 153.335 164.525H129.655V108.525H151.815C156.882 108.525 160.935 109.752 163.975 112.205C167.068 114.605 168.615 118.072 168.615 122.605C168.615 128.845 165.762 132.872 160.055 134.685V134.845ZM150.215 117.965H139.895V131.405H149.815C152.428 131.405 154.428 130.818 155.815 129.645C157.202 128.472 157.895 126.792 157.895 124.605C157.895 122.472 157.202 120.845 155.815 119.725C154.428 118.552 152.562 117.965 150.215 117.965ZM151.575 155.085C154.348 155.085 156.535 154.445 158.135 153.165C159.735 151.832 160.535 149.992 160.535 147.645C160.535 145.298 159.735 143.485 158.135 142.205C156.535 140.872 154.215 140.205 151.175 140.205H139.895V155.085H151.575ZM187.914 108.525V164.525H178.074V108.525H187.914ZM212.34 165.725C207.273 165.725 203.033 163.965 199.62 160.445C196.26 156.925 194.58 152.125 194.58 146.045C194.58 139.965 196.26 135.165 199.62 131.645C203.033 128.125 207.273 126.365 212.34 126.365C217.993 126.365 222.1 128.498 224.66 132.765H224.82V127.565H234.58V164.525H224.82V159.325H224.66C222.1 163.592 217.993 165.725 212.34 165.725ZM207.54 153.565C209.407 155.485 211.833 156.445 214.82 156.445C217.807 156.445 220.207 155.485 222.02 153.565C223.887 151.645 224.82 149.138 224.82 146.045C224.82 142.952 223.887 140.445 222.02 138.525C220.207 136.605 217.807 135.645 214.82 135.645C211.833 135.645 209.407 136.605 207.54 138.525C205.727 140.445 204.82 142.952 204.82 146.045C204.82 149.138 205.727 151.645 207.54 153.565ZM271.31 165.725C262.403 165.725 255.123 163.058 249.47 157.725C243.87 152.338 241.07 145.272 241.07 136.525C241.07 127.778 243.87 120.738 249.47 115.405C255.123 110.018 262.403 107.325 271.31 107.325C278.777 107.325 285.443 109.378 291.31 113.485L285.39 122.445C280.963 119.352 276.243 117.805 271.23 117.805C265.683 117.805 261.123 119.512 257.55 122.925C254.03 126.338 252.27 130.872 252.27 136.525C252.27 142.178 254.03 146.712 257.55 150.125C261.123 153.538 265.683 155.245 271.23 155.245C276.243 155.245 280.963 153.698 285.39 150.605L291.31 159.565C285.443 163.672 278.777 165.725 271.31 165.725ZM311.012 165.725C305.945 165.725 301.705 163.965 298.292 160.445C294.932 156.925 293.252 152.125 293.252 146.045C293.252 139.965 294.932 135.165 298.292 131.645C301.705 128.125 305.945 126.365 311.012 126.365C316.665 126.365 320.772 128.498 323.332 132.765H323.492V127.565H333.252V164.525H323.492V159.325H323.332C320.772 163.592 316.665 165.725 311.012 165.725ZM306.212 153.565C308.079 155.485 310.505 156.445 313.492 156.445C316.479 156.445 318.879 155.485 320.692 153.565C322.559 151.645 323.492 149.138 323.492 146.045C323.492 142.952 322.559 140.445 320.692 138.525C318.879 136.605 316.479 135.645 313.492 135.645C310.505 135.645 308.079 136.605 306.212 138.525C304.399 140.445 303.492 142.952 303.492 146.045C303.492 149.138 304.399 151.645 306.212 153.565ZM364.222 126.445V137.005H363.102C359.102 137.005 356.169 137.965 354.302 139.885C352.435 141.805 351.502 144.978 351.502 149.405V164.525H341.742V127.565H351.422V135.405H351.582C353.555 129.432 357.635 126.445 363.822 126.445H364.222Z" fill="#054752"/>
<path d="M421.748 164.525L406.468 142.205H402.708V164.525H392.467V108.525H413.108C418.601 108.525 422.974 110.098 426.228 113.245C429.534 116.338 431.188 120.418 431.188 125.485C431.188 129.645 430.014 133.192 427.668 136.125C425.374 139.005 422.174 140.872 418.068 141.725L434.628 164.525H421.748ZM402.708 117.965V133.165H411.508C417.321 133.165 420.228 130.658 420.228 125.645C420.228 123.298 419.481 121.432 417.988 120.045C416.548 118.658 414.388 117.965 411.508 117.965H402.708ZM440.731 131.885C444.624 128.205 449.531 126.365 455.451 126.365C461.371 126.365 466.251 128.205 470.091 131.885C473.984 135.565 475.931 140.285 475.931 146.045C475.931 151.805 473.984 156.525 470.091 160.205C466.251 163.885 461.371 165.725 455.451 165.725C449.531 165.725 444.624 163.885 440.731 160.205C436.891 156.525 434.971 151.805 434.971 146.045C434.971 140.285 436.891 135.565 440.731 131.885ZM462.891 138.525C460.971 136.605 458.491 135.645 455.451 135.645C452.411 135.645 449.904 136.605 447.931 138.525C446.011 140.392 445.051 142.898 445.051 146.045C445.051 149.192 446.011 151.725 447.931 153.645C449.904 155.512 452.411 156.445 455.451 156.445C458.491 156.445 460.971 155.512 462.891 153.645C464.811 151.725 465.771 149.192 465.771 146.045C465.771 142.898 464.811 140.392 462.891 138.525ZM495.569 165.725C491.515 165.725 488.209 164.445 485.649 161.885C483.142 159.325 481.889 155.432 481.889 150.205V127.565H491.969V148.445C491.969 153.938 494.289 156.685 498.929 156.685C504.369 156.685 507.089 152.898 507.089 145.325V127.565H516.929V164.525H507.249V158.845H507.089C504.529 163.432 500.689 165.725 495.569 165.725ZM546.53 135.805H538.93V151.325C538.93 152.818 539.223 153.885 539.81 154.525C540.397 155.165 541.41 155.485 542.85 155.485H544.53V164.605H540.21C536.637 164.605 533.89 163.698 531.97 161.885C530.05 160.018 529.09 157.272 529.09 153.645V135.805H522.29V127.565H529.09V112.765H538.93V127.565H546.53V135.805ZM563.009 109.005V119.805H551.809V109.005H563.009ZM552.449 164.525V127.565H562.289V164.525H552.449ZM593.115 126.365C597.382 126.365 600.768 127.645 603.275 130.205C605.782 132.712 607.035 136.552 607.035 141.725V164.525H597.195V144.045C597.195 138.338 594.662 135.485 589.595 135.485C583.835 135.485 580.955 139.138 580.955 146.445V164.525H571.195V127.565H580.875V133.165H581.035C583.702 128.632 587.728 126.365 593.115 126.365ZM632.218 126.365C637.871 126.365 642.271 128.098 645.418 131.565C648.564 134.978 650.138 139.832 650.138 146.125V148.045H622.538C622.804 150.872 623.871 153.085 625.738 154.685C627.658 156.232 630.058 157.005 632.938 157.005C636.938 157.005 640.618 155.325 643.978 151.965L648.938 159.085C644.138 163.512 638.804 165.725 632.938 165.725C626.911 165.725 622.084 163.938 618.458 160.365C614.831 156.792 613.018 152.045 613.018 146.125C613.018 140.205 614.778 135.432 618.298 131.805C621.818 128.178 626.458 126.365 632.218 126.365ZM631.738 134.285C626.564 134.285 623.578 136.765 622.778 141.725H640.218C640.058 139.378 639.204 137.565 637.658 136.285C636.164 134.952 634.191 134.285 631.738 134.285ZM668.599 165.725C662.732 165.725 657.452 164.418 652.759 161.805L656.759 153.485C661.132 156.045 665.265 157.325 669.159 157.325C672.199 157.325 673.719 156.445 673.719 154.685C673.719 153.992 673.479 153.432 672.999 153.005C672.519 152.578 671.692 152.072 670.519 151.485L663.879 148.605C658.332 146.152 655.559 142.472 655.559 137.565C655.559 133.938 656.785 131.165 659.239 129.245C661.692 127.325 665.239 126.365 669.879 126.365C674.039 126.365 678.412 127.218 682.999 128.925L679.719 137.165C675.719 135.458 672.252 134.605 669.319 134.605C666.812 134.605 665.559 135.352 665.559 136.845C665.559 137.538 665.799 138.125 666.279 138.605C666.812 139.085 667.745 139.618 669.079 140.205L675.719 143.085C681.159 145.325 683.879 148.925 683.879 153.885C683.879 157.832 682.519 160.792 679.799 162.765C677.079 164.738 673.345 165.725 668.599 165.725Z" fill="#9EF769"/>
<path d="M41.74 197.525V206.225H30.7V239.525H21.4V206.225H10.3V197.525H41.74ZM53.9308 197.525V215.465H54.0508C56.0508 212.425 59.0108 210.905 62.9308 210.905C66.1308 210.905 68.6708 211.865 70.5508 213.785C72.4308 215.705 73.3708 218.565 73.3708 222.365V239.525H64.3108V224.885C64.3108 220.885 62.6308 218.885 59.2708 218.885C55.7108 218.885 53.9308 221.125 53.9308 225.605V239.525H44.8708V197.525H53.9308ZM91.7594 210.965C96.0394 210.965 99.3994 212.225 101.839 214.745C104.279 217.225 105.499 220.905 105.499 225.785V227.825H85.6394C86.1994 231.185 88.5594 232.865 92.7194 232.865C95.5194 232.865 98.1994 232.025 100.759 230.345L104.059 237.185C100.539 239.345 96.7194 240.425 92.5994 240.425C87.9594 240.425 84.2194 239.085 81.3794 236.405C78.5394 233.725 77.1194 230.185 77.1194 225.785C77.1194 221.185 78.4594 217.565 81.1394 214.925C83.8594 212.285 87.3994 210.965 91.7594 210.965ZM91.4594 217.385C88.0194 217.385 86.0994 219.085 85.6994 222.485H96.7394C96.6994 220.885 96.1794 219.645 95.1794 218.765C94.2194 217.845 92.9794 217.385 91.4594 217.385ZM143.086 210.905C146.286 210.905 148.826 211.865 150.706 213.785C152.586 215.705 153.526 218.565 153.526 222.365V239.525H144.526V224.885C144.526 220.885 142.826 218.885 139.426 218.885C135.866 218.885 134.086 221.125 134.086 225.605V239.525H125.026V211.805H133.906V216.005H134.026C136.026 212.605 139.046 210.905 143.086 210.905ZM171.974 210.965C176.254 210.965 179.614 212.225 182.054 214.745C184.494 217.225 185.714 220.905 185.714 225.785V227.825H165.854C166.414 231.185 168.774 232.865 172.934 232.865C175.734 232.865 178.414 232.025 180.974 230.345L184.274 237.185C180.754 239.345 176.934 240.425 172.814 240.425C168.174 240.425 164.434 239.085 161.594 236.405C158.754 233.725 157.334 230.185 157.334 225.785C157.334 221.185 158.674 217.565 161.354 214.925C164.074 212.285 167.614 210.965 171.974 210.965ZM171.674 217.385C168.234 217.385 166.314 219.085 165.914 222.485H176.954C176.914 220.885 176.394 219.645 175.394 218.765C174.434 217.845 173.194 217.385 171.674 217.385ZM223.908 211.805H232.848L222.768 239.525H215.028L208.908 223.325L202.848 239.525H195.108L184.968 211.805H193.968L199.128 228.065L204.768 211.805H213.108L218.688 228.065L223.908 211.805ZM267.049 205.325C265.049 205.325 263.649 205.685 262.849 206.405C262.089 207.125 261.709 208.485 261.709 210.485V211.805H267.589V219.365H261.709V239.525H252.649V219.365H247.789V211.805H252.649V210.185C252.649 205.625 253.729 202.285 255.889 200.165C258.089 198.005 261.449 196.925 265.969 196.925H267.829V205.325H267.049ZM283.713 210.965C287.993 210.965 291.353 212.225 293.793 214.745C296.233 217.225 297.453 220.905 297.453 225.785V227.825H277.593C278.153 231.185 280.513 232.865 284.673 232.865C287.473 232.865 290.153 232.025 292.713 230.345L296.013 237.185C292.493 239.345 288.673 240.425 284.553 240.425C279.913 240.425 276.173 239.085 273.333 236.405C270.493 233.725 269.073 230.185 269.073 225.785C269.073 221.185 270.413 217.565 273.093 214.925C275.813 212.285 279.353 210.965 283.713 210.965ZM283.413 217.385C279.973 217.385 278.053 219.085 277.653 222.485H288.693C288.653 220.885 288.133 219.645 287.133 218.765C286.173 217.845 284.933 217.385 283.413 217.385ZM312.857 240.425C309.057 240.425 305.917 239.145 303.437 236.585C300.957 233.985 299.717 230.345 299.717 225.665C299.717 220.985 300.957 217.365 303.437 214.805C305.917 212.205 309.057 210.905 312.857 210.905C316.977 210.905 319.997 212.465 321.917 215.585H322.037V211.805H331.097V239.525H322.037V235.745H321.917C319.997 238.865 316.977 240.425 312.857 240.425ZM315.377 232.145C317.257 232.145 318.797 231.565 319.997 230.405C321.197 229.205 321.797 227.625 321.797 225.665C321.797 223.705 321.197 222.145 319.997 220.985C318.797 219.785 317.257 219.185 315.377 219.185C313.537 219.185 312.017 219.785 310.817 220.985C309.617 222.145 309.017 223.705 309.017 225.665C309.017 227.625 309.617 229.205 310.817 230.405C312.017 231.565 313.537 232.145 315.377 232.145ZM354.373 219.365H348.673V227.705C348.673 229.025 348.873 229.925 349.273 230.405C349.713 230.885 350.513 231.125 351.673 231.125H352.693V239.525H348.913C342.713 239.525 339.613 236.405 339.613 230.165V219.365H334.213V211.805H339.613V200.705H348.673V211.805H354.373V219.365ZM368.312 240.425C365.192 240.425 362.652 239.465 360.692 237.545C358.772 235.585 357.812 232.705 357.812 228.905V211.805H367.172V226.925C367.172 230.645 368.692 232.505 371.732 232.505C375.212 232.505 376.952 230.065 376.952 225.185V211.805H386.012V239.525H377.132V235.205H377.012C374.852 238.685 371.952 240.425 368.312 240.425ZM409.87 210.965V220.025H409.09C406.01 220.025 403.81 220.705 402.49 222.065C401.21 223.425 400.57 225.845 400.57 229.325V239.525H391.51V211.805H400.39V217.445H400.51C402.03 213.125 405.09 210.965 409.69 210.965H409.87ZM425.216 210.965C429.496 210.965 432.856 212.225 435.296 214.745C437.736 217.225 438.956 220.905 438.956 225.785V227.825H419.096C419.656 231.185 422.016 232.865 426.176 232.865C428.976 232.865 431.656 232.025 434.216 230.345L437.516 237.185C433.996 239.345 430.176 240.425 426.056 240.425C421.416 240.425 417.676 239.085 414.836 236.405C411.996 233.725 410.576 230.185 410.576 225.785C410.576 221.185 411.916 217.565 414.596 214.925C417.316 212.285 420.856 210.965 425.216 210.965ZM424.916 217.385C421.476 217.385 419.556 219.085 419.156 222.485H430.196C430.156 220.885 429.636 219.645 428.636 218.765C427.676 217.845 426.436 217.385 424.916 217.385ZM472.523 210.905C477.083 210.905 480.823 212.265 483.743 214.985C486.663 217.705 488.123 221.265 488.123 225.665C488.123 230.065 486.663 233.625 483.743 236.345C480.823 239.065 477.083 240.425 472.523 240.425C468.003 240.425 464.283 239.065 461.363 236.345C458.443 233.625 456.983 230.065 456.983 225.665C456.983 221.265 458.443 217.705 461.363 214.985C464.283 212.265 468.003 210.905 472.523 210.905ZM472.523 219.185C470.683 219.185 469.143 219.785 467.903 220.985C466.663 222.185 466.043 223.745 466.043 225.665C466.043 227.585 466.663 229.145 467.903 230.345C469.143 231.545 470.683 232.145 472.523 232.145C474.403 232.145 475.943 231.565 477.143 230.405C478.383 229.205 479.003 227.625 479.003 225.665C479.003 223.705 478.383 222.145 477.143 220.985C475.943 219.785 474.403 219.185 472.523 219.185ZM508.631 205.325C506.631 205.325 505.231 205.685 504.431 206.405C503.671 207.125 503.291 208.485 503.291 210.485V211.805H509.171V219.365H503.291V239.525H494.231V219.365H489.371V211.805H494.231V210.185C494.231 205.625 495.311 202.285 497.471 200.165C499.671 198.005 503.031 196.925 507.551 196.925H509.411V205.325H508.631Z" fill="#054752"/>
<path d="M730.909 228.96H724.679C724.46 228.96 724.306 229.07 724.24 229.245C723.363 231.57 722.134 233.501 720.379 234.861C718.624 236.177 716.365 236.967 713.425 236.967C709.41 236.967 706.186 235.212 703.992 232.272C701.798 229.311 700.569 225.209 700.569 220.514C700.569 215.775 701.776 211.673 703.992 208.755C706.186 205.838 709.432 204.083 713.425 204.083C716.343 204.083 718.58 204.85 720.335 206.189C722.09 207.549 723.297 209.479 724.196 211.739C724.262 211.914 724.416 212.046 724.635 212.046H730.887C730.975 212.046 731.107 212.002 731.173 211.914C731.26 211.848 731.304 211.739 731.304 211.607V211.497C730.317 207.285 728.277 203.819 725.249 201.406C722.222 198.993 718.273 197.589 713.359 197.589C707.655 197.589 702.61 199.936 698.99 203.951C695.37 207.987 693.176 213.713 693.176 220.58C693.176 227.446 695.37 233.194 698.99 237.208C702.61 241.267 707.655 243.57 713.381 243.57C718.295 243.57 722.288 242.21 725.337 239.775C728.365 237.362 730.427 233.852 731.37 229.574V229.464C731.37 229.333 731.326 229.245 731.238 229.135C731.195 229.07 731.063 229.026 730.931 229.026L730.909 228.96ZM785.6 210.488C785.161 210.401 784.547 210.313 783.692 210.313C782.946 210.313 782.024 210.379 780.971 210.576C780.094 210.752 779.15 211.103 778.273 211.585C777.395 212.068 776.518 212.726 775.728 213.516C775.289 213.954 774.851 214.503 774.456 215.117L774.171 215.556V211.3C774.171 211.037 773.951 210.817 773.732 210.817H767.765C767.545 210.817 767.326 211.037 767.326 211.3V242.452C767.326 242.671 767.545 242.89 767.765 242.89H773.776C774.039 242.89 774.258 242.671 774.258 242.452V227.315C774.258 225.56 774.478 224.068 774.851 222.839C775.245 221.611 775.838 220.645 776.606 219.9C777.417 219.154 778.317 218.583 779.37 218.21C780.598 217.772 781.937 217.64 783.099 217.64C783.977 217.64 784.854 217.728 785.359 217.816H785.425C785.688 217.816 785.863 217.64 785.863 217.377V210.971C785.929 210.752 785.776 210.532 785.534 210.488H785.6ZM656.321 197.545H656.211L650.179 198.598C649.959 198.642 649.74 198.817 649.74 199.037V242.43C649.74 242.693 649.959 242.912 650.244 242.912H656.321C656.54 242.912 656.76 242.693 656.76 242.43V198.028C656.76 197.764 656.54 197.545 656.255 197.545H656.321ZM643.882 223.3C643.005 221.501 641.776 219.965 640.263 218.693L639.824 218.364C639.166 217.859 638.442 217.399 637.674 217.048L637.455 216.938L637.608 216.784C638.31 215.973 638.924 215.029 639.363 214.02C640.021 212.55 640.35 211.037 640.35 209.457C640.35 207.746 639.999 206.167 639.341 204.631C638.683 203.095 637.74 201.823 636.555 200.726C635.458 199.717 634.142 198.927 632.65 198.357C631.159 197.786 629.294 197.479 627.1 197.479H613.806C613.543 197.479 613.323 197.699 613.323 197.984V242.408C613.323 242.671 613.543 242.89 613.806 242.89H630.215C632.563 242.89 634.515 242.627 636.094 242.101C637.63 241.574 639.056 240.784 640.263 239.797C641.754 238.547 642.983 236.989 643.882 235.19C644.102 234.751 644.255 234.378 644.409 233.984L644.475 233.808L644.584 233.501C645.023 232.141 645.286 230.715 645.286 229.223C645.243 227.073 644.782 225.055 643.86 223.256L643.882 223.3ZM620.409 204.214H625.981C627.736 204.214 629.052 204.368 629.93 204.653C630.764 204.982 631.422 205.421 631.904 205.969C632.848 207.022 633.33 208.251 633.33 209.699C633.33 211.103 632.892 212.331 631.904 213.384C631.422 213.933 630.808 214.371 629.93 214.7C629.316 214.92 628.394 215.051 627.297 215.139H620.343V204.214H620.409ZM637.52 231.768C637.169 232.645 636.687 233.391 636.073 234.049C635.371 234.708 634.537 235.278 633.506 235.673C632.475 236.046 630.961 236.265 628.943 236.265H620.387V221.852H628.943C630.961 221.852 632.453 222.071 633.484 222.444C634.471 222.839 635.327 223.388 636.007 224.068C636.621 224.726 637.104 225.472 637.477 226.305C637.85 227.117 638.025 228.06 638.025 229.004C638.025 229.991 637.85 230.912 637.477 231.768H637.52ZM685.345 213.428C683.019 211.3 679.816 210.247 675.824 210.247C672.226 210.247 669.286 211.125 667.049 212.88C665.074 214.349 663.648 216.236 662.88 218.474C662.793 218.693 662.946 218.978 663.21 219.022L668.869 220.009C669.089 220.053 669.242 219.943 669.308 219.79C670.471 217.223 672.643 215.973 675.846 215.973C678.039 215.973 679.707 216.565 680.891 217.772C682.076 218.978 682.646 220.58 682.646 222.598V223.739C679.685 222.861 676.855 222.422 674.222 222.422C670.493 222.422 667.378 223.344 664.899 225.23C662.442 227.117 661.169 229.772 661.169 233.172C661.169 236.419 662.332 238.963 664.592 240.806C666.851 242.649 669.571 243.57 672.774 243.57C676.855 243.57 680.233 242.386 682.69 239.929V242.386C682.69 242.693 682.953 242.934 683.239 242.934H688.46C688.745 242.934 688.986 242.715 688.986 242.408V222.159C688.921 218.43 687.736 215.534 685.367 213.428H685.345ZM680.036 235.366C678.281 236.836 676.153 237.559 673.608 237.559C671.743 237.559 670.317 237.121 669.308 236.287C668.343 235.453 667.838 234.313 667.838 232.865C667.838 231.285 668.497 230.101 669.725 229.311C670.954 228.521 672.577 228.104 674.551 228.104C677.03 228.104 679.751 228.543 682.668 229.421C682.668 231.987 681.791 233.94 680.036 235.344V235.366ZM574.932 197.545H574.844L568.79 198.598C568.57 198.642 568.351 198.817 568.351 199.037V242.43C568.351 242.693 568.57 242.912 568.855 242.912H574.932C575.152 242.912 575.371 242.693 575.371 242.43V198.028C575.371 197.764 575.152 197.545 574.888 197.545H574.932ZM562.428 223.3C561.55 221.501 560.365 219.965 558.852 218.693L558.413 218.364C557.755 217.859 557.031 217.399 556.263 217.048L556.044 216.938L556.197 216.784C556.899 215.973 557.514 215.029 557.952 214.02C558.61 212.55 558.94 211.037 558.94 209.457C558.94 207.746 558.61 206.167 557.952 204.631C557.294 203.095 556.351 201.823 555.166 200.726C554.069 199.717 552.753 198.927 551.305 198.357C549.813 197.786 547.949 197.479 545.755 197.479H532.483C532.219 197.479 532 197.699 532 197.984V242.408C532 242.671 532.219 242.89 532.483 242.89H548.826C551.174 242.89 553.126 242.627 554.706 242.101C556.241 241.574 557.667 240.784 558.874 239.797C560.365 238.547 561.594 236.989 562.493 235.19C562.713 234.751 562.866 234.378 563.02 233.984L563.086 233.808C563.086 233.72 563.13 233.589 563.174 233.501C563.612 232.141 563.876 230.715 563.876 229.223C563.832 227.073 563.371 225.055 562.45 223.256L562.428 223.3ZM538.954 204.214H544.57C546.325 204.214 547.642 204.368 548.519 204.653C549.353 204.982 550.011 205.421 550.494 205.969C551.437 207.022 551.919 208.251 551.919 209.699C551.919 211.103 551.481 212.331 550.494 213.384C550.011 213.933 549.397 214.371 548.519 214.7C547.905 214.92 546.983 215.051 545.887 215.139H538.954V204.214ZM556.131 231.768C555.759 232.645 555.254 233.391 554.662 234.049C553.96 234.708 553.126 235.278 552.095 235.673C551.064 236.046 549.55 236.265 547.532 236.265H538.976V221.852H547.532C549.572 221.852 551.086 222.071 552.095 222.444C553.126 222.839 553.982 223.388 554.662 224.068C555.276 224.726 555.759 225.472 556.131 226.305C556.504 227.117 556.68 228.06 556.68 229.004C556.68 229.991 556.461 230.912 556.11 231.768H556.131ZM603.956 213.428C601.608 211.3 598.405 210.247 594.413 210.247C590.837 210.247 587.897 211.125 585.638 212.88C583.663 214.349 582.259 216.236 581.47 218.474C581.404 218.693 581.557 218.978 581.821 219.022L587.459 220.009C587.678 220.053 587.897 219.943 587.963 219.79C589.104 217.223 591.254 215.973 594.479 215.973C596.607 215.973 598.296 216.565 599.48 217.772C600.665 218.978 601.279 220.58 601.279 222.598V223.739C598.274 222.861 595.444 222.422 592.811 222.422C589.082 222.422 585.967 223.344 583.488 225.23C580.965 227.117 579.758 229.772 579.758 233.172C579.758 236.419 580.855 238.963 583.115 240.806C585.374 242.649 588.095 243.57 591.298 243.57C595.4 243.57 598.757 242.386 601.235 239.929V242.386C601.235 242.693 601.455 242.934 601.74 242.934H606.961C607.268 242.934 607.51 242.715 607.51 242.408V222.159C607.444 218.43 606.281 215.534 603.912 213.428H603.956ZM598.603 235.366C596.848 236.836 594.654 237.559 592.131 237.559C590.267 237.559 588.841 237.121 587.832 236.287C586.822 235.453 586.296 234.313 586.296 232.865C586.296 231.285 586.954 230.101 588.204 229.311C589.455 228.521 591.056 228.104 593.031 228.104C595.532 228.104 598.252 228.543 601.148 229.421C601.192 231.987 600.314 233.94 598.559 235.344L598.603 235.366ZM758.88 213.428C756.533 211.3 753.33 210.247 749.337 210.247C745.783 210.247 742.843 211.125 740.562 212.88C738.588 214.349 737.205 216.236 736.394 218.474C736.35 218.693 736.503 218.978 736.767 219.022L742.427 220.009C742.646 220.053 742.8 219.943 742.865 219.79C744.028 217.223 746.2 215.973 749.403 215.973C751.553 215.973 753.242 216.565 754.449 217.772C755.611 218.978 756.204 220.58 756.204 222.598V223.739C753.22 222.861 750.39 222.422 747.758 222.422C744.028 222.422 740.913 223.344 738.434 225.23C735.955 227.117 734.705 229.772 734.705 233.172C734.705 236.419 735.845 238.963 738.105 240.806C740.365 242.649 743.085 243.57 746.288 243.57C750.412 243.57 753.747 242.386 756.247 239.929V242.386C756.247 242.693 756.467 242.934 756.774 242.934H761.995C762.28 242.934 762.522 242.715 762.522 242.408V222.159C762.434 218.43 761.249 215.534 758.902 213.428H758.88ZM753.505 235.366C751.75 236.836 749.644 237.559 747.099 237.559C745.235 237.559 743.809 237.121 742.8 236.287C741.834 235.453 741.33 234.313 741.33 232.865C741.33 231.285 741.988 230.101 743.216 229.311C744.467 228.521 746.068 228.104 748.043 228.104C750.544 228.104 753.308 228.543 756.16 229.421C756.16 231.987 755.282 233.94 753.527 235.344L753.505 235.366Z" fill="#054752"/>
</svg>
