<svg width="658" height="297" viewBox="0 0 658 297" fill="none" xmlns="http://www.w3.org/2000/svg">
<path opacity="0.1" d="M0 178.245H657.1C657.1 178.245 432.5 313.945 213.7 295.145C37.9 280.145 0 178.245 0 178.245Z" fill="#2ED1FF"/>
<path d="M585.4 128.645L584.1 121.145C584.1 121.145 597 92.9448 538.5 79.2448C498.5 69.8448 426.5 59.7448 426.5 59.7448L143.5 59.6448L121.6 59.3448L426.5 59.7448C426.5 59.7448 369.2 0.444824 313.6 0.444824C258 0.444824 186.1 23.0448 121.5 59.3448C121.5 59.3448 86.5002 80.1449 74.9002 97.8448C63.3002 115.545 62.2002 122.145 62.2002 122.145L62.8002 141.545H574.8C581.4 141.545 586.6 135.445 585.4 128.645ZM314.7 7.64484C361.4 7.64484 405 49.9448 405 49.9448C405 49.8448 402.9 58.5448 402.9 58.7448L185.7 57.8448C181.3 57.8448 170.2 56.9448 170.2 49.9448V48.0448C170.2 33.6448 268.1 7.64484 314.7 7.64484Z" fill="#ADECFE"/>
<path d="M576 122.845C572.7 122.845 570 125.545 570 128.845C570 132.145 572.7 134.845 576 134.845H586.4V122.845H576ZM585.5 114.145H559.8C558.5 114.145 557.5 115.145 557.5 116.445C557.5 117.745 558.5 118.745 559.8 118.745H585.5V114.145Z" fill="#008CB2"/>
<path opacity="0.5" d="M439.3 140.845H203.1L197.3 118.045H445.1L439.3 140.845Z" fill="#008CB2"/>
<path d="M435.9 151.645H210C208.1 151.645 206.6 150.145 206.6 148.245C206.6 146.345 208.1 144.845 210 144.845H435.9C437.8 144.845 439.3 146.345 439.3 148.245C439.3 150.045 437.8 151.645 435.9 151.645ZM123.3 151.645H61.5001C59.6001 151.645 58.1001 150.145 58.1001 148.245C58.1001 146.345 59.6001 144.845 61.5001 144.845H123.3C125.2 144.845 126.7 146.345 126.7 148.245C126.7 150.045 125.2 151.645 123.3 151.645ZM582.2 151.645H520.4C518.5 151.645 517 150.145 517 148.245C517 146.345 518.5 144.845 520.4 144.845H582.2C584.1 144.845 585.6 146.345 585.6 148.245C585.6 150.045 584.1 151.645 582.2 151.645Z" fill="#008CB2"/>
<path d="M578 90.5449H545.1C545.1 90.5449 550.5 103.645 567.5 106.145C588.8 109.145 587.9 106.645 587.9 106.645L578 90.5449Z" fill="white"/>
<path opacity="0.5" d="M429.5 106.745H338.3C333.9 106.745 330.4 103.145 330.4 98.8451V95.6451C330.4 91.2451 334 87.7451 338.3 87.7451H429.5C433.9 87.7451 437.4 91.3451 437.4 95.6451V98.8451C437.4 103.145 433.9 106.745 429.5 106.745ZM298.3 106.745H207.1C202.7 106.745 199.2 103.145 199.2 98.8451V95.6451C199.2 91.2451 202.8 87.7451 207.1 87.7451H298.3C302.7 87.7451 306.2 91.3451 306.2 95.6451V98.8451C306.2 103.145 302.6 106.745 298.3 106.745Z" fill="white"/>
<path d="M399.2 47.3452V78.3452C405 78.3452 409.8 73.5452 409.8 67.7452V57.9452C409.8 52.1452 405 47.3452 399.2 47.3452ZM439.1 142.445C439.1 131.783 443.335 121.558 450.874 114.02C458.413 106.481 468.638 102.245 479.3 102.245C489.962 102.245 500.187 106.481 507.726 114.02C515.265 121.558 519.5 131.783 519.5 142.445" fill="#008CB2"/>
<path d="M512.5 142.445C512.5 149.145 510.5 155.345 507.1 160.545C504.093 165.18 499.974 168.99 495.119 171.628C490.263 174.265 484.826 175.646 479.3 175.645C461 175.645 446.1 160.745 446.1 142.445C446.1 134.245 449.1 126.745 454 121.045C460.1 113.845 469.2 109.345 479.3 109.345C483.655 109.332 487.97 110.178 491.998 111.836C496.025 113.493 499.686 115.929 502.77 119.004C505.854 122.079 508.301 125.733 509.971 129.755C511.641 133.777 512.5 138.09 512.5 142.445Z" fill="#ADECFE"/>
<path d="M507.1 160.545C504.093 165.18 499.974 168.99 495.119 171.628C490.263 174.265 484.826 175.646 479.3 175.645C461 175.645 446.1 160.745 446.1 142.445C446.1 134.245 449.1 126.745 454 121.045L470.8 133.545L490.2 148.045L507.1 160.545Z" fill="#008CB2"/>
<path d="M491.6 142.445C491.6 145.707 490.304 148.836 487.997 151.142C485.691 153.449 482.562 154.745 479.3 154.745C476.038 154.745 472.909 153.449 470.603 151.142C468.296 148.836 467 145.707 467 142.445C467 139.183 468.296 136.054 470.603 133.748C472.909 131.441 476.038 130.145 479.3 130.145C482.562 130.145 485.691 131.441 487.997 133.748C490.304 136.054 491.6 139.183 491.6 142.445Z" fill="white"/>
<path d="M125.7 142.445C125.7 131.783 129.936 121.558 137.475 114.019C145.013 106.48 155.239 102.245 165.9 102.245C176.562 102.245 186.787 106.48 194.326 114.019C201.865 121.558 206.1 131.783 206.1 142.445" fill="#008CB2"/>
<path d="M199.8 141.545C199.8 148.245 197.8 154.445 194.4 159.645C191.393 164.28 187.274 168.09 182.419 170.727C177.563 173.365 172.125 174.746 166.6 174.745C148.3 174.745 133.4 159.845 133.4 141.545C133.4 133.345 136.3 125.845 141.3 120.145C147.4 112.945 156.5 108.445 166.6 108.445C185 108.345 199.8 123.245 199.8 141.545Z" fill="#ADECFE"/>
<path d="M194.4 159.645C191.393 164.281 187.274 168.09 182.419 170.728C177.563 173.365 172.125 174.746 166.6 174.745C148.3 174.745 133.4 159.845 133.4 141.545C133.4 133.345 136.3 125.845 141.3 120.145L158.1 132.645L177.5 147.145L194.4 159.645Z" fill="#008CB2"/>
<path d="M179 141.545C179 144.807 177.704 147.936 175.397 150.243C173.091 152.549 169.962 153.845 166.7 153.845C163.438 153.845 160.309 152.549 158.002 150.243C155.696 147.936 154.4 144.807 154.4 141.545C154.4 138.283 155.696 135.154 158.002 132.848C160.309 130.541 163.438 129.245 166.7 129.245C169.962 129.245 173.091 130.541 175.397 132.848C177.704 135.154 179 138.283 179 141.545Z" fill="white"/>
</svg>
