<svg width="499" height="296" viewBox="0 0 499 296" fill="none" xmlns="http://www.w3.org/2000/svg">
<mask id="mask0_639_1727" style="mask-type:luminance" maskUnits="userSpaceOnUse" x="0" y="0" width="499" height="296">
<path d="M0 0V296H261.212C265.387 274.174 310.626 241.958 379.536 243.848C448.855 245.769 471.861 281.374 481.117 296L498.405 295.728V0H0Z" fill="white"/>
</mask>
<g mask="url(#mask0_639_1727)">
<path opacity="0.1" d="M113.742 141.784C107.48 141.784 102.594 136.324 103.305 130.107C105.045 115.043 112.97 89.4658 145.731 78.4396C196.733 61.2876 319.732 37.6923 348.182 47.3875C372.05 55.5249 409.545 102.731 415.882 129.578C417.425 136.142 412.328 142.389 405.582 142.374L113.726 141.769L113.742 141.784Z" fill="#96ABC0"/>
<g opacity="0.23">
<path d="M459.443 172.458C458.505 160.101 447.192 145.021 432.778 143.221C420.284 141.663 103.88 142.208 92.854 143.584C78.4245 145.384 65.0841 160.464 64.1464 172.821C61.4692 208.078 60.123 289.058 60.123 303.367L463.451 303.003C463.451 288.695 462.12 207.7 459.428 172.458H459.443Z" fill="#96ABC0"/>
</g>
<path d="M285.171 82.8263L277.578 178.811L349.786 176.905L340.287 76.1863L313.274 52.2129L285.171 82.8263Z" fill="#9EA8AD"/>
<g style="mix-blend-mode:multiply" opacity="0.2">
<path opacity="0.2" d="M260.169 294.684C260.955 298.632 263.285 302.216 267.141 304.031C267.625 305.302 268.276 306.83 268.427 307.162C268.956 308.267 270.197 309.749 270.666 311.155C271.422 313.288 272.556 315.285 273.161 316.434C271.649 317.16 270.045 316.661 268.926 314.392C267.988 312.713 267.429 311.05 266.612 311.292C266.143 311.503 266.521 312.94 267.429 316.086C268.215 318.627 269.44 322.59 270.212 326.054C270.787 328.202 268.654 328.58 267.943 327.234C266.733 324.844 265.115 318.854 264.434 317.841C264.207 317.463 263.844 317.705 263.859 318.007C264.283 320.972 268.397 327.778 266.068 328.625C265.735 328.655 265.447 328.595 265.16 328.413C264.752 328.126 264.389 327.536 263.965 326.583C263.89 326.326 263.769 326.084 263.678 325.842C262.634 323.15 261.666 320.457 260.97 319.111C260.834 318.733 260.396 318.612 260.305 318.96C260.169 319.157 260.819 320.851 261.47 322.772C262.422 325.479 263.527 328.761 262.589 329.124C261.636 329.517 260.955 328.126 260.184 326.25C258.838 323.059 257.628 318.567 257.401 318.416C257.174 318.325 256.811 318.34 256.947 318.688C257.234 319.852 258.006 322.893 258.46 324.98C258.671 326.054 257.734 326.689 257.219 326.175C256.161 324.254 254.935 320.155 253.862 317.251C251.895 311.866 251.85 306.088 250.095 300.991C249.808 300.038 249.49 299.388 249.021 298.269C252.757 297.573 256.524 296.302 260.154 294.699L260.169 294.684Z" fill="#7D3561"/>
</g>
<path d="M269.97 302.338C266.279 282.811 271.996 260.274 272.813 257.673C272.813 257.673 350.995 265.553 354.535 269.077C362.143 268.124 390.638 263.375 388.748 294.73C388.657 296.287 378.432 322.333 372.594 324.193C357.333 329.018 295.017 328.005 295.002 327.99C283.28 327.052 272.511 315.799 269.97 302.338Z" fill="#669198"/>
<mask id="mask1_639_1727" style="mask-type:luminance" maskUnits="userSpaceOnUse" x="268" y="257" width="117" height="72">
<path d="M269.97 302.338C266.279 282.811 271.996 260.274 272.813 257.673C272.813 257.673 386.842 261.469 384.936 292.839C384.845 294.397 378.417 322.348 372.579 324.193C357.318 329.018 295.002 328.005 294.987 327.99C283.265 327.052 272.495 315.799 269.954 302.338H269.97Z" fill="white"/>
</mask>
<g mask="url(#mask1_639_1727)">
<path d="M261.802 285.7C270.922 303.291 270.922 311.837 292.778 311.837C314.634 311.837 301.324 289.981 331.741 289.981C356.47 289.981 355.502 327.99 355.502 327.99L268.926 329.215L261.817 285.7H261.802Z" fill="#547B7F"/>
</g>
<g style="mix-blend-mode:multiply" opacity="0.5">
<path d="M340.181 201.543L296.439 203.207C289.995 203.373 286.169 201.044 281.843 197.157C281.344 196.718 278.243 231.098 357.953 217.349C358.376 217.273 362.037 187.34 362.037 187.34C362.037 187.34 358.195 201.619 340.181 201.543Z" fill="#004753"/>
</g>
<path d="M342.192 163.609L383.045 218.726C383.121 218.786 398.882 210.044 400.031 209.499C400.092 209.348 396.915 201.74 391.591 191.334C391.561 191.334 391.561 191.273 391.531 191.258C383.167 174.938 375.528 156.697 361.174 144.612C359.843 143.432 346.216 160.327 342.162 163.625L342.192 163.609Z" fill="#EACB92"/>
<path d="M292.643 171.111L255.556 239.099C255.556 239.099 234.562 231.506 233.322 231.158C233.231 231.007 235.031 222.975 238.464 211.798C238.479 211.798 238.464 211.737 238.51 211.722C243.894 194.192 253.196 169.069 265.206 154.655C266.31 153.248 288.075 168.57 292.628 171.111H292.643Z" fill="#EACB92"/>
<path d="M285.11 149.165C277.094 145.535 267.641 149.089 264.011 157.121C260.381 165.137 263.935 174.59 271.966 178.22C279.983 181.85 289.436 178.296 293.066 170.265C296.696 162.233 293.142 152.78 285.11 149.165Z" fill="#AF865E"/>
<path d="M242.669 222.673C236.256 223.898 232.036 230.085 233.246 236.498C234.456 242.911 240.642 247.116 247.055 245.89C253.484 244.665 257.703 238.479 256.478 232.066C255.268 225.653 249.082 221.448 242.654 222.658L242.669 222.673Z" fill="#EACB92"/>
<path d="M234.214 246.496C238.359 271.392 243.562 286.003 245.982 291.856C246.768 293.943 247.207 294.684 247.6 295.97C249.355 301.052 249.415 306.845 251.366 312.23C252.44 315.134 253.665 319.233 254.724 321.154C255.238 321.668 256.191 321.033 255.965 319.959C255.496 317.871 254.739 314.831 254.452 313.667C254.331 313.319 254.694 313.304 254.906 313.394C255.118 313.561 256.343 318.038 257.689 321.229C258.46 323.12 259.141 324.496 260.094 324.103C261.031 323.74 259.927 320.458 258.974 317.75C258.324 315.829 257.674 314.135 257.81 313.939C257.901 313.591 258.339 313.697 258.475 314.09C259.171 315.436 260.139 318.144 261.183 320.821C261.289 321.078 261.394 321.32 261.47 321.562C261.909 322.53 262.257 323.12 262.665 323.392C262.952 323.574 263.225 323.619 263.572 323.604C265.902 322.757 261.788 315.935 261.364 312.986C261.334 312.683 261.712 312.441 261.939 312.82C262.62 313.833 264.238 319.823 265.448 322.212C266.159 323.558 268.292 323.18 267.717 321.033C266.945 317.569 265.705 313.606 264.934 311.065C264.026 307.919 263.633 306.497 264.117 306.27C264.934 306.013 265.509 307.692 266.431 309.371C267.55 311.64 269.139 312.139 270.666 311.413C270.046 310.263 268.927 308.267 268.171 306.134C267.702 304.743 266.461 303.245 265.932 302.141C265.705 301.672 264.404 298.557 264.132 297.558C258.869 278.304 258.037 249.99 258.143 245.452C258.294 238.706 256.509 232.414 256.509 232.414L233.11 235.515C233.231 238.51 233.322 240.975 234.23 246.496H234.214Z" fill="#EACB92"/>
<g style="mix-blend-mode:multiply" opacity="0.67">
<path d="M258.112 242.2C258.233 243.97 258.158 248.583 258.294 251.381C258.475 254.89 260.668 282.721 262.589 293.338C257.613 284.309 246.889 257.31 250.429 235.545C250.383 235.787 250.474 235.273 250.429 235.545C250.625 234.32 250.534 234.713 250.792 233.503C257.129 204.175 276.429 174.938 276.429 174.938L277.609 198.806L256.932 235.636L258.112 242.2Z" fill="#EACB92"/>
</g>
<path d="M373.744 151.706C367.891 143.054 362.627 138.29 361.099 137.685C361.084 137.655 361.054 137.624 361.039 137.609C353.703 133.525 325.071 127.899 325.071 127.899C325.071 127.899 317.388 127.309 314.65 127.4L314.71 128.746C311.292 128.7 301.718 128.504 301.718 128.504C301.718 128.504 273.373 138.91 266.143 143.19C266.143 143.19 252.516 159.284 246.692 179.808L275.188 200.409C279.817 226.016 267.142 265.235 267.142 297.558C372.625 249.097 383.076 275.702 383.076 275.702C369.766 247.191 353.612 230.085 362.4 192.71L387.826 177.827C387.826 177.827 381.17 162.626 373.774 151.676L373.744 151.706Z" fill="white"/>
<path d="M324.254 105.997L300.432 106.602L300.977 123.921C301.007 125.252 294.7 131.287 288.997 133.177C285.277 134.418 291.841 150.284 312.759 150.284C333.677 150.284 346.942 132.33 342.223 131.271C333.677 129.366 325.116 126.522 325.116 126.522L324.284 105.982L324.254 105.997Z" fill="#EACB92"/>
<path d="M359.768 134.236L348.424 130.984C348.424 130.984 272.541 274.371 270.257 277.653C269.773 278.349 268.291 298.435 268.291 298.435L277.896 296.983C277.896 296.983 357.772 140.906 359.753 134.236H359.768Z" fill="black"/>
<path d="M295.274 129.2C295.274 129.2 304.455 245.18 319.384 243.425C335.538 241.52 332.694 127.491 332.694 127.491" stroke="#669198" stroke-width="1.5819" stroke-miterlimit="10"/>
<g style="mix-blend-mode:multiply" opacity="0.67">
<path d="M300.961 108.025C301.476 108.176 305.998 129.154 325.101 126.765L324.209 106.255L300.946 108.04L300.961 108.025Z" fill="#EACB92"/>
</g>
<path d="M391.849 349.164C392.166 329.123 388.748 289.979 388.748 289.979L349.498 291.9C349.498 291.9 350.043 305.12 360.434 355.502C366.378 384.3 373.305 419.33 377.616 431.99L392.65 429.162C390.155 402.708 391.334 381.487 391.849 349.179V349.164Z" fill="#669198"/>
<path d="M388.703 289.905C388.143 300.84 379.007 309.204 368.344 308.645C357.666 308.07 349.453 298.753 350.012 287.817C350.587 276.897 359.708 268.502 370.371 269.077C381.049 269.652 389.247 278.969 388.687 289.889L388.703 289.905Z" fill="#669198"/>
<path d="M313.379 166.453H294.684C293.632 166.453 292.778 167.306 292.778 168.358V206.277C292.778 207.33 293.632 208.183 294.684 208.183H313.379C314.431 208.183 315.285 207.33 315.285 206.277V168.358C315.285 167.306 314.431 166.453 313.379 166.453Z" fill="#9AED66"/>
<path d="M349.861 321.94C350.738 312.789 348.772 306.845 347.895 302.338C345.989 292.657 336.354 287.575 326.871 290.268C318.264 292.703 314.044 300.16 311.791 314.695C309.537 329.23 308.962 355.2 313.424 368.45C319.61 386.812 328.867 444.061 328.897 445.83L342.601 444.726C342.601 444.726 349.256 328.383 349.876 321.94H349.861Z" fill="#669198"/>
<mask id="mask2_639_1727" style="mask-type:luminance" maskUnits="userSpaceOnUse" x="310" y="289" width="41" height="157">
<path d="M349.861 321.94C350.27 318.658 350.739 315.633 349.468 305.665C349.362 304.637 349.181 303.608 348.893 302.58C346.201 293.096 336.339 287.576 326.856 290.268C318.25 292.703 314.03 300.16 311.776 314.695C309.522 329.23 308.948 355.2 313.41 368.45C319.596 386.812 328.852 444.061 328.883 445.83L342.586 444.726C342.586 444.726 349.075 328.368 349.861 321.94Z" fill="white"/>
</mask>
<g mask="url(#mask2_639_1727)">
<path d="M316.526 297.588C315.573 298.541 323.181 289.043 338.382 295.682C351.056 301.233 349.786 337.489 349.786 337.489L364.987 322.288L369.736 285.231L334.57 281.435L313.667 284.278L316.511 297.588H316.526Z" fill="#547B7F"/>
</g>
<path d="M396.81 204.281C401.665 208.637 402.089 216.109 397.733 220.964C393.377 225.819 385.905 226.243 381.05 221.887C376.179 217.531 375.771 210.074 380.127 205.204C384.483 200.334 391.955 199.925 396.825 204.281H396.81Z" fill="#EACB92"/>
<path d="M389.278 200.59C389.278 200.59 383.016 198.684 376.27 198.73C386.359 198.669 353.703 200.424 324.27 191.863C323.271 191.576 320.186 190.214 319.717 189.987C318.628 189.443 317.146 188.172 315.769 187.688C313.652 186.887 311.67 185.737 310.536 185.087C309.795 186.584 310.264 188.188 312.517 189.352C314.181 190.305 315.845 190.91 315.588 191.712C315.361 192.181 313.939 191.772 310.808 190.804C308.267 189.987 304.335 188.672 300.886 187.855C298.738 187.235 298.33 189.367 299.661 190.093C302.036 191.334 307.995 193.073 308.993 193.769C309.371 193.996 309.114 194.359 308.827 194.328C305.878 193.86 299.117 189.624 298.239 191.939C298.209 192.271 298.239 192.559 298.436 192.846C298.708 193.255 299.298 193.633 300.251 194.071C300.493 194.162 300.75 194.283 300.992 194.389C303.654 195.478 306.346 196.491 307.693 197.202C308.071 197.353 308.177 197.777 307.829 197.868C307.632 198.004 305.938 197.323 304.032 196.643C301.325 195.644 298.073 194.495 297.695 195.433C297.286 196.37 298.648 197.081 300.538 197.883C303.715 199.274 308.161 200.56 308.328 200.787C308.419 201.014 308.388 201.377 308.056 201.241C306.891 200.923 303.866 200.106 301.794 199.607C300.735 199.365 300.085 200.303 300.584 200.832C302.489 201.936 306.573 203.222 309.462 204.341C314.816 206.398 320.594 206.534 325.661 208.38C326.932 208.803 327.673 209.242 329.745 210.074C335.553 212.6 350.073 218.03 374.909 222.597C380.414 223.611 383.908 224.246 386.888 224.412" fill="#EACB92"/>
<path d="M290.797 84.2025C293.459 102.05 300.099 118.779 311.746 119.021C322.424 119.232 330.017 101.672 331.756 83.7034C334.01 60.4862 323.846 53.2563 310.959 53.2563C298.057 53.2563 287.621 62.8608 290.812 84.2025H290.797Z" fill="#EACB92"/>
<path d="M331.786 81.0565C331.786 81.0565 333.904 79.1356 335.069 81.6464C335.371 82.2968 335.416 83.3707 335.19 87.515C334.978 91.2207 331.696 92.1131 330.228 90.6308C330.183 90.5854 331.801 81.0717 331.801 81.0717L331.786 81.0565Z" fill="#EACB92"/>
<g style="mix-blend-mode:multiply">
<path d="M317.463 86.3499C318.407 86.3499 319.172 85.5847 319.172 84.6408C319.172 83.6969 318.407 82.9316 317.463 82.9316C316.519 82.9316 315.754 83.6969 315.754 84.6408C315.754 85.5847 316.519 86.3499 317.463 86.3499Z" fill="#004753"/>
</g>
<g style="mix-blend-mode:multiply">
<path d="M299.102 86.3499C300.046 86.3499 300.811 85.5847 300.811 84.6408C300.811 83.6969 300.046 82.9316 299.102 82.9316C298.158 82.9316 297.393 83.6969 297.393 84.6408C297.393 85.5847 298.158 86.3499 299.102 86.3499Z" fill="#004753"/>
</g>
<g style="mix-blend-mode:multiply" opacity="0.67">
<path d="M305.106 96.9378C308.903 99.7813 311.807 96.968 311.807 96.968L307.33 95.0471C307.405 94.669 307.889 83.0528 307.95 83.1436L305.122 96.9378H305.106Z" fill="#EACB92"/>
</g>
<g style="mix-blend-mode:multiply" opacity="0.67">
<path d="M331.182 83.7491C331.182 83.7491 331.242 83.8852 331.318 83.855C331.393 83.8247 331.424 83.7491 331.469 83.6886C331.711 83.371 332.256 83.4315 332.528 83.7189C332.8 84.0062 332.891 84.4297 332.982 84.823C333.118 85.549 333.269 86.3204 333.012 87.0313C332.77 87.727 331.983 88.3018 331.288 88.0295" fill="#EACB92"/>
</g>
<path d="M316.45 103.548C314.892 103.502 305.893 103.548 305.893 103.548C306.089 105.468 308.781 107.087 311.307 107.162C313.667 107.238 316.389 105.287 316.45 103.548Z" fill="white"/>
<path d="M285.171 88.5281C285.171 88.5281 299.086 84.0359 306.891 71.8753C314.68 59.7146 312.684 49.3085 312.684 49.3085C312.684 49.3085 298.995 46.949 290.329 58.2021C283.069 67.6554 285.035 84.8225 285.171 88.5281Z" fill="#AAB8C1"/>
<path d="M341.24 89.481C341.24 89.481 319.581 81.6915 311.776 69.5309C303.987 57.3702 304.168 49.5808 304.168 49.5808C304.168 49.5808 327.204 46.949 335.916 58.2172C343.206 67.6402 341.361 85.7753 341.225 89.4961L341.24 89.481Z" fill="#AAB8C1"/>
<path d="M211.95 218.695C211.95 218.695 215.172 207.019 219.12 199.244C221.782 194.026 230.479 176.314 235.107 150.934C235.349 149.603 235.561 145.262 235.561 144.567C235.561 142.994 234.956 140.559 235.182 138.683C235.485 135.764 235.288 132.814 235.213 131.136C237.376 131.136 238.964 132.618 239.009 135.885C239.145 138.365 238.873 140.634 239.962 140.785C240.628 140.801 240.991 138.925 241.686 134.75C242.201 131.347 242.957 126.038 243.985 121.561C244.515 118.733 247.207 119.489 247.298 121.455C247.358 124.904 245.921 132.799 246.148 134.357C246.194 134.932 246.753 134.826 246.905 134.478C248.054 130.788 247.071 120.548 250.262 120.85C250.671 121.002 250.973 121.229 251.185 121.607C251.503 122.166 251.593 123.044 251.548 124.405C251.518 124.738 251.503 125.101 251.487 125.448C251.2 129.169 250.807 132.86 250.898 134.826C250.837 135.355 251.276 135.718 251.578 135.371C251.835 135.234 252.032 132.875 252.334 130.289C252.743 126.598 253.287 122.151 254.588 122.257C255.919 122.333 255.934 124.314 255.783 126.961C255.571 131.438 254.482 137.322 254.649 137.639C254.845 137.881 255.284 138.048 255.329 137.594C255.632 136.066 256.433 132.104 257.069 129.411C257.401 128.05 258.869 127.838 259.171 128.731C259.337 131.559 258.475 137.034 258.112 141.012C257.386 148.393 254.225 155.154 253.439 162.067C253.197 163.776 253.287 164.895 253.045 167.754C252.607 175.921 248.281 194.692 244.212 214.506C242.745 221.599 241.308 225.789 238.934 229.57" fill="#7A5334"/>
<path d="M186.796 185.541C194.873 206.746 212.494 230.462 219.875 234.335C229.827 239.553 233.095 237.874 238.766 230.629C244.438 223.384 210.497 174.756 203.812 168.268C198.049 162.671 184.331 179.112 186.796 185.556V185.541Z" fill="#7A5334"/>
<path d="M199.608 161.613C184.876 158.482 174.485 181.049 183.741 195.267C194.299 211.481 199.335 216.412 199.335 216.412L216.518 183.106C216.518 183.106 202.542 162.233 199.592 161.613H199.608Z" fill="#054752"/>
<path d="M151.374 60.849C150.148 61.0003 149.044 60.1079 148.893 58.8979L147.865 50.2463C147.728 49.0211 148.606 47.917 149.816 47.7658C151.041 47.6145 152.145 48.5069 152.296 49.7169L153.325 58.3685C153.476 59.5937 152.584 60.6978 151.374 60.849Z" fill="#041E21"/>
<path d="M144.643 63.5259C143.418 63.4654 142.465 62.4066 142.525 61.1815L142.979 52.4845C143.039 51.2594 144.098 50.3065 145.323 50.367C146.549 50.4275 147.501 51.4863 147.441 52.7114L146.987 61.4084C146.927 62.6335 145.868 63.5864 144.643 63.5259Z" fill="#041E21"/>
<path d="M158.724 58.3685C157.529 58.1114 156.743 56.9317 157 55.7368L158.77 47.2061C159.027 46.0113 160.206 45.2247 161.401 45.4819C162.596 45.739 163.383 46.9188 163.126 48.1137L161.356 56.6443C161.114 57.8392 159.919 58.6257 158.724 58.3685Z" fill="#041E21"/>
<path d="M154.867 60.7583C153.642 60.6978 152.689 59.6391 152.75 58.4139L153.204 49.7169C153.264 48.4918 154.323 47.5389 155.548 47.5994C156.773 47.6599 157.726 48.7187 157.665 49.9438L157.212 58.6408C157.151 59.8659 156.092 60.8188 154.867 60.7583Z" fill="#041E21"/>
<path d="M167.134 59.367C165.97 58.9586 165.365 57.6881 165.773 56.5234L168.647 48.2953C169.055 47.1307 170.326 46.5257 171.49 46.9341C172.655 47.3424 173.26 48.613 172.852 49.7776L169.978 58.0057C169.569 59.1703 168.299 59.7753 167.134 59.367Z" fill="#041E21"/>
<path d="M164.442 59.6541C163.247 59.4121 162.461 58.2172 162.703 57.0223L164.442 48.4917C164.684 47.2968 165.879 46.5103 167.074 46.7523C168.269 46.9943 169.056 48.1892 168.814 49.3841L167.074 57.9147C166.832 59.1095 165.637 59.8961 164.442 59.6541Z" fill="#041E21"/>
<path d="M169.04 61.5448C167.966 60.9549 167.573 59.5936 168.178 58.5197L172.398 50.8966C172.988 49.8227 174.349 49.4295 175.423 50.0194C176.497 50.6092 176.89 51.9856 176.3 53.0444L172.08 60.6675C171.491 61.7414 170.129 62.1346 169.055 61.5296" fill="#041E21"/>
<path d="M143.433 81.9938C143.584 83.2038 142.722 84.3382 141.512 84.4894L132.875 85.6087C131.665 85.76 130.531 84.8978 130.38 83.6878C130.228 82.4778 131.09 81.3434 132.3 81.1921L140.937 80.0729C142.147 79.9216 143.281 80.7838 143.433 81.9938Z" fill="#041E21"/>
<path d="M146.171 88.695C146.126 89.9201 145.082 90.8881 143.857 90.8276L135.16 90.4798C133.935 90.4344 132.967 89.3907 133.027 88.1656C133.072 86.9405 134.116 85.9725 135.341 86.033L144.038 86.3808C145.263 86.4262 146.231 87.4698 146.171 88.695Z" fill="#041E21"/>
<path d="M145.021 74.4921C144.779 75.7022 143.615 76.4887 142.405 76.2467L133.859 74.5829C132.649 74.3409 131.862 73.1762 132.104 71.9662C132.346 70.7562 133.511 69.9697 134.721 70.2117L143.267 71.8755C144.477 72.1175 145.263 73.2821 145.021 74.4921Z" fill="#041E21"/>
<path d="M143.282 78.5002C143.237 79.7253 142.193 80.6933 140.968 80.6328L132.271 80.2849C131.046 80.2396 130.078 79.1959 130.138 77.9708C130.184 76.7457 131.227 75.7776 132.453 75.8381L141.15 76.186C142.375 76.2314 143.343 77.275 143.282 78.5002Z" fill="#041E21"/>
<path d="M145.717 65.6284C145.324 66.793 144.054 67.4283 142.889 67.035L134.631 64.252C133.466 63.8587 132.831 62.5882 133.224 61.4236C133.617 60.2589 134.888 59.6237 136.052 60.0169L144.311 62.8C145.475 63.1932 146.111 64.4637 145.717 65.6284Z" fill="#041E21"/>
<path d="M143.524 70.408C142.949 71.4819 141.588 71.8903 140.499 71.3155L132.83 67.1863C131.756 66.6116 131.348 65.2503 131.923 64.1613C132.497 63.0723 133.859 62.679 134.948 63.2538L142.616 67.383C143.69 67.9577 144.098 69.319 143.524 70.408Z" fill="#041E21"/>
<path d="M150.436 59.5931C149.695 60.5763 148.288 60.7729 147.305 60.0317L140.362 54.7833C139.379 54.0422 139.183 52.6355 139.924 51.6524C140.665 50.6693 142.071 50.4726 143.055 51.2138L149.997 56.4622C150.98 57.2033 151.177 58.61 150.436 59.5931Z" fill="#041E21"/>
<path d="M147.123 62.4221C146.549 63.496 145.187 63.9044 144.098 63.3296L136.43 59.2004C135.356 58.6257 134.948 57.2644 135.522 56.1754C136.097 55.1015 137.458 54.6931 138.547 55.2679L146.216 59.3971C147.29 59.9718 147.698 61.3331 147.123 62.4221Z" fill="#041E21"/>
<path d="M174.485 83.6119C174.197 84.8068 174.938 86.0168 176.133 86.3042L184.603 88.3158C185.798 88.6032 187.008 87.8621 187.296 86.6672C187.583 85.4723 186.842 84.2623 185.647 83.9749L177.177 81.9633C175.982 81.6759 174.772 82.417 174.485 83.6119Z" fill="#041E21"/>
<path d="M171.051 89.9797C170.976 91.2049 171.913 92.2636 173.138 92.3544L181.835 92.914C183.061 92.9896 184.119 92.0519 184.21 90.8267C184.286 89.6016 183.348 88.5428 182.123 88.4521L173.426 87.8925C172.201 87.8168 171.142 88.7546 171.051 89.9797Z" fill="#041E21"/>
<path d="M173.669 75.9894C173.774 77.2145 174.863 78.122 176.089 78.0161L184.77 77.2447C185.996 77.1389 186.903 76.0499 186.797 74.8247C186.691 73.5996 185.602 72.6921 184.377 72.7979L175.695 73.5693C174.47 73.6752 173.563 74.7642 173.669 75.9894Z" fill="#041E21"/>
<path d="M174.984 80.1492C174.908 81.3743 175.846 82.4331 177.071 82.5238L185.768 83.0835C186.993 83.1591 188.052 82.2213 188.143 80.9962C188.218 79.771 187.281 78.7123 186.055 78.6215L177.358 78.0619C176.133 77.9863 175.075 78.924 174.984 80.1492Z" fill="#041E21"/>
<path d="M173.911 67.0955C174.183 68.2904 175.378 69.0467 176.573 68.7895L185.073 66.8838C186.268 66.6115 187.024 65.4166 186.767 64.2217C186.495 63.0268 185.3 62.2706 184.105 62.5277L175.605 64.4335C174.41 64.7057 173.653 65.9006 173.911 67.0955Z" fill="#041E21"/>
<path d="M175.589 72.0718C176.058 73.2062 177.359 73.7507 178.493 73.2819L186.555 69.9694C187.689 69.5006 188.234 68.1998 187.765 67.0654C187.296 65.931 185.995 65.3865 184.861 65.8554L176.799 69.1678C175.665 69.6367 175.12 70.9375 175.589 72.0718Z" fill="#041E21"/>
<path d="M169.842 60.5918C170.477 61.6355 171.853 61.9834 172.897 61.3481L180.354 56.8408C181.397 56.2055 181.745 54.8291 181.11 53.7855C180.475 52.7419 179.098 52.394 178.055 53.0292L170.598 57.5365C169.554 58.1718 169.206 59.5482 169.842 60.5918Z" fill="#041E21"/>
<path d="M172.836 63.753C173.305 64.8874 174.606 65.4319 175.74 64.963L183.802 61.6506C184.936 61.1817 185.481 59.8809 185.012 58.7466C184.543 57.6122 183.242 57.0677 182.108 57.5365L174.046 60.849C172.912 61.3178 172.367 62.6186 172.836 63.753Z" fill="#041E21"/>
<path d="M172.338 109.93L140.892 109.431L138.76 166.846L171.99 173.849L172.338 109.93Z" fill="#7A5334"/>
<path d="M145.021 141.421L120.186 152.13C120.186 152.13 119.944 179.824 153.869 181.578C187.795 183.348 191.697 158.043 191.697 158.043L169.6 142.071L145.021 141.421Z" fill="#7A5334"/>
<g style="mix-blend-mode:multiply" opacity="0.65">
<mask id="mask3_639_1727" style="mask-type:luminance" maskUnits="userSpaceOnUse" x="139" y="112" width="35" height="39">
<path d="M141.034 112.177L139.145 148.474L171.665 150.167L173.555 113.87L141.034 112.177Z" fill="white"/>
</mask>
<g mask="url(#mask3_639_1727)">
<path d="M140.907 114.316C141.648 114.603 140.151 148.635 171.657 150.148L172.141 113.787L140.907 114.316Z" fill="#7A5334"/>
</g>
</g>
<path d="M155.26 130.077C144.748 129.533 136.717 118.204 137.261 107.692L139.092 72.6016C139.561 63.6626 147.244 56.7352 156.168 57.2041L161.9 57.5066C170.824 57.9755 177.752 65.6591 177.298 74.583L175.468 109.673C174.923 120.185 165.757 130.607 155.245 130.062" fill="#7A5334"/>
<path d="M147.184 78.9993C148.908 77.033 152.009 76.8364 154.277 79.5892L147.184 78.9993Z" fill="#041E21"/>
<path d="M165.334 80.376C167.739 77.8047 171.021 78.5912 172.745 80.8751L165.334 80.376Z" fill="#041E21"/>
<path d="M139.651 90.8878C139.651 90.8878 137.005 87.1519 135.386 89.5417C134.963 90.1618 134.993 93.0356 135.114 96.953C135.189 99.5243 136.324 101.46 138.094 100.175C138.139 100.144 139.651 90.8878 139.651 90.8878Z" fill="#7A5334"/>
<path d="M174.682 92.8541C174.682 92.8541 177.54 89.2694 179.007 91.75C179.386 92.3852 179.204 95.259 178.871 99.1613C178.66 101.733 177.404 103.593 175.725 102.217C175.68 102.171 174.682 92.8541 174.682 92.8541Z" fill="#7A5334"/>
<path d="M145.687 88.0891C146.836 86.3497 154.807 88.558 156.274 92.1124L145.687 88.0891Z" fill="#041E21"/>
<path d="M163.353 93.3226C165.44 88.2859 171.293 86.0927 172.76 88.1498L163.353 93.3226Z" fill="#041E21"/>
<g style="mix-blend-mode:multiply" opacity="0.65">
<mask id="mask4_639_1727" style="mask-type:luminance" maskUnits="userSpaceOnUse" x="154" y="82" width="12" height="27">
<path d="M155.574 82.9345L154.255 108.265L164.677 108.808L165.996 83.477L155.574 82.9345Z" fill="white"/>
</mask>
<g mask="url(#mask4_639_1727)">
<path d="M165.092 100.659C164.366 114.74 154.368 105.771 154.368 105.771L159.45 106.195C159.39 105.801 160.418 83.0985 160.373 83.1892C160.373 83.1892 165.863 85.6698 165.092 100.659Z" fill="#7A5334"/>
</g>
</g>
<path d="M164.32 110.974C164.199 111.276 162.037 115.859 157.454 115.284C150.435 114.407 150.375 109.824 150.375 109.824L164.32 110.959V110.974Z" fill="white"/>
<path d="M137.368 89.3142C137.368 89.3142 141.013 92.7174 141.8 88.1345C142.299 85.2153 143.751 76.8965 144.734 71.2397C145.324 67.8365 148.198 65.3106 151.646 65.1291C157.651 64.8114 168.239 64.9778 170.719 68.26C175.317 74.3706 169.388 91.6889 176.966 91.0083C180.762 90.6604 177.616 71.5875 177.072 64.0552C176.679 58.6404 166.968 53.1953 153.204 54.1633C142.178 54.9347 138.124 64.8114 138.124 64.8114L137.383 89.3142H137.368Z" fill="#041E21"/>
<g style="mix-blend-mode:multiply">
<mask id="mask5_639_1727" style="mask-type:luminance" maskUnits="userSpaceOnUse" x="136" y="92" width="3" height="5">
<path d="M136.584 92.3577L136.362 96.6172L138.311 96.7186L138.533 92.4591L136.584 92.3577Z" fill="white"/>
</mask>
<g mask="url(#mask5_639_1727)">
<path d="M138.108 92.6269C137.776 92.2488 137.125 92.4152 136.823 92.8236C136.52 93.2319 136.49 93.7462 136.475 94.2453C136.445 94.8655 136.43 95.5158 136.747 96.0452C137.05 96.5746 137.821 96.8922 138.305 96.5292" fill="#7A5334"/>
</g>
</g>
<g style="mix-blend-mode:multiply">
<mask id="mask6_639_1727" style="mask-type:luminance" maskUnits="userSpaceOnUse" x="176" y="93" width="3" height="7">
<path d="M176.374 93.6044L176.077 99.314L177.935 99.4107L178.232 93.7011L176.374 93.6044Z" fill="white"/>
</mask>
<g mask="url(#mask6_639_1727)">
<path d="M176.557 93.5947C177.268 93.9275 177.752 94.6384 177.948 95.3946C178.145 96.1509 178.084 96.9525 177.903 97.7239C177.797 98.1777 177.646 98.6465 177.328 98.9642C176.995 99.2969 176.451 99.4482 176.058 99.191" fill="#7A5334"/>
</g>
</g>
<g style="mix-blend-mode:multiply">
<mask id="mask7_639_1727" style="mask-type:luminance" maskUnits="userSpaceOnUse" x="153" y="121" width="8" height="3">
<path d="M153.895 121.574L153.804 123.326L160.087 123.653L160.179 121.901L153.895 121.574Z" fill="white"/>
</mask>
<g mask="url(#mask7_639_1727)">
<path d="M153.794 123.316C154.52 122.318 155.73 121.713 156.955 121.728C158.18 121.728 159.39 122.363 160.086 123.376" fill="#7A5334"/>
</g>
</g>
<path d="M200.742 161.992L179.93 149.544C179.93 149.544 183.817 157.318 156.879 155.911C129.941 154.505 132.134 146.413 132.134 146.413C132.134 146.413 113.863 151.464 105.514 155.563C105.483 155.563 105.468 155.594 105.438 155.639C103.714 156.214 95.4252 178.508 92.9447 208.123C89.5869 248.341 91.2053 316.284 91.2053 316.284L210.74 326.145C210.74 326.145 207.246 185.889 200.742 161.976V161.992Z" fill="#054752"/>
<path d="M116.328 149.559L127.823 146.896C127.823 146.896 196.159 294.019 198.261 297.422C198.7 298.148 198.564 298.98 198.564 298.98L189.988 309.205C189.988 309.205 117.947 156.319 116.328 149.559Z" fill="black"/>
<path d="M120.67 237.602C120.67 237.602 126.327 245.376 129.215 251.668C131.151 255.903 137.852 270.06 151.344 285.488C152.039 286.29 154.641 288.573 155.08 288.921C156.063 289.693 157.878 290.525 158.921 291.599C160.585 293.232 162.521 294.563 163.595 295.35C162.521 296.696 160.827 296.953 158.77 295.365C157.152 294.23 155.881 292.945 155.246 293.535C154.898 293.943 155.896 295.092 158.15 297.588C160.01 299.585 162.945 302.685 165.198 305.544C166.696 307.268 164.896 308.569 163.625 307.646C161.447 305.983 157.242 301.188 156.169 300.553C155.79 300.296 155.564 300.704 155.715 300.961C157.439 303.502 164.291 307.949 162.521 309.779C162.219 309.96 161.931 310.021 161.598 309.976C161.099 309.9 160.494 309.522 159.678 308.826C159.481 308.645 159.269 308.463 159.073 308.266C156.895 306.255 154.807 304.183 153.537 303.26C153.234 302.958 152.796 303.048 152.856 303.426C152.811 303.653 154.172 304.939 155.639 306.421C157.726 308.508 160.222 311.034 159.511 311.791C158.815 312.577 157.56 311.609 156.002 310.202C153.325 307.858 150.209 304.273 149.922 304.213C149.68 304.213 149.347 304.41 149.619 304.667C150.421 305.604 152.478 308.07 153.854 309.794C154.535 310.671 153.945 311.685 153.234 311.443C151.389 310.142 148.424 306.905 146.125 304.712C141.89 300.613 139.259 295.304 135.341 291.387C134.403 290.389 133.662 289.889 131.998 288.331C127.143 284.021 117.599 272.057 107.299 259.73C103.609 255.313 101.718 252.349 100.538 249.006" fill="#7A5334"/>
<path d="M88.2708 188.491C87.091 211.148 93.61 239.977 98.7979 246.496C105.801 255.284 109.461 255.087 117.583 250.731C125.706 246.39 114.316 188.203 110.822 179.567C107.813 172.125 88.6338 181.609 88.2708 188.491Z" fill="#7A5334"/>
<path d="M101.566 156.969C90.5703 163.035 88.604 174.091 87.0461 190.986C85.2614 210.255 86.1538 217.243 86.1538 217.243L128.096 211.844C128.096 211.844 126.447 143.236 101.566 156.954V156.969Z" fill="#054752"/>
<path d="M32.4292 193.92L46.299 237.768L41.4438 278.697C41.3984 278.803 14.4907 286.381 12.8572 286.562C12.6757 286.426 9.07585 269.229 7.83558 254.164C7.85071 254.134 7.83558 254.088 7.83558 254.043C5.86931 230.417 5.41556 228.254 12.9025 205.189C13.568 202.98 25.7438 193.058 32.4292 193.905V193.92Z" fill="#FCE1D8"/>
<path d="M12.433 294.775C17.7571 326.765 24.4424 345.55 27.5582 353.053C28.5716 355.73 29.1312 356.683 29.6455 358.331C31.8991 364.865 31.9747 372.307 34.4855 379.219C35.8619 382.94 37.4349 388.219 38.8113 390.684C39.4768 391.35 40.6868 390.533 40.4146 389.156C39.8247 386.479 38.8264 382.562 38.4634 381.08C38.2971 380.641 38.7659 380.611 39.0533 380.732C39.3407 380.943 40.8986 386.691 42.6229 390.805C43.6211 393.225 44.4984 395.01 45.7084 394.511C46.9184 394.042 45.4967 389.822 44.2715 386.343C43.4396 383.878 42.6077 381.685 42.7741 381.443C42.8951 381.004 43.4548 381.14 43.6211 381.624C44.5286 383.364 45.7538 386.827 47.0999 390.276C47.2361 390.593 47.3722 390.911 47.4781 391.229C48.0377 392.469 48.4914 393.225 49.0208 393.588C49.3838 393.815 49.7468 393.891 50.1855 393.845C53.1803 392.756 47.8864 383.999 47.3419 380.187C47.3117 379.809 47.7806 379.476 48.0679 379.975C48.9301 381.276 51.0325 388.975 52.5752 392.03C53.4979 393.755 56.2355 393.27 55.4944 390.503C54.4961 386.041 52.9231 380.959 51.9097 377.692C50.7451 373.653 50.246 371.823 50.851 371.536C51.8946 371.203 52.6357 373.351 53.8306 375.514C55.2675 378.418 57.3246 379.068 59.2757 378.145C58.4892 376.663 57.0372 374.092 56.054 371.369C55.4642 369.569 53.8609 367.648 53.1803 366.242C52.8929 365.637 51.214 361.644 50.8661 360.343C44.1051 335.598 43.0312 299.222 43.1674 293.384C43.364 284.717 41.065 276.64 41.065 276.64L10.9961 280.618C11.1473 284.46 11.2532 287.621 12.433 294.73V294.775Z" fill="#FCE1D8"/>
<path d="M136.263 98.3594C134.221 107.919 129.729 116.918 121.002 121.304C129.184 124.844 131.544 135.84 129.063 144.4C125.252 157.499 113.061 166.998 99.8566 170.476C86.6523 173.955 72.6161 172.216 59.4118 168.797C49.1721 166.135 38.9626 162.339 30.9462 155.442C24.9415 150.284 20.404 143.553 17.2579 136.293C15.1253 131.347 13.5825 126.008 14.0211 120.639C14.7925 111.034 22.098 102.625 31.1428 99.2669C40.1877 95.9091 50.5182 97.1947 59.1849 101.415C52.2425 100.159 43.6665 97.588 41.4431 90.8875C39.2197 84.1871 41.3675 75.0968 48.3402 71.7239C53.9365 69.0316 64.4183 71.1643 70.2415 74.8246C49.1569 69.44 57.2187 42.6533 76.5335 47.5841C90.1311 51.0478 96.5442 52.0158 108.841 55.1467C135.688 61.9984 138.048 90.1161 136.278 98.3745L136.263 98.3594Z" fill="#F6B241"/>
<g style="mix-blend-mode:multiply">
<path d="M66.7173 120.532C67.0047 121.652 67.3979 122.816 67.1559 123.951C66.8232 125.478 65.4317 126.522 64.1611 127.445C58.5648 131.544 53.4374 136.278 48.9301 141.541C45.058 146.064 41.4582 151.569 42.0481 157.498C42.638 163.291 47.3268 168.116 52.8021 170.098C58.2774 172.079 64.3729 171.61 70.0146 170.188C74.9908 168.933 79.9065 166.861 83.6121 163.291C87.3329 159.692 89.5715 154.836 91.3109 149.951C95.4854 138.229 97.255 125.66 96.4685 113.257C95.9543 105.075 91.1142 86.4403 79.1653 92.4601C70.786 96.6801 64.4183 111.79 66.7022 120.532H66.7173Z" fill="#F6B241"/>
</g>
<mask id="mask8_639_1727" style="mask-type:luminance" maskUnits="userSpaceOnUse" x="3" y="144" width="187" height="171">
<path d="M3.63037 229.162L40.2182 229.767C40.2182 229.767 44.0146 249.581 47.8413 271.754C50.9722 289.874 54.1485 310.611 54.9955 314.634L98.7678 314.15H99.872V314.135L144.733 311.851C146.548 300.598 148.484 257.612 152.069 226.863L189.61 224.155C189.61 224.155 195.372 151.176 148.273 155.457C148 155.487 147.758 155.578 147.516 155.744C132.497 150.541 112.138 144.778 112.138 144.778C112.138 144.778 103.2 143.977 96.136 144.188C92.5816 144.249 82.6746 145.519 82.6746 145.519C82.6746 145.519 82.0696 145.686 80.9806 145.973C74.8549 147.592 53.604 153.309 39.9611 158.194C-1.28532 157.317 3.6455 229.177 3.6455 229.177L3.63037 229.162Z" fill="white"/>
</mask>
<g mask="url(#mask8_639_1727)">
<path d="M3.63037 229.162L40.2182 229.767C40.2182 229.767 44.0146 249.581 47.8413 271.754C50.9722 289.874 54.1485 310.611 54.9955 314.634L98.7678 314.15H99.872V314.135L144.733 311.851C146.548 300.598 148.484 257.612 152.069 226.863L189.61 224.155C189.61 224.155 195.372 151.176 148.273 155.457C148 155.487 147.758 155.578 147.516 155.744C132.497 150.541 112.138 144.778 112.138 144.778C112.138 144.778 103.2 143.977 96.136 144.188C92.5816 144.249 82.6746 145.519 82.6746 145.519C82.6746 145.519 82.0696 145.686 80.9806 145.973C74.8549 147.592 53.604 153.309 39.9611 158.194C-1.28532 157.317 3.6455 229.177 3.6455 229.177L3.63037 229.162Z" fill="white"/>
<path d="M178.342 148.771C178.342 151.327 180.414 153.4 182.985 153.4C185.541 153.4 187.629 151.327 187.629 148.771V142.585C187.629 140.029 185.557 137.957 182.985 137.957C180.429 137.957 178.342 140.029 178.342 142.585V148.771Z" fill="#054752"/>
<path d="M124.118 183.438C124.118 185.495 126.19 187.174 128.746 187.174C131.303 187.174 133.375 185.495 133.375 183.438V178.462C133.375 176.405 131.303 174.726 128.746 174.726C126.19 174.726 124.118 176.405 124.118 178.462V183.438Z" fill="#054752"/>
<path d="M106.513 154.413C106.513 156.47 108.585 158.149 111.156 158.149C113.712 158.149 115.784 156.47 115.784 154.413V149.437C115.784 147.38 113.712 145.701 111.156 145.701C108.585 145.701 106.513 147.38 106.513 149.437V154.413Z" fill="#054752"/>
<path d="M156.667 177.448C156.667 179.505 158.739 181.184 161.295 181.184C163.867 181.184 165.939 179.505 165.939 177.448V172.472C165.939 170.415 163.867 168.736 161.295 168.736C158.739 168.736 156.667 170.415 156.667 172.472V177.448Z" fill="#054752"/>
<path d="M143.357 162.535C143.357 165.772 145.43 168.404 148.001 168.404C150.557 168.404 152.644 165.772 152.644 162.535V154.7C152.644 151.463 150.572 148.832 148.001 148.832C145.445 148.832 143.357 151.463 143.357 154.7V162.535Z" fill="#054752"/>
<path d="M178.342 191.984C178.342 194.541 180.414 196.613 182.985 196.613C185.541 196.613 187.629 194.541 187.629 191.984V185.798C187.629 183.242 185.557 181.17 182.985 181.17C180.429 181.17 178.342 183.242 178.342 185.798V191.984Z" fill="#054752"/>
<path d="M122.727 221.07C122.727 223.127 124.799 224.805 127.37 224.805C129.926 224.805 131.998 223.127 131.998 221.07V216.093C131.998 214.036 129.926 212.357 127.37 212.357C124.799 212.357 122.727 214.036 122.727 216.093V221.07Z" fill="#054752"/>
<path d="M97.9971 187.038C97.9971 189.095 100.069 190.774 102.625 190.774C105.197 190.774 107.269 189.095 107.269 187.038V182.062C107.269 180.005 105.197 178.326 102.625 178.326C100.069 178.326 97.9971 180.005 97.9971 182.062V187.038Z" fill="#054752"/>
<path d="M156.667 220.662C156.667 222.719 158.739 224.398 161.295 224.398C163.867 224.398 165.939 222.719 165.939 220.662V215.686C165.939 213.629 163.867 211.95 161.295 211.95C158.739 211.95 156.667 213.629 156.667 215.686V220.662Z" fill="#054752"/>
<path d="M143.357 205.763C143.357 209 145.43 211.632 148.001 211.632C150.557 211.632 152.644 209 152.644 205.763V197.928C152.644 194.691 150.572 192.06 148.001 192.06C145.445 192.06 143.357 194.691 143.357 197.928V205.763Z" fill="#054752"/>
<path d="M102.051 217.288C102.051 220.525 104.123 223.157 106.679 223.157C109.25 223.157 111.323 220.525 111.323 217.288V209.454C111.323 206.217 109.25 203.585 106.679 203.585C104.123 203.585 102.051 206.217 102.051 209.454V217.288Z" fill="#054752"/>
<path d="M76.1104 161.824C76.1104 164.38 78.1825 166.453 80.7387 166.453C83.2948 166.453 85.367 164.38 85.367 161.824V155.638C85.367 153.082 83.2948 151.01 80.7387 151.01C78.1825 151.01 76.1104 153.082 76.1104 155.638V161.824Z" fill="#054752"/>
<path d="M58.5801 166.21C58.5801 168.767 60.6522 170.839 63.2084 170.839C65.7645 170.839 67.8367 168.767 67.8367 166.21V160.024C67.8367 157.468 65.7645 155.396 63.2084 155.396C60.6522 155.396 58.5801 157.468 58.5801 160.024V166.21Z" fill="#054752"/>
<path d="M19.1191 183.756C19.1191 186.312 21.1913 188.384 23.7474 188.384C26.3036 188.384 28.3758 186.312 28.3758 183.756V177.57C28.3758 175.014 26.3036 172.941 23.7474 172.941C21.1913 172.941 19.1191 175.014 19.1191 177.57V183.756Z" fill="#054752"/>
<path d="M76.1104 205.702C76.1104 208.258 78.1825 210.331 80.7387 210.331C83.2948 210.331 85.367 208.258 85.367 205.702V199.516C85.367 196.96 83.2948 194.888 80.7387 194.888C78.1825 194.888 76.1104 196.96 76.1104 199.516V205.702Z" fill="#054752"/>
<path d="M20.4951 221.07C20.4951 223.127 22.5673 224.805 25.1234 224.805C27.6947 224.805 29.7669 223.127 29.7669 221.07V216.093C29.7669 214.036 27.6947 212.357 25.1234 212.357C22.5673 212.357 20.4951 214.036 20.4951 216.093V221.07Z" fill="#054752"/>
<path d="M54.4365 220.662C54.4365 222.719 56.5087 224.398 59.08 224.398C61.6361 224.398 63.7083 222.719 63.7083 220.662V215.686C63.7083 213.629 61.6361 211.95 59.08 211.95C56.5087 211.95 54.4365 213.629 54.4365 215.686V220.662Z" fill="#054752"/>
<path d="M41.126 205.763C41.126 209 43.1981 211.632 45.7543 211.632C48.3104 211.632 50.3826 209 50.3826 205.763V197.928C50.3826 194.691 48.3104 192.06 45.7543 192.06C43.1981 192.06 41.126 194.691 41.126 197.928V205.763Z" fill="#054752"/>
<path d="M-0.180664 217.288C-0.180664 220.525 1.89149 223.157 4.46277 223.157C7.01893 223.157 9.09108 220.525 9.09108 217.288V209.454C9.09108 206.217 7.01893 203.585 4.46277 203.585C1.89149 203.585 -0.180664 206.217 -0.180664 209.454V217.288Z" fill="#054752"/>
<path d="M178.342 233.124C178.342 235.68 180.414 237.752 182.985 237.752C185.541 237.752 187.629 235.68 187.629 233.124V226.938C187.629 224.382 185.557 222.31 182.985 222.31C180.429 222.31 178.342 224.382 178.342 226.938V233.124Z" fill="#054752"/>
<path d="M124.118 267.776C124.118 269.833 126.19 271.512 128.746 271.512C131.303 271.512 133.375 269.833 133.375 267.776V262.8C133.375 260.743 131.303 259.064 128.746 259.064C126.19 259.064 124.118 260.743 124.118 262.8V267.776Z" fill="#054752"/>
<path d="M106.513 244.241C106.513 246.298 108.585 247.977 111.156 247.977C113.712 247.977 115.784 246.298 115.784 244.241V239.265C115.784 237.208 113.712 235.529 111.156 235.529C108.585 235.529 106.513 237.208 106.513 239.265V244.241Z" fill="#054752"/>
<path d="M156.667 261.787C156.667 263.844 158.739 265.523 161.295 265.523C163.867 265.523 165.939 263.844 165.939 261.787V256.811C165.939 254.754 163.867 253.075 161.295 253.075C158.739 253.075 156.667 254.754 156.667 256.811V261.787Z" fill="#054752"/>
<path d="M143.357 246.888C143.357 250.125 145.43 252.757 148.001 252.757C150.557 252.757 152.644 250.125 152.644 246.888V239.053C152.644 235.816 150.572 233.185 148.001 233.185C145.445 233.185 143.357 235.816 143.357 239.053V246.888Z" fill="#054752"/>
<path d="M178.342 276.337C178.342 278.893 180.414 280.965 182.985 280.965C185.541 280.965 187.629 278.893 187.629 276.337V270.151C187.629 267.595 185.557 265.522 182.985 265.522C180.429 265.522 178.342 267.595 178.342 270.151V276.337Z" fill="#054752"/>
<path d="M97.9971 271.391C97.9971 273.448 100.069 275.127 102.625 275.127C105.197 275.127 107.269 273.448 107.269 271.391V266.415C107.269 264.358 105.197 262.679 102.625 262.679C100.069 262.679 97.9971 264.358 97.9971 266.415V271.391Z" fill="#054752"/>
<path d="M143.357 290.103C143.357 293.34 145.43 295.972 148.001 295.972C150.557 295.972 152.644 293.34 152.644 290.103V282.268C152.644 279.032 150.572 276.4 148.001 276.4C145.445 276.4 143.357 279.032 143.357 282.268V290.103Z" fill="#054752"/>
<path d="M102.05 301.629C102.05 304.866 104.122 307.498 106.678 307.498C109.249 307.498 111.322 304.866 111.322 301.629V293.794C111.322 290.558 109.249 287.926 106.678 287.926C104.122 287.926 102.05 290.558 102.05 293.794V301.629Z" fill="#054752"/>
<path d="M76.1104 249.581C76.1104 252.137 78.1825 254.209 80.7387 254.209C83.2948 254.209 85.367 252.137 85.367 249.581V243.394C85.367 240.838 83.2948 238.766 80.7387 238.766C78.1825 238.766 76.1104 240.838 76.1104 243.394V249.581Z" fill="#054752"/>
<path d="M21.8867 267.776C21.8867 269.833 23.9589 271.512 26.5302 271.512C29.0863 271.512 31.1736 269.833 31.1736 267.776V262.8C31.1736 260.743 29.1014 259.064 26.5302 259.064C23.974 259.064 21.8867 260.743 21.8867 262.8V267.776Z" fill="#054752"/>
<path d="M4.28125 238.751C4.28125 240.808 6.3534 242.487 8.90956 242.487C11.4808 242.487 13.553 240.808 13.553 238.751V233.775C13.553 231.718 11.4808 230.039 8.90956 230.039C6.3534 230.039 4.28125 231.718 4.28125 233.775V238.751Z" fill="#054752"/>
<path d="M54.4365 261.787C54.4365 263.844 56.5087 265.523 59.08 265.523C61.6361 265.523 63.7083 263.844 63.7083 261.787V256.811C63.7083 254.754 61.6361 253.075 59.08 253.075C56.5087 253.075 54.4365 254.754 54.4365 256.811V261.787Z" fill="#054752"/>
<path d="M41.126 246.888C41.126 250.125 43.1981 252.757 45.7543 252.757C48.3104 252.757 50.3826 250.125 50.3826 246.888V239.053C50.3826 235.816 48.3104 233.185 45.7543 233.185C43.1981 233.185 41.126 235.816 41.126 239.053V246.888Z" fill="#054752"/>
<path d="M76.1104 293.461C76.1104 296.018 78.1825 298.09 80.7387 298.09C83.2948 298.09 85.367 296.018 85.367 293.461V287.275C85.367 284.719 83.2948 282.647 80.7387 282.647C78.1825 282.647 76.1104 284.719 76.1104 287.275V293.461Z" fill="#054752"/>
<path d="M-4.23438 271.391C-4.23438 273.448 -2.16223 275.127 0.409055 275.127C2.96521 275.127 5.03737 273.448 5.03737 271.391V266.415C5.03737 264.358 2.96521 262.679 0.409055 262.679C-2.16223 262.679 -4.23438 264.358 -4.23438 266.415V271.391Z" fill="#054752"/>
<path d="M41.126 290.103C41.126 293.34 43.1981 295.972 45.7543 295.972C48.3104 295.972 50.3826 293.34 50.3826 290.103V282.268C50.3826 279.032 48.3104 276.4 45.7543 276.4C43.1981 276.4 41.126 279.032 41.126 282.268V290.103Z" fill="#054752"/>
<path d="M-0.180664 301.629C-0.180664 304.866 1.89149 307.498 4.46277 307.498C7.01893 307.498 9.09108 304.866 9.09108 301.629V293.794C9.09108 290.558 7.01893 287.926 4.46277 287.926C1.89149 287.926 -0.180664 290.558 -0.180664 293.794V301.629Z" fill="#054752"/>
</g>
<path d="M106.482 157.045C106.482 157.045 107.465 186.917 106.104 192.075C104.728 197.233 103.049 198.337 99.5547 198.337C96.0608 198.337 95.0323 194.797 94.1399 191.818C93.2324 188.838 89.2998 157.983 89.2998 157.983C89.2998 157.983 91.9618 160.115 96.5296 160.1C101.914 160.1 106.497 157.045 106.497 157.045H106.482Z" fill="#FCE1D8"/>
<path d="M40.0674 157.529L56.0396 152.235C56.0396 152.235 135.734 304.637 138.139 308.1C138.653 308.826 138.911 308.584 138.911 308.584L126.432 321.683C126.432 321.683 42.1547 164.547 40.0674 157.514V157.529Z" fill="black"/>
<path d="M85.3515 114.861L108.977 119.519L112.652 158.89L78.167 161.794L85.3515 114.861Z" fill="#FCE1D8"/>
<g style="mix-blend-mode:multiply">
<path d="M109.839 127.99C108.992 128.171 109.143 137.277 82.0088 137.247L85.0943 117.312L109.839 127.99Z" fill="#FCE1D8"/>
</g>
<path d="M79.1497 98.6315C79.422 118.808 84.2469 138.335 97.1033 140.347C108.901 142.192 119.942 123.875 124.586 104.243C130.575 78.8629 120.411 69.334 106.118 67.398C91.8398 65.4619 78.817 74.5219 79.1346 98.6466L79.1497 98.6315Z" fill="#FCE1D8"/>
<g style="mix-blend-mode:multiply">
<path d="M104.001 111.866C103.971 111.442 103.804 97.2097 103.729 97.3155C103.729 97.3155 110.429 98.5255 109.688 106.814C108.614 118.854 97.1494 111.684 97.1494 111.684" fill="#FCE1D8"/>
</g>
<g opacity="0.3">
<path d="M124.027 89.6468C122.5 87.0906 113.697 84.9731 110.959 88.0889L124.027 89.6468Z" fill="black"/>
</g>
<g opacity="0.3">
<path d="M101.869 88.2856C98.7528 84.4136 90.5247 83.7481 88.3164 86.5916L101.869 88.2856Z" fill="black"/>
</g>
<path d="M95.6969 98.2988C95.7877 98.2988 95.8784 98.2988 95.9692 98.2988C96.6347 98.1929 97.0733 97.5727 96.9674 96.9072C96.7405 95.4855 95.5759 92.7629 92.8534 92.5814C92.808 92.5814 92.7778 92.5814 92.7324 92.5814C89.8435 92.4756 88.7393 94.6082 88.5729 95.7426C88.4671 96.4081 88.9208 97.0282 89.5863 97.119C90.2216 97.2249 90.8568 96.7711 90.9627 96.1207C91.0383 95.7577 91.3409 94.9258 92.6416 94.9863C92.6567 94.9863 92.6719 94.9863 92.687 94.9863C94.2146 95.0922 94.5776 97.2551 94.5928 97.2854C94.6835 97.845 95.1524 98.2685 95.712 98.2988H95.6969Z" fill="black"/>
<path d="M119.746 102.806C119.746 102.806 119.882 102.806 119.958 102.806C120.623 102.73 121.107 102.141 121.031 101.49C120.88 100.023 119.867 97.2249 117.099 97.0434C117.054 97.0434 117.023 97.0434 116.978 97.0434C114.149 96.9375 112.909 99.0399 112.637 100.174C112.486 100.825 112.894 101.475 113.544 101.626C114.195 101.778 114.83 101.384 114.996 100.734C115.087 100.416 115.465 99.4029 116.887 99.4634H116.933C118.369 99.5693 118.627 101.657 118.642 101.747C118.702 102.337 119.186 102.791 119.761 102.821L119.746 102.806Z" fill="black"/>
<path d="M121.894 114.15C123.134 114.634 124.753 113.469 125.479 111.564L127.294 106.845C128.02 104.954 127.611 103.003 126.371 102.519C125.131 102.035 123.512 103.199 122.786 105.105L120.971 109.824C120.245 111.715 120.654 113.666 121.894 114.15Z" fill="#FCE1D8"/>
<path d="M78.6662 105.937C79.982 105.937 81.0559 104.274 81.0559 102.247V97.1949C81.0559 95.1682 79.982 93.5044 78.6662 93.5044C77.3503 93.5044 76.2764 95.1682 76.2764 97.1949V102.247C76.2764 104.274 77.3503 105.937 78.6662 105.937Z" fill="#FCE1D8"/>
<path d="M129.23 92.4303C127.838 92.5815 77.1992 88.1196 77.1992 88.1196C77.1992 88.1196 84.2627 63.9798 103.88 63.889C144.824 63.7075 129.23 92.4303 129.23 92.4303Z" fill="#F6B241"/>
<path d="M108.448 122.968C108.206 123.316 104.046 128.55 98.3441 126.432C89.6169 123.195 90.9025 117.312 90.9025 117.312L108.448 122.983V122.968Z" fill="white"/>
<path d="M128.187 149.513L112.124 144.779L80.5122 145.853L62.5283 151.177C62.5283 151.177 75.7175 177.706 96.56 177.706C117.493 177.706 128.202 150.39 128.187 149.528V149.513Z" fill="#FCE1D8"/>
<g style="mix-blend-mode:multiply">
<path d="M33.7904 198.397L44.6352 252.878L41.6101 277.26L43.2134 308.69C43.2134 308.69 34.6526 295.47 26.2883 268.623C16.8351 238.343 33.7753 198.397 33.7753 198.397H33.7904Z" fill="#FCE1D8"/>
</g>
<path d="M148.893 226.938L146.911 282.629C146.957 282.75 174.288 288.649 175.906 288.952C176.103 288.815 179.99 275.611 182.41 260.652C182.38 260.622 182.41 260.577 182.395 260.531C186.191 237.042 186.055 231.794 185.617 224.518C185.586 224.17 155.623 226.606 148.893 226.938Z" fill="#FCE1D8"/>
<path d="M174.726 297.966C167.844 329.653 160.236 348.091 156.742 355.427C155.608 358.043 154.988 358.981 154.398 360.6C151.812 367.013 151.388 374.439 148.529 381.215C146.972 384.875 145.141 390.063 143.644 392.453C142.948 393.073 141.769 392.211 142.116 390.85C142.842 388.203 144.022 384.346 144.461 382.879C144.642 382.455 144.173 382.395 143.886 382.501C143.599 382.697 141.753 388.369 139.817 392.393C138.698 394.767 137.745 396.507 136.55 395.932C135.371 395.403 136.989 391.258 138.38 387.84C139.333 385.42 140.271 383.272 140.12 383.015C140.029 382.561 139.454 382.682 139.258 383.166C138.275 384.86 136.868 388.248 135.355 391.636C135.204 391.954 135.053 392.257 134.932 392.574C134.312 393.784 133.813 394.51 133.268 394.858C132.89 395.07 132.527 395.115 132.104 395.07C129.169 393.83 134.887 385.344 135.613 381.578C135.658 381.2 135.204 380.852 134.887 381.336C133.964 382.592 131.483 390.169 129.789 393.164C128.791 394.843 126.069 394.223 126.946 391.5C128.156 387.099 129.986 382.108 131.151 378.886C132.512 374.908 133.102 373.093 132.512 372.79C131.483 372.412 130.651 374.515 129.336 376.617C127.763 379.461 125.675 379.99 123.77 378.977C124.632 377.54 126.205 375.044 127.309 372.367C127.989 370.597 129.683 368.767 130.425 367.391C130.742 366.801 132.618 362.883 133.026 361.613C140.997 337.231 143.871 300.946 144.022 295.123C144.249 286.456 146.941 278.5 146.941 278.5L176.783 283.96C176.451 287.787 176.178 290.948 174.651 297.981L174.726 297.966Z" fill="#FCE1D8"/>
<g style="mix-blend-mode:multiply">
<path d="M158.89 198.775L148.892 227.392L144.067 301.99C144.067 301.99 158.603 293.308 166.952 266.461C176.405 236.18 158.89 198.775 158.89 198.775Z" fill="#FCE1D8"/>
</g>
<path d="M440.158 191.122L451.351 300.341C451.396 300.447 482.297 308.554 484.097 308.781C484.293 308.645 487.001 290.494 488.634 274.023C488.604 273.993 488.634 273.947 488.634 273.887C491.206 248.023 491.826 212.947 484.006 187.537C483.325 185.087 447.509 190.29 440.158 191.107" fill="#AF865E"/>
<path d="M440.158 191.122L451.351 300.341C451.396 300.447 482.297 308.554 484.097 308.781C484.293 308.645 487.001 290.494 488.634 274.023C488.604 273.993 488.634 273.947 488.634 273.887C491.206 248.023 491.826 212.947 484.006 187.537C483.325 185.087 447.509 190.29 440.158 191.107" fill="#CD9F6F"/>
<path d="M327.612 186.947L302.762 293.883C302.701 293.988 271.029 298.133 269.214 298.133C269.033 297.966 268.639 279.635 269.078 263.073C269.108 263.042 269.078 262.997 269.108 262.951C269.819 236.966 273.615 202.103 284.566 177.872C285.549 175.528 320.428 185.193 327.612 186.932" fill="#CD9F6F"/>
<g style="mix-blend-mode:multiply" opacity="0.4">
<path d="M316.995 230.977L302.838 296.015C302.777 296.121 273.661 301.869 273.661 301.869L316.995 230.962V230.977Z" fill="#AF865E"/>
</g>
<path d="M269.198 224.126C269.198 224.126 274.749 200.621 280.103 185.844C289.753 159.254 309.341 144.219 322.59 144.824L322.953 145.217C336.52 138.623 371.596 133.51 371.596 133.51C371.596 133.51 379.612 134.978 386.192 135.931C393.966 136.233 403.071 134.826 403.071 134.826C403.071 134.826 438.646 140.589 459.382 153.476C464.812 155.745 480.618 167.739 487.667 179.249C498.058 196.235 495.032 237.905 495.032 237.905L448.235 237.239C441.716 274.659 437.254 330.592 435.091 339.712L382.108 337.443L316.933 334.494C315.602 325.177 317.614 268.412 315.012 230.493L269.213 224.141L269.198 224.126Z" fill="#2ED1FF"/>
<g style="mix-blend-mode:multiply" opacity="0.27">
<path d="M453.287 203.237L440.355 233.987L433.428 313.576C433.428 313.576 448.266 306.557 459.231 277.653C471.619 245.058 453.302 203.237 453.302 203.237H453.287Z" fill="#AF865E"/>
</g>
<g style="mix-blend-mode:multiply" opacity="0.27">
<path d="M311.398 196.779L321.486 228.572L321.154 308.464C321.154 308.464 307.011 300.115 298.723 270.348C289.345 236.755 311.383 196.779 311.383 196.779H311.398Z" fill="#AF865E"/>
</g>
<path opacity="0.2" d="M447.116 236.225L434.683 336.717L417.939 368.586C417.939 368.586 371.066 390.487 369.629 356.591C367.436 304.53 447.116 236.21 447.116 236.21V236.225Z" fill="#8F405F"/>
<path d="M433.881 142.677C433.881 142.677 336.052 261.924 314.68 326.009L336.672 326.357C336.672 326.357 419.83 196.855 458.52 152.069C458.52 152.069 444.076 146.034 433.866 142.661L433.881 142.677Z" fill="black"/>
<path d="M395.052 103.427L399.002 103.105C406.678 102.479 412.394 95.7492 411.768 88.0728L408.71 50.5507C408.084 42.8743 401.354 37.1586 393.678 37.7843L389.728 38.1063C382.052 38.732 376.336 45.4622 376.962 53.1386L380.02 90.6607C380.646 98.3371 387.376 104.053 395.052 103.427Z" fill="#041E21"/>
<path d="M355.565 106.643L362.319 106.092C369.221 105.53 374.36 99.4785 373.798 92.5764L370.511 52.2503C369.948 45.3482 363.897 40.209 356.995 40.7716L350.241 41.3221C343.339 41.8847 338.2 47.9361 338.762 54.8381L342.049 95.1643C342.612 102.066 348.663 107.206 355.565 106.643Z" fill="#041E21"/>
<path d="M362.917 88.2884L369.671 87.7379C376.573 87.1753 381.712 81.124 381.149 74.2219L377.862 33.8958C377.3 26.9937 371.248 21.8545 364.346 22.4171L357.593 22.9676C350.69 23.5302 345.551 29.5815 346.114 36.4836L349.401 76.8098C349.964 83.7119 356.015 88.851 362.917 88.2884Z" fill="#041E21"/>
<path d="M382.454 81.4881L386.403 81.1662C394.08 80.5404 399.795 73.8103 399.17 66.1339L396.111 28.6117C395.486 20.9353 388.755 15.2196 381.079 15.8454L377.129 16.1673C369.453 16.793 363.737 23.5232 364.363 31.1996L367.421 68.7218C368.047 76.3981 374.777 82.1138 382.454 81.4881Z" fill="#041E21"/>
<path d="M355.745 136.097C355.745 136.097 355.956 138.472 357.03 141.573C358.921 146.942 363.458 154.505 374.107 155.382C374.742 155.382 375.271 155.473 375.846 155.352C375.846 155.352 375.896 155.341 375.997 155.321C376.073 155.367 376.118 155.321 376.118 155.321H376.164C395.63 156.229 401.302 146.004 402.587 137.746C405.703 117.508 399.018 84.8833 399.018 84.8833L355.729 100.568V126.19L355.76 136.082L355.745 136.097Z" fill="#CD9F6F"/>
<path d="M389.443 119.702C388.869 119.898 377.646 140.771 356.122 138.472C356.122 138.472 355.563 122.908 355.805 117.493C356.001 113.047 357.635 99.1162 357.635 99.1162L389.443 119.702Z" fill="#BC9068"/>
<path d="M402.995 95.698C402.995 95.698 404.977 66.5216 394.419 51.8652C379.188 30.7354 351.63 41.9582 346.715 54.3458C339.999 71.2709 348.363 105.439 348.363 105.439L402.995 95.698Z" fill="#CD9F6F"/>
<path d="M344.628 77.2449L346.337 89.3753C348.273 110.535 351.752 127.793 369.206 128.958C371.717 129.124 374.409 128.928 376.058 128.701L371.551 65.3716L367.482 65.6741L362.309 66.1278L355.836 66.5967C351.268 67.0354 347.033 69.5008 345.672 73.3728C345.172 74.4618 344.704 75.7172 344.719 76.9575L344.643 77.2449H344.628Z" fill="#CD9F6F"/>
<path d="M401.513 73.9326V86.184C401.861 98.027 399.471 125.116 382.365 128.731C379.869 129.261 378.084 129.412 376.39 129.397L371.202 66.128L377.252 65.7196L382.44 65.4322L388.884 64.9936C393.512 64.7516 398.019 66.612 399.925 70.2269C400.56 71.2857 401.226 72.4352 401.377 73.6755L401.498 73.9477L401.513 73.9326Z" fill="#CD9F6F"/>
<path d="M359.904 105.529C363.701 105.166 385.572 103.911 385.572 103.911C385.405 108.599 379.083 112.94 372.957 113.515C367.21 114.06 360.328 109.734 359.904 105.529Z" fill="white"/>
<path d="M365.818 81.6918C365.818 81.6918 366.393 97.8455 366.56 98.1027C367.437 99.3429 373.321 99.1766 373.321 99.1766C373.321 99.1766 366.076 105.454 359.617 101.551C353.113 97.6489 349.181 79.9978 365.818 81.6918Z" fill="#BC9068"/>
<path d="M395.342 114.271C395.342 114.271 361.235 116.223 352.326 116.782C352.114 116.782 359.193 134.448 371.974 133.269C387.265 131.862 395.342 114.256 395.342 114.256V114.271Z" fill="#736449"/>
<path d="M361.795 51.0026C361.855 55.0864 361.25 59.4879 358.316 62.528C355.382 65.5682 349.498 66.2942 346.896 63.0423C345.596 61.4239 345.384 59.2761 345.308 57.2493C345.021 50.1708 346.201 42.3359 351.797 37.5412C361.175 29.4946 381.216 25.6982 386.57 39.4924C392.862 55.6612 361.87 55.752 361.795 50.9875V51.0026Z" fill="#041E21"/>
<path d="M400.151 92.4268C400.256 94.2782 401.842 95.6939 403.694 95.5888C405.545 95.4837 406.961 93.8975 406.856 92.046L406.595 87.4554C406.49 85.6039 404.904 84.1882 403.052 84.2933C401.201 84.3985 399.785 85.9846 399.89 87.8361L400.151 92.4268Z" fill="#CD9F6F"/>
<path d="M401.406 88.2261C402.828 88.4378 404.22 89.4815 404.416 90.9032C404.613 92.325 403.176 93.8526 401.8 93.3989" fill="#BC9068"/>
<path d="M379.537 85.3517C380.369 85.3971 381.125 84.7921 381.261 83.945C381.261 83.9299 381.745 81.2679 383.545 81.2074C385.209 81.1469 385.451 82.251 385.481 82.4628C385.617 83.3854 386.48 84.0056 387.402 83.8694C388.31 83.7333 388.945 82.8712 388.809 81.9485C388.582 80.4662 387.175 77.7135 383.424 77.8496C379.794 77.9857 378.267 81.5401 377.964 83.4005C377.813 84.308 378.433 85.1702 379.356 85.3214C379.416 85.3214 379.492 85.3366 379.552 85.3366L379.537 85.3517Z" fill="black"/>
<path d="M376.209 69.3346C376.209 69.3346 377.752 67.686 380.973 67.3381C384.271 66.9902 387.16 68.9414 387.19 68.9565L389.096 66.2037C388.944 66.0978 385.163 63.5265 380.61 64.0105C376.012 64.4946 373.759 67.0205 373.668 67.1263L376.194 69.3346H376.209Z" fill="#041E21"/>
<path d="M351.056 89.7991C351.933 89.8444 352.705 89.1789 352.795 88.2866C352.795 88.1807 353.113 85.6548 354.822 85.5791C356.486 85.4884 356.924 86.6984 357.03 87.0614C357.272 87.9387 358.165 88.4983 359.057 88.2563C359.95 88.0294 360.494 87.1522 360.282 86.2598C359.934 84.8078 358.316 82.0701 354.686 82.2213C350.98 82.3575 349.634 86.0329 349.453 87.9387C349.362 88.8613 350.027 89.6781 350.95 89.7688C350.98 89.7688 351.01 89.7688 351.041 89.7688L351.056 89.7991Z" fill="black"/>
<path d="M350.95 75.3847C350.95 75.3847 352.024 73.3881 355.034 72.2235C358.12 71.0286 361.432 72.163 361.462 72.1781L362.597 69.017C362.415 68.9565 358.12 67.444 353.839 69.0775C349.529 70.7412 348.001 73.7512 347.94 73.8873L350.95 75.3695V75.3847Z" fill="#041E21"/>
<path d="M383.09 99.4035C377.177 98.2237 371.384 92.9299 371.822 83.8094C372.246 74.8856 378.266 70.2875 384.028 69.6825H384.043C384.301 69.6674 390.23 69.1682 394.707 73.01C397.52 75.4149 399.093 78.9542 399.38 83.522C399.698 88.5134 397.959 92.945 394.465 95.9852C392.045 98.1027 388.914 99.3884 385.934 99.5699C384.951 99.6304 383.998 99.5699 383.075 99.3884L383.09 99.4035ZM384.27 72.1025C377.706 72.7832 374.499 78.5307 374.242 83.9304C373.985 89.4662 376.753 95.6676 383.559 97.0288C386.539 97.6338 390.199 96.4995 392.876 94.1702C394.934 92.3703 397.308 89.0881 396.96 83.6884C396.718 79.8164 395.433 76.8367 393.149 74.8704C389.64 71.8454 384.8 72.0723 384.301 72.1025H384.27Z" fill="#022326"/>
<path d="M349.044 101.567C343.13 100.387 337.337 95.0929 337.775 85.9724C338.199 77.0486 344.219 72.4505 349.981 71.8455H349.997C350.254 71.8153 356.198 71.3313 360.675 75.1731C363.488 77.578 365.061 81.1173 365.349 85.6851C365.666 90.6764 363.927 95.1081 360.433 98.1482C358.013 100.266 354.882 101.551 351.902 101.733C350.919 101.793 349.966 101.733 349.044 101.551V101.567ZM350.223 74.2655C343.659 74.9462 340.453 80.6938 340.195 86.0934C339.938 91.6293 342.706 97.8306 349.513 99.1919C352.492 99.7969 356.153 98.6625 358.83 96.3332C360.887 94.5333 363.261 91.2511 362.913 85.8514C362.671 81.9794 361.386 79.0148 359.102 77.0334C355.593 74.0084 350.753 74.2353 350.254 74.2655H350.223Z" fill="#022326"/>
<path d="M372.233 83.1855L363.674 83.73L363.827 86.1451L372.386 85.6007L372.233 83.1855Z" fill="#022326"/>
<path d="M371.445 377.162C323.861 374.999 286.925 334.524 289.088 286.94C291.251 239.357 331.726 202.421 379.295 204.584C426.879 206.747 463.815 247.222 461.652 294.806C459.489 342.389 419.014 379.325 371.43 377.162H371.445ZM378.539 221.131C340.091 219.376 307.375 249.233 305.635 287.697C303.881 326.145 333.738 358.861 372.201 360.6C410.665 362.339 443.365 332.497 445.105 294.034C446.859 255.586 417.002 222.87 378.539 221.131Z" fill="#9AED66"/>
<path d="M292.068 250.67C294.231 242.488 302.444 231.174 313.167 230.796C320.367 230.539 326.614 236.105 325.978 242.382C325.978 242.382 330.486 244.151 329.79 248.765C327.718 262.377 321.97 259.579 321.97 259.579C321.97 259.579 322.121 260.638 320.427 261.409C319.096 262.014 317.508 261.409 317.508 261.409C317.508 261.409 319.611 264.313 318.476 266.749C317.297 269.32 315.058 270.242 315.058 270.242C315.058 270.242 315.345 272.163 312.275 273.615C308.902 275.204 304.198 271.226 302.519 270.061C301.96 269.668 301.203 275.536 301.052 280.165C291.75 278.062 287.001 269.804 292.053 250.67H292.068Z" fill="#CD9F6F"/>
<path d="M315.285 255.828C312.971 253.68 308.282 251.456 307.753 251.214C306.724 250.746 305.514 251.184 305.03 252.198C304.546 253.226 305 254.436 306.013 254.92C307.284 255.51 310.929 257.37 312.487 258.822C313.924 260.153 315.845 262.649 315.86 262.664C316.238 263.163 316.813 263.436 317.388 263.466C317.857 263.481 318.325 263.345 318.719 263.042C319.611 262.362 319.777 261.076 319.097 260.169C319.006 260.048 316.949 257.386 315.255 255.813L315.285 255.828Z" fill="#BC9068"/>
<path d="M312.85 264.676C308.948 261.258 303.76 260.986 303.533 260.971C302.414 260.925 301.461 261.787 301.4 262.907C301.34 264.026 302.217 264.994 303.336 265.055C303.382 265.055 307.345 265.297 310.143 267.747C311.58 269.002 313.425 271.498 313.455 271.528C313.833 272.042 314.408 272.33 315.013 272.36C315.467 272.375 315.921 272.254 316.314 271.967C317.221 271.301 317.418 270.016 316.737 269.108C316.647 268.987 314.605 266.234 312.835 264.676H312.85Z" fill="#BC9068"/>
<path d="M327.991 242.654C328.142 241.535 327.355 240.506 326.221 240.355C325.132 240.204 324.073 240.99 323.922 242.125C323.801 243.062 323.332 245.861 322.606 247.706C319.823 243.456 314.318 239.614 313.546 239.1C312.608 238.464 311.338 238.706 310.703 239.629C310.067 240.567 310.309 241.837 311.232 242.472C314.378 244.62 319.581 249.082 320.08 251.896C320.821 255.994 319.974 258.959 319.959 258.989C319.626 260.063 320.231 261.213 321.32 261.545C321.487 261.591 321.653 261.621 321.835 261.636C322.742 261.681 323.604 261.107 323.877 260.184C323.922 260.048 324.845 256.857 324.27 252.364C324.951 251.714 325.798 250.701 326.357 249.279C327.431 246.587 327.93 242.805 327.945 242.654H327.991Z" fill="#BC9068"/>
<path d="M466.431 258.475C465.024 250.126 457.87 238.116 447.222 236.77C440.067 235.863 433.352 240.839 433.412 247.146C433.412 247.146 428.754 248.492 429.041 253.151C429.873 266.884 435.847 264.631 435.847 264.631C435.847 264.631 435.605 265.674 437.209 266.582C438.479 267.293 440.113 266.854 440.113 266.854C440.113 266.854 437.768 269.561 438.661 272.087C439.614 274.749 441.746 275.869 441.746 275.869C441.746 275.869 441.277 277.759 444.212 279.484C447.433 281.374 452.47 277.835 454.24 276.837C454.845 276.504 455.056 282.418 454.784 287.031C464.237 285.791 469.713 277.986 466.431 258.475Z" fill="#CD9F6F"/>
<path d="M448.069 248.552C449.052 248.008 449.415 246.752 448.855 245.769C448.311 244.771 447.055 244.423 446.072 244.982C445.255 245.436 439.432 248.764 436.271 252.742C435.605 250.458 435.469 247.1 435.469 247.07C435.424 245.935 434.471 245.028 433.352 245.103C432.217 245.149 431.34 246.102 431.385 247.221C431.385 247.387 431.552 251.184 432.369 253.967C432.807 255.434 433.548 256.523 434.169 257.234C433.2 261.65 433.821 264.902 433.851 265.054C434.047 265.991 434.849 266.627 435.757 266.672C435.923 266.672 436.089 266.672 436.256 266.627C437.36 266.4 438.071 265.326 437.859 264.222C437.859 264.191 437.269 261.151 438.388 257.143C439.145 254.39 444.726 250.428 448.069 248.567V248.552Z" fill="#BC9068"/>
<path d="M441.625 268.245C441.625 268.245 443.788 265.916 445.331 264.721C447.009 263.42 450.806 261.908 452.122 261.424C453.18 261.045 453.74 259.866 453.362 258.807C452.984 257.748 451.819 257.204 450.745 257.567C450.201 257.763 445.33 259.548 442.835 261.469C441.005 262.876 438.721 265.356 438.615 265.462C437.844 266.294 437.904 267.579 438.736 268.351C439.099 268.699 439.568 268.88 440.037 268.895C440.627 268.926 441.201 268.699 441.64 268.245H441.625Z" fill="#BC9068"/>
<path d="M454.088 267.686C453.862 267.686 448.674 267.474 444.469 270.529C442.563 271.921 440.279 274.477 440.188 274.583C439.432 275.43 439.508 276.715 440.355 277.472C440.718 277.789 441.172 277.971 441.625 277.986C442.215 278.016 442.82 277.789 443.244 277.305C443.259 277.275 445.331 274.976 446.874 273.841C449.869 271.663 453.816 271.769 453.907 271.784C455.026 271.83 455.994 270.968 456.04 269.833C456.085 268.699 455.223 267.746 454.088 267.701V267.686Z" fill="#BC9068"/>
</g>
</svg>
