<svg width="359" height="326" viewBox="0 0 359 326" fill="none" xmlns="http://www.w3.org/2000/svg">
<mask id="path-1-inside-1_639_2032" fill="white">
<path d="M316.67 244.195C300.343 272.475 275.888 295.191 246.482 309.393C217.077 323.594 184.08 328.624 151.779 323.829C119.478 319.034 89.3656 304.636 65.3537 282.505C41.3417 260.374 24.5402 231.533 17.1319 199.73C9.72365 167.926 12.051 134.63 23.8117 104.166C35.5723 73.7021 56.2226 47.4792 83.0799 28.904C109.937 10.3288 141.76 0.259704 174.414 0.00495394C207.068 -0.249796 239.044 9.32153 266.188 27.4755L225.461 88.37C210.532 78.3854 192.945 73.1211 174.985 73.2613C157.026 73.4014 139.523 78.9393 124.752 89.1557C109.98 99.3721 98.6225 113.795 92.1542 130.55C85.6858 147.305 84.4058 165.618 88.4803 183.11C92.5549 200.602 101.796 216.464 115.002 228.636C128.209 240.808 144.771 248.727 162.536 251.364C180.302 254.002 198.45 251.235 214.623 243.425C230.796 235.614 244.246 223.12 253.226 207.566L316.67 244.195Z"/>
</mask>
<path d="M316.67 244.195C300.343 272.475 275.888 295.191 246.482 309.393C217.077 323.594 184.08 328.624 151.779 323.829C119.478 319.034 89.3656 304.636 65.3537 282.505C41.3417 260.374 24.5402 231.533 17.1319 199.73C9.72365 167.926 12.051 134.63 23.8117 104.166C35.5723 73.7021 56.2226 47.4792 83.0799 28.904C109.937 10.3288 141.76 0.259704 174.414 0.00495394C207.068 -0.249796 239.044 9.32153 266.188 27.4755L225.461 88.37C210.532 78.3854 192.945 73.1211 174.985 73.2613C157.026 73.4014 139.523 78.9393 124.752 89.1557C109.98 99.3721 98.6225 113.795 92.1542 130.55C85.6858 147.305 84.4058 165.618 88.4803 183.11C92.5549 200.602 101.796 216.464 115.002 228.636C128.209 240.808 144.771 248.727 162.536 251.364C180.302 254.002 198.45 251.235 214.623 243.425C230.796 235.614 244.246 223.12 253.226 207.566L316.67 244.195Z" fill="#9AED66" stroke="black" stroke-width="2" stroke-dasharray="2 2" mask="url(#path-1-inside-1_639_2032)"/>
<path d="M316.67 244.195C337.346 208.384 343.619 166.047 334.216 125.779C324.813 85.5106 300.439 50.3297 266.042 27.3782L225.381 88.3166C244.299 100.94 257.705 120.289 262.877 142.437C268.048 164.584 264.598 187.87 253.226 207.566L316.67 244.195Z" fill="#9EF769" fill-opacity="0.4"/>
<rect x="289" y="27" width="70" height="52" rx="8" fill="#054752"/>
<path d="M300.135 62V59.984L306.659 52.592C307.574 51.5653 308.208 50.716 308.563 50.044C308.936 49.372 309.123 48.7187 309.123 48.084C309.123 47.2253 308.852 46.544 308.311 46.04C307.788 45.5173 307.07 45.256 306.155 45.256C305.184 45.256 304.41 45.536 303.831 46.096C303.252 46.6373 302.954 47.3933 302.935 48.364H300.191C300.228 46.6093 300.788 45.228 301.871 44.22C302.972 43.1933 304.438 42.68 306.267 42.68C308.04 42.68 309.431 43.1467 310.439 44.08C311.466 45.0133 311.979 46.3013 311.979 47.944C311.979 48.9147 311.746 49.8667 311.279 50.8C310.831 51.7333 310.056 52.8067 308.955 54.02L304.139 59.368H311.951V62H300.135ZM326.813 56.036V58.668H324.825V62H322.137V58.668H312.953V56.372L322.221 43.1H324.825V56.036H326.813ZM315.921 56.036H322.137V47.272H322.025L315.921 56.036ZM330.146 43.94C330.986 43.1 332.068 42.68 333.394 42.68C334.719 42.68 335.792 43.1 336.614 43.94C337.454 44.78 337.874 45.8533 337.874 47.16C337.874 48.4667 337.454 49.54 336.614 50.38C335.792 51.22 334.719 51.64 333.394 51.64C332.068 51.64 330.986 51.22 330.146 50.38C329.324 49.54 328.914 48.4667 328.914 47.16C328.914 45.8533 329.324 44.78 330.146 43.94ZM331.658 62L342.718 43.1H344.314L333.254 62H331.658ZM335.438 45.06C334.934 44.5187 334.252 44.248 333.394 44.248C332.535 44.248 331.854 44.5187 331.35 45.06C330.846 45.6013 330.594 46.3013 330.594 47.16C330.594 48.0187 330.846 48.7187 331.35 49.26C331.854 49.8013 332.535 50.072 333.394 50.072C334.252 50.072 334.934 49.8013 335.438 49.26C335.942 48.7187 336.194 48.0187 336.194 47.16C336.194 46.3013 335.942 45.6013 335.438 45.06ZM339.582 54.44C340.422 53.6 341.504 53.18 342.83 53.18C344.155 53.18 345.228 53.6 346.05 54.44C346.89 55.28 347.31 56.3533 347.31 57.66C347.31 58.9667 346.89 60.04 346.05 60.88C345.228 61.72 344.155 62.14 342.83 62.14C341.504 62.14 340.422 61.72 339.582 60.88C338.76 60.04 338.35 58.9667 338.35 57.66C338.35 56.3533 338.76 55.28 339.582 54.44ZM344.874 55.56C344.37 55.0187 343.688 54.748 342.83 54.748C341.971 54.748 341.29 55.0187 340.786 55.56C340.282 56.1013 340.03 56.8013 340.03 57.66C340.03 58.5187 340.282 59.2187 340.786 59.76C341.29 60.3013 341.971 60.572 342.83 60.572C343.688 60.572 344.37 60.3013 344.874 59.76C345.378 59.2187 345.63 58.5187 345.63 57.66C345.63 56.8013 345.378 56.1013 344.874 55.56Z" fill="white"/>
<rect y="230" width="68" height="52" rx="8" fill="#054752"/>
<path d="M22.637 246.1V248.48L15.049 265H12.137L19.697 248.76H10.877V246.1H22.637ZM35.6505 259.036V261.668H33.6625V265H30.9745V261.668H21.7905V259.372L31.0585 246.1H33.6625V259.036H35.6505ZM24.7585 259.036H30.9745V250.272H30.8625L24.7585 259.036ZM38.9836 246.94C39.8236 246.1 40.9062 245.68 42.2316 245.68C43.5569 245.68 44.6302 246.1 45.4516 246.94C46.2916 247.78 46.7116 248.853 46.7116 250.16C46.7116 251.467 46.2916 252.54 45.4516 253.38C44.6302 254.22 43.5569 254.64 42.2316 254.64C40.9062 254.64 39.8236 254.22 38.9836 253.38C38.1622 252.54 37.7516 251.467 37.7516 250.16C37.7516 248.853 38.1622 247.78 38.9836 246.94ZM40.4956 265L51.5556 246.1H53.1516L42.0916 265H40.4956ZM44.2756 248.06C43.7716 247.519 43.0902 247.248 42.2316 247.248C41.3729 247.248 40.6916 247.519 40.1876 248.06C39.6836 248.601 39.4316 249.301 39.4316 250.16C39.4316 251.019 39.6836 251.719 40.1876 252.26C40.6916 252.801 41.3729 253.072 42.2316 253.072C43.0902 253.072 43.7716 252.801 44.2756 252.26C44.7796 251.719 45.0316 251.019 45.0316 250.16C45.0316 249.301 44.7796 248.601 44.2756 248.06ZM48.4196 257.44C49.2596 256.6 50.3422 256.18 51.6676 256.18C52.9929 256.18 54.0662 256.6 54.8876 257.44C55.7276 258.28 56.1476 259.353 56.1476 260.66C56.1476 261.967 55.7276 263.04 54.8876 263.88C54.0662 264.72 52.9929 265.14 51.6676 265.14C50.3422 265.14 49.2596 264.72 48.4196 263.88C47.5982 263.04 47.1876 261.967 47.1876 260.66C47.1876 259.353 47.5982 258.28 48.4196 257.44ZM53.7116 258.56C53.2076 258.019 52.5262 257.748 51.6676 257.748C50.8089 257.748 50.1276 258.019 49.6236 258.56C49.1196 259.101 48.8676 259.801 48.8676 260.66C48.8676 261.519 49.1196 262.219 49.6236 262.76C50.1276 263.301 50.8089 263.572 51.6676 263.572C52.5262 263.572 53.2076 263.301 53.7116 262.76C54.2156 262.219 54.4676 261.519 54.4676 260.66C54.4676 259.801 54.2156 259.101 53.7116 258.56Z" fill="white"/>
</svg>
