<svg width="359" height="328" viewBox="0 0 359 328" fill="none" xmlns="http://www.w3.org/2000/svg">
<path d="M333.793 141.143L335.801 140.872L335.868 141.367L336.383 141.298C336.407 141.463 336.431 141.628 336.455 141.794L336.95 141.723C337.044 142.381 337.134 143.039 337.22 143.698L336.725 143.763C336.811 144.42 336.892 145.077 336.97 145.735L337.467 145.676C337.545 146.336 337.619 146.996 337.689 147.657L337.191 147.71C337.261 148.369 337.327 149.028 337.389 149.687L337.886 149.641C337.948 150.302 338.006 150.964 338.06 151.627L337.562 151.667C337.615 152.327 337.665 152.988 337.71 153.649L338.209 153.614C338.255 154.277 338.296 154.941 338.334 155.604L337.835 155.632C337.872 156.294 337.905 156.955 337.935 157.617L338.434 157.595C338.464 158.259 338.489 158.923 338.51 159.587L338.01 159.603C338.032 160.265 338.049 160.927 338.062 161.59L338.562 161.58C338.575 162.244 338.584 162.909 338.589 163.573L338.089 163.577C338.094 164.239 338.095 164.902 338.092 165.564L338.592 165.567C338.589 166.231 338.581 166.896 338.57 167.56L338.07 167.551C338.059 168.214 338.044 168.876 338.024 169.538L338.524 169.553C338.505 170.217 338.481 170.881 338.454 171.545L337.954 171.524C337.927 172.186 337.895 172.848 337.859 173.509L338.359 173.536C338.323 174.2 338.283 174.863 338.24 175.526L337.741 175.493C337.697 176.154 337.649 176.815 337.597 177.475L338.096 177.514C338.044 178.177 337.988 178.839 337.928 179.501L337.43 179.456C337.37 180.115 337.306 180.775 337.238 181.434L337.736 181.485C337.668 182.146 337.596 182.807 337.519 183.467L337.023 183.409C336.947 184.067 336.867 184.725 336.783 185.382L337.279 185.446C337.194 186.105 337.106 186.763 337.014 187.421L336.519 187.352C336.426 188.008 336.33 188.663 336.23 189.318L336.725 189.394C336.624 190.051 336.52 190.707 336.411 191.363L335.918 191.281C335.81 191.934 335.698 192.587 335.582 193.24L336.074 193.327C335.958 193.981 335.837 194.635 335.713 195.288L335.221 195.194C335.097 195.845 334.969 196.495 334.837 197.144L335.327 197.244C335.195 197.895 335.058 198.545 334.918 199.194L334.429 199.089C334.289 199.736 334.145 200.383 333.997 201.029L334.485 201.14C334.337 201.788 334.184 202.435 334.028 203.081L333.542 202.963C333.386 203.607 333.227 204.25 333.063 204.892L333.547 205.015C333.383 205.659 333.215 206.302 333.043 206.944L332.56 206.815C332.474 207.134 332.388 207.454 332.3 207.774C332.212 208.093 332.123 208.412 332.034 208.731L332.515 208.867C332.335 209.506 332.151 210.145 331.964 210.782L331.484 210.641C331.297 211.277 331.106 211.911 330.911 212.544L331.389 212.691C331.193 213.326 330.994 213.96 330.791 214.593L330.315 214.44C330.112 215.071 329.906 215.7 329.695 216.328L330.169 216.487C329.958 217.117 329.743 217.746 329.525 218.373L329.053 218.209C328.835 218.834 328.613 219.459 328.387 220.081L328.857 220.252C328.631 220.876 328.401 221.5 328.167 222.122L327.699 221.946C327.466 222.566 327.228 223.184 326.988 223.801L327.453 223.983C327.212 224.602 326.966 225.22 326.717 225.836L326.254 225.648C326.005 226.262 325.753 226.875 325.497 227.486L325.959 227.679C325.702 228.292 325.441 228.904 325.177 229.513L324.719 229.314C324.455 229.922 324.188 230.529 323.917 231.133L324.374 231.337C324.102 231.944 323.827 232.549 323.548 233.152L323.094 232.942C322.816 233.543 322.534 234.143 322.249 234.74L322.7 234.956C322.413 235.556 322.123 236.153 321.83 236.749L321.381 236.528C321.088 237.123 320.792 237.715 320.492 238.306L320.938 238.532C320.637 239.125 320.332 239.715 320.024 240.304L319.581 240.072C319.274 240.659 318.963 241.244 318.648 241.827L319.088 242.064C318.773 242.649 318.454 243.232 318.132 243.813L317.694 243.57C317.373 244.15 317.048 244.727 316.719 245.302L317.153 245.55C316.824 246.127 316.491 246.702 316.154 247.275L315.723 247.022C315.387 247.593 315.048 248.162 314.706 248.729L315.133 248.987C314.79 249.556 314.443 250.123 314.092 250.687L313.667 250.423C313.318 250.986 312.965 251.547 312.609 252.105L313.03 252.374C312.673 252.934 312.312 253.492 311.947 254.048L311.529 253.774C311.166 254.328 310.799 254.88 310.429 255.429L310.844 255.709C310.473 256.26 310.099 256.809 309.721 257.355L309.31 257.071C308.933 257.616 308.553 258.159 308.17 258.699L308.578 258.988C308.193 259.53 307.805 260.07 307.414 260.607L307.01 260.313C306.62 260.848 306.227 261.381 305.831 261.912L306.231 262.212C305.834 262.744 305.433 263.274 305.029 263.801L304.632 263.497C304.229 264.023 303.823 264.546 303.413 265.068L303.807 265.376C303.396 265.899 302.982 266.419 302.565 266.936L302.176 266.623C301.968 266.881 301.76 267.138 301.55 267.395C301.341 267.651 301.13 267.907 300.919 268.163L301.305 268.481C300.882 268.994 300.455 269.503 300.026 270.01L299.644 269.687C299.216 270.193 298.785 270.696 298.351 271.196L298.728 271.524C298.293 272.025 297.854 272.525 297.412 273.021L297.039 272.688C296.598 273.183 296.155 273.676 295.709 274.165L296.078 274.502C295.63 274.993 295.179 275.481 294.726 275.966L294.36 275.625C293.908 276.109 293.453 276.59 292.994 277.069L293.355 277.414C292.896 277.894 292.433 278.371 291.968 278.845L291.611 278.495C291.147 278.968 290.68 279.438 290.21 279.905L290.562 280.259C290.091 280.728 289.617 281.193 289.14 281.656L288.792 281.297C288.316 281.758 287.838 282.217 287.357 282.672L287.701 283.035C287.218 283.492 286.732 283.946 286.244 284.397L285.905 284.029C285.418 284.479 284.929 284.925 284.437 285.369L284.772 285.74C284.278 286.185 283.781 286.627 283.282 287.065L282.952 286.69C282.455 287.127 281.955 287.562 281.452 287.993L281.777 288.372C281.273 288.805 280.766 289.234 280.256 289.661L279.935 289.277C279.427 289.702 278.916 290.124 278.403 290.543L278.719 290.931C278.204 291.351 277.687 291.768 277.167 292.181L276.856 291.79C276.337 292.203 275.817 292.612 275.293 293.018L275.6 293.413C275.075 293.82 274.547 294.225 274.017 294.626L273.716 294.227C273.187 294.626 272.657 295.023 272.123 295.416L272.42 295.818C271.885 296.213 271.348 296.604 270.809 296.992L270.517 296.586C269.979 296.972 269.439 297.356 268.896 297.736L269.183 298.145C268.639 298.526 268.092 298.904 267.543 299.279L267.261 298.866C266.714 299.239 266.164 299.609 265.613 299.976L265.889 300.392C265.336 300.76 264.78 301.124 264.222 301.485L263.951 301.065C263.394 301.425 262.836 301.782 262.275 302.135L262.542 302.558C261.98 302.912 261.415 303.262 260.848 303.61L260.587 303.183C260.022 303.529 259.455 303.872 258.886 304.211L259.142 304.641C258.572 304.981 257.999 305.317 257.424 305.651L257.173 305.218C256.6 305.55 256.025 305.879 255.447 306.204L255.693 306.64C255.114 306.966 254.533 307.288 253.95 307.607L253.71 307.169C253.129 307.487 252.546 307.801 251.961 308.112L252.195 308.554C251.609 308.865 251.02 309.174 250.429 309.478L250.2 309.034C249.906 309.186 249.611 309.337 249.316 309.487C249.02 309.637 248.724 309.786 248.428 309.934L248.652 310.381C248.058 310.679 247.461 310.973 246.864 311.263L246.646 310.813C246.049 311.102 245.452 311.388 244.852 311.669L245.065 312.122C244.464 312.405 243.86 312.684 243.256 312.959L243.049 312.504C242.446 312.779 241.841 313.049 241.235 313.316L241.437 313.774C240.828 314.042 240.219 314.306 239.607 314.566L239.411 314.106C238.802 314.366 238.191 314.622 237.578 314.874L237.769 315.337C237.154 315.59 236.538 315.839 235.921 316.084L235.736 315.62C235.12 315.864 234.503 316.105 233.885 316.342L234.064 316.809C233.443 317.047 232.821 317.281 232.198 317.511L232.025 317.042C231.403 317.272 230.78 317.497 230.156 317.719L230.324 318.19C229.698 318.413 229.07 318.632 228.441 318.846L228.28 318.373C227.653 318.588 227.025 318.798 226.395 319.004L226.551 319.48C225.92 319.687 225.287 319.89 224.653 320.089L224.503 319.613C223.871 319.811 223.238 320.006 222.604 320.197L222.748 320.676C222.112 320.868 221.474 321.055 220.836 321.239L220.697 320.759C220.061 320.942 219.423 321.121 218.784 321.297L218.917 321.779C218.276 321.955 217.634 322.127 216.991 322.295L216.865 321.812C216.224 321.979 215.582 322.143 214.939 322.303L215.06 322.788C214.415 322.948 213.769 323.104 213.122 323.257L213.008 322.77C212.363 322.922 211.717 323.07 211.07 323.214L211.179 323.702C210.53 323.846 209.881 323.987 209.231 324.123L209.128 323.634C208.48 323.77 207.83 323.902 207.18 324.03L207.277 324.521C206.625 324.649 205.973 324.774 205.319 324.894L205.228 324.403C204.577 324.523 203.925 324.639 203.272 324.751L203.356 325.244C202.702 325.356 202.046 325.465 201.39 325.569L201.311 325.075C200.657 325.18 200.002 325.28 199.346 325.376L199.419 325.871C198.762 325.967 198.104 326.059 197.445 326.148L197.378 325.652C196.722 325.74 196.065 325.824 195.407 325.904L195.468 326.401C194.808 326.481 194.148 326.557 193.487 326.629L193.433 326.132C192.775 326.204 192.116 326.272 191.456 326.336L191.504 326.834C190.843 326.898 190.181 326.958 189.519 327.014L189.477 326.516C188.817 326.572 188.157 326.624 187.496 326.671L187.532 327.17C186.869 327.218 186.206 327.262 185.543 327.301L185.513 326.802C185.182 326.822 184.851 326.841 184.52 326.859C184.19 326.877 183.859 326.893 183.528 326.909L183.552 327.409C182.888 327.44 182.224 327.468 181.56 327.491L181.542 326.992C180.88 327.015 180.218 327.035 179.556 327.05L179.567 327.55C178.903 327.565 178.238 327.577 177.574 327.584L177.569 327.084C176.906 327.091 176.244 327.094 175.581 327.093L175.581 327.593C174.916 327.592 174.252 327.588 173.587 327.579L173.594 327.079C172.932 327.07 172.269 327.057 171.607 327.039L171.594 327.539C170.93 327.522 170.266 327.501 169.602 327.476L169.621 326.976C168.959 326.951 168.297 326.921 167.635 326.888L167.61 327.388C166.947 327.354 166.283 327.317 165.62 327.275L165.651 326.776C164.99 326.735 164.329 326.689 163.669 326.64L163.631 327.138C162.969 327.089 162.306 327.035 161.644 326.977L161.688 326.479C161.028 326.421 160.368 326.36 159.709 326.294L159.659 326.792C158.998 326.726 158.337 326.656 157.677 326.582L157.733 326.085C157.074 326.011 156.416 325.934 155.759 325.852L155.697 326.348C155.038 326.266 154.379 326.18 153.721 326.09L153.788 325.594C153.132 325.505 152.476 325.411 151.821 325.313L151.747 325.807C151.09 325.709 150.433 325.607 149.778 325.501L149.857 325.007C149.204 324.901 148.55 324.791 147.898 324.678L147.812 325.17C147.157 325.056 146.503 324.938 145.85 324.815L145.942 324.324C145.291 324.202 144.64 324.076 143.991 323.946L143.893 324.437C143.241 324.307 142.59 324.172 141.94 324.034L142.044 323.545C141.397 323.407 140.749 323.266 140.103 323.12L139.993 323.608C139.345 323.461 138.698 323.311 138.051 323.157L138.167 322.671C137.523 322.517 136.879 322.36 136.237 322.198L136.115 322.683C135.471 322.521 134.827 322.355 134.185 322.185L134.312 321.702C133.672 321.533 133.033 321.36 132.394 321.182L132.26 321.664C131.62 321.486 130.981 321.305 130.343 321.119L130.482 320.639C129.847 320.454 129.212 320.265 128.578 320.073L128.432 320.551C127.797 320.358 127.162 320.16 126.529 319.959L126.68 319.483C126.049 319.282 125.418 319.078 124.789 318.87L124.632 319.344C124.002 319.136 123.372 318.923 122.744 318.706L122.907 318.234C122.281 318.018 121.656 317.798 121.032 317.574L120.863 318.045C120.238 317.821 119.614 317.593 118.991 317.361L119.165 316.892C118.855 316.777 118.545 316.66 118.235 316.543C117.925 316.425 117.616 316.307 117.307 316.187L117.126 316.654C116.506 316.414 115.888 316.171 115.271 315.924L115.457 315.46C114.842 315.214 114.229 314.964 113.617 314.71L113.425 315.172C112.811 314.917 112.199 314.659 111.589 314.397L111.786 313.937C111.177 313.676 110.57 313.411 109.965 313.142L109.762 313.599C109.154 313.33 108.549 313.056 107.945 312.779L108.153 312.325C107.551 312.049 106.95 311.769 106.352 311.486L106.138 311.938C105.537 311.653 104.938 311.365 104.341 311.074L104.561 310.624C103.965 310.333 103.372 310.039 102.78 309.741L102.555 310.188C101.962 309.889 101.37 309.586 100.781 309.28L101.011 308.836C100.423 308.531 99.837 308.222 99.2529 307.91L99.0171 308.35C98.431 308.037 97.847 307.72 97.265 307.4L97.5062 306.962C96.9259 306.642 96.3475 306.319 95.7713 305.992L95.5247 306.427C94.9466 306.1 94.3705 305.768 93.7965 305.434L94.0483 305.002C93.476 304.668 92.9058 304.331 92.3377 303.99L92.0806 304.419C91.5106 304.077 90.9428 303.732 90.3772 303.383L90.6395 302.958C90.0756 302.61 89.5138 302.259 88.9541 301.905L88.6866 302.327C88.1252 301.972 87.566 301.613 87.0091 301.25L87.2818 300.831C86.7265 300.47 86.1735 300.105 85.6227 299.737L85.3449 300.153C84.7924 299.784 84.2422 299.411 83.6942 299.035L83.9771 298.623C83.4309 298.248 82.8869 297.87 82.3453 297.488L82.0574 297.897C81.5142 297.515 80.9732 297.129 80.4346 296.739L80.7275 296.334C80.1907 295.946 79.6561 295.555 79.124 295.16L78.8261 295.562C78.2924 295.166 77.7611 294.767 77.2322 294.365L77.5349 293.967C77.0077 293.566 76.483 293.161 75.9606 292.754L75.653 293.148C75.1292 292.739 74.6078 292.327 74.0889 291.912L74.4012 291.522C73.8841 291.108 73.3693 290.691 72.8571 290.271L72.54 290.657C72.0263 290.236 71.5152 289.811 71.0066 289.383L71.3284 289.001C70.8216 288.574 70.3172 288.145 69.8154 287.712L69.4889 288.091C68.9858 287.657 68.4852 287.22 67.9872 286.78L68.3183 286.405C67.822 285.967 67.3283 285.525 66.8373 285.08L66.5016 285.451C66.0092 285.005 65.5195 284.555 65.0324 284.103L65.3726 283.737C64.8872 283.286 64.4045 282.833 63.9245 282.376L63.5798 282.738C63.0985 282.28 62.62 281.819 62.1441 281.355L62.4931 280.997C62.256 280.766 62.0195 280.534 61.7837 280.301C61.5479 280.068 61.3128 279.835 61.0785 279.601L60.7251 279.954C60.2549 279.485 59.7877 279.012 59.3236 278.537L59.6813 278.187C59.2184 277.713 58.7585 277.237 58.3016 276.757L57.9396 277.102C57.4811 276.621 57.0256 276.137 56.5733 275.65L56.9395 275.31C56.4883 274.825 56.0402 274.337 55.5952 273.846L55.2248 274.182C54.7783 273.69 54.3348 273.195 53.8945 272.698L54.2689 272.366C53.8297 271.87 53.3937 271.371 52.9608 270.87L52.5824 271.197C52.148 270.694 51.7168 270.188 51.2888 269.68L51.6712 269.358C51.2443 268.851 50.8206 268.342 50.4001 267.83L50.0138 268.148C49.5919 267.634 49.1732 267.118 48.7577 266.6L49.1479 266.287C48.7336 265.77 48.3225 265.251 47.9146 264.729L47.5207 265.037C47.1115 264.513 46.7055 263.987 46.3028 263.458L46.7006 263.155C46.299 262.628 45.9008 262.099 45.5058 261.567L45.1044 261.865C44.7082 261.332 44.3153 260.796 43.9256 260.258L44.3307 259.964C43.9422 259.428 43.557 258.889 43.1752 258.348L42.7666 258.636C42.3836 258.093 42.0039 257.547 41.6275 257L42.0396 256.717C41.6644 256.171 41.2926 255.622 40.9241 255.072L40.5086 255.35C40.139 254.798 39.7727 254.243 39.4099 253.687L39.8288 253.414C39.4671 252.859 39.1088 252.301 38.7539 251.742L38.3317 252.01C37.9757 251.449 37.6232 250.886 37.2741 250.32L37.6995 250.057C37.3515 249.494 37.007 248.928 36.6659 248.36L36.2372 248.618C35.8951 248.048 35.5565 247.476 35.2213 246.902L35.6531 246.65C35.319 246.078 34.9884 245.504 34.6613 244.928L34.2265 245.175C33.8984 244.597 33.5739 244.017 33.2529 243.435L33.6906 243.194C33.3707 242.614 33.0542 242.032 32.7413 241.448L32.3006 241.684C31.9868 241.098 31.6766 240.511 31.3699 239.921L31.8135 239.69C31.5078 239.103 31.2057 238.513 30.9072 237.922L30.4608 238.147C30.1615 237.554 29.8657 236.959 29.5736 236.362L30.0226 236.142C29.7315 235.547 29.4439 234.95 29.16 234.352L28.7082 234.566C28.4235 233.966 28.1424 233.364 27.8649 232.76L28.3193 232.551C28.0428 231.949 27.7699 231.345 27.5007 230.74L27.0438 230.943C26.7739 230.336 26.5076 229.727 26.245 229.117L26.7044 228.919C26.4427 228.311 26.1847 227.701 25.9304 227.089L25.4687 227.281C25.2137 226.667 24.9624 226.052 24.7148 225.435L25.1788 225.249C25.0555 224.942 24.933 224.634 24.8115 224.326C24.69 224.017 24.5694 223.709 24.4498 223.4L23.9835 223.58C23.7435 222.961 23.5074 222.339 23.2751 221.717L23.7435 221.542C23.5119 220.921 23.284 220.299 23.0601 219.676L22.5895 219.845C22.3648 219.22 22.1439 218.593 21.927 217.965L22.3996 217.802C22.1832 217.176 21.9706 216.548 21.762 215.92L21.2875 216.077C21.0781 215.446 20.8727 214.814 20.6711 214.181L21.1476 214.03C20.9466 213.398 20.7495 212.766 20.5563 212.132L20.0781 212.278C19.8842 211.642 19.6943 211.006 19.5083 210.368L19.9883 210.228C19.8029 209.592 19.6213 208.955 19.4437 208.317L18.962 208.451C18.7838 207.81 18.6096 207.169 18.4393 206.527L18.9225 206.399C18.7527 205.758 18.5868 205.117 18.4249 204.475L17.9401 204.597C17.7776 203.952 17.6191 203.307 17.4646 202.661L17.9508 202.545C17.7967 201.9 17.6466 201.255 17.5005 200.609L17.0128 200.719C16.8661 200.071 16.7235 199.422 16.5848 198.772L17.0738 198.668C16.9355 198.02 16.8013 197.371 16.671 196.722L16.1807 196.82C16.05 196.169 15.9233 195.516 15.8006 194.863L16.292 194.771C16.1696 194.12 16.0513 193.468 15.9369 192.816L15.4444 192.902C15.3297 192.247 15.219 191.592 15.1123 190.936L15.6058 190.856C15.4994 190.202 15.3971 189.548 15.2987 188.893L14.8042 188.967C14.7056 188.31 14.611 187.652 14.5204 186.994L15.0157 186.926C14.9254 186.269 14.8391 185.612 14.7568 184.955L14.2606 185.017C14.1781 184.358 14.0996 183.698 14.0252 183.038L14.522 182.982C14.4478 182.323 14.3776 181.665 14.3114 181.006L13.8139 181.055C13.7476 180.394 13.6852 179.733 13.627 179.071L14.125 179.027C14.067 178.367 14.0129 177.707 13.9629 177.046L13.4643 177.084C13.4142 176.421 13.3681 175.758 13.3261 175.095L13.8251 175.064C13.7832 174.403 13.7453 173.741 13.7115 173.079L13.2121 173.105C13.1782 172.441 13.1484 171.778 13.1226 171.114L13.6222 171.094C13.5965 170.432 13.5749 169.77 13.5573 169.108L13.0574 169.121C13.0398 168.457 13.0262 167.793 13.0167 167.128L13.5166 167.121C13.5072 166.459 13.5017 165.796 13.5003 165.134L13.0004 165.135C12.999 164.47 13.0017 163.806 13.0084 163.141L13.5084 163.146C13.5151 162.484 13.5259 161.822 13.5408 161.159L13.0409 161.148C13.0558 160.484 13.0747 159.82 13.0978 159.155L13.5975 159.173C13.6032 159.008 13.6091 158.844 13.6153 158.679L14.1316 158.7L14.152 158.201L16.1853 158.284L16.1649 158.783L18.1982 158.866L18.2186 158.367L20.2518 158.45L20.2314 158.949L22.2647 159.032L22.2851 158.533L24.3184 158.616L24.298 159.115L26.3312 159.198L26.3516 158.699L28.3849 158.782L28.3645 159.281L30.3978 159.364L30.4182 158.864L32.4514 158.947L32.431 159.447L34.4643 159.53L34.4847 159.03L36.518 159.113L36.4976 159.613L38.5308 159.696L38.5512 159.196L40.5845 159.279L40.5641 159.779L42.5974 159.862L42.6178 159.362L44.651 159.445L44.6306 159.945L46.6639 160.028L46.6843 159.528L48.7175 159.611L48.6972 160.111L50.7304 160.194L50.7508 159.694L52.7841 159.777L52.7637 160.277L54.797 160.36L54.8173 159.86L56.8506 159.943L56.8302 160.443L58.8635 160.526L58.8839 160.026L60.9172 160.109L60.8968 160.609L62.93 160.692L62.9504 160.192L64.9837 160.275L64.9633 160.775L66.9966 160.858L67.017 160.358L69.0502 160.441L69.0298 160.94L71.0631 161.023L71.0835 160.524L73.1168 160.607L73.0964 161.106L75.1296 161.189L75.15 160.69L77.1833 160.773L77.1629 161.272L79.1962 161.355L79.2166 160.856L81.2498 160.939L81.2294 161.438L83.2627 161.521L83.2831 161.022L85.3164 161.105L85.296 161.604L85.8144 161.625C85.8081 161.806 85.8022 161.986 85.797 162.166L86.2968 162.181C86.2766 162.871 86.2644 163.562 86.2602 164.252L85.7602 164.249C85.756 164.943 85.7598 165.637 85.7716 166.331L86.2715 166.323C86.2833 167.013 86.3031 167.703 86.3308 168.393L85.8312 168.413C85.8591 169.107 85.895 169.8 85.9389 170.493L86.4379 170.461C86.4816 171.15 86.5332 171.839 86.5928 172.526L86.0946 172.569C86.1546 173.261 86.2225 173.952 86.2984 174.642L86.7954 174.587C86.8709 175.273 86.9543 175.959 87.0456 176.643L86.55 176.709C86.6419 177.397 86.7417 178.084 86.8494 178.77L87.3434 178.692C87.4505 179.374 87.5655 180.055 87.6884 180.734L87.1964 180.823C87.3199 181.506 87.4514 182.188 87.5907 182.868L88.0806 182.768C88.2191 183.444 88.3655 184.119 88.5196 184.792L88.0323 184.903C88.1873 185.58 88.3501 186.255 88.5208 186.928L89.0054 186.805C89.1751 187.474 89.3525 188.141 89.5377 188.806L89.056 188.94C89.2421 189.609 89.4359 190.276 89.6376 190.94L90.116 190.795C90.3164 191.455 90.5244 192.113 90.7402 192.77L90.2652 192.926C90.482 193.585 90.7065 194.242 90.9387 194.896L91.4099 194.729C91.6406 195.38 91.8789 196.027 92.1248 196.673L91.6575 196.851C91.7811 197.175 91.9065 197.499 92.0339 197.822C92.1612 198.145 92.2904 198.467 92.4214 198.788L92.8844 198.6C93.1452 199.239 93.4132 199.875 93.6884 200.508L93.2299 200.708C93.5069 201.345 93.7911 201.978 94.0825 202.608L94.5363 202.398C94.8263 203.024 95.1234 203.648 95.4276 204.267L94.9788 204.487C95.2849 205.111 95.5982 205.73 95.9184 206.346L96.362 206.115C96.6806 206.728 97.0063 207.336 97.3388 207.941L96.9007 208.182C97.2353 208.791 97.5768 209.395 97.9252 209.995L98.3577 209.744C98.7043 210.341 99.0577 210.934 99.4179 211.523L98.9914 211.784C99.3537 212.376 99.7228 212.964 100.099 213.548L100.519 213.277C100.893 213.858 101.273 214.434 101.66 215.005L101.246 215.286C101.636 215.86 102.032 216.431 102.434 216.996L102.841 216.706C103.242 217.269 103.648 217.827 104.062 218.38L103.661 218.679C104.076 219.235 104.498 219.786 104.926 220.333L105.32 220.025C105.746 220.568 106.178 221.106 106.616 221.64L106.23 221.957C106.67 222.493 107.117 223.025 107.57 223.551L107.949 223.225C108.4 223.747 108.856 224.265 109.319 224.778L108.947 225.113C109.412 225.628 109.883 226.138 110.36 226.643L110.724 226.3C111.198 226.801 111.678 227.297 112.164 227.788L111.808 228.14C112.052 228.387 112.298 228.632 112.545 228.876C112.792 229.12 113.041 229.362 113.29 229.603L113.638 229.243C114.135 229.723 114.637 230.196 115.145 230.663L114.806 231.031C115.317 231.502 115.833 231.966 116.354 232.424L116.684 232.049C117.203 232.505 117.727 232.954 118.255 233.398L117.934 233.781C118.466 234.227 119.003 234.667 119.545 235.101L119.857 234.71C120.397 235.142 120.941 235.567 121.489 235.985L121.186 236.383C121.738 236.804 122.295 237.219 122.856 237.627L123.15 237.222C123.709 237.628 124.272 238.028 124.839 238.42L124.555 238.832C125.126 239.227 125.701 239.615 126.281 239.997L126.556 239.579C127.132 239.959 127.713 240.332 128.299 240.698L128.033 241.122C128.622 241.49 129.214 241.852 129.811 242.206L130.067 241.776C130.66 242.129 131.258 242.475 131.859 242.813L131.614 243.249C132.219 243.59 132.827 243.923 133.44 244.25L133.675 243.809C134.284 244.133 134.897 244.451 135.514 244.762L135.289 245.208C135.909 245.52 136.532 245.826 137.16 246.124L137.374 245.672C137.998 245.968 138.624 246.257 139.255 246.539L139.051 246.995C139.684 247.279 140.321 247.555 140.962 247.823L141.155 247.362C141.791 247.629 142.431 247.889 143.074 248.141L142.891 248.607C143.214 248.734 143.538 248.859 143.863 248.982C144.187 249.105 144.513 249.226 144.839 249.345L145.011 248.876C145.659 249.113 146.31 249.343 146.963 249.565L146.802 250.039C147.46 250.262 148.12 250.478 148.782 250.687L148.932 250.21C149.59 250.417 150.251 250.616 150.914 250.808L150.775 251.288C151.442 251.481 152.111 251.667 152.782 251.844L152.91 251.361C153.578 251.537 154.247 251.706 154.918 251.867L154.802 252.353C155.477 252.515 156.154 252.669 156.832 252.815L156.938 252.326C157.612 252.472 158.289 252.609 158.967 252.739L158.873 253.23C159.555 253.361 160.238 253.483 160.923 253.598L161.005 253.105C161.686 253.219 162.368 253.325 163.052 253.423L162.981 253.918C163.668 254.017 164.356 254.108 165.045 254.191L165.105 253.694C165.79 253.777 166.476 253.851 167.164 253.918L167.115 254.415C167.806 254.482 168.498 254.541 169.19 254.592L169.227 254.094C169.915 254.144 170.605 254.187 171.294 254.222L171.269 254.721C171.962 254.756 172.656 254.783 173.35 254.802L173.364 254.302C174.053 254.321 174.744 254.331 175.434 254.334L175.432 254.834C176.126 254.837 176.82 254.832 177.515 254.819L177.505 254.319C178.195 254.305 178.885 254.284 179.575 254.255L179.596 254.755C179.943 254.74 180.29 254.723 180.636 254.705C180.983 254.686 181.33 254.665 181.676 254.643L181.643 254.144C182.333 254.099 183.021 254.046 183.708 253.985L183.752 254.483C184.444 254.421 185.135 254.352 185.824 254.275L185.769 253.778C186.455 253.701 187.14 253.616 187.824 253.524L187.891 254.019C188.579 253.926 189.266 253.824 189.951 253.715L189.873 253.222C190.555 253.113 191.235 252.997 191.914 252.872L192.004 253.364C192.687 253.239 193.369 253.106 194.048 252.966L193.947 252.476C194.623 252.336 195.297 252.188 195.97 252.033L196.082 252.52C196.759 252.364 197.433 252.199 198.106 252.027L197.982 251.543C198.651 251.372 199.318 251.193 199.982 251.007L200.117 251.488C200.786 251.301 201.452 251.105 202.116 250.902L201.97 250.424C202.63 250.222 203.288 250.013 203.943 249.796L204.1 250.271C204.759 250.053 205.416 249.827 206.069 249.593L205.901 249.122C206.551 248.89 207.199 248.651 207.844 248.404L208.023 248.87C208.671 248.622 209.316 248.366 209.958 248.103L209.769 247.64C210.407 247.378 211.043 247.109 211.676 246.832L211.876 247.29C212.512 247.012 213.144 246.727 213.774 246.434L213.563 245.98C214.189 245.689 214.811 245.391 215.431 245.085L215.652 245.534C215.963 245.38 216.274 245.225 216.583 245.067C216.893 244.91 217.201 244.751 217.509 244.59L217.277 244.147C217.889 243.827 218.497 243.5 219.101 243.166L219.343 243.604C219.951 243.268 220.555 242.925 221.154 242.576L220.902 242.144C221.499 241.796 222.091 241.441 222.679 241.08L222.941 241.506C223.532 241.142 224.12 240.772 224.702 240.395L224.431 239.975C225.01 239.6 225.586 239.219 226.156 238.83L226.438 239.244C227.012 238.853 227.581 238.456 228.146 238.053L227.855 237.646C228.417 237.245 228.974 236.837 229.526 236.422L229.826 236.822C230.382 236.406 230.932 235.983 231.478 235.554L231.168 235.161C231.711 234.734 232.248 234.301 232.781 233.861L233.099 234.247C233.635 233.805 234.165 233.357 234.69 232.903L234.363 232.525C234.885 232.073 235.402 231.616 235.914 231.152L236.249 231.523C236.764 231.057 237.273 230.585 237.776 230.107L237.432 229.744C237.933 229.269 238.428 228.788 238.918 228.301L239.27 228.656C239.763 228.167 240.249 227.672 240.73 227.171L240.37 226.824C240.848 226.327 241.32 225.823 241.787 225.314L242.155 225.652C242.624 225.141 243.088 224.624 243.545 224.101L243.169 223.772C243.623 223.253 244.072 222.728 244.515 222.198L244.899 222.519C245.121 222.252 245.342 221.985 245.562 221.716C245.781 221.446 245.999 221.176 246.215 220.905L245.824 220.593C246.255 220.053 246.679 219.508 247.096 218.959L247.494 219.261C247.914 218.708 248.328 218.151 248.735 217.588L248.329 217.295C248.734 216.736 249.133 216.172 249.524 215.604L249.936 215.887C250.33 215.316 250.717 214.739 251.098 214.159L250.68 213.885C251.058 213.307 251.43 212.726 251.795 212.14L252.219 212.404C252.586 211.815 252.947 211.222 253.3 210.624L252.869 210.37C253.221 209.775 253.565 209.177 253.903 208.575L254.339 208.819C254.678 208.214 255.011 207.604 255.336 206.991L254.894 206.757C255.218 206.147 255.534 205.533 255.844 204.916L256.291 205.14C256.602 204.52 256.906 203.895 257.202 203.268L256.75 203.054C257.045 202.43 257.333 201.803 257.613 201.172L258.07 201.375C258.352 200.741 258.627 200.103 258.894 199.462L258.433 199.27C258.698 198.633 258.957 197.993 259.208 197.349L259.674 197.531C259.926 196.885 260.171 196.235 260.408 195.582L259.938 195.411C260.174 194.763 260.403 194.112 260.624 193.457L261.098 193.617C261.32 192.96 261.534 192.3 261.741 191.637L261.264 191.488C261.47 190.829 261.668 190.168 261.859 189.504L262.339 189.642C262.435 189.308 262.529 188.974 262.621 188.639C262.706 188.33 262.789 188.02 262.871 187.708L262.387 187.581C262.549 186.966 262.704 186.346 262.854 185.722L263.34 185.838C263.489 185.215 263.632 184.588 263.769 183.958L263.28 183.852C263.415 183.23 263.544 182.604 263.667 181.975L264.157 182.071C264.28 181.441 264.397 180.81 264.507 180.175L264.014 180.089C264.124 179.461 264.227 178.83 264.324 178.197L264.818 178.273C264.915 177.639 265.006 177.003 265.091 176.365L264.595 176.299C264.679 175.667 264.757 175.032 264.829 174.396L265.326 174.452C265.398 173.815 265.463 173.176 265.523 172.536L265.025 172.489C265.084 171.853 265.137 171.216 265.184 170.579L265.682 170.615C265.729 169.974 265.77 169.333 265.804 168.692L265.304 168.665C265.339 168.027 265.366 167.388 265.388 166.75L265.887 166.767C265.909 166.124 265.924 165.482 265.933 164.84L265.433 164.833C265.441 164.193 265.444 163.554 265.44 162.916L265.94 162.913C265.935 162.269 265.924 161.627 265.907 160.985L265.407 160.999C265.39 160.359 265.366 159.72 265.336 159.083L265.835 159.059C265.804 158.416 265.767 157.774 265.722 157.134L265.223 157.169C265.179 156.53 265.128 155.893 265.07 155.258L265.568 155.213C265.51 154.571 265.444 153.931 265.372 153.294L264.875 153.351C264.802 152.714 264.723 152.079 264.636 151.449L265.131 151.38C265.111 151.229 265.089 151.079 265.068 150.928L265.571 150.86L265.504 150.364L267.513 150.093L267.58 150.589L269.588 150.317L269.521 149.822L271.53 149.551L271.597 150.046L273.605 149.775L273.538 149.28L275.547 149.008L275.614 149.504L277.622 149.233L277.555 148.737L279.564 148.466L279.631 148.961L281.639 148.69L281.572 148.195L283.581 147.923L283.648 148.419L285.656 148.148L285.589 147.652L287.598 147.381L287.665 147.877L289.673 147.605L289.606 147.11L291.615 146.839L291.682 147.334L293.69 147.063L293.623 146.567L295.632 146.296L295.699 146.792L297.707 146.52L297.64 146.025L299.649 145.754L299.715 146.249L301.724 145.978L301.657 145.483L303.666 145.211L303.732 145.707L305.741 145.436L305.674 144.94L307.683 144.669L307.749 145.164L309.758 144.893L309.691 144.398L311.7 144.126L311.766 144.622L313.775 144.351L313.708 143.855L315.717 143.584L315.783 144.08L317.792 143.808L317.725 143.313L319.733 143.042L319.8 143.537L321.809 143.266L321.742 142.77L323.75 142.499L323.817 142.995L325.826 142.724L325.759 142.228L327.767 141.957L327.834 142.452L329.843 142.181L329.776 141.686L331.784 141.414L331.851 141.91L333.86 141.639L333.793 141.143Z" fill="#9AED66" stroke="black" stroke-dasharray="2 2"/>
<path d="M336.896 140.733C332.585 110.055 319.609 81.2441 299.494 57.6836C279.379 34.1231 252.958 16.7912 223.335 7.72334L201.892 77.7733C218.185 82.7607 232.716 92.2932 243.779 105.251C254.843 118.21 261.979 134.056 264.351 150.929L336.896 140.733Z" fill="#75CC5B"/>
<path d="M336.886 140.658C333.385 115.829 324.195 92.145 310.035 71.452C295.874 50.759 277.125 33.6166 255.25 21.3617C233.374 9.10681 208.964 2.0706 183.922 0.801814C158.879 -0.466975 133.883 4.06595 110.881 14.0471C87.8785 24.0282 67.4929 39.1878 51.3134 58.3436C35.1339 77.4994 23.598 100.134 17.6052 124.481C11.6124 148.829 11.3247 174.232 16.7646 198.709C22.2045 223.186 33.2249 246.076 48.9663 265.593L105.989 219.602C97.3314 208.867 91.2702 196.278 88.2783 182.815C85.2864 169.353 85.4446 155.381 88.7406 141.99C92.0367 128.599 98.3814 116.15 107.28 105.614C116.179 95.0788 127.391 86.741 140.042 81.2514C152.693 75.7618 166.441 73.2687 180.215 73.9665C193.988 74.6643 207.414 78.5342 219.445 85.2744C231.477 92.0146 241.789 101.443 249.577 112.824C257.365 124.205 262.419 137.232 264.345 150.887L336.886 140.658Z" fill="#A4E47E" fill-opacity="0.4"/>
<rect x="289" y="27.5933" width="70" height="52" rx="8" fill="#054752"/>
<path d="M300.135 62.5933V60.5773L306.659 53.1853C307.574 52.1586 308.208 51.3093 308.563 50.6373C308.936 49.9653 309.123 49.3119 309.123 48.6773C309.123 47.8186 308.852 47.1373 308.311 46.6333C307.788 46.1106 307.07 45.8493 306.155 45.8493C305.184 45.8493 304.41 46.1293 303.831 46.6893C303.252 47.2306 302.954 47.9866 302.935 48.9573H300.191C300.228 47.2026 300.788 45.8213 301.871 44.8133C302.972 43.7866 304.438 43.2733 306.267 43.2733C308.04 43.2733 309.431 43.7399 310.439 44.6733C311.466 45.6066 311.979 46.8946 311.979 48.5373C311.979 49.5079 311.746 50.4599 311.279 51.3933C310.831 52.3266 310.056 53.3999 308.955 54.6133L304.139 59.9613H311.951V62.5933H300.135ZM326.813 56.6293V59.2613H324.825V62.5933H322.137V59.2613H312.953V56.9653L322.221 43.6933H324.825V56.6293H326.813ZM315.921 56.6293H322.137V47.8653H322.025L315.921 56.6293ZM330.146 44.5333C330.986 43.6933 332.068 43.2733 333.394 43.2733C334.719 43.2733 335.792 43.6933 336.614 44.5333C337.454 45.3733 337.874 46.4466 337.874 47.7533C337.874 49.0599 337.454 50.1333 336.614 50.9733C335.792 51.8133 334.719 52.2333 333.394 52.2333C332.068 52.2333 330.986 51.8133 330.146 50.9733C329.324 50.1333 328.914 49.0599 328.914 47.7533C328.914 46.4466 329.324 45.3733 330.146 44.5333ZM331.658 62.5933L342.718 43.6933H344.314L333.254 62.5933H331.658ZM335.438 45.6533C334.934 45.1119 334.252 44.8413 333.394 44.8413C332.535 44.8413 331.854 45.1119 331.35 45.6533C330.846 46.1946 330.594 46.8946 330.594 47.7533C330.594 48.6119 330.846 49.3119 331.35 49.8533C331.854 50.3946 332.535 50.6653 333.394 50.6653C334.252 50.6653 334.934 50.3946 335.438 49.8533C335.942 49.3119 336.194 48.6119 336.194 47.7533C336.194 46.8946 335.942 46.1946 335.438 45.6533ZM339.582 55.0333C340.422 54.1933 341.504 53.7733 342.83 53.7733C344.155 53.7733 345.228 54.1933 346.05 55.0333C346.89 55.8733 347.31 56.9466 347.31 58.2533C347.31 59.5599 346.89 60.6333 346.05 61.4733C345.228 62.3133 344.155 62.7333 342.83 62.7333C341.504 62.7333 340.422 62.3133 339.582 61.4733C338.76 60.6333 338.35 59.5599 338.35 58.2533C338.35 56.9466 338.76 55.8733 339.582 55.0333ZM344.874 56.1533C344.37 55.6119 343.688 55.3413 342.83 55.3413C341.971 55.3413 341.29 55.6119 340.786 56.1533C340.282 56.6946 340.03 57.3946 340.03 58.2533C340.03 59.1119 340.282 59.8119 340.786 60.3533C341.29 60.8946 341.971 61.1653 342.83 61.1653C343.688 61.1653 344.37 60.8946 344.874 60.3533C345.378 59.8119 345.63 59.1119 345.63 58.2533C345.63 57.3946 345.378 56.6946 344.874 56.1533Z" fill="white"/>
<rect x="289" y="27.5933" width="65" height="52" rx="8" fill="#054752"/>
<path d="M305.221 43.6933V62.5933H302.477V46.4373H301.301V43.6933H305.221ZM319.884 61.5013C318.726 62.5093 317.158 63.0133 315.18 63.0133C313.201 63.0133 311.633 62.5093 310.476 61.5013C309.318 60.4746 308.74 59.0933 308.74 57.3573C308.74 56.1626 309.048 55.1359 309.664 54.2773C310.28 53.3999 311.129 52.8026 312.212 52.4853V52.4293C311.334 52.1679 310.625 51.6546 310.084 50.8893C309.542 50.1239 309.272 49.2466 309.272 48.2573C309.272 46.7639 309.813 45.5599 310.896 44.6453C311.978 43.7306 313.406 43.2733 315.18 43.2733C316.953 43.2733 318.381 43.7306 319.464 44.6453C320.546 45.5599 321.088 46.7639 321.088 48.2573C321.088 49.2466 320.817 50.1239 320.276 50.8893C319.734 51.6546 319.025 52.1679 318.148 52.4293V52.4853C319.23 52.8026 320.08 53.3999 320.696 54.2773C321.312 55.1359 321.62 56.1626 321.62 57.3573C321.62 59.0933 321.041 60.4746 319.884 61.5013ZM312.968 50.5253C313.509 51.0106 314.246 51.2533 315.18 51.2533C316.113 51.2533 316.85 51.0106 317.392 50.5253C317.933 50.0213 318.204 49.3399 318.204 48.4813C318.204 47.6226 317.933 46.9506 317.392 46.4653C316.85 45.9613 316.113 45.7093 315.18 45.7093C314.246 45.7093 313.509 45.9613 312.968 46.4653C312.426 46.9506 312.156 47.6226 312.156 48.4813C312.156 49.3399 312.426 50.0213 312.968 50.5253ZM312.548 59.6813C313.164 60.2786 314.041 60.5773 315.18 60.5773C316.318 60.5773 317.196 60.2786 317.812 59.6813C318.428 59.0839 318.736 58.2346 318.736 57.1333C318.736 56.0879 318.409 55.2666 317.756 54.6693C317.121 54.0533 316.262 53.7453 315.18 53.7453C314.097 53.7453 313.229 54.0533 312.576 54.6693C311.941 55.2666 311.624 56.0879 311.624 57.1333C311.624 58.2346 311.932 59.0839 312.548 59.6813ZM325.239 44.5333C326.079 43.6933 327.162 43.2733 328.487 43.2733C329.813 43.2733 330.886 43.6933 331.707 44.5333C332.547 45.3733 332.967 46.4466 332.967 47.7533C332.967 49.0599 332.547 50.1333 331.707 50.9733C330.886 51.8133 329.813 52.2333 328.487 52.2333C327.162 52.2333 326.079 51.8133 325.239 50.9733C324.418 50.1333 324.007 49.0599 324.007 47.7533C324.007 46.4466 324.418 45.3733 325.239 44.5333ZM326.751 62.5933L337.811 43.6933H339.407L328.347 62.5933H326.751ZM330.531 45.6533C330.027 45.1119 329.346 44.8413 328.487 44.8413C327.629 44.8413 326.947 45.1119 326.443 45.6533C325.939 46.1946 325.687 46.8946 325.687 47.7533C325.687 48.6119 325.939 49.3119 326.443 49.8533C326.947 50.3946 327.629 50.6653 328.487 50.6653C329.346 50.6653 330.027 50.3946 330.531 49.8533C331.035 49.3119 331.287 48.6119 331.287 47.7533C331.287 46.8946 331.035 46.1946 330.531 45.6533ZM334.675 55.0333C335.515 54.1933 336.598 53.7733 337.923 53.7733C339.249 53.7733 340.322 54.1933 341.143 55.0333C341.983 55.8733 342.403 56.9466 342.403 58.2533C342.403 59.5599 341.983 60.6333 341.143 61.4733C340.322 62.3133 339.249 62.7333 337.923 62.7333C336.598 62.7333 335.515 62.3133 334.675 61.4733C333.854 60.6333 333.443 59.5599 333.443 58.2533C333.443 56.9466 333.854 55.8733 334.675 55.0333ZM339.967 56.1533C339.463 55.6119 338.782 55.3413 337.923 55.3413C337.065 55.3413 336.383 55.6119 335.879 56.1533C335.375 56.6946 335.123 57.3946 335.123 58.2533C335.123 59.1119 335.375 59.8119 335.879 60.3533C336.383 60.8946 337.065 61.1653 337.923 61.1653C338.782 61.1653 339.463 60.8946 339.967 60.3533C340.471 59.8119 340.723 59.1119 340.723 58.2533C340.723 57.3946 340.471 56.6946 339.967 56.1533Z" fill="white"/>
<rect y="230.593" width="71" height="52" rx="8" fill="#054752"/>
<path d="M18.206 253.161C19.9606 253.161 21.3606 253.721 22.406 254.841C23.4513 255.961 23.974 257.455 23.974 259.321C23.974 261.393 23.386 263.027 22.21 264.221C21.034 265.416 19.4286 266.013 17.394 266.013C15.8446 266.013 14.5006 265.677 13.362 265.005C12.242 264.333 11.402 263.363 10.842 262.093L13.166 260.665C14.0993 262.513 15.5086 263.437 17.394 263.437C18.5513 263.437 19.4566 263.083 20.11 262.373C20.782 261.645 21.118 260.647 21.118 259.377C21.118 258.183 20.7913 257.24 20.138 256.549C19.4846 255.859 18.6073 255.513 17.506 255.513C16.834 255.513 16.1993 255.653 15.602 255.933C15.0233 256.213 14.5753 256.587 14.258 257.053H11.822L12.802 246.693H22.462V249.325H15.014L14.482 254.393H14.538C15.4526 253.572 16.6753 253.161 18.206 253.161ZM39.1055 259.629V262.261H37.1175V265.593H34.4295V262.261H25.2455V259.965L34.5135 246.693H37.1175V259.629H39.1055ZM28.2135 259.629H34.4295V250.865H34.3175L28.2135 259.629ZM42.4386 247.533C43.2786 246.693 44.3613 246.273 45.6866 246.273C47.012 246.273 48.0853 246.693 48.9066 247.533C49.7466 248.373 50.1666 249.447 50.1666 250.753C50.1666 252.06 49.7466 253.133 48.9066 253.973C48.0853 254.813 47.012 255.233 45.6866 255.233C44.3613 255.233 43.2786 254.813 42.4386 253.973C41.6173 253.133 41.2066 252.06 41.2066 250.753C41.2066 249.447 41.6173 248.373 42.4386 247.533ZM43.9506 265.593L55.0106 246.693H56.6066L45.5466 265.593H43.9506ZM47.7306 248.653C47.2266 248.112 46.5453 247.841 45.6866 247.841C44.828 247.841 44.1466 248.112 43.6426 248.653C43.1386 249.195 42.8866 249.895 42.8866 250.753C42.8866 251.612 43.1386 252.312 43.6426 252.853C44.1466 253.395 44.828 253.665 45.6866 253.665C46.5453 253.665 47.2266 253.395 47.7306 252.853C48.2346 252.312 48.4866 251.612 48.4866 250.753C48.4866 249.895 48.2346 249.195 47.7306 248.653ZM51.8746 258.033C52.7146 257.193 53.7973 256.773 55.1226 256.773C56.448 256.773 57.5213 257.193 58.3426 258.033C59.1826 258.873 59.6026 259.947 59.6026 261.253C59.6026 262.56 59.1826 263.633 58.3426 264.473C57.5213 265.313 56.448 265.733 55.1226 265.733C53.7973 265.733 52.7146 265.313 51.8746 264.473C51.0533 263.633 50.6426 262.56 50.6426 261.253C50.6426 259.947 51.0533 258.873 51.8746 258.033ZM57.1666 259.153C56.6626 258.612 55.9813 258.341 55.1226 258.341C54.264 258.341 53.5826 258.612 53.0786 259.153C52.5746 259.695 52.3226 260.395 52.3226 261.253C52.3226 262.112 52.5746 262.812 53.0786 263.353C53.5826 263.895 54.264 264.165 55.1226 264.165C55.9813 264.165 56.6626 263.895 57.1666 263.353C57.6706 262.812 57.9226 262.112 57.9226 261.253C57.9226 260.395 57.6706 259.695 57.1666 259.153Z" fill="white"/>
</svg>
