<svg width="95" height="80" viewBox="0 0 95 80" fill="none" xmlns="http://www.w3.org/2000/svg">
<path d="M93.6657 48.6757C91.2676 34.2223 77.5921 24.5002 63.2036 26.9631L67.4164 2.75531L51.9585 0.000732422C50.6623 2.91734 44.8291 16.2041 42.0098 31.1112C47.7457 35 51.9585 41.1573 53.2224 48.6109C54.5187 56.4857 52.2502 64.1661 47.5189 69.8697C48.6855 71.2956 50.0142 72.5919 51.5049 73.7585C57.5001 78.4899 64.7915 80.3371 71.9209 79.138C86.4066 76.7399 96.1286 63.0643 93.6333 48.6757H93.6657Z" fill="#054752"/>
<path d="M41.7507 32.7956L42.0747 31.1753C36.5656 27.4161 29.7603 25.731 22.6957 26.8976L26.9085 2.72217L11.483 0C10.122 3.01383 3.89991 17.1756 1.24258 32.7308C-0.896244 45.3046 -0.799025 58.7858 5.77949 68.281C7.23778 70.3226 8.95532 72.1698 11.0293 73.7902C17.0569 78.5215 24.3808 80.3687 31.5102 79.1697C38.0563 78.1003 43.5978 74.6327 47.519 69.9338L46.2876 68.3134C39.6766 58.8507 39.5794 45.3694 41.7507 32.828V32.7956Z" fill="#2DBEFF"/>
<path d="M53.255 48.6754C51.9588 41.2219 47.7459 35.0646 42.0424 31.1758L41.7183 32.7961C39.6119 45.3699 39.7091 58.8511 46.3201 68.3463L47.5191 69.9667C52.2504 64.1334 54.5837 56.4854 53.2226 48.5782L53.255 48.6754Z" fill="#9EF769"/>
</svg>
