<svg width="369" height="506" viewBox="0 0 369 506" fill="none" xmlns="http://www.w3.org/2000/svg">
<g clip-path="url(#clip0_639_2056)">
<path opacity="0.2" d="M219.486 483.225C154.185 479.15 101.481 472.118 101.768 467.517C102.055 462.917 155.224 462.491 220.525 466.565C285.826 470.64 338.53 477.673 338.243 482.273C337.956 486.873 284.786 487.3 219.486 483.225Z" fill="#7D3561"/>
<path d="M84.3855 159.288C85.6689 159.547 87.7239 160.334 88.7595 160.598C92.6733 161.681 98.9168 166.421 99.8284 166.358C100.914 166.904 101.779 167.788 102.284 168.866C102.79 169.944 102.906 171.153 102.614 172.3C101.501 177.24 96.6327 175.918 95.4713 175.686C90.5696 175.413 85.6858 174.882 80.8417 174.094C78.2207 173.607 75.6291 172.979 73.0789 172.213C72.1946 171.839 72.2249 171.022 73.1484 171.1C75.0389 171.218 78.2034 171.415 79.3043 171.624C79.6126 171.643 79.6082 171.383 79.4948 171.216C77.2086 170.771 74.9507 170.197 72.7327 169.497C71.1609 168.9 69.2467 168.501 69.3629 167.63C69.3914 167.173 71.5535 167.568 74.0356 168.122C75.5646 168.489 77.1245 168.72 78.6959 168.812C78.9923 168.69 78.849 168.342 78.5034 168.261C77.2529 167.803 73.0794 166.585 70.6545 165.775C68.8928 165.246 68.9828 164.134 70.4126 164.363C72.7489 164.609 76.5263 165.563 79.1615 165.647C79.4287 165.664 79.5961 165.295 79.1925 165.15C78.2323 164.671 73.1209 163.275 70.7888 162.63C69.1299 162.108 69.2249 160.916 71.4897 161.317C74.6056 161.631 78.0853 162.068 80.4117 162.472C83.2506 162.929 84.4967 163.126 84.6859 162.739C84.8751 162.352 83.1724 161.208 81.6043 160.551C80.0362 159.894 79.1318 158.521 79.4946 157.665C81.0768 158.312 82.7049 158.847 84.3662 159.266" fill="#7F5D38"/>
<path d="M171.519 195.679C168.919 204.298 159.216 201.776 159.216 201.776C140.658 197.006 107.038 182.714 95.9796 175.139C94.3296 174.092 92.7679 172.92 91.3093 171.634C90.5218 170.816 90.0925 169.734 90.1121 168.618C90.1317 167.502 90.5986 166.439 91.4143 165.653C92.9265 164.231 100.179 166.021 100.179 166.021C181.925 178.346 173.281 189.602 171.519 195.679Z" fill="#7F5D38"/>
<path d="M143.578 48.7248C143.578 48.7248 156.344 66.6249 171.749 56.7892C201.83 37.5512 218.22 63.1616 207.392 82.9622C184.114 125.416 148.449 86.3691 148.449 86.3691L143.578 48.7248Z" fill="black"/>
<path d="M245.54 263.044C245.885 310.404 208.032 352.388 208.032 352.388L184.25 347.371L194.955 253.84C194.966 253.661 245.533 253.564 245.605 262.988" fill="#7F5D38"/>
<path d="M208.067 340.256C249.326 353.128 243.921 382.548 273.434 416.72L263.889 424.886L186.829 355.974C186.829 355.974 181.055 351.303 185.35 337.022C193.02 337.019 200.654 338.107 208.005 340.252" fill="#7F5D38"/>
<path d="M234.884 280.74C229.981 289.894 199.551 324.318 193.973 330.735C190.905 334.276 187.884 337.4 185.133 340.162C180.395 344.775 175.253 348.981 169.764 352.734L168.646 353.463L154.32 346.003L149.084 343.301L147.206 342.326L147.398 341.899L147.414 341.64L174.625 230.858C174.757 230.727 210.204 274.59 219.753 272.312C229.302 270.034 238.536 274.122 234.894 280.92" fill="#957247"/>
<path d="M145.82 343.397C145.051 345.641 144.989 348.058 145.642 350.343C146.295 352.627 147.633 354.675 149.487 356.227C151.341 357.778 153.627 358.765 156.056 359.06C158.484 359.355 160.946 358.946 163.128 357.885C165.31 356.823 167.115 355.158 168.314 353.098C169.512 351.039 170.05 348.68 169.86 346.319C169.669 343.958 168.759 341.702 167.244 339.837C165.729 337.972 163.678 336.582 161.35 335.844C158.247 334.859 154.873 335.101 151.963 336.516C149.053 337.931 146.845 340.404 145.82 343.397Z" fill="#957247"/>
<path d="M131.476 98.8614C129.579 98.1842 120.116 102.723 120.116 102.723L129.221 110.535C129.221 110.535 118.511 121.502 122.782 133.723C127.053 145.944 137.811 165.276 135.858 188.644C133.904 212.012 135.122 252.342 140.208 279.921C143.561 297.569 148.054 315 153.661 332.111L191.759 308.684L131.476 98.8614Z" fill="#7FBF55"/>
<path d="M197.015 192.061C197.237 148.168 186.68 119.33 179.45 111.554C167.578 98.8389 147.459 101.575 147.459 101.575C147.459 101.575 140.351 104.065 134.978 105.885C134.978 105.885 128.822 125.858 126.171 129.664C122.478 134.962 121.403 154.832 126.259 161.302C134.874 172.676 142.312 183.059 149.269 226.282C149.269 226.282 135.557 317.43 137.246 339.289C224.666 341.352 264.62 310.675 264.62 310.675C261.119 281.159 196.809 224.12 196.965 192.197" fill="#054752"/>
<path d="M124.216 82.9611L127.193 94.1035L130.697 107.035C130.936 108.175 131.472 109.237 132.255 110.121C133.038 111.005 134.041 111.681 135.168 112.084C137.837 113.228 140.809 113.526 143.655 112.933C146.548 112.632 149.259 111.434 151.383 109.516C153.507 107.598 154.93 105.064 155.438 102.292L148.047 75.607L124.216 82.9611Z" fill="#957247"/>
<path opacity="0.3" d="M141.632 100.413C142.189 109.143 143.525 117.814 145.626 126.327C149.083 140.014 167.126 178.48 182.375 190.967C198.466 204.185 211.828 253.196 215.888 274.425C220.663 299.39 235.523 325.065 235.523 325.065C235.523 325.065 292.118 297.124 293.108 267.05C293.618 251.594 278.088 247.572 278.088 247.572C278.088 247.572 219.66 245.044 204.154 206.257C188.648 167.47 184.897 174.021 186.352 140.464C187.806 106.906 155.61 104.179 155.61 104.179L156.273 93.5628L141.632 100.413Z" fill="black"/>
<path d="M147.411 95.4049C147.411 95.4049 142.208 112.663 145.623 126.367C149.038 140.071 163.195 175.361 179.963 185.987C196.731 196.613 214.149 236.837 224.592 255.929C235.035 275.021 269.573 328.487 269.573 328.487C269.573 328.487 301.493 283.738 304.259 268.504C307.025 253.269 300.45 236.334 300.45 236.334C300.45 236.334 232.082 241.029 216.492 202.257C200.903 163.485 194.424 169.447 195.88 135.87C197.336 102.292 159.817 100.23 159.817 100.23L163.478 92.7952L147.411 95.4049Z" fill="#9AED66"/>
<path d="M134.057 104.111C134.057 104.111 115.104 155.277 116.15 159.673C117.321 164.696 118.18 169.12 131.056 170.382C137.207 170.986 128.543 151.486 128.543 151.486L134.057 104.111Z" fill="#054752"/>
<path d="M145.399 346.823L152.493 446.374L165.96 448.073C165.96 448.073 188.041 371.916 169.377 340.097L145.399 346.823Z" fill="#957247"/>
<path d="M112.105 77.3757C112.136 78.8706 112.319 80.3595 112.653 81.8205C113.751 88.6945 115.654 91.5873 119.327 93.5528C132.698 97.1213 143.708 85.6542 143.708 85.6542L147.987 76.2419C147.987 76.2419 148.615 58.5788 134.615 51.8577C128.608 48.9483 123.254 45.1615 116.549 46.1601C108.943 47.3819 108.472 57.2514 108.472 57.2514L106.455 75.3666L112.105 77.3757Z" fill="#957247"/>
<path d="M113.333 75.2172C114.172 75.988 112.042 77.3918 112.042 77.3918L106.475 75.368C106.475 75.368 111.56 73.5498 113.333 75.2172Z" fill="#7F5D38"/>
<path d="M112.578 81.0373C112.711 81.8838 112.875 82.8919 113.089 84.0828C113.083 84.1822 113.076 84.3015 113.068 84.4208C114.518 84.3316 118.566 83.9256 119.465 81.0879C119.465 81.0879 114.518 81.0187 112.557 81.0361" fill="white"/>
<path d="M127.194 94.1036L130.698 107.035C130.937 108.175 131.473 109.237 132.256 110.121C133.038 111.005 134.042 111.681 135.169 112.084C139.742 104.925 136.558 92.4727 136.558 92.4727L127.194 94.1036Z" fill="#7F5D38"/>
<path d="M158.541 106.458C158.541 106.458 174.113 98.5682 190.239 113.545C199.636 122.294 239.133 153.477 239.936 155.822C245.581 172.14 228.881 181.237 221.698 177.994C215.679 175.284 190.842 158.427 177.002 144.83C166.021 134.027 147.586 118.048 158.541 106.458Z" fill="#9AED66"/>
<path d="M188.27 245.6C188.353 244.268 188.967 242.031 189.119 240.923C189.751 236.731 194.112 229.659 194.005 228.734C194.46 227.552 195.314 226.553 196.428 225.899C197.543 225.244 198.854 224.972 200.15 225.126C205.752 225.615 204.91 230.832 204.895 232.068C205.287 237.155 205.381 242.258 205.179 247.353C205.013 250.13 204.689 252.894 204.208 255.635C203.922 256.595 203.009 256.678 202.968 255.677C202.907 253.678 202.677 250.43 202.683 249.333C202.704 248.995 202.371 249.054 202.198 249.183C202.034 251.601 201.725 254.007 201.273 256.39C200.837 258.099 200.669 260.124 199.679 260.122C199.165 260.09 199.304 257.863 199.551 255.225C199.745 253.597 199.778 251.956 199.651 250.321C199.483 250.031 199.117 250.288 199.076 250.605C198.744 251.961 198.012 256.426 197.519 259.029C197.169 261.003 195.936 260.926 195.986 259.473C195.933 257.014 196.39 252.992 196.168 250.264C196.185 250.005 195.721 249.836 195.614 250.229C195.218 251.282 194.418 256.82 193.979 259.228C193.64 261.023 192.314 261.119 192.424 258.691C192.339 255.433 192.321 251.76 192.451 249.333C192.639 246.331 192.579 244.97 192.11 244.881C191.309 244.831 190.639 246.646 190.162 248.332C189.686 250.019 188.273 251.168 187.279 250.906C187.778 249.183 188.136 247.423 188.349 245.644" fill="#957247"/>
<path d="M232.875 157.237C242.234 160.655 238.605 170.547 238.605 170.547C231.736 189.377 213.083 222.84 203.723 233.671C202.424 235.296 200.991 236.815 199.437 238.214C198.465 238.951 197.234 239.293 196.002 239.167C194.771 239.042 193.636 238.46 192.837 237.542C191.396 235.836 193.96 228.472 193.96 228.472C214.531 144.757 226.259 154.829 232.834 157.235" fill="#957247"/>
<path d="M235.942 152.719C245.3 156.157 243.394 169.509 243.394 169.509C236.525 188.339 226.598 207.258 217.366 218.018L198.194 209.537C206.459 156.766 229.366 150.333 235.942 152.719Z" fill="#9AED66"/>
<path d="M153.51 69.0625C153.585 70.4253 153.246 71.7778 152.535 72.9533C151.824 74.1287 150.772 75.0758 149.509 75.6778C148.247 76.2799 146.828 76.5105 145.428 76.3413C144.028 76.1722 142.709 75.6106 141.632 74.7258C140.555 73.841 139.767 72.6717 139.367 71.3619C138.966 70.0521 138.97 68.6591 139.377 67.3546C139.785 66.05 140.578 64.8909 141.66 64.02C142.742 63.1492 144.064 62.6046 145.465 62.4535C147.432 62.3078 149.381 62.9208 150.888 64.159C152.396 65.3971 153.338 67.1598 153.51 69.0625Z" fill="#957247"/>
<path d="M168.953 444.748C168.586 447.658 164.439 471.468 164.439 471.468L160.319 471.371L159.571 461.545C158.792 461.322 157.965 461.31 157.181 461.511C156.397 461.712 155.686 462.118 155.127 462.685C150.97 466.157 150.8 472.852 140.04 473.039C135.903 472.856 131.794 472.278 127.771 471.316C121.031 468.899 123.922 465.228 127.917 464.679C131.243 463.915 134.465 462.777 137.514 461.286C143.717 458.42 148.751 448.496 151.776 443.975C151.958 443.707 168.952 444.767 168.952 444.767" fill="#004753"/>
<path d="M270.569 408.06C272.5 410.176 288.404 429.03 288.404 429.03L285.579 431.987L277.43 426.05C276.748 426.465 276.2 427.055 275.846 427.756C275.493 428.457 275.348 429.239 275.429 430.017C275.386 435.343 280.486 439.892 273.614 447.865C270.763 450.765 267.622 453.383 264.235 455.682C257.844 458.935 256.989 454.451 259.174 451.175C260.756 448.241 261.974 445.135 262.804 441.922C264.648 435.511 260.212 425.275 258.679 420.09C258.595 419.786 270.546 408.098 270.546 408.098" fill="#004753"/>
<path d="M116.588 65.7207C116.633 65.9017 116.638 66.0898 116.602 66.2725C116.567 66.4552 116.492 66.6284 116.382 66.7806C116.272 66.9328 116.129 67.0606 115.964 67.1554C115.799 67.2503 115.615 67.3101 115.424 67.3309C115.233 67.3517 115.04 67.333 114.857 67.2761C114.673 67.2192 114.504 67.1253 114.361 67.0007C114.218 66.8761 114.103 66.7235 114.025 66.5532C113.947 66.3829 113.907 66.1986 113.908 66.0125C113.91 65.6913 114.033 65.3823 114.254 65.1437C114.476 64.9052 114.78 64.7537 115.11 64.7178C115.439 64.6819 115.772 64.764 116.044 64.9488C116.316 65.1336 116.51 65.4081 116.588 65.7207Z" fill="#004753"/>
<path d="M147.745 64.5915C147.745 64.5915 136.876 69.182 131.448 63.9338C128.234 60.836 125.501 57.304 123.335 53.4488L147.745 64.5915Z" fill="black"/>
<path d="M125.673 55.9897C125.673 55.9897 105.18 68.6812 94.7967 66.8159C84.413 64.9506 101.349 53.7136 101.349 53.7136C101.349 53.7136 100.478 30.309 120.903 25.9755C151.801 19.4216 153.148 53.0541 153.148 53.0541C153.148 53.0541 161.75 50.737 164.477 55.9564C165.765 58.4715 161.067 77.557 125.673 55.9897Z" fill="#054752"/>
<path d="M125.105 25.7385C125.105 25.7385 132.078 21.763 127.866 20.5023C123.654 19.2416 123.245 25.1434 123.245 25.1434C123.245 25.1434 120.496 19.2641 118.251 21.1996C116.005 23.135 121.678 26.4427 121.678 26.4427L125.105 25.7385Z" stroke="#054752" stroke-width="1.07714" stroke-linecap="round" stroke-linejoin="round"/>
<path d="M64.3586 151.051L76.7607 160.717L73.9288 164.126L61.5266 154.46L64.3586 151.051Z" fill="#054752"/>
<path d="M92.9376 171.418L75.2661 157.645C75.0318 157.462 74.7324 157.377 74.434 157.407C74.1355 157.438 73.8623 157.582 73.6745 157.808L70.4692 161.666C70.2815 161.893 70.1945 162.182 70.2274 162.471C70.2603 162.76 70.4105 163.025 70.6448 163.207L87.7541 176.542C88.6062 177.206 89.6947 177.517 90.7801 177.405C91.8654 177.293 92.8588 176.769 93.5416 175.947C94.0947 175.281 94.3509 174.429 94.2539 173.578C94.1569 172.727 93.7147 171.947 93.0244 171.409L92.9376 171.418Z" fill="#054752"/>
<path d="M68.6145 138.626C67.752 135.018 65.8046 131.735 63.0184 129.19C60.2321 126.646 56.7323 124.955 52.9613 124.332C49.1904 123.709 45.3177 124.181 41.8329 125.688C38.3482 127.196 35.4078 129.671 33.3837 132.801C31.3596 135.932 30.3426 139.576 30.4613 143.275C30.5801 146.973 31.8292 150.559 34.0507 153.578C36.2722 156.598 39.3665 158.916 42.9421 160.239C46.5178 161.562 50.4143 161.832 54.1389 161.013C56.6179 160.479 58.961 159.474 61.0329 158.057C63.1047 156.64 64.8644 154.839 66.2103 152.758C67.5561 150.676 68.4615 148.356 68.8742 145.93C69.2868 143.505 69.1986 141.022 68.6145 138.626ZM46.2901 128.112C50.3004 127.235 54.5129 127.934 58.0039 130.057C61.495 132.179 63.9795 135.55 64.9128 139.433C65.1542 140.429 65.2843 141.448 65.3009 142.47C65.4068 146.199 64.0756 149.827 61.5663 152.647C59.057 155.468 55.5491 157.281 51.7252 157.732C47.9013 158.183 44.035 157.24 40.8785 155.088C37.7219 152.935 35.501 149.726 34.6479 146.086C34.4084 145.089 34.2783 144.071 34.2598 143.048C34.1772 139.592 35.3289 136.219 37.5204 133.498C39.712 130.777 42.8094 128.875 46.2901 128.112Z" fill="#054851"/>
</g>
<defs>
<clipPath id="clip0_639_2056">
<rect width="337.484" height="485.337" fill="white" transform="matrix(-0.998059 -0.0622783 -0.0622783 0.998059 368.027 21.3667)"/>
</clipPath>
</defs>
</svg>
