<svg width="333" height="331" viewBox="0 0 333 331" fill="none" xmlns="http://www.w3.org/2000/svg">
<path d="M167.038 24H161.819C117.46 24 81.5 60.0004 81.5 104.409V104.427C81.5 148.836 117.46 184.836 161.819 184.836H167.038C211.397 184.836 247.357 148.836 247.357 104.427V104.409C247.357 60.0004 211.397 24 167.038 24Z" fill="#BD9AB0"/>
<path d="M188.831 86.8836C188.4 85.9499 187.773 85.088 187.342 84.1902C186.3 81.3121 185.772 78.2731 185.782 75.2119L182.069 82.5022C181.772 82.4932 181.477 82.5497 181.204 82.6676C180.931 82.7855 180.687 82.962 180.49 83.1846C179.02 84.5992 177.96 86.3864 177.423 88.3561C176.953 89.7551 176.854 91.2526 177.136 92.7015C177.286 93.43 177.604 94.1131 178.065 94.6963C178.526 95.2794 179.117 95.7463 179.791 96.0594C180.795 96.4537 181.892 96.5473 182.948 96.3287C184.389 96.1096 185.739 95.4878 186.843 94.5349C187.947 93.582 188.761 92.3366 189.19 90.9418C189.511 89.5858 189.385 88.162 188.831 86.8836Z" fill="#F78B00"/>
<path d="M147.416 95.916C147.794 96.3314 148.258 96.6603 148.775 96.8803C149.292 97.1003 149.85 97.2063 150.411 97.1909C151.543 97.1463 152.654 96.8713 153.676 96.3829C154.292 96.1573 154.85 95.7952 155.308 95.3234C157.424 92.9352 156.151 85.6629 152.008 86.4889C148.671 87.1353 144.994 93.0071 147.416 95.916Z" fill="#F78B00"/>
<path d="M180.813 97.532L153.873 93.7432L153.299 159.625L181.62 156.393L180.813 97.532Z" fill="#FACFC4"/>
<path d="M154.447 97.891C155.075 98.0886 157.012 121.45 181.028 123.228L180.598 95.6465L154.447 97.891Z" fill="#EFB1A5"/>
<path d="M185.118 81.6043C182.84 96.3825 177.172 110.209 167.181 110.335C158.07 110.514 151.595 95.9695 150.106 81.1195C148.169 61.9061 156.85 55.9805 167.845 55.9805C178.84 55.9805 187.844 63.9531 185.118 81.6043Z" fill="#FACFC4"/>
<path d="M150.142 79.0009C150.142 79.0009 148.349 77.4207 147.344 79.4857C147.075 80.0244 147.039 80.9222 147.237 84.3519C147.416 87.4045 150.214 88.1407 151.469 86.9197C151.523 86.8838 150.142 79.0009 150.142 79.0009Z" fill="#FACFC4"/>
<path d="M183.97 79.8985C183.97 79.8985 185.979 78.2106 186.983 80.2935C187.248 81.9859 187.314 83.7034 187.181 85.4111C187.181 87.4581 185.226 88.7331 183.809 87.4043C183.773 87.3684 183.97 79.8985 183.97 79.8985Z" fill="#FACFC4"/>
<path d="M154.285 78.4975C155.056 76.1272 161.334 75.6424 162.823 77.7613L154.285 78.4975Z" fill="#EFB1A5"/>
<path d="M171.899 77.995C174.159 75.8582 180.096 76.1994 181.28 77.995H171.899Z" fill="#EFB1A5"/>
<path d="M158.949 83.4006C159.751 83.4006 160.402 82.7655 160.402 81.982C160.402 81.1986 159.751 80.5635 158.949 80.5635C158.147 80.5635 157.496 81.1986 157.496 81.982C157.496 82.7655 158.147 83.4006 158.949 83.4006Z" fill="#004753"/>
<path d="M176.293 83.4006C177.096 83.4006 177.746 82.7655 177.746 81.982C177.746 81.1986 177.096 80.5635 176.293 80.5635C175.491 80.5635 174.84 81.1986 174.84 81.982C174.84 82.7655 175.491 83.4006 176.293 83.4006Z" fill="#004753"/>
<path d="M174.464 86.3455C174.697 94.426 166.356 91.517 166.356 91.517L170.177 89.9189C170.177 89.6136 169.693 79.989 169.657 80.0787C169.621 80.1685 174.284 80.1685 174.464 86.3455Z" fill="#EFB1A5"/>
<path d="M160.76 57.8482C160.76 57.8482 160.222 80.3117 150.142 79.0009C144.367 78.2647 144.151 70.5434 149.64 70.0227C150.142 70.0227 140.582 54.7597 150.465 51.2582C157.299 48.7622 160.76 57.8482 160.76 57.8482Z" fill="#F78B00"/>
<path d="M161.514 66.8616C163.128 69.0523 172.078 71.8715 172.921 60.918C172.688 68.1006 173.782 68.3161 175.755 68.4418C178.158 68.6034 178.23 63.2524 178.248 62.157C178.392 68.8907 180.257 76.6658 186.032 80.4008C188.149 74.5649 187.485 61.6722 182.176 55.6568C176.867 49.6413 168.993 50.0543 165.172 50.6828C158.572 51.7063 157.55 61.5645 161.514 66.8616Z" fill="#F78B00"/>
<path d="M159.236 59.5542C159.236 58.4409 155.846 35.726 165.298 35.1873C175.719 34.5768 179.647 54.9394 170.536 58.9975C163.577 62.1579 159.236 59.5542 159.236 59.5542Z" fill="#F78B00"/>
<path d="M165.119 100.549L171.738 100.657C171.738 100.657 171.343 102.291 168.384 102.452C165.424 102.614 165.119 100.549 165.119 100.549Z" fill="white"/>
<path d="M172.186 99.2017C174.289 99.4961 176.429 99.4049 178.499 98.9324C175.881 98.7888 174.912 92.7015 167.845 92.5579C161.711 92.4322 160.671 97.7473 157.693 98.5374C158.771 99.0594 159.958 99.3178 161.155 99.2915C162.553 99.2832 163.924 98.8988 165.123 98.1785C166.322 97.4583 167.305 96.4287 167.971 95.1975C168.096 95.1436 169.621 98.681 172.186 99.2017Z" fill="#F78B00"/>
<path d="M150.949 80.9047C150.784 80.8653 150.61 80.873 150.449 80.9269C150.287 80.9808 150.144 81.0788 150.035 81.21C149.83 81.4669 149.689 81.7683 149.622 82.0898C149.51 82.3063 149.452 82.5465 149.452 82.7901C149.452 83.0338 149.51 83.2739 149.622 83.4904C150.035 84.0291 150.878 83.9393 151.559 83.7957" fill="#EFB1A5"/>
<path d="M184.454 85.3211C184.874 85.3296 185.283 85.1905 185.611 84.928C185.938 84.6655 186.164 84.2963 186.248 83.8846C186.267 83.6857 186.24 83.4852 186.169 83.2982C186.099 83.1113 185.987 82.943 185.841 82.8061C185.696 82.6693 185.521 82.5675 185.33 82.5085C185.14 82.4496 184.938 82.4351 184.741 82.4661" fill="#EFB1A5"/>
<path d="M153.46 121.001C153.46 121.001 161.496 154.203 170.141 154.203C177.154 154.203 181.549 121.881 181.549 121.881C181.549 121.881 231.573 138.904 233.331 144.003C235.088 149.103 234.03 149.624 234.03 149.624C234.03 149.624 210.121 185.285 165.675 185.106C121.229 184.926 102.234 158.961 102.234 158.961C102.234 158.961 103.92 148.187 106.073 146.553C109.499 143.824 153.46 121.001 153.46 121.001Z" fill="#009299"/>
<path d="M87.968 249L87.696 246.904H83.872L82.784 249H79.28L85.808 237.8H89.04L91.2 249H87.968ZM85.104 244.504H87.392L86.928 240.984L85.104 244.504ZM98.5236 241.608H101.484L100.108 248.584C99.8516 249.907 99.3236 250.877 98.5236 251.496C97.7343 252.125 96.6196 252.44 95.1796 252.44C93.9103 252.44 92.7156 252.243 91.5956 251.848L92.4596 249.496C93.5156 249.88 94.4223 250.072 95.1796 250.072C95.7556 250.072 96.2036 249.955 96.5236 249.72C96.8436 249.485 97.057 249.112 97.1636 248.6L97.2756 248.056H97.2436C96.6143 248.845 95.7983 249.24 94.7956 249.24C93.8676 249.24 93.1316 248.925 92.5876 248.296C92.0543 247.667 91.7876 246.813 91.7876 245.736C91.7876 244.435 92.161 243.384 92.9076 242.584C93.6543 241.773 94.625 241.368 95.8196 241.368C97.0463 241.368 97.873 241.816 98.2996 242.712H98.3316L98.5236 241.608ZM96.1716 246.664C96.609 246.664 96.9716 246.52 97.2596 246.232C97.5476 245.944 97.6916 245.581 97.6916 245.144C97.6916 244.781 97.5743 244.493 97.3396 244.28C97.1156 244.056 96.8116 243.944 96.4276 243.944C95.9903 243.944 95.6276 244.088 95.3396 244.376C95.0516 244.664 94.9076 245.027 94.9076 245.464C94.9076 245.827 95.0196 246.12 95.2436 246.344C95.4783 246.557 95.7876 246.664 96.1716 246.664ZM109.792 244.376C109.792 244.824 109.712 245.363 109.552 245.992H104.4C104.581 246.643 105.109 246.968 105.984 246.968C106.635 246.968 107.339 246.803 108.096 246.472L108.832 248.632C107.829 249.037 106.821 249.24 105.808 249.24C104.613 249.24 103.611 248.936 102.8 248.328C102 247.709 101.6 246.792 101.6 245.576C101.6 245.053 101.691 244.552 101.872 244.072C102.053 243.581 102.32 243.133 102.672 242.728C103.024 242.323 103.493 241.997 104.08 241.752C104.677 241.507 105.355 241.384 106.112 241.384C107.221 241.384 108.112 241.645 108.784 242.168C109.456 242.691 109.792 243.427 109.792 244.376ZM107.04 244.456C107.061 244.328 107.072 244.227 107.072 244.152C107.072 243.885 106.976 243.677 106.784 243.528C106.592 243.379 106.331 243.304 106 243.304C105.264 243.304 104.752 243.688 104.464 244.456H107.04Z" fill="#054752"/>
<path d="M218.088 237.96C219.112 237.96 219.917 238.227 220.504 238.76C221.101 239.283 221.4 239.96 221.4 240.792C221.4 241.187 221.341 241.555 221.224 241.896C221.107 242.237 220.92 242.568 220.664 242.888C220.419 243.208 220.189 243.475 219.976 243.688C219.763 243.901 219.469 244.173 219.096 244.504L215.656 247.496H220.36L220.072 249H212.872L213.096 247.768L217.752 243.688C218.189 243.315 218.515 243.021 218.728 242.808C218.952 242.584 219.176 242.291 219.4 241.928C219.624 241.555 219.736 241.197 219.736 240.856C219.736 240.483 219.587 240.163 219.288 239.896C218.989 239.629 218.557 239.496 217.992 239.496C216.765 239.496 216.072 240.056 215.912 241.176H214.296C214.445 240.173 214.84 239.389 215.48 238.824C216.131 238.248 217 237.96 218.088 237.96ZM224.259 242.712C224.76 242.189 225.438 241.928 226.291 241.928C227.144 241.928 227.859 242.216 228.435 242.792C229.011 243.368 229.299 244.168 229.299 245.192C229.299 246.355 228.942 247.32 228.227 248.088C227.523 248.856 226.494 249.24 225.139 249.24C224.264 249.24 223.496 249.053 222.835 248.68C222.174 248.307 221.683 247.741 221.363 246.984L222.739 246.168C223.038 246.691 223.374 247.08 223.747 247.336C224.12 247.581 224.6 247.704 225.187 247.704C226.062 247.704 226.686 247.464 227.059 246.984C227.443 246.504 227.635 245.928 227.635 245.256C227.635 244.637 227.454 244.163 227.091 243.832C226.739 243.501 226.286 243.336 225.731 243.336C224.963 243.336 224.339 243.597 223.859 244.12H222.355L224.147 238.2H229.539L229.235 239.704H225.235L224.227 242.712H224.259Z" fill="#00AEE0"/>
<path d="M86.208 276.24C84.5333 276.24 83.184 275.76 82.16 274.8C81.1467 273.84 80.64 272.544 80.64 270.912C80.64 269.12 81.2427 267.616 82.448 266.4C83.6533 265.173 85.2107 264.56 87.12 264.56C88.7947 264.56 90.1387 265.04 91.152 266C92.176 266.96 92.688 268.256 92.688 269.888C92.688 271.68 92.0853 273.189 90.88 274.416C89.6747 275.632 88.1173 276.24 86.208 276.24ZM86.4 273.28C86.944 273.28 87.424 273.179 87.84 272.976C88.2667 272.773 88.5973 272.512 88.832 272.192C89.0773 271.861 89.2587 271.515 89.376 271.152C89.504 270.779 89.568 270.4 89.568 270.016C89.568 269.248 89.3333 268.64 88.864 268.192C88.4053 267.744 87.76 267.52 86.928 267.52C86.384 267.52 85.8987 267.621 85.472 267.824C85.056 268.027 84.7253 268.293 84.48 268.624C84.2453 268.944 84.064 269.291 83.936 269.664C83.8187 270.027 83.76 270.4 83.76 270.784C83.76 271.552 83.9893 272.16 84.448 272.608C84.9173 273.056 85.568 273.28 86.4 273.28ZM97.118 276.24C95.9447 276.24 94.9687 275.915 94.19 275.264C93.422 274.613 93.038 273.691 93.038 272.496C93.038 271.301 93.4327 270.315 94.222 269.536C95.0113 268.757 96.1367 268.368 97.598 268.368C98.75 268.368 99.7953 268.667 100.734 269.264L99.342 271.488C98.7233 271.115 98.158 270.928 97.646 270.928C97.134 270.928 96.7447 271.067 96.478 271.344C96.2113 271.611 96.078 271.947 96.078 272.352C96.078 272.747 96.2007 273.067 96.446 273.312C96.6913 273.547 97.0113 273.664 97.406 273.664C97.8433 273.664 98.2753 273.568 98.702 273.376L99.502 275.776C98.6593 276.085 97.8647 276.24 97.118 276.24ZM102.954 276.24C102.239 276.24 101.669 276.048 101.242 275.664C100.815 275.269 100.602 274.661 100.602 273.84C100.602 273.531 100.645 273.147 100.73 272.688L101.546 268.608H104.634L103.978 271.984C103.925 272.229 103.898 272.48 103.898 272.736C103.898 273.387 104.175 273.712 104.73 273.712C105.082 273.712 105.354 273.584 105.546 273.328C105.738 273.072 105.887 272.661 105.994 272.096L106.666 268.608H109.642L108.202 276H105.338L105.594 274.72H105.562C104.847 275.733 103.978 276.24 102.954 276.24ZM116.091 268.368C116.976 268.368 117.696 268.672 118.251 269.28C118.816 269.877 119.099 270.741 119.099 271.872C119.099 273.173 118.725 274.229 117.979 275.04C117.232 275.84 116.261 276.24 115.067 276.24C113.829 276.24 113.003 275.792 112.587 274.896H112.555L111.755 279.2H108.794L110.843 268.608H113.803L113.611 269.552H113.643C114.272 268.763 115.088 268.368 116.091 268.368ZM114.459 273.664C114.939 273.664 115.312 273.509 115.579 273.2C115.845 272.891 115.979 272.539 115.979 272.144C115.979 271.739 115.856 271.44 115.611 271.248C115.365 271.045 115.067 270.944 114.715 270.944C114.235 270.944 113.861 271.099 113.595 271.408C113.328 271.717 113.195 272.069 113.195 272.464C113.195 272.869 113.317 273.173 113.562 273.376C113.808 273.568 114.107 273.664 114.459 273.664ZM122.655 276.24C121.727 276.24 120.991 275.925 120.447 275.296C119.914 274.667 119.647 273.813 119.647 272.736C119.647 271.435 120.02 270.384 120.767 269.584C121.514 268.773 122.484 268.368 123.679 268.368C124.906 268.368 125.732 268.816 126.159 269.712H126.191L126.383 268.608H129.343L127.903 276H124.943L125.135 275.056H125.103C124.474 275.845 123.658 276.24 122.655 276.24ZM124.031 273.664C124.468 273.664 124.831 273.52 125.119 273.232C125.407 272.944 125.551 272.581 125.551 272.144C125.551 271.781 125.434 271.493 125.199 271.28C124.975 271.056 124.671 270.944 124.287 270.944C123.85 270.944 123.487 271.088 123.199 271.376C122.911 271.664 122.767 272.027 122.767 272.464C122.767 272.827 122.879 273.12 123.103 273.344C123.338 273.557 123.647 273.664 124.031 273.664ZM133.956 271.04L133.716 272.24C133.673 272.411 133.652 272.576 133.652 272.736C133.652 272.928 133.7 273.061 133.796 273.136C133.902 273.211 134.073 273.248 134.308 273.248H134.564L134.036 276H132.676C131.982 276 131.449 275.813 131.076 275.44C130.702 275.056 130.516 274.533 130.516 273.872C130.516 273.659 130.542 273.403 130.596 273.104L130.996 271.04H129.508L129.988 268.608H131.476L132.052 265.648H134.996L134.42 268.608H136.004L135.524 271.04H133.956ZM140.431 264.8L139.887 267.568H136.863L137.407 264.8H140.431ZM139.679 268.608L138.239 276H135.279L136.719 268.608H139.679ZM143.898 276.24C142.703 276.24 141.727 275.936 140.97 275.328C140.223 274.72 139.85 273.835 139.85 272.672C139.85 271.445 140.271 270.421 141.114 269.6C141.956 268.779 143.076 268.368 144.474 268.368C145.668 268.368 146.639 268.672 147.386 269.28C148.143 269.888 148.522 270.773 148.522 271.936C148.522 273.163 148.1 274.187 147.258 275.008C146.415 275.829 145.295 276.24 143.898 276.24ZM144.058 273.664C144.538 273.664 144.911 273.509 145.178 273.2C145.444 272.891 145.578 272.539 145.578 272.144C145.578 271.739 145.455 271.44 145.21 271.248C144.964 271.045 144.666 270.944 144.314 270.944C143.834 270.944 143.46 271.099 143.194 271.408C142.927 271.717 142.794 272.069 142.794 272.464C142.794 272.869 142.916 273.173 143.162 273.376C143.407 273.568 143.706 273.664 144.058 273.664ZM152.925 268.608L152.669 269.856H152.701C153.384 268.864 154.264 268.368 155.341 268.368C156.056 268.368 156.621 268.565 157.037 268.96C157.464 269.344 157.677 269.941 157.677 270.752C157.677 271.125 157.635 271.536 157.549 271.984L156.765 276H153.805L154.509 272.416C154.552 272.203 154.573 271.995 154.573 271.792C154.573 271.099 154.275 270.752 153.677 270.752C152.973 270.752 152.52 271.264 152.317 272.288L151.581 276H148.621L150.061 268.608H152.925Z" fill="#054752"/>
<path d="M213.4 276L215.576 264.8H217.288L221.08 273.296H221.112L222.744 264.8H224.408L222.232 276H220.504L216.728 267.488H216.712L215.064 276H213.4ZM226.958 276.24C226.233 276.24 225.667 276.043 225.262 275.648C224.857 275.243 224.654 274.677 224.654 273.952C224.654 273.664 224.697 273.285 224.782 272.816L225.614 268.608H227.214L226.414 272.656C226.361 272.976 226.334 273.232 226.334 273.424C226.334 274.288 226.793 274.72 227.71 274.72C228.297 274.72 228.771 274.512 229.134 274.096C229.497 273.68 229.763 273.029 229.934 272.144L230.622 268.608H232.19L230.766 276H229.198L229.406 274.88H229.374C228.766 275.787 227.961 276.24 226.958 276.24ZM232.693 276L234.133 268.608H235.701L235.381 270.176H235.413C235.978 268.981 236.88 268.384 238.117 268.384H238.341L237.973 270.224H237.621C236.853 270.224 236.25 270.421 235.813 270.816C235.376 271.211 235.072 271.845 234.901 272.72L234.261 276H232.693ZM238.405 273.824C239.194 274.485 239.962 274.816 240.709 274.816C241.029 274.816 241.279 274.752 241.461 274.624C241.653 274.496 241.749 274.32 241.749 274.096C241.749 273.797 241.541 273.504 241.125 273.216L240.085 272.512C239.274 271.957 238.868 271.269 238.868 270.448C238.868 269.819 239.087 269.317 239.525 268.944C239.962 268.56 240.554 268.368 241.301 268.368C242.207 268.368 243.087 268.651 243.941 269.216L243.173 270.464C242.479 270.016 241.882 269.792 241.381 269.792C240.794 269.792 240.501 270.027 240.501 270.496C240.501 270.805 240.751 271.12 241.253 271.44L242.165 272.048C242.986 272.592 243.397 273.275 243.397 274.096C243.397 274.779 243.167 275.307 242.709 275.68C242.25 276.053 241.61 276.24 240.789 276.24C239.487 276.24 238.399 275.835 237.524 275.024L238.405 273.824ZM251.969 272.576H245.969V272.592C245.969 274.021 246.668 274.736 248.065 274.736C248.993 274.736 249.878 274.347 250.721 273.568L251.633 274.736C250.545 275.728 249.356 276.224 248.065 276.224C246.945 276.224 246.06 275.915 245.409 275.296C244.769 274.667 244.449 273.813 244.449 272.736C244.449 271.467 244.854 270.421 245.665 269.6C246.476 268.779 247.51 268.368 248.769 268.368C249.804 268.368 250.614 268.645 251.201 269.2C251.788 269.755 252.081 270.523 252.081 271.504C252.081 271.76 252.044 272.117 251.969 272.576ZM248.689 269.696C248.081 269.696 247.553 269.851 247.105 270.16C246.668 270.459 246.353 270.875 246.161 271.408H250.545V271.328C250.545 270.805 250.38 270.405 250.049 270.128C249.729 269.84 249.276 269.696 248.689 269.696Z" fill="#00AEE0"/>
<path d="M80.16 303L82.336 291.8H85.376L83.744 300.184H87.968L87.424 303H80.16ZM92.5228 303.24C91.3281 303.24 90.3521 302.936 89.5948 302.328C88.8481 301.72 88.4748 300.835 88.4748 299.672C88.4748 298.445 88.8961 297.421 89.7388 296.6C90.5814 295.779 91.7014 295.368 93.0988 295.368C94.2934 295.368 95.2641 295.672 96.0108 296.28C96.7681 296.888 97.1468 297.773 97.1468 298.936C97.1468 300.163 96.7254 301.187 95.8828 302.008C95.0401 302.829 93.9201 303.24 92.5228 303.24ZM92.6828 300.664C93.1628 300.664 93.5361 300.509 93.8028 300.2C94.0694 299.891 94.2028 299.539 94.2028 299.144C94.2028 298.739 94.0801 298.44 93.8348 298.248C93.5894 298.045 93.2908 297.944 92.9388 297.944C92.4588 297.944 92.0854 298.099 91.8188 298.408C91.5521 298.717 91.4188 299.069 91.4188 299.464C91.4188 299.869 91.5414 300.173 91.7868 300.376C92.0321 300.568 92.3308 300.664 92.6828 300.664ZM101.774 303.24C100.601 303.24 99.6249 302.915 98.8463 302.264C98.0783 301.613 97.6943 300.691 97.6943 299.496C97.6943 298.301 98.0889 297.315 98.8783 296.536C99.6676 295.757 100.793 295.368 102.254 295.368C103.406 295.368 104.452 295.667 105.39 296.264L103.998 298.488C103.38 298.115 102.814 297.928 102.302 297.928C101.79 297.928 101.401 298.067 101.134 298.344C100.868 298.611 100.734 298.947 100.734 299.352C100.734 299.747 100.857 300.067 101.102 300.312C101.348 300.547 101.668 300.664 102.062 300.664C102.5 300.664 102.932 300.568 103.358 300.376L104.158 302.776C103.316 303.085 102.521 303.24 101.774 303.24ZM107.874 303.24C106.946 303.24 106.21 302.925 105.666 302.296C105.132 301.667 104.866 300.813 104.866 299.736C104.866 298.435 105.239 297.384 105.986 296.584C106.732 295.773 107.703 295.368 108.898 295.368C110.124 295.368 110.951 295.816 111.378 296.712H111.41L111.602 295.608H114.562L113.122 303H110.162L110.354 302.056H110.322C109.692 302.845 108.876 303.24 107.874 303.24ZM109.25 300.664C109.687 300.664 110.05 300.52 110.338 300.232C110.626 299.944 110.77 299.581 110.77 299.144C110.77 298.781 110.652 298.493 110.418 298.28C110.194 298.056 109.89 297.944 109.506 297.944C109.068 297.944 108.706 298.088 108.418 298.376C108.13 298.664 107.986 299.027 107.986 299.464C107.986 299.827 108.098 300.12 108.322 300.344C108.556 300.557 108.866 300.664 109.25 300.664ZM119.174 298.04L118.934 299.24C118.892 299.411 118.87 299.576 118.87 299.736C118.87 299.928 118.918 300.061 119.014 300.136C119.121 300.211 119.292 300.248 119.526 300.248H119.782L119.254 303H117.894C117.201 303 116.668 302.813 116.294 302.44C115.921 302.056 115.734 301.533 115.734 300.872C115.734 300.659 115.761 300.403 115.814 300.104L116.214 298.04H114.726L115.206 295.608H116.694L117.27 292.648H120.214L119.638 295.608H121.222L120.742 298.04H119.174ZM125.65 291.8L125.106 294.568H122.082L122.626 291.8H125.65ZM124.898 295.608L123.458 303H120.498L121.938 295.608H124.898ZM129.117 303.24C127.922 303.24 126.946 302.936 126.189 302.328C125.442 301.72 125.069 300.835 125.069 299.672C125.069 298.445 125.49 297.421 126.333 296.6C127.175 295.779 128.295 295.368 129.693 295.368C130.887 295.368 131.858 295.672 132.605 296.28C133.362 296.888 133.741 297.773 133.741 298.936C133.741 300.163 133.319 301.187 132.477 302.008C131.634 302.829 130.514 303.24 129.117 303.24ZM129.277 300.664C129.757 300.664 130.13 300.509 130.397 300.2C130.663 299.891 130.797 299.539 130.797 299.144C130.797 298.739 130.674 298.44 130.429 298.248C130.183 298.045 129.885 297.944 129.533 297.944C129.053 297.944 128.679 298.099 128.413 298.408C128.146 298.717 128.013 299.069 128.013 299.464C128.013 299.869 128.135 300.173 128.381 300.376C128.626 300.568 128.925 300.664 129.277 300.664ZM138.144 295.608L137.888 296.856H137.92C138.603 295.864 139.483 295.368 140.56 295.368C141.275 295.368 141.84 295.565 142.256 295.96C142.683 296.344 142.896 296.941 142.896 297.752C142.896 298.125 142.853 298.536 142.768 298.984L141.984 303H139.024L139.728 299.416C139.771 299.203 139.792 298.995 139.792 298.792C139.792 298.099 139.493 297.752 138.896 297.752C138.192 297.752 137.739 298.264 137.536 299.288L136.8 303H133.84L135.28 295.608H138.144Z" fill="#054752"/>
<path d="M213.792 303.24C213.013 303.24 212.272 303.096 211.568 302.808C210.864 302.52 210.267 302.152 209.776 301.704L210.8 300.28C211.781 301.123 212.789 301.544 213.824 301.544C214.368 301.544 214.789 301.416 215.088 301.16C215.387 300.893 215.536 300.541 215.536 300.104C215.536 299.592 215.227 299.069 214.608 298.536L212.848 296.968C212.037 296.243 211.632 295.389 211.632 294.408C211.632 293.576 211.915 292.893 212.48 292.36C213.056 291.827 213.851 291.56 214.864 291.56C215.92 291.56 216.987 291.912 218.064 292.616L217.12 294.104C216.256 293.528 215.483 293.24 214.8 293.24C214.331 293.24 213.984 293.357 213.76 293.592C213.536 293.816 213.424 294.083 213.424 294.392C213.424 294.829 213.707 295.288 214.272 295.768L215.904 297.208C216.864 298.061 217.344 299.011 217.344 300.056C217.344 301.069 217.013 301.853 216.352 302.408C215.701 302.963 214.848 303.24 213.792 303.24ZM217.757 306.216L219.805 295.608H221.373L221.197 296.504H221.245C221.917 295.747 222.738 295.368 223.709 295.368C224.68 295.368 225.469 295.699 226.077 296.36C226.685 297.011 226.989 297.864 226.989 298.92C226.989 300.157 226.605 301.187 225.837 302.008C225.069 302.829 224.104 303.24 222.941 303.24C221.64 303.24 220.738 302.733 220.237 301.72H220.189L219.325 306.216H217.757ZM222.621 301.752C223.389 301.752 224.029 301.485 224.541 300.952C225.064 300.408 225.325 299.736 225.325 298.936C225.325 298.285 225.138 297.779 224.765 297.416C224.392 297.043 223.88 296.856 223.229 296.856C222.461 296.856 221.816 297.128 221.293 297.672C220.781 298.205 220.525 298.872 220.525 299.672C220.525 300.323 220.712 300.835 221.085 301.208C221.458 301.571 221.97 301.752 222.621 301.752ZM233.772 301.976C233.09 302.819 232.263 303.24 231.292 303.24C230.322 303.24 229.527 302.904 228.908 302.232C228.3 301.56 227.996 300.691 227.996 299.624C227.996 298.397 228.375 297.384 229.132 296.584C229.9 295.773 230.86 295.368 232.012 295.368C232.663 295.368 233.223 295.507 233.692 295.784C234.172 296.051 234.524 296.429 234.748 296.92H234.796L235.036 295.608H236.604L235.18 303H233.612L233.82 301.976H233.772ZM231.836 301.752C232.594 301.752 233.218 301.501 233.708 301C234.21 300.488 234.46 299.843 234.46 299.064C234.46 298.392 234.263 297.859 233.868 297.464C233.474 297.059 232.946 296.856 232.284 296.856C231.527 296.856 230.898 297.117 230.396 297.64C229.906 298.163 229.66 298.819 229.66 299.608C229.66 300.269 229.852 300.792 230.236 301.176C230.631 301.56 231.164 301.752 231.836 301.752ZM241.035 291.96L240.667 293.88H238.747L239.115 291.96H241.035ZM237.179 303L238.619 295.608H240.187L238.747 303H237.179ZM240.74 303L242.18 295.608H243.748L243.524 296.728H243.556C244.217 295.821 245.087 295.368 246.164 295.368C246.889 295.368 247.449 295.581 247.844 296.008C248.249 296.424 248.452 297.005 248.452 297.752C248.452 298.115 248.415 298.499 248.34 298.904L247.54 303H245.972L246.724 299.096C246.777 298.829 246.804 298.547 246.804 298.248C246.804 297.32 246.319 296.856 245.348 296.856C244.708 296.856 244.201 297.064 243.828 297.48C243.455 297.896 243.177 298.557 242.996 299.464L242.308 303H240.74Z" fill="#00AEE0"/>
</svg>
