<svg width="24" height="24" viewBox="0 0 24 24" fill="none" xmlns="http://www.w3.org/2000/svg">
<circle cx="12" cy="12" r="12" fill="white"/>
<path d="M17.7892 8.45335H14.2008V9.45127H17.8033L17.7892 8.45335ZM17.0319 15.3185C16.7597 15.4988 16.4382 15.5903 16.1118 15.5803C15.8957 15.6028 15.6774 15.5805 15.4703 15.5148C15.2633 15.449 15.0721 15.3412 14.9086 15.1981C14.6064 14.8555 14.4491 14.4089 14.4698 13.9525H19.1551C19.1889 13.4773 19.1483 12.9997 19.0348 12.537C18.925 12.0968 18.7329 11.6814 18.4686 11.3126C18.2026 10.9549 17.859 10.6622 17.4636 10.4563C17.0237 10.2394 16.5385 10.1302 16.0481 10.1378C15.5869 10.1344 15.1296 10.2234 14.7034 10.3996C14.313 10.5642 13.9594 10.8048 13.6629 11.1074C13.3674 11.416 13.1385 11.7822 12.9906 12.1832C12.8318 12.616 12.7527 13.074 12.757 13.5349C12.7497 14.0025 12.8264 14.4675 12.9835 14.908C13.1169 15.3068 13.3287 15.675 13.6063 15.9908C13.8936 16.3009 14.2467 16.5427 14.6397 16.6986C15.0778 16.8655 15.5439 16.9472 16.0127 16.9392C16.6705 16.9597 17.32 16.7875 17.8812 16.4438C18.448 16.041 18.8561 15.4526 19.0348 14.7806H17.4707C17.3869 15.0029 17.2329 15.1918 17.0319 15.3185ZM14.6043 12.4026C14.6594 12.2261 14.7508 12.0631 14.8727 11.9242C14.9946 11.7852 15.1442 11.6733 15.312 11.5957C15.5342 11.4957 15.7762 11.4473 16.0198 11.4542C16.1957 11.4392 16.3729 11.4624 16.539 11.5222C16.7052 11.5821 16.8564 11.6772 16.9823 11.801C17.2228 12.0954 17.3771 12.4505 17.4282 12.8272H14.491C14.5025 12.6834 14.5286 12.5411 14.5689 12.4026H14.6043ZM10.8602 12.0628C11.2205 11.9128 11.5335 11.6683 11.7662 11.3551C11.9801 11.0225 12.0863 10.632 12.0705 10.2369C12.0844 9.87651 12.0141 9.51788 11.8652 9.18941C11.7402 8.90484 11.5395 8.66003 11.2849 8.48166C11.015 8.29622 10.7085 8.17073 10.386 8.11364C10.0044 8.0336 9.61519 7.99563 9.22531 8.0004H5V16.9038H9.31732C9.71132 16.9041 10.1038 16.8541 10.4851 16.7552C10.8466 16.6617 11.1891 16.506 11.4972 16.2951C11.7957 16.0883 12.0388 15.8112 12.205 15.4883C12.3889 15.1272 12.479 14.7256 12.4668 14.3205C12.4802 13.8186 12.3394 13.3245 12.0634 12.9051C11.7666 12.4832 11.3263 12.1838 10.8248 12.0628H10.8602ZM6.96049 9.52205H8.79358C8.96199 9.52184 9.1301 9.53604 9.29609 9.56451C9.44893 9.58716 9.59571 9.6401 9.72782 9.72021C9.85546 9.79241 9.95889 9.90076 10.0251 10.0316C10.107 10.1885 10.1461 10.3643 10.1383 10.5412C10.1515 10.6935 10.1282 10.8468 10.0704 10.9883C10.0125 11.1299 9.92178 11.2556 9.80567 11.3551C9.55238 11.5292 9.24929 11.6162 8.94221 11.6028H6.96049V9.52205ZM10.386 14.7876C10.3133 14.9319 10.2034 15.0541 10.0675 15.1415C9.92621 15.2294 9.77047 15.2917 9.6075 15.3255C9.42636 15.3661 9.24105 15.3851 9.05545 15.3822H6.93218V12.9404H9.05545C9.41981 12.9245 9.77964 13.0262 10.0817 13.2306C10.2182 13.3531 10.3239 13.5059 10.3903 13.6769C10.4567 13.8478 10.4819 14.0319 10.4639 14.2144C10.483 14.4089 10.4564 14.6053 10.386 14.7876Z" fill="black"/>
</svg>
